<svg width="513" height="316" viewBox="0 0 513 316" fill="none" xmlns="http://www.w3.org/2000/svg">
<path d="M100.714 80C132.914 101 162.814 97.5 239.414 84.7C320.814 70.9 331.214 56.9 401.214 61.5C443.914 64.3 446.014 88.7 446.014 88.7C446.014 88.7 445.014 28.9 384.714 21.2C312.714 12 194.914 65.9 120.814 57.9C79.3137 53.5 77.0137 29.7 77.0137 29.7C77.0137 29.7 79.2137 65.9 100.714 80Z" fill="#644F9A"/>
<path d="M413.214 68.6C391.814 64.5 370.114 68.2 370.114 68.2C370.114 68.2 403.714 66.2 424.514 81.8C439.814 93.3 433.014 105.9 433.014 105.9C433.014 105.9 434.914 110.9 439.614 100.2C444.314 89.7 434.714 72.6 413.214 68.6Z" fill="#644F9A"/>
<path d="M86.5136 23.8C82.6136 8.79999 93.1136 4.29999 93.1136 4.29999C93.1136 4.29999 94.4136 0.19999 86.2136 4.59999C78.0136 8.99999 75.6136 24.5 87.0136 37.7C98.4136 50.9 116.614 52.5 116.614 52.5C116.614 52.5 91.8136 43.9 86.5136 23.8Z" fill="#644F9A"/>
<path d="M152.414 64.4L165.314 65.2L165.014 69.6L157.114 69.1L156.914 72.8L163.214 73.2L162.914 77.6L156.614 77.2L156.414 81.1L164.614 81.6L164.314 86L150.914 85.1L152.414 64.4Z" fill="white"/>
<path d="M172.014 75.2L166.414 65.5L171.814 65.3L176.014 73.1L178.014 73L177.614 65L182.614 64.8L183.014 72.8L185.014 72.7L188.414 64.5L193.814 64.3L189.114 74.5V74.6L195.114 85.1L189.514 85.4L185.114 77.2L183.114 77.3L183.514 85.7L178.514 85.9L178.114 77.5L176.114 77.6L172.514 86.2L166.914 86.5L172.014 75.2Z" fill="white"/>
<path d="M196.114 63.7L209.014 62.2L209.514 66.5L201.614 67.4L202.114 71.1L208.414 70.3L208.914 74.6L202.614 75.4L203.114 79.3L211.314 78.3L211.814 82.6L198.514 84.2L196.114 63.7Z" fill="white"/>
<path d="M213.214 61.6L218.614 60.7L223.014 68.8C223.714 70 224.614 72 224.614 72H224.714C224.714 72 224.914 69.9 225.214 68.5L226.714 59.4L232.114 58.5L237.214 78.6L232.214 79.4L230.114 70.3C229.714 68.8 229.514 66.9 229.514 66.9H229.414C229.414 66.9 229.114 69.2 228.914 70.5L227.814 76.8L223.414 77.6L220.314 72C219.614 70.8 218.614 68.8 218.614 68.8H218.514C218.514 68.8 219.014 70.6 219.114 72.2L220.014 81.5L215.014 82.3L213.214 61.6Z" fill="white"/>
<path d="M236.114 57.6L248.814 55L249.714 59.3L242.014 60.9L242.814 64.6L249.014 63.3L249.914 67.6L243.714 68.9L244.514 72.7L252.614 71L253.514 75.3L240.514 78.1L236.114 57.6Z" fill="white"/>
<path d="M260.814 51.8C263.514 51.2 266.614 51.3 269.014 52.9L267.614 57.2C266.114 56.4 263.914 55.9 262.114 56.4C258.114 57.4 257.114 60.6 257.814 63.5C258.514 66.5 261.014 69.2 264.914 68.2C266.914 67.7 268.614 66.1 269.614 64.5L273.014 67.5C271.614 69.7 269.414 71.9 265.714 72.8C259.214 74.3 254.114 70.8 252.714 64.8C251.314 58.8 254.614 53.3 260.814 51.8Z" fill="white"/>
<path d="M276.214 62.7C276.514 61.6 276.714 61.3 276.714 61.3V61.2C274.114 60.5 272.614 58.5 271.914 56.1C271.114 53 272.114 50.6 274.014 49.2C274.814 48.7 275.814 48.2 277.714 47.7L284.614 45.9L289.914 65.9L285.014 67.2L283.214 60.5L281.414 61L279.414 68.7L274.014 70.2L276.214 62.7ZM282.214 56.6L280.914 51.6L279.214 52.1C278.114 52.4 277.414 52.8 277.014 53.2C276.614 53.7 276.614 54.5 276.814 55.3C277.314 57.1 278.514 57.6 280.014 57.2L282.214 56.6Z" fill="white"/>
<path d="M289.914 51.7L288.414 45L293.414 43.9L294.714 49.5C295.214 51.4 296.214 52.3 298.114 51.9C299.614 51.5 300.814 50.8 301.514 50.1L299.714 42.5L304.714 41.4L309.414 61.6L304.414 62.7L302.714 55.4C302.614 55 302.514 54.5 302.514 54.5H302.414C301.514 55.2 299.814 56.3 297.714 56.7C293.414 57.6 290.814 55.6 289.914 51.7Z" fill="white"/>
<path d="M309.514 40.2L314.514 39.3L316.014 47.4L323.414 46L321.914 37.9L326.914 37L330.714 57.3L325.714 58.2L324.214 50.2L316.814 51.6L318.314 59.6L313.314 60.5L309.514 40.2Z" fill="white"/>
<path d="M332.014 36L337.014 35.4L337.814 41.7L341.014 41.3C345.014 40.8 348.014 43.4 348.614 47.6C349.214 51.8 346.814 55 342.814 55.5L334.614 56.6L332.014 36ZM341.414 51.3C343.114 51.1 343.814 49.8 343.614 48.2C343.414 46.6 342.414 45.5 340.614 45.7L338.414 46L339.114 51.6L341.414 51.3ZM349.214 33.8L354.214 33.2L356.814 53.8L351.814 54.4L349.214 33.8Z" fill="white"/>
<path d="M359.914 32.8L364.914 32.6L365.314 42.2C365.414 43.5 365.214 45.7 365.214 45.7H365.314C365.314 45.7 366.114 43.5 366.914 42.1L372.214 32.2L377.314 32L378.114 52.7L373.114 52.9L372.714 43.3C372.614 42 372.814 39.8 372.814 39.8H372.714C372.714 39.8 371.914 42 371.114 43.4L365.814 53.3L360.714 53.5L359.914 32.8ZM363.214 27.3V27L366.914 26.8V27.2C367.014 28.4 367.914 28.9 368.714 28.8C369.514 28.8 370.514 28.2 370.514 27V26.6L374.214 26.4V26.7C374.414 29.5 371.814 31.2 368.914 31.4C365.914 31.6 363.314 30.1 363.214 27.3Z" fill="white"/>
<path d="M126.014 18.3L138.214 23L136.614 27.2L129.314 24.4L123.214 40.2L118.314 38.3L126.014 18.3Z" fill="#644F9A"/>
<path d="M138.814 29.9L139.614 22.9L153.814 24.7L151.214 45.9L146.014 45.3L148.114 28.6L144.014 28.1L143.714 30.7C142.414 41.2 138.714 44.8 132.814 44L133.414 39.3C135.914 39.1 137.814 37.5 138.814 29.9Z" fill="#644F9A"/>
<path d="M161.814 24.4L167.314 24.2L175.314 45.3L170.014 45.5L168.614 41.1L162.014 41.3L160.914 45.8L155.614 46L161.814 24.4ZM167.114 37L165.714 32.9C165.214 31.6 164.714 29.2 164.714 29.2H164.614C164.614 29.2 164.214 31.6 163.814 32.9L162.714 37.1L167.114 37Z" fill="#644F9A"/>
<path d="M175.914 23.7L183.714 22.7C187.914 22.2 191.114 23.7 191.614 27.3C191.814 29.1 191.214 31 189.714 32.1V32.2C192.214 32.7 193.414 34.6 193.614 36.6C194.214 41.2 190.514 43.4 186.414 43.9L178.614 44.9L175.914 23.7ZM184.814 30.9C186.114 30.7 186.614 29.7 186.414 28.7C186.214 27.7 185.614 26.9 184.214 27.2L181.614 27.5L182.114 31.2L184.814 30.9ZM186.314 39.4C187.814 39.2 188.414 38.1 188.314 36.9C188.114 35.7 187.314 34.8 185.814 35L182.714 35.4L183.214 39.8L186.314 39.4Z" fill="#644F9A"/>
<path d="M194.414 21.2L199.514 20.2L201.214 28.6L208.814 27.1L207.114 18.7L212.214 17.7L216.414 38.6L211.314 39.6L209.714 31.4L202.114 32.9L203.714 41.1L198.614 42.1L194.414 21.2Z" fill="#644F9A"/>
<path d="M216.014 16.8L221.014 15.5L222.714 21.9L225.914 21.1C229.914 20 233.414 22.3 234.514 26.5C235.614 30.6 233.714 34.3 229.614 35.4L221.414 37.5L216.014 16.8ZM227.614 31.2C229.314 30.7 229.814 29.4 229.414 27.8C228.914 26.1 227.814 25.2 226.014 25.7L223.814 26.3L225.214 31.9L227.614 31.2ZM233.314 12.2L238.314 10.9L243.714 31.5L238.714 32.8L233.314 12.2Z" fill="#644F9A"/>
<path d="M241.614 9.9L246.614 8.4L249.514 18C249.914 19.3 250.314 21.5 250.314 21.5H250.414C250.414 21.5 250.614 19.1 251.014 17.5L253.714 6.3L258.714 4.8L265.014 25.2L260.014 26.7L257.114 17.2C256.714 15.9 256.314 13.7 256.314 13.7H256.214C256.214 13.7 256.014 16.1 255.614 17.7L252.914 28.9L247.914 30.4L241.614 9.9ZM243.514 3.6L243.414 3.3L247.114 2.2L247.214 2.5C247.614 3.6 248.714 3.9 249.514 3.6C250.314 3.4 251.114 2.5 250.714 1.4L250.614 1.1L254.214 0L254.314 0.3C255.114 3.1 253.214 5.4 250.314 6.3C247.314 7.2 244.314 6.3 243.514 3.6Z" fill="#644F9A"/>
<path d="M323.414 77.2L339.514 75.4L341.614 94.4L337.014 94.9L335.314 79.9L328.514 80.7L330.214 95.8L325.514 96.3L323.414 77.2Z" fill="#644F9A"/>
<path d="M344.614 75.1L352.514 74.8C356.214 74.6 358.814 77.3 359.014 81.1C359.214 84.9 356.714 87.8 353.014 88L349.714 88.2L349.914 94.1L345.214 94.3L344.614 75.1ZM351.914 84C353.514 83.9 354.314 82.8 354.314 81.2C354.214 79.7 353.414 78.7 351.914 78.8L349.514 78.9L349.714 84.1L351.914 84Z" fill="#644F9A"/>
<path d="M362.714 74.5L367.414 74.8L366.914 83.7C366.814 84.9 366.514 87 366.514 87H366.614C366.614 87 367.614 85 368.414 83.8L374.214 75.2L378.914 75.5L377.814 94.6L373.114 94.3L373.614 85.4C373.714 84.2 374.014 82.1 374.014 82.1H373.914C373.914 82.1 372.914 84.1 372.114 85.3L366.314 93.9L361.614 93.6L362.714 74.5Z" fill="#644F9A"/>
<path d="M383.014 89.7C383.814 90.8 385.114 92 386.714 92.3C388.314 92.6 389.314 92 389.614 90.6C389.814 89.5 389.314 88.6 387.814 88.3L385.514 87.8L386.214 84.1L388.014 84.5C389.414 84.7 390.414 84 390.514 83C390.714 81.9 390.014 80.9 388.714 80.6C387.514 80.4 386.014 80.7 384.514 81.4L383.414 77.8C385.814 76.4 388.214 76.4 390.314 76.8C393.014 77.3 396.014 79.6 395.314 83.2C394.914 85.3 393.414 86.3 392.114 86.9V87C393.814 88 394.614 89.7 394.214 91.7C393.514 95.4 390.014 96.9 386.414 96.2C383.814 95.7 381.514 94.2 380.114 92.1L383.014 89.7Z" fill="#644F9A"/>
<path d="M388.914 123.6C384.614 119.7 379.014 117.2 372.214 116.5C368.814 116.1 367.114 116 363.714 115.6C363.214 115.6 362.814 115.6 362.314 115.6C361.414 115.6 360.614 115.8 359.714 115.8C356.514 113.1 351.714 110.6 344.914 110.1C344.014 110.1 343.414 109.9 342.514 109.9C338.214 109.9 333.814 110.9 329.914 113.1C326.514 110.7 321.914 108.5 315.414 108.1C314.914 108.1 314.414 108.1 313.914 108.1C309.314 108.1 304.714 109.1 300.614 111.7C297.214 109.3 292.414 107.2 286.114 107H285.414C276.214 107 269.914 110.7 265.614 116C261.314 110.5 254.914 106.7 245.514 106.7H245.014C238.514 106.9 233.714 108.7 230.314 111.1C226.714 108.9 222.114 107.5 216.714 107.5C216.414 107.5 215.814 107.5 215.514 107.5C209.014 107.7 204.414 109.9 201.014 112.3C196.914 110.1 192.514 109 188.014 109C187.314 109 186.614 109 186.014 109C176.814 109.7 171.114 113.9 168.014 117.5C167.314 118.4 166.614 119.2 166.114 120.1C165.314 118.4 163.914 116.8 162.414 115.5C159.814 113.3 156.614 112.2 153.214 112.2C152.714 112.2 152.314 112.2 151.814 112.2C149.114 112.5 147.714 112.5 144.814 112.9C141.214 113.2 137.814 114.9 135.414 117.7C132.114 121.3 130.614 123.2 127.314 126.7C124.714 129.6 123.414 133.5 123.714 137.5C124.014 141.1 125.614 144.3 127.914 146.8C126.714 149.2 126.214 151.9 126.514 154.8L127.214 161.5C127.514 165.3 129.614 168.9 132.514 171.3C135.114 173.4 138.314 174.6 141.514 174.6C142.014 174.6 142.514 174.6 143.014 174.4C151.414 173.6 155.514 173.1 163.814 172.4C167.614 172.1 171.114 170.2 173.714 167.3L173.914 167.1C178.214 169.8 183.114 171.1 187.714 171.1C188.414 171.1 189.114 171.1 189.714 171.1C195.314 170.8 200.014 169.1 203.514 166.3C207.614 168.5 212.014 169.6 216.514 169.6C216.814 169.6 217.414 169.6 217.714 169.6C223.314 169.4 228.014 167.7 231.514 165.2C235.414 167.6 240.014 168.8 245.014 168.8H245.314C254.414 168.7 260.714 165.1 264.814 159.8C268.914 165.1 275.214 168.9 284.214 169.1H284.914C289.514 169.1 294.114 168.1 298.214 165.5C301.814 168.1 306.414 169.8 312.014 170C312.514 170 313.014 170 313.514 170C317.814 170 322.214 169 326.114 166.8C329.714 169.5 334.114 171.3 339.714 171.8C340.614 171.8 341.214 172 341.914 172C345.014 172 348.014 171.5 351.014 170.5C353.014 171.9 355.414 172.7 357.814 173.1C360.414 173.3 361.714 173.5 364.314 173.8C364.814 173.8 365.314 173.8 365.714 173.8C369.614 173.8 373.214 172.3 375.814 169.7C381.414 168.5 385.914 164.3 387.114 158.6C391.914 155 394.814 149.6 395.514 143.1C396.714 135.5 394.314 128.6 388.914 123.6Z" fill="#644F9A"/>
<path d="M140.914 153.2C143.614 152.9 145.014 152.7 147.714 152.5C147.214 147.2 146.914 144.6 146.414 139.3C146.214 138.1 146.214 136.9 146.214 136.9C146.214 136.9 146.214 136.9 146.014 136.9C146.014 136.9 145.714 137.8 145.014 138.8C144.314 139.7 144.014 140 143.314 140.7C141.314 139 140.214 138.1 138.214 136.4C141.314 132.8 143.014 131.1 146.114 127.5C148.814 127.2 150.214 127.2 152.914 126.8C153.914 136.7 154.214 141.9 155.214 151.8C157.914 151.5 159.314 151.5 162.014 151.1C162.214 153.8 162.314 155 162.514 157.8C154.114 158.5 149.914 159 141.514 159.8C141.214 157.2 141.014 155.8 140.914 153.2Z" fill="white"/>
<path d="M175.614 140.7C174.914 131.6 177.414 124.1 186.714 123.6C195.914 122.9 199.314 130.1 199.814 139.2C200.314 148.3 197.714 155.8 188.714 156.3C179.814 156.9 176.214 149.7 175.614 140.7ZM191.814 139.7C191.514 134.6 190.314 130.5 187.214 130.8C184.114 131 183.414 135.1 183.814 140.4C184.114 145.5 185.314 149.6 188.414 149.5C191.414 149.1 192.114 144.8 191.814 139.7Z" fill="white"/>
<path d="M204.314 139C203.814 129.9 206.614 122.4 215.814 122.1C225.014 121.8 228.214 129 228.614 138C228.914 147.1 226.214 154.6 217.114 154.9C208.014 155.2 204.814 148.1 204.314 139ZM220.514 138.4C220.314 133.3 219.314 129.2 216.114 129.3C213.014 129.5 212.214 133.6 212.514 138.7C212.714 143.8 213.814 148.1 216.914 148C219.814 147.8 220.614 143.5 220.514 138.4Z" fill="white"/>
<path d="M233.014 137.9C232.914 128.8 235.614 121.5 245.014 121.3C254.214 121.2 257.314 128.5 257.214 137.6C257.214 146.7 254.314 154 245.214 154.2C236.314 154.3 233.314 147.2 233.014 137.9ZM249.214 137.8C249.214 132.7 248.214 128.6 245.114 128.5C242.014 128.5 241.214 132.6 241.114 137.7C241.314 142.8 242.114 147.1 245.214 147C248.314 147.2 249.214 142.9 249.214 137.8Z" fill="white"/>
<path d="M272.914 137.9C273.114 128.8 276.214 121.5 285.414 121.9C294.614 122.1 297.514 129.5 297.114 138.7C296.714 147.8 293.614 155.1 284.614 154.7C275.614 154.3 272.914 146.9 272.914 137.9ZM289.114 138.2C289.314 133.1 288.414 129 285.414 128.8C282.314 128.8 281.314 132.7 281.114 138C280.914 143.1 281.814 147.4 284.814 147.4C287.914 147.5 288.914 143.4 289.114 138.2Z" fill="white"/>
<path d="M301.614 138.6C302.014 129.5 305.214 122.4 314.614 122.9C323.814 123.4 326.514 130.8 325.814 139.9C325.314 149 321.814 156.1 312.814 155.6C303.914 155.2 301.214 147.7 301.614 138.6ZM317.814 139.3C318.214 134.2 317.514 130.1 314.214 129.9C311.114 129.7 309.914 133.8 309.714 139C309.514 144.1 310.214 148.4 313.314 148.6C316.414 148.8 317.514 144.6 317.814 139.3Z" fill="white"/>
<path d="M330.314 140.2C330.814 131.1 334.414 124 343.714 124.8C352.914 125.5 355.314 133 354.614 142.1C353.714 151.2 350.314 158.2 341.214 157.5C332.114 156.8 329.714 149.3 330.314 140.2ZM346.514 141.3C346.914 136.2 346.414 132.1 343.314 131.7C340.214 131.5 339.014 135.5 338.514 140.6C338.114 145.7 338.614 150 341.714 150.2C344.814 150.7 346.014 146.6 346.514 141.3Z" fill="white"/>
<path d="M367.014 151.3C369.714 151.6 371.114 151.7 373.814 152C373.614 153.4 373.614 154.1 373.414 155.4C370.714 155.1 369.314 155 366.614 154.7C366.414 156.6 366.314 157.4 366.114 159.1C363.514 158.9 362.214 158.7 359.614 158.4C359.814 156.5 359.814 155.7 360.014 154C358.814 153.8 358.314 153.8 357.114 153.6C357.314 152.2 357.314 151.5 357.514 150.2C358.714 150.4 359.214 150.4 360.414 150.6C360.614 149.6 360.614 149.1 360.614 148.2C359.414 148 358.914 148 357.714 147.8C357.914 146.3 357.914 145.4 358.114 143.9C359.314 144.1 359.814 144.1 361.014 144.3C361.514 138.8 361.714 135.9 362.214 130.4C365.614 130.8 367.314 130.9 370.714 131.3C374.314 131.7 377.214 132.7 379.114 134.6C381.014 136.3 381.814 138.7 381.514 141.6C381.114 144.7 379.914 146.7 377.714 147.9C375.514 149.1 372.614 149.6 369.014 149.2C368.314 149.2 367.814 149 367.114 149C367.114 149.7 367.014 150.3 367.014 151.3ZM368.514 135.6C368.114 139.4 368.014 141.2 367.614 144.8C368.314 144.8 368.614 145 369.314 145C370.814 145.2 372.014 144.8 373.114 144.2C374.014 143.5 374.614 142.3 374.814 140.8C375.014 139.3 374.614 138.2 374.014 137.4C373.114 136.5 372.014 136 370.414 135.8C369.614 135.6 369.214 135.6 368.514 135.6Z" fill="white"/>
<path d="M432.214 125.1C431.414 125.5 430.514 126.1 429.814 126.7C429.714 126.2 429.614 125.6 429.414 125.1C424.914 110 412.014 120.1 414.714 131.3C416.614 138.8 422.114 147.7 422.114 147.7C422.114 147.7 422.614 147.2 423.514 146.3C426.514 145.6 433.814 143.5 438.714 140.4C448.514 134.5 445.914 117.6 432.214 125.1Z" fill="#644F9A"/>
<path d="M92.7136 138.3C92.7136 138.3 97.2136 130.7 98.5136 124.2C100.414 114.6 89.2136 106.4 85.8136 119.3C85.3136 121.1 85.2136 122.8 85.3136 124.5C84.8136 124.1 84.2136 123.7 83.6136 123.4C72.2136 117.3 70.8136 131.2 78.9136 136.2C84.3136 139.5 92.7136 141.2 92.7136 141.2C92.7136 141.2 92.8136 140 92.5136 138.1C92.7136 138.2 92.7136 138.3 92.7136 138.3Z" fill="#644F9A"/>
<path d="M505.714 281C503.914 280.8 502.314 280.9 500.814 281.2C501.114 280.6 501.314 279.9 501.614 279.3C505.814 266.9 492.614 267.3 489.014 276.2C486.614 282.1 486.014 290.8 486.014 290.8C486.014 290.8 487.114 290.7 488.914 290.3C488.814 290.4 488.814 290.5 488.814 290.5C488.814 290.5 496.514 294.1 502.714 294.6C512.014 295.3 518.314 282.8 505.714 281Z" fill="#644F9A"/>
<path d="M7.51363 270.4C9.41363 270.2 11.1136 270.3 12.8136 270.6C12.5136 270 12.3136 269.3 11.9136 268.7C7.41363 256.3 21.5136 256.7 25.3136 265.6C27.8136 271.5 28.5136 280.2 28.5136 280.2C28.5136 280.2 27.3136 280.1 25.4136 279.7C25.5136 279.8 25.5136 279.9 25.5136 279.9C25.5136 279.9 17.3136 283.5 10.7136 284C0.813632 284.7 -5.88637 272.2 7.51363 270.4Z" fill="#644F9A"/>
<path d="M498.914 192.2C494.614 186.8 488.314 183.3 480.214 181.7C477.714 181.2 475.214 180.9 472.814 180.9C470.014 180.9 467.214 181.2 464.614 181.9L462.514 179.9L459.614 178.9C456.814 177.9 454.014 177.1 451.114 176.7C448.614 176.3 446.114 176.1 443.714 176.1C443.114 176.1 442.414 176.1 441.814 176.1L439.614 176.2C437.014 174.6 434.014 173.4 430.714 172.9C429.414 172.7 428.114 172.6 426.814 172.6C425.114 172.6 423.414 172.8 421.814 173.2L421.514 173L420.814 172.7C418.014 171.7 414.914 170.9 411.514 170.5C409.614 170.3 407.714 170.1 405.914 170.1C404.714 170.1 403.614 170.1 402.414 170.2H402.114H401.814C401.414 170.3 400.914 170.3 400.514 170.4C397.814 168.8 394.714 167.7 391.414 167.3C390.314 167.2 389.314 167.1 388.214 167.1C385.414 167.1 382.714 167.6 380.214 168.5C376.414 166.4 372.014 165.1 367.014 164.6C365.614 164.5 364.314 164.4 363.014 164.4C358.914 164.4 354.914 165.1 351.314 166.4C350.314 165.6 349.114 164.9 347.814 164.4L347.114 164.1L346.414 163.9C343.614 163 340.414 162.5 337.014 162.2C336.014 162.1 335.014 162.1 334.014 162.1C332.014 162.1 329.914 162.2 327.914 162.5H327.614H327.314C326.914 162.6 326.414 162.7 326.014 162.8C323.214 161.4 320.114 160.5 316.714 160.3C316.114 160.3 315.614 160.2 315.014 160.2C311.414 160.2 308.014 161 304.914 162.5C300.914 160.3 296.214 159.1 291.014 158.9C290.514 158.9 290.014 158.9 289.514 158.9C283.314 158.9 277.614 160.2 272.514 162.9C271.614 163.4 270.814 163.8 270.014 164.3C269.114 157.3 257.814 158.1 250.514 158.1H250.414C244.014 158.1 238.114 159.7 233.114 162.7C229.114 159.8 224.514 158.3 219.414 158.3C219.114 158.3 218.914 158.3 218.614 158.3C215.514 158.4 212.514 159 209.614 160.2C207.114 159.3 204.414 158.8 201.614 158.8C201.314 158.8 201.114 158.8 200.814 158.8C196.814 158.9 193.114 159.9 189.914 161.8C186.714 160.7 183.314 160.1 179.614 160.1C178.814 160.1 178.114 160.1 177.314 160.2C171.814 160.5 166.714 162 162.314 164.4L159.614 162.9L156.514 162.6C155.114 162.5 153.614 162.4 152.214 162.4C150.714 162.4 149.214 162.5 147.814 162.6C144.614 162.9 141.614 163.5 138.714 164.4L136.614 165C134.414 164.3 132.014 163.9 129.614 163.9C128.814 163.9 128.014 163.9 127.214 164C121.114 164.6 115.614 167.4 111.814 172C109.914 170.3 107.614 169.1 105.014 168.4L103.614 168.1L102.214 168C101.714 168 101.114 168 100.514 168C98.3135 168 95.9135 168.2 93.4135 168.5C90.6135 168.9 87.9135 169.5 85.4135 170.4C84.1135 170.2 82.8135 170.1 81.5135 170.1C80.2135 170.1 78.8135 170.2 77.5135 170.4C73.3135 171 69.6135 172.5 66.3135 174.8C65.4135 174.5 64.5135 174.3 63.5135 174.1L62.8135 174H62.1135C61.6135 174 61.1135 174 60.6135 174C58.1135 174 55.4135 174.3 52.6135 174.8C49.6135 175.4 46.6135 176.2 43.9135 177.4L43.7135 177.5L43.5135 177.6C43.1135 177.8 42.7135 178 42.3135 178.2C40.7135 177.8 39.0135 177.6 37.3135 177.6C35.8135 177.6 34.2135 177.7 32.7135 178C26.5135 179.2 21.4135 182.4 18.0135 187.4C14.5135 192.5 13.2135 197.6 14.1135 202.5C14.7135 205.8 16.3135 208.7 18.6135 211C20.3135 220.1 20.9135 223.8 21.1135 225.2V225.7L21.4135 227.5C22.7135 234.4 28.5135 239.6 35.5135 240H35.9135H36.5135C39.6135 240 42.6135 239.7 45.4135 239.2C49.0135 238.5 52.0135 237.6 54.7135 236.4C55.1135 236.2 55.6135 236 56.0135 235.8C57.6135 236.2 59.3135 236.4 61.0135 236.4C62.5135 236.4 64.1135 236.3 65.7135 236C69.2135 235.3 72.4135 233.9 75.2135 231.9C77.4135 232.5 79.8135 232.9 82.2135 232.9C83.5135 232.9 84.8135 232.8 86.1135 232.6C89.1135 232.2 92.0135 231.2 94.6135 229.8C96.3135 230.2 98.0135 230.4 99.9135 230.4C101.114 230.4 102.414 230.3 103.614 230.1C109.014 229.3 113.914 226.8 117.614 222.7C118.214 222.1 118.714 221.4 119.214 220.8C119.414 221 119.614 221.1 119.714 221.3C123.914 224.7 128.914 226.5 134.414 226.5C135.214 226.5 136.114 226.5 136.914 226.4C140.014 226.1 143.014 225.3 145.814 224C147.914 224.6 150.014 225 152.314 225C153.114 225 153.914 225 154.714 224.9C158.814 224.5 162.514 223.1 165.714 220.9C169.014 222.2 173.014 223.1 177.714 223.1C178.514 223.1 179.414 223.1 180.314 223C184.514 222.8 188.414 221.8 191.914 220.1C192.614 220.3 193.214 220.6 193.914 220.7L194.314 220.8L194.714 220.9C197.314 221.3 199.914 221.6 202.414 221.6C202.814 221.6 203.314 221.6 203.714 221.6C207.214 221.5 210.214 221.1 213.114 220.3C213.514 220.2 213.914 220.1 214.314 219.9C217.114 221 220.114 221.6 223.314 221.6C223.614 221.6 223.814 221.6 224.114 221.6C228.214 221.5 232.114 220.3 235.514 218.3C239.914 220.4 244.814 221.6 250.114 221.6H250.214C255.314 221.6 260.014 220.6 264.314 218.7C267.414 220.5 270.914 221.5 274.614 221.6C274.914 221.6 275.214 221.6 275.514 221.6C279.014 221.6 282.414 220.8 285.414 219.3C288.714 221.2 292.414 222.2 296.414 222.4C296.714 222.4 297.014 222.4 297.314 222.4C299.714 222.4 302.114 222 304.314 221.4L304.514 221.5C307.514 222.3 310.514 222.8 313.514 223C314.714 223.1 315.914 223.1 317.014 223.1C319.214 223.1 321.314 223 323.214 222.6C323.714 222.5 324.114 222.4 324.614 222.3C327.414 223.8 330.614 224.6 334.014 224.9C334.614 224.9 335.114 225 335.714 225C339.314 225 342.714 224.2 345.814 222.7C350.014 225.2 354.814 226.7 360.214 227.2C361.314 227.3 362.414 227.4 363.414 227.4C366.414 227.4 369.414 227 372.314 226.1C373.014 226.5 373.714 226.9 374.514 227.2L374.914 227.3L375.314 227.4C378.314 228.4 381.214 229.1 384.114 229.5C386.214 229.8 388.314 229.9 390.114 229.9C391.414 229.9 392.614 229.8 393.814 229.7C394.314 229.7 394.814 229.6 395.214 229.5C397.914 231.1 401.014 232.2 404.414 232.7C405.514 232.8 406.514 232.9 407.514 232.9C409.914 232.9 412.114 232.5 414.314 231.9C417.114 233.8 420.314 235.1 423.914 235.6C425.314 235.8 426.714 236 428.114 236C429.814 236 431.414 235.9 433.014 235.5C435.514 237 438.314 238.1 441.414 238.6C442.714 238.8 444.014 238.9 445.314 238.9C448.114 238.9 450.814 238.4 453.314 237.5C457.214 240.3 461.914 242.3 467.214 243.4C469.314 243.8 471.314 244 473.314 244C475.314 244 477.414 243.8 479.314 243.4C483.314 242.6 486.814 241.1 489.814 239.1C492.214 237.5 494.214 235.6 495.814 233.7C498.214 230.8 499.814 227.7 500.414 224.4C500.714 222.8 500.814 221.2 500.714 219.7C502.014 217.4 503.014 214.9 503.514 212.2C505.714 205.3 503.814 198.2 498.914 192.2Z" fill="#644F9A"/>
<path d="M53.2136 208.8L47.0136 209.9L49.3136 222.5C49.3136 222.7 49.3136 222.8 49.1136 222.9C47.5136 223.6 45.5136 224.2 43.1136 224.6C41.1136 225 39.1136 225.1 36.9136 225.1C36.7136 225.1 36.6136 225 36.6136 224.8C36.6136 224.1 35.6136 217.9 33.4136 206C33.1136 204.4 32.7136 203.2 32.2136 202.3C31.7136 201.5 31.0136 200.9 30.0136 200.5C29.6136 200.3 29.3136 200.1 29.3136 199.7C29.1136 198.8 29.6136 197.5 30.8136 195.8C32.0136 194.1 33.7136 193 35.9136 192.6C38.1136 192.2 40.1136 192.5 41.8136 193.6C43.5136 194.7 44.5136 196.3 45.0136 198.6L45.9136 203.3L52.1136 202.2L50.1136 191.5C50.1136 191.3 50.1136 191.2 50.3136 191.1C52.1136 190.3 54.0136 189.8 56.0136 189.4C58.2136 189 60.3136 188.8 62.1136 188.9C62.2136 188.9 62.3136 189 62.3136 189.2L65.8136 207.9C66.3136 210.7 67.6136 212.6 69.5136 213.4C69.9136 213.6 70.2136 213.8 70.2136 214.2C70.4136 215.1 69.9136 216.4 68.7136 218.1C67.5136 219.8 65.8136 220.9 63.6136 221.3C61.3136 221.7 59.4136 221.4 57.7136 220.4C56.0136 219.3 55.0136 217.6 54.5136 215.2L53.2136 208.8Z" fill="white"/>
<path d="M108.213 207.9C108.613 208.1 108.813 208.4 108.913 208.7C109.113 209.9 108.513 211.3 107.113 212.8C105.713 214.3 104.013 215.2 102.013 215.5C99.9134 215.8 98.1134 215.5 96.5134 214.6C94.9134 213.7 93.9134 212.3 93.3134 210.3H93.1134C92.5134 212.4 91.5134 214.1 89.9134 215.5C88.4134 216.8 86.5134 217.7 84.5134 218C80.8134 218.5 77.7134 217.4 75.1134 214.6C72.5134 211.8 70.9134 208.3 70.2134 203.9C69.6134 199.4 70.1134 195.3 71.8134 191.6C73.5134 187.9 76.3134 185.8 80.1134 185.3C82.1134 185 84.0134 185.2 85.7134 185.9C87.4134 186.6 88.8134 187.7 89.8134 189.2H90.0134V185.2C90.0134 185 90.1134 184.9 90.3134 184.8C92.1134 184.2 93.9134 183.8 95.9134 183.5C98.1134 183.2 100.013 183.1 101.813 183.2C102.013 183.3 102.113 183.4 102.213 183.5C103.513 193.3 104.313 199.5 104.713 202.3C105.213 205.1 106.313 207 108.213 207.9ZM91.7134 206C92.3134 204.4 92.4134 202.4 92.1134 200.1C91.8134 197.8 91.1134 195.9 90.0134 194.5C89.0134 193.1 87.7134 192.5 86.2134 192.7C84.7134 192.9 83.7134 193.8 83.1134 195.5C82.5134 197.2 82.4134 199.1 82.7134 201.5C83.0134 203.9 83.7134 205.7 84.8134 207.1C85.8134 208.5 87.1134 209.1 88.6134 208.9C90.1134 208.6 91.1134 207.6 91.7134 206Z" fill="white"/>
<path d="M157.514 197C157.814 199.9 158.714 201.8 160.414 202.7C160.814 202.9 161.014 203.2 161.014 203.6C161.114 204.5 160.514 205.8 159.214 207.4C157.914 209 156.114 209.9 153.814 210.1C151.914 210.3 150.314 209.9 149.014 209C147.714 208.1 146.814 206.9 146.214 205.2C146.114 204.9 146.014 204.5 145.814 203.9H145.614C144.714 206.4 143.414 208.3 141.614 209.5C139.814 210.7 138.014 211.4 135.914 211.6C133.414 211.8 131.314 211.2 129.514 209.8C127.814 208.4 126.714 206.2 126.514 203.2L125.514 192C125.314 189.3 124.214 187.5 122.314 186.5C121.914 186.3 121.714 186 121.714 185.6C121.614 184.7 122.214 183.4 123.514 181.8C124.814 180.2 126.614 179.3 128.914 179.1C131.214 178.9 133.214 179.4 134.814 180.6C136.414 181.8 137.414 183.6 137.614 186.1L138.814 199.2C138.914 200.4 139.214 201.3 139.714 201.9C140.214 202.5 140.714 202.7 141.414 202.7C142.414 202.6 143.214 201.9 144.014 200.6C144.714 199.3 145.014 197.5 144.814 195.4L143.314 179.3L143.514 178.9C145.414 178.3 147.514 177.9 149.614 177.7C151.614 177.5 153.614 177.5 155.614 177.7C155.714 177.8 155.814 177.9 155.814 178.1C155.814 178.2 156.414 184.5 157.514 197Z" fill="white"/>
<path d="M190.913 188.6C189.913 190 188.314 190.8 186.114 190.9C184.914 191 183.713 190.7 182.713 190.2C181.713 189.7 181.114 189.1 181.114 188.5C181.114 188.3 181.113 187.7 181.213 186.9C181.313 186.1 181.313 185.5 181.213 185C181.113 182.5 180.214 181.3 178.514 181.4C177.214 181.5 176.114 182.4 175.314 184.2C174.514 186 174.214 188 174.314 190.2C174.514 192.9 175.313 195.1 177.013 196.9C178.613 198.7 181.014 199.5 184.314 199.3C186.014 199.2 187.813 198.7 189.713 197.8C191.613 196.9 192.614 196.5 192.814 196.5C193.314 196.5 193.614 196.7 193.614 197.3C193.714 199.1 192.513 201.3 189.913 203.9C187.313 206.5 184.014 207.9 180.014 208.1C174.614 208.4 170.313 207.1 167.213 204.2C164.113 201.3 162.414 197.4 162.114 192.6C161.814 188 163.213 184 166.213 180.6C169.213 177.2 173.413 175.4 178.713 175.1C182.513 174.9 185.714 175.6 188.314 177.2C190.914 178.8 192.313 181.1 192.413 183.8C192.413 185.6 191.913 187.2 190.913 188.6Z" fill="white"/>
<path d="M197.113 186.7C197.113 185 196.813 183.8 196.513 182.9C196.113 182 195.513 181.3 194.613 180.8C194.213 180.6 194.013 180.3 194.013 179.9C194.013 179 194.713 177.8 196.113 176.3C197.513 174.8 199.413 174 201.613 173.9C203.513 173.8 205.113 174.3 206.413 175.3C207.713 176.3 208.513 177.7 208.913 179.4C209.013 179.9 209.113 180.3 209.113 180.6H209.313C210.313 178.2 211.813 176.4 213.713 175.2C215.613 174.1 217.513 173.5 219.413 173.4C221.813 173.3 223.913 174.1 225.613 175.7C227.313 177.3 228.213 179.6 228.213 182.5C228.213 183.2 228.313 184.8 228.313 187.4C228.313 189.9 228.413 192.1 228.413 193.8C228.513 196.7 229.413 198.7 231.213 199.8C231.613 200 231.813 200.3 231.813 200.7C231.813 201.6 231.113 202.8 229.713 204.4C228.313 205.9 226.413 206.7 224.213 206.8C221.913 206.9 220.013 206.2 218.513 204.9C217.013 203.6 216.213 201.7 216.213 199.3L215.813 185.7C215.813 184.5 215.513 183.6 215.113 183C214.713 182.4 214.113 182.1 213.513 182.1C212.513 182.1 211.613 182.8 210.813 184.1C210.013 185.4 209.613 187.1 209.613 189.2L210.013 205.6C210.013 205.8 209.913 205.9 209.713 206C208.013 206.5 206.013 206.7 203.813 206.8C201.813 206.9 199.713 206.7 197.613 206.4C197.413 206.4 197.313 206.3 197.313 206.1C197.513 205.2 197.513 198.8 197.113 186.7Z" fill="white"/>
<path d="M263.414 178C266.614 181.1 268.314 185.1 268.214 190C268.214 195 266.514 199 263.314 202.1C260.014 205.2 255.914 206.7 250.814 206.7C245.814 206.7 241.614 205.1 238.414 202C235.214 198.9 233.614 194.8 233.614 189.8C233.614 184.8 235.314 180.8 238.614 177.8C241.914 174.7 246.014 173.2 251.014 173.3C256.014 173.2 260.214 174.8 263.414 178ZM256.014 189.9C256.014 186.9 255.614 184.5 254.814 182.7C254.014 180.9 252.714 180 251.014 180C247.714 180 246.014 183.3 245.914 189.8C245.914 192.7 246.314 195.1 247.114 196.9C247.914 198.7 249.214 199.6 250.914 199.6C254.214 199.7 255.914 196.4 256.014 189.9Z" fill="white"/>
<path d="M305.714 202C305.714 202.9 304.914 204.1 303.414 205.5C301.914 206.9 300.014 207.6 297.714 207.5C295.414 207.4 293.514 206.7 292.014 205.3C290.514 203.9 289.914 202 290.014 199.5L290.414 188.4C290.414 187.5 290.414 186.8 290.414 186.2C290.314 185.6 290.214 185 289.914 184.3C289.614 183.6 289.114 183.1 288.414 182.8C287.714 182.5 286.714 182.3 285.514 182.3C285.614 184.9 285.614 187.1 285.614 189C285.614 190.9 285.414 193.1 285.114 195.5C284.814 197.9 284.314 199.9 283.614 201.4C282.914 202.9 282.014 204.2 280.714 205.2C279.414 206.2 277.814 206.7 276.014 206.6C273.914 206.5 272.214 205.8 271.114 204.5C269.914 203.2 269.414 201.4 269.414 199.3C269.514 197.8 269.914 196.4 270.614 195.1C271.314 193.8 271.914 193.2 272.414 193.2C272.514 193.2 272.814 193.3 273.114 193.6C273.514 193.8 273.814 194 274.214 194C275.714 194.1 277.014 193 277.914 190.7C278.914 188.5 279.414 185.5 279.514 181.9C279.314 181.9 278.914 181.9 278.314 181.9C277.714 181.9 277.214 181.9 276.914 181.9C275.814 181.9 275.214 181.5 275.314 180.7C275.414 179.3 277.014 177.8 280.114 176.1C283.314 174.4 286.914 173.7 291.114 173.8C294.914 173.9 297.914 175 300.214 176.8C302.414 178.7 303.514 181.6 303.314 185.6C303.314 185.9 303.314 186.4 303.214 187.1C303.214 187.8 303.114 188.8 303.014 190.2C302.914 191.6 302.914 193.1 302.814 194.6C302.714 197.5 303.514 199.5 305.214 200.8C305.514 201.3 305.714 201.6 305.714 202Z" fill="white"/>
<path d="M328.914 195.2L322.714 194.8L321.814 207.6C321.814 207.8 321.714 207.9 321.514 207.9C319.814 208.2 317.714 208.3 315.314 208.1C313.314 208 311.314 207.6 309.214 207C309.014 206.9 309.014 206.8 309.014 206.7C309.214 206.1 309.714 199.7 310.614 187.7C310.714 186.1 310.614 184.8 310.314 183.9C310.014 183 309.514 182.2 308.614 181.6C308.214 181.3 308.114 181 308.114 180.6C308.214 179.7 309.014 178.6 310.514 177.2C312.114 175.8 314.014 175.2 316.314 175.4C318.614 175.6 320.414 176.4 321.814 177.8C323.214 179.3 323.814 181.1 323.614 183.4L323.314 188.2L329.514 188.6L330.314 177.7C330.314 177.5 330.414 177.4 330.614 177.4C332.614 177.1 334.614 177.1 336.614 177.2C338.914 177.4 340.914 177.7 342.614 178.2C342.714 178.3 342.814 178.4 342.814 178.5L341.514 197.4C341.314 200.3 342.014 202.4 343.714 203.6C344.114 203.9 344.214 204.2 344.214 204.6C344.114 205.5 343.314 206.7 341.814 208C340.214 209.4 338.314 210 336.014 209.8C333.714 209.6 331.914 208.8 330.514 207.4C329.214 206 328.614 204 328.714 201.6L328.914 195.2Z" fill="white"/>
<path d="M377.314 203.7C377.214 204.5 376.814 205.4 376.114 206.4C375.414 207.4 374.414 208.4 373.314 209.4C372.114 210.4 370.614 211.2 368.614 211.8C366.614 212.4 364.614 212.6 362.314 212.3C357.114 211.8 353.014 209.9 350.114 206.6C347.214 203.3 346.014 199.2 346.514 194.2C347.014 189.3 349.014 185.5 352.514 182.8C356.014 180.1 360.414 179 365.714 179.5C370.314 180 373.814 181.4 376.114 183.7C378.414 186.1 379.414 188.5 379.114 191.1C378.914 192.9 378.314 194.4 377.414 195.6C376.414 196.9 375.214 197.8 373.814 198.3C372.414 198.9 370.914 199.3 369.414 199.4C367.914 199.6 366.414 199.6 364.914 199.4C362.114 199.1 360.014 198.7 358.714 198C358.814 199.7 359.614 201.1 361.014 202.3C362.514 203.4 364.214 204.1 366.214 204.3C368.114 204.5 369.814 204.4 371.314 204.1C372.914 203.8 374.114 203.4 375.014 203C375.914 202.6 376.414 202.4 376.614 202.4C377.214 202.9 377.314 203.2 377.314 203.7ZM360.714 187.9C359.714 189.3 359.114 191 359.014 193.1C359.514 193.1 359.914 193.2 360.414 193.3C362.514 193.5 364.114 193.2 365.414 192.4C366.714 191.6 367.414 190.6 367.514 189.4C367.614 188.5 367.414 187.8 366.914 187.2C366.414 186.6 365.614 186.2 364.514 186.1C362.914 185.9 361.714 186.5 360.714 187.9Z" fill="white"/>
<path d="M401.113 202.8L394.913 202L393.214 214.7C393.214 214.9 393.113 215 392.813 215C391.113 215.2 389.013 215.1 386.613 214.8C384.613 214.5 382.613 214.1 380.513 213.4C380.313 213.3 380.313 213.2 380.313 213.1C380.613 212.5 381.513 206.2 383.013 194.3C383.213 192.7 383.213 191.4 383.013 190.5C382.813 189.6 382.313 188.8 381.513 188.1C381.213 187.8 381.013 187.5 381.113 187.1C381.213 186.2 382.114 185.1 383.714 183.9C385.314 182.6 387.313 182.2 389.613 182.5C391.913 182.8 393.613 183.7 394.913 185.3C396.213 186.9 396.713 188.7 396.413 191L395.813 195.7L402.013 196.5L403.413 185.7C403.413 185.5 403.514 185.4 403.714 185.4C405.714 185.2 407.714 185.3 409.714 185.6C412.014 185.9 413.913 186.4 415.613 187C415.713 187.1 415.813 187.2 415.714 187.3L413.214 206.1C412.813 209 413.413 211.1 415.013 212.5C415.313 212.8 415.513 213.1 415.413 213.5C415.313 214.4 414.414 215.5 412.714 216.8C411.014 218.1 409.113 218.6 406.813 218.3C404.513 218 402.713 217.1 401.513 215.6C400.313 214.1 399.813 212.1 400.113 209.7L401.113 202.8Z" fill="white"/>
<path d="M451.514 212.2C451.014 215.1 451.514 217.2 452.814 218.5C453.114 218.8 453.314 219.1 453.214 219.5C453.114 220.4 452.114 221.5 450.514 222.7C448.914 223.9 446.914 224.4 444.614 224C442.714 223.7 441.314 222.9 440.314 221.8C439.314 220.6 438.714 219.2 438.614 217.4C438.614 217.1 438.614 216.7 438.614 216.1L438.414 216C436.914 218.2 435.114 219.7 433.114 220.4C431.114 221.1 429.114 221.3 427.114 221C424.614 220.6 422.714 219.5 421.414 217.7C420.114 215.9 419.614 213.5 420.114 210.6L421.914 199.5C422.314 196.8 421.814 194.8 420.214 193.4C419.914 193.1 419.714 192.8 419.814 192.3C420.014 191.4 420.914 190.3 422.514 189C424.214 187.8 426.114 187.3 428.414 187.7C430.714 188.1 432.514 189.1 433.714 190.7C435.014 192.3 435.414 194.3 435.014 196.7L432.814 209.7C432.614 210.9 432.714 211.8 433.014 212.5C433.314 213.2 433.814 213.6 434.414 213.7C435.414 213.9 436.414 213.4 437.414 212.3C438.414 211.2 439.114 209.6 439.514 207.5L442.114 191.5L442.414 191.2C444.414 191.1 446.514 191.3 448.614 191.6C450.614 191.9 452.514 192.4 454.414 193.1C454.514 193.2 454.514 193.3 454.514 193.5C454.614 193.6 453.514 199.8 451.514 212.2Z" fill="white"/>
<path d="M486.514 221.5C486.314 222.3 485.914 223.1 485.114 224.1C484.314 225.1 483.314 226 482.014 226.9C480.714 227.8 479.114 228.4 477.114 228.8C475.114 229.2 473.014 229.2 470.814 228.8C465.714 227.8 461.814 225.5 459.214 222C456.614 218.5 455.814 214.2 456.814 209.3C457.814 204.5 460.114 200.9 463.814 198.5C467.514 196.1 472.014 195.4 477.314 196.5C481.814 197.4 485.114 199.1 487.214 201.7C489.314 204.3 490.014 206.8 489.514 209.4C489.214 211.1 488.414 212.6 487.314 213.7C486.214 214.9 484.914 215.7 483.414 216.1C481.914 216.5 480.414 216.8 478.914 216.8C477.414 216.8 475.914 216.7 474.514 216.4C471.714 215.8 469.714 215.2 468.514 214.5C468.414 216.2 469.114 217.7 470.414 219C471.814 220.3 473.414 221.1 475.414 221.5C477.214 221.9 478.914 222 480.514 221.8C482.114 221.6 483.414 221.4 484.314 221.1C485.214 220.8 485.814 220.7 486.014 220.7C486.514 220.7 486.614 221 486.514 221.5ZM471.514 204.2C470.414 205.5 469.614 207.1 469.314 209.2C469.714 209.3 470.214 209.4 470.714 209.5C472.714 209.9 474.414 209.7 475.814 209C477.114 208.3 477.914 207.4 478.114 206.2C478.314 205.3 478.114 204.6 477.714 203.9C477.314 203.2 476.514 202.8 475.414 202.6C473.914 202.5 472.714 203 471.514 204.2Z" fill="white"/>
<path d="M465.413 283C465.413 282.9 465.413 282.7 465.513 282.5L468.813 262.3C470.013 255.1 468.413 247.8 464.213 241.4C460.813 236.2 454.113 229.9 440.713 229.3C440.213 229.3 439.713 229.3 439.213 229.3C432.613 229.3 426.313 231.1 420.613 234.7C418.513 236 417.713 224.7 415.913 226.3C414.813 223.1 412.113 233.4 410.613 231.5C406.313 226.2 400.213 222.7 393.013 221.5C391.413 221.2 389.913 221.1 388.413 221.1C382.713 221.1 377.213 222.9 372.713 226.2L372.613 226.3C367.713 220.6 360.913 217.3 353.213 216.7C352.413 216.6 351.713 216.6 350.913 216.6C347.513 216.6 342.513 217.2 337.313 219.9C333.013 216.7 327.913 214.8 322.313 214.4C321.513 214.3 320.813 214.3 320.013 214.3C316.713 214.3 312.013 214.8 307.113 217.3C303.213 214.4 298.413 212.7 293.113 212.3C292.413 212.2 291.613 212.2 290.913 212.2C285.513 212.2 280.513 213.6 276.213 216.4C275.013 215.4 273.513 214.6 272.013 214.1L271.413 213.9L270.813 213.8C266.913 212.9 262.513 212.4 257.813 212.4H257.213C252.813 212.4 248.313 212.9 244.113 213.8H243.913L243.713 213.9C241.713 214.4 239.913 215.3 238.313 216.6C233.813 213.4 228.313 211.7 222.213 211.7H221.913C214.713 211.7 208.213 214.3 203.313 219.1C197.513 215.6 190.513 213.9 182.413 213.9C181.013 213.9 179.613 213.9 178.213 214C166.213 214.8 153.913 216.8 146.513 224.1C144.913 221 144.513 220.6 141.113 219.5C139.213 218.9 137.613 218.8 135.713 218.7C135.213 218.7 134.613 218.7 133.913 218.7C133.013 218.7 131.813 218.7 130.513 218.8C128.113 218.9 125.813 219.1 123.513 219.4C118.113 220.2 113.613 221.3 109.813 223C107.413 223.9 105.313 225.6 103.713 227.7L103.413 228.1C98.7135 225.4 93.3135 224 87.5135 224C85.6135 224 83.6135 224.1 81.6135 224.4C73.4135 225.6 66.5135 228.8 61.1135 234.1C58.6135 236.5 51.2135 243.7 52.6135 253.5C53.3135 258.1 55.8135 261.9 59.5135 264.2C57.7135 265.2 55.9135 266.8 54.3135 269.1C53.2135 270.7 52.3135 272.6 51.5135 274.8C49.9135 279.3 49.4135 284 50.1135 288.8C51.1135 295.8 54.4135 301.7 59.6135 305.8C63.9135 309.2 69.1135 310.9 74.7135 311C76.1135 311 77.5135 310.9 78.9135 310.7C83.8135 310 88.2135 308.2 91.8135 305.3C93.3135 304.1 94.6135 302.8 95.8135 301.3C97.1135 302.3 98.5135 302.9 99.6135 303.4C101.513 304.1 103.613 304.5 105.813 304.5C106.913 304.5 108.013 304.4 109.213 304.2C113.813 303.5 117.713 301.5 120.513 298.4C124.713 300.9 129.513 302.2 134.613 302.3C136.113 302.3 137.713 302.2 139.313 302C146.413 301 152.413 297.6 156.713 292.2C163.413 296.2 171.113 298.3 179.813 298.3C181.113 298.3 182.513 298.3 183.813 298.2C189.413 297.8 194.713 296.4 199.513 294.1C204.313 291.7 208.213 288.7 211.113 285.3C213.613 282.3 215.613 279.3 217.013 276.3C221.313 278.4 226.313 279.5 231.813 279.5H232.113C233.113 279.5 234.113 279.5 235.113 279.4C236.713 284.1 239.413 287.3 241.713 289.5C246.713 294.1 253.113 296.5 260.413 296.5H260.713C265.613 296.5 270.113 295.3 274.113 293.1C274.613 293.3 275.113 293.5 275.613 293.7L276.013 293.8L276.413 293.9C280.913 295.1 285.313 295.9 289.613 296.2C291.313 296.3 293.013 296.4 294.613 296.4C297.613 296.4 300.513 296.2 303.113 295.8C303.813 295.7 304.513 295.5 305.213 295.3C305.813 295.6 306.413 295.8 307.013 296L307.413 296.1L307.813 296.2C312.313 297.4 316.613 298.2 320.613 298.5C322.313 298.6 324.013 298.7 325.513 298.7C328.513 298.7 331.413 298.5 334.013 298.1C335.813 297.8 337.513 297.2 339.013 296.4C343.213 299.6 348.313 301.5 354.113 301.9C354.813 302 355.513 302 356.313 302C362.713 302 368.613 299.9 373.413 295.9C375.513 298.2 378.013 300.2 381.013 302C385.713 304.9 391.413 306.9 397.713 307.9C400.113 308.3 402.513 308.5 404.813 308.5C410.813 308.5 416.413 307.3 421.613 304.8C425.813 310.1 431.913 313.5 439.113 314.7C440.713 315 442.213 315.1 443.713 315.1C449.413 315.1 454.813 313.4 459.413 310C463.213 307.2 468.413 302.7 469.513 295.7C469.613 291 468.313 286.5 465.413 283Z" fill="#644F9A"/>
<path d="M97.9135 280C95.5135 274.9 93.2135 270.5 91.3135 266.8C89.3135 263.1 87.4135 259.9 85.5135 257.3L85.1135 257.4C85.8135 260.5 86.4135 263.2 86.9135 265.6C87.4135 268 87.8135 270.8 88.2135 274C88.6135 277.2 88.6135 280 88.4135 282.3C88.1135 284.7 87.6135 287 86.9135 289.3C86.2135 291.5 84.9135 293.4 83.2135 294.7C81.5135 296.1 79.3135 296.9 76.8135 297.3C73.2135 297.8 70.1135 297.1 67.7135 295.2C65.2135 293.3 63.8135 290.5 63.2135 286.9C62.8135 284.3 63.1135 281.8 63.9135 279.4C64.8135 277 65.6135 275.8 66.5135 275.7C66.7135 275.7 67.2135 275.8 67.9135 276.1C68.6135 276.4 69.3135 276.5 69.9135 276.4C74.4135 275.8 75.6135 267.7 73.5135 252.3C73.0135 252.3 72.2135 252.4 71.2135 252.6C70.1135 252.8 69.4135 253 69.1135 253C67.1135 253.3 66.0135 252.8 65.8135 251.5C65.5135 249.5 67.0135 246.9 70.4135 243.7C73.7135 240.5 78.1135 238.5 83.5135 237.7C90.7135 236.7 96.4135 238.4 100.514 242.8C102.714 245.2 105.814 249.9 109.614 256.8H109.914C110.514 254.6 111.114 251.8 111.814 248.4C112.514 245 113.114 242 113.614 239.6C114.114 237.2 114.414 235.9 114.414 235.7C114.514 235.5 114.614 235.5 114.714 235.4C117.514 234.2 121.114 233.3 125.414 232.7C127.214 232.4 129.014 232.3 130.914 232.2C132.814 232.1 134.214 232.1 135.214 232.2C136.214 232.2 136.814 232.3 136.914 232.3C137.114 232.4 137.114 232.5 137.214 232.8L141.914 265.4C142.614 270.4 144.614 273.6 147.914 275.2C148.614 275.5 149.014 276 149.114 276.7C149.314 278.3 148.414 280.5 146.214 283.4C144.014 286.3 141.014 288.1 137.114 288.6C133.114 289.2 129.714 288.5 126.814 286.6C123.914 284.7 122.114 281.6 121.514 277.4L118.614 255.9H118.314C117.614 258.8 116.714 262.8 115.614 267.9C114.514 273 113.514 277.4 112.614 281.2C111.814 285 111.314 287.1 111.214 287.5C110.814 289.4 109.514 290.5 107.114 290.8C105.814 291 104.814 290.9 104.114 290.7C103.414 290.4 102.814 289.8 102.314 288.8C101.714 288.1 100.314 285.2 97.9135 280Z" fill="white"/>
<path d="M205.514 265.4C205.614 266.8 205.214 268.4 204.314 270.4C203.414 272.4 202.114 274.4 200.314 276.4C198.614 278.5 196.114 280.3 193.014 281.8C189.914 283.3 186.314 284.3 182.514 284.5C173.414 285.1 165.914 283 160.014 278.2C154.114 273.4 150.914 266.7 150.314 258C149.714 249.5 152.014 242.4 157.214 236.7C162.414 231 169.614 227.9 178.914 227.3C186.914 226.8 193.214 228.2 197.814 231.5C202.414 234.9 204.914 238.8 205.214 243.3C205.414 246.4 204.814 249.1 203.514 251.6C202.214 254 200.414 255.9 198.114 257.3C195.814 258.7 193.414 259.8 190.914 260.5C188.414 261.2 185.914 261.7 183.314 261.9C178.414 262.2 174.714 262 172.414 261.3C173.014 264.2 174.814 266.4 177.614 267.9C180.514 269.4 183.614 270 187.114 269.8C190.314 269.6 193.214 269 195.814 268C198.414 267 200.414 266 201.814 265.1C203.214 264.2 204.114 263.7 204.514 263.7C205.114 264 205.514 264.4 205.514 265.4ZM172.614 243.1C171.314 245.7 170.814 248.8 171.114 252.5C171.914 252.4 172.714 252.4 173.614 252.4C177.214 252.2 179.914 251.2 181.914 249.4C183.814 247.6 184.714 245.7 184.614 243.7C184.514 242.2 183.914 241 182.914 240.1C181.914 239.2 180.414 238.8 178.514 238.9C175.914 239.2 173.914 240.5 172.614 243.1Z" fill="white"/>
<path d="M273.714 272.6C273.714 274.2 272.414 276.3 269.914 278.9C267.414 281.5 264.114 282.8 260.214 282.8C256.214 282.8 252.914 281.7 250.414 279.3C247.914 277 246.614 273.7 246.614 269.5V261.2L246.214 261C241.814 264.2 236.914 265.8 231.714 265.8C222.814 265.8 217.214 262.1 215.014 254.5C214.314 252.3 214.014 249.8 214.014 247C214.014 242.3 212.514 239 209.414 237.1C208.814 236.7 208.414 236.1 208.414 235.5C208.414 233.9 209.714 231.8 212.214 229.2C214.714 226.6 218.014 225.3 221.914 225.3C225.914 225.3 229.214 226.4 231.714 228.8C234.214 231.1 235.514 234.4 235.514 238.6V246.5C235.514 250.7 237.714 252.7 242.014 252.7C243.314 252.7 244.814 252.5 246.514 252L246.414 227.7C246.414 227.4 246.514 227.2 246.814 227.2C250.214 226.5 253.614 226.1 257.114 226.1C261.014 226.1 264.614 226.4 267.614 227.1C267.814 227.2 267.914 227.3 267.914 227.6L268.114 260.5C268.114 265.5 269.614 269 272.714 271C273.414 271.4 273.714 272 273.714 272.6Z" fill="white"/>
<path d="M368.813 279C368.713 280.6 367.313 282.6 364.513 284.9C361.813 287.3 358.413 288.3 354.513 288C350.513 287.7 347.313 286.3 345.013 283.8C342.713 281.3 341.713 277.9 342.013 273.7L343.713 250.7C344.013 246.5 343.113 244.3 340.913 244.1C339.313 244 337.813 244.9 336.413 247C335.013 249.1 334.313 251.9 334.013 255.7L331.913 283.7C331.913 284.1 331.713 284.3 331.313 284.3C328.313 284.8 324.913 284.9 320.913 284.6C317.713 284.4 314.213 283.8 310.613 282.8C310.313 282.7 310.213 282.5 310.213 282.2L312.713 248.4C313.013 244.2 312.113 242 309.913 241.8C308.313 241.7 306.813 242.6 305.413 244.7C304.113 246.8 303.313 249.6 303.013 253.4L300.913 281.4C300.913 281.8 300.713 282 300.313 282C297.313 282.5 293.913 282.6 289.913 282.3C286.513 282 282.913 281.4 279.213 280.4C278.913 280.3 278.813 280.1 278.813 279.8C279.213 278.7 280.113 267.7 281.713 246.9C281.913 244 281.813 241.8 281.313 240.2C280.813 238.6 279.813 237.3 278.413 236.2C277.813 235.7 277.513 235.2 277.613 234.5C277.713 232.9 279.113 231 281.913 228.6C284.713 226.2 288.013 225.2 291.913 225.5C295.213 225.7 297.813 226.8 299.813 228.7C301.813 230.6 303.013 233 303.513 236C303.513 236.1 303.513 236.9 303.613 238.4H303.913C308.113 230.7 313.813 227.2 321.013 227.7C324.613 228 327.613 229.2 330.113 231.5C332.613 233.8 334.013 236.8 334.513 240.7H334.813C339.013 233 344.713 229.5 351.913 230C356.113 230.3 359.513 232 362.213 235C364.813 238 365.913 242.1 365.613 247.3C365.513 248.5 365.313 251.2 364.913 255.5C364.613 259.7 364.313 263.3 364.013 266.3C363.613 271.3 364.913 274.9 367.713 277.1C368.513 277.8 368.813 278.4 368.813 279Z" fill="white"/>
<path d="M401.813 253.6C407.813 252.2 413.314 252.8 418.414 255.4C420.814 251.6 424.013 248.5 427.813 246.1C431.613 243.7 435.714 242.6 440.114 242.8C446.214 243.1 450.514 245 452.914 248.7C455.314 252.4 456.214 256.2 455.514 260.2L452.214 280.4C451.414 285.4 452.314 289.1 455.014 291.5C455.614 292 455.814 292.6 455.714 293.2C455.414 294.8 453.914 296.6 450.914 298.8C448.014 300.9 444.614 301.7 440.714 301.1C436.714 300.5 433.714 298.8 431.514 296.1C429.414 293.4 428.613 289.9 429.313 285.8L433.014 262.6C433.314 260.9 433.114 259.5 432.514 258.5C431.914 257.5 431.114 256.9 430.014 256.7C427.914 256.4 426.013 257.4 424.313 259.7C427.813 263.7 429.014 268.8 428.014 275.1C426.914 281.9 423.614 287.1 418.114 290.7C412.614 294.3 406.314 295.5 399.114 294.3C394.414 293.5 390.514 292.2 387.214 290.2C384.014 288.2 381.614 285.9 380.214 283.2C378.714 280.5 377.813 277.9 377.313 275.2C376.913 272.5 376.813 269.9 377.313 267.3L379.414 255.2C380.114 250.6 379.214 247.1 376.414 244.6C375.814 244.1 375.614 243.5 375.714 242.7C376.014 241.1 377.514 239.2 380.414 237C383.314 234.9 386.714 234.1 390.614 234.7C394.614 235.3 397.714 237 399.914 239.8C402.114 242.6 402.914 246 402.214 250.2L401.813 253.6ZM406.214 279.6C407.514 277.6 408.314 275.3 408.714 272.7C409.214 269.7 409.014 267.1 408.014 265C407.014 262.9 405.214 261.6 402.614 261.2C401.914 261.1 401.214 261 400.414 261.1L398.614 272.3C397.614 278.5 398.613 281.9 401.813 282.4C403.513 282.5 404.914 281.6 406.214 279.6Z" fill="white"/>
</svg>
