<svg width="1233" height="312" viewBox="0 0 1233 312" fill="none" xmlns="http://www.w3.org/2000/svg">
<g filter="url(#filter0_d)">
<rect x="14" y="14" width="1205" height="284" rx="20" fill="#C70E25"/>
</g>
<rect x="16" y="16" width="1201" height="154" rx="18" fill="white" stroke="#C70E25" stroke-width="4"/>
<path d="M113.251 50.8C104.963 50.464 98.3547 50.24 93.5387 50.24C91.0187 50.24 88.7227 50.408 86.6507 50.632C84.5227 50.856 82.8427 51.192 81.4987 51.584C80.1547 51.976 78.9787 52.424 78.0827 52.872C77.1307 53.376 76.4587 53.824 76.0667 54.272C75.6747 54.72 75.5067 55.112 75.5067 55.504C75.5067 55.728 75.6187 56.008 75.8987 56.288C76.1227 56.624 76.4027 56.904 76.7387 57.24C77.0187 57.576 77.2987 58.192 77.5787 59.088C77.8027 59.984 77.9707 61.104 77.9707 62.392V89.72C77.9707 89.888 78.0267 90 78.1947 90C80.0987 90.392 82.0587 90.56 84.0187 90.56C86.4267 90.56 88.3867 90.392 89.9547 90C90.1227 90 90.2347 89.888 90.2347 89.664V59.816H101.267V62.952V66.872V71.184V75.608C101.267 77.064 101.211 78.52 101.211 79.92C101.211 81.32 101.211 82.608 101.211 83.784V86.864V88.992V89.72C101.211 89.888 101.267 90 101.435 90C103.339 90.392 105.299 90.56 107.259 90.56C109.667 90.56 111.627 90.392 113.195 90C113.363 90 113.475 89.888 113.475 89.664V51.08C113.475 50.968 113.363 50.856 113.251 50.8ZM131.982 60.936C127.446 60.936 123.694 62.336 120.782 65.136C117.814 67.936 116.358 71.52 116.358 76C116.358 80.536 117.814 84.176 120.726 86.976C123.638 89.776 127.39 91.176 131.982 91.176C136.574 91.176 140.326 89.776 143.238 86.976C146.15 84.176 147.662 80.48 147.662 76C147.662 71.632 146.15 67.992 143.238 65.192C140.27 62.392 136.518 60.936 131.982 60.936ZM131.982 84.848C130.414 84.848 129.294 84.064 128.566 82.384C127.782 80.76 127.446 78.632 127.446 76C127.446 70.064 128.958 67.096 131.982 67.096C133.55 67.096 134.67 67.936 135.454 69.56C136.182 71.184 136.574 73.312 136.574 76C136.574 81.936 135.006 84.848 131.982 84.848ZM180.738 70.848C180.738 63.624 179.282 57.912 176.37 53.656C173.458 49.456 169.37 47.328 164.05 47.328C161.138 47.328 158.45 48.28 155.874 50.072C153.298 51.92 151.898 53.992 151.674 56.232C151.562 56.904 151.842 57.24 152.458 57.24C152.57 57.24 153.074 57.072 153.858 56.624C154.642 56.176 155.706 55.784 156.938 55.336C158.17 54.888 159.402 54.664 160.634 54.664C163.658 54.664 165.898 55.784 167.298 58.024C168.698 60.264 169.426 62.952 169.426 65.976H169.258C169.258 65.976 169.202 65.808 169.034 65.584C168.81 65.36 168.53 65.024 168.138 64.688C167.69 64.352 167.242 63.96 166.682 63.624C166.122 63.288 165.394 63.008 164.61 62.784C163.77 62.56 162.93 62.392 162.034 62.392C158.338 62.392 155.426 63.736 153.186 66.312C150.946 68.888 149.882 72.248 149.882 76.28C149.882 80.648 151.226 84.176 153.914 86.976C156.602 89.776 160.242 91.12 164.778 91.12C169.818 91.12 173.738 89.328 176.538 85.632C179.338 81.936 180.738 77.008 180.738 70.848ZM165.058 84.624C162.594 84.512 161.362 81.6 161.474 75.888C161.474 73.984 161.81 72.36 162.482 71.016C163.098 69.672 164.05 69.056 165.394 69.168C167.97 69.392 169.202 71.912 169.146 76.672C169.09 77.792 169.034 78.744 168.922 79.528C168.81 80.312 168.586 81.152 168.362 82.048C168.082 82.944 167.69 83.56 167.13 84.008C166.57 84.456 165.842 84.68 165.058 84.624ZM213.72 79.472C213.72 76.952 213.776 71.24 213.888 62.336C213.888 62.224 213.776 62.112 213.608 62C212.04 61.72 210.248 61.552 208.288 61.552C206.496 61.552 204.76 61.72 203.136 62C202.912 62.112 202.856 62.224 202.856 62.336L202.296 65.92H202.128C201.344 64.464 200.28 63.288 198.824 62.448C197.368 61.608 195.744 61.16 193.896 61.16C190.424 61.16 187.68 62.728 185.664 65.752C183.648 68.832 182.64 72.416 182.64 76.504C182.64 80.48 183.592 83.896 185.608 86.696C187.568 89.496 190.256 90.896 193.616 90.896C195.52 90.896 197.2 90.392 198.768 89.384C200.336 88.376 201.512 86.976 202.296 85.184H202.464C202.688 86.976 203.472 88.432 204.76 89.44C205.992 90.448 207.616 90.952 209.52 90.952C211.312 90.952 212.936 90.392 214.392 89.216C215.848 88.04 216.576 86.864 216.576 85.744C216.576 85.408 216.408 85.128 216.072 84.904C214.504 83.896 213.72 82.048 213.72 79.472ZM198.376 83.168C197.032 83.168 195.968 82.496 195.24 81.096C194.456 79.752 194.12 77.96 194.12 75.832C194.12 73.704 194.456 71.968 195.24 70.568C195.968 69.168 197.032 68.44 198.376 68.44C199.72 68.44 200.784 69.168 201.568 70.568C202.296 71.968 202.688 73.704 202.688 75.832C202.688 77.96 202.296 79.752 201.568 81.096C200.784 82.496 199.72 83.168 198.376 83.168ZM235.045 68.44C236.389 68.44 237.397 69.168 238.181 70.568C238.909 71.968 239.301 73.704 239.301 75.832C239.301 77.96 238.909 79.752 238.181 81.096C237.397 82.496 236.389 83.168 235.045 83.168C233.645 83.168 232.581 82.496 231.853 81.096C231.069 79.752 230.733 77.96 230.733 75.832C230.733 73.704 231.069 71.968 231.853 70.568C232.581 69.168 233.645 68.44 235.045 68.44ZM224.405 61.048C222.333 61.048 220.653 61.72 219.309 63.064C217.965 64.408 217.349 65.472 217.349 66.256C217.349 66.592 217.517 66.872 217.853 67.096C218.637 67.656 219.141 68.328 219.477 69.112C219.813 69.896 219.981 71.072 219.981 72.528C219.981 93.024 219.925 103.44 219.869 103.72C219.869 103.888 219.925 104 220.093 104C221.997 104.392 223.733 104.56 225.301 104.56C227.485 104.56 229.333 104.392 230.901 104C231.069 104 231.181 103.888 231.181 103.664V86.024H231.349C232.973 89.272 235.493 90.896 238.909 90.896C242.381 90.896 245.237 89.384 247.421 86.248C249.549 83.168 250.669 79.584 250.669 75.496C250.669 71.352 249.661 67.936 247.757 65.248C245.853 62.56 243.165 61.16 239.749 61.16C237.845 61.16 236.109 61.664 234.485 62.672C232.805 63.68 231.685 65.08 231.069 66.872H230.901C230.845 66.648 230.733 66.256 230.621 65.696C229.669 62.616 227.597 61.048 224.405 61.048ZM283.05 62.336C283.05 62.224 282.994 62.112 282.882 62C281.09 61.664 279.298 61.496 277.506 61.496C275.546 61.496 273.698 61.72 271.906 62.056L271.682 62.392V77.008C271.682 78.968 271.29 80.536 270.506 81.656C269.722 82.776 268.938 83.336 268.042 83.336C267.426 83.336 266.922 83.056 266.586 82.496C266.194 81.936 266.026 81.152 266.026 80.032V68.104C266.026 65.92 265.298 64.184 263.954 62.952C262.61 61.72 260.874 61.104 258.802 61.104C256.73 61.104 255.05 61.776 253.762 63.12C252.418 64.464 251.802 65.584 251.802 66.424C251.802 66.872 251.97 67.152 252.306 67.32C253.874 68.384 254.714 70.12 254.714 72.528V82.664C254.714 85.352 255.442 87.424 256.898 88.824C258.354 90.28 260.202 90.952 262.498 90.952C264.29 90.952 266.082 90.504 267.762 89.552C269.442 88.6 270.786 87.032 271.794 84.792L271.962 84.848C272.018 85.408 272.074 85.8 272.186 86.024C272.522 87.592 273.25 88.768 274.37 89.664C275.434 90.56 276.834 91.008 278.57 91.008C280.642 91.008 282.322 90.336 283.666 88.992C284.954 87.648 285.626 86.584 285.626 85.744C285.626 85.408 285.458 85.128 285.122 84.904C283.666 84.008 282.994 82.216 282.994 79.528C282.994 68.216 282.994 62.448 283.05 62.336ZM330.688 84.68C329.792 84.176 328.952 83.448 328.28 82.44C327.552 81.488 326.936 80.536 326.488 79.528C325.984 78.576 325.48 77.624 324.92 76.616C324.36 75.664 323.688 74.824 322.904 74.152C322.064 73.48 321.112 72.976 319.992 72.752C320.272 71.968 320.776 71.296 321.448 70.68C322.12 70.12 322.904 69.784 323.8 69.784C324.528 69.784 325.256 70.008 326.04 70.344C326.824 70.736 327.216 70.904 327.272 70.904C327.776 70.904 328.392 70.456 329.12 69.504C329.848 68.552 330.24 67.488 330.24 66.256C330.24 64.856 329.736 63.624 328.728 62.56C327.72 61.552 326.264 60.992 324.36 60.992C321.784 60.992 319.6 62.056 317.864 64.184C316.128 66.312 315.176 69.168 315.064 72.752H313.272V67.768C313.272 65.752 312.6 64.072 311.312 62.84C309.968 61.608 308.288 60.992 306.272 60.992C304.2 60.992 302.52 61.664 301.176 63.008C299.832 64.352 299.216 65.416 299.216 66.2C299.216 66.536 299.384 66.816 299.72 67.04C301.12 68.048 301.848 69.616 301.848 71.8V89.664C301.848 89.832 301.904 89.944 302.072 89.944C304.088 90.336 305.992 90.504 307.728 90.504C308.96 90.504 310.696 90.336 313.048 89.944L313.272 89.608V77.96C313.552 77.96 313.832 78.016 314.056 78.128C314.28 78.24 314.504 78.352 314.616 78.408C314.728 78.52 314.896 78.688 315.008 78.968C315.12 79.304 315.176 79.472 315.176 79.528C315.176 79.64 315.232 79.864 315.344 80.2L315.456 80.76C315.736 82.272 316.072 83.56 316.464 84.624C316.8 85.688 317.36 86.752 318.032 87.76C318.704 88.824 319.544 89.608 320.664 90.168C321.728 90.728 323.016 90.952 324.528 90.952C326.712 90.952 328.448 90.392 329.736 89.216C330.968 88.04 331.64 86.92 331.64 85.856C331.64 85.464 331.304 85.072 330.688 84.68ZM363.221 62.336C363.221 62.224 363.165 62.112 363.053 62C361.261 61.664 359.469 61.496 357.733 61.496C355.773 61.496 353.925 61.72 352.133 62.056L351.909 62.392V77.008C351.909 78.968 351.517 80.536 350.733 81.656C349.949 82.776 349.165 83.336 348.269 83.336C347.653 83.336 347.149 83.056 346.813 82.496C346.421 81.936 346.253 81.152 346.253 80.032V68.104C346.253 65.92 345.525 64.184 344.181 62.952C342.837 61.72 341.101 61.104 339.029 61.104C336.957 61.104 335.277 61.776 333.989 63.12C332.645 64.464 332.029 65.584 332.029 66.424C332.029 66.872 332.197 67.152 332.533 67.32C334.101 68.384 334.941 70.12 334.941 72.528V82.384C334.941 85.128 335.669 87.2 337.125 88.656C338.581 90.112 340.429 90.84 342.725 90.84C347.093 90.84 350.117 88.936 351.909 85.072H352.077V91.064C352.077 92.856 351.405 94.48 350.061 95.824C348.717 97.224 346.981 97.896 344.853 97.896C343.005 97.896 341.437 97.616 340.093 96.944C338.749 96.328 337.685 95.712 337.013 95.096C336.341 94.48 335.837 94.144 335.557 94.144C335.109 94.144 334.885 94.48 334.885 95.04C334.885 95.936 335.109 96.944 335.669 98.008C336.173 99.072 336.957 100.136 337.965 101.144C338.973 102.208 340.317 103.104 342.109 103.776C343.845 104.504 345.805 104.84 347.933 104.84C352.805 104.84 356.557 103.44 359.245 100.528C361.877 97.672 363.221 93.864 363.221 89.048V62.336ZM368.234 89.72C368.234 89.888 368.29 90 368.458 90C370.362 90.392 372.266 90.56 374.058 90.56C376.074 90.56 377.866 90.392 379.434 90C379.602 90 379.714 89.888 379.714 89.664V74.88C379.714 72.976 380.106 71.464 380.89 70.344C381.674 69.224 382.514 68.608 383.41 68.608C383.97 68.608 384.474 68.888 384.866 69.448C385.202 70.008 385.426 70.848 385.426 71.912V84.176C385.426 86.416 386.042 88.096 387.386 89.328C388.674 90.56 390.354 91.12 392.482 91.12C394.498 91.12 396.178 90.448 397.522 89.104C398.866 87.76 399.538 86.696 399.538 85.856C399.538 85.52 399.37 85.24 399.034 85.016C397.466 84.008 396.682 82.16 396.682 79.528C396.682 77.96 396.682 76.056 396.682 73.76C396.682 71.464 396.738 70.008 396.738 69.336C396.738 66.648 395.954 64.576 394.498 63.12C393.042 61.664 391.194 60.88 389.01 60.88C387.274 60.88 385.538 61.384 383.802 62.392C382.01 63.4 380.666 64.968 379.658 67.096H379.49C379.434 66.872 379.378 66.48 379.322 66.032C378.986 64.464 378.258 63.232 377.138 62.28C376.018 61.384 374.618 60.88 372.882 60.88C370.81 60.88 369.13 61.552 367.786 62.896C366.442 64.24 365.826 65.304 365.826 66.088C365.826 66.424 365.994 66.704 366.33 66.928C367.114 67.488 367.618 68.16 367.954 68.944C368.29 69.728 368.458 70.904 368.458 72.36C368.458 83.336 368.346 89.16 368.234 89.72ZM416.685 60.936C412.149 60.936 408.397 62.336 405.485 65.136C402.517 67.936 401.061 71.52 401.061 76C401.061 80.536 402.517 84.176 405.429 86.976C408.341 89.776 412.093 91.176 416.685 91.176C421.277 91.176 425.029 89.776 427.941 86.976C430.853 84.176 432.365 80.48 432.365 76C432.365 71.632 430.853 67.992 427.941 65.192C424.973 62.392 421.221 60.936 416.685 60.936ZM416.685 84.848C415.117 84.848 413.997 84.064 413.269 82.384C412.485 80.76 412.149 78.632 412.149 76C412.149 70.064 413.661 67.096 416.685 67.096C418.253 67.096 419.373 67.936 420.157 69.56C420.885 71.184 421.277 73.312 421.277 76C421.277 81.936 419.709 84.848 416.685 84.848ZM453.242 84.064C453.242 86.304 453.858 87.984 455.202 89.216C456.49 90.448 458.17 91.008 460.298 91.008C462.314 91.008 463.994 90.336 465.338 88.992C466.682 87.648 467.354 86.584 467.354 85.744C467.354 85.408 467.186 85.128 466.85 84.904C465.282 83.896 464.498 82.048 464.498 79.416V62.28C464.498 62.168 464.442 62.056 464.33 62C462.706 61.664 460.858 61.44 458.842 61.44C456.994 61.44 455.202 61.664 453.466 62C453.298 62.056 453.242 62.168 453.242 62.28V72.136H447.586V67.824C447.586 65.808 446.914 64.128 445.57 62.896C444.226 61.664 442.546 61.048 440.53 61.048C438.458 61.048 436.778 61.72 435.434 63.064C434.09 64.408 433.474 65.472 433.474 66.256C433.474 66.592 433.642 66.872 433.978 67.096C434.762 67.656 435.266 68.328 435.602 69.112C435.938 69.896 436.106 71.072 436.106 72.528C436.106 83.392 435.994 89.16 435.882 89.72C435.882 89.888 435.938 90 436.106 90C438.01 90.392 439.914 90.56 441.706 90.56C443.89 90.56 445.738 90.392 447.306 90C447.474 90 447.586 89.888 447.586 89.664V78.072H453.242V84.064ZM509.447 69.728C509.447 67.264 508.327 65.192 506.087 63.568C503.847 61.944 500.991 61.104 497.575 61.104C492.759 61.104 488.895 62.56 485.983 65.416C483.071 68.328 481.671 71.856 481.671 76C481.671 80.368 482.959 83.896 485.647 86.696C488.335 89.496 492.087 90.896 497.015 90.896C500.655 90.896 503.679 89.832 506.143 87.592C508.607 85.408 509.839 83.504 509.839 81.824C509.839 81.32 509.615 81.04 509.167 81.04C508.943 81.04 507.991 81.432 506.255 82.104C504.519 82.776 502.895 83.112 501.327 83.112C498.415 83.112 496.231 82.272 494.887 80.592C493.543 78.912 492.871 76.896 492.871 74.432C492.871 72.416 493.263 70.624 494.103 69.056C494.887 67.488 495.895 66.704 497.127 66.704C498.583 66.704 499.367 67.824 499.367 70.064C499.367 70.512 499.311 71.072 499.199 71.8C499.087 72.528 499.087 72.976 499.087 73.2C499.087 73.76 499.535 74.32 500.431 74.88C501.327 75.44 502.391 75.664 503.511 75.664C505.415 75.664 506.927 75.048 507.935 73.816C508.943 72.584 509.447 71.24 509.447 69.728ZM534.484 74.376V74.152C535.828 73.928 536.948 73.312 537.9 72.416C538.796 71.52 539.356 70.4 539.524 69.056C539.804 67.04 538.908 65.136 536.836 63.456C534.764 61.776 531.628 60.88 527.428 60.88C522.5 60.88 518.636 62.224 515.892 64.8C513.148 67.432 511.804 71.072 511.804 75.776C511.804 80.984 513.148 84.848 515.948 87.312C518.692 89.832 522.5 91.064 527.428 91.064C531.684 91.064 535.1 90.112 537.564 88.096C540.028 86.08 541.316 83.84 541.316 81.264C541.316 79.304 540.588 77.736 539.244 76.56C537.844 75.384 536.276 74.656 534.484 74.376ZM526.868 67.04C527.54 67.04 528.1 67.32 528.548 67.824C528.996 68.328 529.22 68.888 529.22 69.504C529.22 70.568 528.716 71.464 527.82 72.248C526.868 73.032 525.468 73.48 523.564 73.592H523.06C523.004 71.688 523.284 70.12 523.9 68.888C524.516 67.656 525.524 67.04 526.868 67.04ZM527.26 85.016C524.348 85.016 522.948 82.552 523.06 77.568C523.452 77.568 523.9 77.512 524.348 77.512C526.252 77.512 527.764 77.96 528.884 78.8C529.948 79.64 530.508 80.592 530.508 81.712C530.508 82.608 530.172 83.392 529.612 84.064C529.052 84.736 528.268 85.016 527.26 85.016ZM558.599 60.936C554.063 60.936 550.311 62.336 547.399 65.136C544.431 67.936 542.975 71.52 542.975 76C542.975 80.536 544.431 84.176 547.343 86.976C550.255 89.776 554.007 91.176 558.599 91.176C563.191 91.176 566.943 89.776 569.855 86.976C572.767 84.176 574.279 80.48 574.279 76C574.279 71.632 572.767 67.992 569.855 65.192C566.887 62.392 563.135 60.936 558.599 60.936ZM558.599 84.848C557.031 84.848 555.911 84.064 555.183 82.384C554.399 80.76 554.063 78.632 554.063 76C554.063 70.064 555.575 67.096 558.599 67.096C560.167 67.096 561.287 67.936 562.071 69.56C562.799 71.184 563.191 73.312 563.191 76C563.191 81.936 561.623 84.848 558.599 84.848ZM606.636 62.336C606.636 62.224 606.58 62.112 606.468 62C604.676 61.664 602.884 61.496 601.092 61.496C599.132 61.496 597.284 61.72 595.492 62.056L595.268 62.392V77.008C595.268 78.968 594.876 80.536 594.092 81.656C593.308 82.776 592.524 83.336 591.628 83.336C591.012 83.336 590.508 83.056 590.172 82.496C589.78 81.936 589.612 81.152 589.612 80.032V68.104C589.612 65.92 588.884 64.184 587.54 62.952C586.196 61.72 584.46 61.104 582.388 61.104C580.316 61.104 578.636 61.776 577.348 63.12C576.004 64.464 575.388 65.584 575.388 66.424C575.388 66.872 575.556 67.152 575.892 67.32C577.46 68.384 578.3 70.12 578.3 72.528V82.664C578.3 85.352 579.028 87.424 580.484 88.824C581.94 90.28 583.788 90.952 586.084 90.952C587.876 90.952 589.668 90.504 591.348 89.552C593.028 88.6 594.372 87.032 595.38 84.792L595.548 84.848C595.604 85.408 595.66 85.8 595.772 86.024C596.108 87.592 596.836 88.768 597.956 89.664C599.02 90.56 600.42 91.008 602.156 91.008C604.228 91.008 605.908 90.336 607.252 88.992C608.54 87.648 609.212 86.584 609.212 85.744C609.212 85.408 609.044 85.128 608.708 84.904C607.252 84.008 606.58 82.216 606.58 79.528C606.58 68.216 606.58 62.448 606.636 62.336ZM629.773 88.656C629.941 89.216 630.221 89.608 630.557 89.776C630.893 90 631.397 90.056 632.069 90.056C633.301 90.056 634.085 89.608 634.421 88.656C634.477 88.432 634.869 87.424 635.597 85.52C636.269 83.616 637.109 81.432 638.117 78.856C639.069 76.336 639.853 74.32 640.413 72.864H640.581L640.469 84.176C640.469 86.416 641.141 88.096 642.485 89.328C643.829 90.56 645.565 91.12 647.693 91.12C649.709 91.12 651.389 90.448 652.733 89.104C654.077 87.76 654.749 86.696 654.749 85.856C654.749 85.52 654.581 85.24 654.245 85.016C652.677 84.008 651.893 82.16 651.893 79.528V62.392C651.893 62.28 651.837 62.168 651.781 62.112C651.669 62.112 651.389 62.056 650.885 61.944C650.381 61.832 649.653 61.72 648.701 61.608C647.693 61.496 646.741 61.44 645.845 61.44C643.549 61.44 641.645 61.664 640.133 62.056C640.077 62.056 640.021 62.112 639.965 62.168C639.909 62.28 639.685 62.896 639.237 64.128C638.789 65.36 638.285 66.816 637.669 68.496C636.997 70.232 636.493 71.632 636.045 72.696H635.877C634.421 68.888 633.189 66.256 632.237 64.8C630.389 62.224 627.589 60.88 623.837 60.88C620.981 60.88 618.573 61.608 616.613 63.008C614.653 64.464 613.701 65.696 613.701 66.704C613.701 67.376 614.205 67.712 615.269 67.712C615.437 67.712 615.829 67.712 616.389 67.656C616.949 67.656 617.341 67.656 617.621 67.656C617.509 75.776 616.333 79.808 613.981 79.808C613.645 79.808 613.309 79.752 612.973 79.528C612.637 79.304 612.413 79.192 612.301 79.192C611.853 79.192 611.293 79.808 610.677 80.928C610.061 82.104 609.781 83.392 609.781 84.736C609.781 86.64 610.341 88.208 611.461 89.384C612.581 90.56 614.093 91.12 615.997 91.12C617.341 91.12 618.461 90.84 619.469 90.28C620.477 89.72 621.205 88.88 621.765 87.76C622.325 86.64 622.717 85.52 623.053 84.288C623.389 83.056 623.557 81.656 623.613 79.976C623.613 78.296 623.613 76.84 623.557 75.552C623.501 74.32 623.389 72.864 623.277 71.184H623.501C624.285 72.696 625.013 74.488 625.797 76.504C626.525 78.576 627.309 81.04 628.205 83.84C629.101 86.64 629.605 88.264 629.773 88.656ZM687.509 63.176C685.213 63.288 683.197 63.904 681.461 65.136C679.669 66.368 678.325 68.104 677.429 70.344H677.205L677.093 69.168C676.981 68.384 677.149 67.32 677.597 66.032C677.989 64.8 678.661 63.68 679.669 62.728C680.845 61.552 682.525 60.712 684.653 60.208C686.781 59.704 688.909 59.256 691.037 58.808C693.165 58.36 694.789 57.632 695.965 56.568C697.981 54.72 699.045 52.144 699.045 48.784C699.045 47.888 698.821 47.048 698.429 46.208C698.037 45.368 697.701 44.92 697.365 44.92C697.197 44.92 697.029 44.976 696.861 45.088C696.637 45.2 696.357 45.424 695.909 45.648C695.461 45.928 694.901 46.152 694.341 46.376C693.109 46.88 691.149 47.496 688.349 48.168C685.549 48.84 683.029 49.68 680.845 50.632C678.605 51.64 676.645 52.984 674.965 54.664C671.045 58.584 669.085 64.52 669.085 72.472C669.085 78.408 670.429 83 673.229 86.248C676.029 89.496 679.669 91.12 684.205 91.12C688.685 91.12 692.381 89.664 695.181 86.696C697.981 83.728 699.437 80.088 699.437 75.776C699.437 72.08 698.317 69 696.077 66.592C693.837 64.24 690.981 63.064 687.509 63.176ZM684.261 84.736C682.917 84.736 681.965 83.952 681.349 82.272C680.677 80.648 680.397 78.912 680.397 77.12C680.397 75.216 680.677 73.536 681.349 72.136C681.965 70.792 682.973 70.064 684.373 70.064C685.661 70.064 686.613 70.792 687.173 72.136C687.733 73.536 688.069 75.216 688.069 77.12C688.069 82.216 686.781 84.736 684.261 84.736ZM732.878 84.792C731.31 83.784 730.526 81.936 730.526 79.304C730.526 77.904 730.526 76.56 730.526 75.328C730.526 74.096 730.582 73.144 730.582 72.472C730.582 71.856 730.638 71.408 730.638 71.128C730.638 67.544 729.574 64.968 727.502 63.344C725.374 61.72 722.63 60.88 719.214 60.88C715.406 60.88 712.158 61.72 709.358 63.288C706.558 64.912 705.158 66.368 705.158 67.6C705.158 68.272 705.662 68.608 706.67 68.608C707.006 68.608 707.398 68.608 707.958 68.552C708.462 68.552 708.798 68.496 709.022 68.496C709.022 71.8 708.63 74.488 707.846 76.504C707.062 78.576 705.942 79.584 704.598 79.584C704.262 79.584 703.926 79.528 703.59 79.304C703.254 79.08 703.03 78.968 702.918 78.968C702.47 78.968 701.91 79.584 701.294 80.704C700.678 81.88 700.398 83.168 700.398 84.512C700.398 86.416 700.958 87.984 702.078 89.16C703.198 90.336 704.71 90.896 706.614 90.896C708.294 90.896 709.694 90.448 710.814 89.44C711.934 88.488 712.774 87.312 713.334 85.912C713.894 84.512 714.23 82.72 714.454 80.536C714.678 78.352 714.734 76.392 714.734 74.656C714.678 72.92 714.566 70.904 714.454 68.552C715.518 68.552 716.414 68.664 717.086 68.944C717.758 69.224 718.206 69.672 718.486 70.288C718.71 70.904 718.878 71.464 718.99 71.968C719.046 72.472 719.102 73.144 719.102 73.928V83.952C719.102 86.192 719.774 87.872 721.118 89.104C722.462 90.336 724.198 90.896 726.326 90.896C728.342 90.896 730.022 90.224 731.366 88.88C732.71 87.536 733.382 86.472 733.382 85.632C733.382 85.296 733.214 85.016 732.878 84.792ZM765.394 62.336C765.394 62.224 765.338 62.112 765.226 62C763.434 61.664 761.642 61.496 759.85 61.496C757.89 61.496 756.042 61.72 754.25 62.056L754.026 62.392V77.008C754.026 78.968 753.634 80.536 752.85 81.656C752.066 82.776 751.282 83.336 750.386 83.336C749.77 83.336 749.266 83.056 748.93 82.496C748.538 81.936 748.37 81.152 748.37 80.032V68.104C748.37 65.92 747.642 64.184 746.298 62.952C744.954 61.72 743.218 61.104 741.146 61.104C739.074 61.104 737.394 61.776 736.106 63.12C734.762 64.464 734.146 65.584 734.146 66.424C734.146 66.872 734.314 67.152 734.65 67.32C736.218 68.384 737.058 70.12 737.058 72.528V82.664C737.058 85.352 737.786 87.424 739.242 88.824C740.698 90.28 742.546 90.952 744.842 90.952C746.634 90.952 748.426 90.504 750.106 89.552C751.786 88.6 753.13 87.032 754.138 84.792L754.306 84.848C754.362 85.408 754.418 85.8 754.53 86.024C754.866 87.592 755.594 88.768 756.714 89.664C757.778 90.56 759.178 91.008 760.914 91.008C762.986 91.008 764.666 90.336 766.01 88.992C767.298 87.648 767.97 86.584 767.97 85.744C767.97 85.408 767.802 85.128 767.466 84.904C766.01 84.008 765.338 82.216 765.338 79.528C765.338 68.216 765.338 62.448 765.394 62.336ZM790.995 75.272V75.048C792.563 74.712 793.907 73.984 795.027 72.864C796.147 71.744 796.707 70.4 796.707 68.832C796.707 66.592 795.531 64.744 793.235 63.288C790.939 61.832 788.083 61.048 784.667 61.048C780.187 61.048 776.547 62.168 773.803 64.408C771.059 66.648 769.715 68.72 769.715 70.624C769.715 71.24 769.939 71.52 770.387 71.52C770.667 71.52 771.283 71.296 772.235 70.848C773.131 70.4 774.363 69.952 775.819 69.504C777.275 69.056 778.787 68.776 780.355 68.776C781.419 68.776 782.315 68.944 783.043 69.168C783.771 69.448 784.275 69.784 784.611 70.176C784.891 70.624 785.059 70.96 785.171 71.24C785.283 71.576 785.339 71.856 785.339 72.136C785.339 72.864 785.115 73.536 784.723 74.208C782.763 73.592 781.251 73.48 780.243 73.928C779.179 74.376 778.675 75.104 778.675 76.112C778.675 77.064 779.179 77.736 780.299 78.184C781.363 78.632 782.931 78.408 785.003 77.624L785.283 78.016C785.395 78.352 785.563 78.8 785.731 79.36C785.899 79.92 786.011 80.536 786.011 81.096C786.011 82.104 785.675 83 785.059 83.784C784.387 84.568 783.547 84.96 782.427 84.96C781.419 84.96 780.635 84.68 779.963 84.064C779.291 83.504 779.011 82.664 779.011 81.656C779.011 81.432 779.011 81.096 779.123 80.648C779.179 80.2 779.235 79.92 779.235 79.752C779.235 79.416 778.731 78.968 777.723 78.52C776.715 78.072 775.707 77.792 774.699 77.792C772.963 77.792 771.619 78.296 770.667 79.248C769.659 80.256 769.211 81.432 769.211 82.832C769.211 85.464 770.555 87.48 773.299 88.936C775.987 90.392 779.123 91.064 782.651 91.064C785.227 91.064 787.579 90.784 789.763 90.112C791.947 89.496 793.795 88.488 795.251 87.088C796.707 85.688 797.435 84.008 797.435 81.992C797.435 80.2 796.819 78.744 795.587 77.568C794.355 76.392 792.843 75.608 790.995 75.272ZM829.493 84.68C828.597 84.176 827.757 83.448 827.085 82.44C826.357 81.488 825.741 80.536 825.293 79.528C824.789 78.576 824.285 77.624 823.725 76.616C823.165 75.664 822.493 74.824 821.709 74.152C820.869 73.48 819.917 72.976 818.797 72.752C819.077 71.968 819.581 71.296 820.253 70.68C820.925 70.12 821.709 69.784 822.605 69.784C823.333 69.784 824.061 70.008 824.845 70.344C825.629 70.736 826.021 70.904 826.077 70.904C826.581 70.904 827.197 70.456 827.925 69.504C828.653 68.552 829.045 67.488 829.045 66.256C829.045 64.856 828.541 63.624 827.533 62.56C826.525 61.552 825.069 60.992 823.165 60.992C820.589 60.992 818.405 62.056 816.669 64.184C814.933 66.312 813.981 69.168 813.869 72.752H812.077V67.768C812.077 65.752 811.405 64.072 810.117 62.84C808.773 61.608 807.093 60.992 805.077 60.992C803.005 60.992 801.325 61.664 799.981 63.008C798.637 64.352 798.021 65.416 798.021 66.2C798.021 66.536 798.189 66.816 798.525 67.04C799.925 68.048 800.653 69.616 800.653 71.8V89.664C800.653 89.832 800.709 89.944 800.877 89.944C802.893 90.336 804.797 90.504 806.533 90.504C807.765 90.504 809.501 90.336 811.853 89.944L812.077 89.608V77.96C812.357 77.96 812.637 78.016 812.861 78.128C813.085 78.24 813.309 78.352 813.421 78.408C813.533 78.52 813.701 78.688 813.813 78.968C813.925 79.304 813.981 79.472 813.981 79.528C813.981 79.64 814.037 79.864 814.149 80.2L814.261 80.76C814.541 82.272 814.877 83.56 815.269 84.624C815.605 85.688 816.165 86.752 816.837 87.76C817.509 88.824 818.349 89.608 819.469 90.168C820.533 90.728 821.821 90.952 823.333 90.952C825.517 90.952 827.253 90.392 828.541 89.216C829.773 88.04 830.445 86.92 830.445 85.856C830.445 85.464 830.109 85.072 829.493 84.68ZM862.081 62.336C862.081 62.224 862.025 62.112 861.913 62C860.121 61.664 858.329 61.496 856.537 61.496C854.577 61.496 852.729 61.72 850.937 62.056L850.713 62.392V77.008C850.713 78.968 850.321 80.536 849.537 81.656C848.753 82.776 847.969 83.336 847.073 83.336C846.457 83.336 845.953 83.056 845.617 82.496C845.225 81.936 845.057 81.152 845.057 80.032V68.104C845.057 65.92 844.329 64.184 842.985 62.952C841.641 61.72 839.905 61.104 837.833 61.104C835.761 61.104 834.081 61.776 832.793 63.12C831.449 64.464 830.833 65.584 830.833 66.424C830.833 66.872 831.001 67.152 831.337 67.32C832.905 68.384 833.745 70.12 833.745 72.528V82.664C833.745 85.352 834.473 87.424 835.929 88.824C837.385 90.28 839.233 90.952 841.529 90.952C843.321 90.952 845.113 90.504 846.793 89.552C848.473 88.6 849.817 87.032 850.825 84.792L850.993 84.848C851.049 85.408 851.105 85.8 851.217 86.024C851.553 87.592 852.281 88.768 853.401 89.664C854.465 90.56 855.865 91.008 857.601 91.008C859.673 91.008 861.353 90.336 862.697 88.992C863.985 87.648 864.657 86.584 864.657 85.744C864.657 85.408 864.489 85.128 864.153 84.904C862.697 84.008 862.025 82.216 862.025 79.528C862.025 68.216 862.025 62.448 862.081 62.336ZM885.219 88.656C885.387 89.216 885.667 89.608 886.003 89.776C886.339 90 886.843 90.056 887.515 90.056C888.747 90.056 889.531 89.608 889.867 88.656C889.923 88.432 890.315 87.424 891.043 85.52C891.715 83.616 892.555 81.432 893.563 78.856C894.515 76.336 895.299 74.32 895.859 72.864H896.027L895.915 84.176C895.915 86.416 896.587 88.096 897.931 89.328C899.275 90.56 901.011 91.12 903.139 91.12C905.155 91.12 906.835 90.448 908.179 89.104C909.523 87.76 910.195 86.696 910.195 85.856C910.195 85.52 910.027 85.24 909.691 85.016C908.123 84.008 907.339 82.16 907.339 79.528V62.392C907.339 62.28 907.283 62.168 907.227 62.112C907.115 62.112 906.835 62.056 906.331 61.944C905.827 61.832 905.099 61.72 904.147 61.608C903.139 61.496 902.187 61.44 901.291 61.44C898.995 61.44 897.091 61.664 895.579 62.056C895.523 62.056 895.467 62.112 895.411 62.168C895.355 62.28 895.131 62.896 894.683 64.128C894.235 65.36 893.731 66.816 893.115 68.496C892.443 70.232 891.939 71.632 891.491 72.696H891.323C889.867 68.888 888.635 66.256 887.683 64.8C885.835 62.224 883.035 60.88 879.283 60.88C876.427 60.88 874.019 61.608 872.059 63.008C870.099 64.464 869.147 65.696 869.147 66.704C869.147 67.376 869.651 67.712 870.715 67.712C870.883 67.712 871.275 67.712 871.835 67.656C872.395 67.656 872.787 67.656 873.067 67.656C872.955 75.776 871.779 79.808 869.427 79.808C869.091 79.808 868.755 79.752 868.419 79.528C868.083 79.304 867.859 79.192 867.747 79.192C867.299 79.192 866.739 79.808 866.123 80.928C865.507 82.104 865.227 83.392 865.227 84.736C865.227 86.64 865.787 88.208 866.907 89.384C868.027 90.56 869.539 91.12 871.443 91.12C872.787 91.12 873.907 90.84 874.915 90.28C875.923 89.72 876.651 88.88 877.211 87.76C877.771 86.64 878.163 85.52 878.499 84.288C878.835 83.056 879.003 81.656 879.059 79.976C879.059 78.296 879.059 76.84 879.003 75.552C878.947 74.32 878.835 72.864 878.723 71.184H878.947C879.731 72.696 880.459 74.488 881.243 76.504C881.971 78.576 882.755 81.04 883.651 83.84C884.547 86.64 885.051 88.264 885.219 88.656Z" fill="#C70E25"/>
<path d="M93.9776 119.474V119.382C94.4376 119.244 95.0356 118.922 95.7716 118.37C96.5076 117.864 97.2436 117.036 97.9796 115.886C98.7156 114.736 99.1296 113.494 99.1296 112.114C99.1296 109.952 98.1636 108.066 96.2776 106.502C94.3916 104.938 91.7696 104.156 88.4576 104.156C85.1456 104.156 82.3396 105.03 79.9476 106.732C77.5556 108.434 76.4056 109.906 76.4056 111.102C76.4056 111.47 76.5896 111.654 76.9576 111.654C77.0956 111.654 77.6016 111.424 78.4756 110.872C79.3036 110.32 80.4996 109.768 81.9716 109.216C83.4436 108.664 85.0076 108.388 86.6636 108.388C88.5036 108.388 90.1596 108.802 91.5396 109.63C92.9196 110.458 93.6096 111.7 93.6096 113.31C93.6096 113.862 93.5176 114.414 93.3336 114.874C93.1496 115.38 92.9656 115.794 92.7816 116.116C92.5516 116.484 92.2756 116.806 91.9996 117.082C91.6776 117.404 91.4016 117.634 91.1716 117.772C90.9416 117.956 90.7116 118.094 90.5276 118.232L90.2056 118.416C88.8256 118.048 87.7676 118.002 87.0316 118.186C86.2496 118.37 85.6976 118.646 85.4216 118.968C85.0996 119.336 84.9616 119.704 84.9616 120.118C84.9616 120.578 85.0996 120.946 85.4216 121.268C85.7436 121.59 86.2956 121.82 87.1236 121.958C87.9056 122.142 88.9636 121.958 90.3436 121.452L90.9416 121.728C91.3096 121.912 91.6776 122.096 92.0916 122.372C92.5056 122.648 92.9196 123.016 93.3796 123.476C93.8396 123.936 94.2076 124.534 94.4836 125.27C94.7596 126.006 94.9436 126.834 94.9436 127.754C94.9436 129.686 94.2536 131.204 92.8736 132.354C91.4936 133.504 89.6536 134.056 87.4456 134.056C85.5596 134.056 84.0416 133.596 82.9376 132.584C81.7876 131.572 81.2356 130.284 81.2356 128.674C81.2356 128.352 81.2816 127.8 81.4196 127.064C81.4196 126.834 81.1896 126.604 80.7756 126.328C80.3616 126.098 79.9016 125.96 79.3496 125.96C78.1536 125.96 77.2796 126.374 76.7276 127.11C76.1756 127.846 75.9456 128.72 75.9456 129.64C75.9456 132.124 77.0036 134.056 79.2116 135.482C81.4196 136.908 84.1796 137.598 87.5376 137.598C89.0096 137.598 90.5276 137.414 91.9996 137C93.4716 136.632 94.8976 136.034 96.1856 135.252C97.4736 134.47 98.5316 133.412 99.3596 132.078C100.188 130.744 100.602 129.226 100.602 127.57C100.602 126.42 100.326 125.362 99.8656 124.35C99.4056 123.338 98.8076 122.51 98.0716 121.866C97.3356 121.222 96.5996 120.716 95.9096 120.348C95.2196 119.98 94.5756 119.658 93.9776 119.474ZM125.196 130.698C125.196 128.95 125.196 126.098 125.242 122.05C125.242 118.048 125.288 115.426 125.288 114.184C125.288 114.092 125.196 114.046 125.058 113.954C124.322 113.816 123.54 113.724 122.712 113.724C122.068 113.724 121.378 113.816 120.688 113.954C120.504 114.046 120.458 114.092 120.458 114.184L120.228 117.772H120.09C119.446 116.438 118.48 115.38 117.238 114.598C115.996 113.862 114.616 113.448 113.098 113.448C110.384 113.448 108.13 114.69 106.336 117.082C104.542 119.474 103.668 122.326 103.668 125.592C103.668 129.226 104.496 132.124 106.152 134.286C107.808 136.494 110.016 137.552 112.73 137.552C114.386 137.552 115.858 137.138 117.146 136.264C118.434 135.39 119.446 134.194 120.182 132.63H120.274C120.274 135.942 121.608 137.552 124.184 137.552C125.288 137.552 126.254 137.23 127.082 136.586C127.91 135.942 128.324 135.344 128.324 134.7C128.324 134.424 128.186 134.286 128.002 134.24C127.45 134.24 127.128 134.194 126.944 134.148C126.76 134.102 126.484 133.964 126.116 133.78C125.748 133.596 125.518 133.228 125.38 132.722C125.242 132.216 125.196 131.526 125.196 130.698ZM114.294 134.056C112.73 134.056 111.442 133.32 110.338 131.756C109.234 130.238 108.682 128.076 108.728 125.27C108.728 122.832 109.326 120.808 110.43 119.244C111.534 117.68 112.822 116.852 114.34 116.852C116.088 116.852 117.514 117.772 118.618 119.52C119.722 121.314 120.274 123.338 120.274 125.638C120.274 127.846 119.676 129.824 118.48 131.526C117.284 133.228 115.904 134.056 114.294 134.056ZM132.78 136.816C132.78 137 132.826 137.046 133.01 137.046C133.654 137.23 134.436 137.322 135.356 137.322C136 137.322 136.736 137.23 137.564 137.046C137.702 137.046 137.794 137 137.794 136.816V127.938C137.794 125.04 138.392 122.51 139.68 120.348C140.968 118.232 142.348 117.082 143.866 116.99C144.832 116.944 145.66 117.312 146.304 118.048C146.948 118.83 147.27 120.118 147.27 121.866V133.136C147.27 134.562 147.592 135.666 148.282 136.448C148.926 137.23 149.892 137.598 151.134 137.598C152.33 137.598 153.296 137.276 154.124 136.54C154.906 135.85 155.32 135.252 155.32 134.746C155.32 134.516 155.182 134.378 154.952 134.286C154.86 134.286 154.814 134.286 154.722 134.24C154.216 134.194 153.894 134.148 153.756 134.102C153.572 134.102 153.342 133.964 153.02 133.734C152.698 133.504 152.468 133.136 152.376 132.63C152.238 132.17 152.192 131.526 152.192 130.698V120.67C152.192 118.278 151.594 116.438 150.49 115.196C149.386 113.954 147.822 113.356 145.844 113.402C144.188 113.494 142.624 114.092 141.152 115.196C139.68 116.346 138.576 117.864 137.84 119.704H137.702C137.702 118.692 137.656 117.91 137.656 117.358C137.472 114.736 136.23 113.402 133.93 113.402C132.734 113.402 131.722 113.77 130.94 114.46C130.158 115.15 129.79 115.748 129.79 116.254C129.79 116.53 129.882 116.714 130.112 116.714C130.572 116.76 130.94 116.806 131.124 116.852C131.308 116.898 131.538 116.99 131.906 117.174C132.274 117.358 132.504 117.726 132.642 118.186C132.78 118.646 132.872 119.29 132.872 120.072C132.872 125.868 132.826 131.434 132.78 136.816ZM179.282 114.184C179.282 114.046 179.19 113.954 179.052 113.954C178.454 113.816 177.718 113.724 176.798 113.724C175.97 113.724 175.188 113.816 174.544 113.954C174.36 114.046 174.314 114.138 174.314 114.184V123.062C174.314 126.052 173.67 128.582 172.428 130.698C171.14 132.814 169.76 133.918 168.242 133.964C167.23 134.056 166.448 133.688 165.804 132.952C165.16 132.216 164.884 130.928 164.884 129.134V117.956C164.884 116.576 164.516 115.472 163.826 114.644C163.136 113.862 162.17 113.448 160.928 113.448C159.732 113.448 158.72 113.816 157.938 114.506C157.156 115.242 156.788 115.84 156.788 116.346C156.788 116.668 156.88 116.806 157.11 116.806C157.616 116.852 157.938 116.898 158.122 116.944C158.306 116.99 158.582 117.082 158.95 117.266C159.318 117.45 159.548 117.818 159.686 118.324C159.824 118.83 159.916 119.474 159.916 120.302V130.238C159.916 132.722 160.468 134.562 161.572 135.804C162.676 137.046 164.286 137.644 166.31 137.552C167.966 137.506 169.484 136.954 170.956 135.85C172.428 134.746 173.532 133.274 174.268 131.342H174.36V137.552C174.36 139.99 173.716 141.922 172.52 143.348C171.324 144.82 169.576 145.51 167.322 145.51C165.896 145.51 164.654 145.28 163.55 144.82C162.446 144.36 161.572 143.854 160.974 143.394C160.33 142.934 159.916 142.658 159.732 142.658C159.456 142.658 159.364 142.796 159.364 143.072C159.364 144.13 160.192 145.372 161.894 146.752C163.596 148.178 165.85 148.868 168.702 148.868C172.014 148.868 174.59 147.856 176.476 145.74C178.316 143.67 179.282 140.772 179.282 137.046V114.184ZM203.181 120.44C203.181 118.646 202.399 117.036 200.835 115.61C199.271 114.184 197.247 113.448 194.671 113.448C191.497 113.448 188.829 114.598 186.713 116.898C184.597 119.198 183.539 122.142 183.539 125.684C183.539 129.272 184.505 132.124 186.529 134.286C188.507 136.494 191.175 137.552 194.487 137.552C195.959 137.552 197.385 137.322 198.673 136.77C199.961 136.264 200.927 135.666 201.663 134.93C202.399 134.194 202.951 133.504 203.365 132.86C203.779 132.216 204.009 131.71 204.009 131.342C204.009 131.066 203.871 130.928 203.641 130.928C203.411 130.928 202.997 131.204 202.353 131.664C201.709 132.17 200.835 132.676 199.731 133.136C198.627 133.596 197.477 133.826 196.189 133.826C193.705 133.826 191.819 133.044 190.485 131.388C189.105 129.732 188.461 127.616 188.461 125.04C188.461 122.602 189.013 120.532 190.209 118.83C191.359 117.128 192.785 116.254 194.487 116.254C195.683 116.254 196.649 116.714 197.385 117.588C198.075 118.508 198.443 119.566 198.443 120.808C198.443 121.176 198.397 121.59 198.305 122.05C198.213 122.556 198.213 122.832 198.213 122.924C198.213 123.2 198.397 123.43 198.811 123.66C199.179 123.89 199.685 123.982 200.237 123.982C201.157 123.982 201.847 123.66 202.399 122.97C202.905 122.326 203.181 121.452 203.181 120.44ZM243.611 134.24C243.059 134.24 242.737 134.194 242.553 134.148C242.369 134.102 242.139 133.964 241.771 133.78C241.403 133.596 241.173 133.228 241.035 132.722C240.897 132.216 240.851 131.526 240.851 130.652V120.716C240.851 118.324 240.253 116.484 239.149 115.242C237.999 114 236.435 113.402 234.457 113.448C232.801 113.494 231.375 114.092 230.179 115.196C228.983 116.3 228.017 117.772 227.327 119.566H227.189C227.005 117.542 226.407 116.024 225.303 114.966C224.199 113.908 222.727 113.402 220.887 113.448C217.667 113.54 215.321 115.656 213.803 119.704H213.665C213.665 118.692 213.619 117.91 213.619 117.358C213.389 114.782 212.147 113.448 209.893 113.448C208.697 113.448 207.685 113.816 206.903 114.506C206.121 115.196 205.753 115.794 205.753 116.3C205.753 116.576 205.845 116.76 206.075 116.76C206.535 116.806 206.903 116.852 207.087 116.898C207.271 116.944 207.501 117.036 207.869 117.22C208.237 117.404 208.467 117.772 208.605 118.232C208.743 118.692 208.835 119.336 208.835 120.118C208.835 125.868 208.789 131.434 208.743 136.816C208.743 137 208.789 137.046 208.973 137.046C209.617 137.23 210.399 137.322 211.319 137.322C211.963 137.322 212.699 137.23 213.527 137.046C213.665 137.046 213.757 137 213.757 136.816V128.076C213.757 125.224 214.309 122.694 215.413 120.486C216.517 118.278 217.759 117.128 219.139 117.036C220.105 116.99 220.887 117.358 221.485 118.094C222.037 118.83 222.359 120.118 222.359 121.912V136.816C222.359 137 222.405 137.046 222.589 137.046C223.233 137.23 224.015 137.322 224.843 137.322C225.487 137.322 226.223 137.23 227.051 137.046C227.189 137.046 227.281 137 227.281 136.816V128.168C227.281 125.408 227.833 122.878 228.937 120.578C230.041 118.324 231.329 117.128 232.709 117.036C233.721 116.99 234.503 117.358 235.055 118.094C235.607 118.83 235.929 120.118 235.929 121.912V133.09C235.929 134.516 236.251 135.62 236.941 136.402C237.585 137.23 238.551 137.598 239.793 137.598C240.989 137.598 241.955 137.276 242.783 136.54C243.565 135.85 243.979 135.252 243.979 134.7C243.979 134.47 243.841 134.332 243.611 134.24ZM267.958 114.184C267.958 114.046 267.866 113.954 267.774 113.954C267.13 113.816 266.394 113.724 265.474 113.724C264.646 113.724 263.864 113.816 263.22 113.954C263.036 114.046 262.99 114.138 262.99 114.184V123.062C262.99 126.052 262.346 128.582 261.104 130.698C259.816 132.814 258.436 133.918 256.918 133.964C255.906 134.056 255.124 133.688 254.48 132.952C253.836 132.216 253.56 130.928 253.56 129.134V117.956C253.56 116.576 253.192 115.472 252.502 114.644C251.812 113.862 250.846 113.448 249.604 113.448C248.408 113.448 247.396 113.816 246.614 114.506C245.832 115.242 245.464 115.84 245.464 116.346C245.464 116.668 245.556 116.806 245.786 116.806C246.292 116.852 246.614 116.898 246.798 116.944C246.982 116.99 247.258 117.082 247.626 117.266C247.994 117.45 248.224 117.818 248.362 118.324C248.5 118.83 248.592 119.474 248.592 120.302V130.33C248.592 132.768 249.144 134.608 250.248 135.804C251.352 137.046 252.962 137.644 254.986 137.552C256.642 137.506 258.206 136.908 259.678 135.804C261.15 134.7 262.254 133.182 262.99 131.296H263.082C263.082 131.572 263.082 131.94 263.082 132.446C263.082 132.998 263.128 133.366 263.128 133.642C263.358 136.31 264.6 137.598 266.854 137.598C268.05 137.598 269.016 137.276 269.844 136.54C270.626 135.85 271.04 135.252 271.04 134.7C271.04 134.47 270.902 134.332 270.672 134.24C270.166 134.24 269.844 134.194 269.66 134.148C269.476 134.102 269.2 133.964 268.878 133.78C268.51 133.596 268.28 133.274 268.142 132.814C268.004 132.354 267.958 131.71 267.958 130.882V114.184ZM299.993 124.12V123.982C300.959 123.706 301.833 123.154 302.569 122.326C303.305 121.498 303.719 120.532 303.765 119.428C303.811 117.588 303.029 116.162 301.373 115.058C299.717 113.954 297.693 113.402 295.347 113.402C291.897 113.402 289.137 114.506 287.113 116.668C285.089 118.876 284.031 121.774 283.939 125.454C283.847 128.996 284.813 131.894 286.745 134.194C288.677 136.494 291.483 137.598 295.209 137.598C298.061 137.598 300.453 136.908 302.477 135.436C304.455 133.964 305.467 132.124 305.467 129.916C305.467 128.26 304.869 126.926 303.765 125.914C302.661 124.948 301.373 124.35 299.993 124.12ZM294.749 116.438C295.945 116.438 296.957 116.714 297.785 117.266C298.613 117.864 299.027 118.646 299.027 119.658C299.027 122.28 296.543 123.66 291.575 123.752H288.999C289.137 121.774 289.689 120.072 290.655 118.646C291.575 117.266 292.955 116.53 294.749 116.438ZM295.715 134.562C293.783 134.562 292.219 133.918 290.977 132.538C289.689 131.204 289.045 129.134 288.953 126.328C288.953 126.328 289.229 126.328 289.781 126.282C290.287 126.236 290.931 126.19 291.667 126.144C292.403 126.098 293.093 126.052 293.645 126.052C298.245 126.052 300.591 127.478 300.591 130.284C300.591 131.388 300.131 132.354 299.303 133.228C298.429 134.148 297.233 134.562 295.715 134.562ZM319.692 113.402C316.426 113.402 313.712 114.598 311.596 116.898C309.48 119.198 308.422 122.05 308.422 125.454C308.422 129.226 309.48 132.216 311.596 134.378C313.712 136.586 316.38 137.644 319.692 137.644C323.142 137.644 325.902 136.494 327.926 134.148C329.95 131.802 331.008 128.858 331.008 125.362C331.008 121.774 329.95 118.922 327.88 116.714C325.81 114.506 323.096 113.402 319.692 113.402ZM319.876 134.562C318.036 134.562 316.518 133.78 315.276 132.124C313.988 130.468 313.39 128.214 313.39 125.27C313.39 122.648 313.988 120.532 315.184 118.876C316.38 117.266 317.852 116.438 319.692 116.438C321.762 116.438 323.326 117.358 324.43 119.152C325.488 120.946 326.04 123.108 326.04 125.684C326.04 128.352 325.488 130.468 324.384 132.124C323.28 133.78 321.762 134.562 319.876 134.562ZM356.665 134.24C356.113 134.194 355.745 134.148 355.607 134.102C355.423 134.102 355.193 133.964 354.825 133.734C354.457 133.504 354.181 133.09 354.043 132.538C353.905 131.986 353.859 131.204 353.859 130.284C353.859 128.904 353.859 127.064 353.859 124.856C353.859 122.648 353.905 121.13 353.905 120.21C353.905 115.702 351.467 113.402 346.683 113.402C344.889 113.402 343.141 113.678 341.393 114.184C339.645 114.736 338.265 115.288 337.253 115.932C336.241 116.576 335.781 117.082 335.781 117.496C335.781 117.864 335.965 118.002 336.425 118.002C336.977 118.002 337.943 117.864 339.415 117.496C339.553 122.188 339.185 125.868 338.357 128.582C337.483 131.296 336.471 132.63 335.275 132.63C334.815 132.63 334.447 132.538 334.079 132.354C333.711 132.17 333.527 132.078 333.435 132.078C333.205 132.078 332.975 132.308 332.791 132.676C332.561 133.044 332.469 133.504 332.469 134.01C332.469 134.976 332.791 135.804 333.435 136.494C334.079 137.23 334.953 137.552 336.011 137.552C337.299 137.552 338.449 137 339.369 135.896C340.289 134.792 340.933 133.274 341.393 131.388C341.807 129.548 342.083 127.386 342.267 124.902C342.451 122.464 342.451 119.888 342.267 117.22C344.337 116.852 345.947 117.036 347.143 117.726C348.339 118.416 348.891 119.888 348.891 122.096V133.09C348.891 134.516 349.213 135.62 349.903 136.402C350.593 137.184 351.559 137.552 352.847 137.552C354.043 137.552 355.009 137.23 355.791 136.494C356.573 135.804 356.987 135.206 356.987 134.654C356.987 134.424 356.849 134.286 356.665 134.24ZM375.692 133.09C375.692 134.516 376.014 135.62 376.704 136.402C377.348 137.23 378.314 137.598 379.556 137.598C380.752 137.598 381.718 137.276 382.546 136.54C383.328 135.85 383.742 135.252 383.742 134.7C383.742 134.47 383.604 134.332 383.374 134.24C382.822 134.24 382.5 134.194 382.316 134.148C382.132 134.102 381.902 133.964 381.534 133.78C381.166 133.596 380.936 133.228 380.798 132.722C380.66 132.216 380.614 131.526 380.614 130.652V114.184C380.614 114.046 380.522 113.954 380.384 113.954C379.74 113.77 378.912 113.678 377.992 113.678C377.348 113.678 376.658 113.77 375.876 113.954C375.738 114 375.692 114.092 375.692 114.184V123.292H366.492V117.864C366.492 116.484 366.124 115.426 365.434 114.644C364.744 113.862 363.778 113.448 362.582 113.448C361.386 113.448 360.374 113.816 359.592 114.506C358.81 115.196 358.442 115.794 358.442 116.3C358.442 116.576 358.534 116.76 358.764 116.76C359.178 116.806 359.454 116.852 359.592 116.852C359.684 116.852 359.914 116.944 360.282 117.036C360.604 117.174 360.834 117.358 360.972 117.542C361.064 117.772 361.202 118.14 361.34 118.6C361.432 119.06 361.524 119.658 361.524 120.302C361.524 126.052 361.478 131.572 361.432 136.816C361.432 137 361.478 137.046 361.662 137.046C362.306 137.23 363.134 137.322 364.1 137.322C364.744 137.322 365.434 137.23 366.262 137.046C366.4 137.046 366.492 137 366.492 136.816V126.42H375.692V133.09ZM407.709 114.184C407.709 114.046 407.617 113.954 407.479 113.954C406.881 113.816 406.145 113.724 405.225 113.724C404.397 113.724 403.615 113.816 402.971 113.954C402.787 114.046 402.741 114.138 402.741 114.184V123.062C402.741 126.052 402.097 128.582 400.855 130.698C399.567 132.814 398.187 133.918 396.669 133.964C395.657 134.056 394.875 133.688 394.231 132.952C393.587 132.216 393.311 130.928 393.311 129.134V117.956C393.311 116.576 392.943 115.472 392.253 114.644C391.563 113.862 390.597 113.448 389.355 113.448C388.159 113.448 387.147 113.816 386.365 114.506C385.583 115.242 385.215 115.84 385.215 116.346C385.215 116.668 385.307 116.806 385.537 116.806C386.043 116.852 386.365 116.898 386.549 116.944C386.733 116.99 387.009 117.082 387.377 117.266C387.745 117.45 387.975 117.818 388.113 118.324C388.251 118.83 388.343 119.474 388.343 120.302V130.238C388.343 132.722 388.895 134.562 389.999 135.804C391.103 137.046 392.713 137.644 394.737 137.552C396.393 137.506 397.911 136.954 399.383 135.85C400.855 134.746 401.959 133.274 402.695 131.342H402.787V137.552C402.787 139.99 402.143 141.922 400.947 143.348C399.751 144.82 398.003 145.51 395.749 145.51C394.323 145.51 393.081 145.28 391.977 144.82C390.873 144.36 389.999 143.854 389.401 143.394C388.757 142.934 388.343 142.658 388.159 142.658C387.883 142.658 387.791 142.796 387.791 143.072C387.791 144.13 388.619 145.372 390.321 146.752C392.023 148.178 394.277 148.868 397.129 148.868C400.441 148.868 403.017 147.856 404.903 145.74C406.743 143.67 407.709 140.772 407.709 137.046V114.184ZM439.257 133.09C439.257 134.516 439.579 135.62 440.269 136.402C440.913 137.23 441.879 137.598 443.121 137.598C444.317 137.598 445.283 137.276 446.111 136.54C446.893 135.85 447.307 135.252 447.307 134.7C447.307 134.47 447.169 134.332 446.939 134.24C446.387 134.24 446.065 134.194 445.881 134.148C445.697 134.102 445.467 133.964 445.099 133.78C444.731 133.596 444.501 133.228 444.363 132.722C444.225 132.216 444.179 131.526 444.179 130.652V114.184C444.179 114.046 444.087 113.954 443.949 113.954C443.305 113.77 442.477 113.678 441.557 113.678C440.913 113.678 440.223 113.77 439.441 113.954C439.303 114 439.257 114.092 439.257 114.184V123.292H430.057V117.864C430.057 116.484 429.689 115.426 428.999 114.644C428.309 113.862 427.343 113.448 426.147 113.448C424.951 113.448 423.939 113.816 423.157 114.506C422.375 115.196 422.007 115.794 422.007 116.3C422.007 116.576 422.099 116.76 422.329 116.76C422.743 116.806 423.019 116.852 423.157 116.852C423.249 116.852 423.479 116.944 423.847 117.036C424.169 117.174 424.399 117.358 424.537 117.542C424.629 117.772 424.767 118.14 424.905 118.6C424.997 119.06 425.089 119.658 425.089 120.302C425.089 126.052 425.043 131.572 424.997 136.816C424.997 137 425.043 137.046 425.227 137.046C425.871 137.23 426.699 137.322 427.665 137.322C428.309 137.322 428.999 137.23 429.827 137.046C429.965 137.046 430.057 137 430.057 136.816V126.42H439.257V133.09ZM460.154 116.346C461.488 116.346 462.546 116.76 463.328 117.496C464.064 118.278 464.478 119.198 464.478 120.21C464.478 121.774 463.88 122.924 462.684 123.66C461.488 124.442 459.97 124.81 458.222 124.81C456.75 124.81 455.416 124.626 454.174 124.35C454.266 122.096 454.91 120.21 456.014 118.646C457.118 117.128 458.498 116.346 460.154 116.346ZM469.492 130.882C469.308 130.882 468.894 131.158 468.25 131.664C467.606 132.17 466.686 132.676 465.536 133.182C464.386 133.688 463.098 133.918 461.672 133.918C459.556 133.918 457.854 133.274 456.52 131.986C455.14 130.698 454.404 128.996 454.266 126.834C454.358 126.926 454.68 127.018 455.186 127.11C455.692 127.202 456.428 127.34 457.348 127.478C458.268 127.616 459.142 127.662 459.97 127.662C462.408 127.662 464.57 127.064 466.502 125.822C468.434 124.58 469.4 122.694 469.4 120.164C469.4 118.37 468.572 116.806 467.008 115.426C465.444 114.046 463.236 113.402 460.384 113.448C457.164 113.54 454.542 114.69 452.426 116.898C450.31 119.152 449.252 122.096 449.252 125.684C449.252 129.318 450.264 132.216 452.334 134.332C454.358 136.494 457.026 137.552 460.338 137.552C461.856 137.552 463.236 137.322 464.524 136.77C465.812 136.264 466.778 135.666 467.514 134.93C468.25 134.194 468.802 133.504 469.216 132.86C469.584 132.216 469.814 131.664 469.814 131.296C469.814 131.02 469.676 130.882 469.492 130.882ZM513.041 131.296C512.857 131.296 512.535 131.526 512.075 131.94C511.615 132.4 510.971 132.814 510.189 133.228C509.361 133.688 508.533 133.872 507.613 133.872C503.841 133.872 502.001 130.836 502.001 124.718C502.001 122.372 502.323 120.394 503.059 118.83C503.749 117.266 504.715 116.438 505.957 116.438C507.751 116.438 508.671 117.818 508.671 120.486C508.671 120.762 508.625 120.992 508.625 121.268C508.579 121.544 508.533 121.82 508.487 122.096C508.441 122.372 508.441 122.51 508.441 122.602C508.441 122.786 508.579 122.924 508.947 123.108C509.269 123.292 509.637 123.338 510.051 123.338C510.879 123.338 511.523 123.016 512.029 122.326C512.489 121.682 512.719 120.808 512.673 119.75C512.581 118.094 512.029 116.576 510.925 115.288C509.821 114 508.211 113.402 506.187 113.402C504.163 113.448 502.415 114.368 500.851 116.116C499.287 117.91 498.275 120.394 497.861 123.614H495.009L495.101 114.184C495.101 114.046 495.009 113.954 494.871 113.954C494.227 113.77 493.399 113.678 492.479 113.678C491.835 113.678 491.099 113.77 490.317 113.954C490.179 114 490.133 114.092 490.133 114.184L490.179 123.614H487.419C487.235 120.394 486.499 117.91 485.119 116.116C483.739 114.322 481.899 113.402 479.691 113.402C477.437 113.402 475.643 114.138 474.263 115.564C472.883 117.036 472.193 118.232 472.193 119.244C472.193 119.566 472.331 119.704 472.607 119.704C472.745 119.704 473.021 119.52 473.481 119.06C473.941 118.646 474.539 118.232 475.321 117.772C476.057 117.358 476.931 117.128 477.851 117.128C481.393 117.128 483.187 120.21 483.187 126.282C483.187 128.674 482.773 130.652 482.037 132.216C481.301 133.78 480.289 134.562 479.001 134.562C478.035 134.562 477.299 134.194 476.839 133.412C476.333 132.63 476.103 131.664 476.103 130.468C476.103 130.192 476.103 129.778 476.195 129.272C476.241 128.812 476.287 128.49 476.287 128.398C476.287 128.26 476.149 128.122 475.827 127.938C475.459 127.754 475.091 127.662 474.677 127.662C473.849 127.662 473.205 128.03 472.745 128.674C472.285 129.364 472.055 130.238 472.147 131.25C472.193 132.952 472.791 134.424 473.941 135.712C475.091 137 476.701 137.644 478.817 137.598C480.887 137.598 482.727 136.632 484.383 134.7C486.039 132.768 487.005 130.054 487.373 126.466H490.179L490.133 136.862C490.133 136.954 490.179 137.046 490.317 137.092C490.869 137.276 491.697 137.322 492.755 137.322C493.491 137.322 494.181 137.276 494.871 137.092C495.009 137.046 495.101 136.954 495.101 136.862L495.009 126.466H497.677C497.723 129.824 498.459 132.538 499.885 134.562C501.311 136.586 503.289 137.598 505.773 137.598C507.981 137.598 509.821 136.908 511.247 135.436C512.627 134.01 513.363 132.768 513.363 131.756C513.363 131.48 513.225 131.296 513.041 131.296ZM532.38 133.09C532.38 134.516 532.702 135.62 533.392 136.402C534.036 137.23 535.002 137.598 536.244 137.598C537.44 137.598 538.406 137.276 539.234 136.54C540.016 135.85 540.43 135.252 540.43 134.7C540.43 134.47 540.292 134.332 540.062 134.24C539.51 134.24 539.188 134.194 539.004 134.148C538.82 134.102 538.59 133.964 538.222 133.78C537.854 133.596 537.624 133.228 537.486 132.722C537.348 132.216 537.302 131.526 537.302 130.652V114.184C537.302 114.046 537.21 113.954 537.072 113.954C536.428 113.77 535.6 113.678 534.68 113.678C534.036 113.678 533.346 113.77 532.564 113.954C532.426 114 532.38 114.092 532.38 114.184V123.292H523.18V117.864C523.18 116.484 522.812 115.426 522.122 114.644C521.432 113.862 520.466 113.448 519.27 113.448C518.074 113.448 517.062 113.816 516.28 114.506C515.498 115.196 515.13 115.794 515.13 116.3C515.13 116.576 515.222 116.76 515.452 116.76C515.866 116.806 516.142 116.852 516.28 116.852C516.372 116.852 516.602 116.944 516.97 117.036C517.292 117.174 517.522 117.358 517.66 117.542C517.752 117.772 517.89 118.14 518.028 118.6C518.12 119.06 518.212 119.658 518.212 120.302C518.212 126.052 518.166 131.572 518.12 136.816C518.12 137 518.166 137.046 518.35 137.046C518.994 137.23 519.822 137.322 520.788 137.322C521.432 137.322 522.122 137.23 522.95 137.046C523.088 137.046 523.18 137 523.18 136.816V126.42H532.38V133.09ZM553.645 113.402C550.379 113.402 547.665 114.598 545.549 116.898C543.433 119.198 542.375 122.05 542.375 125.454C542.375 129.226 543.433 132.216 545.549 134.378C547.665 136.586 550.333 137.644 553.645 137.644C557.095 137.644 559.855 136.494 561.879 134.148C563.903 131.802 564.961 128.858 564.961 125.362C564.961 121.774 563.903 118.922 561.833 116.714C559.763 114.506 557.049 113.402 553.645 113.402ZM553.829 134.562C551.989 134.562 550.471 133.78 549.229 132.124C547.941 130.468 547.343 128.214 547.343 125.27C547.343 122.648 547.941 120.532 549.137 118.876C550.333 117.266 551.805 116.438 553.645 116.438C555.715 116.438 557.279 117.358 558.383 119.152C559.441 120.946 559.993 123.108 559.993 125.684C559.993 128.352 559.441 130.468 558.337 132.124C557.233 133.78 555.715 134.562 553.829 134.562ZM587.982 120.44C587.982 118.646 587.2 117.036 585.636 115.61C584.072 114.184 582.048 113.448 579.472 113.448C576.298 113.448 573.63 114.598 571.514 116.898C569.398 119.198 568.34 122.142 568.34 125.684C568.34 129.272 569.306 132.124 571.33 134.286C573.308 136.494 575.976 137.552 579.288 137.552C580.76 137.552 582.186 137.322 583.474 136.77C584.762 136.264 585.728 135.666 586.464 134.93C587.2 134.194 587.752 133.504 588.166 132.86C588.58 132.216 588.81 131.71 588.81 131.342C588.81 131.066 588.672 130.928 588.442 130.928C588.212 130.928 587.798 131.204 587.154 131.664C586.51 132.17 585.636 132.676 584.532 133.136C583.428 133.596 582.278 133.826 580.99 133.826C578.506 133.826 576.62 133.044 575.286 131.388C573.906 129.732 573.262 127.616 573.262 125.04C573.262 122.602 573.814 120.532 575.01 118.83C576.16 117.128 577.586 116.254 579.288 116.254C580.484 116.254 581.45 116.714 582.186 117.588C582.876 118.508 583.244 119.566 583.244 120.808C583.244 121.176 583.198 121.59 583.106 122.05C583.014 122.556 583.014 122.832 583.014 122.924C583.014 123.2 583.198 123.43 583.612 123.66C583.98 123.89 584.486 123.982 585.038 123.982C585.958 123.982 586.648 123.66 587.2 122.97C587.706 122.326 587.982 121.452 587.982 120.44ZM628.411 134.24C627.859 134.24 627.537 134.194 627.353 134.148C627.169 134.102 626.939 133.964 626.571 133.78C626.203 133.596 625.973 133.228 625.835 132.722C625.697 132.216 625.651 131.526 625.651 130.652V120.716C625.651 118.324 625.053 116.484 623.949 115.242C622.799 114 621.235 113.402 619.257 113.448C617.601 113.494 616.175 114.092 614.979 115.196C613.783 116.3 612.817 117.772 612.127 119.566H611.989C611.805 117.542 611.207 116.024 610.103 114.966C608.999 113.908 607.527 113.402 605.687 113.448C602.467 113.54 600.121 115.656 598.603 119.704H598.465C598.465 118.692 598.419 117.91 598.419 117.358C598.189 114.782 596.947 113.448 594.693 113.448C593.497 113.448 592.485 113.816 591.703 114.506C590.921 115.196 590.553 115.794 590.553 116.3C590.553 116.576 590.645 116.76 590.875 116.76C591.335 116.806 591.703 116.852 591.887 116.898C592.071 116.944 592.301 117.036 592.669 117.22C593.037 117.404 593.267 117.772 593.405 118.232C593.543 118.692 593.635 119.336 593.635 120.118C593.635 125.868 593.589 131.434 593.543 136.816C593.543 137 593.589 137.046 593.773 137.046C594.417 137.23 595.199 137.322 596.119 137.322C596.763 137.322 597.499 137.23 598.327 137.046C598.465 137.046 598.557 137 598.557 136.816V128.076C598.557 125.224 599.109 122.694 600.213 120.486C601.317 118.278 602.559 117.128 603.939 117.036C604.905 116.99 605.687 117.358 606.285 118.094C606.837 118.83 607.159 120.118 607.159 121.912V136.816C607.159 137 607.205 137.046 607.389 137.046C608.033 137.23 608.815 137.322 609.643 137.322C610.287 137.322 611.023 137.23 611.851 137.046C611.989 137.046 612.081 137 612.081 136.816V128.168C612.081 125.408 612.633 122.878 613.737 120.578C614.841 118.324 616.129 117.128 617.509 117.036C618.521 116.99 619.303 117.358 619.855 118.094C620.407 118.83 620.729 120.118 620.729 121.912V133.09C620.729 134.516 621.051 135.62 621.741 136.402C622.385 137.23 623.351 137.598 624.593 137.598C625.789 137.598 626.755 137.276 627.583 136.54C628.365 135.85 628.779 135.252 628.779 134.7C628.779 134.47 628.641 134.332 628.411 134.24ZM652.758 114.184C652.758 114.046 652.666 113.954 652.574 113.954C651.93 113.816 651.194 113.724 650.274 113.724C649.446 113.724 648.664 113.816 648.02 113.954C647.836 114.046 647.79 114.138 647.79 114.184V123.062C647.79 126.052 647.146 128.582 645.904 130.698C644.616 132.814 643.236 133.918 641.718 133.964C640.706 134.056 639.924 133.688 639.28 132.952C638.636 132.216 638.36 130.928 638.36 129.134V117.956C638.36 116.576 637.992 115.472 637.302 114.644C636.612 113.862 635.646 113.448 634.404 113.448C633.208 113.448 632.196 113.816 631.414 114.506C630.632 115.242 630.264 115.84 630.264 116.346C630.264 116.668 630.356 116.806 630.586 116.806C631.092 116.852 631.414 116.898 631.598 116.944C631.782 116.99 632.058 117.082 632.426 117.266C632.794 117.45 633.024 117.818 633.162 118.324C633.3 118.83 633.392 119.474 633.392 120.302V130.33C633.392 132.768 633.944 134.608 635.048 135.804C636.152 137.046 637.762 137.644 639.786 137.552C641.442 137.506 643.006 136.908 644.478 135.804C645.95 134.7 647.054 133.182 647.79 131.296H647.882C647.882 131.572 647.882 131.94 647.882 132.446C647.882 132.998 647.928 133.366 647.928 133.642C648.158 136.31 649.4 137.598 651.654 137.598C652.85 137.598 653.816 137.276 654.644 136.54C655.426 135.85 655.84 135.252 655.84 134.7C655.84 134.47 655.702 134.332 655.472 134.24C654.966 134.24 654.644 134.194 654.46 134.148C654.276 134.102 654 133.964 653.678 133.78C653.31 133.596 653.08 133.274 652.942 132.814C652.804 132.354 652.758 131.71 652.758 130.882V114.184Z" fill="#C70E25"/>
<path d="M1078 76.7341C1078.01 69.9121 1080.8 63.3737 1085.76 58.5505C1090.71 53.7273 1097.42 51.0123 1104.42 51H1165.42V64.081H1104.44C1101 64.0954 1097.7 65.4328 1095.27 67.8024C1092.83 70.172 1091.46 73.382 1091.44 76.7341L1091.36 98.6942C1091.08 101.508 1089.86 104.152 1087.87 106.215C1085.89 108.277 1083.26 109.641 1080.4 110.094L1078 110.452V76.7341Z" fill="#C70E25"/>
<path d="M1078 136V122.919H1139C1142.44 122.902 1145.74 121.563 1148.17 119.192C1150.6 116.821 1151.98 113.611 1151.99 110.258V89.4185C1152.01 86.3951 1153.13 83.4759 1155.15 81.1824C1157.17 78.8888 1159.97 77.3702 1163.03 76.8977L1165.43 76.5475V110.258C1165.41 117.081 1162.63 123.62 1157.67 128.444C1152.72 133.269 1146.01 135.985 1139.01 136H1078Z" fill="#C70E25"/>
<path d="M1129.68 110.499V93.5896L1121.72 102.842L1113.77 93.5896V110.499H1103.24V77.2247H1113.21L1121.72 87.9245L1130.23 77.2247H1140.2V110.499H1129.68Z" fill="#C70E25"/>
<path d="M240.8 228H245V222.696H247.928C251.264 222.696 253.52 220.2 253.52 216.744C253.52 213.288 251.264 210.84 247.928 210.84H240.8V228ZM245 219.096V214.44H247.136C248.528 214.44 249.248 215.376 249.248 216.744C249.248 218.112 248.528 219.096 247.064 219.096H245ZM255.8 228H266.888V224.4H260V221.16H265.232V217.56H260V214.44H266.552V210.84H255.8V228ZM269.628 228H273.828V214.44H280.14V210.84H269.628V228ZM282.191 228H286.415L291.191 220.008C291.863 218.88 292.631 217.08 292.631 217.08H292.679C292.679 217.08 292.487 218.928 292.487 220.008V228H296.687V210.84H292.439L287.687 218.856C287.015 219.984 286.247 221.784 286.247 221.784H286.199C286.199 221.784 286.391 219.936 286.391 218.856V210.84H282.191V228ZM299.372 219.384C299.372 224.472 302.852 228.288 308.372 228.288C311.516 228.288 313.772 226.968 315.284 225.408L313.124 222.336C311.948 223.512 310.268 224.448 308.564 224.448C305.252 224.448 303.716 221.832 303.716 219.288C303.716 216.816 305.132 214.392 308.564 214.392C310.1 214.392 311.756 215.184 312.86 216.144L314.804 212.976C313.124 211.32 310.676 210.552 308.372 210.552C303.068 210.552 299.372 214.392 299.372 219.384ZM321.137 228H325.337V214.44H330.545V210.84H315.929V214.44H321.137V228ZM332.652 228H336.852V222.696H339.78C343.116 222.696 345.372 220.2 345.372 216.744C345.372 213.288 343.116 210.84 339.78 210.84H332.652V228ZM336.852 219.096V214.44H338.988C340.38 214.44 341.1 215.376 341.1 216.744C341.1 218.112 340.38 219.096 338.916 219.096H336.852ZM347.652 228H351.876L356.652 220.008C357.324 218.88 358.092 217.08 358.092 217.08H358.14C358.14 217.08 357.948 218.928 357.948 220.008V228H362.148V210.84H357.9L353.148 218.856C352.476 219.984 351.708 221.784 351.708 221.784H351.66C351.66 221.784 351.852 219.936 351.852 218.856V210.84H347.652V228ZM365.745 228H369.945V222.696H372.873C376.209 222.696 378.465 220.2 378.465 216.744C378.465 213.288 376.209 210.84 372.873 210.84H365.745V228ZM369.945 219.096V214.44H372.081C373.473 214.44 374.193 215.376 374.193 216.744C374.193 218.112 373.473 219.096 372.009 219.096H369.945ZM380.124 226.992C381.324 227.832 382.524 228.288 384.036 228.288C387.06 228.288 388.38 225.72 389.172 223.704L394.236 210.84H389.82L387.708 217.032C387.3 218.232 387.036 219.312 387.036 219.312H386.988C386.988 219.312 386.628 218.232 386.052 217.008L383.196 210.84H378.588L385.212 223.824C384.972 224.4 384.516 224.712 383.844 224.712C383.052 224.712 382.404 224.232 381.948 223.848L380.124 226.992ZM403.257 210.072C405.681 210.072 407.793 208.752 407.793 206.4V206.136H404.745V206.424C404.745 207.408 403.953 207.84 403.257 207.84C402.537 207.84 401.769 207.408 401.769 206.424V206.136H398.697V206.4C398.697 208.752 400.809 210.072 403.257 210.072ZM395.769 228H399.993L404.769 220.008C405.441 218.88 406.209 217.08 406.209 217.08H406.257C406.257 217.08 406.065 218.928 406.065 220.008V228H410.265V210.84H406.017L401.265 218.856C400.593 219.984 399.825 221.784 399.825 221.784H399.777C399.777 221.784 399.969 219.936 399.969 218.856V210.84H395.769V228ZM242.834 246.832C243.734 246.832 244.724 246.526 245.3 246.166H245.336C245.336 246.166 245.318 246.454 245.318 246.706V250H247.064V240.892H245.318V244.672C244.94 244.942 244.202 245.32 243.302 245.32C241.808 245.32 241.484 244.51 241.484 243.61V240.892H239.774V243.862C239.774 245.806 240.89 246.832 242.834 246.832ZM249.178 245.446C249.178 248.146 251.158 250.216 254.02 250.216C255.28 250.216 256.666 249.73 257.548 248.92L256.81 247.642C256.09 248.29 255.1 248.704 254.128 248.704C252.49 248.704 251.086 247.642 250.996 245.68H257.62C257.656 245.428 257.692 245.176 257.692 244.942C257.692 242.602 256.324 240.676 253.75 240.676C251.158 240.676 249.178 242.548 249.178 245.446ZM251.05 244.42C251.302 242.908 252.364 242.026 253.714 242.026C254.902 242.026 255.874 242.854 255.928 244.42H251.05ZM259.791 250H261.537V246.058H262.851L265.569 250H267.639L264.237 245.266V245.23L267.279 240.892H265.299L262.815 244.564H261.537V240.892H259.791V250ZM273.696 250H275.442V246.094H280.05V250H281.796V240.892H280.05V244.6H275.442V240.892H273.696V250ZM283.733 247.516C283.733 249.226 285.191 250.216 286.775 250.216C288.125 250.216 289.241 249.406 289.763 248.362H289.799C289.799 248.362 289.745 248.668 289.745 249.082V250H291.383V244.24C291.383 241.936 290.069 240.676 287.783 240.676C286.505 240.676 285.119 241.144 284.381 241.756L285.083 243.034C285.821 242.512 286.739 242.152 287.639 242.152C288.773 242.152 289.637 242.656 289.637 244.15V244.33H289.169C287.279 244.33 283.733 244.654 283.733 247.516ZM285.479 247.372C285.479 245.698 287.891 245.59 289.187 245.59H289.637V245.932C289.637 247.282 288.719 248.83 287.189 248.83C286.055 248.83 285.479 248.092 285.479 247.372ZM298.463 253.6H300.209V249.46C300.209 248.992 300.137 248.668 300.137 248.668H300.173C300.803 249.64 301.847 250.216 302.999 250.216C305.393 250.216 307.121 248.344 307.121 245.446C307.121 242.62 305.591 240.676 303.125 240.676C301.793 240.676 300.641 241.288 300.065 242.386H300.029C300.029 242.386 300.083 242.08 300.083 241.702V240.892H298.463V253.6ZM300.155 245.482C300.155 243.178 301.415 242.206 302.783 242.206C304.295 242.206 305.357 243.484 305.357 245.464C305.357 247.534 304.169 248.704 302.729 248.704C301.055 248.704 300.155 247.102 300.155 245.482ZM309.274 250H311.02V246.22C311.02 244.456 311.848 242.512 313.81 242.512C313.99 242.512 314.242 242.53 314.314 242.548V240.82C314.17 240.802 314.008 240.784 313.846 240.784C312.442 240.784 311.38 241.882 310.948 243.196H310.912C310.912 243.196 310.966 242.908 310.966 242.53V240.892H309.274V250ZM315.166 245.428C315.166 248.2 317.362 250.216 320.08 250.216C322.78 250.216 324.976 248.2 324.976 245.428C324.976 242.674 322.78 240.676 320.062 240.676C317.362 240.676 315.166 242.674 315.166 245.428ZM316.948 245.428C316.948 243.538 318.352 242.188 320.08 242.188C321.79 242.188 323.212 243.538 323.212 245.428C323.212 247.336 321.79 248.704 320.08 248.704C318.352 248.704 316.948 247.336 316.948 245.428ZM327.08 250H328.826V245.752C328.826 244.06 329.834 242.26 331.562 242.26C332.948 242.26 333.128 243.358 333.128 244.546V250H334.874V245.752C334.874 244.006 335.882 242.26 337.574 242.26C338.924 242.26 339.176 243.268 339.176 244.546V250H340.922V244.168C340.922 241.846 339.986 240.676 337.916 240.676C336.44 240.676 335.18 241.684 334.676 242.746H334.64C334.334 241.378 333.452 240.676 331.922 240.676C330.482 240.676 329.186 241.756 328.754 242.818H328.718C328.718 242.818 328.772 242.512 328.772 242.134V240.892H327.08V250ZM342.94 245.428C342.94 248.2 345.136 250.216 347.854 250.216C350.554 250.216 352.75 248.2 352.75 245.428C352.75 242.674 350.554 240.676 347.836 240.676C345.136 240.676 342.94 242.674 342.94 245.428ZM344.722 245.428C344.722 243.538 346.126 242.188 347.854 242.188C349.564 242.188 350.986 243.538 350.986 245.428C350.986 247.336 349.564 248.704 347.854 248.704C346.126 248.704 344.722 247.336 344.722 245.428ZM354.764 250H356.636V248.11H354.764V250ZM359.248 250H360.994V245.752C360.994 244.06 362.002 242.26 363.73 242.26C365.116 242.26 365.296 243.358 365.296 244.546V250H367.042V245.752C367.042 244.006 368.05 242.26 369.742 242.26C371.092 242.26 371.344 243.268 371.344 244.546V250H373.09V244.168C373.09 241.846 372.154 240.676 370.084 240.676C368.608 240.676 367.348 241.684 366.844 242.746H366.808C366.502 241.378 365.62 240.676 364.09 240.676C362.65 240.676 361.354 241.756 360.922 242.818H360.886C360.886 242.818 360.94 242.512 360.94 242.134V240.892H359.248V250ZM375.666 239.056H377.466V237.292H375.666V239.056ZM375.702 250H377.448V240.892H375.702V250ZM380.131 247.498C380.131 249.802 381.571 250.09 382.579 250.09C382.831 250.09 383.029 250.054 383.155 250.036V248.488C383.047 248.506 382.921 248.506 382.849 248.506C382.309 248.506 381.859 248.29 381.859 247.21V237.292H380.131V247.498ZM384.93 250H386.676V245.734H388.008L390.726 250H392.76L389.394 244.942V244.906L392.418 240.892H390.438L387.972 244.24H386.676V237.292H384.93V250ZM393.49 247.516C393.49 249.226 394.948 250.216 396.532 250.216C397.882 250.216 398.998 249.406 399.52 248.362H399.556C399.556 248.362 399.502 248.668 399.502 249.082V250H401.14V244.24C401.14 241.936 399.826 240.676 397.54 240.676C396.262 240.676 394.876 241.144 394.138 241.756L394.84 243.034C395.578 242.512 396.496 242.152 397.396 242.152C398.53 242.152 399.394 242.656 399.394 244.15V244.33H398.926C397.036 244.33 393.49 244.654 393.49 247.516ZM395.236 247.372C395.236 245.698 397.648 245.59 398.944 245.59H399.394V245.932C399.394 247.282 398.476 248.83 396.946 248.83C395.812 248.83 395.236 248.092 395.236 247.372ZM403.649 250H405.521V248.11H403.649V250ZM408.133 250H409.879V246.22C409.879 244.456 410.707 242.512 412.669 242.512C412.849 242.512 413.101 242.53 413.173 242.548V240.82C413.029 240.802 412.867 240.784 412.705 240.784C411.301 240.784 410.239 241.882 409.807 243.196H409.771C409.771 243.196 409.825 242.908 409.825 242.53V240.892H408.133V250ZM414.793 246.724C414.793 249.136 415.855 250.216 417.907 250.216C419.689 250.216 420.895 248.974 421.291 248.074H421.327C421.327 248.074 421.255 248.38 421.255 248.74V250H422.947V240.892H421.219V245.158C421.219 246.958 420.121 248.596 418.249 248.596C416.809 248.596 416.539 247.588 416.539 246.328V240.892H414.793V246.724Z" fill="white"/>
<circle cx="177" cy="228" r="32" fill="white"/>
<path d="M178.703 216.97C178.703 216.646 178.703 216.97 178.379 217.294C178.379 216.97 178.973 215.674 179.297 215.026C179.297 215.026 179.621 215.026 179.945 214.702C179.945 215.026 179.621 215.35 179.621 215.674C178.811 219.562 177.623 223.126 176.435 226.69C175.841 228.958 175.247 231.226 174.653 233.494C174.059 235.438 173.465 237.058 173.195 239.002C172.925 239.326 172.925 239.65 172.601 239.974C172.277 240.298 172.601 240.946 172.655 241.27C172.979 241.594 172.979 241.918 173.303 241.918C173.303 241.918 173.627 241.918 173.627 242.242C174.005 242.89 174.653 243.862 175.625 244.186C175.949 243.862 175.949 243.538 176.273 243.538C176.921 242.89 177.191 241.918 177.515 241.27C177.785 240.622 178.109 239.974 178.379 239.002C178.379 239.002 178.379 238.678 178.703 238.354C179.351 237.706 179.621 236.41 180.215 235.438C180.539 234.79 180.863 234.466 181.187 233.818C181.457 232.846 181.727 231.874 182.375 230.578C182.645 229.282 182.915 227.986 183.563 226.69C183.833 225.394 184.103 223.774 184.049 222.154C184.049 221.83 184.049 221.506 183.995 221.182C184.319 220.858 184.319 220.21 184.319 219.886C184.265 218.266 184.211 216.97 183.833 215.35C183.833 214.702 183.509 214.054 182.807 213.082L182.483 212.758C182.159 212.758 181.835 212.758 181.511 212.758C181.187 212.758 181.187 212.758 180.863 212.758C180.539 212.758 180.539 213.082 180.215 213.082C179.891 213.082 179.567 213.082 179.243 213.406C178.973 214.054 178.325 214.378 178.001 214.702C177.677 215.35 177.407 215.998 176.759 216.646C176.165 217.618 175.301 218.968 174.707 219.94C172.493 222.856 172.115 223.936 170.441 225.826C169.793 226.474 169.253 227.662 168.605 228.148C169.577 229.12 170.549 229.444 171.845 229.12C172.169 228.796 172.979 228.904 173.249 228.256C175.031 226.906 175.679 224.368 176.327 223.45C176.327 223.45 176.651 223.126 176.597 222.802C176.273 222.154 176.921 221.506 177.191 221.182C177.191 220.858 177.515 220.534 177.515 219.886C178.109 218.914 178.433 217.942 178.703 216.97Z" fill="#C70E25"/>
<path d="M800.8 228H807.112C810.52 228 813.64 226.632 813.64 222.888C813.64 221.376 812.92 219.624 810.952 219.024V218.976C812.248 218.232 812.944 216.768 812.944 215.328C812.944 212.376 810.544 210.84 807.112 210.84H800.8V228ZM805 217.488V214.44H807.088C808.216 214.44 808.672 215.112 808.672 215.904C808.672 216.72 808.216 217.488 807.16 217.488H805ZM805 224.4V220.848H807.544C808.768 220.848 809.344 221.64 809.344 222.6C809.344 223.56 808.744 224.4 807.52 224.4H805ZM830.739 228H834.939V210.84H830.739V228ZM816.339 228H823.227C826.563 228 828.819 225.552 828.819 222.096C828.819 218.64 826.563 216.144 823.227 216.144H820.539V210.84H816.339V228ZM820.539 224.4V219.744H822.363C823.827 219.744 824.547 220.728 824.547 222.096C824.547 223.464 823.827 224.4 822.435 224.4H820.539ZM838.534 228H842.758L847.534 220.008C848.206 218.88 848.974 217.08 848.974 217.08H849.022C849.022 217.08 848.83 218.928 848.83 220.008V228H853.03V210.84H848.782L844.03 218.856C843.358 219.984 842.59 221.784 842.59 221.784H842.542C842.542 221.784 842.734 219.936 842.734 218.856V210.84H838.534V228ZM856.628 228H860.828V214.44H867.14V210.84H856.628V228ZM869.191 228H873.391V222.696H876.319C879.655 222.696 881.911 220.2 881.911 216.744C881.911 213.288 879.655 210.84 876.319 210.84H869.191V228ZM873.391 219.096V214.44H875.527C876.919 214.44 877.639 215.376 877.639 216.744C877.639 218.112 876.919 219.096 875.455 219.096H873.391ZM881.498 228H885.818L886.85 224.4H892.202L893.258 228H897.578L891.746 210.84H887.33L881.498 228ZM887.834 221.04L888.818 217.704C889.13 216.624 889.514 214.752 889.514 214.752H889.562C889.562 214.752 889.946 216.624 890.258 217.704L891.218 221.04H887.834ZM906.796 210.072C909.22 210.072 911.332 208.752 911.332 206.4V206.136H908.284V206.424C908.284 207.408 907.492 207.84 906.796 207.84C906.076 207.84 905.308 207.408 905.308 206.424V206.136H902.236V206.4C902.236 208.752 904.348 210.072 906.796 210.072ZM899.308 228H903.532L908.308 220.008C908.98 218.88 909.748 217.08 909.748 217.08H909.796C909.796 217.08 909.604 218.928 909.604 220.008V228H913.804V210.84H909.556L904.804 218.856C904.132 219.984 903.364 221.784 903.364 221.784H903.316C903.316 221.784 903.508 219.936 903.508 218.856V210.84H899.308V228ZM929.402 228H933.602V221.04H935.33L938.954 228H943.658L938.762 219.096V219.048L943.394 210.84H938.882L935.33 217.464H933.602V210.84H929.402V228ZM945.093 226.992C946.293 227.832 947.493 228.288 949.005 228.288C952.029 228.288 953.349 225.72 954.141 223.704L959.205 210.84H954.789L952.677 217.032C952.269 218.232 952.005 219.312 952.005 219.312H951.957C951.957 219.312 951.597 218.232 951.021 217.008L948.165 210.84H943.557L950.181 223.824C949.941 224.4 949.485 224.712 948.813 224.712C948.021 224.712 947.373 224.232 946.917 223.848L945.093 226.992ZM960.738 228H964.938V214.416H971.034V228H975.234V210.84H960.738V228ZM977.895 219.312C977.895 224.352 981.687 228.288 986.871 228.288C992.055 228.288 995.847 224.352 995.847 219.312C995.847 214.392 992.055 210.552 986.871 210.552C981.687 210.552 977.895 214.392 977.895 219.312ZM982.239 219.312C982.239 216.504 984.303 214.392 986.871 214.392C989.439 214.392 991.503 216.504 991.503 219.312C991.503 222.24 989.439 224.448 986.871 224.448C984.303 224.448 982.239 222.24 982.239 219.312ZM998.519 228H1002.72V221.28H1008.96V228H1013.16V210.84H1008.96V217.704H1002.72V210.84H998.519V228ZM1031.15 228H1035.35V210.84H1031.15V228ZM1016.75 228H1023.64C1026.98 228 1029.23 225.552 1029.23 222.096C1029.23 218.64 1026.98 216.144 1023.64 216.144H1020.95V210.84H1016.75V228ZM1020.95 224.4V219.744H1022.78C1024.24 219.744 1024.96 220.728 1024.96 222.096C1024.96 223.464 1024.24 224.4 1022.85 224.4H1020.95ZM800.35 250H802.096V246.094H806.704V250H808.45V240.892H806.704V244.6H802.096V240.892H800.35V250ZM810.387 247.516C810.387 249.226 811.845 250.216 813.429 250.216C814.779 250.216 815.895 249.406 816.417 248.362H816.453C816.453 248.362 816.399 248.668 816.399 249.082V250H818.037V244.24C818.037 241.936 816.723 240.676 814.437 240.676C813.159 240.676 811.773 241.144 811.035 241.756L811.737 243.034C812.475 242.512 813.393 242.152 814.293 242.152C815.427 242.152 816.291 242.656 816.291 244.15V244.33H815.823C813.933 244.33 810.387 244.654 810.387 247.516ZM812.133 247.372C812.133 245.698 814.545 245.59 815.841 245.59H816.291V245.932C816.291 247.282 815.373 248.83 813.843 248.83C812.709 248.83 812.133 248.092 812.133 247.372ZM825.118 250H826.864V242.386H831.328V250H833.074V240.892H825.118V250ZM835.77 253.6H837.516V249.46C837.516 248.992 837.444 248.668 837.444 248.668H837.48C838.11 249.64 839.154 250.216 840.306 250.216C842.7 250.216 844.428 248.344 844.428 245.446C844.428 242.62 842.898 240.676 840.432 240.676C839.1 240.676 837.948 241.288 837.372 242.386H837.336C837.336 242.386 837.39 242.08 837.39 241.702V240.892H835.77V253.6ZM837.462 245.482C837.462 243.178 838.722 242.206 840.09 242.206C841.602 242.206 842.664 243.484 842.664 245.464C842.664 247.534 841.476 248.704 840.036 248.704C838.362 248.704 837.462 247.102 837.462 245.482ZM845.986 245.428C845.986 248.2 848.182 250.216 850.9 250.216C853.6 250.216 855.796 248.2 855.796 245.428C855.796 242.674 853.6 240.676 850.882 240.676C848.182 240.676 845.986 242.674 845.986 245.428ZM847.768 245.428C847.768 243.538 849.172 242.188 850.9 242.188C852.61 242.188 854.032 243.538 854.032 245.428C854.032 247.336 852.61 248.704 850.9 248.704C849.172 248.704 847.768 247.336 847.768 245.428ZM859.454 248.56C860.606 246.76 860.75 244.168 860.75 242.8V242.314H863.486V248.56H859.454ZM856.538 248.56V252.16H858.176V250H864.926V252.16H866.528V248.56H865.232V240.892H859.076V242.566C859.076 243.97 858.932 246.814 857.654 248.56H856.538ZM867.664 251.89L867.052 253.222C867.052 253.222 867.79 253.78 868.798 253.78C870.076 253.78 871.21 253.06 871.75 251.638L876.034 240.892H874.144L871.93 246.868C871.768 247.336 871.624 247.948 871.624 247.948H871.588C871.588 247.948 871.426 247.3 871.246 246.85L868.96 240.892H866.998L870.814 249.892L870.364 250.936C870.022 251.764 869.428 252.286 868.708 252.286C868.168 252.286 867.664 251.89 867.664 251.89ZM877.746 250H879.492V246.058H880.806L883.524 250H885.594L882.192 245.266V245.23L885.234 240.892H883.254L880.77 244.564H879.492V240.892H877.746V250ZM887.151 250H894.675V252.16H896.277V248.488H894.999V240.892H893.235V248.488H888.897V240.892H887.151V250ZM898.137 250H899.811L903.753 244.564C904.041 244.132 904.491 243.52 904.545 243.358H904.581C904.581 243.502 904.527 244.132 904.527 244.564V250H906.219V240.892H904.527L900.603 246.328C900.297 246.76 899.865 247.39 899.793 247.552H899.757C899.775 247.462 899.811 246.814 899.811 246.328V240.892H898.137V250ZM908.895 250H910.641V246.148H912.297C912.621 248.524 914.547 250.216 916.959 250.216C919.587 250.216 921.693 248.2 921.693 245.428C921.693 242.674 919.587 240.676 916.941 240.676C914.547 240.676 912.621 242.35 912.297 244.708H910.641V240.892H908.895V250ZM913.989 245.428C913.989 243.538 915.303 242.188 916.959 242.188C918.597 242.188 919.911 243.538 919.911 245.428C919.911 247.336 918.597 248.704 916.959 248.704C915.303 248.704 913.989 247.336 913.989 245.428ZM928.301 250H930.047V245.752C930.047 244.06 931.055 242.26 932.783 242.26C934.169 242.26 934.349 243.358 934.349 244.546V250H936.095V245.752C936.095 244.006 937.103 242.26 938.795 242.26C940.145 242.26 940.397 243.268 940.397 244.546V250H942.143V244.168C942.143 241.846 941.207 240.676 939.137 240.676C937.661 240.676 936.401 241.684 935.897 242.746H935.861C935.555 241.378 934.673 240.676 933.143 240.676C931.703 240.676 930.407 241.756 929.975 242.818H929.939C929.939 242.818 929.993 242.512 929.993 242.134V240.892H928.301V250ZM944.718 239.056H946.518V237.292H944.718V239.056ZM944.754 250H946.5V240.892H944.754V250ZM949.184 247.498C949.184 249.802 950.624 250.09 951.632 250.09C951.884 250.09 952.082 250.054 952.208 250.036V248.488C952.1 248.506 951.974 248.506 951.902 248.506C951.362 248.506 950.912 248.29 950.912 247.21V237.292H949.184V247.498ZM953.983 250H955.729V245.734H957.061L959.779 250H961.813L958.447 244.942V244.906L961.471 240.892H959.491L957.025 244.24H955.729V237.292H953.983V250ZM962.543 247.516C962.543 249.226 964.001 250.216 965.585 250.216C966.935 250.216 968.051 249.406 968.573 248.362H968.609C968.609 248.362 968.555 248.668 968.555 249.082V250H970.193V244.24C970.193 241.936 968.879 240.676 966.593 240.676C965.315 240.676 963.929 241.144 963.191 241.756L963.893 243.034C964.631 242.512 965.549 242.152 966.449 242.152C967.583 242.152 968.447 242.656 968.447 244.15V244.33H967.979C966.089 244.33 962.543 244.654 962.543 247.516ZM964.289 247.372C964.289 245.698 966.701 245.59 967.997 245.59H968.447V245.932C968.447 247.282 967.529 248.83 965.999 248.83C964.865 248.83 964.289 248.092 964.289 247.372Z" fill="white"/>
<circle cx="737" cy="228" r="32" fill="white"/>
<path d="M742.283 229.12C742.553 228.634 742.715 228.202 743.093 227.932C743.039 227.77 743.309 227.662 743.633 227.662C743.849 227.392 743.525 227.176 743.525 227.176C744.173 226.852 744.065 226.312 744.281 225.988C744.983 224.584 744.875 222.748 744.983 221.398C745.037 220.372 744.443 219.616 744.065 218.266C743.741 218.32 743.687 218.158 743.687 217.888C743.039 217.672 741.905 216.97 741.581 216.538C740.987 215.998 740.285 215.566 739.691 215.35C739.043 215.134 738.719 215.026 738.503 215.026C737.531 214.54 736.991 215.026 736.127 215.08C733.211 215.674 729.917 220.426 730.025 221.83C730.079 222.262 729.593 222.64 729.971 223.288C729.971 223.288 729.971 223.504 730.025 223.72C730.619 223.882 730.943 224.638 731.429 224.584C732.455 225.07 733.427 225.286 734.453 224.26C734.453 224.26 734.723 223.99 735.047 223.99C735.857 223.342 736.775 217.78 738.827 218.266C739.745 218.482 740.015 219.454 739.853 220.264C739.691 221.668 739.367 221.992 738.827 223.126C737.477 227.014 735.209 230.038 732.455 233.548C731.645 234.79 729.971 236.626 728.891 237.598C728.405 238.57 727.595 240.73 729.323 241.162C729.323 241.432 729.971 241.972 730.295 241.918C730.295 241.918 730.565 241.918 730.943 241.81C731.699 242.026 732.455 242.242 733.319 242.08C733.859 242.026 734.723 241.972 735.641 242.08C736.559 242.35 737.423 241.594 738.287 241.54C739.691 241.378 739.313 241.918 740.879 241.486C743.093 240.892 745.037 241.702 746.225 242.08C746.495 242.026 746.549 240.73 745.739 240.082C744.065 238.732 741.365 238.03 738.935 238.354C738.665 238.354 734.939 238.678 734.885 238.408C737.261 235.708 739.529 233.44 741.581 230.578C741.797 229.984 742.121 229.66 742.283 229.12Z" fill="#C70E25"/>
<defs>
<filter id="filter0_d" x="0" y="0" width="1233" height="312" filterUnits="userSpaceOnUse" color-interpolation-filters="sRGB">
<feFlood flood-opacity="0" result="BackgroundImageFix"/>
<feColorMatrix in="SourceAlpha" type="matrix" values="0 0 0 0 0 0 0 0 0 0 0 0 0 0 0 0 0 0 127 0"/>
<feOffset/>
<feGaussianBlur stdDeviation="7"/>
<feColorMatrix type="matrix" values="0 0 0 0 0.231373 0 0 0 0 0.172549 0 0 0 0 0.447059 0 0 0 0.7 0"/>
<feBlend mode="normal" in2="BackgroundImageFix" result="effect1_dropShadow"/>
<feBlend mode="normal" in="SourceGraphic" in2="effect1_dropShadow" result="shape"/>
</filter>
</defs>
</svg>
