<svg width="368" height="512" viewBox="0 0 368 512" fill="none" xmlns="http://www.w3.org/2000/svg">
<g filter="url(#filter0_d)">
<rect x="14" y="14" width="340" height="484" rx="20" fill="#C70E25"/>
</g>
<rect x="16" y="16" width="336" height="220" rx="18" fill="white" stroke="#C70E25" stroke-width="4"/>
<path d="M157 49.0628C157.009 44.8046 158.75 40.7235 161.841 37.7129C164.932 34.7023 169.121 33.0077 173.492 33H211.565V41.165H173.502C171.354 41.1739 169.297 42.0087 167.778 43.4878C166.259 44.9668 165.401 46.9705 165.39 49.0628L165.341 62.77C165.167 64.5261 164.401 66.1767 163.163 67.4642C161.924 68.7515 160.283 69.6029 158.496 69.8858L157 70.1092V49.0628Z" fill="#C70E25"/>
<path d="M157.001 86.0556V77.8904H195.075C197.223 77.8803 199.28 77.0443 200.799 75.5646C202.317 74.0846 203.176 72.0805 203.186 69.9879V56.9802C203.197 55.093 203.895 53.271 205.157 51.8393C206.419 50.4077 208.163 49.4598 210.076 49.1649L211.571 48.9464V69.9879C211.562 74.2466 209.822 78.3282 206.731 81.3395C203.64 84.3509 199.451 86.0464 195.08 86.0556H157.001Z" fill="#C70E25"/>
<path d="M189.255 70.1384V59.5837L184.289 65.359L179.329 59.5837V70.1384H172.753V49.369H178.98L184.289 56.0477L189.599 49.369H195.825V70.1384H189.255Z" fill="#C70E25"/>
<path d="M67.8446 181.251C69.8746 181.881 70.8896 183.029 70.8896 184.695C70.8896 185.535 70.6796 186.277 70.2596 186.921C69.8536 187.565 69.3076 188.069 68.6216 188.433C67.9496 188.783 67.2356 189.042 66.4796 189.21C65.7376 189.378 64.9746 189.462 64.1906 189.462C63.5606 189.462 62.9236 189.392 62.2796 189.252C61.6496 189.126 61.0196 188.93 60.3896 188.664C59.7736 188.384 59.2696 187.985 58.8776 187.467C58.4856 186.949 58.2896 186.347 58.2896 185.661C58.2896 184.947 58.5066 184.373 58.9406 183.939C59.3746 183.505 59.9626 183.288 60.7046 183.288C61.1246 183.288 61.5166 183.358 61.8806 183.498C62.2586 183.638 62.4616 183.778 62.4896 183.918C62.5036 184.016 62.5036 184.107 62.4896 184.191C62.4896 184.275 62.4826 184.415 62.4686 184.611C62.4546 184.793 62.4476 184.961 62.4476 185.115C62.4476 185.689 62.6016 186.165 62.9096 186.543C63.2316 186.921 63.6026 187.11 64.0226 187.11C64.8626 187.11 65.4646 186.725 65.8286 185.955C66.1786 185.213 66.1646 184.492 65.7866 183.792C65.3806 183.036 64.6596 182.658 63.6236 182.658H63.0776C63.0076 182.658 62.9726 182.609 62.9726 182.511V180.306C62.9866 180.25 63.0216 180.215 63.0776 180.201H64.0226C64.5826 180.201 65.0376 180.061 65.3876 179.781C65.7516 179.487 65.9616 179.137 66.0176 178.731C66.0736 178.325 66.0526 177.919 65.9546 177.513C65.8566 177.107 65.6396 176.764 65.3036 176.484C64.9816 176.19 64.5966 176.043 64.1486 176.043C63.6866 176.043 63.2806 176.218 62.9306 176.568C62.5806 176.904 62.4056 177.345 62.4056 177.891V179.088C62.3496 179.228 62.1536 179.375 61.8176 179.529C61.4816 179.669 61.1106 179.739 60.7046 179.739C59.9766 179.739 59.3886 179.515 58.9406 179.067C58.5066 178.619 58.2896 178.045 58.2896 177.345C58.2896 176.659 58.4856 176.057 58.8776 175.539C59.2696 175.007 59.7736 174.601 60.3896 174.321C61.0196 174.041 61.6496 173.838 62.2796 173.712C62.9236 173.572 63.5606 173.502 64.1906 173.502C64.9886 173.502 65.7516 173.579 66.4796 173.733C67.2076 173.873 67.9006 174.104 68.5586 174.426C69.2306 174.748 69.7556 175.224 70.1336 175.854C70.5116 176.47 70.6866 177.198 70.6586 178.038C70.5886 179.718 69.6506 180.789 67.8446 181.251ZM82.9041 184.779C82.9041 185.535 82.9741 186.144 83.1141 186.606C83.2681 187.054 83.4291 187.327 83.5971 187.425C83.7651 187.523 83.9051 187.614 84.0171 187.698C84.1291 187.768 84.1641 187.859 84.1221 187.971C84.0101 188.335 83.7021 188.678 83.1981 189C82.6941 189.308 82.1621 189.462 81.6021 189.462C80.8741 189.462 80.2511 189.252 79.7331 188.832C79.2151 188.398 78.8861 187.81 78.7461 187.068C77.9201 188.65 76.8141 189.441 75.4281 189.441C74.5881 189.441 73.8461 189.154 73.2021 188.58C72.5581 188.006 72.0821 187.292 71.7741 186.438C71.4661 185.584 71.3121 184.674 71.3121 183.708C71.3121 182.168 71.6901 180.838 72.4461 179.718C73.2021 178.584 74.2311 178.017 75.5331 178.017C76.8771 178.017 77.9201 178.682 78.6621 180.012V178.563C78.6621 178.493 78.6971 178.451 78.7671 178.437H82.9671C83.0231 178.451 83.0511 178.486 83.0511 178.542C82.9531 181.734 82.9041 183.813 82.9041 184.779ZM76.0581 185.745C76.3381 186.277 76.7231 186.543 77.2131 186.543C77.7031 186.543 78.0881 186.277 78.3681 185.745C78.6481 185.213 78.7881 184.534 78.7881 183.708C78.7881 182.882 78.6481 182.203 78.3681 181.671C78.0881 181.125 77.7031 180.852 77.2131 180.852C76.7231 180.852 76.3381 181.125 76.0581 181.671C75.7781 182.203 75.6381 182.882 75.6381 183.708C75.6381 184.534 75.7781 185.213 76.0581 185.745ZM95.445 178.437C95.445 178.479 95.466 178.507 95.508 178.521V188.874C95.508 188.93 95.48 188.965 95.424 188.979H91.371C91.315 188.979 91.287 188.944 91.287 188.874V180.369H88.935V188.874C88.921 188.93 88.886 188.965 88.83 188.979H84.777C84.721 188.979 84.693 188.944 84.693 188.874V178.521C84.707 178.479 84.735 178.451 84.777 178.437C86.331 178.129 88.102 177.975 90.09 177.975C92.092 177.961 93.877 178.115 95.445 178.437ZM107.822 187.467C107.892 189.329 107.416 190.834 106.394 191.982C105.386 193.13 103.93 193.704 102.026 193.704C101.088 193.704 100.248 193.508 99.506 193.116C98.778 192.738 98.253 192.346 97.931 191.94C97.623 191.548 97.413 191.184 97.301 190.848C97.203 190.526 97.147 190.267 97.133 190.071C97.119 189.889 97.14 189.77 97.196 189.714C97.252 189.672 97.322 189.658 97.406 189.672C97.504 189.686 97.644 189.777 97.826 189.945C98.022 190.127 98.225 190.316 98.435 190.512C98.659 190.722 98.988 190.904 99.422 191.058C99.856 191.226 100.339 191.31 100.871 191.31C101.669 191.31 102.313 191.044 102.803 190.512C103.293 189.994 103.552 189.392 103.58 188.706V186.606C103.188 187.446 102.677 188.062 102.047 188.454C101.431 188.846 100.808 189.042 100.178 189.042C99.38 189.042 98.701 188.72 98.141 188.076C97.581 187.432 97.301 186.599 97.301 185.577V182.721C97.301 182.105 97.245 181.594 97.133 181.188C97.021 180.768 96.888 180.481 96.734 180.327C96.594 180.159 96.447 180.033 96.293 179.949C96.153 179.865 96.048 179.802 95.978 179.76C95.894 179.704 95.866 179.627 95.894 179.529C96.02 179.165 96.335 178.829 96.839 178.521C97.343 178.199 97.875 178.038 98.435 178.038C99.317 178.038 100.052 178.332 100.64 178.92C101.228 179.494 101.522 180.264 101.522 181.23V184.884C101.522 185.64 101.732 186.046 102.152 186.102C102.53 186.158 102.866 185.913 103.16 185.367C103.398 184.933 103.524 184.408 103.538 183.792V178.563C103.538 178.507 103.566 178.472 103.622 178.458H107.675C107.731 178.458 107.759 178.493 107.759 178.563C107.801 182.637 107.822 185.605 107.822 187.467ZM114.704 180.747C114.718 180.677 114.732 180.614 114.746 180.558C114.774 180.502 114.788 180.467 114.788 180.453C114.69 180.397 114.564 180.369 114.41 180.369C113.878 180.369 113.465 180.719 113.171 181.419C112.891 182.105 112.793 182.868 112.877 183.708C112.947 184.422 113.129 185.017 113.423 185.493C113.731 185.955 114.102 186.27 114.536 186.438C114.97 186.606 115.446 186.683 115.964 186.669C116.496 186.655 117.007 186.571 117.497 186.417C118.001 186.249 118.477 186.032 118.925 185.766C119.037 185.682 119.135 185.675 119.219 185.745C119.289 185.815 119.31 185.927 119.282 186.081C119.212 186.347 119.058 186.655 118.82 187.005C118.596 187.341 118.295 187.705 117.917 188.097C117.539 188.475 117.035 188.79 116.405 189.042C115.789 189.308 115.124 189.441 114.41 189.441C112.814 189.441 111.456 188.881 110.336 187.761C109.23 186.641 108.677 185.29 108.677 183.708C108.677 182.168 109.202 180.852 110.252 179.76C111.316 178.654 112.646 178.066 114.242 177.996C115.488 177.968 116.475 178.164 117.203 178.584C118.407 178.304 119.828 178.143 121.466 178.101C123.118 178.059 124.371 178.08 125.225 178.164C126.079 178.234 126.772 178.304 127.304 178.374C127.416 178.388 127.486 178.458 127.514 178.584C127.556 178.752 127.577 178.955 127.577 179.193C127.591 179.837 127.388 180.334 126.968 180.684C126.548 181.034 126.107 181.237 125.645 181.293C125.183 181.349 124.721 181.342 124.259 181.272H124.238V184.737C124.238 185.493 124.308 186.102 124.448 186.564C124.602 187.012 124.763 187.285 124.931 187.383C125.099 187.481 125.239 187.572 125.351 187.656C125.477 187.726 125.519 187.817 125.477 187.929C125.351 188.293 125.029 188.636 124.511 188.958C124.007 189.266 123.475 189.42 122.915 189.42C122.061 189.42 121.361 189.133 120.815 188.559C120.269 187.971 119.996 187.194 119.996 186.228V181.083H118.862C118.736 181.643 118.456 182.112 118.022 182.49C117.588 182.854 117.112 183.036 116.594 183.036C115.992 183.036 115.488 182.805 115.082 182.343C114.69 181.881 114.564 181.349 114.704 180.747ZM139.464 184.779C139.464 185.535 139.534 186.144 139.674 186.606C139.828 187.054 139.989 187.327 140.157 187.425C140.325 187.523 140.465 187.614 140.577 187.698C140.703 187.768 140.745 187.859 140.703 187.971C140.577 188.335 140.262 188.678 139.758 189C139.254 189.308 138.722 189.462 138.162 189.462C137.434 189.462 136.811 189.252 136.293 188.832C135.775 188.398 135.446 187.803 135.306 187.047C134.9 187.873 134.389 188.482 133.773 188.874C133.157 189.266 132.534 189.462 131.904 189.462C131.106 189.462 130.427 189.14 129.867 188.496C129.307 187.852 129.027 187.019 129.027 185.997V182.721C129.027 182.105 128.971 181.594 128.859 181.188C128.747 180.768 128.614 180.481 128.46 180.327C128.32 180.159 128.173 180.033 128.019 179.949C127.879 179.865 127.774 179.802 127.704 179.76C127.62 179.704 127.592 179.627 127.62 179.529C127.746 179.165 128.061 178.829 128.565 178.521C129.069 178.199 129.601 178.038 130.161 178.038C131.043 178.038 131.778 178.332 132.366 178.92C132.968 179.494 133.269 180.264 133.269 181.23V185.304C133.269 186.06 133.479 186.466 133.899 186.522C134.263 186.578 134.592 186.333 134.886 185.787C135.11 185.381 135.229 184.898 135.243 184.338V178.563L135.327 178.437H139.548C139.604 178.451 139.632 178.486 139.632 178.542C139.52 181.734 139.464 183.813 139.464 184.779ZM154.883 182.721C155.569 182.931 156.101 183.267 156.479 183.729C156.871 184.191 157.067 184.751 157.067 185.409C157.067 186.697 156.542 187.691 155.492 188.391C154.442 189.091 153.168 189.441 151.67 189.441C150.746 189.441 149.934 189.294 149.234 189C148.534 188.72 147.988 188.349 147.596 187.887C147.218 187.425 146.938 186.942 146.756 186.438C146.574 185.92 146.483 185.402 146.483 184.884V184.842V184.758V178.542C146.483 178.472 146.511 178.437 146.567 178.437C147.897 178.115 149.493 177.954 151.355 177.954C151.957 177.954 152.524 178.003 153.056 178.101C153.602 178.185 154.12 178.325 154.61 178.521C155.114 178.717 155.513 179.011 155.807 179.403C156.101 179.781 156.248 180.229 156.248 180.747C156.248 181.237 156.108 181.657 155.828 182.007C155.562 182.357 155.247 182.595 154.883 182.721ZM152.447 181.272C152.447 180.572 152.027 180.222 151.187 180.222C150.991 180.222 150.837 180.243 150.725 180.285V182.385H151.124C152.006 182.385 152.447 182.014 152.447 181.272ZM151.838 187.026C152.23 187.026 152.538 186.886 152.762 186.606C152.986 186.326 153.098 185.955 153.098 185.493C153.098 185.101 152.944 184.8 152.636 184.59C152.342 184.38 151.957 184.275 151.481 184.275C151.117 184.275 150.865 184.282 150.725 184.296V185.577C150.781 186.543 151.152 187.026 151.838 187.026ZM169.246 183.771C169.246 185.381 168.693 186.739 167.587 187.845C166.481 188.937 165.074 189.483 163.366 189.483C161.686 189.483 160.286 188.93 159.166 187.824C158.046 186.718 157.486 185.367 157.486 183.771C157.486 182.175 158.046 180.824 159.166 179.718C160.286 178.612 161.686 178.059 163.366 178.059C165.046 178.059 166.446 178.612 167.566 179.718C168.686 180.824 169.246 182.175 169.246 183.771ZM161.623 183.771C161.623 184.723 161.77 185.521 162.064 186.165C162.358 186.795 162.792 187.11 163.366 187.11C163.968 187.11 164.409 186.802 164.689 186.186C164.969 185.57 165.109 184.765 165.109 183.771C165.109 182.805 164.962 182.007 164.668 181.377C164.374 180.747 163.94 180.432 163.366 180.432C162.778 180.432 162.337 180.747 162.043 181.377C161.763 181.993 161.623 182.791 161.623 183.771ZM180.587 178.521V188.874C180.587 188.93 180.559 188.965 180.503 188.979H176.45C176.394 188.979 176.366 188.944 176.366 188.874V180.369H174.875C174.707 183.127 174.539 184.947 174.371 185.829C173.937 188.237 172.775 189.441 170.885 189.441C170.269 189.441 169.751 189.266 169.331 188.916C168.911 188.566 168.701 188.251 168.701 187.971C168.701 187.901 168.75 187.817 168.848 187.719C168.96 187.607 169.093 187.474 169.247 187.32C169.415 187.166 169.618 186.837 169.856 186.333C170.094 185.815 170.318 185.171 170.528 184.401C170.668 183.897 170.794 183.162 170.906 182.196C171.032 181.216 171.123 180.362 171.179 179.634L171.263 178.542C171.263 178.472 171.291 178.437 171.347 178.437C174.245 177.793 177.311 177.793 180.545 178.437H180.524C180.566 178.437 180.587 178.465 180.587 178.521ZM192.884 184.758C192.884 185.374 192.933 185.892 193.031 186.312C193.129 186.718 193.241 187.005 193.367 187.173C193.507 187.327 193.64 187.446 193.766 187.53C193.906 187.614 194.011 187.684 194.081 187.74C194.151 187.796 194.165 187.873 194.123 187.971C194.011 188.321 193.703 188.65 193.199 188.958C192.695 189.252 192.163 189.399 191.603 189.399C190.735 189.399 190.028 189.119 189.482 188.559C188.936 187.985 188.663 187.215 188.663 186.249V184.842H186.605V188.874C186.605 188.944 186.57 188.986 186.5 189H182.3C182.3 189 182.272 188.979 182.216 188.937C182.216 188.923 182.216 188.909 182.216 188.895C182.314 185.703 182.363 183.624 182.363 182.658C182.363 181.902 182.286 181.3 182.132 180.852C181.992 180.39 181.838 180.11 181.67 180.012C181.502 179.914 181.355 179.83 181.229 179.76C181.117 179.676 181.082 179.578 181.124 179.466C181.25 179.102 181.565 178.766 182.069 178.458C182.573 178.136 183.105 177.975 183.665 177.975C184.533 177.975 185.24 178.269 185.786 178.857C186.332 179.431 186.605 180.201 186.605 181.167V182.385H188.663V178.542C188.677 178.486 188.712 178.451 188.768 178.437H192.8C192.856 178.437 192.884 178.472 192.884 178.542V184.758ZM205.603 187.467C205.673 189.329 205.197 190.834 204.175 191.982C203.167 193.13 201.711 193.704 199.807 193.704C198.869 193.704 198.029 193.508 197.287 193.116C196.559 192.738 196.034 192.346 195.712 191.94C195.404 191.548 195.194 191.184 195.082 190.848C194.984 190.526 194.928 190.267 194.914 190.071C194.9 189.889 194.921 189.77 194.977 189.714C195.033 189.672 195.103 189.658 195.187 189.672C195.285 189.686 195.425 189.777 195.607 189.945C195.803 190.127 196.006 190.316 196.216 190.512C196.44 190.722 196.769 190.904 197.203 191.058C197.637 191.226 198.12 191.31 198.652 191.31C199.45 191.31 200.094 191.044 200.584 190.512C201.074 189.994 201.333 189.392 201.361 188.706V186.606C200.969 187.446 200.458 188.062 199.828 188.454C199.212 188.846 198.589 189.042 197.959 189.042C197.161 189.042 196.482 188.72 195.922 188.076C195.362 187.432 195.082 186.599 195.082 185.577V182.721C195.082 182.105 195.026 181.594 194.914 181.188C194.802 180.768 194.669 180.481 194.515 180.327C194.375 180.159 194.228 180.033 194.074 179.949C193.934 179.865 193.829 179.802 193.759 179.76C193.675 179.704 193.647 179.627 193.675 179.529C193.801 179.165 194.116 178.829 194.62 178.521C195.124 178.199 195.656 178.038 196.216 178.038C197.098 178.038 197.833 178.332 198.421 178.92C199.009 179.494 199.303 180.264 199.303 181.23V184.884C199.303 185.64 199.513 186.046 199.933 186.102C200.311 186.158 200.647 185.913 200.941 185.367C201.179 184.933 201.305 184.408 201.319 183.792V178.563C201.319 178.507 201.347 178.472 201.403 178.458H205.456C205.512 178.458 205.54 178.493 205.54 178.563C205.582 182.637 205.603 185.605 205.603 187.467ZM223.154 184.758C223.154 185.374 223.203 185.892 223.301 186.312C223.399 186.718 223.511 187.005 223.637 187.173C223.777 187.327 223.91 187.446 224.036 187.53C224.176 187.614 224.281 187.684 224.351 187.74C224.421 187.796 224.435 187.873 224.393 187.971C224.281 188.321 223.973 188.65 223.469 188.958C222.965 189.252 222.433 189.399 221.873 189.399C221.005 189.399 220.298 189.119 219.752 188.559C219.206 187.985 218.933 187.215 218.933 186.249V184.842H216.875V188.874C216.875 188.944 216.84 188.986 216.77 189H212.57C212.57 189 212.542 188.979 212.486 188.937C212.486 188.923 212.486 188.909 212.486 188.895C212.584 185.703 212.633 183.624 212.633 182.658C212.633 181.902 212.556 181.3 212.402 180.852C212.262 180.39 212.108 180.11 211.94 180.012C211.772 179.914 211.625 179.83 211.499 179.76C211.387 179.676 211.352 179.578 211.394 179.466C211.52 179.102 211.835 178.766 212.339 178.458C212.843 178.136 213.375 177.975 213.935 177.975C214.803 177.975 215.51 178.269 216.056 178.857C216.602 179.431 216.875 180.201 216.875 181.167V182.385H218.933V178.542C218.947 178.486 218.982 178.451 219.038 178.437H223.07C223.126 178.437 223.154 178.472 223.154 178.542V184.758ZM234.887 185.745C234.985 185.815 235.006 185.927 234.95 186.081C234.88 186.333 234.719 186.634 234.467 186.984C234.229 187.334 233.907 187.705 233.501 188.097C233.109 188.475 232.591 188.79 231.947 189.042C231.303 189.308 230.624 189.441 229.91 189.441C228.328 189.441 226.977 188.881 225.857 187.761C224.751 186.641 224.198 185.29 224.198 183.708C224.198 182.126 224.751 180.782 225.857 179.676C226.977 178.556 228.419 177.996 230.183 177.996C231.751 177.996 232.962 178.388 233.816 179.172C234.684 179.942 235.118 180.768 235.118 181.65C235.118 182.434 234.901 183.092 234.467 183.624C234.047 184.142 233.508 184.492 232.85 184.674C232.206 184.856 231.492 184.975 230.708 185.031C229.938 185.087 229.21 185.038 228.524 184.884C228.888 185.906 229.672 186.494 230.876 186.648C232.094 186.802 233.34 186.508 234.614 185.766C234.712 185.696 234.803 185.689 234.887 185.745ZM229.448 180.579C228.818 180.957 228.454 181.776 228.356 183.036C229.266 183.12 229.959 183.015 230.435 182.721C230.911 182.413 231.149 181.965 231.149 181.377C231.149 181.083 231.044 180.838 230.834 180.642C230.624 180.446 230.358 180.355 230.036 180.369C230.036 180.383 230.029 180.39 230.015 180.39H229.952C229.784 180.418 229.616 180.481 229.448 180.579ZM253.811 187.614C253.979 187.698 254.063 187.782 254.063 187.866C254.063 187.95 253.979 188.097 253.811 188.307C253.559 188.615 253.188 188.881 252.698 189.105C252.208 189.343 251.697 189.462 251.165 189.462C250.367 189.462 249.702 189.301 249.17 188.979C248.652 188.643 248.288 188.237 248.078 187.761C247.882 187.285 247.728 186.809 247.616 186.333C247.504 185.857 247.378 185.444 247.238 185.094C247.112 184.73 246.937 184.534 246.713 184.506V188.874C246.713 188.93 246.685 188.965 246.629 188.979H242.576C242.52 188.979 242.492 188.944 242.492 188.874V184.506C242.282 184.52 242.114 184.653 241.988 184.905C241.862 185.157 241.764 185.465 241.694 185.829C241.638 186.193 241.533 186.592 241.379 187.026C241.225 187.446 241.036 187.838 240.812 188.202C240.602 188.566 240.252 188.867 239.762 189.105C239.286 189.343 238.705 189.462 238.019 189.462C237.487 189.462 236.976 189.343 236.486 189.105C235.996 188.881 235.625 188.615 235.373 188.307C235.247 188.167 235.17 188.055 235.142 187.971C235.114 187.887 235.121 187.824 235.163 187.782C235.191 187.726 235.268 187.67 235.394 187.614C235.926 187.362 236.374 187.04 236.738 186.648C237.102 186.256 237.354 185.892 237.494 185.556C237.648 185.22 237.816 184.849 237.998 184.443C238.194 184.023 238.376 183.701 238.544 183.477C239.076 182.805 239.748 182.525 240.56 182.637H240.581C240.413 181.853 240.231 181.356 240.035 181.146C239.867 180.964 239.657 180.873 239.405 180.873C239.265 180.873 239.146 180.901 239.048 180.957C238.95 180.999 238.88 181.083 238.838 181.209C238.81 181.321 238.789 181.419 238.775 181.503C238.775 181.573 238.782 181.685 238.796 181.839V182.07C238.796 182.224 238.691 182.343 238.481 182.427C238.271 182.511 238.026 182.553 237.746 182.553C237.074 182.553 236.521 182.357 236.087 181.965C235.667 181.559 235.457 181.013 235.457 180.327C235.457 179.641 235.695 179.081 236.171 178.647C236.661 178.199 237.291 177.975 238.061 177.975C238.719 177.975 239.314 178.136 239.846 178.458C240.378 178.766 240.805 179.179 241.127 179.697C241.449 180.215 241.708 180.74 241.904 181.272C242.1 181.79 242.24 182.322 242.324 182.868C242.408 182.896 242.464 182.917 242.492 182.931V178.521C242.506 178.479 242.534 178.451 242.576 178.437H246.65C246.65 178.479 246.671 178.507 246.713 178.521V182.931C246.755 182.917 246.804 182.896 246.86 182.868C246.916 182.28 247.091 181.636 247.385 180.936C247.679 180.222 248.162 179.55 248.834 178.92C249.506 178.29 250.269 177.975 251.123 177.975C251.893 177.975 252.523 178.199 253.013 178.647C253.503 179.081 253.748 179.641 253.748 180.327C253.748 181.013 253.531 181.559 253.097 181.965C252.677 182.357 252.124 182.553 251.438 182.553C251.158 182.553 250.913 182.511 250.703 182.427C250.493 182.343 250.388 182.224 250.388 182.07V181.839C250.402 181.685 250.402 181.573 250.388 181.503C250.388 181.433 250.367 181.342 250.325 181.23C250.297 181.104 250.234 181.013 250.136 180.957C250.038 180.901 249.919 180.873 249.779 180.873C249.443 180.873 249.191 181.034 249.023 181.356C248.869 181.678 248.736 182.112 248.624 182.658L248.435 182.637C249.359 182.511 250.094 182.791 250.64 183.477C250.822 183.701 251.032 184.114 251.27 184.716C251.522 185.318 251.837 185.871 252.215 186.375C252.593 186.865 253.125 187.278 253.811 187.614ZM265.646 184.758C265.646 185.374 265.695 185.892 265.793 186.312C265.891 186.718 266.003 187.005 266.129 187.173C266.269 187.327 266.402 187.446 266.528 187.53C266.668 187.614 266.773 187.684 266.843 187.74C266.913 187.796 266.927 187.873 266.885 187.971C266.773 188.321 266.465 188.65 265.961 188.958C265.457 189.252 264.925 189.399 264.365 189.399C263.497 189.399 262.79 189.119 262.244 188.559C261.698 187.985 261.425 187.215 261.425 186.249V184.842H259.367V188.874C259.367 188.944 259.332 188.986 259.262 189H255.062C255.062 189 255.034 188.979 254.978 188.937C254.978 188.923 254.978 188.909 254.978 188.895C255.076 185.703 255.125 183.624 255.125 182.658C255.125 181.902 255.048 181.3 254.894 180.852C254.754 180.39 254.6 180.11 254.432 180.012C254.264 179.914 254.117 179.83 253.991 179.76C253.879 179.676 253.844 179.578 253.886 179.466C254.012 179.102 254.327 178.766 254.831 178.458C255.335 178.136 255.867 177.975 256.427 177.975C257.295 177.975 258.002 178.269 258.548 178.857C259.094 179.431 259.367 180.201 259.367 181.167V182.385H261.425V178.542C261.439 178.486 261.474 178.451 261.53 178.437H265.562C265.618 178.437 265.646 178.472 265.646 178.542V184.758ZM278.429 183.771C278.429 185.381 277.876 186.739 276.77 187.845C275.664 188.937 274.257 189.483 272.549 189.483C270.869 189.483 269.469 188.93 268.349 187.824C267.229 186.718 266.669 185.367 266.669 183.771C266.669 182.175 267.229 180.824 268.349 179.718C269.469 178.612 270.869 178.059 272.549 178.059C274.229 178.059 275.629 178.612 276.749 179.718C277.869 180.824 278.429 182.175 278.429 183.771ZM270.806 183.771C270.806 184.723 270.953 185.521 271.247 186.165C271.541 186.795 271.975 187.11 272.549 187.11C273.151 187.11 273.592 186.802 273.872 186.186C274.152 185.57 274.292 184.765 274.292 183.771C274.292 182.805 274.145 182.007 273.851 181.377C273.557 180.747 273.123 180.432 272.549 180.432C271.961 180.432 271.52 180.747 271.226 181.377C270.946 181.993 270.806 182.791 270.806 183.771ZM285.001 180.747C285.015 180.677 285.029 180.614 285.043 180.558C285.071 180.502 285.085 180.467 285.085 180.453C284.987 180.397 284.861 180.369 284.707 180.369C284.175 180.369 283.762 180.719 283.468 181.419C283.188 182.105 283.09 182.868 283.174 183.708C283.244 184.422 283.426 185.017 283.72 185.493C284.028 185.955 284.399 186.27 284.833 186.438C285.267 186.606 285.743 186.683 286.261 186.669C286.793 186.655 287.304 186.571 287.794 186.417C288.298 186.249 288.774 186.032 289.222 185.766C289.334 185.682 289.432 185.675 289.516 185.745C289.586 185.815 289.607 185.927 289.579 186.081C289.509 186.347 289.355 186.655 289.117 187.005C288.893 187.341 288.592 187.705 288.214 188.097C287.836 188.475 287.332 188.79 286.702 189.042C286.086 189.308 285.421 189.441 284.707 189.441C283.111 189.441 281.753 188.881 280.633 187.761C279.527 186.641 278.974 185.29 278.974 183.708C278.974 182.168 279.499 180.852 280.549 179.76C281.613 178.654 282.943 178.066 284.539 177.996C285.785 177.968 286.772 178.164 287.5 178.584C288.704 178.304 290.125 178.143 291.763 178.101C293.415 178.059 294.668 178.08 295.522 178.164C296.376 178.234 297.069 178.304 297.601 178.374C297.713 178.388 297.783 178.458 297.811 178.584C297.853 178.752 297.874 178.955 297.874 179.193C297.888 179.837 297.685 180.334 297.265 180.684C296.845 181.034 296.404 181.237 295.942 181.293C295.48 181.349 295.018 181.342 294.556 181.272H294.535V184.737C294.535 185.493 294.605 186.102 294.745 186.564C294.899 187.012 295.06 187.285 295.228 187.383C295.396 187.481 295.536 187.572 295.648 187.656C295.774 187.726 295.816 187.817 295.774 187.929C295.648 188.293 295.326 188.636 294.808 188.958C294.304 189.266 293.772 189.42 293.212 189.42C292.358 189.42 291.658 189.133 291.112 188.559C290.566 187.971 290.293 187.194 290.293 186.228V181.083H289.159C289.033 181.643 288.753 182.112 288.319 182.49C287.885 182.854 287.409 183.036 286.891 183.036C286.289 183.036 285.785 182.805 285.379 182.343C284.987 181.881 284.861 181.349 285.001 180.747ZM309.76 184.779C309.76 185.535 309.83 186.144 309.97 186.606C310.124 187.054 310.285 187.327 310.453 187.425C310.621 187.523 310.761 187.614 310.873 187.698C310.999 187.768 311.041 187.859 310.999 187.971C310.873 188.335 310.558 188.678 310.054 189C309.55 189.308 309.018 189.462 308.458 189.462C307.73 189.462 307.107 189.252 306.589 188.832C306.071 188.398 305.742 187.803 305.602 187.047C305.196 187.873 304.685 188.482 304.069 188.874C303.453 189.266 302.83 189.462 302.2 189.462C301.402 189.462 300.723 189.14 300.163 188.496C299.603 187.852 299.323 187.019 299.323 185.997V182.721C299.323 182.105 299.267 181.594 299.155 181.188C299.043 180.768 298.91 180.481 298.756 180.327C298.616 180.159 298.469 180.033 298.315 179.949C298.175 179.865 298.07 179.802 298 179.76C297.916 179.704 297.888 179.627 297.916 179.529C298.042 179.165 298.357 178.829 298.861 178.521C299.365 178.199 299.897 178.038 300.457 178.038C301.339 178.038 302.074 178.332 302.662 178.92C303.264 179.494 303.565 180.264 303.565 181.23V185.304C303.565 186.06 303.775 186.466 304.195 186.522C304.559 186.578 304.888 186.333 305.182 185.787C305.406 185.381 305.525 184.898 305.539 184.338V178.563L305.623 178.437H309.844C309.9 178.451 309.928 178.486 309.928 178.542C309.816 181.734 309.76 183.813 309.76 184.779Z" fill="#C70E25"/>
<path d="M139.8 309H144V303.696H146.928C150.264 303.696 152.52 301.2 152.52 297.744C152.52 294.288 150.264 291.84 146.928 291.84H139.8V309ZM144 300.096V295.44H146.136C147.528 295.44 148.248 296.376 148.248 297.744C148.248 299.112 147.528 300.096 146.064 300.096H144ZM154.8 309H165.888V305.4H159V302.16H164.232V298.56H159V295.44H165.552V291.84H154.8V309ZM168.628 309H172.828V295.44H179.14V291.84H168.628V309ZM181.191 309H185.415L190.191 301.008C190.863 299.88 191.631 298.08 191.631 298.08H191.679C191.679 298.08 191.487 299.928 191.487 301.008V309H195.687V291.84H191.439L186.687 299.856C186.015 300.984 185.247 302.784 185.247 302.784H185.199C185.199 302.784 185.391 300.936 185.391 299.856V291.84H181.191V309ZM198.372 300.384C198.372 305.472 201.852 309.288 207.372 309.288C210.516 309.288 212.772 307.968 214.284 306.408L212.124 303.336C210.948 304.512 209.268 305.448 207.564 305.448C204.252 305.448 202.716 302.832 202.716 300.288C202.716 297.816 204.132 295.392 207.564 295.392C209.1 295.392 210.756 296.184 211.86 297.144L213.804 293.976C212.124 292.32 209.676 291.552 207.372 291.552C202.068 291.552 198.372 295.392 198.372 300.384ZM220.137 309H224.337V295.44H229.545V291.84H214.929V295.44H220.137V309ZM231.652 309H235.852V303.696H238.78C242.116 303.696 244.372 301.2 244.372 297.744C244.372 294.288 242.116 291.84 238.78 291.84H231.652V309ZM235.852 300.096V295.44H237.988C239.38 295.44 240.1 296.376 240.1 297.744C240.1 299.112 239.38 300.096 237.916 300.096H235.852ZM246.652 309H250.876L255.652 301.008C256.324 299.88 257.092 298.08 257.092 298.08H257.14C257.14 298.08 256.948 299.928 256.948 301.008V309H261.148V291.84H256.9L252.148 299.856C251.476 300.984 250.708 302.784 250.708 302.784H250.66C250.66 302.784 250.852 300.936 250.852 299.856V291.84H246.652V309ZM264.745 309H268.945V303.696H271.873C275.209 303.696 277.465 301.2 277.465 297.744C277.465 294.288 275.209 291.84 271.873 291.84H264.745V309ZM268.945 300.096V295.44H271.081C272.473 295.44 273.193 296.376 273.193 297.744C273.193 299.112 272.473 300.096 271.009 300.096H268.945ZM279.124 307.992C280.324 308.832 281.524 309.288 283.036 309.288C286.06 309.288 287.38 306.72 288.172 304.704L293.236 291.84H288.82L286.708 298.032C286.3 299.232 286.036 300.312 286.036 300.312H285.988C285.988 300.312 285.628 299.232 285.052 298.008L282.196 291.84H277.588L284.212 304.824C283.972 305.4 283.516 305.712 282.844 305.712C282.052 305.712 281.404 305.232 280.948 304.848L279.124 307.992ZM302.257 291.072C304.681 291.072 306.793 289.752 306.793 287.4V287.136H303.745V287.424C303.745 288.408 302.953 288.84 302.257 288.84C301.537 288.84 300.769 288.408 300.769 287.424V287.136H297.697V287.4C297.697 289.752 299.809 291.072 302.257 291.072ZM294.769 309H298.993L303.769 301.008C304.441 299.88 305.209 298.08 305.209 298.08H305.257C305.257 298.08 305.065 299.928 305.065 301.008V309H309.265V291.84H305.017L300.265 299.856C299.593 300.984 298.825 302.784 298.825 302.784H298.777C298.777 302.784 298.969 300.936 298.969 299.856V291.84H294.769V309ZM141.834 327.832C142.734 327.832 143.724 327.526 144.3 327.166H144.336C144.336 327.166 144.318 327.454 144.318 327.706V331H146.064V321.892H144.318V325.672C143.94 325.942 143.202 326.32 142.302 326.32C140.808 326.32 140.484 325.51 140.484 324.61V321.892H138.774V324.862C138.774 326.806 139.89 327.832 141.834 327.832ZM148.178 326.446C148.178 329.146 150.158 331.216 153.02 331.216C154.28 331.216 155.666 330.73 156.548 329.92L155.81 328.642C155.09 329.29 154.1 329.704 153.128 329.704C151.49 329.704 150.086 328.642 149.996 326.68H156.62C156.656 326.428 156.692 326.176 156.692 325.942C156.692 323.602 155.324 321.676 152.75 321.676C150.158 321.676 148.178 323.548 148.178 326.446ZM150.05 325.42C150.302 323.908 151.364 323.026 152.714 323.026C153.902 323.026 154.874 323.854 154.928 325.42H150.05ZM158.791 331H160.537V327.058H161.851L164.569 331H166.639L163.237 326.266V326.23L166.279 321.892H164.299L161.815 325.564H160.537V321.892H158.791V331ZM172.696 331H174.442V327.094H179.05V331H180.796V321.892H179.05V325.6H174.442V321.892H172.696V331ZM182.733 328.516C182.733 330.226 184.191 331.216 185.775 331.216C187.125 331.216 188.241 330.406 188.763 329.362H188.799C188.799 329.362 188.745 329.668 188.745 330.082V331H190.383V325.24C190.383 322.936 189.069 321.676 186.783 321.676C185.505 321.676 184.119 322.144 183.381 322.756L184.083 324.034C184.821 323.512 185.739 323.152 186.639 323.152C187.773 323.152 188.637 323.656 188.637 325.15V325.33H188.169C186.279 325.33 182.733 325.654 182.733 328.516ZM184.479 328.372C184.479 326.698 186.891 326.59 188.187 326.59H188.637V326.932C188.637 328.282 187.719 329.83 186.189 329.83C185.055 329.83 184.479 329.092 184.479 328.372ZM197.463 334.6H199.209V330.46C199.209 329.992 199.137 329.668 199.137 329.668H199.173C199.803 330.64 200.847 331.216 201.999 331.216C204.393 331.216 206.121 329.344 206.121 326.446C206.121 323.62 204.591 321.676 202.125 321.676C200.793 321.676 199.641 322.288 199.065 323.386H199.029C199.029 323.386 199.083 323.08 199.083 322.702V321.892H197.463V334.6ZM199.155 326.482C199.155 324.178 200.415 323.206 201.783 323.206C203.295 323.206 204.357 324.484 204.357 326.464C204.357 328.534 203.169 329.704 201.729 329.704C200.055 329.704 199.155 328.102 199.155 326.482ZM208.274 331H210.02V327.22C210.02 325.456 210.848 323.512 212.81 323.512C212.99 323.512 213.242 323.53 213.314 323.548V321.82C213.17 321.802 213.008 321.784 212.846 321.784C211.442 321.784 210.38 322.882 209.948 324.196H209.912C209.912 324.196 209.966 323.908 209.966 323.53V321.892H208.274V331ZM214.166 326.428C214.166 329.2 216.362 331.216 219.08 331.216C221.78 331.216 223.976 329.2 223.976 326.428C223.976 323.674 221.78 321.676 219.062 321.676C216.362 321.676 214.166 323.674 214.166 326.428ZM215.948 326.428C215.948 324.538 217.352 323.188 219.08 323.188C220.79 323.188 222.212 324.538 222.212 326.428C222.212 328.336 220.79 329.704 219.08 329.704C217.352 329.704 215.948 328.336 215.948 326.428ZM226.08 331H227.826V326.752C227.826 325.06 228.834 323.26 230.562 323.26C231.948 323.26 232.128 324.358 232.128 325.546V331H233.874V326.752C233.874 325.006 234.882 323.26 236.574 323.26C237.924 323.26 238.176 324.268 238.176 325.546V331H239.922V325.168C239.922 322.846 238.986 321.676 236.916 321.676C235.44 321.676 234.18 322.684 233.676 323.746H233.64C233.334 322.378 232.452 321.676 230.922 321.676C229.482 321.676 228.186 322.756 227.754 323.818H227.718C227.718 323.818 227.772 323.512 227.772 323.134V321.892H226.08V331ZM241.94 326.428C241.94 329.2 244.136 331.216 246.854 331.216C249.554 331.216 251.75 329.2 251.75 326.428C251.75 323.674 249.554 321.676 246.836 321.676C244.136 321.676 241.94 323.674 241.94 326.428ZM243.722 326.428C243.722 324.538 245.126 323.188 246.854 323.188C248.564 323.188 249.986 324.538 249.986 326.428C249.986 328.336 248.564 329.704 246.854 329.704C245.126 329.704 243.722 328.336 243.722 326.428ZM253.764 331H255.636V329.11H253.764V331ZM258.248 331H259.994V326.752C259.994 325.06 261.002 323.26 262.73 323.26C264.116 323.26 264.296 324.358 264.296 325.546V331H266.042V326.752C266.042 325.006 267.05 323.26 268.742 323.26C270.092 323.26 270.344 324.268 270.344 325.546V331H272.09V325.168C272.09 322.846 271.154 321.676 269.084 321.676C267.608 321.676 266.348 322.684 265.844 323.746H265.808C265.502 322.378 264.62 321.676 263.09 321.676C261.65 321.676 260.354 322.756 259.922 323.818H259.886C259.886 323.818 259.94 323.512 259.94 323.134V321.892H258.248V331ZM274.666 320.056H276.466V318.292H274.666V320.056ZM274.702 331H276.448V321.892H274.702V331ZM279.131 328.498C279.131 330.802 280.571 331.09 281.579 331.09C281.831 331.09 282.029 331.054 282.155 331.036V329.488C282.047 329.506 281.921 329.506 281.849 329.506C281.309 329.506 280.859 329.29 280.859 328.21V318.292H279.131V328.498ZM283.93 331H285.676V326.734H287.008L289.726 331H291.76L288.394 325.942V325.906L291.418 321.892H289.438L286.972 325.24H285.676V318.292H283.93V331ZM292.49 328.516C292.49 330.226 293.948 331.216 295.532 331.216C296.882 331.216 297.998 330.406 298.52 329.362H298.556C298.556 329.362 298.502 329.668 298.502 330.082V331H300.14V325.24C300.14 322.936 298.826 321.676 296.54 321.676C295.262 321.676 293.876 322.144 293.138 322.756L293.84 324.034C294.578 323.512 295.496 323.152 296.396 323.152C297.53 323.152 298.394 323.656 298.394 325.15V325.33H297.926C296.036 325.33 292.49 325.654 292.49 328.516ZM294.236 328.372C294.236 326.698 296.648 326.59 297.944 326.59H298.394V326.932C298.394 328.282 297.476 329.83 295.946 329.83C294.812 329.83 294.236 329.092 294.236 328.372ZM302.649 331H304.521V329.11H302.649V331ZM307.133 331H308.879V327.22C308.879 325.456 309.707 323.512 311.669 323.512C311.849 323.512 312.101 323.53 312.173 323.548V321.82C312.029 321.802 311.867 321.784 311.705 321.784C310.301 321.784 309.239 322.882 308.807 324.196H308.771C308.771 324.196 308.825 323.908 308.825 323.53V321.892H307.133V331ZM313.793 327.724C313.793 330.136 314.855 331.216 316.907 331.216C318.689 331.216 319.895 329.974 320.291 329.074H320.327C320.327 329.074 320.255 329.38 320.255 329.74V331H321.947V321.892H320.219V326.158C320.219 327.958 319.121 329.596 317.249 329.596C315.809 329.596 315.539 328.588 315.539 327.328V321.892H313.793V327.724Z" fill="white"/>
<circle cx="76" cy="309" r="32" fill="white"/>
<path d="M77.7031 297.97C77.7031 297.646 77.7031 297.97 77.3791 298.294C77.3791 297.97 77.9731 296.674 78.2971 296.026C78.2971 296.026 78.6211 296.026 78.9451 295.702C78.9451 296.026 78.6211 296.35 78.6211 296.674C77.8111 300.562 76.6231 304.126 75.4351 307.69C74.8411 309.958 74.2471 312.226 73.6531 314.494C73.0591 316.438 72.4651 318.058 72.1951 320.002C71.9251 320.326 71.9251 320.65 71.6011 320.974C71.2771 321.298 71.6011 321.946 71.6551 322.27C71.9791 322.594 71.9791 322.918 72.3031 322.918C72.3031 322.918 72.6271 322.918 72.6271 323.242C73.0051 323.89 73.6531 324.862 74.6251 325.186C74.9491 324.862 74.9491 324.538 75.2731 324.538C75.9211 323.89 76.1911 322.918 76.5151 322.27C76.7851 321.622 77.1091 320.974 77.3791 320.002C77.3791 320.002 77.3791 319.678 77.7031 319.354C78.3511 318.706 78.6211 317.41 79.2151 316.438C79.5391 315.79 79.8631 315.466 80.1871 314.818C80.4571 313.846 80.7271 312.874 81.3751 311.578C81.6451 310.282 81.9151 308.986 82.5631 307.69C82.8331 306.394 83.1031 304.774 83.0491 303.154C83.0491 302.83 83.0491 302.506 82.9951 302.182C83.3191 301.858 83.3191 301.21 83.3191 300.886C83.2651 299.266 83.2111 297.97 82.8331 296.35C82.8331 295.702 82.5091 295.054 81.8071 294.082L81.4831 293.758C81.1591 293.758 80.8351 293.758 80.5111 293.758C80.1871 293.758 80.1871 293.758 79.8631 293.758C79.5391 293.758 79.5391 294.082 79.2151 294.082C78.8911 294.082 78.5671 294.082 78.2431 294.406C77.9731 295.054 77.3251 295.378 77.0011 295.702C76.6771 296.35 76.4071 296.998 75.7591 297.646C75.1651 298.618 74.3011 299.968 73.7071 300.94C71.4931 303.856 71.1151 304.936 69.4411 306.826C68.7931 307.474 68.2531 308.662 67.6051 309.148C68.5771 310.12 69.5491 310.444 70.8451 310.12C71.1691 309.796 71.9791 309.904 72.2491 309.256C74.0311 307.906 74.6791 305.368 75.3271 304.45C75.3271 304.45 75.6511 304.126 75.5971 303.802C75.2731 303.154 75.9211 302.506 76.1911 302.182C76.1911 301.858 76.5151 301.534 76.5151 300.886C77.1091 299.914 77.4331 298.942 77.7031 297.97Z" fill="#C70E25"/>
<path d="M139.8 405H146.112C149.52 405 152.64 403.632 152.64 399.888C152.64 398.376 151.92 396.624 149.952 396.024V395.976C151.248 395.232 151.944 393.768 151.944 392.328C151.944 389.376 149.544 387.84 146.112 387.84H139.8V405ZM144 394.488V391.44H146.088C147.216 391.44 147.672 392.112 147.672 392.904C147.672 393.72 147.216 394.488 146.16 394.488H144ZM144 401.4V397.848H146.544C147.768 397.848 148.344 398.64 148.344 399.6C148.344 400.56 147.744 401.4 146.52 401.4H144ZM169.739 405H173.939V387.84H169.739V405ZM155.339 405H162.227C165.563 405 167.819 402.552 167.819 399.096C167.819 395.64 165.563 393.144 162.227 393.144H159.539V387.84H155.339V405ZM159.539 401.4V396.744H161.363C162.827 396.744 163.547 397.728 163.547 399.096C163.547 400.464 162.827 401.4 161.435 401.4H159.539ZM177.534 405H181.758L186.534 397.008C187.206 395.88 187.974 394.08 187.974 394.08H188.022C188.022 394.08 187.83 395.928 187.83 397.008V405H192.03V387.84H187.782L183.03 395.856C182.358 396.984 181.59 398.784 181.59 398.784H181.542C181.542 398.784 181.734 396.936 181.734 395.856V387.84H177.534V405ZM195.628 405H199.828V391.44H206.14V387.84H195.628V405ZM208.191 405H212.391V399.696H215.319C218.655 399.696 220.911 397.2 220.911 393.744C220.911 390.288 218.655 387.84 215.319 387.84H208.191V405ZM212.391 396.096V391.44H214.527C215.919 391.44 216.639 392.376 216.639 393.744C216.639 395.112 215.919 396.096 214.455 396.096H212.391ZM220.498 405H224.818L225.85 401.4H231.202L232.258 405H236.578L230.746 387.84H226.33L220.498 405ZM226.834 398.04L227.818 394.704C228.13 393.624 228.514 391.752 228.514 391.752H228.562C228.562 391.752 228.946 393.624 229.258 394.704L230.218 398.04H226.834ZM245.796 387.072C248.22 387.072 250.332 385.752 250.332 383.4V383.136H247.284V383.424C247.284 384.408 246.492 384.84 245.796 384.84C245.076 384.84 244.308 384.408 244.308 383.424V383.136H241.236V383.4C241.236 385.752 243.348 387.072 245.796 387.072ZM238.308 405H242.532L247.308 397.008C247.98 395.88 248.748 394.08 248.748 394.08H248.796C248.796 394.08 248.604 395.928 248.604 397.008V405H252.804V387.84H248.556L243.804 395.856C243.132 396.984 242.364 398.784 242.364 398.784H242.316C242.316 398.784 242.508 396.936 242.508 395.856V387.84H238.308V405ZM139.8 434H144V427.04H145.728L149.352 434H154.056L149.16 425.096V425.048L153.792 416.84H149.28L145.728 423.464H144V416.84H139.8V434ZM155.491 432.992C156.691 433.832 157.891 434.288 159.403 434.288C162.427 434.288 163.747 431.72 164.539 429.704L169.603 416.84H165.187L163.075 423.032C162.667 424.232 162.403 425.312 162.403 425.312H162.355C162.355 425.312 161.995 424.232 161.419 423.008L158.563 416.84H153.955L160.579 429.824C160.339 430.4 159.883 430.712 159.211 430.712C158.419 430.712 157.771 430.232 157.315 429.848L155.491 432.992ZM171.136 434H175.336V420.416H181.432V434H185.632V416.84H171.136V434ZM188.294 425.312C188.294 430.352 192.086 434.288 197.27 434.288C202.454 434.288 206.246 430.352 206.246 425.312C206.246 420.392 202.454 416.552 197.27 416.552C192.086 416.552 188.294 420.392 188.294 425.312ZM192.638 425.312C192.638 422.504 194.702 420.392 197.27 420.392C199.838 420.392 201.902 422.504 201.902 425.312C201.902 428.24 199.838 430.448 197.27 430.448C194.702 430.448 192.638 428.24 192.638 425.312ZM208.917 434H213.117V427.28H219.357V434H223.557V416.84H219.357V423.704H213.117V416.84H208.917V434ZM241.552 434H245.752V416.84H241.552V434ZM227.152 434H234.04C237.376 434 239.632 431.552 239.632 428.096C239.632 424.64 237.376 422.144 234.04 422.144H231.352V416.84H227.152V434ZM231.352 430.4V425.744H233.176C234.64 425.744 235.36 426.728 235.36 428.096C235.36 429.464 234.64 430.4 233.248 430.4H231.352ZM139.35 456H141.096V452.094H145.704V456H147.45V446.892H145.704V450.6H141.096V446.892H139.35V456ZM149.387 453.516C149.387 455.226 150.845 456.216 152.429 456.216C153.779 456.216 154.895 455.406 155.417 454.362H155.453C155.453 454.362 155.399 454.668 155.399 455.082V456H157.037V450.24C157.037 447.936 155.723 446.676 153.437 446.676C152.159 446.676 150.773 447.144 150.035 447.756L150.737 449.034C151.475 448.512 152.393 448.152 153.293 448.152C154.427 448.152 155.291 448.656 155.291 450.15V450.33H154.823C152.933 450.33 149.387 450.654 149.387 453.516ZM151.133 453.372C151.133 451.698 153.545 451.59 154.841 451.59H155.291V451.932C155.291 453.282 154.373 454.83 152.843 454.83C151.709 454.83 151.133 454.092 151.133 453.372ZM164.118 456H165.864V448.386H170.328V456H172.074V446.892H164.118V456ZM174.77 459.6H176.516V455.46C176.516 454.992 176.444 454.668 176.444 454.668H176.48C177.11 455.64 178.154 456.216 179.306 456.216C181.7 456.216 183.428 454.344 183.428 451.446C183.428 448.62 181.898 446.676 179.432 446.676C178.1 446.676 176.948 447.288 176.372 448.386H176.336C176.336 448.386 176.39 448.08 176.39 447.702V446.892H174.77V459.6ZM176.462 451.482C176.462 449.178 177.722 448.206 179.09 448.206C180.602 448.206 181.664 449.484 181.664 451.464C181.664 453.534 180.476 454.704 179.036 454.704C177.362 454.704 176.462 453.102 176.462 451.482ZM184.986 451.428C184.986 454.2 187.182 456.216 189.9 456.216C192.6 456.216 194.796 454.2 194.796 451.428C194.796 448.674 192.6 446.676 189.882 446.676C187.182 446.676 184.986 448.674 184.986 451.428ZM186.768 451.428C186.768 449.538 188.172 448.188 189.9 448.188C191.61 448.188 193.032 449.538 193.032 451.428C193.032 453.336 191.61 454.704 189.9 454.704C188.172 454.704 186.768 453.336 186.768 451.428ZM198.454 454.56C199.606 452.76 199.75 450.168 199.75 448.8V448.314H202.486V454.56H198.454ZM195.538 454.56V458.16H197.176V456H203.926V458.16H205.528V454.56H204.232V446.892H198.076V448.566C198.076 449.97 197.932 452.814 196.654 454.56H195.538ZM206.664 457.89L206.052 459.222C206.052 459.222 206.79 459.78 207.798 459.78C209.076 459.78 210.21 459.06 210.75 457.638L215.034 446.892H213.144L210.93 452.868C210.768 453.336 210.624 453.948 210.624 453.948H210.588C210.588 453.948 210.426 453.3 210.246 452.85L207.96 446.892H205.998L209.814 455.892L209.364 456.936C209.022 457.764 208.428 458.286 207.708 458.286C207.168 458.286 206.664 457.89 206.664 457.89ZM216.746 456H218.492V452.058H219.806L222.524 456H224.594L221.192 451.266V451.23L224.234 446.892H222.254L219.77 450.564H218.492V446.892H216.746V456ZM226.151 456H233.675V458.16H235.277V454.488H233.999V446.892H232.235V454.488H227.897V446.892H226.151V456ZM237.137 456H238.811L242.753 450.564C243.041 450.132 243.491 449.52 243.545 449.358H243.581C243.581 449.502 243.527 450.132 243.527 450.564V456H245.219V446.892H243.527L239.603 452.328C239.297 452.76 238.865 453.39 238.793 453.552H238.757C238.775 453.462 238.811 452.814 238.811 452.328V446.892H237.137V456ZM247.895 456H249.641V452.148H251.297C251.621 454.524 253.547 456.216 255.959 456.216C258.587 456.216 260.693 454.2 260.693 451.428C260.693 448.674 258.587 446.676 255.941 446.676C253.547 446.676 251.621 448.35 251.297 450.708H249.641V446.892H247.895V456ZM252.989 451.428C252.989 449.538 254.303 448.188 255.959 448.188C257.597 448.188 258.911 449.538 258.911 451.428C258.911 453.336 257.597 454.704 255.959 454.704C254.303 454.704 252.989 453.336 252.989 451.428ZM267.139 456H268.921L269.533 447.99C269.605 447.216 269.569 446.082 269.569 446.082H269.605C269.605 446.082 270.001 447.306 270.289 447.99L272.809 453.714H274.393L276.931 447.99C277.219 447.288 277.615 446.118 277.615 446.118H277.651C277.651 446.118 277.615 447.216 277.687 447.99L278.299 456H280.063L279.037 443.292H277.183L274.249 450.168C273.961 450.87 273.619 451.878 273.619 451.878H273.583C273.583 451.878 273.259 450.87 272.971 450.168L270.037 443.292H268.183L267.139 456ZM282.488 445.056H284.288V443.292H282.488V445.056ZM282.524 456H284.27V446.892H282.524V456ZM286.954 453.498C286.954 455.802 288.394 456.09 289.402 456.09C289.654 456.09 289.852 456.054 289.978 456.036V454.488C289.87 454.506 289.744 454.506 289.672 454.506C289.132 454.506 288.682 454.29 288.682 453.21V443.292H286.954V453.498ZM291.752 456H293.498V451.734H294.83L297.548 456H299.582L296.216 450.942V450.906L299.24 446.892H297.26L294.794 450.24H293.498V443.292H291.752V456ZM300.313 453.516C300.313 455.226 301.771 456.216 303.355 456.216C304.705 456.216 305.821 455.406 306.343 454.362H306.379C306.379 454.362 306.325 454.668 306.325 455.082V456H307.963V450.24C307.963 447.936 306.649 446.676 304.363 446.676C303.085 446.676 301.699 447.144 300.961 447.756L301.663 449.034C302.401 448.512 303.319 448.152 304.219 448.152C305.353 448.152 306.217 448.656 306.217 450.15V450.33H305.749C303.859 450.33 300.313 450.654 300.313 453.516ZM302.059 453.372C302.059 451.698 304.471 451.59 305.767 451.59H306.217V451.932C306.217 453.282 305.299 454.83 303.769 454.83C302.635 454.83 302.059 454.092 302.059 453.372Z" fill="white"/>
<circle cx="76" cy="405" r="32" fill="white"/>
<path d="M81.2826 406.12C81.5526 405.634 81.7146 405.202 82.0926 404.932C82.0386 404.77 82.3086 404.662 82.6326 404.662C82.8486 404.392 82.5246 404.176 82.5246 404.176C83.1726 403.852 83.0646 403.312 83.2806 402.988C83.9826 401.584 83.8746 399.748 83.9826 398.398C84.0366 397.372 83.4426 396.616 83.0646 395.266C82.7406 395.32 82.6866 395.158 82.6866 394.888C82.0386 394.672 80.9046 393.97 80.5806 393.538C79.9866 392.998 79.2846 392.566 78.6906 392.35C78.0426 392.134 77.7186 392.026 77.5026 392.026C76.5306 391.54 75.9906 392.026 75.1266 392.08C72.2106 392.674 68.9166 397.426 69.0246 398.83C69.0786 399.262 68.5926 399.64 68.9706 400.288C68.9706 400.288 68.9706 400.504 69.0246 400.72C69.6186 400.882 69.9426 401.638 70.4286 401.584C71.4546 402.07 72.4266 402.286 73.4526 401.26C73.4526 401.26 73.7226 400.99 74.0466 400.99C74.8566 400.342 75.7746 394.78 77.8266 395.266C78.7446 395.482 79.0146 396.454 78.8526 397.264C78.6906 398.668 78.3666 398.992 77.8266 400.126C76.4766 404.014 74.2086 407.038 71.4546 410.548C70.6446 411.79 68.9706 413.626 67.8906 414.598C67.4046 415.57 66.5946 417.73 68.3226 418.162C68.3226 418.432 68.9706 418.972 69.2946 418.918C69.2946 418.918 69.5646 418.918 69.9426 418.81C70.6986 419.026 71.4546 419.242 72.3186 419.08C72.8586 419.026 73.7226 418.972 74.6406 419.08C75.5586 419.35 76.4226 418.594 77.2866 418.54C78.6906 418.378 78.3126 418.918 79.8786 418.486C82.0926 417.892 84.0366 418.702 85.2246 419.08C85.4946 419.026 85.5486 417.73 84.7386 417.082C83.0646 415.732 80.3646 415.03 77.9346 415.354C77.6646 415.354 73.9386 415.678 73.8846 415.408C76.2606 412.708 78.5286 410.44 80.5806 407.578C80.7966 406.984 81.1206 406.66 81.2826 406.12Z" fill="#C70E25"/>
<path d="M83.5445 100.8C78.2165 100.584 73.9685 100.44 70.8725 100.44C69.2525 100.44 67.7765 100.548 66.4445 100.692C65.0765 100.836 63.9965 101.052 63.1325 101.304C62.2685 101.556 61.5125 101.844 60.9365 102.132C60.3245 102.456 59.8925 102.744 59.6405 103.032C59.3885 103.32 59.2805 103.572 59.2805 103.824C59.2805 103.968 59.3525 104.148 59.5325 104.328C59.6765 104.544 59.8565 104.724 60.0725 104.94C60.2525 105.156 60.4325 105.552 60.6125 106.128C60.7565 106.704 60.8645 107.424 60.8645 108.252V125.82C60.8645 125.928 60.9005 126 61.0085 126C62.2325 126.252 63.4925 126.36 64.7525 126.36C66.3005 126.36 67.5605 126.252 68.5685 126C68.6765 126 68.7485 125.928 68.7485 125.784V106.596H75.8405V108.612V111.132V113.904V116.748C75.8405 117.684 75.8045 118.62 75.8045 119.52C75.8045 120.42 75.8045 121.248 75.8045 122.004V123.984V125.352V125.82C75.8045 125.928 75.8405 126 75.9485 126C77.1725 126.252 78.4325 126.36 79.6925 126.36C81.2405 126.36 82.5005 126.252 83.5085 126C83.6165 126 83.6885 125.928 83.6885 125.784V100.98C83.6885 100.908 83.6165 100.836 83.5445 100.8ZM95.5863 107.316C92.6703 107.316 90.2583 108.216 88.3863 110.016C86.4783 111.816 85.5423 114.12 85.5423 117C85.5423 119.916 86.4783 122.256 88.3503 124.056C90.2223 125.856 92.6343 126.756 95.5863 126.756C98.5383 126.756 100.95 125.856 102.822 124.056C104.694 122.256 105.666 119.88 105.666 117C105.666 114.192 104.694 111.852 102.822 110.052C100.914 108.252 98.5023 107.316 95.5863 107.316ZM95.5863 122.688C94.5783 122.688 93.8583 122.184 93.3903 121.104C92.8863 120.06 92.6703 118.692 92.6703 117C92.6703 113.184 93.6423 111.276 95.5863 111.276C96.5943 111.276 97.3143 111.816 97.8183 112.86C98.2863 113.904 98.5383 115.272 98.5383 117C98.5383 120.816 97.5303 122.688 95.5863 122.688ZM126.929 113.688C126.929 109.044 125.993 105.372 124.121 102.636C122.249 99.936 119.621 98.568 116.201 98.568C114.329 98.568 112.601 99.18 110.945 100.332C109.289 101.52 108.389 102.852 108.245 104.292C108.173 104.724 108.353 104.94 108.749 104.94C108.821 104.94 109.145 104.832 109.649 104.544C110.153 104.256 110.837 104.004 111.629 103.716C112.421 103.428 113.213 103.284 114.005 103.284C115.949 103.284 117.389 104.004 118.289 105.444C119.189 106.884 119.657 108.612 119.657 110.556H119.549C119.549 110.556 119.513 110.448 119.405 110.304C119.261 110.16 119.081 109.944 118.829 109.728C118.541 109.512 118.253 109.26 117.893 109.044C117.533 108.828 117.065 108.648 116.561 108.504C116.021 108.36 115.481 108.252 114.905 108.252C112.529 108.252 110.657 109.116 109.217 110.772C107.777 112.428 107.093 114.588 107.093 117.18C107.093 119.988 107.957 122.256 109.685 124.056C111.413 125.856 113.753 126.72 116.669 126.72C119.909 126.72 122.429 125.568 124.229 123.192C126.029 120.816 126.929 117.648 126.929 113.688ZM116.849 122.544C115.265 122.472 114.473 120.6 114.545 116.928C114.545 115.704 114.761 114.66 115.193 113.796C115.589 112.932 116.201 112.536 117.065 112.608C118.721 112.752 119.513 114.372 119.477 117.432C119.441 118.152 119.405 118.764 119.333 119.268C119.261 119.772 119.117 120.312 118.973 120.888C118.793 121.464 118.541 121.86 118.181 122.148C117.821 122.436 117.353 122.58 116.849 122.544ZM148.132 119.232C148.132 117.612 148.168 113.94 148.24 108.216C148.24 108.144 148.168 108.072 148.06 108C147.052 107.82 145.9 107.712 144.64 107.712C143.488 107.712 142.372 107.82 141.328 108C141.184 108.072 141.148 108.144 141.148 108.216L140.788 110.52H140.68C140.176 109.584 139.492 108.828 138.556 108.288C137.62 107.748 136.576 107.46 135.388 107.46C133.156 107.46 131.392 108.468 130.096 110.412C128.8 112.392 128.152 114.696 128.152 117.324C128.152 119.88 128.764 122.076 130.06 123.876C131.32 125.676 133.048 126.576 135.208 126.576C136.432 126.576 137.512 126.252 138.52 125.604C139.528 124.956 140.284 124.056 140.788 122.904H140.896C141.04 124.056 141.544 124.992 142.372 125.64C143.164 126.288 144.208 126.612 145.432 126.612C146.584 126.612 147.628 126.252 148.564 125.496C149.5 124.74 149.968 123.984 149.968 123.264C149.968 123.048 149.86 122.868 149.644 122.724C148.636 122.076 148.132 120.888 148.132 119.232ZM138.268 121.608C137.404 121.608 136.72 121.176 136.252 120.276C135.748 119.412 135.532 118.26 135.532 116.892C135.532 115.524 135.748 114.408 136.252 113.508C136.72 112.608 137.404 112.14 138.268 112.14C139.132 112.14 139.816 112.608 140.32 113.508C140.788 114.408 141.04 115.524 141.04 116.892C141.04 118.26 140.788 119.412 140.32 120.276C139.816 121.176 139.132 121.608 138.268 121.608ZM161.841 112.14C162.705 112.14 163.353 112.608 163.857 113.508C164.325 114.408 164.577 115.524 164.577 116.892C164.577 118.26 164.325 119.412 163.857 120.276C163.353 121.176 162.705 121.608 161.841 121.608C160.941 121.608 160.257 121.176 159.789 120.276C159.285 119.412 159.069 118.26 159.069 116.892C159.069 115.524 159.285 114.408 159.789 113.508C160.257 112.608 160.941 112.14 161.841 112.14ZM155.001 107.388C153.669 107.388 152.589 107.82 151.725 108.684C150.861 109.548 150.465 110.232 150.465 110.736C150.465 110.952 150.573 111.132 150.789 111.276C151.293 111.636 151.617 112.068 151.833 112.572C152.049 113.076 152.157 113.832 152.157 114.768C152.157 127.944 152.121 134.64 152.085 134.82C152.085 134.928 152.121 135 152.229 135C153.453 135.252 154.569 135.36 155.577 135.36C156.981 135.36 158.169 135.252 159.177 135C159.285 135 159.357 134.928 159.357 134.784V123.444H159.465C160.509 125.532 162.129 126.576 164.325 126.576C166.557 126.576 168.393 125.604 169.797 123.588C171.165 121.608 171.885 119.304 171.885 116.676C171.885 114.012 171.237 111.816 170.013 110.088C168.789 108.36 167.061 107.46 164.865 107.46C163.641 107.46 162.525 107.784 161.481 108.432C160.401 109.08 159.681 109.98 159.285 111.132H159.177C159.141 110.988 159.069 110.736 158.997 110.376C158.385 108.396 157.053 107.388 155.001 107.388ZM192.701 108.216C192.701 108.144 192.665 108.072 192.593 108C191.441 107.784 190.289 107.676 189.137 107.676C187.877 107.676 186.689 107.82 185.537 108.036L185.393 108.252V117.648C185.393 118.908 185.141 119.916 184.637 120.636C184.133 121.356 183.629 121.716 183.053 121.716C182.657 121.716 182.333 121.536 182.117 121.176C181.865 120.816 181.757 120.312 181.757 119.592V111.924C181.757 110.52 181.289 109.404 180.425 108.612C179.561 107.82 178.445 107.424 177.113 107.424C175.781 107.424 174.701 107.856 173.873 108.72C173.009 109.584 172.613 110.304 172.613 110.844C172.613 111.132 172.721 111.312 172.937 111.42C173.945 112.104 174.485 113.22 174.485 114.768V121.284C174.485 123.012 174.953 124.344 175.889 125.244C176.825 126.18 178.013 126.612 179.489 126.612C180.641 126.612 181.793 126.324 182.873 125.712C183.953 125.1 184.817 124.092 185.465 122.652L185.573 122.688C185.609 123.048 185.645 123.3 185.717 123.444C185.933 124.452 186.401 125.208 187.121 125.784C187.805 126.36 188.705 126.648 189.821 126.648C191.153 126.648 192.233 126.216 193.097 125.352C193.925 124.488 194.357 123.804 194.357 123.264C194.357 123.048 194.249 122.868 194.033 122.724C193.097 122.148 192.665 120.996 192.665 119.268C192.665 111.996 192.665 108.288 192.701 108.216ZM223.326 122.58C222.75 122.256 222.21 121.788 221.778 121.14C221.31 120.528 220.914 119.916 220.626 119.268C220.302 118.656 219.978 118.044 219.618 117.396C219.258 116.784 218.826 116.244 218.322 115.812C217.782 115.38 217.17 115.056 216.45 114.912C216.63 114.408 216.954 113.976 217.386 113.58C217.818 113.22 218.322 113.004 218.898 113.004C219.366 113.004 219.834 113.148 220.338 113.364C220.842 113.616 221.094 113.724 221.13 113.724C221.454 113.724 221.85 113.436 222.318 112.824C222.786 112.212 223.038 111.528 223.038 110.736C223.038 109.836 222.714 109.044 222.066 108.36C221.418 107.712 220.482 107.352 219.258 107.352C217.602 107.352 216.198 108.036 215.082 109.404C213.966 110.772 213.354 112.608 213.282 114.912H212.13V111.708C212.13 110.412 211.698 109.332 210.87 108.54C210.006 107.748 208.926 107.352 207.63 107.352C206.298 107.352 205.218 107.784 204.354 108.648C203.49 109.512 203.094 110.196 203.094 110.7C203.094 110.916 203.202 111.096 203.418 111.24C204.318 111.888 204.786 112.896 204.786 114.3V125.784C204.786 125.892 204.822 125.964 204.93 125.964C206.226 126.216 207.45 126.324 208.566 126.324C209.358 126.324 210.474 126.216 211.986 125.964L212.13 125.748V118.26C212.31 118.26 212.49 118.296 212.634 118.368C212.778 118.44 212.922 118.512 212.994 118.548C213.066 118.62 213.174 118.728 213.246 118.908C213.318 119.124 213.354 119.232 213.354 119.268C213.354 119.34 213.39 119.484 213.462 119.7L213.534 120.06C213.714 121.032 213.93 121.86 214.182 122.544C214.398 123.228 214.758 123.912 215.19 124.56C215.622 125.244 216.162 125.748 216.882 126.108C217.566 126.468 218.394 126.612 219.366 126.612C220.77 126.612 221.886 126.252 222.714 125.496C223.506 124.74 223.938 124.02 223.938 123.336C223.938 123.084 223.722 122.832 223.326 122.58ZM244.24 108.216C244.24 108.144 244.204 108.072 244.132 108C242.98 107.784 241.828 107.676 240.712 107.676C239.452 107.676 238.264 107.82 237.112 108.036L236.968 108.252V117.648C236.968 118.908 236.716 119.916 236.212 120.636C235.708 121.356 235.204 121.716 234.628 121.716C234.232 121.716 233.908 121.536 233.692 121.176C233.44 120.816 233.332 120.312 233.332 119.592V111.924C233.332 110.52 232.864 109.404 232 108.612C231.136 107.82 230.02 107.424 228.688 107.424C227.356 107.424 226.276 107.856 225.448 108.72C224.584 109.584 224.188 110.304 224.188 110.844C224.188 111.132 224.296 111.312 224.512 111.42C225.52 112.104 226.06 113.22 226.06 114.768V121.104C226.06 122.868 226.528 124.2 227.464 125.136C228.4 126.072 229.588 126.54 231.064 126.54C233.872 126.54 235.816 125.316 236.968 122.832H237.076V126.684C237.076 127.836 236.644 128.88 235.78 129.744C234.916 130.644 233.8 131.076 232.432 131.076C231.244 131.076 230.236 130.896 229.372 130.464C228.508 130.068 227.824 129.672 227.392 129.276C226.96 128.88 226.636 128.664 226.456 128.664C226.168 128.664 226.024 128.88 226.024 129.24C226.024 129.816 226.168 130.464 226.528 131.148C226.852 131.832 227.356 132.516 228.004 133.164C228.652 133.848 229.516 134.424 230.668 134.856C231.784 135.324 233.044 135.54 234.412 135.54C237.544 135.54 239.956 134.64 241.684 132.768C243.376 130.932 244.24 128.484 244.24 125.388V108.216ZM247.462 125.82C247.462 125.928 247.498 126 247.606 126C248.83 126.252 250.054 126.36 251.206 126.36C252.502 126.36 253.654 126.252 254.662 126C254.77 126 254.842 125.928 254.842 125.784V116.28C254.842 115.056 255.094 114.084 255.598 113.364C256.102 112.644 256.642 112.248 257.218 112.248C257.578 112.248 257.902 112.428 258.154 112.788C258.37 113.148 258.514 113.688 258.514 114.372V122.256C258.514 123.696 258.91 124.776 259.774 125.568C260.602 126.36 261.682 126.72 263.05 126.72C264.346 126.72 265.426 126.288 266.29 125.424C267.154 124.56 267.586 123.876 267.586 123.336C267.586 123.12 267.478 122.94 267.262 122.796C266.254 122.148 265.75 120.96 265.75 119.268C265.75 118.26 265.75 117.036 265.75 115.56C265.75 114.084 265.786 113.148 265.786 112.716C265.786 110.988 265.282 109.656 264.346 108.72C263.41 107.784 262.222 107.28 260.818 107.28C259.702 107.28 258.586 107.604 257.47 108.252C256.318 108.9 255.454 109.908 254.806 111.276H254.698C254.662 111.132 254.626 110.88 254.59 110.592C254.374 109.584 253.906 108.792 253.186 108.18C252.466 107.604 251.566 107.28 250.45 107.28C249.118 107.28 248.038 107.712 247.174 108.576C246.31 109.44 245.914 110.124 245.914 110.628C245.914 110.844 246.022 111.024 246.238 111.168C246.742 111.528 247.066 111.96 247.282 112.464C247.498 112.968 247.606 113.724 247.606 114.66C247.606 121.716 247.534 125.46 247.462 125.82ZM278.61 107.316C275.694 107.316 273.282 108.216 271.41 110.016C269.502 111.816 268.566 114.12 268.566 117C268.566 119.916 269.502 122.256 271.374 124.056C273.246 125.856 275.658 126.756 278.61 126.756C281.562 126.756 283.974 125.856 285.846 124.056C287.718 122.256 288.69 119.88 288.69 117C288.69 114.192 287.718 111.852 285.846 110.052C283.938 108.252 281.526 107.316 278.61 107.316ZM278.61 122.688C277.602 122.688 276.882 122.184 276.414 121.104C275.91 120.06 275.694 118.692 275.694 117C275.694 113.184 276.666 111.276 278.61 111.276C279.618 111.276 280.338 111.816 280.842 112.86C281.31 113.904 281.562 115.272 281.562 117C281.562 120.816 280.554 122.688 278.61 122.688ZM302.11 122.184C302.11 123.624 302.506 124.704 303.37 125.496C304.198 126.288 305.278 126.648 306.646 126.648C307.942 126.648 309.022 126.216 309.886 125.352C310.75 124.488 311.182 123.804 311.182 123.264C311.182 123.048 311.074 122.868 310.858 122.724C309.85 122.076 309.346 120.888 309.346 119.196V108.18C309.346 108.108 309.31 108.036 309.238 108C308.194 107.784 307.006 107.64 305.71 107.64C304.522 107.64 303.37 107.784 302.254 108C302.146 108.036 302.11 108.108 302.11 108.18V114.516H298.474V111.744C298.474 110.448 298.042 109.368 297.178 108.576C296.314 107.784 295.234 107.388 293.938 107.388C292.606 107.388 291.526 107.82 290.662 108.684C289.798 109.548 289.402 110.232 289.402 110.736C289.402 110.952 289.51 111.132 289.726 111.276C290.23 111.636 290.554 112.068 290.77 112.572C290.986 113.076 291.094 113.832 291.094 114.768C291.094 121.752 291.022 125.46 290.95 125.82C290.95 125.928 290.986 126 291.094 126C292.318 126.252 293.542 126.36 294.694 126.36C296.098 126.36 297.286 126.252 298.294 126C298.402 126 298.474 125.928 298.474 125.784V118.332H302.11V122.184ZM65.3416 150.968C65.3416 149.384 64.6216 148.052 63.1816 147.008C61.7416 145.964 59.9056 145.424 57.7096 145.424C54.6136 145.424 52.1296 146.36 50.2576 148.196C48.3856 150.068 47.4856 152.336 47.4856 155C47.4856 157.808 48.3136 160.076 50.0416 161.876C51.7696 163.676 54.1816 164.576 57.3496 164.576C59.6896 164.576 61.6336 163.892 63.2176 162.452C64.8016 161.048 65.5936 159.824 65.5936 158.744C65.5936 158.42 65.4496 158.24 65.1616 158.24C65.0176 158.24 64.4056 158.492 63.2896 158.924C62.1736 159.356 61.1296 159.572 60.1216 159.572C58.2496 159.572 56.8456 159.032 55.9816 157.952C55.1176 156.872 54.6856 155.576 54.6856 153.992C54.6856 152.696 54.9376 151.544 55.4776 150.536C55.9816 149.528 56.6296 149.024 57.4216 149.024C58.3576 149.024 58.8616 149.744 58.8616 151.184C58.8616 151.472 58.8256 151.832 58.7536 152.3C58.6816 152.768 58.6816 153.056 58.6816 153.2C58.6816 153.56 58.9696 153.92 59.5456 154.28C60.1216 154.64 60.8056 154.784 61.5256 154.784C62.7496 154.784 63.7216 154.388 64.3696 153.596C65.0176 152.804 65.3416 151.94 65.3416 150.968ZM81.4367 153.956V153.812C82.3007 153.668 83.0207 153.272 83.6327 152.696C84.2087 152.12 84.5687 151.4 84.6767 150.536C84.8567 149.24 84.2807 148.016 82.9487 146.936C81.6167 145.856 79.6007 145.28 76.9007 145.28C73.7327 145.28 71.2487 146.144 69.4847 147.8C67.7207 149.492 66.8567 151.832 66.8567 154.856C66.8567 158.204 67.7207 160.688 69.5207 162.272C71.2847 163.892 73.7327 164.684 76.9007 164.684C79.6367 164.684 81.8327 164.072 83.4167 162.776C85.0007 161.48 85.8287 160.04 85.8287 158.384C85.8287 157.124 85.3607 156.116 84.4967 155.36C83.5967 154.604 82.5887 154.136 81.4367 153.956ZM76.5407 149.24C76.9727 149.24 77.3327 149.42 77.6207 149.744C77.9087 150.068 78.0527 150.428 78.0527 150.824C78.0527 151.508 77.7287 152.084 77.1527 152.588C76.5407 153.092 75.6407 153.38 74.4167 153.452H74.0927C74.0567 152.228 74.2367 151.22 74.6327 150.428C75.0287 149.636 75.6767 149.24 76.5407 149.24ZM76.7927 160.796C74.9207 160.796 74.0207 159.212 74.0927 156.008C74.3447 156.008 74.6327 155.972 74.9207 155.972C76.1447 155.972 77.1167 156.26 77.8367 156.8C78.5207 157.34 78.8807 157.952 78.8807 158.672C78.8807 159.248 78.6647 159.752 78.3047 160.184C77.9447 160.616 77.4407 160.796 76.7927 160.796ZM96.9398 145.316C94.0238 145.316 91.6118 146.216 89.7398 148.016C87.8318 149.816 86.8958 152.12 86.8958 155C86.8958 157.916 87.8318 160.256 89.7038 162.056C91.5758 163.856 93.9878 164.756 96.9398 164.756C99.8918 164.756 102.304 163.856 104.176 162.056C106.048 160.256 107.02 157.88 107.02 155C107.02 152.192 106.048 149.852 104.176 148.052C102.268 146.252 99.8558 145.316 96.9398 145.316ZM96.9398 160.688C95.9318 160.688 95.2118 160.184 94.7438 159.104C94.2398 158.06 94.0238 156.692 94.0238 155C94.0238 151.184 94.9958 149.276 96.9398 149.276C97.9478 149.276 98.6678 149.816 99.1718 150.86C99.6398 151.904 99.8918 153.272 99.8918 155C99.8918 158.816 98.8838 160.688 96.9398 160.688ZM127.82 146.216C127.82 146.144 127.784 146.072 127.712 146C126.56 145.784 125.408 145.676 124.256 145.676C122.996 145.676 121.808 145.82 120.656 146.036L120.512 146.252V155.648C120.512 156.908 120.26 157.916 119.756 158.636C119.252 159.356 118.748 159.716 118.172 159.716C117.776 159.716 117.452 159.536 117.236 159.176C116.984 158.816 116.876 158.312 116.876 157.592V149.924C116.876 148.52 116.408 147.404 115.544 146.612C114.68 145.82 113.564 145.424 112.232 145.424C110.9 145.424 109.82 145.856 108.992 146.72C108.128 147.584 107.732 148.304 107.732 148.844C107.732 149.132 107.84 149.312 108.056 149.42C109.064 150.104 109.604 151.22 109.604 152.768V159.284C109.604 161.012 110.072 162.344 111.008 163.244C111.944 164.18 113.132 164.612 114.608 164.612C115.76 164.612 116.912 164.324 117.992 163.712C119.072 163.1 119.936 162.092 120.584 160.652L120.692 160.688C120.728 161.048 120.764 161.3 120.836 161.444C121.052 162.452 121.52 163.208 122.24 163.784C122.924 164.36 123.824 164.648 124.94 164.648C126.272 164.648 127.352 164.216 128.216 163.352C129.044 162.488 129.476 161.804 129.476 161.264C129.476 161.048 129.368 160.868 129.152 160.724C128.216 160.148 127.784 158.996 127.784 157.268C127.784 149.996 127.784 146.288 127.82 146.216ZM142.694 163.136C142.802 163.496 142.982 163.748 143.198 163.856C143.414 164 143.738 164.036 144.17 164.036C144.962 164.036 145.466 163.748 145.682 163.136C145.718 162.992 145.97 162.344 146.438 161.12C146.87 159.896 147.41 158.492 148.058 156.836C148.67 155.216 149.174 153.92 149.534 152.984H149.642L149.57 160.256C149.57 161.696 150.002 162.776 150.866 163.568C151.73 164.36 152.846 164.72 154.214 164.72C155.51 164.72 156.59 164.288 157.454 163.424C158.318 162.56 158.75 161.876 158.75 161.336C158.75 161.12 158.642 160.94 158.426 160.796C157.418 160.148 156.914 158.96 156.914 157.268V146.252C156.914 146.18 156.878 146.108 156.842 146.072C156.77 146.072 156.59 146.036 156.266 145.964C155.942 145.892 155.474 145.82 154.862 145.748C154.214 145.676 153.602 145.64 153.026 145.64C151.55 145.64 150.326 145.784 149.354 146.036C149.318 146.036 149.282 146.072 149.246 146.108C149.21 146.18 149.066 146.576 148.778 147.368C148.49 148.16 148.166 149.096 147.77 150.176C147.338 151.292 147.014 152.192 146.726 152.876H146.618C145.682 150.428 144.89 148.736 144.278 147.8C143.09 146.144 141.29 145.28 138.878 145.28C137.042 145.28 135.494 145.748 134.234 146.648C132.974 147.584 132.362 148.376 132.362 149.024C132.362 149.456 132.686 149.672 133.37 149.672C133.478 149.672 133.73 149.672 134.09 149.636C134.45 149.636 134.702 149.636 134.882 149.636C134.81 154.856 134.054 157.448 132.542 157.448C132.326 157.448 132.11 157.412 131.894 157.268C131.678 157.124 131.534 157.052 131.462 157.052C131.174 157.052 130.814 157.448 130.418 158.168C130.022 158.924 129.842 159.752 129.842 160.616C129.842 161.84 130.202 162.848 130.922 163.604C131.642 164.36 132.614 164.72 133.838 164.72C134.702 164.72 135.422 164.54 136.07 164.18C136.718 163.82 137.186 163.28 137.546 162.56C137.906 161.84 138.158 161.12 138.374 160.328C138.59 159.536 138.698 158.636 138.734 157.556C138.734 156.476 138.734 155.54 138.698 154.712C138.662 153.92 138.59 152.984 138.518 151.904H138.662C139.166 152.876 139.634 154.028 140.138 155.324C140.606 156.656 141.11 158.24 141.686 160.04C142.262 161.84 142.586 162.884 142.694 163.136ZM179.81 146.756C178.334 146.828 177.038 147.224 175.922 148.016C174.77 148.808 173.906 149.924 173.33 151.364H173.186L173.114 150.608C173.042 150.104 173.15 149.42 173.438 148.592C173.69 147.8 174.122 147.08 174.77 146.468C175.526 145.712 176.606 145.172 177.974 144.848C179.342 144.524 180.71 144.236 182.078 143.948C183.446 143.66 184.49 143.192 185.246 142.508C186.542 141.32 187.226 139.664 187.226 137.504C187.226 136.928 187.082 136.388 186.83 135.848C186.578 135.308 186.362 135.02 186.146 135.02C186.038 135.02 185.93 135.056 185.822 135.128C185.678 135.2 185.498 135.344 185.21 135.488C184.922 135.668 184.562 135.812 184.202 135.956C183.41 136.28 182.15 136.676 180.35 137.108C178.55 137.54 176.93 138.08 175.526 138.692C174.086 139.34 172.826 140.204 171.746 141.284C169.226 143.804 167.966 147.62 167.966 152.732C167.966 156.548 168.83 159.5 170.63 161.588C172.43 163.676 174.77 164.72 177.686 164.72C180.566 164.72 182.942 163.784 184.742 161.876C186.542 159.968 187.478 157.628 187.478 154.856C187.478 152.48 186.758 150.5 185.318 148.952C183.878 147.44 182.042 146.684 179.81 146.756ZM177.722 160.616C176.858 160.616 176.246 160.112 175.85 159.032C175.418 157.988 175.238 156.872 175.238 155.72C175.238 154.496 175.418 153.416 175.85 152.516C176.246 151.652 176.894 151.184 177.794 151.184C178.622 151.184 179.234 151.652 179.594 152.516C179.954 153.416 180.17 154.496 180.17 155.72C180.17 158.996 179.342 160.616 177.722 160.616ZM208.976 160.652C207.968 160.004 207.464 158.816 207.464 157.124C207.464 156.224 207.464 155.36 207.464 154.568C207.464 153.776 207.5 153.164 207.5 152.732C207.5 152.336 207.536 152.048 207.536 151.868C207.536 149.564 206.852 147.908 205.52 146.864C204.152 145.82 202.388 145.28 200.192 145.28C197.744 145.28 195.656 145.82 193.856 146.828C192.056 147.872 191.156 148.808 191.156 149.6C191.156 150.032 191.48 150.248 192.128 150.248C192.344 150.248 192.596 150.248 192.956 150.212C193.28 150.212 193.496 150.176 193.64 150.176C193.64 152.3 193.388 154.028 192.884 155.324C192.38 156.656 191.66 157.304 190.796 157.304C190.58 157.304 190.364 157.268 190.148 157.124C189.932 156.98 189.788 156.908 189.716 156.908C189.428 156.908 189.068 157.304 188.672 158.024C188.276 158.78 188.096 159.608 188.096 160.472C188.096 161.696 188.456 162.704 189.176 163.46C189.896 164.216 190.868 164.576 192.092 164.576C193.172 164.576 194.072 164.288 194.792 163.64C195.512 163.028 196.052 162.272 196.412 161.372C196.772 160.472 196.988 159.32 197.132 157.916C197.276 156.512 197.312 155.252 197.312 154.136C197.276 153.02 197.204 151.724 197.132 150.212C197.816 150.212 198.392 150.284 198.824 150.464C199.256 150.644 199.544 150.932 199.724 151.328C199.868 151.724 199.976 152.084 200.048 152.408C200.084 152.732 200.12 153.164 200.12 153.668V160.112C200.12 161.552 200.552 162.632 201.416 163.424C202.28 164.216 203.396 164.576 204.764 164.576C206.06 164.576 207.14 164.144 208.004 163.28C208.868 162.416 209.3 161.732 209.3 161.192C209.3 160.976 209.192 160.796 208.976 160.652ZM229.879 146.216C229.879 146.144 229.843 146.072 229.771 146C228.619 145.784 227.467 145.676 226.315 145.676C225.055 145.676 223.867 145.82 222.715 146.036L222.571 146.252V155.648C222.571 156.908 222.319 157.916 221.815 158.636C221.311 159.356 220.807 159.716 220.231 159.716C219.835 159.716 219.511 159.536 219.295 159.176C219.043 158.816 218.935 158.312 218.935 157.592V149.924C218.935 148.52 218.467 147.404 217.603 146.612C216.739 145.82 215.623 145.424 214.291 145.424C212.959 145.424 211.879 145.856 211.051 146.72C210.187 147.584 209.791 148.304 209.791 148.844C209.791 149.132 209.899 149.312 210.115 149.42C211.123 150.104 211.663 151.22 211.663 152.768V159.284C211.663 161.012 212.131 162.344 213.067 163.244C214.003 164.18 215.191 164.612 216.667 164.612C217.819 164.612 218.971 164.324 220.051 163.712C221.131 163.1 221.995 162.092 222.643 160.652L222.751 160.688C222.787 161.048 222.823 161.3 222.895 161.444C223.111 162.452 223.579 163.208 224.299 163.784C224.983 164.36 225.883 164.648 226.999 164.648C228.331 164.648 229.411 164.216 230.275 163.352C231.103 162.488 231.535 161.804 231.535 161.264C231.535 161.048 231.427 160.868 231.211 160.724C230.275 160.148 229.843 158.996 229.843 157.268C229.843 149.996 229.843 146.288 229.879 146.216ZM246.337 154.532V154.388C247.345 154.172 248.209 153.704 248.929 152.984C249.649 152.264 250.009 151.4 250.009 150.392C250.009 148.952 249.253 147.764 247.777 146.828C246.301 145.892 244.465 145.388 242.269 145.388C239.389 145.388 237.049 146.108 235.285 147.548C233.521 148.988 232.657 150.32 232.657 151.544C232.657 151.94 232.801 152.12 233.089 152.12C233.269 152.12 233.665 151.976 234.277 151.688C234.853 151.4 235.645 151.112 236.581 150.824C237.517 150.536 238.489 150.356 239.497 150.356C240.181 150.356 240.757 150.464 241.225 150.608C241.693 150.788 242.017 151.004 242.233 151.256C242.413 151.544 242.521 151.76 242.593 151.94C242.665 152.156 242.701 152.336 242.701 152.516C242.701 152.984 242.557 153.416 242.305 153.848C241.045 153.452 240.073 153.38 239.425 153.668C238.741 153.956 238.417 154.424 238.417 155.072C238.417 155.684 238.741 156.116 239.461 156.404C240.145 156.692 241.153 156.548 242.485 156.044L242.665 156.296C242.737 156.512 242.845 156.8 242.953 157.16C243.061 157.52 243.133 157.916 243.133 158.276C243.133 158.924 242.917 159.5 242.521 160.004C242.089 160.508 241.549 160.76 240.829 160.76C240.181 160.76 239.677 160.58 239.245 160.184C238.813 159.824 238.633 159.284 238.633 158.636C238.633 158.492 238.633 158.276 238.705 157.988C238.741 157.7 238.777 157.52 238.777 157.412C238.777 157.196 238.453 156.908 237.805 156.62C237.157 156.332 236.509 156.152 235.861 156.152C234.745 156.152 233.881 156.476 233.269 157.088C232.621 157.736 232.333 158.492 232.333 159.392C232.333 161.084 233.197 162.38 234.961 163.316C236.689 164.252 238.705 164.684 240.973 164.684C242.629 164.684 244.141 164.504 245.545 164.072C246.949 163.676 248.137 163.028 249.073 162.128C250.009 161.228 250.477 160.148 250.477 158.852C250.477 157.7 250.081 156.764 249.289 156.008C248.497 155.252 247.525 154.748 246.337 154.532ZM271.086 160.58C270.51 160.256 269.97 159.788 269.538 159.14C269.07 158.528 268.674 157.916 268.386 157.268C268.062 156.656 267.738 156.044 267.378 155.396C267.018 154.784 266.586 154.244 266.082 153.812C265.542 153.38 264.93 153.056 264.21 152.912C264.39 152.408 264.714 151.976 265.146 151.58C265.578 151.22 266.082 151.004 266.658 151.004C267.126 151.004 267.594 151.148 268.098 151.364C268.602 151.616 268.854 151.724 268.89 151.724C269.214 151.724 269.61 151.436 270.078 150.824C270.546 150.212 270.798 149.528 270.798 148.736C270.798 147.836 270.474 147.044 269.826 146.36C269.178 145.712 268.242 145.352 267.018 145.352C265.362 145.352 263.958 146.036 262.842 147.404C261.726 148.772 261.114 150.608 261.042 152.912H259.89V149.708C259.89 148.412 259.458 147.332 258.63 146.54C257.766 145.748 256.686 145.352 255.39 145.352C254.058 145.352 252.978 145.784 252.114 146.648C251.25 147.512 250.854 148.196 250.854 148.7C250.854 148.916 250.962 149.096 251.178 149.24C252.078 149.888 252.546 150.896 252.546 152.3V163.784C252.546 163.892 252.582 163.964 252.69 163.964C253.986 164.216 255.21 164.324 256.326 164.324C257.118 164.324 258.234 164.216 259.746 163.964L259.89 163.748V156.26C260.07 156.26 260.25 156.296 260.394 156.368C260.538 156.44 260.682 156.512 260.754 156.548C260.826 156.62 260.934 156.728 261.006 156.908C261.078 157.124 261.114 157.232 261.114 157.268C261.114 157.34 261.15 157.484 261.222 157.7L261.294 158.06C261.474 159.032 261.69 159.86 261.942 160.544C262.158 161.228 262.518 161.912 262.95 162.56C263.382 163.244 263.922 163.748 264.642 164.108C265.326 164.468 266.154 164.612 267.126 164.612C268.53 164.612 269.646 164.252 270.474 163.496C271.266 162.74 271.698 162.02 271.698 161.336C271.698 161.084 271.482 160.832 271.086 160.58ZM292.035 146.216C292.035 146.144 291.999 146.072 291.927 146C290.775 145.784 289.623 145.676 288.471 145.676C287.211 145.676 286.023 145.82 284.871 146.036L284.727 146.252V155.648C284.727 156.908 284.475 157.916 283.971 158.636C283.467 159.356 282.963 159.716 282.387 159.716C281.991 159.716 281.667 159.536 281.451 159.176C281.199 158.816 281.091 158.312 281.091 157.592V149.924C281.091 148.52 280.623 147.404 279.759 146.612C278.895 145.82 277.779 145.424 276.447 145.424C275.115 145.424 274.035 145.856 273.207 146.72C272.343 147.584 271.947 148.304 271.947 148.844C271.947 149.132 272.055 149.312 272.271 149.42C273.279 150.104 273.819 151.22 273.819 152.768V159.284C273.819 161.012 274.287 162.344 275.223 163.244C276.159 164.18 277.347 164.612 278.823 164.612C279.975 164.612 281.127 164.324 282.207 163.712C283.287 163.1 284.151 162.092 284.799 160.652L284.907 160.688C284.943 161.048 284.979 161.3 285.051 161.444C285.267 162.452 285.735 163.208 286.455 163.784C287.139 164.36 288.039 164.648 289.155 164.648C290.487 164.648 291.567 164.216 292.431 163.352C293.259 162.488 293.691 161.804 293.691 161.264C293.691 161.048 293.583 160.868 293.367 160.724C292.431 160.148 291.999 158.996 291.999 157.268C291.999 149.996 291.999 146.288 292.035 146.216ZM306.909 163.136C307.017 163.496 307.197 163.748 307.413 163.856C307.629 164 307.953 164.036 308.385 164.036C309.177 164.036 309.681 163.748 309.897 163.136C309.933 162.992 310.185 162.344 310.653 161.12C311.085 159.896 311.625 158.492 312.273 156.836C312.885 155.216 313.389 153.92 313.749 152.984H313.857L313.785 160.256C313.785 161.696 314.217 162.776 315.081 163.568C315.945 164.36 317.061 164.72 318.429 164.72C319.725 164.72 320.805 164.288 321.669 163.424C322.533 162.56 322.965 161.876 322.965 161.336C322.965 161.12 322.857 160.94 322.641 160.796C321.633 160.148 321.129 158.96 321.129 157.268V146.252C321.129 146.18 321.093 146.108 321.057 146.072C320.985 146.072 320.805 146.036 320.481 145.964C320.157 145.892 319.689 145.82 319.077 145.748C318.429 145.676 317.817 145.64 317.241 145.64C315.765 145.64 314.541 145.784 313.569 146.036C313.533 146.036 313.497 146.072 313.461 146.108C313.425 146.18 313.281 146.576 312.993 147.368C312.705 148.16 312.381 149.096 311.985 150.176C311.553 151.292 311.229 152.192 310.941 152.876H310.833C309.897 150.428 309.105 148.736 308.493 147.8C307.305 146.144 305.505 145.28 303.093 145.28C301.257 145.28 299.709 145.748 298.449 146.648C297.189 147.584 296.577 148.376 296.577 149.024C296.577 149.456 296.901 149.672 297.585 149.672C297.693 149.672 297.945 149.672 298.305 149.636C298.665 149.636 298.917 149.636 299.097 149.636C299.025 154.856 298.269 157.448 296.757 157.448C296.541 157.448 296.325 157.412 296.109 157.268C295.893 157.124 295.749 157.052 295.677 157.052C295.389 157.052 295.029 157.448 294.633 158.168C294.237 158.924 294.057 159.752 294.057 160.616C294.057 161.84 294.417 162.848 295.137 163.604C295.857 164.36 296.829 164.72 298.053 164.72C298.917 164.72 299.637 164.54 300.285 164.18C300.933 163.82 301.401 163.28 301.761 162.56C302.121 161.84 302.373 161.12 302.589 160.328C302.805 159.536 302.913 158.636 302.949 157.556C302.949 156.476 302.949 155.54 302.913 154.712C302.877 153.92 302.805 152.984 302.733 151.904H302.877C303.381 152.876 303.849 154.028 304.353 155.324C304.821 156.656 305.325 158.24 305.901 160.04C306.477 161.84 306.801 162.884 306.909 163.136Z" fill="#C70E25"/>
<defs>
<filter id="filter0_d" x="0" y="0" width="368" height="512" filterUnits="userSpaceOnUse" color-interpolation-filters="sRGB">
<feFlood flood-opacity="0" result="BackgroundImageFix"/>
<feColorMatrix in="SourceAlpha" type="matrix" values="0 0 0 0 0 0 0 0 0 0 0 0 0 0 0 0 0 0 127 0"/>
<feOffset/>
<feGaussianBlur stdDeviation="7"/>
<feColorMatrix type="matrix" values="0 0 0 0 0.231373 0 0 0 0 0.172549 0 0 0 0 0.447059 0 0 0 0.7 0"/>
<feBlend mode="normal" in2="BackgroundImageFix" result="effect1_dropShadow"/>
<feBlend mode="normal" in="SourceGraphic" in2="effect1_dropShadow" result="shape"/>
</filter>
</defs>
</svg>
