<svg width="1233" height="312" viewBox="0 0 1233 312" fill="none" xmlns="http://www.w3.org/2000/svg">
<g filter="url(#filter0_d)">
<rect x="14" y="14" width="1205" height="284" rx="20" fill="#C70E25"/>
</g>
<rect x="16" y="16" width="1201" height="154" rx="18" fill="white" stroke="#C70E25" stroke-width="4"/>
<path d="M113.251 50.8C104.963 50.464 98.3547 50.24 93.5387 50.24C91.0187 50.24 88.7227 50.408 86.6507 50.632C84.5227 50.856 82.8427 51.192 81.4987 51.584C80.1547 51.976 78.9787 52.424 78.0827 52.872C77.1307 53.376 76.4587 53.824 76.0667 54.272C75.6747 54.72 75.5067 55.112 75.5067 55.504C75.5067 55.728 75.6187 56.008 75.8987 56.288C76.1227 56.624 76.4027 56.904 76.7387 57.24C77.0187 57.576 77.2987 58.192 77.5787 59.088C77.8027 59.984 77.9707 61.104 77.9707 62.392V89.72C77.9707 89.888 78.0267 90 78.1947 90C80.0987 90.392 82.0587 90.56 84.0187 90.56C86.4267 90.56 88.3867 90.392 89.9547 90C90.1227 90 90.2347 89.888 90.2347 89.664V59.816H101.267V62.952V66.872V71.184V75.608C101.267 77.064 101.211 78.52 101.211 79.92C101.211 81.32 101.211 82.608 101.211 83.784V86.864V88.992V89.72C101.211 89.888 101.267 90 101.435 90C103.339 90.392 105.299 90.56 107.259 90.56C109.667 90.56 111.627 90.392 113.195 90C113.363 90 113.475 89.888 113.475 89.664V51.08C113.475 50.968 113.363 50.856 113.251 50.8ZM131.982 60.936C127.446 60.936 123.694 62.336 120.782 65.136C117.814 67.936 116.358 71.52 116.358 76C116.358 80.536 117.814 84.176 120.726 86.976C123.638 89.776 127.39 91.176 131.982 91.176C136.574 91.176 140.326 89.776 143.238 86.976C146.15 84.176 147.662 80.48 147.662 76C147.662 71.632 146.15 67.992 143.238 65.192C140.27 62.392 136.518 60.936 131.982 60.936ZM131.982 84.848C130.414 84.848 129.294 84.064 128.566 82.384C127.782 80.76 127.446 78.632 127.446 76C127.446 70.064 128.958 67.096 131.982 67.096C133.55 67.096 134.67 67.936 135.454 69.56C136.182 71.184 136.574 73.312 136.574 76C136.574 81.936 135.006 84.848 131.982 84.848ZM180.738 70.848C180.738 63.624 179.282 57.912 176.37 53.656C173.458 49.456 169.37 47.328 164.05 47.328C161.138 47.328 158.45 48.28 155.874 50.072C153.298 51.92 151.898 53.992 151.674 56.232C151.562 56.904 151.842 57.24 152.458 57.24C152.57 57.24 153.074 57.072 153.858 56.624C154.642 56.176 155.706 55.784 156.938 55.336C158.17 54.888 159.402 54.664 160.634 54.664C163.658 54.664 165.898 55.784 167.298 58.024C168.698 60.264 169.426 62.952 169.426 65.976H169.258C169.258 65.976 169.202 65.808 169.034 65.584C168.81 65.36 168.53 65.024 168.138 64.688C167.69 64.352 167.242 63.96 166.682 63.624C166.122 63.288 165.394 63.008 164.61 62.784C163.77 62.56 162.93 62.392 162.034 62.392C158.338 62.392 155.426 63.736 153.186 66.312C150.946 68.888 149.882 72.248 149.882 76.28C149.882 80.648 151.226 84.176 153.914 86.976C156.602 89.776 160.242 91.12 164.778 91.12C169.818 91.12 173.738 89.328 176.538 85.632C179.338 81.936 180.738 77.008 180.738 70.848ZM165.058 84.624C162.594 84.512 161.362 81.6 161.474 75.888C161.474 73.984 161.81 72.36 162.482 71.016C163.098 69.672 164.05 69.056 165.394 69.168C167.97 69.392 169.202 71.912 169.146 76.672C169.09 77.792 169.034 78.744 168.922 79.528C168.81 80.312 168.586 81.152 168.362 82.048C168.082 82.944 167.69 83.56 167.13 84.008C166.57 84.456 165.842 84.68 165.058 84.624ZM213.72 79.472C213.72 76.952 213.776 71.24 213.888 62.336C213.888 62.224 213.776 62.112 213.608 62C212.04 61.72 210.248 61.552 208.288 61.552C206.496 61.552 204.76 61.72 203.136 62C202.912 62.112 202.856 62.224 202.856 62.336L202.296 65.92H202.128C201.344 64.464 200.28 63.288 198.824 62.448C197.368 61.608 195.744 61.16 193.896 61.16C190.424 61.16 187.68 62.728 185.664 65.752C183.648 68.832 182.64 72.416 182.64 76.504C182.64 80.48 183.592 83.896 185.608 86.696C187.568 89.496 190.256 90.896 193.616 90.896C195.52 90.896 197.2 90.392 198.768 89.384C200.336 88.376 201.512 86.976 202.296 85.184H202.464C202.688 86.976 203.472 88.432 204.76 89.44C205.992 90.448 207.616 90.952 209.52 90.952C211.312 90.952 212.936 90.392 214.392 89.216C215.848 88.04 216.576 86.864 216.576 85.744C216.576 85.408 216.408 85.128 216.072 84.904C214.504 83.896 213.72 82.048 213.72 79.472ZM198.376 83.168C197.032 83.168 195.968 82.496 195.24 81.096C194.456 79.752 194.12 77.96 194.12 75.832C194.12 73.704 194.456 71.968 195.24 70.568C195.968 69.168 197.032 68.44 198.376 68.44C199.72 68.44 200.784 69.168 201.568 70.568C202.296 71.968 202.688 73.704 202.688 75.832C202.688 77.96 202.296 79.752 201.568 81.096C200.784 82.496 199.72 83.168 198.376 83.168ZM235.045 68.44C236.389 68.44 237.397 69.168 238.181 70.568C238.909 71.968 239.301 73.704 239.301 75.832C239.301 77.96 238.909 79.752 238.181 81.096C237.397 82.496 236.389 83.168 235.045 83.168C233.645 83.168 232.581 82.496 231.853 81.096C231.069 79.752 230.733 77.96 230.733 75.832C230.733 73.704 231.069 71.968 231.853 70.568C232.581 69.168 233.645 68.44 235.045 68.44ZM224.405 61.048C222.333 61.048 220.653 61.72 219.309 63.064C217.965 64.408 217.349 65.472 217.349 66.256C217.349 66.592 217.517 66.872 217.853 67.096C218.637 67.656 219.141 68.328 219.477 69.112C219.813 69.896 219.981 71.072 219.981 72.528C219.981 93.024 219.925 103.44 219.869 103.72C219.869 103.888 219.925 104 220.093 104C221.997 104.392 223.733 104.56 225.301 104.56C227.485 104.56 229.333 104.392 230.901 104C231.069 104 231.181 103.888 231.181 103.664V86.024H231.349C232.973 89.272 235.493 90.896 238.909 90.896C242.381 90.896 245.237 89.384 247.421 86.248C249.549 83.168 250.669 79.584 250.669 75.496C250.669 71.352 249.661 67.936 247.757 65.248C245.853 62.56 243.165 61.16 239.749 61.16C237.845 61.16 236.109 61.664 234.485 62.672C232.805 63.68 231.685 65.08 231.069 66.872H230.901C230.845 66.648 230.733 66.256 230.621 65.696C229.669 62.616 227.597 61.048 224.405 61.048ZM283.05 62.336C283.05 62.224 282.994 62.112 282.882 62C281.09 61.664 279.298 61.496 277.506 61.496C275.546 61.496 273.698 61.72 271.906 62.056L271.682 62.392V77.008C271.682 78.968 271.29 80.536 270.506 81.656C269.722 82.776 268.938 83.336 268.042 83.336C267.426 83.336 266.922 83.056 266.586 82.496C266.194 81.936 266.026 81.152 266.026 80.032V68.104C266.026 65.92 265.298 64.184 263.954 62.952C262.61 61.72 260.874 61.104 258.802 61.104C256.73 61.104 255.05 61.776 253.762 63.12C252.418 64.464 251.802 65.584 251.802 66.424C251.802 66.872 251.97 67.152 252.306 67.32C253.874 68.384 254.714 70.12 254.714 72.528V82.664C254.714 85.352 255.442 87.424 256.898 88.824C258.354 90.28 260.202 90.952 262.498 90.952C264.29 90.952 266.082 90.504 267.762 89.552C269.442 88.6 270.786 87.032 271.794 84.792L271.962 84.848C272.018 85.408 272.074 85.8 272.186 86.024C272.522 87.592 273.25 88.768 274.37 89.664C275.434 90.56 276.834 91.008 278.57 91.008C280.642 91.008 282.322 90.336 283.666 88.992C284.954 87.648 285.626 86.584 285.626 85.744C285.626 85.408 285.458 85.128 285.122 84.904C283.666 84.008 282.994 82.216 282.994 79.528C282.994 68.216 282.994 62.448 283.05 62.336ZM330.688 84.68C329.792 84.176 328.952 83.448 328.28 82.44C327.552 81.488 326.936 80.536 326.488 79.528C325.984 78.576 325.48 77.624 324.92 76.616C324.36 75.664 323.688 74.824 322.904 74.152C322.064 73.48 321.112 72.976 319.992 72.752C320.272 71.968 320.776 71.296 321.448 70.68C322.12 70.12 322.904 69.784 323.8 69.784C324.528 69.784 325.256 70.008 326.04 70.344C326.824 70.736 327.216 70.904 327.272 70.904C327.776 70.904 328.392 70.456 329.12 69.504C329.848 68.552 330.24 67.488 330.24 66.256C330.24 64.856 329.736 63.624 328.728 62.56C327.72 61.552 326.264 60.992 324.36 60.992C321.784 60.992 319.6 62.056 317.864 64.184C316.128 66.312 315.176 69.168 315.064 72.752H313.272V67.768C313.272 65.752 312.6 64.072 311.312 62.84C309.968 61.608 308.288 60.992 306.272 60.992C304.2 60.992 302.52 61.664 301.176 63.008C299.832 64.352 299.216 65.416 299.216 66.2C299.216 66.536 299.384 66.816 299.72 67.04C301.12 68.048 301.848 69.616 301.848 71.8V89.664C301.848 89.832 301.904 89.944 302.072 89.944C304.088 90.336 305.992 90.504 307.728 90.504C308.96 90.504 310.696 90.336 313.048 89.944L313.272 89.608V77.96C313.552 77.96 313.832 78.016 314.056 78.128C314.28 78.24 314.504 78.352 314.616 78.408C314.728 78.52 314.896 78.688 315.008 78.968C315.12 79.304 315.176 79.472 315.176 79.528C315.176 79.64 315.232 79.864 315.344 80.2L315.456 80.76C315.736 82.272 316.072 83.56 316.464 84.624C316.8 85.688 317.36 86.752 318.032 87.76C318.704 88.824 319.544 89.608 320.664 90.168C321.728 90.728 323.016 90.952 324.528 90.952C326.712 90.952 328.448 90.392 329.736 89.216C330.968 88.04 331.64 86.92 331.64 85.856C331.64 85.464 331.304 85.072 330.688 84.68ZM363.221 62.336C363.221 62.224 363.165 62.112 363.053 62C361.261 61.664 359.469 61.496 357.733 61.496C355.773 61.496 353.925 61.72 352.133 62.056L351.909 62.392V77.008C351.909 78.968 351.517 80.536 350.733 81.656C349.949 82.776 349.165 83.336 348.269 83.336C347.653 83.336 347.149 83.056 346.813 82.496C346.421 81.936 346.253 81.152 346.253 80.032V68.104C346.253 65.92 345.525 64.184 344.181 62.952C342.837 61.72 341.101 61.104 339.029 61.104C336.957 61.104 335.277 61.776 333.989 63.12C332.645 64.464 332.029 65.584 332.029 66.424C332.029 66.872 332.197 67.152 332.533 67.32C334.101 68.384 334.941 70.12 334.941 72.528V82.384C334.941 85.128 335.669 87.2 337.125 88.656C338.581 90.112 340.429 90.84 342.725 90.84C347.093 90.84 350.117 88.936 351.909 85.072H352.077V91.064C352.077 92.856 351.405 94.48 350.061 95.824C348.717 97.224 346.981 97.896 344.853 97.896C343.005 97.896 341.437 97.616 340.093 96.944C338.749 96.328 337.685 95.712 337.013 95.096C336.341 94.48 335.837 94.144 335.557 94.144C335.109 94.144 334.885 94.48 334.885 95.04C334.885 95.936 335.109 96.944 335.669 98.008C336.173 99.072 336.957 100.136 337.965 101.144C338.973 102.208 340.317 103.104 342.109 103.776C343.845 104.504 345.805 104.84 347.933 104.84C352.805 104.84 356.557 103.44 359.245 100.528C361.877 97.672 363.221 93.864 363.221 89.048V62.336ZM368.234 89.72C368.234 89.888 368.29 90 368.458 90C370.362 90.392 372.266 90.56 374.058 90.56C376.074 90.56 377.866 90.392 379.434 90C379.602 90 379.714 89.888 379.714 89.664V74.88C379.714 72.976 380.106 71.464 380.89 70.344C381.674 69.224 382.514 68.608 383.41 68.608C383.97 68.608 384.474 68.888 384.866 69.448C385.202 70.008 385.426 70.848 385.426 71.912V84.176C385.426 86.416 386.042 88.096 387.386 89.328C388.674 90.56 390.354 91.12 392.482 91.12C394.498 91.12 396.178 90.448 397.522 89.104C398.866 87.76 399.538 86.696 399.538 85.856C399.538 85.52 399.37 85.24 399.034 85.016C397.466 84.008 396.682 82.16 396.682 79.528C396.682 77.96 396.682 76.056 396.682 73.76C396.682 71.464 396.738 70.008 396.738 69.336C396.738 66.648 395.954 64.576 394.498 63.12C393.042 61.664 391.194 60.88 389.01 60.88C387.274 60.88 385.538 61.384 383.802 62.392C382.01 63.4 380.666 64.968 379.658 67.096H379.49C379.434 66.872 379.378 66.48 379.322 66.032C378.986 64.464 378.258 63.232 377.138 62.28C376.018 61.384 374.618 60.88 372.882 60.88C370.81 60.88 369.13 61.552 367.786 62.896C366.442 64.24 365.826 65.304 365.826 66.088C365.826 66.424 365.994 66.704 366.33 66.928C367.114 67.488 367.618 68.16 367.954 68.944C368.29 69.728 368.458 70.904 368.458 72.36C368.458 83.336 368.346 89.16 368.234 89.72ZM416.685 60.936C412.149 60.936 408.397 62.336 405.485 65.136C402.517 67.936 401.061 71.52 401.061 76C401.061 80.536 402.517 84.176 405.429 86.976C408.341 89.776 412.093 91.176 416.685 91.176C421.277 91.176 425.029 89.776 427.941 86.976C430.853 84.176 432.365 80.48 432.365 76C432.365 71.632 430.853 67.992 427.941 65.192C424.973 62.392 421.221 60.936 416.685 60.936ZM416.685 84.848C415.117 84.848 413.997 84.064 413.269 82.384C412.485 80.76 412.149 78.632 412.149 76C412.149 70.064 413.661 67.096 416.685 67.096C418.253 67.096 419.373 67.936 420.157 69.56C420.885 71.184 421.277 73.312 421.277 76C421.277 81.936 419.709 84.848 416.685 84.848ZM453.242 84.064C453.242 86.304 453.858 87.984 455.202 89.216C456.49 90.448 458.17 91.008 460.298 91.008C462.314 91.008 463.994 90.336 465.338 88.992C466.682 87.648 467.354 86.584 467.354 85.744C467.354 85.408 467.186 85.128 466.85 84.904C465.282 83.896 464.498 82.048 464.498 79.416V62.28C464.498 62.168 464.442 62.056 464.33 62C462.706 61.664 460.858 61.44 458.842 61.44C456.994 61.44 455.202 61.664 453.466 62C453.298 62.056 453.242 62.168 453.242 62.28V72.136H447.586V67.824C447.586 65.808 446.914 64.128 445.57 62.896C444.226 61.664 442.546 61.048 440.53 61.048C438.458 61.048 436.778 61.72 435.434 63.064C434.09 64.408 433.474 65.472 433.474 66.256C433.474 66.592 433.642 66.872 433.978 67.096C434.762 67.656 435.266 68.328 435.602 69.112C435.938 69.896 436.106 71.072 436.106 72.528C436.106 83.392 435.994 89.16 435.882 89.72C435.882 89.888 435.938 90 436.106 90C438.01 90.392 439.914 90.56 441.706 90.56C443.89 90.56 445.738 90.392 447.306 90C447.474 90 447.586 89.888 447.586 89.664V78.072H453.242V84.064ZM509.447 69.728C509.447 67.264 508.327 65.192 506.087 63.568C503.847 61.944 500.991 61.104 497.575 61.104C492.759 61.104 488.895 62.56 485.983 65.416C483.071 68.328 481.671 71.856 481.671 76C481.671 80.368 482.959 83.896 485.647 86.696C488.335 89.496 492.087 90.896 497.015 90.896C500.655 90.896 503.679 89.832 506.143 87.592C508.607 85.408 509.839 83.504 509.839 81.824C509.839 81.32 509.615 81.04 509.167 81.04C508.943 81.04 507.991 81.432 506.255 82.104C504.519 82.776 502.895 83.112 501.327 83.112C498.415 83.112 496.231 82.272 494.887 80.592C493.543 78.912 492.871 76.896 492.871 74.432C492.871 72.416 493.263 70.624 494.103 69.056C494.887 67.488 495.895 66.704 497.127 66.704C498.583 66.704 499.367 67.824 499.367 70.064C499.367 70.512 499.311 71.072 499.199 71.8C499.087 72.528 499.087 72.976 499.087 73.2C499.087 73.76 499.535 74.32 500.431 74.88C501.327 75.44 502.391 75.664 503.511 75.664C505.415 75.664 506.927 75.048 507.935 73.816C508.943 72.584 509.447 71.24 509.447 69.728ZM534.484 74.376V74.152C535.828 73.928 536.948 73.312 537.9 72.416C538.796 71.52 539.356 70.4 539.524 69.056C539.804 67.04 538.908 65.136 536.836 63.456C534.764 61.776 531.628 60.88 527.428 60.88C522.5 60.88 518.636 62.224 515.892 64.8C513.148 67.432 511.804 71.072 511.804 75.776C511.804 80.984 513.148 84.848 515.948 87.312C518.692 89.832 522.5 91.064 527.428 91.064C531.684 91.064 535.1 90.112 537.564 88.096C540.028 86.08 541.316 83.84 541.316 81.264C541.316 79.304 540.588 77.736 539.244 76.56C537.844 75.384 536.276 74.656 534.484 74.376ZM526.868 67.04C527.54 67.04 528.1 67.32 528.548 67.824C528.996 68.328 529.22 68.888 529.22 69.504C529.22 70.568 528.716 71.464 527.82 72.248C526.868 73.032 525.468 73.48 523.564 73.592H523.06C523.004 71.688 523.284 70.12 523.9 68.888C524.516 67.656 525.524 67.04 526.868 67.04ZM527.26 85.016C524.348 85.016 522.948 82.552 523.06 77.568C523.452 77.568 523.9 77.512 524.348 77.512C526.252 77.512 527.764 77.96 528.884 78.8C529.948 79.64 530.508 80.592 530.508 81.712C530.508 82.608 530.172 83.392 529.612 84.064C529.052 84.736 528.268 85.016 527.26 85.016ZM558.599 60.936C554.063 60.936 550.311 62.336 547.399 65.136C544.431 67.936 542.975 71.52 542.975 76C542.975 80.536 544.431 84.176 547.343 86.976C550.255 89.776 554.007 91.176 558.599 91.176C563.191 91.176 566.943 89.776 569.855 86.976C572.767 84.176 574.279 80.48 574.279 76C574.279 71.632 572.767 67.992 569.855 65.192C566.887 62.392 563.135 60.936 558.599 60.936ZM558.599 84.848C557.031 84.848 555.911 84.064 555.183 82.384C554.399 80.76 554.063 78.632 554.063 76C554.063 70.064 555.575 67.096 558.599 67.096C560.167 67.096 561.287 67.936 562.071 69.56C562.799 71.184 563.191 73.312 563.191 76C563.191 81.936 561.623 84.848 558.599 84.848ZM606.636 62.336C606.636 62.224 606.58 62.112 606.468 62C604.676 61.664 602.884 61.496 601.092 61.496C599.132 61.496 597.284 61.72 595.492 62.056L595.268 62.392V77.008C595.268 78.968 594.876 80.536 594.092 81.656C593.308 82.776 592.524 83.336 591.628 83.336C591.012 83.336 590.508 83.056 590.172 82.496C589.78 81.936 589.612 81.152 589.612 80.032V68.104C589.612 65.92 588.884 64.184 587.54 62.952C586.196 61.72 584.46 61.104 582.388 61.104C580.316 61.104 578.636 61.776 577.348 63.12C576.004 64.464 575.388 65.584 575.388 66.424C575.388 66.872 575.556 67.152 575.892 67.32C577.46 68.384 578.3 70.12 578.3 72.528V82.664C578.3 85.352 579.028 87.424 580.484 88.824C581.94 90.28 583.788 90.952 586.084 90.952C587.876 90.952 589.668 90.504 591.348 89.552C593.028 88.6 594.372 87.032 595.38 84.792L595.548 84.848C595.604 85.408 595.66 85.8 595.772 86.024C596.108 87.592 596.836 88.768 597.956 89.664C599.02 90.56 600.42 91.008 602.156 91.008C604.228 91.008 605.908 90.336 607.252 88.992C608.54 87.648 609.212 86.584 609.212 85.744C609.212 85.408 609.044 85.128 608.708 84.904C607.252 84.008 606.58 82.216 606.58 79.528C606.58 68.216 606.58 62.448 606.636 62.336ZM629.773 88.656C629.941 89.216 630.221 89.608 630.557 89.776C630.893 90 631.397 90.056 632.069 90.056C633.301 90.056 634.085 89.608 634.421 88.656C634.477 88.432 634.869 87.424 635.597 85.52C636.269 83.616 637.109 81.432 638.117 78.856C639.069 76.336 639.853 74.32 640.413 72.864H640.581L640.469 84.176C640.469 86.416 641.141 88.096 642.485 89.328C643.829 90.56 645.565 91.12 647.693 91.12C649.709 91.12 651.389 90.448 652.733 89.104C654.077 87.76 654.749 86.696 654.749 85.856C654.749 85.52 654.581 85.24 654.245 85.016C652.677 84.008 651.893 82.16 651.893 79.528V62.392C651.893 62.28 651.837 62.168 651.781 62.112C651.669 62.112 651.389 62.056 650.885 61.944C650.381 61.832 649.653 61.72 648.701 61.608C647.693 61.496 646.741 61.44 645.845 61.44C643.549 61.44 641.645 61.664 640.133 62.056C640.077 62.056 640.021 62.112 639.965 62.168C639.909 62.28 639.685 62.896 639.237 64.128C638.789 65.36 638.285 66.816 637.669 68.496C636.997 70.232 636.493 71.632 636.045 72.696H635.877C634.421 68.888 633.189 66.256 632.237 64.8C630.389 62.224 627.589 60.88 623.837 60.88C620.981 60.88 618.573 61.608 616.613 63.008C614.653 64.464 613.701 65.696 613.701 66.704C613.701 67.376 614.205 67.712 615.269 67.712C615.437 67.712 615.829 67.712 616.389 67.656C616.949 67.656 617.341 67.656 617.621 67.656C617.509 75.776 616.333 79.808 613.981 79.808C613.645 79.808 613.309 79.752 612.973 79.528C612.637 79.304 612.413 79.192 612.301 79.192C611.853 79.192 611.293 79.808 610.677 80.928C610.061 82.104 609.781 83.392 609.781 84.736C609.781 86.64 610.341 88.208 611.461 89.384C612.581 90.56 614.093 91.12 615.997 91.12C617.341 91.12 618.461 90.84 619.469 90.28C620.477 89.72 621.205 88.88 621.765 87.76C622.325 86.64 622.717 85.52 623.053 84.288C623.389 83.056 623.557 81.656 623.613 79.976C623.613 78.296 623.613 76.84 623.557 75.552C623.501 74.32 623.389 72.864 623.277 71.184H623.501C624.285 72.696 625.013 74.488 625.797 76.504C626.525 78.576 627.309 81.04 628.205 83.84C629.101 86.64 629.605 88.264 629.773 88.656ZM687.509 63.176C685.213 63.288 683.197 63.904 681.461 65.136C679.669 66.368 678.325 68.104 677.429 70.344H677.205L677.093 69.168C676.981 68.384 677.149 67.32 677.597 66.032C677.989 64.8 678.661 63.68 679.669 62.728C680.845 61.552 682.525 60.712 684.653 60.208C686.781 59.704 688.909 59.256 691.037 58.808C693.165 58.36 694.789 57.632 695.965 56.568C697.981 54.72 699.045 52.144 699.045 48.784C699.045 47.888 698.821 47.048 698.429 46.208C698.037 45.368 697.701 44.92 697.365 44.92C697.197 44.92 697.029 44.976 696.861 45.088C696.637 45.2 696.357 45.424 695.909 45.648C695.461 45.928 694.901 46.152 694.341 46.376C693.109 46.88 691.149 47.496 688.349 48.168C685.549 48.84 683.029 49.68 680.845 50.632C678.605 51.64 676.645 52.984 674.965 54.664C671.045 58.584 669.085 64.52 669.085 72.472C669.085 78.408 670.429 83 673.229 86.248C676.029 89.496 679.669 91.12 684.205 91.12C688.685 91.12 692.381 89.664 695.181 86.696C697.981 83.728 699.437 80.088 699.437 75.776C699.437 72.08 698.317 69 696.077 66.592C693.837 64.24 690.981 63.064 687.509 63.176ZM684.261 84.736C682.917 84.736 681.965 83.952 681.349 82.272C680.677 80.648 680.397 78.912 680.397 77.12C680.397 75.216 680.677 73.536 681.349 72.136C681.965 70.792 682.973 70.064 684.373 70.064C685.661 70.064 686.613 70.792 687.173 72.136C687.733 73.536 688.069 75.216 688.069 77.12C688.069 82.216 686.781 84.736 684.261 84.736ZM732.878 84.792C731.31 83.784 730.526 81.936 730.526 79.304C730.526 77.904 730.526 76.56 730.526 75.328C730.526 74.096 730.582 73.144 730.582 72.472C730.582 71.856 730.638 71.408 730.638 71.128C730.638 67.544 729.574 64.968 727.502 63.344C725.374 61.72 722.63 60.88 719.214 60.88C715.406 60.88 712.158 61.72 709.358 63.288C706.558 64.912 705.158 66.368 705.158 67.6C705.158 68.272 705.662 68.608 706.67 68.608C707.006 68.608 707.398 68.608 707.958 68.552C708.462 68.552 708.798 68.496 709.022 68.496C709.022 71.8 708.63 74.488 707.846 76.504C707.062 78.576 705.942 79.584 704.598 79.584C704.262 79.584 703.926 79.528 703.59 79.304C703.254 79.08 703.03 78.968 702.918 78.968C702.47 78.968 701.91 79.584 701.294 80.704C700.678 81.88 700.398 83.168 700.398 84.512C700.398 86.416 700.958 87.984 702.078 89.16C703.198 90.336 704.71 90.896 706.614 90.896C708.294 90.896 709.694 90.448 710.814 89.44C711.934 88.488 712.774 87.312 713.334 85.912C713.894 84.512 714.23 82.72 714.454 80.536C714.678 78.352 714.734 76.392 714.734 74.656C714.678 72.92 714.566 70.904 714.454 68.552C715.518 68.552 716.414 68.664 717.086 68.944C717.758 69.224 718.206 69.672 718.486 70.288C718.71 70.904 718.878 71.464 718.99 71.968C719.046 72.472 719.102 73.144 719.102 73.928V83.952C719.102 86.192 719.774 87.872 721.118 89.104C722.462 90.336 724.198 90.896 726.326 90.896C728.342 90.896 730.022 90.224 731.366 88.88C732.71 87.536 733.382 86.472 733.382 85.632C733.382 85.296 733.214 85.016 732.878 84.792ZM765.394 62.336C765.394 62.224 765.338 62.112 765.226 62C763.434 61.664 761.642 61.496 759.85 61.496C757.89 61.496 756.042 61.72 754.25 62.056L754.026 62.392V77.008C754.026 78.968 753.634 80.536 752.85 81.656C752.066 82.776 751.282 83.336 750.386 83.336C749.77 83.336 749.266 83.056 748.93 82.496C748.538 81.936 748.37 81.152 748.37 80.032V68.104C748.37 65.92 747.642 64.184 746.298 62.952C744.954 61.72 743.218 61.104 741.146 61.104C739.074 61.104 737.394 61.776 736.106 63.12C734.762 64.464 734.146 65.584 734.146 66.424C734.146 66.872 734.314 67.152 734.65 67.32C736.218 68.384 737.058 70.12 737.058 72.528V82.664C737.058 85.352 737.786 87.424 739.242 88.824C740.698 90.28 742.546 90.952 744.842 90.952C746.634 90.952 748.426 90.504 750.106 89.552C751.786 88.6 753.13 87.032 754.138 84.792L754.306 84.848C754.362 85.408 754.418 85.8 754.53 86.024C754.866 87.592 755.594 88.768 756.714 89.664C757.778 90.56 759.178 91.008 760.914 91.008C762.986 91.008 764.666 90.336 766.01 88.992C767.298 87.648 767.97 86.584 767.97 85.744C767.97 85.408 767.802 85.128 767.466 84.904C766.01 84.008 765.338 82.216 765.338 79.528C765.338 68.216 765.338 62.448 765.394 62.336ZM790.995 75.272V75.048C792.563 74.712 793.907 73.984 795.027 72.864C796.147 71.744 796.707 70.4 796.707 68.832C796.707 66.592 795.531 64.744 793.235 63.288C790.939 61.832 788.083 61.048 784.667 61.048C780.187 61.048 776.547 62.168 773.803 64.408C771.059 66.648 769.715 68.72 769.715 70.624C769.715 71.24 769.939 71.52 770.387 71.52C770.667 71.52 771.283 71.296 772.235 70.848C773.131 70.4 774.363 69.952 775.819 69.504C777.275 69.056 778.787 68.776 780.355 68.776C781.419 68.776 782.315 68.944 783.043 69.168C783.771 69.448 784.275 69.784 784.611 70.176C784.891 70.624 785.059 70.96 785.171 71.24C785.283 71.576 785.339 71.856 785.339 72.136C785.339 72.864 785.115 73.536 784.723 74.208C782.763 73.592 781.251 73.48 780.243 73.928C779.179 74.376 778.675 75.104 778.675 76.112C778.675 77.064 779.179 77.736 780.299 78.184C781.363 78.632 782.931 78.408 785.003 77.624L785.283 78.016C785.395 78.352 785.563 78.8 785.731 79.36C785.899 79.92 786.011 80.536 786.011 81.096C786.011 82.104 785.675 83 785.059 83.784C784.387 84.568 783.547 84.96 782.427 84.96C781.419 84.96 780.635 84.68 779.963 84.064C779.291 83.504 779.011 82.664 779.011 81.656C779.011 81.432 779.011 81.096 779.123 80.648C779.179 80.2 779.235 79.92 779.235 79.752C779.235 79.416 778.731 78.968 777.723 78.52C776.715 78.072 775.707 77.792 774.699 77.792C772.963 77.792 771.619 78.296 770.667 79.248C769.659 80.256 769.211 81.432 769.211 82.832C769.211 85.464 770.555 87.48 773.299 88.936C775.987 90.392 779.123 91.064 782.651 91.064C785.227 91.064 787.579 90.784 789.763 90.112C791.947 89.496 793.795 88.488 795.251 87.088C796.707 85.688 797.435 84.008 797.435 81.992C797.435 80.2 796.819 78.744 795.587 77.568C794.355 76.392 792.843 75.608 790.995 75.272ZM829.493 84.68C828.597 84.176 827.757 83.448 827.085 82.44C826.357 81.488 825.741 80.536 825.293 79.528C824.789 78.576 824.285 77.624 823.725 76.616C823.165 75.664 822.493 74.824 821.709 74.152C820.869 73.48 819.917 72.976 818.797 72.752C819.077 71.968 819.581 71.296 820.253 70.68C820.925 70.12 821.709 69.784 822.605 69.784C823.333 69.784 824.061 70.008 824.845 70.344C825.629 70.736 826.021 70.904 826.077 70.904C826.581 70.904 827.197 70.456 827.925 69.504C828.653 68.552 829.045 67.488 829.045 66.256C829.045 64.856 828.541 63.624 827.533 62.56C826.525 61.552 825.069 60.992 823.165 60.992C820.589 60.992 818.405 62.056 816.669 64.184C814.933 66.312 813.981 69.168 813.869 72.752H812.077V67.768C812.077 65.752 811.405 64.072 810.117 62.84C808.773 61.608 807.093 60.992 805.077 60.992C803.005 60.992 801.325 61.664 799.981 63.008C798.637 64.352 798.021 65.416 798.021 66.2C798.021 66.536 798.189 66.816 798.525 67.04C799.925 68.048 800.653 69.616 800.653 71.8V89.664C800.653 89.832 800.709 89.944 800.877 89.944C802.893 90.336 804.797 90.504 806.533 90.504C807.765 90.504 809.501 90.336 811.853 89.944L812.077 89.608V77.96C812.357 77.96 812.637 78.016 812.861 78.128C813.085 78.24 813.309 78.352 813.421 78.408C813.533 78.52 813.701 78.688 813.813 78.968C813.925 79.304 813.981 79.472 813.981 79.528C813.981 79.64 814.037 79.864 814.149 80.2L814.261 80.76C814.541 82.272 814.877 83.56 815.269 84.624C815.605 85.688 816.165 86.752 816.837 87.76C817.509 88.824 818.349 89.608 819.469 90.168C820.533 90.728 821.821 90.952 823.333 90.952C825.517 90.952 827.253 90.392 828.541 89.216C829.773 88.04 830.445 86.92 830.445 85.856C830.445 85.464 830.109 85.072 829.493 84.68ZM862.081 62.336C862.081 62.224 862.025 62.112 861.913 62C860.121 61.664 858.329 61.496 856.537 61.496C854.577 61.496 852.729 61.72 850.937 62.056L850.713 62.392V77.008C850.713 78.968 850.321 80.536 849.537 81.656C848.753 82.776 847.969 83.336 847.073 83.336C846.457 83.336 845.953 83.056 845.617 82.496C845.225 81.936 845.057 81.152 845.057 80.032V68.104C845.057 65.92 844.329 64.184 842.985 62.952C841.641 61.72 839.905 61.104 837.833 61.104C835.761 61.104 834.081 61.776 832.793 63.12C831.449 64.464 830.833 65.584 830.833 66.424C830.833 66.872 831.001 67.152 831.337 67.32C832.905 68.384 833.745 70.12 833.745 72.528V82.664C833.745 85.352 834.473 87.424 835.929 88.824C837.385 90.28 839.233 90.952 841.529 90.952C843.321 90.952 845.113 90.504 846.793 89.552C848.473 88.6 849.817 87.032 850.825 84.792L850.993 84.848C851.049 85.408 851.105 85.8 851.217 86.024C851.553 87.592 852.281 88.768 853.401 89.664C854.465 90.56 855.865 91.008 857.601 91.008C859.673 91.008 861.353 90.336 862.697 88.992C863.985 87.648 864.657 86.584 864.657 85.744C864.657 85.408 864.489 85.128 864.153 84.904C862.697 84.008 862.025 82.216 862.025 79.528C862.025 68.216 862.025 62.448 862.081 62.336ZM885.219 88.656C885.387 89.216 885.667 89.608 886.003 89.776C886.339 90 886.843 90.056 887.515 90.056C888.747 90.056 889.531 89.608 889.867 88.656C889.923 88.432 890.315 87.424 891.043 85.52C891.715 83.616 892.555 81.432 893.563 78.856C894.515 76.336 895.299 74.32 895.859 72.864H896.027L895.915 84.176C895.915 86.416 896.587 88.096 897.931 89.328C899.275 90.56 901.011 91.12 903.139 91.12C905.155 91.12 906.835 90.448 908.179 89.104C909.523 87.76 910.195 86.696 910.195 85.856C910.195 85.52 910.027 85.24 909.691 85.016C908.123 84.008 907.339 82.16 907.339 79.528V62.392C907.339 62.28 907.283 62.168 907.227 62.112C907.115 62.112 906.835 62.056 906.331 61.944C905.827 61.832 905.099 61.72 904.147 61.608C903.139 61.496 902.187 61.44 901.291 61.44C898.995 61.44 897.091 61.664 895.579 62.056C895.523 62.056 895.467 62.112 895.411 62.168C895.355 62.28 895.131 62.896 894.683 64.128C894.235 65.36 893.731 66.816 893.115 68.496C892.443 70.232 891.939 71.632 891.491 72.696H891.323C889.867 68.888 888.635 66.256 887.683 64.8C885.835 62.224 883.035 60.88 879.283 60.88C876.427 60.88 874.019 61.608 872.059 63.008C870.099 64.464 869.147 65.696 869.147 66.704C869.147 67.376 869.651 67.712 870.715 67.712C870.883 67.712 871.275 67.712 871.835 67.656C872.395 67.656 872.787 67.656 873.067 67.656C872.955 75.776 871.779 79.808 869.427 79.808C869.091 79.808 868.755 79.752 868.419 79.528C868.083 79.304 867.859 79.192 867.747 79.192C867.299 79.192 866.739 79.808 866.123 80.928C865.507 82.104 865.227 83.392 865.227 84.736C865.227 86.64 865.787 88.208 866.907 89.384C868.027 90.56 869.539 91.12 871.443 91.12C872.787 91.12 873.907 90.84 874.915 90.28C875.923 89.72 876.651 88.88 877.211 87.76C877.771 86.64 878.163 85.52 878.499 84.288C878.835 83.056 879.003 81.656 879.059 79.976C879.059 78.296 879.059 76.84 879.003 75.552C878.947 74.32 878.835 72.864 878.723 71.184H878.947C879.731 72.696 880.459 74.488 881.243 76.504C881.971 78.576 882.755 81.04 883.651 83.84C884.547 86.64 885.051 88.264 885.219 88.656Z" fill="#C70E25"/>
<path d="M109.469 111.026C113.916 112.406 116.139 114.921 116.139 118.57C116.139 120.41 115.679 122.035 114.759 123.446C113.87 124.857 112.674 125.961 111.171 126.758C109.699 127.525 108.135 128.092 106.479 128.46C104.854 128.828 103.182 129.012 101.465 129.012C100.085 129.012 98.6898 128.859 97.2791 128.552C95.8991 128.276 94.5191 127.847 93.1391 127.264C91.7898 126.651 90.6858 125.777 89.8271 124.642C88.9684 123.507 88.5391 122.189 88.5391 120.686C88.5391 119.122 89.0144 117.865 89.9651 116.914C90.9158 115.963 92.2038 115.488 93.8291 115.488C94.7491 115.488 95.6078 115.641 96.4051 115.948C97.2331 116.255 97.6778 116.561 97.7391 116.868C97.7698 117.083 97.7698 117.282 97.7391 117.466C97.7391 117.65 97.7238 117.957 97.6931 118.386C97.6624 118.785 97.6471 119.153 97.6471 119.49C97.6471 120.747 97.9844 121.79 98.6591 122.618C99.3644 123.446 100.177 123.86 101.097 123.86C102.937 123.86 104.256 123.017 105.053 121.33C105.82 119.705 105.789 118.125 104.961 116.592C104.072 114.936 102.492 114.108 100.223 114.108H99.0271C98.8738 114.108 98.7971 114.001 98.7971 113.786V108.956C98.8278 108.833 98.9044 108.757 99.0271 108.726H101.097C102.324 108.726 103.32 108.419 104.087 107.806C104.884 107.162 105.344 106.395 105.467 105.506C105.59 104.617 105.544 103.727 105.329 102.838C105.114 101.949 104.639 101.197 103.903 100.584C103.198 99.94 102.354 99.618 101.373 99.618C100.361 99.618 99.4718 100.001 98.7051 100.768C97.9384 101.504 97.5551 102.47 97.5551 103.666V106.288C97.4324 106.595 97.0031 106.917 96.2671 107.254C95.5311 107.561 94.7184 107.714 93.8291 107.714C92.2344 107.714 90.9464 107.223 89.9651 106.242C89.0144 105.261 88.5391 104.003 88.5391 102.47C88.5391 100.967 88.9684 99.6487 89.8271 98.514C90.6858 97.3487 91.7898 96.4593 93.1391 95.846C94.5191 95.2327 95.8991 94.788 97.2791 94.512C98.6898 94.2053 100.085 94.052 101.465 94.052C103.213 94.052 104.884 94.2207 106.479 94.558C108.074 94.8647 109.592 95.3707 111.033 96.076C112.505 96.7813 113.655 97.824 114.483 99.204C115.311 100.553 115.694 102.148 115.633 103.988C115.48 107.668 113.425 110.014 109.469 111.026ZM142.456 118.754C142.456 120.41 142.61 121.744 142.916 122.756C143.254 123.737 143.606 124.335 143.974 124.55C144.342 124.765 144.649 124.964 144.894 125.148C145.14 125.301 145.216 125.501 145.124 125.746C144.879 126.543 144.204 127.295 143.1 128C141.996 128.675 140.831 129.012 139.604 129.012C138.01 129.012 136.645 128.552 135.51 127.632C134.376 126.681 133.655 125.393 133.348 123.768C131.539 127.233 129.116 128.966 126.08 128.966C124.24 128.966 122.615 128.337 121.204 127.08C119.794 125.823 118.751 124.259 118.076 122.388C117.402 120.517 117.064 118.524 117.064 116.408C117.064 113.035 117.892 110.121 119.548 107.668C121.204 105.184 123.458 103.942 126.31 103.942C129.254 103.942 131.539 105.399 133.164 108.312V105.138C133.164 104.985 133.241 104.893 133.394 104.862H142.594C142.717 104.893 142.778 104.969 142.778 105.092C142.564 112.084 142.456 116.638 142.456 118.754ZM127.46 120.87C128.074 122.035 128.917 122.618 129.99 122.618C131.064 122.618 131.907 122.035 132.52 120.87C133.134 119.705 133.44 118.217 133.44 116.408C133.44 114.599 133.134 113.111 132.52 111.946C131.907 110.75 131.064 110.152 129.99 110.152C128.917 110.152 128.074 110.75 127.46 111.946C126.847 113.111 126.54 114.599 126.54 116.408C126.54 118.217 126.847 119.705 127.46 120.87ZM169.927 104.862C169.927 104.954 169.973 105.015 170.065 105.046V127.724C170.065 127.847 170.004 127.923 169.881 127.954H161.003C160.88 127.954 160.819 127.877 160.819 127.724V109.094H155.667V127.724C155.636 127.847 155.56 127.923 155.437 127.954H146.559C146.436 127.954 146.375 127.877 146.375 127.724V105.046C146.406 104.954 146.467 104.893 146.559 104.862C149.963 104.187 153.842 103.85 158.197 103.85C162.582 103.819 166.492 104.157 169.927 104.862ZM197.039 124.642C197.192 128.721 196.149 132.017 193.911 134.532C191.703 137.047 188.513 138.304 184.343 138.304C182.288 138.304 180.448 137.875 178.823 137.016C177.228 136.188 176.078 135.329 175.373 134.44C174.698 133.581 174.238 132.784 173.993 132.048C173.778 131.343 173.655 130.775 173.625 130.346C173.594 129.947 173.64 129.687 173.763 129.564C173.885 129.472 174.039 129.441 174.223 129.472C174.437 129.503 174.744 129.702 175.143 130.07C175.572 130.469 176.017 130.883 176.477 131.312C176.967 131.772 177.688 132.171 178.639 132.508C179.589 132.876 180.647 133.06 181.813 133.06C183.561 133.06 184.971 132.477 186.045 131.312C187.118 130.177 187.685 128.859 187.747 127.356V122.756C186.888 124.596 185.769 125.945 184.389 126.804C183.039 127.663 181.675 128.092 180.295 128.092C178.547 128.092 177.059 127.387 175.833 125.976C174.606 124.565 173.993 122.741 173.993 120.502V114.246C173.993 112.897 173.87 111.777 173.625 110.888C173.379 109.968 173.088 109.339 172.751 109.002C172.444 108.634 172.122 108.358 171.785 108.174C171.478 107.99 171.248 107.852 171.095 107.76C170.911 107.637 170.849 107.469 170.911 107.254C171.187 106.457 171.877 105.721 172.981 105.046C174.085 104.341 175.25 103.988 176.477 103.988C178.409 103.988 180.019 104.632 181.307 105.92C182.595 107.177 183.239 108.864 183.239 110.98V118.984C183.239 120.64 183.699 121.529 184.619 121.652C185.447 121.775 186.183 121.238 186.827 120.042C187.348 119.091 187.624 117.941 187.655 116.592V105.138C187.655 105.015 187.716 104.939 187.839 104.908H196.717C196.839 104.908 196.901 104.985 196.901 105.138C196.993 114.062 197.039 120.563 197.039 124.642ZM212.114 109.922C212.145 109.769 212.175 109.631 212.206 109.508C212.267 109.385 212.298 109.309 212.298 109.278C212.083 109.155 211.807 109.094 211.47 109.094C210.305 109.094 209.4 109.861 208.756 111.394C208.143 112.897 207.928 114.568 208.112 116.408C208.265 117.972 208.664 119.275 209.308 120.318C209.983 121.33 210.795 122.02 211.746 122.388C212.697 122.756 213.739 122.925 214.874 122.894C216.039 122.863 217.159 122.679 218.232 122.342C219.336 121.974 220.379 121.499 221.36 120.916C221.605 120.732 221.82 120.717 222.004 120.87C222.157 121.023 222.203 121.269 222.142 121.606C221.989 122.189 221.651 122.863 221.13 123.63C220.639 124.366 219.98 125.163 219.152 126.022C218.324 126.85 217.22 127.54 215.84 128.092C214.491 128.675 213.034 128.966 211.47 128.966C207.974 128.966 204.999 127.739 202.546 125.286C200.123 122.833 198.912 119.873 198.912 116.408C198.912 113.035 200.062 110.152 202.362 107.76C204.693 105.337 207.606 104.049 211.102 103.896C213.831 103.835 215.993 104.264 217.588 105.184C220.225 104.571 223.338 104.218 226.926 104.126C230.545 104.034 233.289 104.08 235.16 104.264C237.031 104.417 238.549 104.571 239.714 104.724C239.959 104.755 240.113 104.908 240.174 105.184C240.266 105.552 240.312 105.997 240.312 106.518C240.343 107.929 239.898 109.017 238.978 109.784C238.058 110.551 237.092 110.995 236.08 111.118C235.068 111.241 234.056 111.225 233.044 111.072H232.998V118.662C232.998 120.318 233.151 121.652 233.458 122.664C233.795 123.645 234.148 124.243 234.516 124.458C234.884 124.673 235.191 124.872 235.436 125.056C235.712 125.209 235.804 125.409 235.712 125.654C235.436 126.451 234.731 127.203 233.596 127.908C232.492 128.583 231.327 128.92 230.1 128.92C228.229 128.92 226.696 128.291 225.5 127.034C224.304 125.746 223.706 124.044 223.706 121.928V110.658H221.222C220.946 111.885 220.333 112.912 219.382 113.74C218.431 114.537 217.389 114.936 216.254 114.936C214.935 114.936 213.831 114.43 212.942 113.418C212.083 112.406 211.807 111.241 212.114 109.922ZM266.349 118.754C266.349 120.41 266.502 121.744 266.809 122.756C267.146 123.737 267.499 124.335 267.867 124.55C268.235 124.765 268.542 124.964 268.787 125.148C269.063 125.301 269.155 125.501 269.063 125.746C268.787 126.543 268.097 127.295 266.993 128C265.889 128.675 264.724 129.012 263.497 129.012C261.902 129.012 260.538 128.552 259.403 127.632C258.268 126.681 257.548 125.378 257.241 123.722C256.352 125.531 255.232 126.865 253.883 127.724C252.534 128.583 251.169 129.012 249.789 129.012C248.041 129.012 246.554 128.307 245.327 126.896C244.1 125.485 243.487 123.661 243.487 121.422V114.246C243.487 112.897 243.364 111.777 243.119 110.888C242.874 109.968 242.582 109.339 242.245 109.002C241.938 108.634 241.616 108.358 241.279 108.174C240.972 107.99 240.742 107.852 240.589 107.76C240.405 107.637 240.344 107.469 240.405 107.254C240.681 106.457 241.371 105.721 242.475 105.046C243.579 104.341 244.744 103.988 245.971 103.988C247.903 103.988 249.513 104.632 250.801 105.92C252.12 107.177 252.779 108.864 252.779 110.98V119.904C252.779 121.56 253.239 122.449 254.159 122.572C254.956 122.695 255.677 122.158 256.321 120.962C256.812 120.073 257.072 119.015 257.103 117.788V105.138L257.287 104.862H266.533C266.656 104.893 266.717 104.969 266.717 105.092C266.472 112.084 266.349 116.638 266.349 118.754ZM300.125 114.246C301.627 114.706 302.793 115.442 303.621 116.454C304.479 117.466 304.909 118.693 304.909 120.134C304.909 122.955 303.759 125.133 301.459 126.666C299.159 128.199 296.368 128.966 293.087 128.966C291.063 128.966 289.284 128.644 287.751 128C286.217 127.387 285.021 126.574 284.163 125.562C283.335 124.55 282.721 123.492 282.323 122.388C281.924 121.253 281.725 120.119 281.725 118.984V118.892V118.708V105.092C281.725 104.939 281.786 104.862 281.909 104.862C284.822 104.157 288.318 103.804 292.397 103.804C293.715 103.804 294.957 103.911 296.123 104.126C297.319 104.31 298.453 104.617 299.527 105.046C300.631 105.475 301.505 106.119 302.149 106.978C302.793 107.806 303.115 108.787 303.115 109.922C303.115 110.995 302.808 111.915 302.195 112.682C301.612 113.449 300.922 113.97 300.125 114.246ZM294.789 111.072C294.789 109.539 293.869 108.772 292.029 108.772C291.599 108.772 291.262 108.818 291.017 108.91V113.51H291.891C293.823 113.51 294.789 112.697 294.789 111.072ZM293.455 123.676C294.313 123.676 294.988 123.369 295.479 122.756C295.969 122.143 296.215 121.33 296.215 120.318C296.215 119.459 295.877 118.8 295.203 118.34C294.559 117.88 293.715 117.65 292.673 117.65C291.875 117.65 291.323 117.665 291.017 117.696V120.502C291.139 122.618 291.952 123.676 293.455 123.676ZM331.586 116.546C331.586 120.073 330.375 123.047 327.952 125.47C325.53 127.862 322.448 129.058 318.706 129.058C315.026 129.058 311.96 127.847 309.506 125.424C307.053 123.001 305.826 120.042 305.826 116.546C305.826 113.05 307.053 110.091 309.506 107.668C311.96 105.245 315.026 104.034 318.706 104.034C322.386 104.034 325.453 105.245 327.906 107.668C330.36 110.091 331.586 113.05 331.586 116.546ZM314.888 116.546C314.888 118.631 315.21 120.379 315.854 121.79C316.498 123.17 317.449 123.86 318.706 123.86C320.025 123.86 320.991 123.185 321.604 121.836C322.218 120.487 322.524 118.723 322.524 116.546C322.524 114.43 322.202 112.682 321.558 111.302C320.914 109.922 319.964 109.232 318.706 109.232C317.418 109.232 316.452 109.922 315.808 111.302C315.195 112.651 314.888 114.399 314.888 116.546ZM356.429 105.046V127.724C356.429 127.847 356.368 127.923 356.245 127.954H347.367C347.244 127.954 347.183 127.877 347.183 127.724V109.094H343.917C343.549 115.135 343.181 119.122 342.813 121.054C341.862 126.329 339.317 128.966 335.177 128.966C333.828 128.966 332.693 128.583 331.773 127.816C330.853 127.049 330.393 126.359 330.393 125.746C330.393 125.593 330.5 125.409 330.715 125.194C330.96 124.949 331.252 124.657 331.589 124.32C331.957 123.983 332.402 123.262 332.923 122.158C333.444 121.023 333.935 119.613 334.395 117.926C334.702 116.822 334.978 115.212 335.223 113.096C335.499 110.949 335.698 109.079 335.821 107.484L336.005 105.092C336.005 104.939 336.066 104.862 336.189 104.862C342.537 103.451 349.253 103.451 356.337 104.862H356.291C356.383 104.862 356.429 104.923 356.429 105.046ZM383.366 118.708C383.366 120.057 383.473 121.192 383.688 122.112C383.903 123.001 384.148 123.63 384.424 123.998C384.731 124.335 385.022 124.596 385.298 124.78C385.605 124.964 385.835 125.117 385.988 125.24C386.141 125.363 386.172 125.531 386.08 125.746C385.835 126.513 385.16 127.233 384.056 127.908C382.952 128.552 381.787 128.874 380.56 128.874C378.659 128.874 377.11 128.261 375.914 127.034C374.718 125.777 374.12 124.09 374.12 121.974V118.892H369.612V127.724C369.612 127.877 369.535 127.969 369.382 128H360.182C360.182 128 360.121 127.954 359.998 127.862C359.998 127.831 359.998 127.801 359.998 127.77C360.213 120.778 360.32 116.224 360.32 114.108C360.32 112.452 360.151 111.133 359.814 110.152C359.507 109.14 359.17 108.527 358.802 108.312C358.434 108.097 358.112 107.913 357.836 107.76C357.591 107.576 357.514 107.361 357.606 107.116C357.882 106.319 358.572 105.583 359.676 104.908C360.78 104.203 361.945 103.85 363.172 103.85C365.073 103.85 366.622 104.494 367.818 105.782C369.014 107.039 369.612 108.726 369.612 110.842V113.51H374.12V105.092C374.151 104.969 374.227 104.893 374.35 104.862H383.182C383.305 104.862 383.366 104.939 383.366 105.092V118.708ZM411.226 124.642C411.38 128.721 410.337 132.017 408.098 134.532C405.89 137.047 402.701 138.304 398.53 138.304C396.476 138.304 394.636 137.875 393.01 137.016C391.416 136.188 390.266 135.329 389.56 134.44C388.886 133.581 388.426 132.784 388.18 132.048C387.966 131.343 387.843 130.775 387.812 130.346C387.782 129.947 387.828 129.687 387.95 129.564C388.073 129.472 388.226 129.441 388.41 129.472C388.625 129.503 388.932 129.702 389.33 130.07C389.76 130.469 390.204 130.883 390.664 131.312C391.155 131.772 391.876 132.171 392.826 132.508C393.777 132.876 394.835 133.06 396 133.06C397.748 133.06 399.159 132.477 400.232 131.312C401.306 130.177 401.873 128.859 401.934 127.356V122.756C401.076 124.596 399.956 125.945 398.576 126.804C397.227 127.663 395.862 128.092 394.482 128.092C392.734 128.092 391.247 127.387 390.02 125.976C388.794 124.565 388.18 122.741 388.18 120.502V114.246C388.18 112.897 388.058 111.777 387.812 110.888C387.567 109.968 387.276 109.339 386.938 109.002C386.632 108.634 386.31 108.358 385.972 108.174C385.666 107.99 385.436 107.852 385.282 107.76C385.098 107.637 385.037 107.469 385.098 107.254C385.374 106.457 386.064 105.721 387.168 105.046C388.272 104.341 389.438 103.988 390.664 103.988C392.596 103.988 394.206 104.632 395.494 105.92C396.782 107.177 397.426 108.864 397.426 110.98V118.984C397.426 120.64 397.886 121.529 398.806 121.652C399.634 121.775 400.37 121.238 401.014 120.042C401.536 119.091 401.812 117.941 401.842 116.592V105.138C401.842 105.015 401.904 104.939 402.026 104.908H410.904C411.027 104.908 411.088 104.985 411.088 105.138C411.18 114.062 411.226 120.563 411.226 124.642ZM449.671 118.708C449.671 120.057 449.778 121.192 449.993 122.112C450.207 123.001 450.453 123.63 450.729 123.998C451.035 124.335 451.327 124.596 451.603 124.78C451.909 124.964 452.139 125.117 452.293 125.24C452.446 125.363 452.477 125.531 452.385 125.746C452.139 126.513 451.465 127.233 450.361 127.908C449.257 128.552 448.091 128.874 446.865 128.874C444.963 128.874 443.415 128.261 442.219 127.034C441.023 125.777 440.425 124.09 440.425 121.974V118.892H435.917V127.724C435.917 127.877 435.84 127.969 435.687 128H426.487C426.487 128 426.425 127.954 426.303 127.862C426.303 127.831 426.303 127.801 426.303 127.77C426.517 120.778 426.625 116.224 426.625 114.108C426.625 112.452 426.456 111.133 426.119 110.152C425.812 109.14 425.475 108.527 425.107 108.312C424.739 108.097 424.417 107.913 424.141 107.76C423.895 107.576 423.819 107.361 423.911 107.116C424.187 106.319 424.877 105.583 425.981 104.908C427.085 104.203 428.25 103.85 429.477 103.85C431.378 103.85 432.927 104.494 434.123 105.782C435.319 107.039 435.917 108.726 435.917 110.842V113.51H440.425V105.092C440.455 104.969 440.532 104.893 440.655 104.862H449.487C449.609 104.862 449.671 104.939 449.671 105.092V118.708ZM475.371 120.87C475.586 121.023 475.632 121.269 475.509 121.606C475.356 122.158 475.003 122.817 474.451 123.584C473.93 124.351 473.224 125.163 472.335 126.022C471.476 126.85 470.342 127.54 468.931 128.092C467.52 128.675 466.033 128.966 464.469 128.966C461.004 128.966 458.044 127.739 455.591 125.286C453.168 122.833 451.957 119.873 451.957 116.408C451.957 112.943 453.168 109.999 455.591 107.576C458.044 105.123 461.203 103.896 465.067 103.896C468.502 103.896 471.154 104.755 473.025 106.472C474.926 108.159 475.877 109.968 475.877 111.9C475.877 113.617 475.402 115.059 474.451 116.224C473.531 117.359 472.35 118.125 470.909 118.524C469.498 118.923 467.934 119.183 466.217 119.306C464.53 119.429 462.936 119.321 461.433 118.984C462.23 121.223 463.948 122.511 466.585 122.848C469.253 123.185 471.982 122.541 474.773 120.916C474.988 120.763 475.187 120.747 475.371 120.87ZM463.457 109.554C462.077 110.382 461.28 112.176 461.065 114.936C463.058 115.12 464.576 114.89 465.619 114.246C466.662 113.571 467.183 112.59 467.183 111.302C467.183 110.658 466.953 110.121 466.493 109.692C466.033 109.263 465.45 109.063 464.745 109.094C464.745 109.125 464.73 109.14 464.699 109.14H464.561C464.193 109.201 463.825 109.339 463.457 109.554ZM516.824 124.964C517.192 125.148 517.376 125.332 517.376 125.516C517.376 125.7 517.192 126.022 516.824 126.482C516.272 127.157 515.46 127.739 514.386 128.23C513.313 128.751 512.194 129.012 511.028 129.012C509.28 129.012 507.824 128.659 506.658 127.954C505.524 127.218 504.726 126.329 504.266 125.286C503.837 124.243 503.5 123.201 503.254 122.158C503.009 121.115 502.733 120.211 502.426 119.444C502.15 118.647 501.767 118.217 501.276 118.156V127.724C501.276 127.847 501.215 127.923 501.092 127.954H492.214C492.092 127.954 492.03 127.877 492.03 127.724V118.156C491.57 118.187 491.202 118.478 490.926 119.03C490.65 119.582 490.436 120.257 490.282 121.054C490.16 121.851 489.93 122.725 489.592 123.676C489.255 124.596 488.841 125.455 488.35 126.252C487.89 127.049 487.124 127.709 486.05 128.23C485.008 128.751 483.735 129.012 482.232 129.012C481.067 129.012 479.948 128.751 478.874 128.23C477.801 127.739 476.988 127.157 476.436 126.482C476.16 126.175 475.992 125.93 475.93 125.746C475.869 125.562 475.884 125.424 475.976 125.332C476.038 125.209 476.206 125.087 476.482 124.964C477.648 124.412 478.629 123.707 479.426 122.848C480.224 121.989 480.776 121.192 481.082 120.456C481.42 119.72 481.788 118.907 482.186 118.018C482.616 117.098 483.014 116.393 483.382 115.902C484.548 114.43 486.02 113.817 487.798 114.062H487.844C487.476 112.345 487.078 111.256 486.648 110.796C486.28 110.397 485.82 110.198 485.268 110.198C484.962 110.198 484.701 110.259 484.486 110.382C484.272 110.474 484.118 110.658 484.026 110.934C483.965 111.179 483.919 111.394 483.888 111.578C483.888 111.731 483.904 111.977 483.934 112.314V112.82C483.934 113.157 483.704 113.418 483.244 113.602C482.784 113.786 482.248 113.878 481.634 113.878C480.162 113.878 478.951 113.449 478 112.59C477.08 111.701 476.62 110.505 476.62 109.002C476.62 107.499 477.142 106.273 478.184 105.322C479.258 104.341 480.638 103.85 482.324 103.85C483.766 103.85 485.069 104.203 486.234 104.908C487.4 105.583 488.335 106.487 489.04 107.622C489.746 108.757 490.313 109.907 490.742 111.072C491.172 112.207 491.478 113.372 491.662 114.568C491.846 114.629 491.969 114.675 492.03 114.706V105.046C492.061 104.954 492.122 104.893 492.214 104.862H501.138C501.138 104.954 501.184 105.015 501.276 105.046V114.706C501.368 114.675 501.476 114.629 501.598 114.568C501.721 113.28 502.104 111.869 502.748 110.336C503.392 108.772 504.45 107.3 505.922 105.92C507.394 104.54 509.066 103.85 510.936 103.85C512.623 103.85 514.003 104.341 515.076 105.322C516.15 106.273 516.686 107.499 516.686 109.002C516.686 110.505 516.211 111.701 515.26 112.59C514.34 113.449 513.129 113.878 511.626 113.878C511.013 113.878 510.476 113.786 510.016 113.602C509.556 113.418 509.326 113.157 509.326 112.82V112.314C509.357 111.977 509.357 111.731 509.326 111.578C509.326 111.425 509.28 111.225 509.188 110.98C509.127 110.704 508.989 110.505 508.774 110.382C508.56 110.259 508.299 110.198 507.992 110.198C507.256 110.198 506.704 110.551 506.336 111.256C505.999 111.961 505.708 112.912 505.462 114.108L505.048 114.062C507.072 113.786 508.682 114.399 509.878 115.902C510.277 116.393 510.737 117.297 511.258 118.616C511.81 119.935 512.5 121.146 513.328 122.25C514.156 123.323 515.322 124.228 516.824 124.964ZM542.749 118.708C542.749 120.057 542.856 121.192 543.071 122.112C543.286 123.001 543.531 123.63 543.807 123.998C544.114 124.335 544.405 124.596 544.681 124.78C544.988 124.964 545.218 125.117 545.371 125.24C545.524 125.363 545.555 125.531 545.463 125.746C545.218 126.513 544.543 127.233 543.439 127.908C542.335 128.552 541.17 128.874 539.943 128.874C538.042 128.874 536.493 128.261 535.297 127.034C534.101 125.777 533.503 124.09 533.503 121.974V118.892H528.995V127.724C528.995 127.877 528.918 127.969 528.765 128H519.565C519.565 128 519.504 127.954 519.381 127.862C519.381 127.831 519.381 127.801 519.381 127.77C519.596 120.778 519.703 116.224 519.703 114.108C519.703 112.452 519.534 111.133 519.197 110.152C518.89 109.14 518.553 108.527 518.185 108.312C517.817 108.097 517.495 107.913 517.219 107.76C516.974 107.576 516.897 107.361 516.989 107.116C517.265 106.319 517.955 105.583 519.059 104.908C520.163 104.203 521.328 103.85 522.555 103.85C524.456 103.85 526.005 104.494 527.201 105.782C528.397 107.039 528.995 108.726 528.995 110.842V113.51H533.503V105.092C533.534 104.969 533.61 104.893 533.733 104.862H542.565C542.688 104.862 542.749 104.939 542.749 105.092V118.708ZM570.75 116.546C570.75 120.073 569.539 123.047 567.116 125.47C564.694 127.862 561.612 129.058 557.87 129.058C554.19 129.058 551.124 127.847 548.67 125.424C546.217 123.001 544.99 120.042 544.99 116.546C544.99 113.05 546.217 110.091 548.67 107.668C551.124 105.245 554.19 104.034 557.87 104.034C561.55 104.034 564.617 105.245 567.07 107.668C569.524 110.091 570.75 113.05 570.75 116.546ZM554.052 116.546C554.052 118.631 554.374 120.379 555.018 121.79C555.662 123.17 556.613 123.86 557.87 123.86C559.189 123.86 560.155 123.185 560.768 121.836C561.382 120.487 561.688 118.723 561.688 116.546C561.688 114.43 561.366 112.682 560.722 111.302C560.078 109.922 559.128 109.232 557.87 109.232C556.582 109.232 555.616 109.922 554.972 111.302C554.359 112.651 554.052 114.399 554.052 116.546ZM585.145 109.922C585.176 109.769 585.207 109.631 585.237 109.508C585.299 109.385 585.329 109.309 585.329 109.278C585.115 109.155 584.839 109.094 584.501 109.094C583.336 109.094 582.431 109.861 581.787 111.394C581.174 112.897 580.959 114.568 581.143 116.408C581.297 117.972 581.695 119.275 582.339 120.318C583.014 121.33 583.827 122.02 584.777 122.388C585.728 122.756 586.771 122.925 587.905 122.894C589.071 122.863 590.19 122.679 591.263 122.342C592.367 121.974 593.41 121.499 594.391 120.916C594.637 120.732 594.851 120.717 595.035 120.87C595.189 121.023 595.235 121.269 595.173 121.606C595.02 122.189 594.683 122.863 594.161 123.63C593.671 124.366 593.011 125.163 592.183 126.022C591.355 126.85 590.251 127.54 588.871 128.092C587.522 128.675 586.065 128.966 584.501 128.966C581.005 128.966 578.031 127.739 575.577 125.286C573.155 122.833 571.943 119.873 571.943 116.408C571.943 113.035 573.093 110.152 575.393 107.76C577.724 105.337 580.637 104.049 584.133 103.896C586.863 103.835 589.025 104.264 590.619 105.184C593.257 104.571 596.369 104.218 599.957 104.126C603.576 104.034 606.321 104.08 608.191 104.264C610.062 104.417 611.58 104.571 612.745 104.724C612.991 104.755 613.144 104.908 613.205 105.184C613.297 105.552 613.343 105.997 613.343 106.518C613.374 107.929 612.929 109.017 612.009 109.784C611.089 110.551 610.123 110.995 609.111 111.118C608.099 111.241 607.087 111.225 606.075 111.072H606.029V118.662C606.029 120.318 606.183 121.652 606.489 122.664C606.827 123.645 607.179 124.243 607.547 124.458C607.915 124.673 608.222 124.872 608.467 125.056C608.743 125.209 608.835 125.409 608.743 125.654C608.467 126.451 607.762 127.203 606.627 127.908C605.523 128.583 604.358 128.92 603.131 128.92C601.261 128.92 599.727 128.291 598.531 127.034C597.335 125.746 596.737 124.044 596.737 121.928V110.658H594.253C593.977 111.885 593.364 112.912 592.413 113.74C591.463 114.537 590.42 114.936 589.285 114.936C587.967 114.936 586.863 114.43 585.973 113.418C585.115 112.406 584.839 111.241 585.145 109.922ZM639.38 118.754C639.38 120.41 639.533 121.744 639.84 122.756C640.177 123.737 640.53 124.335 640.898 124.55C641.266 124.765 641.573 124.964 641.818 125.148C642.094 125.301 642.186 125.501 642.094 125.746C641.818 126.543 641.128 127.295 640.024 128C638.92 128.675 637.755 129.012 636.528 129.012C634.933 129.012 633.569 128.552 632.434 127.632C631.299 126.681 630.579 125.378 630.272 123.722C629.383 125.531 628.263 126.865 626.914 127.724C625.565 128.583 624.2 129.012 622.82 129.012C621.072 129.012 619.585 128.307 618.358 126.896C617.131 125.485 616.518 123.661 616.518 121.422V114.246C616.518 112.897 616.395 111.777 616.15 110.888C615.905 109.968 615.613 109.339 615.276 109.002C614.969 108.634 614.647 108.358 614.31 108.174C614.003 107.99 613.773 107.852 613.62 107.76C613.436 107.637 613.375 107.469 613.436 107.254C613.712 106.457 614.402 105.721 615.506 105.046C616.61 104.341 617.775 103.988 619.002 103.988C620.934 103.988 622.544 104.632 623.832 105.92C625.151 107.177 625.81 108.864 625.81 110.98V119.904C625.81 121.56 626.27 122.449 627.19 122.572C627.987 122.695 628.708 122.158 629.352 120.962C629.843 120.073 630.103 119.015 630.134 117.788V105.138L630.318 104.862H639.564C639.687 104.893 639.748 104.969 639.748 105.092C639.503 112.084 639.38 116.638 639.38 118.754Z" fill="#C70E25"/>
<path d="M1078 76.7341C1078.01 69.9121 1080.8 63.3737 1085.76 58.5505C1090.71 53.7273 1097.42 51.0123 1104.42 51H1165.42V64.081H1104.44C1101 64.0954 1097.7 65.4328 1095.27 67.8024C1092.83 70.172 1091.46 73.382 1091.44 76.7341L1091.36 98.6942C1091.08 101.508 1089.86 104.152 1087.87 106.215C1085.89 108.277 1083.26 109.641 1080.4 110.094L1078 110.452V76.7341Z" fill="#C70E25"/>
<path d="M1078 136V122.919H1139C1142.44 122.902 1145.74 121.563 1148.17 119.192C1150.6 116.821 1151.98 113.611 1151.99 110.258V89.4185C1152.01 86.3951 1153.13 83.4759 1155.15 81.1824C1157.17 78.8888 1159.97 77.3702 1163.03 76.8977L1165.43 76.5475V110.258C1165.41 117.081 1162.63 123.62 1157.67 128.444C1152.72 133.269 1146.01 135.985 1139.01 136H1078Z" fill="#C70E25"/>
<path d="M1129.68 110.499V93.5896L1121.72 102.842L1113.77 93.5896V110.499H1103.24V77.2247H1113.21L1121.72 87.9245L1130.23 77.2247H1140.2V110.499H1129.68Z" fill="#C70E25"/>
<path d="M240.8 228H245V222.696H247.928C251.264 222.696 253.52 220.2 253.52 216.744C253.52 213.288 251.264 210.84 247.928 210.84H240.8V228ZM245 219.096V214.44H247.136C248.528 214.44 249.248 215.376 249.248 216.744C249.248 218.112 248.528 219.096 247.064 219.096H245ZM255.8 228H266.888V224.4H260V221.16H265.232V217.56H260V214.44H266.552V210.84H255.8V228ZM269.628 228H273.828V214.44H280.14V210.84H269.628V228ZM282.191 228H286.415L291.191 220.008C291.863 218.88 292.631 217.08 292.631 217.08H292.679C292.679 217.08 292.487 218.928 292.487 220.008V228H296.687V210.84H292.439L287.687 218.856C287.015 219.984 286.247 221.784 286.247 221.784H286.199C286.199 221.784 286.391 219.936 286.391 218.856V210.84H282.191V228ZM299.372 219.384C299.372 224.472 302.852 228.288 308.372 228.288C311.516 228.288 313.772 226.968 315.284 225.408L313.124 222.336C311.948 223.512 310.268 224.448 308.564 224.448C305.252 224.448 303.716 221.832 303.716 219.288C303.716 216.816 305.132 214.392 308.564 214.392C310.1 214.392 311.756 215.184 312.86 216.144L314.804 212.976C313.124 211.32 310.676 210.552 308.372 210.552C303.068 210.552 299.372 214.392 299.372 219.384ZM321.137 228H325.337V214.44H330.545V210.84H315.929V214.44H321.137V228ZM332.652 228H336.852V222.696H339.78C343.116 222.696 345.372 220.2 345.372 216.744C345.372 213.288 343.116 210.84 339.78 210.84H332.652V228ZM336.852 219.096V214.44H338.988C340.38 214.44 341.1 215.376 341.1 216.744C341.1 218.112 340.38 219.096 338.916 219.096H336.852ZM347.652 228H351.876L356.652 220.008C357.324 218.88 358.092 217.08 358.092 217.08H358.14C358.14 217.08 357.948 218.928 357.948 220.008V228H362.148V210.84H357.9L353.148 218.856C352.476 219.984 351.708 221.784 351.708 221.784H351.66C351.66 221.784 351.852 219.936 351.852 218.856V210.84H347.652V228ZM365.745 228H369.945V222.696H372.873C376.209 222.696 378.465 220.2 378.465 216.744C378.465 213.288 376.209 210.84 372.873 210.84H365.745V228ZM369.945 219.096V214.44H372.081C373.473 214.44 374.193 215.376 374.193 216.744C374.193 218.112 373.473 219.096 372.009 219.096H369.945ZM380.124 226.992C381.324 227.832 382.524 228.288 384.036 228.288C387.06 228.288 388.38 225.72 389.172 223.704L394.236 210.84H389.82L387.708 217.032C387.3 218.232 387.036 219.312 387.036 219.312H386.988C386.988 219.312 386.628 218.232 386.052 217.008L383.196 210.84H378.588L385.212 223.824C384.972 224.4 384.516 224.712 383.844 224.712C383.052 224.712 382.404 224.232 381.948 223.848L380.124 226.992ZM403.257 210.072C405.681 210.072 407.793 208.752 407.793 206.4V206.136H404.745V206.424C404.745 207.408 403.953 207.84 403.257 207.84C402.537 207.84 401.769 207.408 401.769 206.424V206.136H398.697V206.4C398.697 208.752 400.809 210.072 403.257 210.072ZM395.769 228H399.993L404.769 220.008C405.441 218.88 406.209 217.08 406.209 217.08H406.257C406.257 217.08 406.065 218.928 406.065 220.008V228H410.265V210.84H406.017L401.265 218.856C400.593 219.984 399.825 221.784 399.825 221.784H399.777C399.777 221.784 399.969 219.936 399.969 218.856V210.84H395.769V228ZM242.834 246.832C243.734 246.832 244.724 246.526 245.3 246.166H245.336C245.336 246.166 245.318 246.454 245.318 246.706V250H247.064V240.892H245.318V244.672C244.94 244.942 244.202 245.32 243.302 245.32C241.808 245.32 241.484 244.51 241.484 243.61V240.892H239.774V243.862C239.774 245.806 240.89 246.832 242.834 246.832ZM249.178 245.446C249.178 248.146 251.158 250.216 254.02 250.216C255.28 250.216 256.666 249.73 257.548 248.92L256.81 247.642C256.09 248.29 255.1 248.704 254.128 248.704C252.49 248.704 251.086 247.642 250.996 245.68H257.62C257.656 245.428 257.692 245.176 257.692 244.942C257.692 242.602 256.324 240.676 253.75 240.676C251.158 240.676 249.178 242.548 249.178 245.446ZM251.05 244.42C251.302 242.908 252.364 242.026 253.714 242.026C254.902 242.026 255.874 242.854 255.928 244.42H251.05ZM259.791 250H261.537V246.058H262.851L265.569 250H267.639L264.237 245.266V245.23L267.279 240.892H265.299L262.815 244.564H261.537V240.892H259.791V250ZM273.696 250H275.442V246.094H280.05V250H281.796V240.892H280.05V244.6H275.442V240.892H273.696V250ZM283.733 247.516C283.733 249.226 285.191 250.216 286.775 250.216C288.125 250.216 289.241 249.406 289.763 248.362H289.799C289.799 248.362 289.745 248.668 289.745 249.082V250H291.383V244.24C291.383 241.936 290.069 240.676 287.783 240.676C286.505 240.676 285.119 241.144 284.381 241.756L285.083 243.034C285.821 242.512 286.739 242.152 287.639 242.152C288.773 242.152 289.637 242.656 289.637 244.15V244.33H289.169C287.279 244.33 283.733 244.654 283.733 247.516ZM285.479 247.372C285.479 245.698 287.891 245.59 289.187 245.59H289.637V245.932C289.637 247.282 288.719 248.83 287.189 248.83C286.055 248.83 285.479 248.092 285.479 247.372ZM298.463 253.6H300.209V249.46C300.209 248.992 300.137 248.668 300.137 248.668H300.173C300.803 249.64 301.847 250.216 302.999 250.216C305.393 250.216 307.121 248.344 307.121 245.446C307.121 242.62 305.591 240.676 303.125 240.676C301.793 240.676 300.641 241.288 300.065 242.386H300.029C300.029 242.386 300.083 242.08 300.083 241.702V240.892H298.463V253.6ZM300.155 245.482C300.155 243.178 301.415 242.206 302.783 242.206C304.295 242.206 305.357 243.484 305.357 245.464C305.357 247.534 304.169 248.704 302.729 248.704C301.055 248.704 300.155 247.102 300.155 245.482ZM309.274 250H311.02V246.22C311.02 244.456 311.848 242.512 313.81 242.512C313.99 242.512 314.242 242.53 314.314 242.548V240.82C314.17 240.802 314.008 240.784 313.846 240.784C312.442 240.784 311.38 241.882 310.948 243.196H310.912C310.912 243.196 310.966 242.908 310.966 242.53V240.892H309.274V250ZM315.166 245.428C315.166 248.2 317.362 250.216 320.08 250.216C322.78 250.216 324.976 248.2 324.976 245.428C324.976 242.674 322.78 240.676 320.062 240.676C317.362 240.676 315.166 242.674 315.166 245.428ZM316.948 245.428C316.948 243.538 318.352 242.188 320.08 242.188C321.79 242.188 323.212 243.538 323.212 245.428C323.212 247.336 321.79 248.704 320.08 248.704C318.352 248.704 316.948 247.336 316.948 245.428ZM327.08 250H328.826V245.752C328.826 244.06 329.834 242.26 331.562 242.26C332.948 242.26 333.128 243.358 333.128 244.546V250H334.874V245.752C334.874 244.006 335.882 242.26 337.574 242.26C338.924 242.26 339.176 243.268 339.176 244.546V250H340.922V244.168C340.922 241.846 339.986 240.676 337.916 240.676C336.44 240.676 335.18 241.684 334.676 242.746H334.64C334.334 241.378 333.452 240.676 331.922 240.676C330.482 240.676 329.186 241.756 328.754 242.818H328.718C328.718 242.818 328.772 242.512 328.772 242.134V240.892H327.08V250ZM342.94 245.428C342.94 248.2 345.136 250.216 347.854 250.216C350.554 250.216 352.75 248.2 352.75 245.428C352.75 242.674 350.554 240.676 347.836 240.676C345.136 240.676 342.94 242.674 342.94 245.428ZM344.722 245.428C344.722 243.538 346.126 242.188 347.854 242.188C349.564 242.188 350.986 243.538 350.986 245.428C350.986 247.336 349.564 248.704 347.854 248.704C346.126 248.704 344.722 247.336 344.722 245.428ZM354.764 250H356.636V248.11H354.764V250ZM359.248 250H360.994V245.752C360.994 244.06 362.002 242.26 363.73 242.26C365.116 242.26 365.296 243.358 365.296 244.546V250H367.042V245.752C367.042 244.006 368.05 242.26 369.742 242.26C371.092 242.26 371.344 243.268 371.344 244.546V250H373.09V244.168C373.09 241.846 372.154 240.676 370.084 240.676C368.608 240.676 367.348 241.684 366.844 242.746H366.808C366.502 241.378 365.62 240.676 364.09 240.676C362.65 240.676 361.354 241.756 360.922 242.818H360.886C360.886 242.818 360.94 242.512 360.94 242.134V240.892H359.248V250ZM375.666 239.056H377.466V237.292H375.666V239.056ZM375.702 250H377.448V240.892H375.702V250ZM380.131 247.498C380.131 249.802 381.571 250.09 382.579 250.09C382.831 250.09 383.029 250.054 383.155 250.036V248.488C383.047 248.506 382.921 248.506 382.849 248.506C382.309 248.506 381.859 248.29 381.859 247.21V237.292H380.131V247.498ZM384.93 250H386.676V245.734H388.008L390.726 250H392.76L389.394 244.942V244.906L392.418 240.892H390.438L387.972 244.24H386.676V237.292H384.93V250ZM393.49 247.516C393.49 249.226 394.948 250.216 396.532 250.216C397.882 250.216 398.998 249.406 399.52 248.362H399.556C399.556 248.362 399.502 248.668 399.502 249.082V250H401.14V244.24C401.14 241.936 399.826 240.676 397.54 240.676C396.262 240.676 394.876 241.144 394.138 241.756L394.84 243.034C395.578 242.512 396.496 242.152 397.396 242.152C398.53 242.152 399.394 242.656 399.394 244.15V244.33H398.926C397.036 244.33 393.49 244.654 393.49 247.516ZM395.236 247.372C395.236 245.698 397.648 245.59 398.944 245.59H399.394V245.932C399.394 247.282 398.476 248.83 396.946 248.83C395.812 248.83 395.236 248.092 395.236 247.372ZM403.649 250H405.521V248.11H403.649V250ZM408.133 250H409.879V246.22C409.879 244.456 410.707 242.512 412.669 242.512C412.849 242.512 413.101 242.53 413.173 242.548V240.82C413.029 240.802 412.867 240.784 412.705 240.784C411.301 240.784 410.239 241.882 409.807 243.196H409.771C409.771 243.196 409.825 242.908 409.825 242.53V240.892H408.133V250ZM414.793 246.724C414.793 249.136 415.855 250.216 417.907 250.216C419.689 250.216 420.895 248.974 421.291 248.074H421.327C421.327 248.074 421.255 248.38 421.255 248.74V250H422.947V240.892H421.219V245.158C421.219 246.958 420.121 248.596 418.249 248.596C416.809 248.596 416.539 247.588 416.539 246.328V240.892H414.793V246.724Z" fill="white"/>
<circle cx="177" cy="228" r="32" fill="white"/>
<path d="M178.703 216.97C178.703 216.646 178.703 216.97 178.379 217.294C178.379 216.97 178.973 215.674 179.297 215.026C179.297 215.026 179.621 215.026 179.945 214.702C179.945 215.026 179.621 215.35 179.621 215.674C178.811 219.562 177.623 223.126 176.435 226.69C175.841 228.958 175.247 231.226 174.653 233.494C174.059 235.438 173.465 237.058 173.195 239.002C172.925 239.326 172.925 239.65 172.601 239.974C172.277 240.298 172.601 240.946 172.655 241.27C172.979 241.594 172.979 241.918 173.303 241.918C173.303 241.918 173.627 241.918 173.627 242.242C174.005 242.89 174.653 243.862 175.625 244.186C175.949 243.862 175.949 243.538 176.273 243.538C176.921 242.89 177.191 241.918 177.515 241.27C177.785 240.622 178.109 239.974 178.379 239.002C178.379 239.002 178.379 238.678 178.703 238.354C179.351 237.706 179.621 236.41 180.215 235.438C180.539 234.79 180.863 234.466 181.187 233.818C181.457 232.846 181.727 231.874 182.375 230.578C182.645 229.282 182.915 227.986 183.563 226.69C183.833 225.394 184.103 223.774 184.049 222.154C184.049 221.83 184.049 221.506 183.995 221.182C184.319 220.858 184.319 220.21 184.319 219.886C184.265 218.266 184.211 216.97 183.833 215.35C183.833 214.702 183.509 214.054 182.807 213.082L182.483 212.758C182.159 212.758 181.835 212.758 181.511 212.758C181.187 212.758 181.187 212.758 180.863 212.758C180.539 212.758 180.539 213.082 180.215 213.082C179.891 213.082 179.567 213.082 179.243 213.406C178.973 214.054 178.325 214.378 178.001 214.702C177.677 215.35 177.407 215.998 176.759 216.646C176.165 217.618 175.301 218.968 174.707 219.94C172.493 222.856 172.115 223.936 170.441 225.826C169.793 226.474 169.253 227.662 168.605 228.148C169.577 229.12 170.549 229.444 171.845 229.12C172.169 228.796 172.979 228.904 173.249 228.256C175.031 226.906 175.679 224.368 176.327 223.45C176.327 223.45 176.651 223.126 176.597 222.802C176.273 222.154 176.921 221.506 177.191 221.182C177.191 220.858 177.515 220.534 177.515 219.886C178.109 218.914 178.433 217.942 178.703 216.97Z" fill="#C70E25"/>
<path d="M800.8 228H807.112C810.52 228 813.64 226.632 813.64 222.888C813.64 221.376 812.92 219.624 810.952 219.024V218.976C812.248 218.232 812.944 216.768 812.944 215.328C812.944 212.376 810.544 210.84 807.112 210.84H800.8V228ZM805 217.488V214.44H807.088C808.216 214.44 808.672 215.112 808.672 215.904C808.672 216.72 808.216 217.488 807.16 217.488H805ZM805 224.4V220.848H807.544C808.768 220.848 809.344 221.64 809.344 222.6C809.344 223.56 808.744 224.4 807.52 224.4H805ZM830.739 228H834.939V210.84H830.739V228ZM816.339 228H823.227C826.563 228 828.819 225.552 828.819 222.096C828.819 218.64 826.563 216.144 823.227 216.144H820.539V210.84H816.339V228ZM820.539 224.4V219.744H822.363C823.827 219.744 824.547 220.728 824.547 222.096C824.547 223.464 823.827 224.4 822.435 224.4H820.539ZM838.534 228H842.758L847.534 220.008C848.206 218.88 848.974 217.08 848.974 217.08H849.022C849.022 217.08 848.83 218.928 848.83 220.008V228H853.03V210.84H848.782L844.03 218.856C843.358 219.984 842.59 221.784 842.59 221.784H842.542C842.542 221.784 842.734 219.936 842.734 218.856V210.84H838.534V228ZM856.628 228H860.828V214.44H867.14V210.84H856.628V228ZM869.191 228H873.391V222.696H876.319C879.655 222.696 881.911 220.2 881.911 216.744C881.911 213.288 879.655 210.84 876.319 210.84H869.191V228ZM873.391 219.096V214.44H875.527C876.919 214.44 877.639 215.376 877.639 216.744C877.639 218.112 876.919 219.096 875.455 219.096H873.391ZM881.498 228H885.818L886.85 224.4H892.202L893.258 228H897.578L891.746 210.84H887.33L881.498 228ZM887.834 221.04L888.818 217.704C889.13 216.624 889.514 214.752 889.514 214.752H889.562C889.562 214.752 889.946 216.624 890.258 217.704L891.218 221.04H887.834ZM906.796 210.072C909.22 210.072 911.332 208.752 911.332 206.4V206.136H908.284V206.424C908.284 207.408 907.492 207.84 906.796 207.84C906.076 207.84 905.308 207.408 905.308 206.424V206.136H902.236V206.4C902.236 208.752 904.348 210.072 906.796 210.072ZM899.308 228H903.532L908.308 220.008C908.98 218.88 909.748 217.08 909.748 217.08H909.796C909.796 217.08 909.604 218.928 909.604 220.008V228H913.804V210.84H909.556L904.804 218.856C904.132 219.984 903.364 221.784 903.364 221.784H903.316C903.316 221.784 903.508 219.936 903.508 218.856V210.84H899.308V228ZM929.402 228H933.602V221.04H935.33L938.954 228H943.658L938.762 219.096V219.048L943.394 210.84H938.882L935.33 217.464H933.602V210.84H929.402V228ZM945.093 226.992C946.293 227.832 947.493 228.288 949.005 228.288C952.029 228.288 953.349 225.72 954.141 223.704L959.205 210.84H954.789L952.677 217.032C952.269 218.232 952.005 219.312 952.005 219.312H951.957C951.957 219.312 951.597 218.232 951.021 217.008L948.165 210.84H943.557L950.181 223.824C949.941 224.4 949.485 224.712 948.813 224.712C948.021 224.712 947.373 224.232 946.917 223.848L945.093 226.992ZM960.738 228H964.938V214.416H971.034V228H975.234V210.84H960.738V228ZM977.895 219.312C977.895 224.352 981.687 228.288 986.871 228.288C992.055 228.288 995.847 224.352 995.847 219.312C995.847 214.392 992.055 210.552 986.871 210.552C981.687 210.552 977.895 214.392 977.895 219.312ZM982.239 219.312C982.239 216.504 984.303 214.392 986.871 214.392C989.439 214.392 991.503 216.504 991.503 219.312C991.503 222.24 989.439 224.448 986.871 224.448C984.303 224.448 982.239 222.24 982.239 219.312ZM998.519 228H1002.72V221.28H1008.96V228H1013.16V210.84H1008.96V217.704H1002.72V210.84H998.519V228ZM1031.15 228H1035.35V210.84H1031.15V228ZM1016.75 228H1023.64C1026.98 228 1029.23 225.552 1029.23 222.096C1029.23 218.64 1026.98 216.144 1023.64 216.144H1020.95V210.84H1016.75V228ZM1020.95 224.4V219.744H1022.78C1024.24 219.744 1024.96 220.728 1024.96 222.096C1024.96 223.464 1024.24 224.4 1022.85 224.4H1020.95ZM800.35 250H802.096V246.094H806.704V250H808.45V240.892H806.704V244.6H802.096V240.892H800.35V250ZM810.387 247.516C810.387 249.226 811.845 250.216 813.429 250.216C814.779 250.216 815.895 249.406 816.417 248.362H816.453C816.453 248.362 816.399 248.668 816.399 249.082V250H818.037V244.24C818.037 241.936 816.723 240.676 814.437 240.676C813.159 240.676 811.773 241.144 811.035 241.756L811.737 243.034C812.475 242.512 813.393 242.152 814.293 242.152C815.427 242.152 816.291 242.656 816.291 244.15V244.33H815.823C813.933 244.33 810.387 244.654 810.387 247.516ZM812.133 247.372C812.133 245.698 814.545 245.59 815.841 245.59H816.291V245.932C816.291 247.282 815.373 248.83 813.843 248.83C812.709 248.83 812.133 248.092 812.133 247.372ZM825.118 250H826.864V242.386H831.328V250H833.074V240.892H825.118V250ZM835.77 253.6H837.516V249.46C837.516 248.992 837.444 248.668 837.444 248.668H837.48C838.11 249.64 839.154 250.216 840.306 250.216C842.7 250.216 844.428 248.344 844.428 245.446C844.428 242.62 842.898 240.676 840.432 240.676C839.1 240.676 837.948 241.288 837.372 242.386H837.336C837.336 242.386 837.39 242.08 837.39 241.702V240.892H835.77V253.6ZM837.462 245.482C837.462 243.178 838.722 242.206 840.09 242.206C841.602 242.206 842.664 243.484 842.664 245.464C842.664 247.534 841.476 248.704 840.036 248.704C838.362 248.704 837.462 247.102 837.462 245.482ZM845.986 245.428C845.986 248.2 848.182 250.216 850.9 250.216C853.6 250.216 855.796 248.2 855.796 245.428C855.796 242.674 853.6 240.676 850.882 240.676C848.182 240.676 845.986 242.674 845.986 245.428ZM847.768 245.428C847.768 243.538 849.172 242.188 850.9 242.188C852.61 242.188 854.032 243.538 854.032 245.428C854.032 247.336 852.61 248.704 850.9 248.704C849.172 248.704 847.768 247.336 847.768 245.428ZM859.454 248.56C860.606 246.76 860.75 244.168 860.75 242.8V242.314H863.486V248.56H859.454ZM856.538 248.56V252.16H858.176V250H864.926V252.16H866.528V248.56H865.232V240.892H859.076V242.566C859.076 243.97 858.932 246.814 857.654 248.56H856.538ZM867.664 251.89L867.052 253.222C867.052 253.222 867.79 253.78 868.798 253.78C870.076 253.78 871.21 253.06 871.75 251.638L876.034 240.892H874.144L871.93 246.868C871.768 247.336 871.624 247.948 871.624 247.948H871.588C871.588 247.948 871.426 247.3 871.246 246.85L868.96 240.892H866.998L870.814 249.892L870.364 250.936C870.022 251.764 869.428 252.286 868.708 252.286C868.168 252.286 867.664 251.89 867.664 251.89ZM877.746 250H879.492V246.058H880.806L883.524 250H885.594L882.192 245.266V245.23L885.234 240.892H883.254L880.77 244.564H879.492V240.892H877.746V250ZM887.151 250H894.675V252.16H896.277V248.488H894.999V240.892H893.235V248.488H888.897V240.892H887.151V250ZM898.137 250H899.811L903.753 244.564C904.041 244.132 904.491 243.52 904.545 243.358H904.581C904.581 243.502 904.527 244.132 904.527 244.564V250H906.219V240.892H904.527L900.603 246.328C900.297 246.76 899.865 247.39 899.793 247.552H899.757C899.775 247.462 899.811 246.814 899.811 246.328V240.892H898.137V250ZM908.895 250H910.641V246.148H912.297C912.621 248.524 914.547 250.216 916.959 250.216C919.587 250.216 921.693 248.2 921.693 245.428C921.693 242.674 919.587 240.676 916.941 240.676C914.547 240.676 912.621 242.35 912.297 244.708H910.641V240.892H908.895V250ZM913.989 245.428C913.989 243.538 915.303 242.188 916.959 242.188C918.597 242.188 919.911 243.538 919.911 245.428C919.911 247.336 918.597 248.704 916.959 248.704C915.303 248.704 913.989 247.336 913.989 245.428ZM928.139 250H929.921L930.533 241.99C930.605 241.216 930.569 240.082 930.569 240.082H930.605C930.605 240.082 931.001 241.306 931.289 241.99L933.809 247.714H935.393L937.931 241.99C938.219 241.288 938.615 240.118 938.615 240.118H938.651C938.651 240.118 938.615 241.216 938.687 241.99L939.299 250H941.063L940.037 237.292H938.183L935.249 244.168C934.961 244.87 934.619 245.878 934.619 245.878H934.583C934.583 245.878 934.259 244.87 933.971 244.168L931.037 237.292H929.183L928.139 250ZM943.488 239.056H945.288V237.292H943.488V239.056ZM943.524 250H945.27V240.892H943.524V250ZM947.954 247.498C947.954 249.802 949.394 250.09 950.402 250.09C950.654 250.09 950.852 250.054 950.978 250.036V248.488C950.87 248.506 950.744 248.506 950.672 248.506C950.132 248.506 949.682 248.29 949.682 247.21V237.292H947.954V247.498ZM952.752 250H954.498V245.734H955.83L958.548 250H960.582L957.216 244.942V244.906L960.24 240.892H958.26L955.794 244.24H954.498V237.292H952.752V250ZM961.313 247.516C961.313 249.226 962.771 250.216 964.355 250.216C965.705 250.216 966.821 249.406 967.343 248.362H967.379C967.379 248.362 967.325 248.668 967.325 249.082V250H968.963V244.24C968.963 241.936 967.649 240.676 965.363 240.676C964.085 240.676 962.699 241.144 961.961 241.756L962.663 243.034C963.401 242.512 964.319 242.152 965.219 242.152C966.353 242.152 967.217 242.656 967.217 244.15V244.33H966.749C964.859 244.33 961.313 244.654 961.313 247.516ZM963.059 247.372C963.059 245.698 965.471 245.59 966.767 245.59H967.217V245.932C967.217 247.282 966.299 248.83 964.769 248.83C963.635 248.83 963.059 248.092 963.059 247.372Z" fill="white"/>
<circle cx="737" cy="228" r="32" fill="white"/>
<path d="M742.283 229.12C742.553 228.634 742.715 228.202 743.093 227.932C743.039 227.77 743.309 227.662 743.633 227.662C743.849 227.392 743.525 227.176 743.525 227.176C744.173 226.852 744.065 226.312 744.281 225.988C744.983 224.584 744.875 222.748 744.983 221.398C745.037 220.372 744.443 219.616 744.065 218.266C743.741 218.32 743.687 218.158 743.687 217.888C743.039 217.672 741.905 216.97 741.581 216.538C740.987 215.998 740.285 215.566 739.691 215.35C739.043 215.134 738.719 215.026 738.503 215.026C737.531 214.54 736.991 215.026 736.127 215.08C733.211 215.674 729.917 220.426 730.025 221.83C730.079 222.262 729.593 222.64 729.971 223.288C729.971 223.288 729.971 223.504 730.025 223.72C730.619 223.882 730.943 224.638 731.429 224.584C732.455 225.07 733.427 225.286 734.453 224.26C734.453 224.26 734.723 223.99 735.047 223.99C735.857 223.342 736.775 217.78 738.827 218.266C739.745 218.482 740.015 219.454 739.853 220.264C739.691 221.668 739.367 221.992 738.827 223.126C737.477 227.014 735.209 230.038 732.455 233.548C731.645 234.79 729.971 236.626 728.891 237.598C728.405 238.57 727.595 240.73 729.323 241.162C729.323 241.432 729.971 241.972 730.295 241.918C730.295 241.918 730.565 241.918 730.943 241.81C731.699 242.026 732.455 242.242 733.319 242.08C733.859 242.026 734.723 241.972 735.641 242.08C736.559 242.35 737.423 241.594 738.287 241.54C739.691 241.378 739.313 241.918 740.879 241.486C743.093 240.892 745.037 241.702 746.225 242.08C746.495 242.026 746.549 240.73 745.739 240.082C744.065 238.732 741.365 238.03 738.935 238.354C738.665 238.354 734.939 238.678 734.885 238.408C737.261 235.708 739.529 233.44 741.581 230.578C741.797 229.984 742.121 229.66 742.283 229.12Z" fill="#C70E25"/>
<defs>
<filter id="filter0_d" x="0" y="0" width="1233" height="312" filterUnits="userSpaceOnUse" color-interpolation-filters="sRGB">
<feFlood flood-opacity="0" result="BackgroundImageFix"/>
<feColorMatrix in="SourceAlpha" type="matrix" values="0 0 0 0 0 0 0 0 0 0 0 0 0 0 0 0 0 0 127 0"/>
<feOffset/>
<feGaussianBlur stdDeviation="7"/>
<feColorMatrix type="matrix" values="0 0 0 0 0.231373 0 0 0 0 0.172549 0 0 0 0 0.447059 0 0 0 0.7 0"/>
<feBlend mode="normal" in2="BackgroundImageFix" result="effect1_dropShadow"/>
<feBlend mode="normal" in="SourceGraphic" in2="effect1_dropShadow" result="shape"/>
</filter>
</defs>
</svg>
