<svg width="368" height="512" viewBox="0 0 368 512" fill="none" xmlns="http://www.w3.org/2000/svg">
<g filter="url(#filter0_d)">
<rect x="14" y="14" width="340" height="484" rx="20" fill="#C70E25"/>
</g>
<rect x="16" y="16" width="336" height="220" rx="18" fill="white" stroke="#C70E25" stroke-width="4"/>
<path d="M157 49.0628C157.009 44.8046 158.75 40.7235 161.841 37.7129C164.932 34.7023 169.121 33.0077 173.492 33H211.565V41.165H173.502C171.354 41.1739 169.297 42.0087 167.778 43.4878C166.259 44.9668 165.401 46.9705 165.39 49.0628L165.341 62.77C165.167 64.5261 164.401 66.1767 163.163 67.4642C161.924 68.7515 160.283 69.6029 158.496 69.8858L157 70.1092V49.0628Z" fill="#C70E25"/>
<path d="M157.001 86.0556V77.8904H195.075C197.223 77.8803 199.28 77.0443 200.799 75.5646C202.317 74.0846 203.176 72.0805 203.186 69.9879V56.9802C203.197 55.093 203.895 53.271 205.157 51.8393C206.419 50.4077 208.163 49.4598 210.076 49.1649L211.571 48.9464V69.9879C211.562 74.2466 209.822 78.3282 206.731 81.3395C203.64 84.3509 199.451 86.0464 195.08 86.0556H157.001Z" fill="#C70E25"/>
<path d="M189.255 70.1384V59.5837L184.289 65.359L179.329 59.5837V70.1384H172.753V49.369H178.98L184.289 56.0477L189.599 49.369H195.825V70.1384H189.255Z" fill="#C70E25"/>
<path d="M60.0441 184.999V184.957C60.2541 184.894 60.5271 184.747 60.8631 184.495C61.1991 184.264 61.5351 183.886 61.8711 183.361C62.2071 182.836 62.3961 182.269 62.3961 181.639C62.3961 180.652 61.9551 179.791 61.0941 179.077C60.2331 178.363 59.0361 178.006 57.5241 178.006C56.0121 178.006 54.7311 178.405 53.6391 179.182C52.5471 179.959 52.0221 180.631 52.0221 181.177C52.0221 181.345 52.1061 181.429 52.2741 181.429C52.3371 181.429 52.5681 181.324 52.9671 181.072C53.3451 180.82 53.8911 180.568 54.5631 180.316C55.2351 180.064 55.9491 179.938 56.7051 179.938C57.5451 179.938 58.3011 180.127 58.9311 180.505C59.5611 180.883 59.8761 181.45 59.8761 182.185C59.8761 182.437 59.8341 182.689 59.7501 182.899C59.6661 183.13 59.5821 183.319 59.4981 183.466C59.3931 183.634 59.2671 183.781 59.1411 183.907C58.9941 184.054 58.8681 184.159 58.7631 184.222C58.6581 184.306 58.5531 184.369 58.4691 184.432L58.3221 184.516C57.6921 184.348 57.2091 184.327 56.8731 184.411C56.5161 184.495 56.2641 184.621 56.1381 184.768C55.9911 184.936 55.9281 185.104 55.9281 185.293C55.9281 185.503 55.9911 185.671 56.1381 185.818C56.2851 185.965 56.5371 186.07 56.9151 186.133C57.2721 186.217 57.7551 186.133 58.3851 185.902L58.6581 186.028C58.8261 186.112 58.9941 186.196 59.1831 186.322C59.3721 186.448 59.5611 186.616 59.7711 186.826C59.9811 187.036 60.1491 187.309 60.2751 187.645C60.4011 187.981 60.4851 188.359 60.4851 188.779C60.4851 189.661 60.1701 190.354 59.5401 190.879C58.9101 191.404 58.0701 191.656 57.0621 191.656C56.2011 191.656 55.5081 191.446 55.0041 190.984C54.4791 190.522 54.2271 189.934 54.2271 189.199C54.2271 189.052 54.2481 188.8 54.3111 188.464C54.3111 188.359 54.2061 188.254 54.0171 188.128C53.8281 188.023 53.6181 187.96 53.3661 187.96C52.8201 187.96 52.4211 188.149 52.1691 188.485C51.9171 188.821 51.8121 189.22 51.8121 189.64C51.8121 190.774 52.2951 191.656 53.3031 192.307C54.3111 192.958 55.5711 193.273 57.1041 193.273C57.7761 193.273 58.4691 193.189 59.1411 193C59.8131 192.832 60.4641 192.559 61.0521 192.202C61.6401 191.845 62.1231 191.362 62.5011 190.753C62.8791 190.144 63.0681 189.451 63.0681 188.695C63.0681 188.17 62.9421 187.687 62.7321 187.225C62.5221 186.763 62.2491 186.385 61.9131 186.091C61.5771 185.797 61.2411 185.566 60.9261 185.398C60.6111 185.23 60.3171 185.083 60.0441 184.999ZM74.2959 190.123C74.2959 189.325 74.2959 188.023 74.3169 186.175C74.3169 184.348 74.3379 183.151 74.3379 182.584C74.3379 182.542 74.2959 182.521 74.2329 182.479C73.8969 182.416 73.5399 182.374 73.1619 182.374C72.8679 182.374 72.5529 182.416 72.2379 182.479C72.1539 182.521 72.1329 182.542 72.1329 182.584L72.0279 184.222H71.9649C71.6709 183.613 71.2299 183.13 70.6629 182.773C70.0959 182.437 69.4659 182.248 68.7729 182.248C67.5339 182.248 66.5049 182.815 65.6859 183.907C64.8669 184.999 64.4679 186.301 64.4679 187.792C64.4679 189.451 64.8459 190.774 65.6019 191.761C66.3579 192.769 67.3659 193.252 68.6049 193.252C69.3609 193.252 70.0329 193.063 70.6209 192.664C71.2089 192.265 71.6709 191.719 72.0069 191.005H72.0489C72.0489 192.517 72.6579 193.252 73.8339 193.252C74.3379 193.252 74.7789 193.105 75.1569 192.811C75.5349 192.517 75.7239 192.244 75.7239 191.95C75.7239 191.824 75.6609 191.761 75.5769 191.74C75.3249 191.74 75.1779 191.719 75.0939 191.698C75.0099 191.677 74.8839 191.614 74.7159 191.53C74.5479 191.446 74.4429 191.278 74.3799 191.047C74.3169 190.816 74.2959 190.501 74.2959 190.123ZM69.3189 191.656C68.6049 191.656 68.0169 191.32 67.5129 190.606C67.0089 189.913 66.7569 188.926 66.7779 187.645C66.7779 186.532 67.0509 185.608 67.5549 184.894C68.0589 184.18 68.6469 183.802 69.3399 183.802C70.1379 183.802 70.7889 184.222 71.2929 185.02C71.7969 185.839 72.0489 186.763 72.0489 187.813C72.0489 188.821 71.7759 189.724 71.2299 190.501C70.6839 191.278 70.0539 191.656 69.3189 191.656ZM77.7581 192.916C77.7581 193 77.7791 193.021 77.8631 193.021C78.1571 193.105 78.5141 193.147 78.9341 193.147C79.2281 193.147 79.5641 193.105 79.9421 193.021C80.0051 193.021 80.0471 193 80.0471 192.916V188.863C80.0471 187.54 80.3201 186.385 80.9081 185.398C81.4961 184.432 82.1261 183.907 82.8191 183.865C83.2601 183.844 83.6381 184.012 83.9321 184.348C84.2261 184.705 84.3731 185.293 84.3731 186.091V191.236C84.3731 191.887 84.5201 192.391 84.8351 192.748C85.1291 193.105 85.5701 193.273 86.1371 193.273C86.6831 193.273 87.1241 193.126 87.5021 192.79C87.8591 192.475 88.0481 192.202 88.0481 191.971C88.0481 191.866 87.9851 191.803 87.8801 191.761C87.8381 191.761 87.8171 191.761 87.7751 191.74C87.5441 191.719 87.3971 191.698 87.3341 191.677C87.2501 191.677 87.1451 191.614 86.9981 191.509C86.8511 191.404 86.7461 191.236 86.7041 191.005C86.6411 190.795 86.6201 190.501 86.6201 190.123V185.545C86.6201 184.453 86.3471 183.613 85.8431 183.046C85.3391 182.479 84.6251 182.206 83.7221 182.227C82.9661 182.269 82.2521 182.542 81.5801 183.046C80.9081 183.571 80.4041 184.264 80.0681 185.104H80.0051C80.0051 184.642 79.9841 184.285 79.9841 184.033C79.9001 182.836 79.3331 182.227 78.2831 182.227C77.7371 182.227 77.2751 182.395 76.9181 182.71C76.5611 183.025 76.3931 183.298 76.3931 183.529C76.3931 183.655 76.4351 183.739 76.5401 183.739C76.7501 183.76 76.9181 183.781 77.0021 183.802C77.0861 183.823 77.1911 183.865 77.3591 183.949C77.5271 184.033 77.6321 184.201 77.6951 184.411C77.7581 184.621 77.8001 184.915 77.8001 185.272C77.8001 187.918 77.7791 190.459 77.7581 192.916ZM98.9873 182.584C98.9873 182.521 98.9453 182.479 98.8823 182.479C98.6093 182.416 98.2733 182.374 97.8533 182.374C97.4753 182.374 97.1183 182.416 96.8243 182.479C96.7403 182.521 96.7193 182.563 96.7193 182.584V186.637C96.7193 188.002 96.4253 189.157 95.8583 190.123C95.2703 191.089 94.6403 191.593 93.9473 191.614C93.4853 191.656 93.1283 191.488 92.8343 191.152C92.5403 190.816 92.4143 190.228 92.4143 189.409V184.306C92.4143 183.676 92.2463 183.172 91.9313 182.794C91.6163 182.437 91.1753 182.248 90.6083 182.248C90.0623 182.248 89.6003 182.416 89.2433 182.731C88.8863 183.067 88.7183 183.34 88.7183 183.571C88.7183 183.718 88.7603 183.781 88.8653 183.781C89.0963 183.802 89.2433 183.823 89.3273 183.844C89.4113 183.865 89.5373 183.907 89.7053 183.991C89.8733 184.075 89.9783 184.243 90.0413 184.474C90.1043 184.705 90.1463 184.999 90.1463 185.377V189.913C90.1463 191.047 90.3983 191.887 90.9023 192.454C91.4063 193.021 92.1413 193.294 93.0653 193.252C93.8213 193.231 94.5143 192.979 95.1863 192.475C95.8583 191.971 96.3623 191.299 96.6983 190.417H96.7403V193.252C96.7403 194.365 96.4463 195.247 95.9003 195.898C95.3543 196.57 94.5563 196.885 93.5273 196.885C92.8763 196.885 92.3093 196.78 91.8053 196.57C91.3013 196.36 90.9023 196.129 90.6293 195.919C90.3353 195.709 90.1463 195.583 90.0623 195.583C89.9363 195.583 89.8943 195.646 89.8943 195.772C89.8943 196.255 90.2723 196.822 91.0493 197.452C91.8263 198.103 92.8553 198.418 94.1573 198.418C95.6693 198.418 96.8453 197.956 97.7063 196.99C98.5463 196.045 98.9873 194.722 98.9873 193.021V182.584ZM109.898 185.44C109.898 184.621 109.541 183.886 108.827 183.235C108.113 182.584 107.189 182.248 106.013 182.248C104.564 182.248 103.346 182.773 102.38 183.823C101.414 184.873 100.931 186.217 100.931 187.834C100.931 189.472 101.372 190.774 102.296 191.761C103.199 192.769 104.417 193.252 105.929 193.252C106.601 193.252 107.252 193.147 107.84 192.895C108.428 192.664 108.869 192.391 109.205 192.055C109.541 191.719 109.793 191.404 109.982 191.11C110.171 190.816 110.276 190.585 110.276 190.417C110.276 190.291 110.213 190.228 110.108 190.228C110.003 190.228 109.814 190.354 109.52 190.564C109.226 190.795 108.827 191.026 108.323 191.236C107.819 191.446 107.294 191.551 106.706 191.551C105.572 191.551 104.711 191.194 104.102 190.438C103.472 189.682 103.178 188.716 103.178 187.54C103.178 186.427 103.43 185.482 103.976 184.705C104.501 183.928 105.152 183.529 105.929 183.529C106.475 183.529 106.916 183.739 107.252 184.138C107.567 184.558 107.735 185.041 107.735 185.608C107.735 185.776 107.714 185.965 107.672 186.175C107.63 186.406 107.63 186.532 107.63 186.574C107.63 186.7 107.714 186.805 107.903 186.91C108.071 187.015 108.302 187.057 108.554 187.057C108.974 187.057 109.289 186.91 109.541 186.595C109.772 186.301 109.898 185.902 109.898 185.44ZM128.355 191.74C128.103 191.74 127.956 191.719 127.872 191.698C127.788 191.677 127.683 191.614 127.515 191.53C127.347 191.446 127.242 191.278 127.179 191.047C127.116 190.816 127.095 190.501 127.095 190.102V185.566C127.095 184.474 126.822 183.634 126.318 183.067C125.793 182.5 125.079 182.227 124.176 182.248C123.42 182.269 122.769 182.542 122.223 183.046C121.677 183.55 121.236 184.222 120.921 185.041H120.858C120.774 184.117 120.501 183.424 119.997 182.941C119.493 182.458 118.821 182.227 117.981 182.248C116.511 182.29 115.44 183.256 114.747 185.104H114.684C114.684 184.642 114.663 184.285 114.663 184.033C114.558 182.857 113.991 182.248 112.962 182.248C112.416 182.248 111.954 182.416 111.597 182.731C111.24 183.046 111.072 183.319 111.072 183.55C111.072 183.676 111.114 183.76 111.219 183.76C111.429 183.781 111.597 183.802 111.681 183.823C111.765 183.844 111.87 183.886 112.038 183.97C112.206 184.054 112.311 184.222 112.374 184.432C112.437 184.642 112.479 184.936 112.479 185.293C112.479 187.918 112.458 190.459 112.437 192.916C112.437 193 112.458 193.021 112.542 193.021C112.836 193.105 113.193 193.147 113.613 193.147C113.907 193.147 114.243 193.105 114.621 193.021C114.684 193.021 114.726 193 114.726 192.916V188.926C114.726 187.624 114.978 186.469 115.482 185.461C115.986 184.453 116.553 183.928 117.183 183.886C117.624 183.865 117.981 184.033 118.254 184.369C118.506 184.705 118.653 185.293 118.653 186.112V192.916C118.653 193 118.674 193.021 118.758 193.021C119.052 193.105 119.409 193.147 119.787 193.147C120.081 193.147 120.417 193.105 120.795 193.021C120.858 193.021 120.9 193 120.9 192.916V188.968C120.9 187.708 121.152 186.553 121.656 185.503C122.16 184.474 122.748 183.928 123.378 183.886C123.84 183.865 124.197 184.033 124.449 184.369C124.701 184.705 124.848 185.293 124.848 186.112V191.215C124.848 191.866 124.995 192.37 125.31 192.727C125.604 193.105 126.045 193.273 126.612 193.273C127.158 193.273 127.599 193.126 127.977 192.79C128.334 192.475 128.523 192.202 128.523 191.95C128.523 191.845 128.46 191.782 128.355 191.74ZM139.47 182.584C139.47 182.521 139.428 182.479 139.386 182.479C139.092 182.416 138.756 182.374 138.336 182.374C137.958 182.374 137.601 182.416 137.307 182.479C137.223 182.521 137.202 182.563 137.202 182.584V186.637C137.202 188.002 136.908 189.157 136.341 190.123C135.753 191.089 135.123 191.593 134.43 191.614C133.968 191.656 133.611 191.488 133.317 191.152C133.023 190.816 132.897 190.228 132.897 189.409V184.306C132.897 183.676 132.729 183.172 132.414 182.794C132.099 182.437 131.658 182.248 131.091 182.248C130.545 182.248 130.083 182.416 129.726 182.731C129.369 183.067 129.201 183.34 129.201 183.571C129.201 183.718 129.243 183.781 129.348 183.781C129.579 183.802 129.726 183.823 129.81 183.844C129.894 183.865 130.02 183.907 130.188 183.991C130.356 184.075 130.461 184.243 130.524 184.474C130.587 184.705 130.629 184.999 130.629 185.377V189.955C130.629 191.068 130.881 191.908 131.385 192.454C131.889 193.021 132.624 193.294 133.548 193.252C134.304 193.231 135.018 192.958 135.69 192.454C136.362 191.95 136.866 191.257 137.202 190.396H137.244C137.244 190.522 137.244 190.69 137.244 190.921C137.244 191.173 137.265 191.341 137.265 191.467C137.37 192.685 137.937 193.273 138.966 193.273C139.512 193.273 139.953 193.126 140.331 192.79C140.688 192.475 140.877 192.202 140.877 191.95C140.877 191.845 140.814 191.782 140.709 191.74C140.478 191.74 140.331 191.719 140.247 191.698C140.163 191.677 140.037 191.614 139.89 191.53C139.722 191.446 139.617 191.299 139.554 191.089C139.491 190.879 139.47 190.585 139.47 190.207V182.584ZM154.095 187.12V187.057C154.536 186.931 154.935 186.679 155.271 186.301C155.607 185.923 155.796 185.482 155.817 184.978C155.838 184.138 155.481 183.487 154.725 182.983C153.969 182.479 153.045 182.227 151.974 182.227C150.399 182.227 149.139 182.731 148.215 183.718C147.291 184.726 146.808 186.049 146.766 187.729C146.724 189.346 147.165 190.669 148.047 191.719C148.929 192.769 150.21 193.273 151.911 193.273C153.213 193.273 154.305 192.958 155.229 192.286C156.132 191.614 156.594 190.774 156.594 189.766C156.594 189.01 156.321 188.401 155.817 187.939C155.313 187.498 154.725 187.225 154.095 187.12ZM151.701 183.613C152.247 183.613 152.709 183.739 153.087 183.991C153.465 184.264 153.654 184.621 153.654 185.083C153.654 186.28 152.52 186.91 150.252 186.952H149.076C149.139 186.049 149.391 185.272 149.832 184.621C150.252 183.991 150.882 183.655 151.701 183.613ZM152.142 191.887C151.26 191.887 150.546 191.593 149.979 190.963C149.391 190.354 149.097 189.409 149.055 188.128C149.055 188.128 149.181 188.128 149.433 188.107C149.664 188.086 149.958 188.065 150.294 188.044C150.63 188.023 150.945 188.002 151.197 188.002C153.297 188.002 154.368 188.653 154.368 189.934C154.368 190.438 154.158 190.879 153.78 191.278C153.381 191.698 152.835 191.887 152.142 191.887ZM163.088 182.227C161.597 182.227 160.358 182.773 159.392 183.823C158.426 184.873 157.943 186.175 157.943 187.729C157.943 189.451 158.426 190.816 159.392 191.803C160.358 192.811 161.576 193.294 163.088 193.294C164.663 193.294 165.923 192.769 166.847 191.698C167.771 190.627 168.254 189.283 168.254 187.687C168.254 186.049 167.771 184.747 166.826 183.739C165.881 182.731 164.642 182.227 163.088 182.227ZM163.172 191.887C162.332 191.887 161.639 191.53 161.072 190.774C160.484 190.018 160.211 188.989 160.211 187.645C160.211 186.448 160.484 185.482 161.03 184.726C161.576 183.991 162.248 183.613 163.088 183.613C164.033 183.613 164.747 184.033 165.251 184.852C165.734 185.671 165.986 186.658 165.986 187.834C165.986 189.052 165.734 190.018 165.23 190.774C164.726 191.53 164.033 191.887 163.172 191.887ZM179.966 191.74C179.714 191.719 179.546 191.698 179.483 191.677C179.399 191.677 179.294 191.614 179.126 191.509C178.958 191.404 178.832 191.215 178.769 190.963C178.706 190.711 178.685 190.354 178.685 189.934C178.685 189.304 178.685 188.464 178.685 187.456C178.685 186.448 178.706 185.755 178.706 185.335C178.706 183.277 177.593 182.227 175.409 182.227C174.59 182.227 173.792 182.353 172.994 182.584C172.196 182.836 171.566 183.088 171.104 183.382C170.642 183.676 170.432 183.907 170.432 184.096C170.432 184.264 170.516 184.327 170.726 184.327C170.978 184.327 171.419 184.264 172.091 184.096C172.154 186.238 171.986 187.918 171.608 189.157C171.209 190.396 170.747 191.005 170.201 191.005C169.991 191.005 169.823 190.963 169.655 190.879C169.487 190.795 169.403 190.753 169.361 190.753C169.256 190.753 169.151 190.858 169.067 191.026C168.962 191.194 168.92 191.404 168.92 191.635C168.92 192.076 169.067 192.454 169.361 192.769C169.655 193.105 170.054 193.252 170.537 193.252C171.125 193.252 171.65 193 172.07 192.496C172.49 191.992 172.784 191.299 172.994 190.438C173.183 189.598 173.309 188.611 173.393 187.477C173.477 186.364 173.477 185.188 173.393 183.97C174.338 183.802 175.073 183.886 175.619 184.201C176.165 184.516 176.417 185.188 176.417 186.196V191.215C176.417 191.866 176.564 192.37 176.879 192.727C177.194 193.084 177.635 193.252 178.223 193.252C178.769 193.252 179.21 193.105 179.567 192.769C179.924 192.454 180.113 192.181 180.113 191.929C180.113 191.824 180.05 191.761 179.966 191.74ZM188.653 191.215C188.653 191.866 188.8 192.37 189.115 192.727C189.409 193.105 189.85 193.273 190.417 193.273C190.963 193.273 191.404 193.126 191.782 192.79C192.139 192.475 192.328 192.202 192.328 191.95C192.328 191.845 192.265 191.782 192.16 191.74C191.908 191.74 191.761 191.719 191.677 191.698C191.593 191.677 191.488 191.614 191.32 191.53C191.152 191.446 191.047 191.278 190.984 191.047C190.921 190.816 190.9 190.501 190.9 190.102V182.584C190.9 182.521 190.858 182.479 190.795 182.479C190.501 182.395 190.123 182.353 189.703 182.353C189.409 182.353 189.094 182.395 188.737 182.479C188.674 182.5 188.653 182.542 188.653 182.584V186.742H184.453V184.264C184.453 183.634 184.285 183.151 183.97 182.794C183.655 182.437 183.214 182.248 182.668 182.248C182.122 182.248 181.66 182.416 181.303 182.731C180.946 183.046 180.778 183.319 180.778 183.55C180.778 183.676 180.82 183.76 180.925 183.76C181.114 183.781 181.24 183.802 181.303 183.802C181.345 183.802 181.45 183.844 181.618 183.886C181.765 183.949 181.87 184.033 181.933 184.117C181.975 184.222 182.038 184.39 182.101 184.6C182.143 184.81 182.185 185.083 182.185 185.377C182.185 188.002 182.164 190.522 182.143 192.916C182.143 193 182.164 193.021 182.248 193.021C182.542 193.105 182.92 193.147 183.361 193.147C183.655 193.147 183.97 193.105 184.348 193.021C184.411 193.021 184.453 193 184.453 192.916V188.17H188.653V191.215ZM203.27 182.584C203.27 182.521 203.228 182.479 203.165 182.479C202.892 182.416 202.556 182.374 202.136 182.374C201.758 182.374 201.401 182.416 201.107 182.479C201.023 182.521 201.002 182.563 201.002 182.584V186.637C201.002 188.002 200.708 189.157 200.141 190.123C199.553 191.089 198.923 191.593 198.23 191.614C197.768 191.656 197.411 191.488 197.117 191.152C196.823 190.816 196.697 190.228 196.697 189.409V184.306C196.697 183.676 196.529 183.172 196.214 182.794C195.899 182.437 195.458 182.248 194.891 182.248C194.345 182.248 193.883 182.416 193.526 182.731C193.169 183.067 193.001 183.34 193.001 183.571C193.001 183.718 193.043 183.781 193.148 183.781C193.379 183.802 193.526 183.823 193.61 183.844C193.694 183.865 193.82 183.907 193.988 183.991C194.156 184.075 194.261 184.243 194.324 184.474C194.387 184.705 194.429 184.999 194.429 185.377V189.913C194.429 191.047 194.681 191.887 195.185 192.454C195.689 193.021 196.424 193.294 197.348 193.252C198.104 193.231 198.797 192.979 199.469 192.475C200.141 191.971 200.645 191.299 200.981 190.417H201.023V193.252C201.023 194.365 200.729 195.247 200.183 195.898C199.637 196.57 198.839 196.885 197.81 196.885C197.159 196.885 196.592 196.78 196.088 196.57C195.584 196.36 195.185 196.129 194.912 195.919C194.618 195.709 194.429 195.583 194.345 195.583C194.219 195.583 194.177 195.646 194.177 195.772C194.177 196.255 194.555 196.822 195.332 197.452C196.109 198.103 197.138 198.418 198.44 198.418C199.952 198.418 201.128 197.956 201.989 196.99C202.829 196.045 203.27 194.722 203.27 193.021V182.584ZM217.671 191.215C217.671 191.866 217.818 192.37 218.133 192.727C218.427 193.105 218.868 193.273 219.435 193.273C219.981 193.273 220.422 193.126 220.8 192.79C221.157 192.475 221.346 192.202 221.346 191.95C221.346 191.845 221.283 191.782 221.178 191.74C220.926 191.74 220.779 191.719 220.695 191.698C220.611 191.677 220.506 191.614 220.338 191.53C220.17 191.446 220.065 191.278 220.002 191.047C219.939 190.816 219.918 190.501 219.918 190.102V182.584C219.918 182.521 219.876 182.479 219.813 182.479C219.519 182.395 219.141 182.353 218.721 182.353C218.427 182.353 218.112 182.395 217.755 182.479C217.692 182.5 217.671 182.542 217.671 182.584V186.742H213.471V184.264C213.471 183.634 213.303 183.151 212.988 182.794C212.673 182.437 212.232 182.248 211.686 182.248C211.14 182.248 210.678 182.416 210.321 182.731C209.964 183.046 209.796 183.319 209.796 183.55C209.796 183.676 209.838 183.76 209.943 183.76C210.132 183.781 210.258 183.802 210.321 183.802C210.363 183.802 210.468 183.844 210.636 183.886C210.783 183.949 210.888 184.033 210.951 184.117C210.993 184.222 211.056 184.39 211.119 184.6C211.161 184.81 211.203 185.083 211.203 185.377C211.203 188.002 211.182 190.522 211.161 192.916C211.161 193 211.182 193.021 211.266 193.021C211.56 193.105 211.938 193.147 212.379 193.147C212.673 193.147 212.988 193.105 213.366 193.021C213.429 193.021 213.471 193 213.471 192.916V188.17H217.671V191.215ZM227.212 183.571C227.821 183.571 228.304 183.76 228.661 184.096C228.997 184.453 229.186 184.873 229.186 185.335C229.186 186.049 228.913 186.574 228.367 186.91C227.821 187.267 227.128 187.435 226.33 187.435C225.658 187.435 225.049 187.351 224.482 187.225C224.524 186.196 224.818 185.335 225.322 184.621C225.826 183.928 226.456 183.571 227.212 183.571ZM231.475 190.207C231.391 190.207 231.202 190.333 230.908 190.564C230.614 190.795 230.194 191.026 229.669 191.257C229.144 191.488 228.556 191.593 227.905 191.593C226.939 191.593 226.162 191.299 225.553 190.711C224.923 190.123 224.587 189.346 224.524 188.359C224.566 188.401 224.713 188.443 224.944 188.485C225.175 188.527 225.511 188.59 225.931 188.653C226.351 188.716 226.75 188.737 227.128 188.737C228.241 188.737 229.228 188.464 230.11 187.897C230.992 187.33 231.433 186.469 231.433 185.314C231.433 184.495 231.055 183.781 230.341 183.151C229.627 182.521 228.619 182.227 227.317 182.248C225.847 182.29 224.65 182.815 223.684 183.823C222.718 184.852 222.235 186.196 222.235 187.834C222.235 189.493 222.697 190.816 223.642 191.782C224.566 192.769 225.784 193.252 227.296 193.252C227.989 193.252 228.619 193.147 229.207 192.895C229.795 192.664 230.236 192.391 230.572 192.055C230.908 191.719 231.16 191.404 231.349 191.11C231.517 190.816 231.622 190.564 231.622 190.396C231.622 190.27 231.559 190.207 231.475 190.207ZM251.356 190.396C251.272 190.396 251.125 190.501 250.915 190.69C250.705 190.9 250.411 191.089 250.054 191.278C249.676 191.488 249.298 191.572 248.878 191.572C247.156 191.572 246.316 190.186 246.316 187.393C246.316 186.322 246.463 185.419 246.799 184.705C247.114 183.991 247.555 183.613 248.122 183.613C248.941 183.613 249.361 184.243 249.361 185.461C249.361 185.587 249.34 185.692 249.34 185.818C249.319 185.944 249.298 186.07 249.277 186.196C249.256 186.322 249.256 186.385 249.256 186.427C249.256 186.511 249.319 186.574 249.487 186.658C249.634 186.742 249.802 186.763 249.991 186.763C250.369 186.763 250.663 186.616 250.894 186.301C251.104 186.007 251.209 185.608 251.188 185.125C251.146 184.369 250.894 183.676 250.39 183.088C249.886 182.5 249.151 182.227 248.227 182.227C247.303 182.248 246.505 182.668 245.791 183.466C245.077 184.285 244.615 185.419 244.426 186.889H243.124L243.166 182.584C243.166 182.521 243.124 182.479 243.061 182.479C242.767 182.395 242.389 182.353 241.969 182.353C241.675 182.353 241.339 182.395 240.982 182.479C240.919 182.5 240.898 182.542 240.898 182.584L240.919 186.889H239.659C239.575 185.419 239.239 184.285 238.609 183.466C237.979 182.647 237.139 182.227 236.131 182.227C235.102 182.227 234.283 182.563 233.653 183.214C233.023 183.886 232.708 184.432 232.708 184.894C232.708 185.041 232.771 185.104 232.897 185.104C232.96 185.104 233.086 185.02 233.296 184.81C233.506 184.621 233.779 184.432 234.136 184.222C234.472 184.033 234.871 183.928 235.291 183.928C236.908 183.928 237.727 185.335 237.727 188.107C237.727 189.199 237.538 190.102 237.202 190.816C236.866 191.53 236.404 191.887 235.816 191.887C235.375 191.887 235.039 191.719 234.829 191.362C234.598 191.005 234.493 190.564 234.493 190.018C234.493 189.892 234.493 189.703 234.535 189.472C234.556 189.262 234.577 189.115 234.577 189.073C234.577 189.01 234.514 188.947 234.367 188.863C234.199 188.779 234.031 188.737 233.842 188.737C233.464 188.737 233.17 188.905 232.96 189.199C232.75 189.514 232.645 189.913 232.687 190.375C232.708 191.152 232.981 191.824 233.506 192.412C234.031 193 234.766 193.294 235.732 193.273C236.677 193.273 237.517 192.832 238.273 191.95C239.029 191.068 239.47 189.829 239.638 188.191H240.919L240.898 192.937C240.898 192.979 240.919 193.021 240.982 193.042C241.234 193.126 241.612 193.147 242.095 193.147C242.431 193.147 242.746 193.126 243.061 193.042C243.124 193.021 243.166 192.979 243.166 192.937L243.124 188.191H244.342C244.363 189.724 244.699 190.963 245.35 191.887C246.001 192.811 246.904 193.273 248.038 193.273C249.046 193.273 249.886 192.958 250.537 192.286C251.167 191.635 251.503 191.068 251.503 190.606C251.503 190.48 251.44 190.396 251.356 190.396ZM260.184 191.215C260.184 191.866 260.331 192.37 260.646 192.727C260.94 193.105 261.381 193.273 261.948 193.273C262.494 193.273 262.935 193.126 263.313 192.79C263.67 192.475 263.859 192.202 263.859 191.95C263.859 191.845 263.796 191.782 263.691 191.74C263.439 191.74 263.292 191.719 263.208 191.698C263.124 191.677 263.019 191.614 262.851 191.53C262.683 191.446 262.578 191.278 262.515 191.047C262.452 190.816 262.431 190.501 262.431 190.102V182.584C262.431 182.521 262.389 182.479 262.326 182.479C262.032 182.395 261.654 182.353 261.234 182.353C260.94 182.353 260.625 182.395 260.268 182.479C260.205 182.5 260.184 182.542 260.184 182.584V186.742H255.984V184.264C255.984 183.634 255.816 183.151 255.501 182.794C255.186 182.437 254.745 182.248 254.199 182.248C253.653 182.248 253.191 182.416 252.834 182.731C252.477 183.046 252.309 183.319 252.309 183.55C252.309 183.676 252.351 183.76 252.456 183.76C252.645 183.781 252.771 183.802 252.834 183.802C252.876 183.802 252.981 183.844 253.149 183.886C253.296 183.949 253.401 184.033 253.464 184.117C253.506 184.222 253.569 184.39 253.632 184.6C253.674 184.81 253.716 185.083 253.716 185.377C253.716 188.002 253.695 190.522 253.674 192.916C253.674 193 253.695 193.021 253.779 193.021C254.073 193.105 254.451 193.147 254.892 193.147C255.186 193.147 255.501 193.105 255.879 193.021C255.942 193.021 255.984 193 255.984 192.916V188.17H260.184V191.215ZM269.892 182.227C268.401 182.227 267.162 182.773 266.196 183.823C265.23 184.873 264.747 186.175 264.747 187.729C264.747 189.451 265.23 190.816 266.196 191.803C267.162 192.811 268.38 193.294 269.892 193.294C271.467 193.294 272.727 192.769 273.651 191.698C274.575 190.627 275.058 189.283 275.058 187.687C275.058 186.049 274.575 184.747 273.63 183.739C272.685 182.731 271.446 182.227 269.892 182.227ZM269.976 191.887C269.136 191.887 268.443 191.53 267.876 190.774C267.288 190.018 267.015 188.989 267.015 187.645C267.015 186.448 267.288 185.482 267.834 184.726C268.38 183.991 269.052 183.613 269.892 183.613C270.837 183.613 271.551 184.033 272.055 184.852C272.538 185.671 272.79 186.658 272.79 187.834C272.79 189.052 272.538 190.018 272.034 190.774C271.53 191.53 270.837 191.887 269.976 191.887ZM285.568 185.44C285.568 184.621 285.211 183.886 284.497 183.235C283.783 182.584 282.859 182.248 281.683 182.248C280.234 182.248 279.016 182.773 278.05 183.823C277.084 184.873 276.601 186.217 276.601 187.834C276.601 189.472 277.042 190.774 277.966 191.761C278.869 192.769 280.087 193.252 281.599 193.252C282.271 193.252 282.922 193.147 283.51 192.895C284.098 192.664 284.539 192.391 284.875 192.055C285.211 191.719 285.463 191.404 285.652 191.11C285.841 190.816 285.946 190.585 285.946 190.417C285.946 190.291 285.883 190.228 285.778 190.228C285.673 190.228 285.484 190.354 285.19 190.564C284.896 190.795 284.497 191.026 283.993 191.236C283.489 191.446 282.964 191.551 282.376 191.551C281.242 191.551 280.381 191.194 279.772 190.438C279.142 189.682 278.848 188.716 278.848 187.54C278.848 186.427 279.1 185.482 279.646 184.705C280.171 183.928 280.822 183.529 281.599 183.529C282.145 183.529 282.586 183.739 282.922 184.138C283.237 184.558 283.405 185.041 283.405 185.608C283.405 185.776 283.384 185.965 283.342 186.175C283.3 186.406 283.3 186.532 283.3 186.574C283.3 186.7 283.384 186.805 283.573 186.91C283.741 187.015 283.972 187.057 284.224 187.057C284.644 187.057 284.959 186.91 285.211 186.595C285.442 186.301 285.568 185.902 285.568 185.44ZM304.025 191.74C303.773 191.74 303.626 191.719 303.542 191.698C303.458 191.677 303.353 191.614 303.185 191.53C303.017 191.446 302.912 191.278 302.849 191.047C302.786 190.816 302.765 190.501 302.765 190.102V185.566C302.765 184.474 302.492 183.634 301.988 183.067C301.463 182.5 300.749 182.227 299.846 182.248C299.09 182.269 298.439 182.542 297.893 183.046C297.347 183.55 296.906 184.222 296.591 185.041H296.528C296.444 184.117 296.171 183.424 295.667 182.941C295.163 182.458 294.491 182.227 293.651 182.248C292.181 182.29 291.11 183.256 290.417 185.104H290.354C290.354 184.642 290.333 184.285 290.333 184.033C290.228 182.857 289.661 182.248 288.632 182.248C288.086 182.248 287.624 182.416 287.267 182.731C286.91 183.046 286.742 183.319 286.742 183.55C286.742 183.676 286.784 183.76 286.889 183.76C287.099 183.781 287.267 183.802 287.351 183.823C287.435 183.844 287.54 183.886 287.708 183.97C287.876 184.054 287.981 184.222 288.044 184.432C288.107 184.642 288.149 184.936 288.149 185.293C288.149 187.918 288.128 190.459 288.107 192.916C288.107 193 288.128 193.021 288.212 193.021C288.506 193.105 288.863 193.147 289.283 193.147C289.577 193.147 289.913 193.105 290.291 193.021C290.354 193.021 290.396 193 290.396 192.916V188.926C290.396 187.624 290.648 186.469 291.152 185.461C291.656 184.453 292.223 183.928 292.853 183.886C293.294 183.865 293.651 184.033 293.924 184.369C294.176 184.705 294.323 185.293 294.323 186.112V192.916C294.323 193 294.344 193.021 294.428 193.021C294.722 193.105 295.079 193.147 295.457 193.147C295.751 193.147 296.087 193.105 296.465 193.021C296.528 193.021 296.57 193 296.57 192.916V188.968C296.57 187.708 296.822 186.553 297.326 185.503C297.83 184.474 298.418 183.928 299.048 183.886C299.51 183.865 299.867 184.033 300.119 184.369C300.371 184.705 300.518 185.293 300.518 186.112V191.215C300.518 191.866 300.665 192.37 300.98 192.727C301.274 193.105 301.715 193.273 302.282 193.273C302.828 193.273 303.269 193.126 303.647 192.79C304.004 192.475 304.193 192.202 304.193 191.95C304.193 191.845 304.13 191.782 304.025 191.74ZM315.14 182.584C315.14 182.521 315.098 182.479 315.056 182.479C314.762 182.416 314.426 182.374 314.006 182.374C313.628 182.374 313.271 182.416 312.977 182.479C312.893 182.521 312.872 182.563 312.872 182.584V186.637C312.872 188.002 312.578 189.157 312.011 190.123C311.423 191.089 310.793 191.593 310.1 191.614C309.638 191.656 309.281 191.488 308.987 191.152C308.693 190.816 308.567 190.228 308.567 189.409V184.306C308.567 183.676 308.399 183.172 308.084 182.794C307.769 182.437 307.328 182.248 306.761 182.248C306.215 182.248 305.753 182.416 305.396 182.731C305.039 183.067 304.871 183.34 304.871 183.571C304.871 183.718 304.913 183.781 305.018 183.781C305.249 183.802 305.396 183.823 305.48 183.844C305.564 183.865 305.69 183.907 305.858 183.991C306.026 184.075 306.131 184.243 306.194 184.474C306.257 184.705 306.299 184.999 306.299 185.377V189.955C306.299 191.068 306.551 191.908 307.055 192.454C307.559 193.021 308.294 193.294 309.218 193.252C309.974 193.231 310.688 192.958 311.36 192.454C312.032 191.95 312.536 191.257 312.872 190.396H312.914C312.914 190.522 312.914 190.69 312.914 190.921C312.914 191.173 312.935 191.341 312.935 191.467C313.04 192.685 313.607 193.273 314.636 193.273C315.182 193.273 315.623 193.126 316.001 192.79C316.358 192.475 316.547 192.202 316.547 191.95C316.547 191.845 316.484 191.782 316.379 191.74C316.148 191.74 316.001 191.719 315.917 191.698C315.833 191.677 315.707 191.614 315.56 191.53C315.392 191.446 315.287 191.299 315.224 191.089C315.161 190.879 315.14 190.585 315.14 190.207V182.584Z" fill="#C70E25"/>
<path d="M139.8 309H144V303.696H146.928C150.264 303.696 152.52 301.2 152.52 297.744C152.52 294.288 150.264 291.84 146.928 291.84H139.8V309ZM144 300.096V295.44H146.136C147.528 295.44 148.248 296.376 148.248 297.744C148.248 299.112 147.528 300.096 146.064 300.096H144ZM154.8 309H165.888V305.4H159V302.16H164.232V298.56H159V295.44H165.552V291.84H154.8V309ZM168.628 309H172.828V295.44H179.14V291.84H168.628V309ZM181.191 309H185.415L190.191 301.008C190.863 299.88 191.631 298.08 191.631 298.08H191.679C191.679 298.08 191.487 299.928 191.487 301.008V309H195.687V291.84H191.439L186.687 299.856C186.015 300.984 185.247 302.784 185.247 302.784H185.199C185.199 302.784 185.391 300.936 185.391 299.856V291.84H181.191V309ZM198.372 300.384C198.372 305.472 201.852 309.288 207.372 309.288C210.516 309.288 212.772 307.968 214.284 306.408L212.124 303.336C210.948 304.512 209.268 305.448 207.564 305.448C204.252 305.448 202.716 302.832 202.716 300.288C202.716 297.816 204.132 295.392 207.564 295.392C209.1 295.392 210.756 296.184 211.86 297.144L213.804 293.976C212.124 292.32 209.676 291.552 207.372 291.552C202.068 291.552 198.372 295.392 198.372 300.384ZM220.137 309H224.337V295.44H229.545V291.84H214.929V295.44H220.137V309ZM231.652 309H235.852V303.696H238.78C242.116 303.696 244.372 301.2 244.372 297.744C244.372 294.288 242.116 291.84 238.78 291.84H231.652V309ZM235.852 300.096V295.44H237.988C239.38 295.44 240.1 296.376 240.1 297.744C240.1 299.112 239.38 300.096 237.916 300.096H235.852ZM246.652 309H250.876L255.652 301.008C256.324 299.88 257.092 298.08 257.092 298.08H257.14C257.14 298.08 256.948 299.928 256.948 301.008V309H261.148V291.84H256.9L252.148 299.856C251.476 300.984 250.708 302.784 250.708 302.784H250.66C250.66 302.784 250.852 300.936 250.852 299.856V291.84H246.652V309ZM264.745 309H268.945V303.696H271.873C275.209 303.696 277.465 301.2 277.465 297.744C277.465 294.288 275.209 291.84 271.873 291.84H264.745V309ZM268.945 300.096V295.44H271.081C272.473 295.44 273.193 296.376 273.193 297.744C273.193 299.112 272.473 300.096 271.009 300.096H268.945ZM279.124 307.992C280.324 308.832 281.524 309.288 283.036 309.288C286.06 309.288 287.38 306.72 288.172 304.704L293.236 291.84H288.82L286.708 298.032C286.3 299.232 286.036 300.312 286.036 300.312H285.988C285.988 300.312 285.628 299.232 285.052 298.008L282.196 291.84H277.588L284.212 304.824C283.972 305.4 283.516 305.712 282.844 305.712C282.052 305.712 281.404 305.232 280.948 304.848L279.124 307.992ZM302.257 291.072C304.681 291.072 306.793 289.752 306.793 287.4V287.136H303.745V287.424C303.745 288.408 302.953 288.84 302.257 288.84C301.537 288.84 300.769 288.408 300.769 287.424V287.136H297.697V287.4C297.697 289.752 299.809 291.072 302.257 291.072ZM294.769 309H298.993L303.769 301.008C304.441 299.88 305.209 298.08 305.209 298.08H305.257C305.257 298.08 305.065 299.928 305.065 301.008V309H309.265V291.84H305.017L300.265 299.856C299.593 300.984 298.825 302.784 298.825 302.784H298.777C298.777 302.784 298.969 300.936 298.969 299.856V291.84H294.769V309ZM141.834 327.832C142.734 327.832 143.724 327.526 144.3 327.166H144.336C144.336 327.166 144.318 327.454 144.318 327.706V331H146.064V321.892H144.318V325.672C143.94 325.942 143.202 326.32 142.302 326.32C140.808 326.32 140.484 325.51 140.484 324.61V321.892H138.774V324.862C138.774 326.806 139.89 327.832 141.834 327.832ZM148.178 326.446C148.178 329.146 150.158 331.216 153.02 331.216C154.28 331.216 155.666 330.73 156.548 329.92L155.81 328.642C155.09 329.29 154.1 329.704 153.128 329.704C151.49 329.704 150.086 328.642 149.996 326.68H156.62C156.656 326.428 156.692 326.176 156.692 325.942C156.692 323.602 155.324 321.676 152.75 321.676C150.158 321.676 148.178 323.548 148.178 326.446ZM150.05 325.42C150.302 323.908 151.364 323.026 152.714 323.026C153.902 323.026 154.874 323.854 154.928 325.42H150.05ZM158.791 331H160.537V327.058H161.851L164.569 331H166.639L163.237 326.266V326.23L166.279 321.892H164.299L161.815 325.564H160.537V321.892H158.791V331ZM172.696 331H174.442V327.094H179.05V331H180.796V321.892H179.05V325.6H174.442V321.892H172.696V331ZM182.733 328.516C182.733 330.226 184.191 331.216 185.775 331.216C187.125 331.216 188.241 330.406 188.763 329.362H188.799C188.799 329.362 188.745 329.668 188.745 330.082V331H190.383V325.24C190.383 322.936 189.069 321.676 186.783 321.676C185.505 321.676 184.119 322.144 183.381 322.756L184.083 324.034C184.821 323.512 185.739 323.152 186.639 323.152C187.773 323.152 188.637 323.656 188.637 325.15V325.33H188.169C186.279 325.33 182.733 325.654 182.733 328.516ZM184.479 328.372C184.479 326.698 186.891 326.59 188.187 326.59H188.637V326.932C188.637 328.282 187.719 329.83 186.189 329.83C185.055 329.83 184.479 329.092 184.479 328.372ZM197.463 334.6H199.209V330.46C199.209 329.992 199.137 329.668 199.137 329.668H199.173C199.803 330.64 200.847 331.216 201.999 331.216C204.393 331.216 206.121 329.344 206.121 326.446C206.121 323.62 204.591 321.676 202.125 321.676C200.793 321.676 199.641 322.288 199.065 323.386H199.029C199.029 323.386 199.083 323.08 199.083 322.702V321.892H197.463V334.6ZM199.155 326.482C199.155 324.178 200.415 323.206 201.783 323.206C203.295 323.206 204.357 324.484 204.357 326.464C204.357 328.534 203.169 329.704 201.729 329.704C200.055 329.704 199.155 328.102 199.155 326.482ZM208.274 331H210.02V327.22C210.02 325.456 210.848 323.512 212.81 323.512C212.99 323.512 213.242 323.53 213.314 323.548V321.82C213.17 321.802 213.008 321.784 212.846 321.784C211.442 321.784 210.38 322.882 209.948 324.196H209.912C209.912 324.196 209.966 323.908 209.966 323.53V321.892H208.274V331ZM214.166 326.428C214.166 329.2 216.362 331.216 219.08 331.216C221.78 331.216 223.976 329.2 223.976 326.428C223.976 323.674 221.78 321.676 219.062 321.676C216.362 321.676 214.166 323.674 214.166 326.428ZM215.948 326.428C215.948 324.538 217.352 323.188 219.08 323.188C220.79 323.188 222.212 324.538 222.212 326.428C222.212 328.336 220.79 329.704 219.08 329.704C217.352 329.704 215.948 328.336 215.948 326.428ZM226.08 331H227.826V326.752C227.826 325.06 228.834 323.26 230.562 323.26C231.948 323.26 232.128 324.358 232.128 325.546V331H233.874V326.752C233.874 325.006 234.882 323.26 236.574 323.26C237.924 323.26 238.176 324.268 238.176 325.546V331H239.922V325.168C239.922 322.846 238.986 321.676 236.916 321.676C235.44 321.676 234.18 322.684 233.676 323.746H233.64C233.334 322.378 232.452 321.676 230.922 321.676C229.482 321.676 228.186 322.756 227.754 323.818H227.718C227.718 323.818 227.772 323.512 227.772 323.134V321.892H226.08V331ZM241.94 326.428C241.94 329.2 244.136 331.216 246.854 331.216C249.554 331.216 251.75 329.2 251.75 326.428C251.75 323.674 249.554 321.676 246.836 321.676C244.136 321.676 241.94 323.674 241.94 326.428ZM243.722 326.428C243.722 324.538 245.126 323.188 246.854 323.188C248.564 323.188 249.986 324.538 249.986 326.428C249.986 328.336 248.564 329.704 246.854 329.704C245.126 329.704 243.722 328.336 243.722 326.428ZM253.764 331H255.636V329.11H253.764V331ZM258.248 331H259.994V326.752C259.994 325.06 261.002 323.26 262.73 323.26C264.116 323.26 264.296 324.358 264.296 325.546V331H266.042V326.752C266.042 325.006 267.05 323.26 268.742 323.26C270.092 323.26 270.344 324.268 270.344 325.546V331H272.09V325.168C272.09 322.846 271.154 321.676 269.084 321.676C267.608 321.676 266.348 322.684 265.844 323.746H265.808C265.502 322.378 264.62 321.676 263.09 321.676C261.65 321.676 260.354 322.756 259.922 323.818H259.886C259.886 323.818 259.94 323.512 259.94 323.134V321.892H258.248V331ZM274.666 320.056H276.466V318.292H274.666V320.056ZM274.702 331H276.448V321.892H274.702V331ZM279.131 328.498C279.131 330.802 280.571 331.09 281.579 331.09C281.831 331.09 282.029 331.054 282.155 331.036V329.488C282.047 329.506 281.921 329.506 281.849 329.506C281.309 329.506 280.859 329.29 280.859 328.21V318.292H279.131V328.498ZM283.93 331H285.676V326.734H287.008L289.726 331H291.76L288.394 325.942V325.906L291.418 321.892H289.438L286.972 325.24H285.676V318.292H283.93V331ZM292.49 328.516C292.49 330.226 293.948 331.216 295.532 331.216C296.882 331.216 297.998 330.406 298.52 329.362H298.556C298.556 329.362 298.502 329.668 298.502 330.082V331H300.14V325.24C300.14 322.936 298.826 321.676 296.54 321.676C295.262 321.676 293.876 322.144 293.138 322.756L293.84 324.034C294.578 323.512 295.496 323.152 296.396 323.152C297.53 323.152 298.394 323.656 298.394 325.15V325.33H297.926C296.036 325.33 292.49 325.654 292.49 328.516ZM294.236 328.372C294.236 326.698 296.648 326.59 297.944 326.59H298.394V326.932C298.394 328.282 297.476 329.83 295.946 329.83C294.812 329.83 294.236 329.092 294.236 328.372ZM302.649 331H304.521V329.11H302.649V331ZM307.133 331H308.879V327.22C308.879 325.456 309.707 323.512 311.669 323.512C311.849 323.512 312.101 323.53 312.173 323.548V321.82C312.029 321.802 311.867 321.784 311.705 321.784C310.301 321.784 309.239 322.882 308.807 324.196H308.771C308.771 324.196 308.825 323.908 308.825 323.53V321.892H307.133V331ZM313.793 327.724C313.793 330.136 314.855 331.216 316.907 331.216C318.689 331.216 319.895 329.974 320.291 329.074H320.327C320.327 329.074 320.255 329.38 320.255 329.74V331H321.947V321.892H320.219V326.158C320.219 327.958 319.121 329.596 317.249 329.596C315.809 329.596 315.539 328.588 315.539 327.328V321.892H313.793V327.724Z" fill="white"/>
<circle cx="76" cy="309" r="32" fill="white"/>
<path d="M77.7031 297.97C77.7031 297.646 77.7031 297.97 77.3791 298.294C77.3791 297.97 77.9731 296.674 78.2971 296.026C78.2971 296.026 78.6211 296.026 78.9451 295.702C78.9451 296.026 78.6211 296.35 78.6211 296.674C77.8111 300.562 76.6231 304.126 75.4351 307.69C74.8411 309.958 74.2471 312.226 73.6531 314.494C73.0591 316.438 72.4651 318.058 72.1951 320.002C71.9251 320.326 71.9251 320.65 71.6011 320.974C71.2771 321.298 71.6011 321.946 71.6551 322.27C71.9791 322.594 71.9791 322.918 72.3031 322.918C72.3031 322.918 72.6271 322.918 72.6271 323.242C73.0051 323.89 73.6531 324.862 74.6251 325.186C74.9491 324.862 74.9491 324.538 75.2731 324.538C75.9211 323.89 76.1911 322.918 76.5151 322.27C76.7851 321.622 77.1091 320.974 77.3791 320.002C77.3791 320.002 77.3791 319.678 77.7031 319.354C78.3511 318.706 78.6211 317.41 79.2151 316.438C79.5391 315.79 79.8631 315.466 80.1871 314.818C80.4571 313.846 80.7271 312.874 81.3751 311.578C81.6451 310.282 81.9151 308.986 82.5631 307.69C82.8331 306.394 83.1031 304.774 83.0491 303.154C83.0491 302.83 83.0491 302.506 82.9951 302.182C83.3191 301.858 83.3191 301.21 83.3191 300.886C83.2651 299.266 83.2111 297.97 82.8331 296.35C82.8331 295.702 82.5091 295.054 81.8071 294.082L81.4831 293.758C81.1591 293.758 80.8351 293.758 80.5111 293.758C80.1871 293.758 80.1871 293.758 79.8631 293.758C79.5391 293.758 79.5391 294.082 79.2151 294.082C78.8911 294.082 78.5671 294.082 78.2431 294.406C77.9731 295.054 77.3251 295.378 77.0011 295.702C76.6771 296.35 76.4071 296.998 75.7591 297.646C75.1651 298.618 74.3011 299.968 73.7071 300.94C71.4931 303.856 71.1151 304.936 69.4411 306.826C68.7931 307.474 68.2531 308.662 67.6051 309.148C68.5771 310.12 69.5491 310.444 70.8451 310.12C71.1691 309.796 71.9791 309.904 72.2491 309.256C74.0311 307.906 74.6791 305.368 75.3271 304.45C75.3271 304.45 75.6511 304.126 75.5971 303.802C75.2731 303.154 75.9211 302.506 76.1911 302.182C76.1911 301.858 76.5151 301.534 76.5151 300.886C77.1091 299.914 77.4331 298.942 77.7031 297.97Z" fill="#C70E25"/>
<path d="M139.8 405H146.112C149.52 405 152.64 403.632 152.64 399.888C152.64 398.376 151.92 396.624 149.952 396.024V395.976C151.248 395.232 151.944 393.768 151.944 392.328C151.944 389.376 149.544 387.84 146.112 387.84H139.8V405ZM144 394.488V391.44H146.088C147.216 391.44 147.672 392.112 147.672 392.904C147.672 393.72 147.216 394.488 146.16 394.488H144ZM144 401.4V397.848H146.544C147.768 397.848 148.344 398.64 148.344 399.6C148.344 400.56 147.744 401.4 146.52 401.4H144ZM169.739 405H173.939V387.84H169.739V405ZM155.339 405H162.227C165.563 405 167.819 402.552 167.819 399.096C167.819 395.64 165.563 393.144 162.227 393.144H159.539V387.84H155.339V405ZM159.539 401.4V396.744H161.363C162.827 396.744 163.547 397.728 163.547 399.096C163.547 400.464 162.827 401.4 161.435 401.4H159.539ZM177.534 405H181.758L186.534 397.008C187.206 395.88 187.974 394.08 187.974 394.08H188.022C188.022 394.08 187.83 395.928 187.83 397.008V405H192.03V387.84H187.782L183.03 395.856C182.358 396.984 181.59 398.784 181.59 398.784H181.542C181.542 398.784 181.734 396.936 181.734 395.856V387.84H177.534V405ZM195.628 405H199.828V391.44H206.14V387.84H195.628V405ZM208.191 405H212.391V399.696H215.319C218.655 399.696 220.911 397.2 220.911 393.744C220.911 390.288 218.655 387.84 215.319 387.84H208.191V405ZM212.391 396.096V391.44H214.527C215.919 391.44 216.639 392.376 216.639 393.744C216.639 395.112 215.919 396.096 214.455 396.096H212.391ZM220.498 405H224.818L225.85 401.4H231.202L232.258 405H236.578L230.746 387.84H226.33L220.498 405ZM226.834 398.04L227.818 394.704C228.13 393.624 228.514 391.752 228.514 391.752H228.562C228.562 391.752 228.946 393.624 229.258 394.704L230.218 398.04H226.834ZM245.796 387.072C248.22 387.072 250.332 385.752 250.332 383.4V383.136H247.284V383.424C247.284 384.408 246.492 384.84 245.796 384.84C245.076 384.84 244.308 384.408 244.308 383.424V383.136H241.236V383.4C241.236 385.752 243.348 387.072 245.796 387.072ZM238.308 405H242.532L247.308 397.008C247.98 395.88 248.748 394.08 248.748 394.08H248.796C248.796 394.08 248.604 395.928 248.604 397.008V405H252.804V387.84H248.556L243.804 395.856C243.132 396.984 242.364 398.784 242.364 398.784H242.316C242.316 398.784 242.508 396.936 242.508 395.856V387.84H238.308V405ZM139.8 434H144V427.04H145.728L149.352 434H154.056L149.16 425.096V425.048L153.792 416.84H149.28L145.728 423.464H144V416.84H139.8V434ZM155.491 432.992C156.691 433.832 157.891 434.288 159.403 434.288C162.427 434.288 163.747 431.72 164.539 429.704L169.603 416.84H165.187L163.075 423.032C162.667 424.232 162.403 425.312 162.403 425.312H162.355C162.355 425.312 161.995 424.232 161.419 423.008L158.563 416.84H153.955L160.579 429.824C160.339 430.4 159.883 430.712 159.211 430.712C158.419 430.712 157.771 430.232 157.315 429.848L155.491 432.992ZM171.136 434H175.336V420.416H181.432V434H185.632V416.84H171.136V434ZM188.294 425.312C188.294 430.352 192.086 434.288 197.27 434.288C202.454 434.288 206.246 430.352 206.246 425.312C206.246 420.392 202.454 416.552 197.27 416.552C192.086 416.552 188.294 420.392 188.294 425.312ZM192.638 425.312C192.638 422.504 194.702 420.392 197.27 420.392C199.838 420.392 201.902 422.504 201.902 425.312C201.902 428.24 199.838 430.448 197.27 430.448C194.702 430.448 192.638 428.24 192.638 425.312ZM208.917 434H213.117V427.28H219.357V434H223.557V416.84H219.357V423.704H213.117V416.84H208.917V434ZM241.552 434H245.752V416.84H241.552V434ZM227.152 434H234.04C237.376 434 239.632 431.552 239.632 428.096C239.632 424.64 237.376 422.144 234.04 422.144H231.352V416.84H227.152V434ZM231.352 430.4V425.744H233.176C234.64 425.744 235.36 426.728 235.36 428.096C235.36 429.464 234.64 430.4 233.248 430.4H231.352ZM139.35 456H141.096V452.094H145.704V456H147.45V446.892H145.704V450.6H141.096V446.892H139.35V456ZM149.387 453.516C149.387 455.226 150.845 456.216 152.429 456.216C153.779 456.216 154.895 455.406 155.417 454.362H155.453C155.453 454.362 155.399 454.668 155.399 455.082V456H157.037V450.24C157.037 447.936 155.723 446.676 153.437 446.676C152.159 446.676 150.773 447.144 150.035 447.756L150.737 449.034C151.475 448.512 152.393 448.152 153.293 448.152C154.427 448.152 155.291 448.656 155.291 450.15V450.33H154.823C152.933 450.33 149.387 450.654 149.387 453.516ZM151.133 453.372C151.133 451.698 153.545 451.59 154.841 451.59H155.291V451.932C155.291 453.282 154.373 454.83 152.843 454.83C151.709 454.83 151.133 454.092 151.133 453.372ZM164.118 456H165.864V448.386H170.328V456H172.074V446.892H164.118V456ZM174.77 459.6H176.516V455.46C176.516 454.992 176.444 454.668 176.444 454.668H176.48C177.11 455.64 178.154 456.216 179.306 456.216C181.7 456.216 183.428 454.344 183.428 451.446C183.428 448.62 181.898 446.676 179.432 446.676C178.1 446.676 176.948 447.288 176.372 448.386H176.336C176.336 448.386 176.39 448.08 176.39 447.702V446.892H174.77V459.6ZM176.462 451.482C176.462 449.178 177.722 448.206 179.09 448.206C180.602 448.206 181.664 449.484 181.664 451.464C181.664 453.534 180.476 454.704 179.036 454.704C177.362 454.704 176.462 453.102 176.462 451.482ZM184.986 451.428C184.986 454.2 187.182 456.216 189.9 456.216C192.6 456.216 194.796 454.2 194.796 451.428C194.796 448.674 192.6 446.676 189.882 446.676C187.182 446.676 184.986 448.674 184.986 451.428ZM186.768 451.428C186.768 449.538 188.172 448.188 189.9 448.188C191.61 448.188 193.032 449.538 193.032 451.428C193.032 453.336 191.61 454.704 189.9 454.704C188.172 454.704 186.768 453.336 186.768 451.428ZM198.454 454.56C199.606 452.76 199.75 450.168 199.75 448.8V448.314H202.486V454.56H198.454ZM195.538 454.56V458.16H197.176V456H203.926V458.16H205.528V454.56H204.232V446.892H198.076V448.566C198.076 449.97 197.932 452.814 196.654 454.56H195.538ZM206.664 457.89L206.052 459.222C206.052 459.222 206.79 459.78 207.798 459.78C209.076 459.78 210.21 459.06 210.75 457.638L215.034 446.892H213.144L210.93 452.868C210.768 453.336 210.624 453.948 210.624 453.948H210.588C210.588 453.948 210.426 453.3 210.246 452.85L207.96 446.892H205.998L209.814 455.892L209.364 456.936C209.022 457.764 208.428 458.286 207.708 458.286C207.168 458.286 206.664 457.89 206.664 457.89ZM216.746 456H218.492V452.058H219.806L222.524 456H224.594L221.192 451.266V451.23L224.234 446.892H222.254L219.77 450.564H218.492V446.892H216.746V456ZM226.151 456H233.675V458.16H235.277V454.488H233.999V446.892H232.235V454.488H227.897V446.892H226.151V456ZM237.137 456H238.811L242.753 450.564C243.041 450.132 243.491 449.52 243.545 449.358H243.581C243.581 449.502 243.527 450.132 243.527 450.564V456H245.219V446.892H243.527L239.603 452.328C239.297 452.76 238.865 453.39 238.793 453.552H238.757C238.775 453.462 238.811 452.814 238.811 452.328V446.892H237.137V456ZM247.895 456H249.641V452.148H251.297C251.621 454.524 253.547 456.216 255.959 456.216C258.587 456.216 260.693 454.2 260.693 451.428C260.693 448.674 258.587 446.676 255.941 446.676C253.547 446.676 251.621 448.35 251.297 450.708H249.641V446.892H247.895V456ZM252.989 451.428C252.989 449.538 254.303 448.188 255.959 448.188C257.597 448.188 258.911 449.538 258.911 451.428C258.911 453.336 257.597 454.704 255.959 454.704C254.303 454.704 252.989 453.336 252.989 451.428ZM267.301 456H269.047V451.752C269.047 450.06 270.055 448.26 271.783 448.26C273.169 448.26 273.349 449.358 273.349 450.546V456H275.095V451.752C275.095 450.006 276.103 448.26 277.795 448.26C279.145 448.26 279.397 449.268 279.397 450.546V456H281.143V450.168C281.143 447.846 280.207 446.676 278.137 446.676C276.661 446.676 275.401 447.684 274.897 448.746H274.861C274.555 447.378 273.673 446.676 272.143 446.676C270.703 446.676 269.407 447.756 268.975 448.818H268.939C268.939 448.818 268.993 448.512 268.993 448.134V446.892H267.301V456ZM283.718 445.056H285.518V443.292H283.718V445.056ZM283.754 456H285.5V446.892H283.754V456ZM288.184 453.498C288.184 455.802 289.624 456.09 290.632 456.09C290.884 456.09 291.082 456.054 291.208 456.036V454.488C291.1 454.506 290.974 454.506 290.902 454.506C290.362 454.506 289.912 454.29 289.912 453.21V443.292H288.184V453.498ZM292.983 456H294.729V451.734H296.061L298.779 456H300.813L297.447 450.942V450.906L300.471 446.892H298.491L296.025 450.24H294.729V443.292H292.983V456ZM301.543 453.516C301.543 455.226 303.001 456.216 304.585 456.216C305.935 456.216 307.051 455.406 307.573 454.362H307.609C307.609 454.362 307.555 454.668 307.555 455.082V456H309.193V450.24C309.193 447.936 307.879 446.676 305.593 446.676C304.315 446.676 302.929 447.144 302.191 447.756L302.893 449.034C303.631 448.512 304.549 448.152 305.449 448.152C306.583 448.152 307.447 448.656 307.447 450.15V450.33H306.979C305.089 450.33 301.543 450.654 301.543 453.516ZM303.289 453.372C303.289 451.698 305.701 451.59 306.997 451.59H307.447V451.932C307.447 453.282 306.529 454.83 304.999 454.83C303.865 454.83 303.289 454.092 303.289 453.372Z" fill="white"/>
<circle cx="76" cy="405" r="32" fill="white"/>
<path d="M81.2826 406.12C81.5526 405.634 81.7146 405.202 82.0926 404.932C82.0386 404.77 82.3086 404.662 82.6326 404.662C82.8486 404.392 82.5246 404.176 82.5246 404.176C83.1726 403.852 83.0646 403.312 83.2806 402.988C83.9826 401.584 83.8746 399.748 83.9826 398.398C84.0366 397.372 83.4426 396.616 83.0646 395.266C82.7406 395.32 82.6866 395.158 82.6866 394.888C82.0386 394.672 80.9046 393.97 80.5806 393.538C79.9866 392.998 79.2846 392.566 78.6906 392.35C78.0426 392.134 77.7186 392.026 77.5026 392.026C76.5306 391.54 75.9906 392.026 75.1266 392.08C72.2106 392.674 68.9166 397.426 69.0246 398.83C69.0786 399.262 68.5926 399.64 68.9706 400.288C68.9706 400.288 68.9706 400.504 69.0246 400.72C69.6186 400.882 69.9426 401.638 70.4286 401.584C71.4546 402.07 72.4266 402.286 73.4526 401.26C73.4526 401.26 73.7226 400.99 74.0466 400.99C74.8566 400.342 75.7746 394.78 77.8266 395.266C78.7446 395.482 79.0146 396.454 78.8526 397.264C78.6906 398.668 78.3666 398.992 77.8266 400.126C76.4766 404.014 74.2086 407.038 71.4546 410.548C70.6446 411.79 68.9706 413.626 67.8906 414.598C67.4046 415.57 66.5946 417.73 68.3226 418.162C68.3226 418.432 68.9706 418.972 69.2946 418.918C69.2946 418.918 69.5646 418.918 69.9426 418.81C70.6986 419.026 71.4546 419.242 72.3186 419.08C72.8586 419.026 73.7226 418.972 74.6406 419.08C75.5586 419.35 76.4226 418.594 77.2866 418.54C78.6906 418.378 78.3126 418.918 79.8786 418.486C82.0926 417.892 84.0366 418.702 85.2246 419.08C85.4946 419.026 85.5486 417.73 84.7386 417.082C83.0646 415.732 80.3646 415.03 77.9346 415.354C77.6646 415.354 73.9386 415.678 73.8846 415.408C76.2606 412.708 78.5286 410.44 80.5806 407.578C80.7966 406.984 81.1206 406.66 81.2826 406.12Z" fill="#C70E25"/>
<path d="M83.5445 100.8C78.2165 100.584 73.9685 100.44 70.8725 100.44C69.2525 100.44 67.7765 100.548 66.4445 100.692C65.0765 100.836 63.9965 101.052 63.1325 101.304C62.2685 101.556 61.5125 101.844 60.9365 102.132C60.3245 102.456 59.8925 102.744 59.6405 103.032C59.3885 103.32 59.2805 103.572 59.2805 103.824C59.2805 103.968 59.3525 104.148 59.5325 104.328C59.6765 104.544 59.8565 104.724 60.0725 104.94C60.2525 105.156 60.4325 105.552 60.6125 106.128C60.7565 106.704 60.8645 107.424 60.8645 108.252V125.82C60.8645 125.928 60.9005 126 61.0085 126C62.2325 126.252 63.4925 126.36 64.7525 126.36C66.3005 126.36 67.5605 126.252 68.5685 126C68.6765 126 68.7485 125.928 68.7485 125.784V106.596H75.8405V108.612V111.132V113.904V116.748C75.8405 117.684 75.8045 118.62 75.8045 119.52C75.8045 120.42 75.8045 121.248 75.8045 122.004V123.984V125.352V125.82C75.8045 125.928 75.8405 126 75.9485 126C77.1725 126.252 78.4325 126.36 79.6925 126.36C81.2405 126.36 82.5005 126.252 83.5085 126C83.6165 126 83.6885 125.928 83.6885 125.784V100.98C83.6885 100.908 83.6165 100.836 83.5445 100.8ZM95.5863 107.316C92.6703 107.316 90.2583 108.216 88.3863 110.016C86.4783 111.816 85.5423 114.12 85.5423 117C85.5423 119.916 86.4783 122.256 88.3503 124.056C90.2223 125.856 92.6343 126.756 95.5863 126.756C98.5383 126.756 100.95 125.856 102.822 124.056C104.694 122.256 105.666 119.88 105.666 117C105.666 114.192 104.694 111.852 102.822 110.052C100.914 108.252 98.5023 107.316 95.5863 107.316ZM95.5863 122.688C94.5783 122.688 93.8583 122.184 93.3903 121.104C92.8863 120.06 92.6703 118.692 92.6703 117C92.6703 113.184 93.6423 111.276 95.5863 111.276C96.5943 111.276 97.3143 111.816 97.8183 112.86C98.2863 113.904 98.5383 115.272 98.5383 117C98.5383 120.816 97.5303 122.688 95.5863 122.688ZM126.929 113.688C126.929 109.044 125.993 105.372 124.121 102.636C122.249 99.936 119.621 98.568 116.201 98.568C114.329 98.568 112.601 99.18 110.945 100.332C109.289 101.52 108.389 102.852 108.245 104.292C108.173 104.724 108.353 104.94 108.749 104.94C108.821 104.94 109.145 104.832 109.649 104.544C110.153 104.256 110.837 104.004 111.629 103.716C112.421 103.428 113.213 103.284 114.005 103.284C115.949 103.284 117.389 104.004 118.289 105.444C119.189 106.884 119.657 108.612 119.657 110.556H119.549C119.549 110.556 119.513 110.448 119.405 110.304C119.261 110.16 119.081 109.944 118.829 109.728C118.541 109.512 118.253 109.26 117.893 109.044C117.533 108.828 117.065 108.648 116.561 108.504C116.021 108.36 115.481 108.252 114.905 108.252C112.529 108.252 110.657 109.116 109.217 110.772C107.777 112.428 107.093 114.588 107.093 117.18C107.093 119.988 107.957 122.256 109.685 124.056C111.413 125.856 113.753 126.72 116.669 126.72C119.909 126.72 122.429 125.568 124.229 123.192C126.029 120.816 126.929 117.648 126.929 113.688ZM116.849 122.544C115.265 122.472 114.473 120.6 114.545 116.928C114.545 115.704 114.761 114.66 115.193 113.796C115.589 112.932 116.201 112.536 117.065 112.608C118.721 112.752 119.513 114.372 119.477 117.432C119.441 118.152 119.405 118.764 119.333 119.268C119.261 119.772 119.117 120.312 118.973 120.888C118.793 121.464 118.541 121.86 118.181 122.148C117.821 122.436 117.353 122.58 116.849 122.544ZM148.132 119.232C148.132 117.612 148.168 113.94 148.24 108.216C148.24 108.144 148.168 108.072 148.06 108C147.052 107.82 145.9 107.712 144.64 107.712C143.488 107.712 142.372 107.82 141.328 108C141.184 108.072 141.148 108.144 141.148 108.216L140.788 110.52H140.68C140.176 109.584 139.492 108.828 138.556 108.288C137.62 107.748 136.576 107.46 135.388 107.46C133.156 107.46 131.392 108.468 130.096 110.412C128.8 112.392 128.152 114.696 128.152 117.324C128.152 119.88 128.764 122.076 130.06 123.876C131.32 125.676 133.048 126.576 135.208 126.576C136.432 126.576 137.512 126.252 138.52 125.604C139.528 124.956 140.284 124.056 140.788 122.904H140.896C141.04 124.056 141.544 124.992 142.372 125.64C143.164 126.288 144.208 126.612 145.432 126.612C146.584 126.612 147.628 126.252 148.564 125.496C149.5 124.74 149.968 123.984 149.968 123.264C149.968 123.048 149.86 122.868 149.644 122.724C148.636 122.076 148.132 120.888 148.132 119.232ZM138.268 121.608C137.404 121.608 136.72 121.176 136.252 120.276C135.748 119.412 135.532 118.26 135.532 116.892C135.532 115.524 135.748 114.408 136.252 113.508C136.72 112.608 137.404 112.14 138.268 112.14C139.132 112.14 139.816 112.608 140.32 113.508C140.788 114.408 141.04 115.524 141.04 116.892C141.04 118.26 140.788 119.412 140.32 120.276C139.816 121.176 139.132 121.608 138.268 121.608ZM161.841 112.14C162.705 112.14 163.353 112.608 163.857 113.508C164.325 114.408 164.577 115.524 164.577 116.892C164.577 118.26 164.325 119.412 163.857 120.276C163.353 121.176 162.705 121.608 161.841 121.608C160.941 121.608 160.257 121.176 159.789 120.276C159.285 119.412 159.069 118.26 159.069 116.892C159.069 115.524 159.285 114.408 159.789 113.508C160.257 112.608 160.941 112.14 161.841 112.14ZM155.001 107.388C153.669 107.388 152.589 107.82 151.725 108.684C150.861 109.548 150.465 110.232 150.465 110.736C150.465 110.952 150.573 111.132 150.789 111.276C151.293 111.636 151.617 112.068 151.833 112.572C152.049 113.076 152.157 113.832 152.157 114.768C152.157 127.944 152.121 134.64 152.085 134.82C152.085 134.928 152.121 135 152.229 135C153.453 135.252 154.569 135.36 155.577 135.36C156.981 135.36 158.169 135.252 159.177 135C159.285 135 159.357 134.928 159.357 134.784V123.444H159.465C160.509 125.532 162.129 126.576 164.325 126.576C166.557 126.576 168.393 125.604 169.797 123.588C171.165 121.608 171.885 119.304 171.885 116.676C171.885 114.012 171.237 111.816 170.013 110.088C168.789 108.36 167.061 107.46 164.865 107.46C163.641 107.46 162.525 107.784 161.481 108.432C160.401 109.08 159.681 109.98 159.285 111.132H159.177C159.141 110.988 159.069 110.736 158.997 110.376C158.385 108.396 157.053 107.388 155.001 107.388ZM192.701 108.216C192.701 108.144 192.665 108.072 192.593 108C191.441 107.784 190.289 107.676 189.137 107.676C187.877 107.676 186.689 107.82 185.537 108.036L185.393 108.252V117.648C185.393 118.908 185.141 119.916 184.637 120.636C184.133 121.356 183.629 121.716 183.053 121.716C182.657 121.716 182.333 121.536 182.117 121.176C181.865 120.816 181.757 120.312 181.757 119.592V111.924C181.757 110.52 181.289 109.404 180.425 108.612C179.561 107.82 178.445 107.424 177.113 107.424C175.781 107.424 174.701 107.856 173.873 108.72C173.009 109.584 172.613 110.304 172.613 110.844C172.613 111.132 172.721 111.312 172.937 111.42C173.945 112.104 174.485 113.22 174.485 114.768V121.284C174.485 123.012 174.953 124.344 175.889 125.244C176.825 126.18 178.013 126.612 179.489 126.612C180.641 126.612 181.793 126.324 182.873 125.712C183.953 125.1 184.817 124.092 185.465 122.652L185.573 122.688C185.609 123.048 185.645 123.3 185.717 123.444C185.933 124.452 186.401 125.208 187.121 125.784C187.805 126.36 188.705 126.648 189.821 126.648C191.153 126.648 192.233 126.216 193.097 125.352C193.925 124.488 194.357 123.804 194.357 123.264C194.357 123.048 194.249 122.868 194.033 122.724C193.097 122.148 192.665 120.996 192.665 119.268C192.665 111.996 192.665 108.288 192.701 108.216ZM223.326 122.58C222.75 122.256 222.21 121.788 221.778 121.14C221.31 120.528 220.914 119.916 220.626 119.268C220.302 118.656 219.978 118.044 219.618 117.396C219.258 116.784 218.826 116.244 218.322 115.812C217.782 115.38 217.17 115.056 216.45 114.912C216.63 114.408 216.954 113.976 217.386 113.58C217.818 113.22 218.322 113.004 218.898 113.004C219.366 113.004 219.834 113.148 220.338 113.364C220.842 113.616 221.094 113.724 221.13 113.724C221.454 113.724 221.85 113.436 222.318 112.824C222.786 112.212 223.038 111.528 223.038 110.736C223.038 109.836 222.714 109.044 222.066 108.36C221.418 107.712 220.482 107.352 219.258 107.352C217.602 107.352 216.198 108.036 215.082 109.404C213.966 110.772 213.354 112.608 213.282 114.912H212.13V111.708C212.13 110.412 211.698 109.332 210.87 108.54C210.006 107.748 208.926 107.352 207.63 107.352C206.298 107.352 205.218 107.784 204.354 108.648C203.49 109.512 203.094 110.196 203.094 110.7C203.094 110.916 203.202 111.096 203.418 111.24C204.318 111.888 204.786 112.896 204.786 114.3V125.784C204.786 125.892 204.822 125.964 204.93 125.964C206.226 126.216 207.45 126.324 208.566 126.324C209.358 126.324 210.474 126.216 211.986 125.964L212.13 125.748V118.26C212.31 118.26 212.49 118.296 212.634 118.368C212.778 118.44 212.922 118.512 212.994 118.548C213.066 118.62 213.174 118.728 213.246 118.908C213.318 119.124 213.354 119.232 213.354 119.268C213.354 119.34 213.39 119.484 213.462 119.7L213.534 120.06C213.714 121.032 213.93 121.86 214.182 122.544C214.398 123.228 214.758 123.912 215.19 124.56C215.622 125.244 216.162 125.748 216.882 126.108C217.566 126.468 218.394 126.612 219.366 126.612C220.77 126.612 221.886 126.252 222.714 125.496C223.506 124.74 223.938 124.02 223.938 123.336C223.938 123.084 223.722 122.832 223.326 122.58ZM244.24 108.216C244.24 108.144 244.204 108.072 244.132 108C242.98 107.784 241.828 107.676 240.712 107.676C239.452 107.676 238.264 107.82 237.112 108.036L236.968 108.252V117.648C236.968 118.908 236.716 119.916 236.212 120.636C235.708 121.356 235.204 121.716 234.628 121.716C234.232 121.716 233.908 121.536 233.692 121.176C233.44 120.816 233.332 120.312 233.332 119.592V111.924C233.332 110.52 232.864 109.404 232 108.612C231.136 107.82 230.02 107.424 228.688 107.424C227.356 107.424 226.276 107.856 225.448 108.72C224.584 109.584 224.188 110.304 224.188 110.844C224.188 111.132 224.296 111.312 224.512 111.42C225.52 112.104 226.06 113.22 226.06 114.768V121.104C226.06 122.868 226.528 124.2 227.464 125.136C228.4 126.072 229.588 126.54 231.064 126.54C233.872 126.54 235.816 125.316 236.968 122.832H237.076V126.684C237.076 127.836 236.644 128.88 235.78 129.744C234.916 130.644 233.8 131.076 232.432 131.076C231.244 131.076 230.236 130.896 229.372 130.464C228.508 130.068 227.824 129.672 227.392 129.276C226.96 128.88 226.636 128.664 226.456 128.664C226.168 128.664 226.024 128.88 226.024 129.24C226.024 129.816 226.168 130.464 226.528 131.148C226.852 131.832 227.356 132.516 228.004 133.164C228.652 133.848 229.516 134.424 230.668 134.856C231.784 135.324 233.044 135.54 234.412 135.54C237.544 135.54 239.956 134.64 241.684 132.768C243.376 130.932 244.24 128.484 244.24 125.388V108.216ZM247.462 125.82C247.462 125.928 247.498 126 247.606 126C248.83 126.252 250.054 126.36 251.206 126.36C252.502 126.36 253.654 126.252 254.662 126C254.77 126 254.842 125.928 254.842 125.784V116.28C254.842 115.056 255.094 114.084 255.598 113.364C256.102 112.644 256.642 112.248 257.218 112.248C257.578 112.248 257.902 112.428 258.154 112.788C258.37 113.148 258.514 113.688 258.514 114.372V122.256C258.514 123.696 258.91 124.776 259.774 125.568C260.602 126.36 261.682 126.72 263.05 126.72C264.346 126.72 265.426 126.288 266.29 125.424C267.154 124.56 267.586 123.876 267.586 123.336C267.586 123.12 267.478 122.94 267.262 122.796C266.254 122.148 265.75 120.96 265.75 119.268C265.75 118.26 265.75 117.036 265.75 115.56C265.75 114.084 265.786 113.148 265.786 112.716C265.786 110.988 265.282 109.656 264.346 108.72C263.41 107.784 262.222 107.28 260.818 107.28C259.702 107.28 258.586 107.604 257.47 108.252C256.318 108.9 255.454 109.908 254.806 111.276H254.698C254.662 111.132 254.626 110.88 254.59 110.592C254.374 109.584 253.906 108.792 253.186 108.18C252.466 107.604 251.566 107.28 250.45 107.28C249.118 107.28 248.038 107.712 247.174 108.576C246.31 109.44 245.914 110.124 245.914 110.628C245.914 110.844 246.022 111.024 246.238 111.168C246.742 111.528 247.066 111.96 247.282 112.464C247.498 112.968 247.606 113.724 247.606 114.66C247.606 121.716 247.534 125.46 247.462 125.82ZM278.61 107.316C275.694 107.316 273.282 108.216 271.41 110.016C269.502 111.816 268.566 114.12 268.566 117C268.566 119.916 269.502 122.256 271.374 124.056C273.246 125.856 275.658 126.756 278.61 126.756C281.562 126.756 283.974 125.856 285.846 124.056C287.718 122.256 288.69 119.88 288.69 117C288.69 114.192 287.718 111.852 285.846 110.052C283.938 108.252 281.526 107.316 278.61 107.316ZM278.61 122.688C277.602 122.688 276.882 122.184 276.414 121.104C275.91 120.06 275.694 118.692 275.694 117C275.694 113.184 276.666 111.276 278.61 111.276C279.618 111.276 280.338 111.816 280.842 112.86C281.31 113.904 281.562 115.272 281.562 117C281.562 120.816 280.554 122.688 278.61 122.688ZM302.11 122.184C302.11 123.624 302.506 124.704 303.37 125.496C304.198 126.288 305.278 126.648 306.646 126.648C307.942 126.648 309.022 126.216 309.886 125.352C310.75 124.488 311.182 123.804 311.182 123.264C311.182 123.048 311.074 122.868 310.858 122.724C309.85 122.076 309.346 120.888 309.346 119.196V108.18C309.346 108.108 309.31 108.036 309.238 108C308.194 107.784 307.006 107.64 305.71 107.64C304.522 107.64 303.37 107.784 302.254 108C302.146 108.036 302.11 108.108 302.11 108.18V114.516H298.474V111.744C298.474 110.448 298.042 109.368 297.178 108.576C296.314 107.784 295.234 107.388 293.938 107.388C292.606 107.388 291.526 107.82 290.662 108.684C289.798 109.548 289.402 110.232 289.402 110.736C289.402 110.952 289.51 111.132 289.726 111.276C290.23 111.636 290.554 112.068 290.77 112.572C290.986 113.076 291.094 113.832 291.094 114.768C291.094 121.752 291.022 125.46 290.95 125.82C290.95 125.928 290.986 126 291.094 126C292.318 126.252 293.542 126.36 294.694 126.36C296.098 126.36 297.286 126.252 298.294 126C298.402 126 298.474 125.928 298.474 125.784V118.332H302.11V122.184ZM65.3416 150.968C65.3416 149.384 64.6216 148.052 63.1816 147.008C61.7416 145.964 59.9056 145.424 57.7096 145.424C54.6136 145.424 52.1296 146.36 50.2576 148.196C48.3856 150.068 47.4856 152.336 47.4856 155C47.4856 157.808 48.3136 160.076 50.0416 161.876C51.7696 163.676 54.1816 164.576 57.3496 164.576C59.6896 164.576 61.6336 163.892 63.2176 162.452C64.8016 161.048 65.5936 159.824 65.5936 158.744C65.5936 158.42 65.4496 158.24 65.1616 158.24C65.0176 158.24 64.4056 158.492 63.2896 158.924C62.1736 159.356 61.1296 159.572 60.1216 159.572C58.2496 159.572 56.8456 159.032 55.9816 157.952C55.1176 156.872 54.6856 155.576 54.6856 153.992C54.6856 152.696 54.9376 151.544 55.4776 150.536C55.9816 149.528 56.6296 149.024 57.4216 149.024C58.3576 149.024 58.8616 149.744 58.8616 151.184C58.8616 151.472 58.8256 151.832 58.7536 152.3C58.6816 152.768 58.6816 153.056 58.6816 153.2C58.6816 153.56 58.9696 153.92 59.5456 154.28C60.1216 154.64 60.8056 154.784 61.5256 154.784C62.7496 154.784 63.7216 154.388 64.3696 153.596C65.0176 152.804 65.3416 151.94 65.3416 150.968ZM81.4367 153.956V153.812C82.3007 153.668 83.0207 153.272 83.6327 152.696C84.2087 152.12 84.5687 151.4 84.6767 150.536C84.8567 149.24 84.2807 148.016 82.9487 146.936C81.6167 145.856 79.6007 145.28 76.9007 145.28C73.7327 145.28 71.2487 146.144 69.4847 147.8C67.7207 149.492 66.8567 151.832 66.8567 154.856C66.8567 158.204 67.7207 160.688 69.5207 162.272C71.2847 163.892 73.7327 164.684 76.9007 164.684C79.6367 164.684 81.8327 164.072 83.4167 162.776C85.0007 161.48 85.8287 160.04 85.8287 158.384C85.8287 157.124 85.3607 156.116 84.4967 155.36C83.5967 154.604 82.5887 154.136 81.4367 153.956ZM76.5407 149.24C76.9727 149.24 77.3327 149.42 77.6207 149.744C77.9087 150.068 78.0527 150.428 78.0527 150.824C78.0527 151.508 77.7287 152.084 77.1527 152.588C76.5407 153.092 75.6407 153.38 74.4167 153.452H74.0927C74.0567 152.228 74.2367 151.22 74.6327 150.428C75.0287 149.636 75.6767 149.24 76.5407 149.24ZM76.7927 160.796C74.9207 160.796 74.0207 159.212 74.0927 156.008C74.3447 156.008 74.6327 155.972 74.9207 155.972C76.1447 155.972 77.1167 156.26 77.8367 156.8C78.5207 157.34 78.8807 157.952 78.8807 158.672C78.8807 159.248 78.6647 159.752 78.3047 160.184C77.9447 160.616 77.4407 160.796 76.7927 160.796ZM96.9398 145.316C94.0238 145.316 91.6118 146.216 89.7398 148.016C87.8318 149.816 86.8958 152.12 86.8958 155C86.8958 157.916 87.8318 160.256 89.7038 162.056C91.5758 163.856 93.9878 164.756 96.9398 164.756C99.8918 164.756 102.304 163.856 104.176 162.056C106.048 160.256 107.02 157.88 107.02 155C107.02 152.192 106.048 149.852 104.176 148.052C102.268 146.252 99.8558 145.316 96.9398 145.316ZM96.9398 160.688C95.9318 160.688 95.2118 160.184 94.7438 159.104C94.2398 158.06 94.0238 156.692 94.0238 155C94.0238 151.184 94.9958 149.276 96.9398 149.276C97.9478 149.276 98.6678 149.816 99.1718 150.86C99.6398 151.904 99.8918 153.272 99.8918 155C99.8918 158.816 98.8838 160.688 96.9398 160.688ZM127.82 146.216C127.82 146.144 127.784 146.072 127.712 146C126.56 145.784 125.408 145.676 124.256 145.676C122.996 145.676 121.808 145.82 120.656 146.036L120.512 146.252V155.648C120.512 156.908 120.26 157.916 119.756 158.636C119.252 159.356 118.748 159.716 118.172 159.716C117.776 159.716 117.452 159.536 117.236 159.176C116.984 158.816 116.876 158.312 116.876 157.592V149.924C116.876 148.52 116.408 147.404 115.544 146.612C114.68 145.82 113.564 145.424 112.232 145.424C110.9 145.424 109.82 145.856 108.992 146.72C108.128 147.584 107.732 148.304 107.732 148.844C107.732 149.132 107.84 149.312 108.056 149.42C109.064 150.104 109.604 151.22 109.604 152.768V159.284C109.604 161.012 110.072 162.344 111.008 163.244C111.944 164.18 113.132 164.612 114.608 164.612C115.76 164.612 116.912 164.324 117.992 163.712C119.072 163.1 119.936 162.092 120.584 160.652L120.692 160.688C120.728 161.048 120.764 161.3 120.836 161.444C121.052 162.452 121.52 163.208 122.24 163.784C122.924 164.36 123.824 164.648 124.94 164.648C126.272 164.648 127.352 164.216 128.216 163.352C129.044 162.488 129.476 161.804 129.476 161.264C129.476 161.048 129.368 160.868 129.152 160.724C128.216 160.148 127.784 158.996 127.784 157.268C127.784 149.996 127.784 146.288 127.82 146.216ZM142.694 163.136C142.802 163.496 142.982 163.748 143.198 163.856C143.414 164 143.738 164.036 144.17 164.036C144.962 164.036 145.466 163.748 145.682 163.136C145.718 162.992 145.97 162.344 146.438 161.12C146.87 159.896 147.41 158.492 148.058 156.836C148.67 155.216 149.174 153.92 149.534 152.984H149.642L149.57 160.256C149.57 161.696 150.002 162.776 150.866 163.568C151.73 164.36 152.846 164.72 154.214 164.72C155.51 164.72 156.59 164.288 157.454 163.424C158.318 162.56 158.75 161.876 158.75 161.336C158.75 161.12 158.642 160.94 158.426 160.796C157.418 160.148 156.914 158.96 156.914 157.268V146.252C156.914 146.18 156.878 146.108 156.842 146.072C156.77 146.072 156.59 146.036 156.266 145.964C155.942 145.892 155.474 145.82 154.862 145.748C154.214 145.676 153.602 145.64 153.026 145.64C151.55 145.64 150.326 145.784 149.354 146.036C149.318 146.036 149.282 146.072 149.246 146.108C149.21 146.18 149.066 146.576 148.778 147.368C148.49 148.16 148.166 149.096 147.77 150.176C147.338 151.292 147.014 152.192 146.726 152.876H146.618C145.682 150.428 144.89 148.736 144.278 147.8C143.09 146.144 141.29 145.28 138.878 145.28C137.042 145.28 135.494 145.748 134.234 146.648C132.974 147.584 132.362 148.376 132.362 149.024C132.362 149.456 132.686 149.672 133.37 149.672C133.478 149.672 133.73 149.672 134.09 149.636C134.45 149.636 134.702 149.636 134.882 149.636C134.81 154.856 134.054 157.448 132.542 157.448C132.326 157.448 132.11 157.412 131.894 157.268C131.678 157.124 131.534 157.052 131.462 157.052C131.174 157.052 130.814 157.448 130.418 158.168C130.022 158.924 129.842 159.752 129.842 160.616C129.842 161.84 130.202 162.848 130.922 163.604C131.642 164.36 132.614 164.72 133.838 164.72C134.702 164.72 135.422 164.54 136.07 164.18C136.718 163.82 137.186 163.28 137.546 162.56C137.906 161.84 138.158 161.12 138.374 160.328C138.59 159.536 138.698 158.636 138.734 157.556C138.734 156.476 138.734 155.54 138.698 154.712C138.662 153.92 138.59 152.984 138.518 151.904H138.662C139.166 152.876 139.634 154.028 140.138 155.324C140.606 156.656 141.11 158.24 141.686 160.04C142.262 161.84 142.586 162.884 142.694 163.136ZM179.81 146.756C178.334 146.828 177.038 147.224 175.922 148.016C174.77 148.808 173.906 149.924 173.33 151.364H173.186L173.114 150.608C173.042 150.104 173.15 149.42 173.438 148.592C173.69 147.8 174.122 147.08 174.77 146.468C175.526 145.712 176.606 145.172 177.974 144.848C179.342 144.524 180.71 144.236 182.078 143.948C183.446 143.66 184.49 143.192 185.246 142.508C186.542 141.32 187.226 139.664 187.226 137.504C187.226 136.928 187.082 136.388 186.83 135.848C186.578 135.308 186.362 135.02 186.146 135.02C186.038 135.02 185.93 135.056 185.822 135.128C185.678 135.2 185.498 135.344 185.21 135.488C184.922 135.668 184.562 135.812 184.202 135.956C183.41 136.28 182.15 136.676 180.35 137.108C178.55 137.54 176.93 138.08 175.526 138.692C174.086 139.34 172.826 140.204 171.746 141.284C169.226 143.804 167.966 147.62 167.966 152.732C167.966 156.548 168.83 159.5 170.63 161.588C172.43 163.676 174.77 164.72 177.686 164.72C180.566 164.72 182.942 163.784 184.742 161.876C186.542 159.968 187.478 157.628 187.478 154.856C187.478 152.48 186.758 150.5 185.318 148.952C183.878 147.44 182.042 146.684 179.81 146.756ZM177.722 160.616C176.858 160.616 176.246 160.112 175.85 159.032C175.418 157.988 175.238 156.872 175.238 155.72C175.238 154.496 175.418 153.416 175.85 152.516C176.246 151.652 176.894 151.184 177.794 151.184C178.622 151.184 179.234 151.652 179.594 152.516C179.954 153.416 180.17 154.496 180.17 155.72C180.17 158.996 179.342 160.616 177.722 160.616ZM208.976 160.652C207.968 160.004 207.464 158.816 207.464 157.124C207.464 156.224 207.464 155.36 207.464 154.568C207.464 153.776 207.5 153.164 207.5 152.732C207.5 152.336 207.536 152.048 207.536 151.868C207.536 149.564 206.852 147.908 205.52 146.864C204.152 145.82 202.388 145.28 200.192 145.28C197.744 145.28 195.656 145.82 193.856 146.828C192.056 147.872 191.156 148.808 191.156 149.6C191.156 150.032 191.48 150.248 192.128 150.248C192.344 150.248 192.596 150.248 192.956 150.212C193.28 150.212 193.496 150.176 193.64 150.176C193.64 152.3 193.388 154.028 192.884 155.324C192.38 156.656 191.66 157.304 190.796 157.304C190.58 157.304 190.364 157.268 190.148 157.124C189.932 156.98 189.788 156.908 189.716 156.908C189.428 156.908 189.068 157.304 188.672 158.024C188.276 158.78 188.096 159.608 188.096 160.472C188.096 161.696 188.456 162.704 189.176 163.46C189.896 164.216 190.868 164.576 192.092 164.576C193.172 164.576 194.072 164.288 194.792 163.64C195.512 163.028 196.052 162.272 196.412 161.372C196.772 160.472 196.988 159.32 197.132 157.916C197.276 156.512 197.312 155.252 197.312 154.136C197.276 153.02 197.204 151.724 197.132 150.212C197.816 150.212 198.392 150.284 198.824 150.464C199.256 150.644 199.544 150.932 199.724 151.328C199.868 151.724 199.976 152.084 200.048 152.408C200.084 152.732 200.12 153.164 200.12 153.668V160.112C200.12 161.552 200.552 162.632 201.416 163.424C202.28 164.216 203.396 164.576 204.764 164.576C206.06 164.576 207.14 164.144 208.004 163.28C208.868 162.416 209.3 161.732 209.3 161.192C209.3 160.976 209.192 160.796 208.976 160.652ZM229.879 146.216C229.879 146.144 229.843 146.072 229.771 146C228.619 145.784 227.467 145.676 226.315 145.676C225.055 145.676 223.867 145.82 222.715 146.036L222.571 146.252V155.648C222.571 156.908 222.319 157.916 221.815 158.636C221.311 159.356 220.807 159.716 220.231 159.716C219.835 159.716 219.511 159.536 219.295 159.176C219.043 158.816 218.935 158.312 218.935 157.592V149.924C218.935 148.52 218.467 147.404 217.603 146.612C216.739 145.82 215.623 145.424 214.291 145.424C212.959 145.424 211.879 145.856 211.051 146.72C210.187 147.584 209.791 148.304 209.791 148.844C209.791 149.132 209.899 149.312 210.115 149.42C211.123 150.104 211.663 151.22 211.663 152.768V159.284C211.663 161.012 212.131 162.344 213.067 163.244C214.003 164.18 215.191 164.612 216.667 164.612C217.819 164.612 218.971 164.324 220.051 163.712C221.131 163.1 221.995 162.092 222.643 160.652L222.751 160.688C222.787 161.048 222.823 161.3 222.895 161.444C223.111 162.452 223.579 163.208 224.299 163.784C224.983 164.36 225.883 164.648 226.999 164.648C228.331 164.648 229.411 164.216 230.275 163.352C231.103 162.488 231.535 161.804 231.535 161.264C231.535 161.048 231.427 160.868 231.211 160.724C230.275 160.148 229.843 158.996 229.843 157.268C229.843 149.996 229.843 146.288 229.879 146.216ZM246.337 154.532V154.388C247.345 154.172 248.209 153.704 248.929 152.984C249.649 152.264 250.009 151.4 250.009 150.392C250.009 148.952 249.253 147.764 247.777 146.828C246.301 145.892 244.465 145.388 242.269 145.388C239.389 145.388 237.049 146.108 235.285 147.548C233.521 148.988 232.657 150.32 232.657 151.544C232.657 151.94 232.801 152.12 233.089 152.12C233.269 152.12 233.665 151.976 234.277 151.688C234.853 151.4 235.645 151.112 236.581 150.824C237.517 150.536 238.489 150.356 239.497 150.356C240.181 150.356 240.757 150.464 241.225 150.608C241.693 150.788 242.017 151.004 242.233 151.256C242.413 151.544 242.521 151.76 242.593 151.94C242.665 152.156 242.701 152.336 242.701 152.516C242.701 152.984 242.557 153.416 242.305 153.848C241.045 153.452 240.073 153.38 239.425 153.668C238.741 153.956 238.417 154.424 238.417 155.072C238.417 155.684 238.741 156.116 239.461 156.404C240.145 156.692 241.153 156.548 242.485 156.044L242.665 156.296C242.737 156.512 242.845 156.8 242.953 157.16C243.061 157.52 243.133 157.916 243.133 158.276C243.133 158.924 242.917 159.5 242.521 160.004C242.089 160.508 241.549 160.76 240.829 160.76C240.181 160.76 239.677 160.58 239.245 160.184C238.813 159.824 238.633 159.284 238.633 158.636C238.633 158.492 238.633 158.276 238.705 157.988C238.741 157.7 238.777 157.52 238.777 157.412C238.777 157.196 238.453 156.908 237.805 156.62C237.157 156.332 236.509 156.152 235.861 156.152C234.745 156.152 233.881 156.476 233.269 157.088C232.621 157.736 232.333 158.492 232.333 159.392C232.333 161.084 233.197 162.38 234.961 163.316C236.689 164.252 238.705 164.684 240.973 164.684C242.629 164.684 244.141 164.504 245.545 164.072C246.949 163.676 248.137 163.028 249.073 162.128C250.009 161.228 250.477 160.148 250.477 158.852C250.477 157.7 250.081 156.764 249.289 156.008C248.497 155.252 247.525 154.748 246.337 154.532ZM271.086 160.58C270.51 160.256 269.97 159.788 269.538 159.14C269.07 158.528 268.674 157.916 268.386 157.268C268.062 156.656 267.738 156.044 267.378 155.396C267.018 154.784 266.586 154.244 266.082 153.812C265.542 153.38 264.93 153.056 264.21 152.912C264.39 152.408 264.714 151.976 265.146 151.58C265.578 151.22 266.082 151.004 266.658 151.004C267.126 151.004 267.594 151.148 268.098 151.364C268.602 151.616 268.854 151.724 268.89 151.724C269.214 151.724 269.61 151.436 270.078 150.824C270.546 150.212 270.798 149.528 270.798 148.736C270.798 147.836 270.474 147.044 269.826 146.36C269.178 145.712 268.242 145.352 267.018 145.352C265.362 145.352 263.958 146.036 262.842 147.404C261.726 148.772 261.114 150.608 261.042 152.912H259.89V149.708C259.89 148.412 259.458 147.332 258.63 146.54C257.766 145.748 256.686 145.352 255.39 145.352C254.058 145.352 252.978 145.784 252.114 146.648C251.25 147.512 250.854 148.196 250.854 148.7C250.854 148.916 250.962 149.096 251.178 149.24C252.078 149.888 252.546 150.896 252.546 152.3V163.784C252.546 163.892 252.582 163.964 252.69 163.964C253.986 164.216 255.21 164.324 256.326 164.324C257.118 164.324 258.234 164.216 259.746 163.964L259.89 163.748V156.26C260.07 156.26 260.25 156.296 260.394 156.368C260.538 156.44 260.682 156.512 260.754 156.548C260.826 156.62 260.934 156.728 261.006 156.908C261.078 157.124 261.114 157.232 261.114 157.268C261.114 157.34 261.15 157.484 261.222 157.7L261.294 158.06C261.474 159.032 261.69 159.86 261.942 160.544C262.158 161.228 262.518 161.912 262.95 162.56C263.382 163.244 263.922 163.748 264.642 164.108C265.326 164.468 266.154 164.612 267.126 164.612C268.53 164.612 269.646 164.252 270.474 163.496C271.266 162.74 271.698 162.02 271.698 161.336C271.698 161.084 271.482 160.832 271.086 160.58ZM292.035 146.216C292.035 146.144 291.999 146.072 291.927 146C290.775 145.784 289.623 145.676 288.471 145.676C287.211 145.676 286.023 145.82 284.871 146.036L284.727 146.252V155.648C284.727 156.908 284.475 157.916 283.971 158.636C283.467 159.356 282.963 159.716 282.387 159.716C281.991 159.716 281.667 159.536 281.451 159.176C281.199 158.816 281.091 158.312 281.091 157.592V149.924C281.091 148.52 280.623 147.404 279.759 146.612C278.895 145.82 277.779 145.424 276.447 145.424C275.115 145.424 274.035 145.856 273.207 146.72C272.343 147.584 271.947 148.304 271.947 148.844C271.947 149.132 272.055 149.312 272.271 149.42C273.279 150.104 273.819 151.22 273.819 152.768V159.284C273.819 161.012 274.287 162.344 275.223 163.244C276.159 164.18 277.347 164.612 278.823 164.612C279.975 164.612 281.127 164.324 282.207 163.712C283.287 163.1 284.151 162.092 284.799 160.652L284.907 160.688C284.943 161.048 284.979 161.3 285.051 161.444C285.267 162.452 285.735 163.208 286.455 163.784C287.139 164.36 288.039 164.648 289.155 164.648C290.487 164.648 291.567 164.216 292.431 163.352C293.259 162.488 293.691 161.804 293.691 161.264C293.691 161.048 293.583 160.868 293.367 160.724C292.431 160.148 291.999 158.996 291.999 157.268C291.999 149.996 291.999 146.288 292.035 146.216ZM306.909 163.136C307.017 163.496 307.197 163.748 307.413 163.856C307.629 164 307.953 164.036 308.385 164.036C309.177 164.036 309.681 163.748 309.897 163.136C309.933 162.992 310.185 162.344 310.653 161.12C311.085 159.896 311.625 158.492 312.273 156.836C312.885 155.216 313.389 153.92 313.749 152.984H313.857L313.785 160.256C313.785 161.696 314.217 162.776 315.081 163.568C315.945 164.36 317.061 164.72 318.429 164.72C319.725 164.72 320.805 164.288 321.669 163.424C322.533 162.56 322.965 161.876 322.965 161.336C322.965 161.12 322.857 160.94 322.641 160.796C321.633 160.148 321.129 158.96 321.129 157.268V146.252C321.129 146.18 321.093 146.108 321.057 146.072C320.985 146.072 320.805 146.036 320.481 145.964C320.157 145.892 319.689 145.82 319.077 145.748C318.429 145.676 317.817 145.64 317.241 145.64C315.765 145.64 314.541 145.784 313.569 146.036C313.533 146.036 313.497 146.072 313.461 146.108C313.425 146.18 313.281 146.576 312.993 147.368C312.705 148.16 312.381 149.096 311.985 150.176C311.553 151.292 311.229 152.192 310.941 152.876H310.833C309.897 150.428 309.105 148.736 308.493 147.8C307.305 146.144 305.505 145.28 303.093 145.28C301.257 145.28 299.709 145.748 298.449 146.648C297.189 147.584 296.577 148.376 296.577 149.024C296.577 149.456 296.901 149.672 297.585 149.672C297.693 149.672 297.945 149.672 298.305 149.636C298.665 149.636 298.917 149.636 299.097 149.636C299.025 154.856 298.269 157.448 296.757 157.448C296.541 157.448 296.325 157.412 296.109 157.268C295.893 157.124 295.749 157.052 295.677 157.052C295.389 157.052 295.029 157.448 294.633 158.168C294.237 158.924 294.057 159.752 294.057 160.616C294.057 161.84 294.417 162.848 295.137 163.604C295.857 164.36 296.829 164.72 298.053 164.72C298.917 164.72 299.637 164.54 300.285 164.18C300.933 163.82 301.401 163.28 301.761 162.56C302.121 161.84 302.373 161.12 302.589 160.328C302.805 159.536 302.913 158.636 302.949 157.556C302.949 156.476 302.949 155.54 302.913 154.712C302.877 153.92 302.805 152.984 302.733 151.904H302.877C303.381 152.876 303.849 154.028 304.353 155.324C304.821 156.656 305.325 158.24 305.901 160.04C306.477 161.84 306.801 162.884 306.909 163.136Z" fill="#C70E25"/>
<defs>
<filter id="filter0_d" x="0" y="0" width="368" height="512" filterUnits="userSpaceOnUse" color-interpolation-filters="sRGB">
<feFlood flood-opacity="0" result="BackgroundImageFix"/>
<feColorMatrix in="SourceAlpha" type="matrix" values="0 0 0 0 0 0 0 0 0 0 0 0 0 0 0 0 0 0 127 0"/>
<feOffset/>
<feGaussianBlur stdDeviation="7"/>
<feColorMatrix type="matrix" values="0 0 0 0 0.231373 0 0 0 0 0.172549 0 0 0 0 0.447059 0 0 0 0.7 0"/>
<feBlend mode="normal" in2="BackgroundImageFix" result="effect1_dropShadow"/>
<feBlend mode="normal" in="SourceGraphic" in2="effect1_dropShadow" result="shape"/>
</filter>
</defs>
</svg>
