<svg width="521" height="299" viewBox="0 0 521 299" fill="none" xmlns="http://www.w3.org/2000/svg">
<path fill-rule="evenodd" clip-rule="evenodd" d="M492.717 122.641C492.717 122.641 490.73 103.649 505.342 95.6433C522.56 86.2106 525.842 107.228 513.695 114.793C505.497 119.9 492.717 122.641 492.717 122.641Z" fill="white"/>
<path fill-rule="evenodd" clip-rule="evenodd" d="M492.823 123.976C492.823 123.976 506.694 111.766 501.862 95.6497C496.176 76.6627 480.069 89.3981 483.484 103.449C485.66 110.687 488.802 117.593 492.823 123.976Z" fill="white"/>
<path fill-rule="evenodd" clip-rule="evenodd" d="M31.113 290.599C31.113 290.599 15.885 286.537 14.0154 272.913C11.8135 256.859 28.9852 260.519 31.2406 272.113C32.764 279.938 31.113 290.599 31.113 290.599Z" fill="white"/>
<path fill-rule="evenodd" clip-rule="evenodd" d="M32.1739 290.91C32.1739 290.91 26.845 276.619 12.9957 275.598C-3.31858 274.39 1.75691 290.56 13.5969 292.065C19.8183 292.519 26.0679 292.13 32.1739 290.91Z" fill="white"/>
<path fill-rule="evenodd" clip-rule="evenodd" d="M428.247 77.8827C428.247 77.8827 442.3 81.7368 450.828 71.5742C460.879 59.6055 445.511 54.5053 437.731 62.8405C433.903 67.4083 430.713 72.4688 428.247 77.8827Z" fill="white"/>
<path fill-rule="evenodd" clip-rule="evenodd" d="M500.226 133.759C500.226 133.759 508.207 139.329 515.848 134.842C524.851 129.559 516.322 122.911 509.56 126.415C506.129 128.433 502.989 130.904 500.226 133.759Z" fill="white"/>
<g filter="url(#filter0_d)">
<path d="M59.1 150.2H81.9C93.1 150.2 102.4 144.1 102.4 132.2C102.4 125.1 98.6 118.9 91.9 116.9V116.7C96.8 114.2 99.8 109.3 99.8 103.1C99.8 92.9 92.2 87 81.4 87H59.1V150.2ZM68 113.6V94.7H81.2C87.2 94.7 90.7 98.5 90.7 104C90.7 109.5 87.1 113.6 81.3 113.6H68ZM68 142.5V120.9H82.3C89 120.9 93.2 125.3 93.2 131.6C93.2 138.1 89.1 142.4 82.3 142.4H68V142.5Z" fill="white"/>
<path d="M165.6 150.2H174.4V87H165.6V150.2ZM115.3 150.2H137.7C148.8 150.2 156.6 142.4 156.6 130.7C156.6 118.1 148.4 110.8 137.2 110.8H124.2V87H115.3V150.2ZM124.2 142.5V118.5H136.1C143.1 118.5 147.6 123.2 147.6 130.7C147.6 138 143.4 142.5 136.3 142.5H124.2Z" fill="white"/>
<path d="M191.3 150.2H200L228.4 109.2C230.7 105.7 233.7 100 233.7 100H233.9C233.9 100 233.4 105.6 233.4 109.2V150.2H242.2V87H233.5L205.3 127.9C203 131.3 199.9 137.2 199.9 137.2H199.7C199.7 137.2 200.2 131.6 200.2 128V87H191.3V150.2Z" fill="white"/>
<path d="M259 150.2H267.9V94.7H294V87H259V150.2Z" fill="white"/>
<path d="M303.6 150.2H312.5V126.9H326.9C338.5 126.9 346.8 118.8 346.8 106.8C346.8 94.8 338.5 87 326.9 87H303.6V150.2ZM312.5 119.2V94.7H325.6C333.1 94.7 337.8 99.3 337.8 106.8C337.8 114.4 333 119.2 325.5 119.2H312.5Z" fill="white"/>
<path d="M347.5 150.2H356.6L363 132H387L393.4 150.2H402.6L379.8 87H370.3L347.5 150.2ZM365.4 124.7L372.5 104.7C373.6 101.4 374.9 95.7 374.9 95.7H375.1C375.1 95.7 376.5 101.4 377.6 104.7L384.6 124.7H365.4Z" fill="white"/>
<path d="M89.194 253.747V253.449C90.9832 253.152 92.4743 252.333 93.7417 251.142C94.9345 249.951 95.6801 248.463 95.9037 246.677C96.2765 243.997 95.0836 241.467 92.3252 239.234C89.5667 237.001 85.3918 235.811 79.8003 235.811C73.2396 235.811 68.0955 237.597 64.4424 241.02C60.7893 244.518 59 249.356 59 255.608C59 262.529 60.7893 267.664 64.5169 270.939C68.17 274.288 73.2396 275.926 79.8003 275.926C85.4663 275.926 90.014 274.66 93.2944 271.981C96.5747 269.302 98.2894 266.325 98.2894 262.901C98.2894 260.296 97.3202 258.212 95.531 256.65C93.6671 255.087 91.5797 254.119 89.194 253.747ZM79.0548 243.997C79.9494 243.997 80.6949 244.369 81.2913 245.039C81.8878 245.709 82.186 246.453 82.186 247.272C82.186 248.686 81.515 249.877 80.3222 250.919C79.0547 251.961 77.1909 252.556 74.6561 252.705H73.9852C73.9106 250.175 74.2834 248.091 75.1034 246.453C75.9235 244.816 77.2655 243.997 79.0548 243.997ZM79.5766 267.888C75.6999 267.888 73.836 264.613 73.9852 257.989C74.507 257.989 75.1034 257.915 75.6999 257.915C78.2347 257.915 80.2476 258.51 81.7387 259.627C83.1552 260.743 83.9007 262.008 83.9007 263.497C83.9007 264.687 83.4534 265.729 82.7078 266.622C81.9623 267.516 80.9186 267.888 79.5766 267.888Z" fill="white"/>
<path d="M177.998 223.009C177.998 222.861 177.849 222.712 177.551 222.637L176.582 222.414C175.836 222.34 174.792 222.191 173.376 222.042C171.959 221.893 170.543 221.819 169.052 221.819C166.368 221.819 163.759 222.116 161.224 222.637L160.702 222.935C158.838 229.782 156.303 238.341 153.097 248.612H152.427L151.532 245.411C150.935 243.327 150.115 240.797 149.221 237.969C148.252 235.141 147.431 233.057 146.76 231.643C146.164 230.601 145.642 229.633 145.195 228.889C144.748 228.145 144.077 227.252 143.182 226.135C142.287 225.093 141.318 224.2 140.349 223.53C139.305 222.861 138.112 222.265 136.621 221.744C135.13 221.298 133.49 221 131.775 221C128.495 221 125.737 221.893 123.649 223.53C121.487 225.242 120.369 226.805 120.22 228.219C120.22 228.666 120.443 229.112 120.965 229.633C121.487 230.154 122.009 230.899 122.456 231.866C122.904 232.834 123.127 234.024 122.978 235.438C119.921 255.235 118.356 268.185 118.281 274.139C118.281 274.363 118.356 274.511 118.654 274.511L119.325 274.735C119.772 274.884 120.443 275.032 121.412 275.181C122.307 275.33 123.276 275.33 124.245 275.33C126.184 275.33 128.122 275.107 129.986 274.511C130.284 274.511 130.433 274.363 130.433 274.065C130.806 260.966 131.626 250.696 132.819 243.327H133.266C135.354 245.858 138.709 256.129 143.48 274.214L143.927 274.511C144.971 274.958 146.462 275.181 148.401 275.181C149.594 275.181 151.159 275.032 153.172 274.586C153.396 274.437 153.545 274.288 153.619 273.991L163.609 242.434H163.908C165.548 250.621 166.592 261.189 166.89 274.139C166.89 274.437 166.964 274.586 167.263 274.586L168.083 274.809C168.53 274.958 169.499 275.032 170.916 275.181C172.332 275.33 173.972 275.405 175.836 275.405C179.191 275.405 181.651 275.181 183.291 274.586L183.441 274.511C183.515 274.511 183.59 274.512 183.739 274.437C183.888 274.363 183.962 274.214 183.962 274.065C183.664 255.756 181.726 238.788 177.998 223.009Z" fill="white"/>
<path d="M228.151 260.52C228.151 257.17 228.225 249.579 228.374 237.746C228.374 237.597 228.225 237.448 228.002 237.299C225.914 236.927 223.529 236.704 220.919 236.704C218.533 236.704 216.222 236.927 214.06 237.299C213.762 237.448 213.688 237.597 213.688 237.746L212.942 242.509H212.718C211.675 240.574 210.258 239.011 208.32 237.894C206.381 236.778 204.219 236.183 201.759 236.183C197.137 236.183 193.484 238.267 190.8 242.286C188.116 246.379 186.774 251.142 186.774 256.575C186.774 261.859 188.041 266.399 190.725 270.12C193.335 273.842 196.913 275.702 201.386 275.702C203.921 275.702 206.158 275.032 208.245 273.693C210.333 272.353 211.898 270.493 212.942 268.111H213.166C213.464 270.493 214.508 272.428 216.222 273.767C217.862 275.107 220.025 275.777 222.559 275.777C224.945 275.777 227.107 275.032 229.045 273.47C230.984 271.907 231.953 270.344 231.953 268.855C231.953 268.409 231.729 268.037 231.282 267.739C229.195 266.399 228.151 263.943 228.151 260.52ZM207.723 265.432C205.934 265.432 204.518 264.539 203.548 262.678C202.505 260.892 202.057 258.51 202.057 255.682C202.057 252.854 202.505 250.547 203.548 248.686C204.518 246.825 205.934 245.858 207.723 245.858C209.513 245.858 210.929 246.825 211.973 248.686C212.942 250.547 213.464 252.854 213.464 255.682C213.464 258.51 212.942 260.892 211.973 262.678C210.929 264.539 209.513 265.432 207.723 265.432Z" fill="white"/>
<path d="M268.992 262.529C268.619 262.529 267.874 262.827 266.681 263.348C265.488 263.869 263.922 264.39 261.984 264.985C260.045 265.581 258.107 265.804 256.169 265.804C253.783 265.804 252.665 265.134 252.665 263.72C252.665 262.827 253.187 262.008 254.305 261.264C255.349 260.52 256.691 259.775 258.256 259.031C259.822 258.287 261.387 257.468 262.953 256.575C264.519 255.682 265.861 254.417 266.979 252.779C268.023 251.217 268.619 249.356 268.619 247.272C268.619 243.551 266.979 240.648 263.773 238.713C260.567 236.778 256.84 235.811 252.59 235.811C247.297 235.811 242.824 237.225 239.096 239.904C235.368 242.658 233.579 245.635 233.579 248.76C233.579 249.356 233.877 249.654 234.474 249.654C234.772 249.654 235.518 249.356 236.71 248.76C237.903 248.165 239.469 247.57 241.407 246.974C243.271 246.379 245.209 246.081 247.222 246.081C248.341 246.081 249.31 246.379 250.055 246.825C250.801 247.346 251.248 248.016 251.248 248.909C251.248 249.951 250.652 250.919 249.459 251.737C248.266 252.556 246.924 253.3 245.284 253.97C243.644 254.714 242.004 255.459 240.363 256.352C238.723 257.245 237.381 258.51 236.338 260.147C235.219 261.785 234.697 263.645 234.847 265.804C234.996 268.93 236.412 271.46 239.171 273.246C241.855 275.107 245.582 276 250.204 276C255.498 276 260.046 274.735 263.922 272.055C267.799 269.451 269.737 266.548 269.886 263.422C269.886 262.827 269.588 262.529 268.992 262.529Z" fill="white"/>
<path d="M297.305 266.622C297.305 269.599 298.125 271.832 299.914 273.47C301.629 275.107 303.865 275.851 306.698 275.851C309.382 275.851 311.619 274.958 313.408 273.172C315.197 271.386 316.092 269.972 316.092 268.855C316.092 268.409 315.868 268.037 315.421 267.739C313.333 266.399 312.29 263.943 312.29 260.445V237.671C312.29 237.522 312.215 237.373 312.066 237.299C309.904 236.852 307.444 236.555 304.76 236.555C302.3 236.555 299.914 236.852 297.603 237.299C297.379 237.373 297.305 237.522 297.305 237.671V250.77H289.775V245.039C289.775 242.36 288.88 240.127 287.091 238.49C285.301 236.852 283.065 236.034 280.381 236.034C277.623 236.034 275.386 236.927 273.597 238.713C271.807 240.499 270.987 241.913 270.987 242.955C270.987 243.402 271.211 243.774 271.658 244.072C272.702 244.816 273.373 245.709 273.82 246.751C274.268 247.793 274.491 249.356 274.491 251.291C274.491 265.729 274.342 273.395 274.193 274.139C274.193 274.363 274.268 274.511 274.491 274.511C277.026 275.032 279.561 275.256 281.947 275.256C284.854 275.256 287.314 275.032 289.402 274.511C289.626 274.511 289.775 274.363 289.775 274.065V258.659H297.305V266.622Z" fill="white"/>
<path d="M358.747 237.746C358.747 237.597 358.672 237.448 358.523 237.299C356.137 236.852 353.752 236.629 351.366 236.629C348.757 236.629 346.296 236.927 343.911 237.373L343.612 237.82V257.245C343.612 259.85 343.091 261.934 342.047 263.422C341.003 264.911 339.959 265.655 338.766 265.655C337.946 265.655 337.275 265.283 336.828 264.539C336.306 263.794 336.083 262.752 336.083 261.264V245.411C336.083 242.509 335.113 240.202 333.324 238.564C331.535 236.927 329.224 236.108 326.465 236.108C323.707 236.108 321.47 237.001 319.755 238.788C317.966 240.574 317.146 242.062 317.146 243.179C317.146 243.774 317.37 244.146 317.817 244.369C319.905 245.783 321.023 248.091 321.023 251.291V264.762C321.023 268.334 321.992 271.088 323.93 272.949C325.869 274.884 328.329 275.777 331.386 275.777C333.771 275.777 336.157 275.181 338.394 273.916C340.63 272.651 342.42 270.567 343.761 267.59L343.985 267.664C344.06 268.409 344.134 268.93 344.283 269.227C344.731 271.311 345.7 272.874 347.191 274.065C348.607 275.256 350.471 275.851 352.782 275.851C355.541 275.851 357.777 274.958 359.567 273.172C361.281 271.386 362.176 269.972 362.176 268.855C362.176 268.409 361.952 268.037 361.505 267.739C359.567 266.548 358.672 264.166 358.672 260.594C358.672 245.56 358.672 237.894 358.747 237.746Z" fill="white"/>
<path d="M427.72 267.739C425.633 266.399 424.589 263.943 424.589 260.445C424.589 258.361 424.589 255.905 424.589 252.928C424.589 250.026 424.664 248.165 424.664 247.272C424.664 243.7 423.62 240.946 421.682 239.011C419.743 237.076 417.283 236.034 414.375 236.034C409.38 236.034 405.653 238.788 403.118 244.295H402.894C402.298 241.69 401.105 239.681 399.316 238.192C397.526 236.778 395.364 236.034 392.904 236.034C387.909 236.034 384.181 238.788 381.647 244.295H381.423C381.274 243.327 381.199 242.806 381.199 242.658C380.677 240.648 379.708 239.011 378.217 237.82C376.726 236.629 374.862 236.034 372.626 236.034C369.867 236.034 367.631 236.927 365.841 238.713C364.052 240.499 363.232 241.913 363.232 242.955C363.232 243.402 363.456 243.774 363.903 244.072C364.947 244.816 365.618 245.709 366.065 246.751C366.512 247.793 366.736 249.356 366.736 251.291C366.736 265.729 366.587 273.395 366.438 274.139C366.438 274.363 366.512 274.511 366.736 274.511C369.271 275.032 371.806 275.256 374.191 275.256C376.875 275.256 379.261 275.032 381.348 274.511C381.572 274.511 381.721 274.363 381.721 274.065V254.64C381.721 252.11 382.094 250.026 382.914 248.537C383.734 247.049 384.703 246.304 385.896 246.304C387.387 246.304 388.133 247.793 388.133 250.696V274.139C388.133 274.363 388.207 274.511 388.431 274.511C390.966 275.032 393.426 275.256 395.663 275.256C398.346 275.256 400.732 275.032 402.82 274.511C403.043 274.511 403.192 274.363 403.192 274.065V254.64C403.192 252.11 403.565 250.026 404.385 248.537C405.205 247.049 406.175 246.304 407.367 246.304C408.858 246.304 409.604 247.793 409.604 250.696V266.622C409.604 269.599 410.424 271.832 412.213 273.47C413.928 275.107 416.165 275.851 418.998 275.851C421.682 275.851 423.918 274.958 425.707 273.172C427.497 271.386 428.391 269.972 428.391 268.855C428.391 268.409 428.168 268.037 427.72 267.739Z" fill="white"/>
<path d="M450.734 243.997C452.076 243.997 453.046 244.369 453.717 245.039C454.388 245.709 454.76 246.528 454.76 247.57C454.76 248.984 454.015 250.249 452.598 251.365C451.182 252.556 449.243 253.077 446.783 253.077C446.187 253.077 445.59 253.003 445.068 253.003C444.994 250.472 445.441 248.388 446.485 246.602C447.529 244.89 448.945 243.997 450.734 243.997ZM467.583 262.455C467.285 262.455 466.689 262.752 465.645 263.348C464.601 263.943 463.185 264.464 461.396 265.06C459.532 265.655 457.519 265.878 455.282 265.878C452.897 265.878 450.734 265.357 448.796 264.166C446.858 262.976 445.814 261.413 445.516 259.329C447.081 259.924 449.616 260.222 453.046 260.222C454.835 260.222 456.55 260.073 458.339 259.627C460.128 259.254 461.843 258.659 463.483 257.766C465.123 256.873 466.391 255.682 467.434 254.045C468.478 252.407 469 250.547 469 248.388C469 245.263 467.434 242.434 464.452 239.904C461.396 237.373 457.071 236.108 451.555 236.108C445.068 236.108 439.924 237.969 436.122 241.616C432.245 245.337 430.382 250.1 430.382 255.98C430.382 262.008 432.245 266.771 436.122 270.344C439.999 273.916 445.068 275.702 451.405 275.702C454.089 275.702 456.55 275.256 458.786 274.288C461.023 273.395 462.812 272.204 464.154 270.865C465.421 269.525 466.391 268.26 467.136 266.92C467.882 265.581 468.254 264.464 468.254 263.497C468.254 262.827 468.031 262.455 467.583 262.455Z" fill="white"/>
<path d="M61.547 206.457C61.547 206.633 61.6063 206.751 61.784 206.751C63.7979 207.161 65.8119 207.337 67.7074 207.337C69.8398 207.337 71.7352 207.161 73.3938 206.751C73.5715 206.751 73.69 206.633 73.69 206.399V190.915C73.69 188.921 74.1046 187.337 74.9339 186.164C75.7631 184.991 76.6516 184.346 77.5994 184.346C78.1917 184.346 78.7248 184.639 79.1395 185.226C79.4949 185.812 79.7318 186.692 79.7318 187.806V200.651C79.7318 202.997 80.3834 204.757 81.805 206.047C83.1674 207.337 84.9444 207.924 87.1952 207.924C89.3277 207.924 91.1047 207.22 92.5263 205.812C93.9479 204.405 94.6587 203.29 94.6587 202.411C94.6587 202.059 94.481 201.765 94.1256 201.531C92.467 200.475 91.6378 198.54 91.6378 195.783C91.6378 194.141 91.6378 192.147 91.6378 189.742C91.6378 187.337 91.697 185.812 91.697 185.109C91.697 182.293 90.8677 180.123 89.3277 178.598C87.7876 177.073 85.8329 176.252 83.5228 176.252C81.6865 176.252 79.8503 176.78 78.014 177.836C76.1185 178.891 74.6969 180.534 73.6307 182.762H73.453C73.3938 182.528 73.3346 182.117 73.2753 181.648C72.9199 180.006 72.1499 178.716 70.9652 177.718C69.7805 176.78 68.2997 176.252 66.4634 176.252C64.2718 176.252 62.4948 176.956 61.0732 178.364C59.6516 179.771 59 180.886 59 181.707C59 182.059 59.1777 182.352 59.5331 182.587C60.3624 183.173 60.8955 183.877 61.2509 184.698C61.6063 185.519 61.784 186.751 61.784 188.276C61.784 199.771 61.6655 205.871 61.547 206.457Z" fill="white"/>
<path d="M114.218 184.17C115.64 184.17 116.706 184.933 117.535 186.399C118.305 187.865 118.72 189.683 118.72 191.912C118.72 194.141 118.305 196.018 117.535 197.425C116.706 198.891 115.64 199.595 114.218 199.595C112.737 199.595 111.612 198.891 110.842 197.425C110.013 196.018 109.657 194.141 109.657 191.912C109.657 189.683 110.013 187.865 110.842 186.399C111.612 184.933 112.737 184.17 114.218 184.17ZM102.964 176.428C100.772 176.428 98.9953 177.132 97.5736 178.54C96.152 179.947 95.5005 181.062 95.5005 181.883C95.5005 182.235 95.6782 182.528 96.0336 182.762C96.8628 183.349 97.3959 184.053 97.7513 184.874C98.1067 185.695 98.2844 186.927 98.2844 188.452C98.2844 209.918 98.2252 220.827 98.166 221.12C98.166 221.296 98.2252 221.413 98.4029 221.413C100.417 221.824 102.253 222 103.912 222C106.222 222 108.176 221.824 109.835 221.413C110.013 221.413 110.131 221.296 110.131 221.062V202.587H110.309C112.027 205.988 114.692 207.689 118.305 207.689C121.978 207.689 124.999 206.106 127.309 202.821C129.56 199.595 130.745 195.842 130.745 191.56C130.745 187.22 129.678 183.642 127.664 180.827C125.65 178.012 122.807 176.545 119.194 176.545C117.18 176.545 115.344 177.073 113.626 178.129C111.849 179.185 110.664 180.651 110.013 182.528H109.835C109.776 182.293 109.657 181.883 109.539 181.296C108.532 178.07 106.34 176.428 102.964 176.428Z" fill="white"/>
<path d="M164.995 177.777C164.995 177.66 164.936 177.543 164.818 177.425C162.922 177.073 161.027 176.897 159.131 176.897C157.058 176.897 155.103 177.132 153.208 177.484L152.971 177.836V193.144C152.971 195.196 152.556 196.839 151.727 198.012C150.898 199.185 150.069 199.771 149.121 199.771C148.469 199.771 147.936 199.478 147.581 198.891C147.166 198.305 146.988 197.484 146.988 196.311V183.818C146.988 181.531 146.218 179.713 144.797 178.422C143.375 177.132 141.539 176.487 139.347 176.487C137.156 176.487 135.379 177.191 134.016 178.598C132.595 180.006 131.943 181.179 131.943 182.059C131.943 182.528 132.121 182.821 132.476 182.997C134.135 184.111 135.023 185.93 135.023 188.452V199.067C135.023 201.883 135.793 204.053 137.333 205.519C138.873 207.044 140.828 207.748 143.257 207.748C145.152 207.748 147.048 207.279 148.825 206.282C150.602 205.284 152.023 203.642 153.09 201.296L153.267 201.355C153.326 201.941 153.386 202.352 153.504 202.587C153.86 204.229 154.63 205.46 155.814 206.399C156.94 207.337 158.421 207.806 160.257 207.806C162.448 207.806 164.225 207.103 165.647 205.695C167.009 204.287 167.72 203.173 167.72 202.293C167.72 201.941 167.543 201.648 167.187 201.413C165.647 200.475 164.936 198.598 164.936 195.783C164.936 183.935 164.936 177.894 164.995 177.777Z" fill="white"/>
<path d="M192.075 191.326V191.091C193.734 190.739 195.155 189.977 196.34 188.804C197.525 187.63 198.117 186.223 198.117 184.581C198.117 182.235 196.873 180.299 194.444 178.774C192.016 177.249 188.995 176.428 185.382 176.428C180.643 176.428 176.793 177.601 173.89 179.947C170.988 182.293 169.566 184.463 169.566 186.457C169.566 187.103 169.803 187.396 170.277 187.396C170.573 187.396 171.225 187.161 172.232 186.692C173.179 186.223 174.483 185.754 176.023 185.284C177.563 184.815 179.162 184.522 180.821 184.522C181.946 184.522 182.894 184.698 183.664 184.933C184.434 185.226 184.967 185.578 185.322 185.988C185.619 186.457 185.796 186.809 185.915 187.103C186.033 187.455 186.092 187.748 186.092 188.041C186.092 188.804 185.855 189.507 185.441 190.211C183.368 189.566 181.768 189.449 180.702 189.918C179.577 190.387 179.044 191.15 179.044 192.205C179.044 193.202 179.577 193.906 180.761 194.375C181.887 194.845 183.545 194.61 185.737 193.789L186.033 194.199C186.152 194.551 186.329 195.021 186.507 195.607C186.685 196.194 186.803 196.839 186.803 197.425C186.803 198.481 186.448 199.419 185.796 200.24C185.085 201.062 184.197 201.472 183.012 201.472C181.946 201.472 181.117 201.179 180.406 200.534C179.695 199.947 179.399 199.067 179.399 198.012C179.399 197.777 179.399 197.425 179.517 196.956C179.577 196.487 179.636 196.194 179.636 196.018C179.636 195.666 179.103 195.196 178.037 194.727C176.97 194.258 175.904 193.965 174.838 193.965C173.002 193.965 171.58 194.493 170.573 195.49C169.507 196.545 169.033 197.777 169.033 199.243C169.033 202 170.455 204.111 173.357 205.636C176.2 207.161 179.517 207.865 183.249 207.865C185.974 207.865 188.462 207.572 190.772 206.868C193.082 206.223 195.037 205.167 196.577 203.701C198.117 202.235 198.887 200.475 198.887 198.364C198.887 196.487 198.235 194.962 196.932 193.73C195.629 192.499 194.03 191.677 192.075 191.326Z" fill="white"/>
<path d="M214.552 183.877C214.552 181.589 213.782 179.771 212.36 178.481C210.939 177.191 209.102 176.545 206.911 176.545C204.719 176.545 202.942 177.249 201.58 178.657C200.158 180.065 199.507 181.238 199.507 182.117C199.507 182.587 199.684 182.88 200.04 183.056C201.698 184.17 202.587 185.988 202.587 188.51L202.527 195.196C202.527 196.663 202.764 198.07 203.238 199.478C203.712 200.886 204.423 202.235 205.489 203.525C206.496 204.815 207.977 205.871 209.932 206.633C211.827 207.455 214.137 207.806 216.744 207.806C220.712 207.806 224.029 206.633 226.695 204.229C229.36 201.824 230.723 198.716 230.723 194.962C230.723 191.501 229.597 188.862 227.346 186.985C228.057 185.578 229.005 184.874 230.19 184.874C230.782 184.874 231.256 185.167 231.67 185.636C232.085 186.164 232.322 186.868 232.322 187.806V200.592C232.322 202.938 232.974 204.698 234.395 205.988C235.817 207.279 237.594 207.865 239.845 207.865C241.977 207.865 243.754 207.161 245.176 205.754C246.597 204.346 247.308 203.232 247.308 202.352C247.308 202 247.13 201.707 246.775 201.472C245.116 200.416 244.287 198.481 244.287 195.724V184.581C244.287 182.411 243.458 180.416 241.859 178.657C240.2 176.897 237.712 176.194 234.395 176.545C231.967 176.839 229.834 177.777 227.998 179.419C226.102 181.062 224.681 182.997 223.733 185.226C220.712 184.287 217.632 184.463 214.552 185.695V183.877ZM217.099 201.062C215.322 201.062 214.493 199.361 214.493 195.9V189.742C214.848 189.683 215.263 189.625 215.677 189.625C217.099 189.625 218.224 190.152 218.935 191.208C219.646 192.264 220.001 193.672 220.001 195.314C220.001 196.78 219.705 198.129 219.231 199.302C218.698 200.475 217.987 201.062 217.099 201.062Z" fill="white"/>
<path d="M291.84 185.519C291.84 182.938 290.656 180.768 288.286 179.067C285.917 177.367 282.896 176.487 279.283 176.487C274.189 176.487 270.102 178.012 267.021 181.003C263.941 184.053 262.46 187.748 262.46 192.088C262.46 196.663 263.823 200.358 266.666 203.29C269.509 206.223 273.478 207.689 278.69 207.689C282.541 207.689 285.739 206.575 288.346 204.229C290.952 201.941 292.255 199.947 292.255 198.188C292.255 197.66 292.018 197.367 291.544 197.367C291.307 197.367 290.3 197.777 288.464 198.481C286.628 199.185 284.91 199.537 283.251 199.537C280.171 199.537 277.861 198.657 276.44 196.897C275.018 195.138 274.307 193.026 274.307 190.446C274.307 188.334 274.722 186.457 275.61 184.815C276.44 183.173 277.506 182.352 278.809 182.352C280.349 182.352 281.178 183.525 281.178 185.871C281.178 186.34 281.119 186.927 281.001 187.689C280.882 188.452 280.882 188.921 280.882 189.155C280.882 189.742 281.356 190.328 282.304 190.915C283.251 191.501 284.377 191.736 285.562 191.736C287.576 191.736 289.175 191.091 290.241 189.801C291.307 188.51 291.84 187.103 291.84 185.519Z" fill="white"/>
<path d="M355.908 166.164C355.908 166.047 355.789 165.93 355.552 165.871L354.782 165.695C354.19 165.636 353.361 165.519 352.235 165.402C351.11 165.284 349.984 165.226 348.8 165.226C346.667 165.226 344.594 165.46 342.58 165.871L342.165 166.106C340.685 171.501 338.671 178.246 336.124 186.34H335.59L334.88 183.818C334.406 182.176 333.754 180.182 333.043 177.953C332.273 175.724 331.622 174.082 331.089 172.968C330.615 172.147 330.2 171.384 329.845 170.798C329.489 170.211 328.956 169.507 328.245 168.628C327.535 167.806 326.765 167.103 325.995 166.575C325.165 166.047 324.218 165.578 323.033 165.167C321.848 164.815 320.545 164.581 319.183 164.581C316.576 164.581 314.385 165.284 312.726 166.575C311.008 167.924 310.12 169.155 310.001 170.27C310.001 170.622 310.179 170.974 310.594 171.384C311.008 171.795 311.423 172.381 311.778 173.144C312.134 173.906 312.312 174.845 312.193 175.959C309.765 191.56 308.521 201.765 308.461 206.457C308.461 206.633 308.521 206.751 308.758 206.751L309.291 206.927C309.646 207.044 310.179 207.161 310.949 207.279C311.66 207.396 312.43 207.396 313.2 207.396C314.74 207.396 316.28 207.22 317.761 206.751C317.998 206.751 318.116 206.633 318.116 206.399C318.413 196.076 319.064 187.982 320.012 182.176H320.367C322.026 184.17 324.691 192.264 328.482 206.516L328.838 206.751C329.667 207.103 330.852 207.279 332.392 207.279C333.34 207.279 334.583 207.161 336.183 206.809C336.36 206.692 336.479 206.575 336.538 206.34L344.475 181.472H344.712C346.016 187.924 346.845 196.252 347.082 206.457C347.082 206.692 347.141 206.809 347.378 206.809L348.03 206.985C348.385 207.103 349.155 207.161 350.28 207.279C351.406 207.396 352.709 207.455 354.19 207.455C356.855 207.455 358.81 207.279 360.113 206.809L360.232 206.751C360.291 206.751 360.35 206.751 360.469 206.692C360.587 206.633 360.646 206.516 360.646 206.399C360.409 191.971 358.869 178.598 355.908 166.164Z" fill="white"/>
<path d="M371.716 207.806C373.848 207.806 375.625 207.103 377.047 205.695C378.468 204.287 379.179 203.173 379.179 202.293C379.179 201.941 379.001 201.648 378.646 201.413C376.987 200.358 376.158 198.422 376.158 195.666V177.718C376.158 177.601 376.099 177.484 375.98 177.425C374.263 177.073 372.308 176.839 370.176 176.839C368.221 176.839 366.325 177.073 364.489 177.425C364.311 177.484 364.252 177.601 364.252 177.718V200.534C364.252 202.88 364.904 204.639 366.325 205.93C367.688 207.22 369.465 207.806 371.716 207.806ZM370.472 173.73C372.486 173.73 374.263 173.202 375.743 172.029C377.165 170.915 377.935 169.507 377.935 167.865C377.935 166.282 377.165 164.933 375.743 163.76C374.263 162.587 372.486 162 370.472 162C368.398 162 366.621 162.587 365.2 163.76C363.778 164.933 363.067 166.282 363.067 167.865C363.067 169.507 363.778 170.915 365.2 172.029C366.621 173.202 368.398 173.73 370.472 173.73Z" fill="white"/>
<path d="M388.997 207.806C391.13 207.806 392.907 207.103 394.329 205.695C395.75 204.287 396.461 203.173 396.461 202.293C396.461 201.941 396.283 201.648 395.928 201.413C394.269 200.358 393.44 198.422 393.44 195.666V163.056C393.44 162.938 393.322 162.821 393.203 162.762C391.485 162.411 389.59 162.176 387.457 162.176C385.503 162.176 383.607 162.411 381.771 162.762C381.593 162.821 381.534 162.938 381.534 163.056V200.534C381.534 202.88 382.186 204.639 383.607 205.93C384.97 207.22 386.747 207.806 388.997 207.806Z" fill="white"/>
<path d="M431.276 200.123C430.328 199.654 429.617 199.302 429.203 198.95C426.893 197.308 425.116 195.196 423.813 192.674C425.886 192.205 427.604 191.091 429.025 189.449C430.387 187.806 431.098 185.93 431.098 183.877C431.098 181.413 430.21 179.537 428.492 178.188C426.774 176.897 424.523 176.311 421.799 176.428C419.666 176.545 417.652 177.191 415.816 178.364C413.98 179.537 412.499 181.003 411.433 182.88H411.314V162.997C411.314 162.88 411.255 162.762 411.137 162.704C409.004 162.352 407.049 162.117 405.272 162.117C403.614 162.117 401.718 162.352 399.645 162.704L399.408 162.938V206.399C399.408 206.575 399.467 206.692 399.645 206.692C401.778 207.103 403.732 207.279 405.45 207.279C406.753 207.279 408.589 207.103 411.077 206.692L411.314 206.34V193.672C411.314 188.276 412.914 185.402 416.231 185.05C417.178 184.991 418.008 185.284 418.659 185.871C419.311 186.457 419.548 187.279 419.429 188.276C419.192 189.449 418.659 190.387 417.711 191.15C416.764 191.971 415.638 192.44 414.217 192.616C413.624 192.733 413.387 193.144 413.387 193.73C413.387 194.903 413.565 196.252 413.98 197.777C414.335 199.302 414.927 200.827 415.757 202.352C416.527 203.935 417.652 205.226 419.074 206.282C420.495 207.337 422.154 207.806 423.99 207.806C426.3 207.806 428.196 207.161 429.677 205.812C431.098 204.463 431.868 202.88 431.868 201.003C431.868 200.651 431.631 200.358 431.276 200.123Z" fill="white"/>
<path d="M465.979 195.724C465.979 193.085 466.038 187.103 466.157 177.777C466.157 177.66 466.038 177.543 465.861 177.425C464.202 177.132 462.307 176.956 460.233 176.956C458.338 176.956 456.502 177.132 454.784 177.425C454.547 177.543 454.488 177.66 454.488 177.777L453.895 181.531H453.718C452.888 180.006 451.763 178.774 450.223 177.894C448.683 177.015 446.965 176.545 445.01 176.545C441.338 176.545 438.435 178.188 436.303 181.355C434.171 184.581 433.104 188.334 433.104 192.616C433.104 196.78 434.111 200.358 436.244 203.29C438.317 206.223 441.16 207.689 444.714 207.689C446.728 207.689 448.505 207.161 450.164 206.106C451.822 205.05 453.066 203.584 453.895 201.707H454.073C454.31 203.584 455.139 205.109 456.502 206.164C457.805 207.22 459.523 207.748 461.537 207.748C463.432 207.748 465.15 207.161 466.69 205.93C468.23 204.698 469 203.466 469 202.293C469 201.941 468.822 201.648 468.467 201.413C466.808 200.358 465.979 198.422 465.979 195.724ZM449.749 199.595C448.327 199.595 447.202 198.891 446.432 197.425C445.603 196.018 445.247 194.141 445.247 191.912C445.247 189.683 445.603 187.865 446.432 186.399C447.202 184.933 448.327 184.17 449.749 184.17C451.171 184.17 452.296 184.933 453.125 186.399C453.895 187.865 454.31 189.683 454.31 191.912C454.31 194.141 453.895 196.018 453.125 197.425C452.296 198.891 451.171 199.595 449.749 199.595Z" fill="white"/>
<path d="M412.3 150.2H421L449.4 109.2C451.7 105.7 454.7 100 454.7 100H454.9C454.9 100 454.4 105.6 454.4 109.2V150.2H463.2V87H454.5L426.3 127.9C424 131.3 420.9 137.2 420.9 137.2H420.7C420.7 137.2 421.2 131.6 421.2 128V87H412.3V150.2Z" fill="white"/>
</g>
<rect x="173" width="182" height="53" rx="26.5" fill="white"/>
<path d="M268.809 34.4689V18.125H279.4V21.9211H273.225V34.4689H268.809Z" fill="#E30613"/>
<path d="M292.724 34.4689V28.0678H286.164V34.4689H281.747V18.125H286.164V24.2244H292.724V18.125H297.141V34.4689H292.724Z" fill="#E30613"/>
<path d="M322.769 34.4689V21.9211H317.611V18.125H332.371V21.9211H327.188V34.4689H322.769Z" fill="#E30613"/>
<path d="M311.113 34.4667V25.1543L304.083 34.4667H300.39V18.1272H304.806V27.3427L311.718 18.1272H315.531V34.4667H311.113Z" fill="#E30613"/>
<path d="M243.43 34.4689V24.7558L239.02 29.8871L234.611 24.7558V34.4689H230.195V18.125H234.553L239.02 23.7448L243.487 18.125H247.846V34.4689H243.43Z" fill="#E30613"/>
<path fill-rule="evenodd" clip-rule="evenodd" d="M261.711 32.1764L262.636 34.4663H267.151L260.357 18.1246H256.274L249.482 34.4663H253.921L254.846 32.1764H261.711ZM258.282 23.5961L260.334 28.7206H256.23L258.282 23.5961Z" fill="#E30613"/>
<path d="M196 21.4458C196.004 19.472 196.811 17.5802 198.244 16.1846C199.677 14.7891 201.619 14.0036 203.645 14H221.293V17.7848H203.649C202.654 17.789 201.7 18.1759 200.996 18.8616C200.292 19.5472 199.894 20.476 199.889 21.4458L199.866 27.7997C199.786 28.6138 199.431 29.3789 198.857 29.9757C198.283 30.5724 197.522 30.9671 196.693 31.0982L196 31.2018V21.4458Z" fill="#E30613"/>
<path d="M196.001 38.5937V34.8087H213.649C214.645 34.804 215.599 34.4165 216.303 33.7306C217.007 33.0446 217.404 32.1156 217.409 31.1456V25.1159C217.414 24.2411 217.738 23.3965 218.323 22.7329C218.908 22.0693 219.716 21.6299 220.603 21.4932L221.296 21.3918V31.1456C221.292 33.1196 220.485 35.0117 219.053 36.4075C217.62 37.8034 215.678 38.5894 213.652 38.5937H196.001Z" fill="#E30613"/>
<path d="M210.951 31.2153V26.3228L208.65 28.9998L206.35 26.3228V31.2153H203.302V21.5878H206.189L208.65 24.6836L211.111 21.5878H213.997V31.2153H210.951Z" fill="#E30613"/>
<defs>
<filter id="filter0_d" x="39" y="67" width="450" height="229" filterUnits="userSpaceOnUse" color-interpolation-filters="sRGB">
<feFlood flood-opacity="0" result="BackgroundImageFix"/>
<feColorMatrix in="SourceAlpha" type="matrix" values="0 0 0 0 0 0 0 0 0 0 0 0 0 0 0 0 0 0 127 0"/>
<feOffset/>
<feGaussianBlur stdDeviation="10"/>
<feColorMatrix type="matrix" values="0 0 0 0 0.231373 0 0 0 0 0.172549 0 0 0 0 0.447059 0 0 0 1 0"/>
<feBlend mode="normal" in2="BackgroundImageFix" result="effect1_dropShadow"/>
<feBlend mode="normal" in="SourceGraphic" in2="effect1_dropShadow" result="shape"/>
</filter>
</defs>
</svg>
