<svg width="521" height="342" viewBox="0 0 521 342" fill="none" xmlns="http://www.w3.org/2000/svg">
<path fill-rule="evenodd" clip-rule="evenodd" d="M492.717 122.641C492.717 122.641 490.73 103.649 505.342 95.6433C522.56 86.2106 525.842 107.228 513.695 114.793C505.497 119.9 492.717 122.641 492.717 122.641Z" fill="white"/>
<path fill-rule="evenodd" clip-rule="evenodd" d="M492.823 123.976C492.823 123.976 506.694 111.766 501.862 95.6497C496.176 76.6627 480.069 89.3981 483.484 103.449C485.66 110.687 488.802 117.593 492.823 123.976Z" fill="white"/>
<path fill-rule="evenodd" clip-rule="evenodd" d="M31.113 290.599C31.113 290.599 15.885 286.537 14.0154 272.913C11.8135 256.859 28.9852 260.519 31.2406 272.113C32.764 279.938 31.113 290.599 31.113 290.599Z" fill="white"/>
<path fill-rule="evenodd" clip-rule="evenodd" d="M32.1739 290.91C32.1739 290.91 26.845 276.619 12.9957 275.598C-3.31858 274.39 1.75691 290.56 13.5969 292.065C19.8183 292.519 26.0679 292.13 32.1739 290.91Z" fill="white"/>
<path fill-rule="evenodd" clip-rule="evenodd" d="M428.247 77.8827C428.247 77.8827 442.3 81.7368 450.828 71.5742C460.879 59.6055 445.511 54.5053 437.731 62.8405C433.903 67.4083 430.713 72.4688 428.247 77.8827Z" fill="white"/>
<path fill-rule="evenodd" clip-rule="evenodd" d="M500.226 133.759C500.226 133.759 508.207 139.329 515.848 134.842C524.851 129.559 516.322 122.911 509.56 126.415C506.129 128.433 502.989 130.904 500.226 133.759Z" fill="white"/>
<g filter="url(#filter0_d)">
<path d="M59.1 150.2H81.9C93.1 150.2 102.4 144.1 102.4 132.2C102.4 125.1 98.6 118.9 91.9 116.9V116.7C96.8 114.2 99.8 109.3 99.8 103.1C99.8 92.9 92.2 87 81.4 87H59.1V150.2ZM68 113.6V94.7H81.2C87.2 94.7 90.7 98.5 90.7 104C90.7 109.5 87.1 113.6 81.3 113.6H68ZM68 142.5V120.9H82.3C89 120.9 93.2 125.3 93.2 131.6C93.2 138.1 89.1 142.4 82.3 142.4H68V142.5Z" fill="white"/>
<path d="M165.6 150.2H174.4V87H165.6V150.2ZM115.3 150.2H137.7C148.8 150.2 156.6 142.4 156.6 130.7C156.6 118.1 148.4 110.8 137.2 110.8H124.2V87H115.3V150.2ZM124.2 142.5V118.5H136.1C143.1 118.5 147.6 123.2 147.6 130.7C147.6 138 143.4 142.5 136.3 142.5H124.2Z" fill="white"/>
<path d="M191.3 150.2H200L228.4 109.2C230.7 105.7 233.7 100 233.7 100H233.9C233.9 100 233.4 105.6 233.4 109.2V150.2H242.2V87H233.5L205.3 127.9C203 131.3 199.9 137.2 199.9 137.2H199.7C199.7 137.2 200.2 131.6 200.2 128V87H191.3V150.2Z" fill="white"/>
<path d="M259 150.2H267.9V94.7H294V87H259V150.2Z" fill="white"/>
<path d="M303.6 150.2H312.5V126.9H326.9C338.5 126.9 346.8 118.8 346.8 106.8C346.8 94.8 338.5 87 326.9 87H303.6V150.2ZM312.5 119.2V94.7H325.6C333.1 94.7 337.8 99.3 337.8 106.8C337.8 114.4 333 119.2 325.5 119.2H312.5Z" fill="white"/>
<path d="M347.5 150.2H356.6L363 132H387L393.4 150.2H402.6L379.8 87H370.3L347.5 150.2ZM365.4 124.7L372.5 104.7C373.6 101.4 374.9 95.7 374.9 95.7H375.1C375.1 95.7 376.5 101.4 377.6 104.7L384.6 124.7H365.4Z" fill="white"/>
<path d="M89.194 253.747V253.449C90.9832 253.152 92.4743 252.333 93.7417 251.142C94.9345 249.951 95.6801 248.463 95.9037 246.677C96.2765 243.997 95.0836 241.467 92.3252 239.234C89.5667 237.001 85.3918 235.811 79.8003 235.811C73.2396 235.811 68.0955 237.597 64.4424 241.02C60.7893 244.518 59 249.356 59 255.608C59 262.529 60.7893 267.664 64.5169 270.939C68.17 274.288 73.2396 275.926 79.8003 275.926C85.4663 275.926 90.014 274.66 93.2944 271.981C96.5747 269.302 98.2894 266.325 98.2894 262.901C98.2894 260.296 97.3202 258.212 95.531 256.65C93.6671 255.087 91.5797 254.119 89.194 253.747ZM79.0548 243.997C79.9494 243.997 80.6949 244.369 81.2913 245.039C81.8878 245.709 82.186 246.453 82.186 247.272C82.186 248.686 81.515 249.877 80.3222 250.919C79.0547 251.961 77.1909 252.556 74.6561 252.705H73.9852C73.9106 250.175 74.2834 248.091 75.1034 246.453C75.9235 244.816 77.2655 243.997 79.0548 243.997ZM79.5766 267.888C75.6999 267.888 73.836 264.613 73.9852 257.989C74.507 257.989 75.1034 257.915 75.6999 257.915C78.2347 257.915 80.2476 258.51 81.7387 259.627C83.1552 260.743 83.9007 262.008 83.9007 263.497C83.9007 264.687 83.4534 265.729 82.7078 266.622C81.9623 267.516 80.9186 267.888 79.5766 267.888Z" fill="white"/>
<path d="M177.998 223.009C177.998 222.861 177.849 222.712 177.551 222.637L176.582 222.414C175.836 222.34 174.792 222.191 173.376 222.042C171.959 221.893 170.543 221.819 169.052 221.819C166.368 221.819 163.759 222.116 161.224 222.637L160.702 222.935C158.838 229.782 156.303 238.341 153.097 248.612H152.427L151.532 245.411C150.935 243.327 150.115 240.797 149.221 237.969C148.252 235.141 147.431 233.057 146.76 231.643C146.164 230.601 145.642 229.633 145.195 228.889C144.748 228.145 144.077 227.252 143.182 226.135C142.287 225.093 141.318 224.2 140.349 223.53C139.305 222.861 138.112 222.265 136.621 221.744C135.13 221.298 133.49 221 131.775 221C128.495 221 125.737 221.893 123.649 223.53C121.487 225.242 120.369 226.805 120.22 228.219C120.22 228.666 120.443 229.112 120.965 229.633C121.487 230.154 122.009 230.899 122.456 231.866C122.904 232.834 123.127 234.024 122.978 235.438C119.921 255.235 118.356 268.185 118.281 274.139C118.281 274.363 118.356 274.511 118.654 274.511L119.325 274.735C119.772 274.884 120.443 275.032 121.412 275.181C122.307 275.33 123.276 275.33 124.245 275.33C126.184 275.33 128.122 275.107 129.986 274.511C130.284 274.511 130.433 274.363 130.433 274.065C130.806 260.966 131.626 250.696 132.819 243.327H133.266C135.354 245.858 138.709 256.129 143.48 274.214L143.927 274.511C144.971 274.958 146.462 275.181 148.401 275.181C149.594 275.181 151.159 275.032 153.172 274.586C153.396 274.437 153.545 274.288 153.619 273.991L163.609 242.434H163.908C165.548 250.621 166.592 261.189 166.89 274.139C166.89 274.437 166.964 274.586 167.263 274.586L168.083 274.809C168.53 274.958 169.499 275.032 170.916 275.181C172.332 275.33 173.972 275.405 175.836 275.405C179.191 275.405 181.651 275.181 183.291 274.586L183.441 274.511C183.515 274.511 183.59 274.512 183.739 274.437C183.888 274.363 183.962 274.214 183.962 274.065C183.664 255.756 181.726 238.788 177.998 223.009Z" fill="white"/>
<path d="M228.151 260.52C228.151 257.17 228.225 249.579 228.374 237.746C228.374 237.597 228.225 237.448 228.002 237.299C225.914 236.927 223.529 236.704 220.919 236.704C218.533 236.704 216.222 236.927 214.06 237.299C213.762 237.448 213.688 237.597 213.688 237.746L212.942 242.509H212.718C211.675 240.574 210.258 239.011 208.32 237.894C206.381 236.778 204.219 236.183 201.759 236.183C197.137 236.183 193.484 238.267 190.8 242.286C188.116 246.379 186.774 251.142 186.774 256.575C186.774 261.859 188.041 266.399 190.725 270.12C193.335 273.842 196.913 275.702 201.386 275.702C203.921 275.702 206.158 275.032 208.245 273.693C210.333 272.353 211.898 270.493 212.942 268.111H213.166C213.464 270.493 214.508 272.428 216.222 273.767C217.862 275.107 220.025 275.777 222.559 275.777C224.945 275.777 227.107 275.032 229.045 273.47C230.984 271.907 231.953 270.344 231.953 268.855C231.953 268.409 231.729 268.037 231.282 267.739C229.195 266.399 228.151 263.943 228.151 260.52ZM207.723 265.432C205.934 265.432 204.518 264.539 203.548 262.678C202.505 260.892 202.057 258.51 202.057 255.682C202.057 252.854 202.505 250.547 203.548 248.686C204.518 246.825 205.934 245.858 207.723 245.858C209.513 245.858 210.929 246.825 211.973 248.686C212.942 250.547 213.464 252.854 213.464 255.682C213.464 258.51 212.942 260.892 211.973 262.678C210.929 264.539 209.513 265.432 207.723 265.432Z" fill="white"/>
<path d="M268.992 262.529C268.619 262.529 267.874 262.827 266.681 263.348C265.488 263.869 263.922 264.39 261.984 264.985C260.045 265.581 258.107 265.804 256.169 265.804C253.783 265.804 252.665 265.134 252.665 263.72C252.665 262.827 253.187 262.008 254.305 261.264C255.349 260.52 256.691 259.775 258.256 259.031C259.822 258.287 261.387 257.468 262.953 256.575C264.519 255.682 265.861 254.417 266.979 252.779C268.023 251.217 268.619 249.356 268.619 247.272C268.619 243.551 266.979 240.648 263.773 238.713C260.567 236.778 256.84 235.811 252.59 235.811C247.297 235.811 242.824 237.225 239.096 239.904C235.368 242.658 233.579 245.635 233.579 248.76C233.579 249.356 233.877 249.654 234.474 249.654C234.772 249.654 235.518 249.356 236.71 248.76C237.903 248.165 239.469 247.57 241.407 246.974C243.271 246.379 245.209 246.081 247.222 246.081C248.341 246.081 249.31 246.379 250.055 246.825C250.801 247.346 251.248 248.016 251.248 248.909C251.248 249.951 250.652 250.919 249.459 251.737C248.266 252.556 246.924 253.3 245.284 253.97C243.644 254.714 242.004 255.459 240.363 256.352C238.723 257.245 237.381 258.51 236.338 260.147C235.219 261.785 234.697 263.645 234.847 265.804C234.996 268.93 236.412 271.46 239.171 273.246C241.855 275.107 245.582 276 250.204 276C255.498 276 260.046 274.735 263.922 272.055C267.799 269.451 269.737 266.548 269.886 263.422C269.886 262.827 269.588 262.529 268.992 262.529Z" fill="white"/>
<path d="M297.305 266.622C297.305 269.599 298.125 271.832 299.914 273.47C301.629 275.107 303.865 275.851 306.698 275.851C309.382 275.851 311.619 274.958 313.408 273.172C315.197 271.386 316.092 269.972 316.092 268.855C316.092 268.409 315.868 268.037 315.421 267.739C313.333 266.399 312.29 263.943 312.29 260.445V237.671C312.29 237.522 312.215 237.373 312.066 237.299C309.904 236.852 307.444 236.555 304.76 236.555C302.3 236.555 299.914 236.852 297.603 237.299C297.379 237.373 297.305 237.522 297.305 237.671V250.77H289.775V245.039C289.775 242.36 288.88 240.127 287.091 238.49C285.301 236.852 283.065 236.034 280.381 236.034C277.623 236.034 275.386 236.927 273.597 238.713C271.807 240.499 270.987 241.913 270.987 242.955C270.987 243.402 271.211 243.774 271.658 244.072C272.702 244.816 273.373 245.709 273.82 246.751C274.268 247.793 274.491 249.356 274.491 251.291C274.491 265.729 274.342 273.395 274.193 274.139C274.193 274.363 274.268 274.511 274.491 274.511C277.026 275.032 279.561 275.256 281.947 275.256C284.854 275.256 287.314 275.032 289.402 274.511C289.626 274.511 289.775 274.363 289.775 274.065V258.659H297.305V266.622Z" fill="white"/>
<path d="M358.747 237.746C358.747 237.597 358.672 237.448 358.523 237.299C356.137 236.852 353.752 236.629 351.366 236.629C348.757 236.629 346.296 236.927 343.911 237.373L343.612 237.82V257.245C343.612 259.85 343.091 261.934 342.047 263.422C341.003 264.911 339.959 265.655 338.766 265.655C337.946 265.655 337.275 265.283 336.828 264.539C336.306 263.794 336.083 262.752 336.083 261.264V245.411C336.083 242.509 335.113 240.202 333.324 238.564C331.535 236.927 329.224 236.108 326.465 236.108C323.707 236.108 321.47 237.001 319.755 238.788C317.966 240.574 317.146 242.062 317.146 243.179C317.146 243.774 317.37 244.146 317.817 244.369C319.905 245.783 321.023 248.091 321.023 251.291V264.762C321.023 268.334 321.992 271.088 323.93 272.949C325.869 274.884 328.329 275.777 331.386 275.777C333.771 275.777 336.157 275.181 338.394 273.916C340.63 272.651 342.42 270.567 343.761 267.59L343.985 267.664C344.06 268.409 344.134 268.93 344.283 269.227C344.731 271.311 345.7 272.874 347.191 274.065C348.607 275.256 350.471 275.851 352.782 275.851C355.541 275.851 357.777 274.958 359.567 273.172C361.281 271.386 362.176 269.972 362.176 268.855C362.176 268.409 361.952 268.037 361.505 267.739C359.567 266.548 358.672 264.166 358.672 260.594C358.672 245.56 358.672 237.894 358.747 237.746Z" fill="white"/>
<path d="M427.72 267.739C425.633 266.399 424.589 263.943 424.589 260.445C424.589 258.361 424.589 255.905 424.589 252.928C424.589 250.026 424.664 248.165 424.664 247.272C424.664 243.7 423.62 240.946 421.682 239.011C419.743 237.076 417.283 236.034 414.375 236.034C409.38 236.034 405.653 238.788 403.118 244.295H402.894C402.298 241.69 401.105 239.681 399.316 238.192C397.526 236.778 395.364 236.034 392.904 236.034C387.909 236.034 384.181 238.788 381.647 244.295H381.423C381.274 243.327 381.199 242.806 381.199 242.658C380.677 240.648 379.708 239.011 378.217 237.82C376.726 236.629 374.862 236.034 372.626 236.034C369.867 236.034 367.631 236.927 365.841 238.713C364.052 240.499 363.232 241.913 363.232 242.955C363.232 243.402 363.456 243.774 363.903 244.072C364.947 244.816 365.618 245.709 366.065 246.751C366.512 247.793 366.736 249.356 366.736 251.291C366.736 265.729 366.587 273.395 366.438 274.139C366.438 274.363 366.512 274.511 366.736 274.511C369.271 275.032 371.806 275.256 374.191 275.256C376.875 275.256 379.261 275.032 381.348 274.511C381.572 274.511 381.721 274.363 381.721 274.065V254.64C381.721 252.11 382.094 250.026 382.914 248.537C383.734 247.049 384.703 246.304 385.896 246.304C387.387 246.304 388.133 247.793 388.133 250.696V274.139C388.133 274.363 388.207 274.511 388.431 274.511C390.966 275.032 393.426 275.256 395.663 275.256C398.346 275.256 400.732 275.032 402.82 274.511C403.043 274.511 403.192 274.363 403.192 274.065V254.64C403.192 252.11 403.565 250.026 404.385 248.537C405.205 247.049 406.175 246.304 407.367 246.304C408.858 246.304 409.604 247.793 409.604 250.696V266.622C409.604 269.599 410.424 271.832 412.213 273.47C413.928 275.107 416.165 275.851 418.998 275.851C421.682 275.851 423.918 274.958 425.707 273.172C427.497 271.386 428.391 269.972 428.391 268.855C428.391 268.409 428.168 268.037 427.72 267.739Z" fill="white"/>
<path d="M450.734 243.997C452.076 243.997 453.046 244.369 453.717 245.039C454.388 245.709 454.76 246.528 454.76 247.57C454.76 248.984 454.015 250.249 452.598 251.365C451.182 252.556 449.243 253.077 446.783 253.077C446.187 253.077 445.59 253.003 445.068 253.003C444.994 250.472 445.441 248.388 446.485 246.602C447.529 244.89 448.945 243.997 450.734 243.997ZM467.583 262.455C467.285 262.455 466.689 262.752 465.645 263.348C464.601 263.943 463.185 264.464 461.396 265.06C459.532 265.655 457.519 265.878 455.282 265.878C452.897 265.878 450.734 265.357 448.796 264.166C446.858 262.976 445.814 261.413 445.516 259.329C447.081 259.924 449.616 260.222 453.046 260.222C454.835 260.222 456.55 260.073 458.339 259.627C460.128 259.254 461.843 258.659 463.483 257.766C465.123 256.873 466.391 255.682 467.434 254.045C468.478 252.407 469 250.547 469 248.388C469 245.263 467.434 242.434 464.452 239.904C461.396 237.373 457.071 236.108 451.555 236.108C445.068 236.108 439.924 237.969 436.122 241.616C432.245 245.337 430.382 250.1 430.382 255.98C430.382 262.008 432.245 266.771 436.122 270.344C439.999 273.916 445.068 275.702 451.405 275.702C454.089 275.702 456.55 275.256 458.786 274.288C461.023 273.395 462.812 272.204 464.154 270.865C465.421 269.525 466.391 268.26 467.136 266.92C467.882 265.581 468.254 264.464 468.254 263.497C468.254 262.827 468.031 262.455 467.583 262.455Z" fill="white"/>
<path d="M61.547 206.457C61.547 206.633 61.6063 206.751 61.784 206.751C63.7979 207.161 65.8119 207.337 67.7074 207.337C69.8398 207.337 71.7352 207.161 73.3938 206.751C73.5715 206.751 73.69 206.633 73.69 206.399V190.915C73.69 188.921 74.1046 187.337 74.9339 186.164C75.7631 184.991 76.6516 184.346 77.5994 184.346C78.1917 184.346 78.7248 184.639 79.1395 185.226C79.4949 185.812 79.7318 186.692 79.7318 187.806V200.651C79.7318 202.997 80.3834 204.757 81.805 206.047C83.1674 207.337 84.9444 207.924 87.1952 207.924C89.3277 207.924 91.1047 207.22 92.5263 205.812C93.9479 204.405 94.6587 203.29 94.6587 202.411C94.6587 202.059 94.481 201.765 94.1256 201.531C92.467 200.475 91.6378 198.54 91.6378 195.783C91.6378 194.141 91.6378 192.147 91.6378 189.742C91.6378 187.337 91.697 185.812 91.697 185.109C91.697 182.293 90.8677 180.123 89.3277 178.598C87.7876 177.073 85.8329 176.252 83.5228 176.252C81.6865 176.252 79.8503 176.78 78.014 177.836C76.1185 178.891 74.6969 180.534 73.6307 182.762H73.453C73.3938 182.528 73.3346 182.117 73.2753 181.648C72.9199 180.006 72.1499 178.716 70.9652 177.718C69.7805 176.78 68.2997 176.252 66.4634 176.252C64.2718 176.252 62.4948 176.956 61.0732 178.364C59.6516 179.771 59 180.886 59 181.707C59 182.059 59.1777 182.352 59.5331 182.587C60.3624 183.173 60.8955 183.877 61.2509 184.698C61.6063 185.519 61.784 186.751 61.784 188.276C61.784 199.771 61.6655 205.871 61.547 206.457Z" fill="white"/>
<path d="M114.218 184.17C115.64 184.17 116.706 184.933 117.535 186.399C118.305 187.865 118.72 189.683 118.72 191.912C118.72 194.141 118.305 196.018 117.535 197.425C116.706 198.891 115.64 199.595 114.218 199.595C112.737 199.595 111.612 198.891 110.842 197.425C110.013 196.018 109.657 194.141 109.657 191.912C109.657 189.683 110.013 187.865 110.842 186.399C111.612 184.933 112.737 184.17 114.218 184.17ZM102.964 176.428C100.772 176.428 98.9953 177.132 97.5736 178.54C96.152 179.947 95.5005 181.062 95.5005 181.883C95.5005 182.235 95.6782 182.528 96.0336 182.762C96.8628 183.349 97.3959 184.053 97.7513 184.874C98.1067 185.695 98.2844 186.927 98.2844 188.452C98.2844 209.918 98.2252 220.827 98.166 221.12C98.166 221.296 98.2252 221.413 98.4029 221.413C100.417 221.824 102.253 222 103.912 222C106.222 222 108.176 221.824 109.835 221.413C110.013 221.413 110.131 221.296 110.131 221.062V202.587H110.309C112.027 205.988 114.692 207.689 118.305 207.689C121.978 207.689 124.999 206.106 127.309 202.821C129.56 199.595 130.745 195.842 130.745 191.56C130.745 187.22 129.678 183.642 127.664 180.827C125.65 178.012 122.807 176.545 119.194 176.545C117.18 176.545 115.344 177.073 113.626 178.129C111.849 179.185 110.664 180.651 110.013 182.528H109.835C109.776 182.293 109.657 181.883 109.539 181.296C108.532 178.07 106.34 176.428 102.964 176.428Z" fill="white"/>
<path d="M164.995 177.777C164.995 177.66 164.936 177.543 164.818 177.425C162.922 177.073 161.027 176.897 159.131 176.897C157.058 176.897 155.103 177.132 153.208 177.484L152.971 177.836V193.144C152.971 195.196 152.556 196.839 151.727 198.012C150.898 199.185 150.069 199.771 149.121 199.771C148.469 199.771 147.936 199.478 147.581 198.891C147.166 198.305 146.988 197.484 146.988 196.311V183.818C146.988 181.531 146.218 179.713 144.797 178.422C143.375 177.132 141.539 176.487 139.347 176.487C137.156 176.487 135.379 177.191 134.016 178.598C132.595 180.006 131.943 181.179 131.943 182.059C131.943 182.528 132.121 182.821 132.476 182.997C134.135 184.111 135.023 185.93 135.023 188.452V199.067C135.023 201.883 135.793 204.053 137.333 205.519C138.873 207.044 140.828 207.748 143.257 207.748C145.152 207.748 147.048 207.279 148.825 206.282C150.602 205.284 152.023 203.642 153.09 201.296L153.267 201.355C153.326 201.941 153.386 202.352 153.504 202.587C153.86 204.229 154.63 205.46 155.814 206.399C156.94 207.337 158.421 207.806 160.257 207.806C162.448 207.806 164.225 207.103 165.647 205.695C167.009 204.287 167.72 203.173 167.72 202.293C167.72 201.941 167.543 201.648 167.187 201.413C165.647 200.475 164.936 198.598 164.936 195.783C164.936 183.935 164.936 177.894 164.995 177.777Z" fill="white"/>
<path d="M192.075 191.326V191.091C193.734 190.739 195.155 189.977 196.34 188.804C197.525 187.63 198.117 186.223 198.117 184.581C198.117 182.235 196.873 180.299 194.444 178.774C192.016 177.249 188.995 176.428 185.382 176.428C180.643 176.428 176.793 177.601 173.89 179.947C170.988 182.293 169.566 184.463 169.566 186.457C169.566 187.103 169.803 187.396 170.277 187.396C170.573 187.396 171.225 187.161 172.232 186.692C173.179 186.223 174.483 185.754 176.023 185.284C177.563 184.815 179.162 184.522 180.821 184.522C181.946 184.522 182.894 184.698 183.664 184.933C184.434 185.226 184.967 185.578 185.322 185.988C185.619 186.457 185.796 186.809 185.915 187.103C186.033 187.455 186.092 187.748 186.092 188.041C186.092 188.804 185.855 189.507 185.441 190.211C183.368 189.566 181.768 189.449 180.702 189.918C179.577 190.387 179.044 191.15 179.044 192.205C179.044 193.202 179.577 193.906 180.761 194.375C181.887 194.845 183.545 194.61 185.737 193.789L186.033 194.199C186.152 194.551 186.329 195.021 186.507 195.607C186.685 196.194 186.803 196.839 186.803 197.425C186.803 198.481 186.448 199.419 185.796 200.24C185.085 201.062 184.197 201.472 183.012 201.472C181.946 201.472 181.117 201.179 180.406 200.534C179.695 199.947 179.399 199.067 179.399 198.012C179.399 197.777 179.399 197.425 179.517 196.956C179.577 196.487 179.636 196.194 179.636 196.018C179.636 195.666 179.103 195.196 178.037 194.727C176.97 194.258 175.904 193.965 174.838 193.965C173.002 193.965 171.58 194.493 170.573 195.49C169.507 196.545 169.033 197.777 169.033 199.243C169.033 202 170.455 204.111 173.357 205.636C176.2 207.161 179.517 207.865 183.249 207.865C185.974 207.865 188.462 207.572 190.772 206.868C193.082 206.223 195.037 205.167 196.577 203.701C198.117 202.235 198.887 200.475 198.887 198.364C198.887 196.487 198.235 194.962 196.932 193.73C195.629 192.499 194.03 191.677 192.075 191.326Z" fill="white"/>
<path d="M214.552 183.877C214.552 181.589 213.782 179.771 212.36 178.481C210.939 177.191 209.102 176.545 206.911 176.545C204.719 176.545 202.942 177.249 201.58 178.657C200.158 180.065 199.507 181.238 199.507 182.117C199.507 182.587 199.684 182.88 200.04 183.056C201.698 184.17 202.587 185.988 202.587 188.51L202.527 195.196C202.527 196.663 202.764 198.07 203.238 199.478C203.712 200.886 204.423 202.235 205.489 203.525C206.496 204.815 207.977 205.871 209.932 206.633C211.827 207.455 214.137 207.806 216.744 207.806C220.712 207.806 224.029 206.633 226.695 204.229C229.36 201.824 230.723 198.716 230.723 194.962C230.723 191.501 229.597 188.862 227.346 186.985C228.057 185.578 229.005 184.874 230.19 184.874C230.782 184.874 231.256 185.167 231.67 185.636C232.085 186.164 232.322 186.868 232.322 187.806V200.592C232.322 202.938 232.974 204.698 234.395 205.988C235.817 207.279 237.594 207.865 239.845 207.865C241.977 207.865 243.754 207.161 245.176 205.754C246.597 204.346 247.308 203.232 247.308 202.352C247.308 202 247.13 201.707 246.775 201.472C245.116 200.416 244.287 198.481 244.287 195.724V184.581C244.287 182.411 243.458 180.416 241.859 178.657C240.2 176.897 237.712 176.194 234.395 176.545C231.967 176.839 229.834 177.777 227.998 179.419C226.102 181.062 224.681 182.997 223.733 185.226C220.712 184.287 217.632 184.463 214.552 185.695V183.877ZM217.099 201.062C215.322 201.062 214.493 199.361 214.493 195.9V189.742C214.848 189.683 215.263 189.625 215.677 189.625C217.099 189.625 218.224 190.152 218.935 191.208C219.646 192.264 220.001 193.672 220.001 195.314C220.001 196.78 219.705 198.129 219.231 199.302C218.698 200.475 217.987 201.062 217.099 201.062Z" fill="white"/>
<path d="M291.84 185.519C291.84 182.938 290.656 180.768 288.286 179.067C285.917 177.367 282.896 176.487 279.283 176.487C274.189 176.487 270.102 178.012 267.021 181.003C263.941 184.053 262.46 187.748 262.46 192.088C262.46 196.663 263.823 200.358 266.666 203.29C269.509 206.223 273.478 207.689 278.69 207.689C282.541 207.689 285.739 206.575 288.346 204.229C290.952 201.941 292.255 199.947 292.255 198.188C292.255 197.66 292.018 197.367 291.544 197.367C291.307 197.367 290.3 197.777 288.464 198.481C286.628 199.185 284.91 199.537 283.251 199.537C280.171 199.537 277.861 198.657 276.44 196.897C275.018 195.138 274.307 193.026 274.307 190.446C274.307 188.334 274.722 186.457 275.61 184.815C276.44 183.173 277.506 182.352 278.809 182.352C280.349 182.352 281.178 183.525 281.178 185.871C281.178 186.34 281.119 186.927 281.001 187.689C280.882 188.452 280.882 188.921 280.882 189.155C280.882 189.742 281.356 190.328 282.304 190.915C283.251 191.501 284.377 191.736 285.562 191.736C287.576 191.736 289.175 191.091 290.241 189.801C291.307 188.51 291.84 187.103 291.84 185.519Z" fill="white"/>
<path d="M355.908 166.164C355.908 166.047 355.789 165.93 355.552 165.871L354.782 165.695C354.19 165.636 353.361 165.519 352.235 165.402C351.11 165.284 349.984 165.226 348.8 165.226C346.667 165.226 344.594 165.46 342.58 165.871L342.165 166.106C340.685 171.501 338.671 178.246 336.124 186.34H335.59L334.88 183.818C334.406 182.176 333.754 180.182 333.043 177.953C332.273 175.724 331.622 174.082 331.089 172.968C330.615 172.147 330.2 171.384 329.845 170.798C329.489 170.211 328.956 169.507 328.245 168.628C327.535 167.806 326.765 167.103 325.995 166.575C325.165 166.047 324.218 165.578 323.033 165.167C321.848 164.815 320.545 164.581 319.183 164.581C316.576 164.581 314.385 165.284 312.726 166.575C311.008 167.924 310.12 169.155 310.001 170.27C310.001 170.622 310.179 170.974 310.594 171.384C311.008 171.795 311.423 172.381 311.778 173.144C312.134 173.906 312.312 174.845 312.193 175.959C309.765 191.56 308.521 201.765 308.461 206.457C308.461 206.633 308.521 206.751 308.758 206.751L309.291 206.927C309.646 207.044 310.179 207.161 310.949 207.279C311.66 207.396 312.43 207.396 313.2 207.396C314.74 207.396 316.28 207.22 317.761 206.751C317.998 206.751 318.116 206.633 318.116 206.399C318.413 196.076 319.064 187.982 320.012 182.176H320.367C322.026 184.17 324.691 192.264 328.482 206.516L328.838 206.751C329.667 207.103 330.852 207.279 332.392 207.279C333.34 207.279 334.583 207.161 336.183 206.809C336.36 206.692 336.479 206.575 336.538 206.34L344.475 181.472H344.712C346.016 187.924 346.845 196.252 347.082 206.457C347.082 206.692 347.141 206.809 347.378 206.809L348.03 206.985C348.385 207.103 349.155 207.161 350.28 207.279C351.406 207.396 352.709 207.455 354.19 207.455C356.855 207.455 358.81 207.279 360.113 206.809L360.232 206.751C360.291 206.751 360.35 206.751 360.469 206.692C360.587 206.633 360.646 206.516 360.646 206.399C360.409 191.971 358.869 178.598 355.908 166.164Z" fill="white"/>
<path d="M371.716 207.806C373.848 207.806 375.625 207.103 377.047 205.695C378.468 204.287 379.179 203.173 379.179 202.293C379.179 201.941 379.001 201.648 378.646 201.413C376.987 200.358 376.158 198.422 376.158 195.666V177.718C376.158 177.601 376.099 177.484 375.98 177.425C374.263 177.073 372.308 176.839 370.176 176.839C368.221 176.839 366.325 177.073 364.489 177.425C364.311 177.484 364.252 177.601 364.252 177.718V200.534C364.252 202.88 364.904 204.639 366.325 205.93C367.688 207.22 369.465 207.806 371.716 207.806ZM370.472 173.73C372.486 173.73 374.263 173.202 375.743 172.029C377.165 170.915 377.935 169.507 377.935 167.865C377.935 166.282 377.165 164.933 375.743 163.76C374.263 162.587 372.486 162 370.472 162C368.398 162 366.621 162.587 365.2 163.76C363.778 164.933 363.067 166.282 363.067 167.865C363.067 169.507 363.778 170.915 365.2 172.029C366.621 173.202 368.398 173.73 370.472 173.73Z" fill="white"/>
<path d="M388.997 207.806C391.13 207.806 392.907 207.103 394.329 205.695C395.75 204.287 396.461 203.173 396.461 202.293C396.461 201.941 396.283 201.648 395.928 201.413C394.269 200.358 393.44 198.422 393.44 195.666V163.056C393.44 162.938 393.322 162.821 393.203 162.762C391.485 162.411 389.59 162.176 387.457 162.176C385.503 162.176 383.607 162.411 381.771 162.762C381.593 162.821 381.534 162.938 381.534 163.056V200.534C381.534 202.88 382.186 204.639 383.607 205.93C384.97 207.22 386.747 207.806 388.997 207.806Z" fill="white"/>
<path d="M431.276 200.123C430.328 199.654 429.617 199.302 429.203 198.95C426.893 197.308 425.116 195.196 423.813 192.674C425.886 192.205 427.604 191.091 429.025 189.449C430.387 187.806 431.098 185.93 431.098 183.877C431.098 181.413 430.21 179.537 428.492 178.188C426.774 176.897 424.523 176.311 421.799 176.428C419.666 176.545 417.652 177.191 415.816 178.364C413.98 179.537 412.499 181.003 411.433 182.88H411.314V162.997C411.314 162.88 411.255 162.762 411.137 162.704C409.004 162.352 407.049 162.117 405.272 162.117C403.614 162.117 401.718 162.352 399.645 162.704L399.408 162.938V206.399C399.408 206.575 399.467 206.692 399.645 206.692C401.778 207.103 403.732 207.279 405.45 207.279C406.753 207.279 408.589 207.103 411.077 206.692L411.314 206.34V193.672C411.314 188.276 412.914 185.402 416.231 185.05C417.178 184.991 418.008 185.284 418.659 185.871C419.311 186.457 419.548 187.279 419.429 188.276C419.192 189.449 418.659 190.387 417.711 191.15C416.764 191.971 415.638 192.44 414.217 192.616C413.624 192.733 413.387 193.144 413.387 193.73C413.387 194.903 413.565 196.252 413.98 197.777C414.335 199.302 414.927 200.827 415.757 202.352C416.527 203.935 417.652 205.226 419.074 206.282C420.495 207.337 422.154 207.806 423.99 207.806C426.3 207.806 428.196 207.161 429.677 205.812C431.098 204.463 431.868 202.88 431.868 201.003C431.868 200.651 431.631 200.358 431.276 200.123Z" fill="white"/>
<path d="M465.979 195.724C465.979 193.085 466.038 187.103 466.157 177.777C466.157 177.66 466.038 177.543 465.861 177.425C464.202 177.132 462.307 176.956 460.233 176.956C458.338 176.956 456.502 177.132 454.784 177.425C454.547 177.543 454.488 177.66 454.488 177.777L453.895 181.531H453.718C452.888 180.006 451.763 178.774 450.223 177.894C448.683 177.015 446.965 176.545 445.01 176.545C441.338 176.545 438.435 178.188 436.303 181.355C434.171 184.581 433.104 188.334 433.104 192.616C433.104 196.78 434.111 200.358 436.244 203.29C438.317 206.223 441.16 207.689 444.714 207.689C446.728 207.689 448.505 207.161 450.164 206.106C451.822 205.05 453.066 203.584 453.895 201.707H454.073C454.31 203.584 455.139 205.109 456.502 206.164C457.805 207.22 459.523 207.748 461.537 207.748C463.432 207.748 465.15 207.161 466.69 205.93C468.23 204.698 469 203.466 469 202.293C469 201.941 468.822 201.648 468.467 201.413C466.808 200.358 465.979 198.422 465.979 195.724ZM449.749 199.595C448.327 199.595 447.202 198.891 446.432 197.425C445.603 196.018 445.247 194.141 445.247 191.912C445.247 189.683 445.603 187.865 446.432 186.399C447.202 184.933 448.327 184.17 449.749 184.17C451.171 184.17 452.296 184.933 453.125 186.399C453.895 187.865 454.31 189.683 454.31 191.912C454.31 194.141 453.895 196.018 453.125 197.425C452.296 198.891 451.171 199.595 449.749 199.595Z" fill="white"/>
<path d="M412.3 150.2H421L449.4 109.2C451.7 105.7 454.7 100 454.7 100H454.9C454.9 100 454.4 105.6 454.4 109.2V150.2H463.2V87H454.5L426.3 127.9C424 131.3 420.9 137.2 420.9 137.2H420.7C420.7 137.2 421.2 131.6 421.2 128V87H412.3V150.2Z" fill="white"/>
</g>
<rect x="173" width="182" height="53" rx="26.5" fill="white"/>
<path d="M268.809 34.4689V18.125H279.4V21.9211H273.225V34.4689H268.809Z" fill="#E30613"/>
<path d="M292.724 34.4689V28.0678H286.164V34.4689H281.747V18.125H286.164V24.2244H292.724V18.125H297.141V34.4689H292.724Z" fill="#E30613"/>
<path d="M322.769 34.4689V21.9211H317.611V18.125H332.371V21.9211H327.188V34.4689H322.769Z" fill="#E30613"/>
<path d="M311.113 34.4667V25.1543L304.083 34.4667H300.39V18.1272H304.806V27.3427L311.718 18.1272H315.531V34.4667H311.113Z" fill="#E30613"/>
<path d="M243.43 34.4689V24.7558L239.02 29.8871L234.611 24.7558V34.4689H230.195V18.125H234.553L239.02 23.7448L243.487 18.125H247.846V34.4689H243.43Z" fill="#E30613"/>
<path fill-rule="evenodd" clip-rule="evenodd" d="M261.711 32.1764L262.636 34.4663H267.151L260.357 18.1246H256.274L249.482 34.4663H253.921L254.846 32.1764H261.711ZM258.282 23.5961L260.334 28.7206H256.23L258.282 23.5961Z" fill="#E30613"/>
<path d="M196 21.4458C196.004 19.472 196.811 17.5802 198.244 16.1846C199.677 14.7891 201.619 14.0036 203.645 14H221.293V17.7848H203.649C202.654 17.789 201.7 18.1759 200.996 18.8616C200.292 19.5472 199.894 20.476 199.889 21.4458L199.866 27.7997C199.786 28.6138 199.431 29.3789 198.857 29.9757C198.283 30.5724 197.522 30.9671 196.693 31.0982L196 31.2018V21.4458Z" fill="#E30613"/>
<path d="M196.001 38.5937V34.8087H213.649C214.645 34.804 215.599 34.4165 216.303 33.7306C217.007 33.0446 217.404 32.1156 217.409 31.1456V25.1159C217.414 24.2411 217.738 23.3965 218.323 22.7329C218.908 22.0693 219.716 21.6299 220.603 21.4932L221.296 21.3918V31.1456C221.292 33.1196 220.485 35.0117 219.053 36.4075C217.62 37.8034 215.678 38.5894 213.652 38.5937H196.001Z" fill="#E30613"/>
<path d="M210.951 31.2153V26.3228L208.65 28.9998L206.35 26.3228V31.2153H203.302V21.5878H206.189L208.65 24.6836L211.111 21.5878H213.997V31.2153H210.951Z" fill="#E30613"/>
<g filter="url(#filter1_d)">
<path d="M71.5637 306.312C71.5637 305.256 71.0837 304.368 70.1237 303.672C69.1637 302.976 67.9397 302.616 66.4757 302.616C64.4117 302.616 62.7557 303.24 61.5077 304.464C60.2597 305.712 59.6597 307.224 59.6597 309C59.6597 310.872 60.2117 312.384 61.3637 313.584C62.5157 314.784 64.1237 315.384 66.2357 315.384C67.7957 315.384 69.0917 314.928 70.1477 313.968C71.2037 313.032 71.7317 312.216 71.7317 311.496C71.7317 311.28 71.6357 311.16 71.4437 311.16C71.3477 311.16 70.9397 311.328 70.1957 311.616C69.4517 311.904 68.7557 312.048 68.0837 312.048C66.8357 312.048 65.8997 311.688 65.3237 310.968C64.7477 310.248 64.4597 309.384 64.4597 308.328C64.4597 307.464 64.6277 306.696 64.9877 306.024C65.3237 305.352 65.7557 305.016 66.2837 305.016C66.9077 305.016 67.2437 305.496 67.2437 306.456C67.2437 306.648 67.2197 306.888 67.1717 307.2C67.1237 307.512 67.1237 307.704 67.1237 307.8C67.1237 308.04 67.3157 308.28 67.6997 308.52C68.0837 308.76 68.5397 308.856 69.0197 308.856C69.8357 308.856 70.4837 308.592 70.9157 308.064C71.3477 307.536 71.5637 306.96 71.5637 306.312ZM84.3701 297.696C82.3061 297.696 80.6981 298.272 79.5461 299.376C78.3941 300.504 77.8181 301.944 77.8181 303.72C77.8181 305.352 78.2741 306.6 79.2101 307.416C80.1461 308.232 81.2021 308.64 82.3541 308.64C83.2421 308.64 83.9861 308.4 84.6101 307.896C85.2341 307.416 85.5461 306.912 85.5461 306.432C85.5461 306.192 85.4261 306.072 85.2341 306.072C85.1621 306.072 85.0181 306.096 84.8021 306.144C84.5621 306.192 84.4181 306.192 84.3221 306.192C83.6741 306.192 83.2181 305.952 82.9301 305.424C82.6421 304.92 82.5221 304.296 82.5221 303.576C82.5221 302.808 82.6661 302.184 83.0021 301.656C83.3381 301.152 83.7461 300.888 84.2741 300.888C84.9701 300.888 85.4741 301.32 85.8101 302.184C86.1461 303.048 86.3141 304.464 86.3141 306.384C86.3141 310.296 85.6421 312.24 84.2981 312.24C83.4341 312.24 83.0741 311.592 83.2421 310.248C83.2661 310.056 83.0741 309.888 82.6901 309.696C82.3061 309.528 81.8741 309.432 81.4421 309.432C80.5301 309.432 79.8341 309.696 79.3541 310.2C78.8741 310.728 78.6341 311.304 78.6341 311.952C78.6341 313.008 79.1381 313.872 80.1701 314.52C81.2021 315.168 82.4261 315.48 83.8421 315.48C86.2901 315.48 88.1381 314.64 89.4341 312.912C90.7061 311.184 91.3541 308.976 91.3541 306.264C91.3541 303.72 90.7301 301.656 89.4821 300.072C88.2341 298.488 86.5301 297.696 84.3701 297.696ZM109.697 306.312C109.697 305.256 109.217 304.368 108.257 303.672C107.297 302.976 106.073 302.616 104.609 302.616C102.545 302.616 100.889 303.24 99.6405 304.464C98.3925 305.712 97.7925 307.224 97.7925 309C97.7925 310.872 98.3445 312.384 99.4965 313.584C100.649 314.784 102.257 315.384 104.368 315.384C105.929 315.384 107.225 314.928 108.281 313.968C109.337 313.032 109.865 312.216 109.865 311.496C109.865 311.28 109.769 311.16 109.577 311.16C109.481 311.16 109.073 311.328 108.329 311.616C107.585 311.904 106.889 312.048 106.217 312.048C104.969 312.048 104.033 311.688 103.457 310.968C102.881 310.248 102.593 309.384 102.593 308.328C102.593 307.464 102.761 306.696 103.121 306.024C103.457 305.352 103.889 305.016 104.417 305.016C105.041 305.016 105.377 305.496 105.377 306.456C105.377 306.648 105.353 306.888 105.305 307.2C105.257 307.512 105.257 307.704 105.257 307.8C105.257 308.04 105.449 308.28 105.833 308.52C106.217 308.76 106.673 308.856 107.153 308.856C107.969 308.856 108.617 308.592 109.049 308.064C109.481 307.536 109.697 306.96 109.697 306.312ZM117.259 305.16C117.691 305.16 118.003 305.28 118.219 305.496C118.435 305.712 118.555 305.976 118.555 306.312C118.555 306.768 118.315 307.176 117.859 307.536C117.403 307.92 116.779 308.088 115.987 308.088C115.795 308.088 115.603 308.064 115.435 308.064C115.411 307.248 115.555 306.576 115.891 306C116.227 305.448 116.683 305.16 117.259 305.16ZM122.683 311.112C122.587 311.112 122.395 311.208 122.059 311.4C121.723 311.592 121.267 311.76 120.691 311.952C120.091 312.144 119.443 312.216 118.723 312.216C117.955 312.216 117.259 312.048 116.635 311.664C116.011 311.28 115.675 310.776 115.579 310.104C116.083 310.296 116.899 310.392 118.003 310.392C118.579 310.392 119.131 310.344 119.707 310.2C120.283 310.08 120.835 309.888 121.363 309.6C121.891 309.312 122.299 308.928 122.635 308.4C122.971 307.872 123.139 307.272 123.139 306.576C123.139 305.568 122.635 304.656 121.675 303.84C120.691 303.024 119.299 302.616 117.523 302.616C115.435 302.616 113.779 303.216 112.555 304.392C111.307 305.592 110.707 307.128 110.707 309.024C110.707 310.968 111.307 312.504 112.555 313.656C113.803 314.808 115.435 315.384 117.475 315.384C118.339 315.384 119.131 315.24 119.851 314.928C120.571 314.64 121.147 314.256 121.579 313.824C121.987 313.392 122.299 312.984 122.539 312.552C122.779 312.12 122.899 311.76 122.899 311.448C122.899 311.232 122.827 311.112 122.683 311.112ZM131.968 312.456C131.968 313.416 132.232 314.136 132.808 314.664C133.36 315.192 134.08 315.432 134.992 315.432C135.856 315.432 136.576 315.144 137.152 314.568C137.728 313.992 138.016 313.536 138.016 313.176C138.016 313.032 137.944 312.912 137.8 312.816C137.128 312.384 136.792 311.592 136.792 310.464V303.12C136.792 303.072 136.768 303.024 136.72 303C136.024 302.856 135.232 302.76 134.368 302.76C133.576 302.76 132.808 302.856 132.064 303C131.992 303.024 131.968 303.072 131.968 303.12V307.344H129.544V305.496C129.544 304.632 129.256 303.912 128.68 303.384C128.104 302.856 127.384 302.592 126.52 302.592C125.632 302.592 124.912 302.88 124.336 303.456C123.76 304.032 123.496 304.488 123.496 304.824C123.496 304.968 123.568 305.088 123.712 305.184C124.048 305.424 124.264 305.712 124.408 306.048C124.552 306.384 124.624 306.888 124.624 307.512C124.624 312.168 124.576 314.64 124.528 314.88C124.528 314.952 124.552 315 124.624 315C125.44 315.168 126.256 315.24 127.024 315.24C127.96 315.24 128.752 315.168 129.424 315C129.496 315 129.544 314.952 129.544 314.856V309.888H131.968V312.456ZM159.116 312.816C158.444 312.384 158.108 311.592 158.108 310.464C158.108 309.792 158.108 309 158.108 308.04C158.108 307.104 158.132 306.504 158.132 306.216C158.132 305.064 157.796 304.176 157.172 303.552C156.548 302.928 155.756 302.592 154.82 302.592C153.212 302.592 152.012 303.48 151.196 305.256H151.124C150.932 304.416 150.548 303.768 149.972 303.288C149.396 302.832 148.7 302.592 147.908 302.592C146.3 302.592 145.1 303.48 144.284 305.256H144.212C144.164 304.944 144.14 304.776 144.14 304.728C143.972 304.08 143.66 303.552 143.18 303.168C142.7 302.784 142.1 302.592 141.38 302.592C140.492 302.592 139.771 302.88 139.196 303.456C138.62 304.032 138.356 304.488 138.356 304.824C138.356 304.968 138.428 305.088 138.572 305.184C138.908 305.424 139.124 305.712 139.268 306.048C139.412 306.384 139.484 306.888 139.484 307.512C139.484 312.168 139.436 314.64 139.388 314.88C139.388 314.952 139.412 315 139.484 315C140.3 315.168 141.116 315.24 141.884 315.24C142.748 315.24 143.516 315.168 144.188 315C144.26 315 144.308 314.952 144.308 314.856V308.592C144.308 307.776 144.428 307.104 144.692 306.624C144.956 306.144 145.268 305.904 145.652 305.904C146.132 305.904 146.372 306.384 146.372 307.32V314.88C146.372 314.952 146.396 315 146.468 315C147.284 315.168 148.076 315.24 148.796 315.24C149.66 315.24 150.428 315.168 151.1 315C151.172 315 151.22 314.952 151.22 314.856V308.592C151.22 307.776 151.34 307.104 151.604 306.624C151.868 306.144 152.18 305.904 152.564 305.904C153.044 305.904 153.284 306.384 153.284 307.32V312.456C153.284 313.416 153.548 314.136 154.124 314.664C154.676 315.192 155.396 315.432 156.308 315.432C157.172 315.432 157.892 315.144 158.468 314.568C159.044 313.992 159.332 313.536 159.332 313.176C159.332 313.032 159.26 312.912 159.116 312.816ZM173.46 312.864C172.788 312.432 172.452 311.64 172.452 310.512L172.548 307.56C172.596 305.928 172.092 304.68 170.988 303.84C169.884 303 168.372 302.568 166.404 302.52C164.676 302.496 163.188 302.856 161.964 303.576C160.716 304.32 160.116 305.352 160.116 306.696C160.116 307.8 160.476 308.664 161.22 309.312C161.964 309.96 162.828 310.32 163.788 310.392C163.716 310.632 163.548 310.824 163.284 310.968C162.996 311.112 162.732 311.184 162.492 311.184C162.228 311.184 161.988 311.16 161.772 311.088C161.556 311.04 161.388 310.968 161.268 310.896C161.148 310.848 161.076 310.8 161.052 310.8C160.86 310.8 160.62 311.04 160.356 311.496C160.092 311.976 159.972 312.48 159.972 313.056C159.972 313.824 160.212 314.424 160.74 314.856C161.268 315.288 161.892 315.48 162.66 315.48C164.748 315.48 166.044 313.896 166.524 310.68C166.98 310.68 167.34 310.68 167.628 310.656V312.504C167.628 313.464 167.892 314.184 168.468 314.712C169.02 315.24 169.74 315.48 170.652 315.48C171.516 315.48 172.236 315.192 172.812 314.616C173.388 314.04 173.676 313.584 173.676 313.224C173.676 313.08 173.604 312.96 173.46 312.864ZM167.076 308.592C166.356 308.592 165.852 308.424 165.516 308.04C165.18 307.68 165.036 307.248 165.036 306.72C165.036 306.336 165.156 306 165.42 305.712C165.66 305.424 166.02 305.304 166.452 305.304C166.956 305.328 167.316 305.496 167.508 305.808C167.7 306.144 167.82 306.6 167.82 307.176L167.772 308.568L167.076 308.592ZM181.884 303.504C180.9 303.552 180.036 303.816 179.292 304.344C178.524 304.872 177.948 305.616 177.564 306.576H177.468L177.42 306.072C177.372 305.736 177.444 305.28 177.636 304.728C177.804 304.2 178.092 303.72 178.524 303.312C179.028 302.808 179.748 302.448 180.66 302.232C181.572 302.016 182.484 301.824 183.396 301.632C184.308 301.44 185.004 301.128 185.508 300.672C186.372 299.88 186.828 298.776 186.828 297.336C186.828 296.952 186.732 296.592 186.564 296.232C186.396 295.872 186.252 295.68 186.108 295.68C186.036 295.68 185.964 295.704 185.892 295.752C185.796 295.8 185.676 295.896 185.484 295.992C185.292 296.112 185.052 296.208 184.812 296.304C184.284 296.52 183.444 296.784 182.244 297.072C181.044 297.36 179.964 297.72 179.028 298.128C178.068 298.56 177.228 299.136 176.508 299.856C174.828 301.536 173.988 304.08 173.988 307.488C173.988 310.032 174.564 312 175.764 313.392C176.964 314.784 178.524 315.48 180.468 315.48C182.388 315.48 183.972 314.856 185.172 313.584C186.372 312.312 186.996 310.752 186.996 308.904C186.996 307.32 186.516 306 185.556 304.968C184.596 303.96 183.372 303.456 181.884 303.504ZM180.492 312.744C179.916 312.744 179.508 312.408 179.244 311.688C178.956 310.992 178.836 310.248 178.836 309.48C178.836 308.664 178.956 307.944 179.244 307.344C179.508 306.768 179.94 306.456 180.54 306.456C181.092 306.456 181.5 306.768 181.74 307.344C181.98 307.944 182.124 308.664 182.124 309.48C182.124 311.664 181.572 312.744 180.492 312.744ZM195.065 305.76C195.641 305.76 196.073 306.072 196.409 306.672C196.721 307.272 196.889 308.016 196.889 308.928C196.889 309.84 196.721 310.608 196.409 311.184C196.073 311.784 195.641 312.072 195.065 312.072C194.465 312.072 194.009 311.784 193.697 311.184C193.361 310.608 193.217 309.84 193.217 308.928C193.217 308.016 193.361 307.272 193.697 306.672C194.009 306.072 194.465 305.76 195.065 305.76ZM190.505 302.592C189.617 302.592 188.896 302.88 188.321 303.456C187.745 304.032 187.481 304.488 187.481 304.824C187.481 304.968 187.553 305.088 187.697 305.184C188.033 305.424 188.249 305.712 188.393 306.048C188.537 306.384 188.609 306.888 188.609 307.512C188.609 316.296 188.585 320.76 188.561 320.88C188.561 320.952 188.585 321 188.657 321C189.473 321.168 190.217 321.24 190.889 321.24C191.825 321.24 192.617 321.168 193.289 321C193.361 321 193.409 320.952 193.409 320.856V313.296H193.48C194.177 314.688 195.257 315.384 196.721 315.384C198.209 315.384 199.432 314.736 200.369 313.392C201.281 312.072 201.761 310.536 201.761 308.784C201.761 307.008 201.329 305.544 200.513 304.392C199.697 303.24 198.545 302.64 197.081 302.64C196.265 302.64 195.521 302.856 194.825 303.288C194.105 303.72 193.625 304.32 193.361 305.088H193.289C193.265 304.992 193.217 304.824 193.169 304.584C192.761 303.264 191.873 302.592 190.505 302.592ZM216.21 312.864C215.538 312.432 215.202 311.64 215.202 310.512L215.298 307.56C215.346 305.928 214.842 304.68 213.738 303.84C212.634 303 211.122 302.568 209.154 302.52C207.426 302.496 205.938 302.856 204.714 303.576C203.466 304.32 202.866 305.352 202.866 306.696C202.866 307.8 203.226 308.664 203.97 309.312C204.714 309.96 205.578 310.32 206.538 310.392C206.466 310.632 206.298 310.824 206.034 310.968C205.746 311.112 205.482 311.184 205.242 311.184C204.978 311.184 204.738 311.16 204.522 311.088C204.306 311.04 204.138 310.968 204.018 310.896C203.898 310.848 203.826 310.8 203.802 310.8C203.61 310.8 203.37 311.04 203.106 311.496C202.842 311.976 202.722 312.48 202.722 313.056C202.722 313.824 202.962 314.424 203.49 314.856C204.018 315.288 204.642 315.48 205.41 315.48C207.498 315.48 208.794 313.896 209.274 310.68C209.73 310.68 210.09 310.68 210.378 310.656V312.504C210.378 313.464 210.642 314.184 211.218 314.712C211.77 315.24 212.49 315.48 213.402 315.48C214.266 315.48 214.986 315.192 215.562 314.616C216.138 314.04 216.426 313.584 216.426 313.224C216.426 313.08 216.354 312.96 216.21 312.864ZM209.826 308.592C209.106 308.592 208.602 308.424 208.266 308.04C207.93 307.68 207.786 307.248 207.786 306.72C207.786 306.336 207.906 306 208.17 305.712C208.41 305.424 208.77 305.304 209.202 305.304C209.706 305.328 210.066 305.496 210.258 305.808C210.45 306.144 210.57 306.6 210.57 307.176L210.522 308.568L209.826 308.592ZM223.27 314.88C223.27 314.952 223.294 315 223.366 315C224.182 315.168 224.998 315.24 225.766 315.24C226.63 315.24 227.398 315.168 228.07 315C228.142 315 228.19 314.952 228.19 314.856V308.52C228.19 307.704 228.358 307.056 228.694 306.576C229.03 306.096 229.39 305.832 229.774 305.832C230.014 305.832 230.23 305.952 230.398 306.192C230.542 306.432 230.638 306.792 230.638 307.248V312.504C230.638 313.464 230.902 314.184 231.478 314.712C232.03 315.24 232.75 315.48 233.662 315.48C234.526 315.48 235.246 315.192 235.822 314.616C236.398 314.04 236.686 313.584 236.686 313.224C236.686 313.08 236.614 312.96 236.47 312.864C235.798 312.432 235.462 311.64 235.462 310.512C235.462 309.84 235.462 309.024 235.462 308.04C235.462 307.056 235.486 306.432 235.486 306.144C235.486 304.992 235.15 304.104 234.526 303.48C233.902 302.856 233.11 302.52 232.174 302.52C231.43 302.52 230.686 302.736 229.942 303.168C229.174 303.6 228.598 304.272 228.166 305.184H228.094C228.07 305.088 228.046 304.92 228.022 304.728C227.878 304.056 227.566 303.528 227.086 303.12C226.606 302.736 226.006 302.52 225.262 302.52C224.374 302.52 223.654 302.808 223.078 303.384C222.502 303.96 222.238 304.416 222.238 304.752C222.238 304.896 222.31 305.016 222.454 305.112C222.79 305.352 223.006 305.64 223.15 305.976C223.294 306.312 223.366 306.816 223.366 307.44C223.366 312.144 223.318 314.64 223.27 314.88ZM244.035 302.544C242.091 302.544 240.483 303.144 239.235 304.344C237.963 305.544 237.339 307.08 237.339 309C237.339 310.944 237.963 312.504 239.211 313.704C240.459 314.904 242.067 315.504 244.035 315.504C246.003 315.504 247.611 314.904 248.859 313.704C250.107 312.504 250.755 310.92 250.755 309C250.755 307.128 250.107 305.568 248.859 304.368C247.587 303.168 245.979 302.544 244.035 302.544ZM244.035 312.792C243.363 312.792 242.883 312.456 242.571 311.736C242.235 311.04 242.091 310.128 242.091 309C242.091 306.456 242.739 305.184 244.035 305.184C244.707 305.184 245.187 305.544 245.523 306.24C245.835 306.936 246.003 307.848 246.003 309C246.003 311.544 245.331 312.792 244.035 312.792ZM270.079 302.088C270.079 300.888 269.479 299.856 268.279 298.992C267.079 298.152 265.591 297.72 263.815 297.72C261.991 297.72 260.479 298.2 259.231 299.136C257.983 300.096 257.383 301.296 257.383 302.784C257.383 303.6 257.647 304.368 258.199 305.04C258.727 305.712 259.495 306.288 260.503 306.72V306.792C259.591 307.128 258.775 307.632 258.055 308.304C257.311 308.976 256.951 309.792 256.951 310.728C256.951 311.784 257.287 312.672 257.959 313.392C258.631 314.136 259.447 314.664 260.455 315C261.463 315.336 262.543 315.48 263.719 315.48C265.831 315.48 267.559 315 268.855 314.04C270.151 313.08 270.823 311.808 270.823 310.248C270.823 309.24 270.463 308.352 269.743 307.584C269.023 306.816 268.135 306.192 267.079 305.712V305.664C267.463 305.472 267.775 305.304 268.063 305.136C268.351 304.968 268.663 304.728 268.999 304.44C269.335 304.152 269.599 303.816 269.791 303.408C269.983 303.024 270.079 302.568 270.079 302.088ZM263.527 312.168C262.999 312.168 262.543 312.024 262.135 311.712C261.703 311.4 261.511 310.992 261.511 310.464C261.511 309.912 261.631 309.408 261.895 308.976C262.159 308.544 262.447 308.184 262.759 307.944C262.759 307.968 262.783 307.992 262.831 307.992C262.855 307.992 262.879 308.016 262.903 308.016L262.975 308.04C263.335 308.232 263.647 308.376 263.887 308.496C264.127 308.64 264.391 308.784 264.679 308.976C264.967 309.168 265.183 309.408 265.327 309.648C265.471 309.888 265.543 310.152 265.543 310.44C265.543 310.92 265.327 311.328 264.943 311.664C264.535 312 264.055 312.168 263.527 312.168ZM264.151 300.936C264.583 300.936 264.967 301.08 265.303 301.368C265.639 301.656 265.831 302.016 265.831 302.424C265.831 302.856 265.711 303.264 265.495 303.672C265.255 304.104 265.015 304.416 264.775 304.608C263.239 303.912 262.495 303.168 262.495 302.352C262.495 301.968 262.663 301.656 262.999 301.368C263.335 301.08 263.719 300.936 264.151 300.936ZM290.243 306.792C290.243 303.696 289.619 301.248 288.371 299.424C287.123 297.624 285.371 296.712 283.091 296.712C281.843 296.712 280.691 297.12 279.587 297.888C278.483 298.68 277.883 299.568 277.787 300.528C277.739 300.816 277.859 300.96 278.123 300.96C278.171 300.96 278.387 300.888 278.723 300.696C279.059 300.504 279.515 300.336 280.043 300.144C280.571 299.952 281.099 299.856 281.627 299.856C282.923 299.856 283.883 300.336 284.483 301.296C285.083 302.256 285.395 303.408 285.395 304.704H285.323C285.323 304.704 285.299 304.632 285.227 304.536C285.131 304.44 285.011 304.296 284.843 304.152C284.651 304.008 284.459 303.84 284.219 303.696C283.979 303.552 283.667 303.432 283.331 303.336C282.971 303.24 282.611 303.168 282.227 303.168C280.643 303.168 279.395 303.744 278.435 304.848C277.475 305.952 277.019 307.392 277.019 309.12C277.019 310.992 277.595 312.504 278.747 313.704C279.899 314.904 281.459 315.48 283.403 315.48C285.563 315.48 287.243 314.712 288.443 313.128C289.643 311.544 290.243 309.432 290.243 306.792ZM283.523 312.696C282.467 312.648 281.939 311.4 281.987 308.952C281.987 308.136 282.131 307.44 282.419 306.864C282.683 306.288 283.091 306.024 283.667 306.072C284.771 306.168 285.299 307.248 285.275 309.288C285.251 309.768 285.227 310.176 285.179 310.512C285.131 310.848 285.035 311.208 284.939 311.592C284.819 311.976 284.651 312.24 284.411 312.432C284.171 312.624 283.859 312.72 283.523 312.696ZM297.61 305.16C298.042 305.16 298.354 305.28 298.57 305.496C298.786 305.712 298.906 305.976 298.906 306.312C298.906 306.768 298.666 307.176 298.21 307.536C297.754 307.92 297.13 308.088 296.338 308.088C296.146 308.088 295.954 308.064 295.786 308.064C295.762 307.248 295.906 306.576 296.242 306C296.578 305.448 297.034 305.16 297.61 305.16ZM303.034 311.112C302.938 311.112 302.746 311.208 302.41 311.4C302.074 311.592 301.618 311.76 301.042 311.952C300.442 312.144 299.794 312.216 299.074 312.216C298.306 312.216 297.61 312.048 296.986 311.664C296.362 311.28 296.026 310.776 295.93 310.104C296.434 310.296 297.25 310.392 298.354 310.392C298.93 310.392 299.482 310.344 300.058 310.2C300.634 310.08 301.186 309.888 301.714 309.6C302.242 309.312 302.65 308.928 302.986 308.4C303.322 307.872 303.49 307.272 303.49 306.576C303.49 305.568 302.986 304.656 302.026 303.84C301.042 303.024 299.65 302.616 297.874 302.616C295.786 302.616 294.13 303.216 292.906 304.392C291.658 305.592 291.058 307.128 291.058 309.024C291.058 310.968 291.658 312.504 292.906 313.656C294.154 314.808 295.786 315.384 297.826 315.384C298.69 315.384 299.482 315.24 300.202 314.928C300.922 314.64 301.498 314.256 301.93 313.824C302.338 313.392 302.65 312.984 302.89 312.552C303.13 312.12 303.25 311.76 303.25 311.448C303.25 311.232 303.178 311.112 303.034 311.112ZM317.336 312.72C316.952 312.504 316.592 312.192 316.304 311.76C315.992 311.352 315.728 310.944 315.536 310.512C315.32 310.104 315.104 309.696 314.864 309.264C314.624 308.856 314.336 308.496 314 308.208C313.64 307.92 313.232 307.704 312.752 307.608C312.872 307.272 313.088 306.984 313.376 306.72C313.664 306.48 314 306.336 314.384 306.336C314.696 306.336 315.008 306.432 315.344 306.576C315.68 306.744 315.848 306.816 315.872 306.816C316.088 306.816 316.352 306.624 316.664 306.216C316.976 305.808 317.144 305.352 317.144 304.824C317.144 304.224 316.928 303.696 316.496 303.24C316.064 302.808 315.44 302.568 314.624 302.568C313.52 302.568 312.584 303.024 311.84 303.936C311.096 304.848 310.688 306.072 310.64 307.608H309.872V305.472C309.872 304.608 309.584 303.888 309.032 303.36C308.456 302.832 307.736 302.568 306.872 302.568C305.984 302.568 305.264 302.856 304.688 303.432C304.112 304.008 303.848 304.464 303.848 304.8C303.848 304.944 303.92 305.064 304.064 305.16C304.664 305.592 304.976 306.264 304.976 307.2V314.856C304.976 314.928 305 314.976 305.072 314.976C305.936 315.144 306.752 315.216 307.496 315.216C308.024 315.216 308.768 315.144 309.776 314.976L309.872 314.832V309.84C309.992 309.84 310.112 309.864 310.208 309.912C310.304 309.96 310.4 310.008 310.448 310.032C310.496 310.08 310.568 310.152 310.616 310.272C310.664 310.416 310.688 310.488 310.688 310.512C310.688 310.56 310.712 310.656 310.76 310.8L310.808 311.04C310.928 311.688 311.072 312.24 311.24 312.696C311.384 313.152 311.624 313.608 311.912 314.04C312.2 314.496 312.56 314.832 313.04 315.072C313.496 315.312 314.048 315.408 314.696 315.408C315.632 315.408 316.376 315.168 316.928 314.664C317.456 314.16 317.744 313.68 317.744 313.224C317.744 313.056 317.6 312.888 317.336 312.72ZM331.425 310.488C331.425 309.408 331.449 306.96 331.497 303.144C331.497 303.096 331.449 303.048 331.377 303C330.705 302.88 329.937 302.808 329.097 302.808C328.329 302.808 327.585 302.88 326.889 303C326.793 303.048 326.769 303.096 326.769 303.144L326.529 304.68H326.457C326.121 304.056 325.665 303.552 325.041 303.192C324.417 302.832 323.721 302.64 322.929 302.64C321.441 302.64 320.265 303.312 319.401 304.608C318.537 305.928 318.105 307.464 318.105 309.216C318.105 310.92 318.513 312.384 319.377 313.584C320.217 314.784 321.369 315.384 322.809 315.384C323.625 315.384 324.345 315.168 325.017 314.736C325.689 314.304 326.193 313.704 326.529 312.936H326.601C326.697 313.704 327.033 314.328 327.585 314.76C328.113 315.192 328.809 315.408 329.625 315.408C330.393 315.408 331.089 315.168 331.713 314.664C332.337 314.16 332.649 313.656 332.649 313.176C332.649 313.032 332.577 312.912 332.433 312.816C331.761 312.384 331.425 311.592 331.425 310.488ZM324.849 312.072C324.273 312.072 323.817 311.784 323.505 311.184C323.169 310.608 323.025 309.84 323.025 308.928C323.025 308.016 323.169 307.272 323.505 306.672C323.817 306.072 324.273 305.76 324.849 305.76C325.425 305.76 325.881 306.072 326.217 306.672C326.529 307.272 326.697 308.016 326.697 308.928C326.697 309.84 326.529 310.608 326.217 311.184C325.881 311.784 325.425 312.072 324.849 312.072ZM341.189 303.504C340.205 303.552 339.341 303.816 338.597 304.344C337.829 304.872 337.253 305.616 336.869 306.576H336.773L336.725 306.072C336.677 305.736 336.749 305.28 336.941 304.728C337.109 304.2 337.397 303.72 337.829 303.312C338.333 302.808 339.053 302.448 339.965 302.232C340.877 302.016 341.789 301.824 342.701 301.632C343.613 301.44 344.309 301.128 344.812 300.672C345.677 299.88 346.133 298.776 346.133 297.336C346.133 296.952 346.036 296.592 345.869 296.232C345.701 295.872 345.557 295.68 345.413 295.68C345.341 295.68 345.269 295.704 345.197 295.752C345.101 295.8 344.981 295.896 344.789 295.992C344.597 296.112 344.357 296.208 344.117 296.304C343.589 296.52 342.749 296.784 341.549 297.072C340.349 297.36 339.269 297.72 338.333 298.128C337.373 298.56 336.533 299.136 335.812 299.856C334.133 301.536 333.293 304.08 333.293 307.488C333.293 310.032 333.869 312 335.069 313.392C336.269 314.784 337.829 315.48 339.773 315.48C341.693 315.48 343.277 314.856 344.477 313.584C345.677 312.312 346.301 310.752 346.301 308.904C346.301 307.32 345.821 306 344.861 304.968C343.901 303.96 342.677 303.456 341.189 303.504ZM339.797 312.744C339.221 312.744 338.812 312.408 338.549 311.688C338.261 310.992 338.141 310.248 338.141 309.48C338.141 308.664 338.261 307.944 338.549 307.344C338.812 306.768 339.245 306.456 339.845 306.456C340.397 306.456 340.805 306.768 341.045 307.344C341.285 307.944 341.429 308.664 341.429 309.48C341.429 311.664 340.877 312.744 339.797 312.744ZM354.369 305.76C354.945 305.76 355.377 306.072 355.713 306.672C356.025 307.272 356.193 308.016 356.193 308.928C356.193 309.84 356.025 310.608 355.713 311.184C355.377 311.784 354.945 312.072 354.369 312.072C353.769 312.072 353.313 311.784 353.001 311.184C352.665 310.608 352.521 309.84 352.521 308.928C352.521 308.016 352.665 307.272 353.001 306.672C353.313 306.072 353.769 305.76 354.369 305.76ZM349.809 302.592C348.921 302.592 348.201 302.88 347.625 303.456C347.049 304.032 346.785 304.488 346.785 304.824C346.785 304.968 346.857 305.088 347.001 305.184C347.337 305.424 347.553 305.712 347.697 306.048C347.841 306.384 347.913 306.888 347.913 307.512C347.913 316.296 347.889 320.76 347.865 320.88C347.865 320.952 347.889 321 347.961 321C348.777 321.168 349.521 321.24 350.193 321.24C351.129 321.24 351.921 321.168 352.593 321C352.665 321 352.713 320.952 352.713 320.856V313.296H352.785C353.481 314.688 354.561 315.384 356.025 315.384C357.513 315.384 358.737 314.736 359.673 313.392C360.585 312.072 361.065 310.536 361.065 308.784C361.065 307.008 360.633 305.544 359.817 304.392C359.001 303.24 357.849 302.64 356.385 302.64C355.569 302.64 354.825 302.856 354.129 303.288C353.409 303.72 352.929 304.32 352.665 305.088H352.593C352.569 304.992 352.521 304.824 352.473 304.584C352.065 303.264 351.177 302.592 349.809 302.592ZM375.515 312.864C374.843 312.432 374.507 311.64 374.507 310.512L374.603 307.56C374.651 305.928 374.147 304.68 373.043 303.84C371.939 303 370.427 302.568 368.459 302.52C366.731 302.496 365.243 302.856 364.019 303.576C362.771 304.32 362.171 305.352 362.171 306.696C362.171 307.8 362.531 308.664 363.275 309.312C364.019 309.96 364.883 310.32 365.843 310.392C365.771 310.632 365.603 310.824 365.339 310.968C365.051 311.112 364.787 311.184 364.547 311.184C364.283 311.184 364.043 311.16 363.827 311.088C363.611 311.04 363.443 310.968 363.323 310.896C363.203 310.848 363.131 310.8 363.107 310.8C362.915 310.8 362.675 311.04 362.411 311.496C362.147 311.976 362.027 312.48 362.027 313.056C362.027 313.824 362.267 314.424 362.795 314.856C363.323 315.288 363.947 315.48 364.715 315.48C366.803 315.48 368.099 313.896 368.579 310.68C369.035 310.68 369.395 310.68 369.683 310.656V312.504C369.683 313.464 369.947 314.184 370.523 314.712C371.075 315.24 371.795 315.48 372.707 315.48C373.571 315.48 374.291 315.192 374.867 314.616C375.443 314.04 375.731 313.584 375.731 313.224C375.731 313.08 375.659 312.96 375.515 312.864ZM369.131 308.592C368.411 308.592 367.907 308.424 367.571 308.04C367.235 307.68 367.091 307.248 367.091 306.72C367.091 306.336 367.211 306 367.475 305.712C367.715 305.424 368.075 305.304 368.507 305.304C369.011 305.328 369.371 305.496 369.563 305.808C369.755 306.144 369.875 306.6 369.875 307.176L369.827 308.568L369.131 308.592ZM394.359 309.336C394.239 309.336 394.071 309.408 393.879 309.504C393.687 309.624 393.375 309.744 392.943 309.864C392.511 309.984 391.959 310.032 391.287 310.032C390.759 310.032 389.199 309.984 386.655 309.888C386.607 309.84 386.607 309.816 386.655 309.816C386.991 309.72 387.423 309.576 387.951 309.36C388.479 309.168 389.127 308.856 389.943 308.424C390.759 307.992 391.479 307.536 392.151 307.032C392.799 306.528 393.375 305.904 393.903 305.16C394.431 304.416 394.719 303.648 394.791 302.856C394.911 301.32 394.407 300.072 393.279 299.112C392.127 298.176 390.471 297.696 388.287 297.696C386.415 297.696 384.879 298.128 383.703 298.992C382.527 299.856 381.951 300.936 381.951 302.208C381.951 302.976 382.191 303.624 382.719 304.104C383.247 304.584 383.871 304.824 384.639 304.824C385.167 304.824 385.647 304.704 386.079 304.464C386.511 304.224 386.751 303.984 386.751 303.744C386.751 303.72 386.727 303.6 386.703 303.384C386.655 303.192 386.655 303.024 386.655 302.928C386.655 302.352 386.775 301.848 387.063 301.44C387.351 301.056 387.687 300.84 388.119 300.84C388.623 300.84 388.983 301.032 389.223 301.416C389.463 301.8 389.535 302.328 389.463 302.952C389.367 303.672 389.055 304.392 388.479 305.064C387.903 305.76 387.231 306.384 386.487 306.936C385.719 307.512 384.975 308.088 384.255 308.664C383.511 309.24 382.887 309.912 382.383 310.68C381.855 311.448 381.615 312.264 381.615 313.104C381.615 313.584 381.711 314.064 381.903 314.568C382.095 315.096 382.287 315.336 382.479 315.336L383.559 315.192C384.279 315.096 385.023 315.024 385.815 315.024C386.415 315.024 387.519 315.12 389.151 315.264C390.759 315.408 391.623 315.48 391.719 315.48C392.991 315.48 393.951 315.168 394.599 314.52C395.247 313.896 395.583 313.056 395.583 312.024C395.583 311.448 395.439 310.848 395.175 310.248C394.887 309.648 394.623 309.336 394.359 309.336ZM411.153 306.6C411.153 304.92 410.889 303.408 410.409 302.112C409.929 300.816 409.089 299.76 407.937 298.92C406.785 298.104 405.345 297.672 403.617 297.672C401.265 297.672 399.441 298.536 398.097 300.216C396.753 301.92 396.105 304.056 396.105 306.6C396.105 309.192 396.777 311.304 398.145 312.984C399.489 314.664 401.313 315.48 403.617 315.48C406.041 315.48 407.913 314.664 409.209 312.984C410.505 311.328 411.153 309.192 411.153 306.6ZM401.289 306.6C401.289 305.016 401.481 303.672 401.913 302.592C402.321 301.512 402.897 300.96 403.617 300.96C404.385 300.96 404.985 301.488 405.369 302.544C405.753 303.6 405.969 304.968 405.969 306.6C405.969 310.368 405.177 312.24 403.617 312.24C402.825 312.24 402.249 311.736 401.865 310.68C401.481 309.648 401.289 308.28 401.289 306.6ZM424.148 309.336C424.028 309.336 423.86 309.408 423.668 309.504C423.476 309.624 423.164 309.744 422.732 309.864C422.3 309.984 421.748 310.032 421.076 310.032C420.548 310.032 418.988 309.984 416.444 309.888C416.396 309.84 416.396 309.816 416.444 309.816C416.78 309.72 417.212 309.576 417.74 309.36C418.268 309.168 418.916 308.856 419.732 308.424C420.548 307.992 421.268 307.536 421.94 307.032C422.588 306.528 423.164 305.904 423.692 305.16C424.22 304.416 424.508 303.648 424.58 302.856C424.7 301.32 424.196 300.072 423.068 299.112C421.916 298.176 420.26 297.696 418.076 297.696C416.204 297.696 414.668 298.128 413.492 298.992C412.316 299.856 411.74 300.936 411.74 302.208C411.74 302.976 411.98 303.624 412.508 304.104C413.036 304.584 413.66 304.824 414.428 304.824C414.956 304.824 415.436 304.704 415.868 304.464C416.3 304.224 416.54 303.984 416.54 303.744C416.54 303.72 416.516 303.6 416.492 303.384C416.444 303.192 416.444 303.024 416.444 302.928C416.444 302.352 416.564 301.848 416.852 301.44C417.14 301.056 417.476 300.84 417.908 300.84C418.412 300.84 418.772 301.032 419.012 301.416C419.252 301.8 419.324 302.328 419.252 302.952C419.156 303.672 418.844 304.392 418.268 305.064C417.692 305.76 417.02 306.384 416.276 306.936C415.508 307.512 414.764 308.088 414.044 308.664C413.3 309.24 412.676 309.912 412.172 310.68C411.644 311.448 411.404 312.264 411.404 313.104C411.404 313.584 411.5 314.064 411.692 314.568C411.884 315.096 412.076 315.336 412.268 315.336L413.348 315.192C414.068 315.096 414.812 315.024 415.604 315.024C416.204 315.024 417.308 315.12 418.94 315.264C420.548 315.408 421.412 315.48 421.508 315.48C422.78 315.48 423.74 315.168 424.388 314.52C425.036 313.896 425.372 313.056 425.372 312.024C425.372 311.448 425.228 310.848 424.964 310.248C424.676 309.648 424.412 309.336 424.148 309.336ZM440.942 306.6C440.942 304.92 440.678 303.408 440.198 302.112C439.718 300.816 438.878 299.76 437.726 298.92C436.574 298.104 435.134 297.672 433.406 297.672C431.054 297.672 429.23 298.536 427.886 300.216C426.542 301.92 425.894 304.056 425.894 306.6C425.894 309.192 426.566 311.304 427.934 312.984C429.278 314.664 431.102 315.48 433.406 315.48C435.83 315.48 437.702 314.664 438.998 312.984C440.294 311.328 440.942 309.192 440.942 306.6ZM431.078 306.6C431.078 305.016 431.27 303.672 431.702 302.592C432.11 301.512 432.686 300.96 433.406 300.96C434.174 300.96 434.774 301.488 435.158 302.544C435.542 303.6 435.758 304.968 435.758 306.6C435.758 310.368 434.966 312.24 433.406 312.24C432.614 312.24 432.038 311.736 431.654 310.68C431.27 309.648 431.078 308.28 431.078 306.6ZM458.666 311.136C458.546 311.136 458.306 311.232 457.922 311.4C457.538 311.568 457.034 311.736 456.41 311.928C455.786 312.12 455.162 312.192 454.538 312.192C453.77 312.192 453.41 311.976 453.41 311.52C453.41 311.232 453.578 310.968 453.938 310.728C454.274 310.488 454.706 310.248 455.21 310.008C455.714 309.768 456.218 309.504 456.722 309.216C457.226 308.928 457.658 308.52 458.018 307.992C458.354 307.488 458.546 306.888 458.546 306.216C458.546 305.016 458.018 304.08 456.986 303.456C455.954 302.832 454.754 302.52 453.386 302.52C451.682 302.52 450.242 302.976 449.042 303.84C447.842 304.728 447.266 305.688 447.266 306.696C447.266 306.888 447.362 306.984 447.554 306.984C447.65 306.984 447.89 306.888 448.274 306.696C448.658 306.504 449.162 306.312 449.786 306.12C450.386 305.928 451.01 305.832 451.658 305.832C452.018 305.832 452.33 305.928 452.57 306.072C452.81 306.24 452.954 306.456 452.954 306.744C452.954 307.08 452.762 307.392 452.378 307.656C451.994 307.92 451.562 308.16 451.034 308.376C450.506 308.616 449.978 308.856 449.45 309.144C448.922 309.432 448.49 309.84 448.154 310.368C447.794 310.896 447.626 311.496 447.674 312.192C447.722 313.2 448.178 314.016 449.066 314.592C449.93 315.192 451.13 315.48 452.618 315.48C454.322 315.48 455.786 315.072 457.034 314.208C458.282 313.368 458.906 312.432 458.954 311.424C458.954 311.232 458.858 311.136 458.666 311.136ZM465.569 312.624C465.569 311.856 465.257 311.208 464.681 310.656C464.105 310.128 463.385 309.84 462.521 309.84C461.681 309.84 460.985 310.128 460.409 310.656C459.833 311.208 459.545 311.856 459.545 312.624C459.545 313.392 459.809 314.064 460.385 314.592C460.961 315.12 461.657 315.384 462.521 315.384C463.409 315.384 464.129 315.12 464.705 314.592C465.281 314.064 465.569 313.416 465.569 312.624Z" fill="white"/>
</g>
<defs>
<filter id="filter0_d" x="39" y="67" width="450" height="229" filterUnits="userSpaceOnUse" color-interpolation-filters="sRGB">
<feFlood flood-opacity="0" result="BackgroundImageFix"/>
<feColorMatrix in="SourceAlpha" type="matrix" values="0 0 0 0 0 0 0 0 0 0 0 0 0 0 0 0 0 0 127 0"/>
<feOffset/>
<feGaussianBlur stdDeviation="10"/>
<feColorMatrix type="matrix" values="0 0 0 0 0.231373 0 0 0 0 0.172549 0 0 0 0 0.447059 0 0 0 1 0"/>
<feBlend mode="normal" in2="BackgroundImageFix" result="effect1_dropShadow"/>
<feBlend mode="normal" in="SourceGraphic" in2="effect1_dropShadow" result="shape"/>
</filter>
<filter id="filter1_d" x="39.6597" y="275.68" width="445.909" height="65.56" filterUnits="userSpaceOnUse" color-interpolation-filters="sRGB">
<feFlood flood-opacity="0" result="BackgroundImageFix"/>
<feColorMatrix in="SourceAlpha" type="matrix" values="0 0 0 0 0 0 0 0 0 0 0 0 0 0 0 0 0 0 127 0"/>
<feOffset/>
<feGaussianBlur stdDeviation="10"/>
<feColorMatrix type="matrix" values="0 0 0 0 0.231373 0 0 0 0 0.172549 0 0 0 0 0.447059 0 0 0 1 0"/>
<feBlend mode="normal" in2="BackgroundImageFix" result="effect1_dropShadow"/>
<feBlend mode="normal" in="SourceGraphic" in2="effect1_dropShadow" result="shape"/>
</filter>
</defs>
</svg>
