<svg width="473" height="216" viewBox="0 0 473 216" fill="none" xmlns="http://www.w3.org/2000/svg">
<path d="M49.2018 95.1531C89.324 119.986 125.888 114.7 219.506 96.5054C318.892 77.0814 331.284 59.6244 417.173 63.0666C469.564 65.1565 473 95.1531 473 95.1531C473 95.1531 469.933 21.7598 395.578 14.1377C306.99 5.04041 164.292 74.9915 73.2506 67.4923C22.2083 63.3125 18.5274 34.1764 18.5274 34.1764C18.5274 34.1764 22.331 78.5566 49.2018 95.1531Z" fill="#644F9A"/>
<path d="M432.142 71.4263C405.762 67.1235 379.259 72.2869 379.259 72.2869C379.259 72.2869 420.485 68.7217 446.375 87.2851C465.515 100.931 457.54 116.667 457.54 116.667C457.54 116.667 459.994 122.691 465.515 109.537C470.914 96.2595 458.644 75.6061 432.142 71.4263Z" fill="#644F9A"/>
<path d="M29.9383 25.6938C25.8892 7.13034 39.0179 2.21286 39.0179 2.21286C39.0179 2.21286 40.8584 -2.70461 30.429 2.21286C20.1224 7.13034 16.4415 26.0626 29.6929 42.905C43.1896 59.7473 65.2752 62.6978 65.2752 62.6978C65.2752 62.6978 35.337 50.7729 29.9383 25.6938Z" fill="#644F9A"/>
<path d="M115.459 78.8025L129.446 79.4172L129.201 84.2117L120.857 83.8429L120.121 101.915L114.6 101.669L115.459 78.8025Z" fill="white"/>
<path d="M132.514 86.7934L132.146 79.2943L147.483 78.5566L148.464 101.423L142.943 101.669L142.207 83.597L137.79 83.8429L137.912 86.6705C138.403 97.8577 135.213 102.283 128.71 102.652L128.465 97.6118C131.164 96.9972 132.882 94.9072 132.514 86.7934Z" fill="white"/>
<path d="M156.808 77.4502L162.575 76.7126L173.249 98.3495L167.605 99.0871L165.642 94.5384L158.526 95.399L157.789 100.316L152.145 101.054L156.808 77.4502ZM163.679 90.3586L161.838 86.1787C161.225 84.8264 160.366 82.3677 160.366 82.3677H160.243C160.243 82.3677 159.998 84.9494 159.875 86.4246L159.139 90.9733L163.679 90.3586Z" fill="white"/>
<path d="M171.9 75.3603L180.12 73.7621C184.537 72.9015 188.096 74.2538 188.832 78.0649C189.2 79.9089 188.709 81.9989 187.237 83.3512V83.4741C189.936 83.72 191.409 85.8099 191.777 87.7769C192.758 92.6944 189.077 95.276 184.537 96.1366L176.317 97.7348L171.9 75.3603ZM181.961 82.3677C183.311 82.1218 183.679 81.0154 183.556 79.9089C183.311 78.9254 182.574 78.0649 181.102 78.4337L178.403 78.9254L179.139 82.8594L181.961 82.3677ZM184.169 91.3421C185.764 90.9733 186.378 89.7439 186.133 88.5145C185.887 87.2851 184.906 86.4246 183.31 86.6705L179.998 87.2851L180.857 91.9568L184.169 91.3421Z" fill="white"/>
<path d="M191.654 71.3034L197.053 69.9511L199.384 78.8025L207.359 76.7126L205.028 67.8611L210.427 66.5088L216.194 88.6375L210.795 89.9898L208.586 81.3842L200.611 83.4741L202.819 92.0797L197.421 93.432L191.654 71.3034Z" fill="white"/>
<path d="M214.598 65.2795L219.874 63.5583L222.083 70.3199L225.519 69.2134C229.69 67.8611 233.617 70.074 234.966 74.4997C236.439 78.9254 234.475 82.8594 230.304 84.3347L221.592 87.1622L214.598 65.2795ZM227.85 80.0319C229.568 79.4172 230.181 77.942 229.568 76.2208C228.954 74.4997 227.727 73.5162 225.887 74.1309L223.555 74.8685L225.519 80.7695L227.85 80.0319ZM232.758 59.3785L238.034 57.6574L245.027 79.4172L239.751 81.1383L232.758 59.3785Z" fill="white"/>
<path d="M242.574 55.8133L247.85 54.0922L251.162 64.296C251.653 65.6483 252.144 68.107 252.144 68.107C252.144 68.107 252.389 65.5253 252.757 63.8042L255.457 51.6335L260.856 49.9124L267.972 71.6722L262.696 73.3933L259.383 63.3125C258.892 61.9602 258.402 59.5014 258.402 59.5014C258.402 59.5014 258.156 62.0831 257.788 63.8042L255.089 75.852L249.69 77.5731L242.574 55.8133ZM244.414 49.0518L244.291 48.683L248.218 47.4536L248.34 47.8224C248.708 49.0518 249.935 49.2977 250.794 49.0518C251.653 48.8059 252.512 47.9454 252.144 46.5931L252.021 46.2242L255.825 44.9949L255.948 45.3637C256.929 48.3142 254.843 50.8959 251.776 51.8793C248.586 52.8628 245.396 52.0023 244.414 49.0518Z" fill="white"/>
<path d="M274.107 45.9784L292.757 41.0609L298.524 63.1895L293.125 64.6648L288.585 47.2077L280.733 49.2977L285.272 66.7547L279.874 68.2299L274.107 45.9784Z" fill="white"/>
<path d="M298.156 39.8315L307.358 37.8645C311.652 36.8811 315.333 39.4627 316.315 44.0114C317.296 48.56 315.088 52.3711 310.671 53.3546L306.867 54.2151L308.34 61.0996L302.941 62.329L298.156 39.8315ZM308.585 48.9289C310.548 48.56 311.162 47.0848 310.794 45.2408C310.425 43.5196 309.198 42.4132 307.358 42.782L304.536 43.3967L305.886 49.4206L308.585 48.9289Z" fill="white"/>
<path d="M318.401 35.5287L323.922 34.6682L325.64 45.2408C325.885 46.716 326.008 49.1747 326.008 49.1747H326.131C326.131 49.1747 326.744 46.5931 327.358 44.9949L331.898 33.4388L337.419 32.4553L341.1 54.9528L335.578 55.8133L333.861 45.3637C333.615 43.8884 333.493 41.4297 333.493 41.4297H333.37C333.37 41.4297 332.756 44.0114 332.143 45.6096L327.603 57.1656L322.082 58.0262L318.401 35.5287Z" fill="white"/>
<path d="M345.885 47.5766C347.112 48.56 349.075 49.5435 350.916 49.2977C352.879 49.0518 353.738 48.0683 353.615 46.4701C353.492 45.1178 352.511 44.3802 350.67 44.5031L347.971 44.8719L347.48 40.4462L349.689 40.2003C351.407 39.9545 352.143 38.848 352.02 37.6187C351.897 36.2664 350.793 35.4058 349.075 35.5287C347.603 35.6517 346.008 36.5122 344.658 37.9875L342.081 34.2994C344.29 31.9636 346.989 30.9801 349.689 30.7342C353.002 30.3654 357.173 31.8406 357.664 36.2664C357.91 38.848 356.683 40.5692 355.333 41.5526V41.6756C357.664 42.1673 359.136 43.8884 359.505 46.3472C359.995 50.7729 356.56 53.7234 352.265 54.2151C349.198 54.5839 346.008 53.7234 343.554 51.7564L345.885 47.5766Z" fill="white"/>
<path d="M60.2446 115.806C60.3673 115.929 60.49 116.052 60.3673 116.175L42.208 142.238C42.0853 142.361 42.0853 142.361 41.9626 142.361C40.4903 141.746 39.2633 141.009 38.0363 140.271C36.5639 139.164 35.337 138.181 34.3554 137.075V136.829V136.706L44.4166 122.322C45.2755 120.97 45.889 119.863 46.2571 118.88C46.6252 117.896 46.6252 117.036 46.5025 116.421C46.3798 115.806 46.1344 115.315 45.889 114.946C45.6436 114.577 45.3982 114.208 45.2755 113.84C45.1528 113.471 45.1528 113.225 45.2755 112.979C45.3982 112.733 45.6436 112.61 46.0117 112.61C46.2571 112.61 46.7479 112.61 47.2386 112.856C47.8521 112.979 48.4656 113.102 49.2018 113.348C49.938 113.471 51.0423 113.594 52.392 113.717C53.7416 113.84 55.214 113.84 56.8091 113.717C57.0545 113.717 57.2999 113.717 57.4226 113.84L60.2446 115.806Z" fill="#644F9A"/>
<path d="M74.6003 150.598C71.2874 152.933 67.4838 153.425 63.0667 152.073C58.8949 150.843 56.0729 148.262 54.6005 144.451C53.0054 140.64 53.0054 136.46 54.3551 131.788C55.7048 127.117 58.1587 123.674 61.4716 121.339C64.7844 119.003 68.5881 118.511 72.8825 119.74C75.9499 120.724 78.4039 122.199 79.999 124.412C81.594 126.502 82.5756 128.961 82.6983 131.542C82.821 134.124 82.4529 136.952 81.594 140.025C80.2444 144.697 77.9131 148.262 74.6003 150.598ZM62.5759 142.361C62.6986 144.451 63.4348 145.68 64.9071 146.172C67.7292 147.032 70.1831 144.082 72.269 137.198C73.1279 134.247 73.6187 131.665 73.496 129.575C73.3733 127.486 72.6371 126.133 71.1647 125.764C69.815 125.396 68.5881 126.01 67.2384 127.731C65.8887 129.452 64.7844 131.788 63.9255 134.739C62.944 137.689 62.4532 140.271 62.5759 142.361Z" fill="#644F9A"/>
<path d="M107.851 154.777C105.152 157.728 101.471 158.957 96.8086 158.466C92.5141 158.097 89.2013 156.13 86.9927 152.688C84.7842 149.245 83.8026 145.188 84.2934 140.271C84.7842 135.476 86.3792 131.542 89.2013 128.592C92.0233 125.641 95.5816 124.412 99.9987 124.781C103.312 125.15 105.888 126.133 107.974 127.977C110.06 129.821 111.41 131.911 112.023 134.493C112.759 137.075 112.882 139.902 112.637 143.098C112.268 147.893 110.673 151.827 107.851 154.777ZM94.4773 148.999C94.9681 151.089 96.0724 152.073 97.5447 152.319C100.489 152.565 102.33 149.245 103.066 142.115C103.312 139.042 103.189 136.46 102.698 134.37C102.207 132.28 101.103 131.174 99.6306 131.051C98.2809 130.928 97.054 131.788 96.0724 133.755C95.0908 135.722 94.4773 138.181 94.1092 141.254C93.8638 144.451 93.9865 147.032 94.4773 148.999Z" fill="#644F9A"/>
<path d="M151.286 153.794C148.955 157.113 145.52 158.834 140.98 159.08C136.685 159.326 133.127 157.974 130.428 154.9C127.728 151.827 126.133 147.893 125.888 143.098C125.643 138.304 126.624 134.124 128.955 130.805C131.287 127.486 134.722 125.641 139.139 125.396C142.452 125.273 145.151 125.887 147.483 127.363C149.814 128.838 151.409 130.805 152.513 133.141C153.618 135.599 154.231 138.304 154.354 141.5C154.599 146.418 153.618 150.475 151.286 153.794ZM137.176 150.106C138.035 152.073 139.139 152.933 140.612 152.933C143.556 152.81 144.906 149.122 144.415 141.992C144.293 138.919 143.679 136.337 142.943 134.37C142.084 132.403 140.98 131.419 139.385 131.542C138.035 131.665 137.053 132.649 136.317 134.739C135.704 136.829 135.336 139.41 135.581 142.361C135.826 145.68 136.317 148.262 137.176 150.106Z" fill="#644F9A"/>
<path d="M182.084 150.106C179.998 153.548 176.808 155.515 172.145 156.13C167.851 156.622 164.17 155.515 161.225 152.688C158.28 149.86 156.44 146.049 155.826 141.254C155.213 136.46 155.949 132.28 158.035 128.715C160.121 125.15 163.433 123.183 167.728 122.568C170.918 122.199 173.74 122.568 176.194 123.92C178.525 125.15 180.366 126.994 181.593 129.33C182.82 131.665 183.679 134.37 184.047 137.566C184.783 142.484 184.047 146.664 182.084 150.106ZM167.728 147.524C168.709 149.368 169.936 150.229 171.409 149.983C174.354 149.614 175.335 145.926 174.476 138.796C174.108 135.722 173.372 133.264 172.39 131.297C171.409 129.452 170.182 128.592 168.709 128.715C167.36 128.838 166.378 130.067 165.887 132.157C165.397 134.247 165.274 136.829 165.642 139.902C166.01 143.221 166.746 145.68 167.728 147.524Z" fill="#644F9A"/>
<path d="M211.531 144.943C209.691 148.508 206.5 150.721 201.961 151.458C197.666 152.196 193.985 151.335 190.918 148.631C187.85 145.926 185.764 142.238 184.906 137.443C184.047 132.649 184.537 128.469 186.501 124.904C188.464 121.339 191.531 119.126 195.826 118.265C199.016 117.651 201.838 117.896 204.292 119.126C206.746 120.232 208.586 121.953 209.936 124.289C211.286 126.502 212.267 129.207 212.881 132.403C213.862 137.198 213.371 141.377 211.531 144.943ZM197.175 143.098C198.28 144.943 199.507 145.68 200.979 145.434C203.924 144.943 204.66 141.131 203.433 134.124C202.819 131.051 202.083 128.592 200.979 126.748C199.875 124.904 198.648 124.166 197.175 124.412C195.826 124.658 194.967 125.887 194.599 127.977C194.231 130.19 194.231 132.649 194.844 135.722C195.212 138.796 196.071 141.254 197.175 143.098Z" fill="#644F9A"/>
<path d="M251.776 137.198C249.813 140.025 246.745 141.869 242.574 142.853C238.402 143.713 234.966 143.467 232.39 141.746C229.813 140.148 227.973 137.32 227.114 133.264C226.991 132.772 226.746 131.297 226.132 128.961C225.641 126.502 225.15 124.658 224.905 123.306C224.66 122.199 224.292 121.216 223.923 120.601C223.555 119.863 223.187 119.372 222.819 119.249C222.451 119.003 222.206 118.757 221.96 118.634C221.715 118.388 221.592 118.265 221.47 118.019C221.347 117.651 221.47 117.282 221.715 116.79C221.96 116.298 222.451 115.684 223.065 115.192C223.678 114.577 224.537 114.085 225.764 113.471C226.991 112.856 228.341 112.487 229.813 112.118C235.948 110.766 239.506 110.028 240.488 109.906C241.347 109.66 242.205 109.414 242.942 109.168C243.678 108.922 244.169 108.676 244.537 108.43C244.905 108.184 245.15 108.061 245.273 108.061C245.641 107.939 246.254 108.307 246.745 108.922C247.359 109.537 247.85 110.52 248.095 111.873C248.463 113.594 248.218 115.069 247.359 116.421C246.5 117.773 244.905 118.634 242.574 119.126L234.23 120.724L236.684 132.157C237.052 133.632 237.543 134.739 238.279 135.476C239.015 136.214 239.997 136.46 240.978 136.214C242.205 135.968 243.064 135.231 243.432 134.001C243.801 132.772 243.923 131.665 243.555 130.436C243.31 129.575 242.942 128.838 242.574 128.223C242.205 127.608 241.592 127.24 240.978 126.994C240.365 126.748 239.874 126.625 239.506 126.502C239.138 126.379 238.647 126.379 238.034 126.256C237.543 126.256 237.175 126.01 237.175 125.641C237.052 125.273 237.298 124.904 237.911 124.289C238.402 123.797 239.261 123.306 240.242 122.814C243.31 121.585 246.009 121.462 248.463 122.445C250.917 123.429 252.512 125.273 253.248 128.1C254.23 131.419 253.739 134.37 251.776 137.198Z" fill="#644F9A"/>
<path d="M275.088 103.882C277.297 104.373 279.26 105.357 280.733 106.709C282.205 108.061 283.555 109.66 284.536 111.504C285.518 113.348 286.131 115.438 286.622 117.774C287.481 122.568 286.745 126.748 284.536 130.313C282.328 133.878 278.524 136.214 273.248 137.075C268.217 137.935 264.046 136.952 260.61 134.247C257.175 131.542 255.089 127.854 254.353 123.183C253.616 118.511 254.353 114.331 256.684 110.643C259.015 106.955 262.696 104.742 267.727 103.882C270.303 103.267 272.88 103.267 275.088 103.882ZM276.193 126.994C276.806 125.027 276.929 122.445 276.438 119.249C275.947 116.298 274.966 113.962 273.616 112.118C272.266 110.397 270.549 109.66 268.708 109.906C266.868 110.151 265.641 111.381 264.905 113.594C264.168 115.684 264.046 118.265 264.536 121.216C265.027 124.289 266.009 126.625 267.358 128.346C268.708 130.067 270.303 130.805 272.144 130.436C274.107 130.19 275.457 129.084 276.193 126.994Z" fill="#644F9A"/>
<path d="M297.051 101.054C298.278 102.038 299.015 103.39 299.26 105.357L299.996 111.873L309.198 110.889L307.971 99.4559C307.971 99.333 307.971 99.21 308.094 99.21C309.444 98.7183 311.039 98.4724 312.634 98.2265C314.597 97.9807 316.192 97.9807 317.542 98.1036C317.665 98.1036 317.787 98.2265 317.787 98.3495L321.223 129.452C321.223 129.575 321.223 129.698 320.977 129.698C319.75 130.19 318.155 130.436 316.192 130.682C314.597 130.805 313.002 130.928 311.407 130.805C311.284 130.805 311.162 130.682 311.162 130.559V130.313L311.039 129.698L310.916 128.715L310.794 127.363C310.794 126.871 310.671 126.379 310.671 125.764C310.671 125.15 310.548 124.535 310.548 123.92L310.303 121.953L310.057 119.863L309.812 117.773L300.61 118.757L302.082 131.542C302.082 131.665 302.082 131.788 301.959 131.788C300.487 132.28 299.015 132.649 297.297 132.772C295.456 133.018 293.861 133.018 292.512 132.772C292.389 132.772 292.266 132.649 292.266 132.526L289.812 110.52C289.689 109.168 289.444 108.184 288.953 107.57C288.463 106.955 287.972 106.34 287.113 105.972C286.745 105.849 286.622 105.603 286.622 105.357C286.499 104.619 286.99 103.636 288.094 102.283C289.199 100.931 290.548 100.194 292.389 100.071C294.352 99.8247 295.824 100.194 297.051 101.054Z" fill="#644F9A"/>
<path d="M352.511 96.8742C349.934 117.773 344.167 128.838 335.21 129.944C332.634 130.313 330.425 129.821 328.585 128.592C326.744 127.363 325.763 125.764 325.763 123.92C325.763 123.06 326.008 122.568 326.622 122.568C326.744 122.568 327.235 122.814 328.217 123.183C329.198 123.552 330.18 123.797 331.284 123.797C331.775 123.797 332.266 123.674 332.879 123.552C333.37 123.429 333.738 123.183 333.983 123.06L334.351 122.814C333.615 120.232 332.756 117.773 331.652 115.438C330.548 113.102 329.198 110.766 327.603 108.676C325.885 106.463 324.29 104.988 322.45 104.127C322.204 104.005 322.082 103.759 321.959 103.267C321.959 102.652 321.959 101.915 322.204 101.3C322.327 100.562 322.695 99.9476 323.063 99.21C323.431 98.4724 324.168 97.8577 325.026 97.366C325.885 96.8742 326.99 96.6284 328.217 96.5054C330.057 96.3825 331.898 96.9972 333.493 98.2265C335.088 99.4559 336.437 101.054 337.542 103.144C338.646 105.234 339.505 107.324 340.241 109.537C340.977 111.75 341.468 113.962 341.836 116.175H342.081C343.922 111.873 344.658 105.726 344.29 97.4889L344.413 97.243C345.64 96.8742 346.867 96.6283 348.339 96.6283C349.689 96.6283 351.038 96.6284 352.388 96.8742C352.388 96.7513 352.511 96.7513 352.511 96.8742Z" fill="#644F9A"/>
<path d="M377.541 120.355C378.891 119.986 379.995 119.74 380.731 119.372C381.59 119.003 382.081 118.88 382.204 118.88C382.694 118.88 383.063 119.249 382.94 119.863C382.94 120.724 382.572 121.707 381.836 122.814C381.099 123.92 380.24 125.027 379.013 126.01C377.909 126.994 376.437 127.854 374.596 128.592C372.879 129.207 371.038 129.575 369.198 129.575C363.922 129.452 359.995 127.731 357.296 124.658C354.597 121.462 353.37 117.528 353.492 112.61C353.615 107.693 355.333 103.636 358.523 100.562C361.713 97.4889 365.762 95.8907 370.425 96.0137C373.86 96.1366 376.682 96.9972 379.013 98.5953C381.345 100.194 382.449 102.283 382.449 104.619C382.449 106.094 381.958 107.447 380.977 108.553C379.995 109.66 378.645 110.151 376.805 110.151C375.701 110.151 374.719 109.906 373.737 109.414C372.756 108.922 372.388 108.43 372.388 107.939C372.388 107.939 372.388 107.693 372.51 107.078C372.633 106.463 372.633 106.217 372.633 105.972C372.633 104.865 372.388 103.882 372.02 103.144C371.529 102.406 370.793 101.915 369.688 101.915C368.093 101.915 366.744 102.652 365.639 104.373C364.535 106.094 364.044 107.939 363.922 110.151C363.799 113.594 364.535 116.298 366.13 118.142C367.725 119.986 370.057 120.97 373.247 120.97C374.842 120.847 376.314 120.724 377.541 120.355Z" fill="#644F9A"/>
<path d="M411.283 100.931C413.246 102.161 414.841 103.513 415.823 105.234C416.927 106.955 417.663 108.799 418.031 110.889C418.4 112.979 418.399 115.192 418.154 117.405C417.541 122.199 415.577 126.01 412.387 128.715C409.197 131.419 404.903 132.526 399.627 131.788C394.596 131.051 390.915 128.961 388.461 125.273C386.007 121.707 385.148 117.528 385.762 112.856C386.375 108.184 388.461 104.373 391.774 101.546C395.087 98.7183 399.259 97.7348 404.289 98.4724C406.866 98.9642 409.197 99.7018 411.283 100.931ZM405.271 123.306C406.498 121.585 407.357 119.126 407.847 116.052C408.216 113.102 408.093 110.52 407.234 108.43C406.498 106.34 405.148 105.111 403.308 104.865C401.467 104.619 399.872 105.357 398.522 107.201C397.173 109.045 396.314 111.381 395.946 114.331C395.578 117.405 395.7 119.863 396.559 121.953C397.418 124.043 398.645 125.15 400.486 125.396C402.449 125.764 404.044 125.027 405.271 123.306Z" fill="#644F9A"/>
<path d="M447.847 129.33C448.338 131.051 448.215 132.649 447.602 134.247C446.497 137.32 444.289 139.287 440.976 140.148C437.663 141.009 433.982 140.64 429.688 139.042C425.761 137.566 423.062 135.476 421.712 132.649C420.363 129.821 420.363 126.502 421.958 122.568L425.639 112.856C426.007 111.75 426.252 110.889 426.375 110.028C426.498 109.291 426.375 108.676 426.252 108.307C426.129 107.939 426.007 107.57 425.884 107.324C425.761 106.955 425.761 106.709 425.761 106.586C425.884 106.34 426.129 106.094 426.498 105.726C426.866 105.357 427.479 105.234 428.338 105.111C429.197 104.988 430.056 104.865 431.16 104.865C432.264 104.865 433.614 105.111 435.209 105.48C436.804 105.849 438.522 106.34 440.362 107.078C444.534 108.676 447.602 110.52 449.565 112.856C451.528 115.069 451.896 117.528 450.914 120.109C450.546 120.97 450.178 121.707 449.687 122.322C449.197 122.937 448.583 123.429 448.092 123.674C447.602 123.92 446.988 124.166 446.497 124.412C446.006 124.535 445.638 124.658 445.27 124.781L444.78 124.904L444.657 125.15C446.375 126.256 447.356 127.608 447.847 129.33ZM435.945 133.018C437.05 132.403 437.786 131.419 438.277 130.19C438.645 129.33 438.767 128.469 438.89 127.608C438.89 126.748 438.89 126.133 438.767 125.764L438.645 125.15C437.295 125.15 436.313 124.904 435.7 124.412C435.086 123.92 434.841 123.552 434.718 123.06C434.596 122.691 434.718 122.199 434.841 121.707C435.086 120.97 435.577 120.601 436.436 120.478C437.172 120.355 438.031 120.601 439.013 121.216C439.872 120.601 440.485 119.495 441.099 118.142C441.467 117.036 441.467 116.052 440.976 115.192C440.485 114.331 439.626 113.594 438.399 113.102C437.663 112.856 437.05 112.61 436.313 112.61C432.878 121.585 430.915 126.502 430.669 127.486C429.81 130.436 430.547 132.403 432.755 133.264C433.859 133.632 434.964 133.509 435.945 133.018Z" fill="#644F9A"/>
<path d="M425.639 155.638L424.289 154.163C420.608 152.442 416.559 151.335 412.51 151.335H412.019C408.952 149.368 404.78 148.631 401.099 149.491C398.032 147.524 393.983 146.787 390.424 147.647C389.075 147.032 387.48 146.541 386.007 146.418C384.535 146.295 383.063 146.295 381.59 146.541C378.277 145.065 374.228 144.943 370.793 146.172C365.639 143.959 358.768 144.328 353.983 147.032C351.038 145.188 347.48 144.328 343.799 144.328C340.977 144.328 338.278 144.943 335.947 146.049C335.333 145.803 334.72 145.557 334.106 145.434C330.548 144.697 326.499 144.943 322.941 145.926H322.695C321.1 145.434 319.382 145.311 317.665 145.311C314.229 145.557 311.162 146.91 308.83 149.245L308.708 149.122C304.413 146.295 298.278 146.172 293.861 148.877C287.972 147.401 280.978 148.999 276.438 152.688C269.935 150.106 261.224 151.458 255.825 155.761C254.107 155.269 252.267 154.9 250.426 154.9C245.886 154.9 240.856 156.622 237.543 159.572C234.598 158.589 231.408 158.589 228.218 159.326C224.414 160.187 221.224 161.908 218.647 164.367C218.279 164.735 217.911 165.104 217.666 165.35C217.298 165.104 216.807 164.858 216.316 164.612L214.476 163.752C212.267 163.752 209.813 163.752 207.605 164.244C205.641 164.612 203.924 165.227 202.083 165.965C200.365 165.719 198.77 165.719 197.053 166.088C195.458 166.334 194.108 166.948 192.758 167.686C189.813 167.194 186.501 167.686 183.801 168.915C182.329 168.669 180.734 168.546 179.139 168.792C176.685 169.161 174.967 170.39 172.513 169.776C170.427 169.776 168.219 170.268 166.378 171.128C164.783 170.759 163.065 170.636 161.47 170.759C159.998 170.882 158.526 171.251 157.176 171.743C155.826 171.374 154.231 171.251 152.759 171.374C151.409 171.497 150.059 171.743 148.832 172.235C147.728 172.112 146.624 171.989 145.397 171.989C143.925 171.989 142.329 172.112 140.857 172.357C139.507 171.989 138.158 171.866 136.685 171.866C134.968 171.866 133.25 172.235 131.655 172.849C129.937 172.112 127.974 171.743 126.011 171.743C124.538 171.743 123.066 171.989 121.594 172.48C117.913 170.759 113.005 170.882 109.324 172.726C107.238 171.005 104.784 170.513 101.962 170.022C100.612 169.776 99.2625 169.653 97.9128 169.653C96.6859 169.038 95.3362 168.669 93.9865 168.423C92.2687 168.178 90.551 168.178 88.8332 168.423C87.3608 167.686 85.7658 166.948 83.9253 166.456C82.0848 165.965 80.3671 165.596 78.5266 165.596C77.1769 164.612 75.7045 163.875 73.9868 163.383C67.4838 161.17 58.8949 165.473 57.1772 171.866C56.6864 173.71 56.6864 175.677 57.1772 177.398C56.0729 181.209 55.5821 182.93 55.3367 183.668C53.2508 188.339 54.9686 193.994 59.5084 196.453C62.6986 198.174 66.6249 199.281 69.9377 199.526H70.1831C73.3733 201.862 77.6677 202.846 81.594 201.985C84.5388 204.075 88.5878 205.059 92.2687 204.567C94.2319 205.673 96.6859 206.288 99.0171 206.288C101.471 206.288 103.68 205.673 105.888 204.567C107.115 205.673 108.588 206.534 110.183 207.026C113.864 207.886 116.563 208.009 120.244 207.64C121.716 208.255 123.311 208.501 124.906 208.624C126.992 208.747 129.201 208.378 131.041 207.64C132.759 208.378 134.722 208.747 136.685 208.747C139.017 208.87 140.98 207.64 143.188 208.378C145.52 216.738 155.09 216.983 161.838 214.894C165.642 213.664 168.464 210.222 168.832 206.288C169.323 206.042 169.814 206.411 170.427 206.411C173.74 206.657 177.421 206.288 180.488 205.182C181.961 205.304 183.556 205.182 185.028 204.936C186.869 204.69 188.587 204.321 190.059 203.706C191.04 203.952 191.899 203.952 192.881 203.952C194.476 203.706 195.212 205.673 196.562 206.411C200.243 209.116 205.519 209.976 210.059 209.116C218.77 207.149 222.083 202.969 224.292 197.191C227.85 197.682 231.776 196.699 234.475 194.609C238.402 195.347 242.696 194.24 245.764 191.781C248.34 192.273 250.917 192.15 253.371 191.659C255.948 191.167 258.279 190.183 260.365 188.708C262.328 189.2 264.414 189.323 266.377 188.954C268.095 188.708 269.812 188.093 271.408 187.11C273.248 187.479 275.088 187.479 276.806 187.233C278.156 186.987 279.383 186.618 280.61 186.003C281.714 186.126 282.941 186.126 284.045 186.003C286.009 185.758 287.849 185.143 289.321 184.159C291.162 184.651 293.248 184.774 295.088 184.528C297.051 184.282 299.015 183.545 300.61 182.561C302.327 183.053 304.045 183.299 305.886 183.299C308.708 183.299 311.652 182.684 314.106 181.578C314.229 181.578 314.352 181.578 314.474 181.701H314.72C316.56 181.947 318.278 182.069 319.996 181.947C322.082 181.824 323.799 181.578 325.517 180.963C328.953 182.069 333.124 181.701 336.315 179.98C341.468 182.069 348.216 181.701 353.002 178.873C356.56 181.209 363.676 182.069 368.339 180.471C371.529 181.455 374.842 181.947 378.155 181.701C381.467 182.684 384.535 183.053 387.848 182.684C390.424 183.914 393.737 184.405 396.682 183.914C398.891 185.266 401.713 186.003 404.412 186.003C406.498 185.758 407.97 187.356 410.056 187.602C411.038 187.847 412.142 187.97 413.123 187.97C420.976 188.093 428.829 180.225 425.884 172.48C427.847 165.227 430.424 161.047 425.639 155.638Z" fill="#644F9A"/>
<path d="M75.7045 184.405L72.6371 183.545L70.7966 189.937C70.7966 190.06 70.6739 190.06 70.5512 190.06C69.6923 190.06 68.5881 189.814 67.3611 189.446C66.3795 189.2 65.3979 188.831 64.4163 188.216C64.2936 188.216 64.2936 188.093 64.2936 187.97C64.4163 187.725 65.3979 184.528 67.1157 178.504C67.3611 177.644 67.4838 177.029 67.3611 176.537C67.3611 176.046 67.1157 175.554 66.7476 175.185C66.6249 175.062 66.5022 174.816 66.6249 174.693C66.7476 174.201 67.2384 173.71 68.22 173.218C69.2016 172.726 70.1831 172.603 71.2874 172.972C72.3917 173.341 73.2506 173.956 73.7414 174.816C74.2322 175.677 74.3549 176.66 74.1095 177.89L73.496 180.225L76.5634 181.086L78.0358 175.677C78.0358 175.554 78.1585 175.554 78.1585 175.554C79.1401 175.677 80.2444 175.8 81.2259 176.046C82.3302 176.414 83.3118 176.783 84.1707 177.152C84.1707 177.152 84.2934 177.275 84.1707 177.275L81.4713 186.741C81.1032 188.216 81.2259 189.323 81.9621 190.183C82.0848 190.306 82.2075 190.552 82.0848 190.675C81.9621 191.167 81.4713 191.659 80.4898 192.15C79.5082 192.642 78.5266 192.765 77.4223 192.519C76.318 192.15 75.4591 191.536 74.9683 190.675C74.4776 189.814 74.3549 188.708 74.723 187.602L75.7045 184.405Z" fill="white"/>
<path d="M102.698 193.748C102.821 193.871 102.943 194.117 102.943 194.24C102.821 194.855 102.33 195.47 101.348 195.961C100.367 196.453 99.5079 196.699 98.4036 196.453C97.2993 196.33 96.4405 195.838 95.827 195.101C95.2135 194.363 94.9681 193.503 94.9681 192.519H94.8454C94.2319 193.503 93.4957 194.117 92.5141 194.609C91.5325 194.978 90.551 195.101 89.4467 194.978C87.6062 194.609 86.1338 193.625 85.3976 191.781C84.5388 190.06 84.2934 187.97 84.6615 185.758C85.0296 183.422 86.0111 181.578 87.3608 179.979C88.8332 178.504 90.4283 177.89 92.3914 178.135C93.4957 178.258 94.3546 178.75 95.0908 179.365C95.827 179.979 96.3178 180.717 96.5631 181.701H96.6859L97.2993 179.734C97.2993 179.611 97.422 179.611 97.5447 179.611C98.5263 179.611 99.5079 179.734 100.489 179.857C101.594 180.102 102.575 180.348 103.434 180.594C103.557 180.594 103.557 180.717 103.557 180.84C102.698 185.88 102.085 189.077 101.839 190.429C101.594 191.904 101.839 193.011 102.698 193.748ZM94.8454 190.306C95.3362 189.569 95.827 188.708 95.9497 187.479C96.0724 186.249 96.0724 185.266 95.827 184.405C95.5816 183.545 94.9681 183.053 94.2319 182.93C93.4957 182.807 92.8822 183.053 92.2687 183.791C91.6552 184.528 91.2871 185.512 91.1645 186.618C90.9191 187.847 91.0418 188.831 91.2871 189.692C91.5325 190.552 92.146 191.044 92.8822 191.167C93.6184 191.29 94.3546 190.921 94.8454 190.306Z" fill="white"/>
<path d="M129.814 196.207C129.814 196.822 129.446 197.437 128.587 198.051C127.851 198.666 126.87 198.912 125.52 198.912C124.661 198.912 123.925 198.666 123.311 198.297C122.698 197.928 122.207 197.437 121.839 196.822C121.471 196.207 121.225 195.592 120.98 194.978C120.857 194.363 120.612 193.626 120.489 192.765V192.396C120.489 192.15 120.489 192.027 120.489 192.027C120.489 192.027 120.489 191.904 120.367 191.659C120.367 191.536 120.244 191.413 120.121 191.29C119.998 191.29 119.998 191.167 119.753 191.167C119.63 191.044 119.508 191.044 119.262 191.044L118.894 197.682L119.017 197.928C117.667 198.051 116.686 198.174 115.949 198.051C114.968 198.051 113.864 197.805 112.759 197.559C112.637 197.559 112.637 197.437 112.637 197.437L113.127 187.233C113.25 186.003 112.882 185.02 112.023 184.405C111.778 184.282 111.778 184.159 111.778 183.913C111.778 183.422 112.268 182.807 113.005 182.192C113.741 181.455 114.722 181.209 115.949 181.209C117.176 181.209 118.035 181.701 118.771 182.438C119.508 183.176 119.753 184.159 119.753 185.266L119.63 188.093H120.612C120.857 186.003 121.471 184.405 122.452 183.299C123.557 182.192 124.784 181.578 126.256 181.701C127.36 181.701 128.096 182.069 128.71 182.684C129.201 183.299 129.446 184.036 129.446 184.897C129.446 185.635 129.201 186.126 128.71 186.741C128.219 187.233 127.851 187.479 127.606 187.479C127.606 187.479 127.36 187.356 126.992 187.11C126.624 186.864 126.133 186.741 125.765 186.741C125.274 186.741 124.784 186.864 124.416 187.233C124.047 187.602 123.679 187.97 123.557 188.339C124.17 188.462 124.784 188.831 125.152 189.2C125.643 189.569 126.011 190.06 126.256 190.675C126.501 191.29 126.747 191.781 126.992 192.396C127.238 193.011 127.606 193.503 127.974 194.117C128.342 194.732 128.833 195.101 129.323 195.47C129.569 195.715 129.814 195.961 129.814 196.207Z" fill="white"/>
<path d="M149.691 195.347C149.937 195.47 149.937 195.592 149.937 195.838C149.937 196.453 149.569 197.191 148.71 197.805C147.851 198.543 146.992 198.789 145.888 198.912C144.783 198.912 143.925 198.666 143.188 198.051C142.452 197.437 141.961 196.699 141.839 195.715H141.716C141.225 196.699 140.612 197.559 139.753 198.174C138.894 198.789 137.912 199.035 136.808 199.035C134.845 199.035 133.373 198.297 132.268 196.699C131.164 195.101 130.55 193.134 130.428 190.921C130.428 188.585 130.919 186.495 132.023 184.774C133.127 183.053 134.722 182.069 136.685 182.069C137.79 182.069 138.649 182.315 139.507 182.807C140.366 183.299 140.98 183.913 141.348 184.774H141.471L141.716 182.684C141.716 182.561 141.716 182.561 141.839 182.438C142.82 182.315 143.802 182.192 144.783 182.192C145.888 182.192 146.869 182.192 147.851 182.438C147.974 182.438 147.974 182.561 147.974 182.684C147.974 187.725 147.974 191.044 147.974 192.519C148.342 193.748 148.832 194.732 149.691 195.347ZM141.471 193.257C141.839 192.519 142.084 191.413 142.084 190.183C142.084 188.954 141.839 187.97 141.348 187.233C140.857 186.495 140.244 186.003 139.507 186.003C138.771 186.003 138.158 186.372 137.79 187.233C137.422 188.093 137.176 189.077 137.176 190.306C137.176 191.536 137.422 192.519 137.912 193.257C138.403 193.994 138.894 194.363 139.753 194.363C140.366 194.486 140.98 194.117 141.471 193.257Z" fill="white"/>
<path d="M157.299 183.791C157.421 184.036 157.421 184.282 157.544 184.405H157.667C157.912 183.299 158.526 182.561 159.384 181.824C160.243 181.086 161.225 180.84 162.329 180.717C164.292 180.594 165.887 181.209 167.114 182.684C168.341 184.159 168.955 186.003 169.2 188.462C169.323 190.798 168.955 192.888 167.851 194.732C166.746 196.576 165.151 197.559 163.188 197.682C161.225 197.805 159.753 197.068 158.648 195.224H158.526L159.262 205.305C159.262 205.427 159.262 205.427 159.139 205.55C158.28 205.796 157.176 206.042 155.949 206.165C155.09 206.288 154.108 206.165 153.004 206.042C152.881 206.042 152.881 205.919 152.881 205.919C152.881 205.796 152.513 199.772 151.654 188.216C151.532 187.356 151.409 186.741 151.286 186.249C151.041 185.758 150.673 185.512 150.305 185.143C150.059 185.02 149.937 184.897 149.937 184.651C149.937 184.159 150.182 183.545 150.918 182.684C151.654 181.824 152.513 181.455 153.74 181.332C155.335 181.332 156.685 182.069 157.299 183.791ZM158.157 186.495C157.789 187.356 157.667 188.339 157.789 189.569C157.912 190.798 158.157 191.781 158.648 192.519C159.139 193.257 159.753 193.626 160.489 193.503C161.225 193.503 161.838 193.011 162.206 192.15C162.575 191.29 162.697 190.306 162.575 189.077C162.452 187.847 162.206 186.864 161.716 186.126C161.225 185.389 160.611 185.02 159.875 185.02C159.139 185.266 158.526 185.635 158.157 186.495Z" fill="white"/>
<path d="M197.421 190.675C197.543 191.167 197.175 191.781 196.562 192.642C195.948 193.503 194.967 193.994 193.863 194.117C192.636 194.24 191.654 194.117 190.795 193.503C189.936 192.888 189.445 192.027 189.323 190.798L188.464 184.036C188.341 182.807 187.85 182.192 187.237 182.315C186.746 182.438 186.378 182.807 186.133 183.422C185.887 184.159 185.764 185.02 186.01 186.126L187.114 194.363C187.114 194.486 187.114 194.486 186.991 194.609C186.133 194.978 185.151 195.224 184.047 195.347C183.065 195.47 182.084 195.47 180.979 195.47C180.857 195.47 180.857 195.47 180.857 195.347L179.507 185.389C179.384 184.159 178.893 183.545 178.28 183.668C177.789 183.791 177.421 184.159 177.176 184.774C176.93 185.512 176.808 186.372 177.053 187.479L178.157 195.715C178.157 195.838 178.157 195.838 178.035 195.961C177.176 196.33 176.194 196.576 175.09 196.699C174.108 196.822 173.004 196.822 171.9 196.822C171.777 196.822 171.777 196.822 171.777 196.699C171.777 196.33 171.409 193.134 170.55 186.987C170.427 186.126 170.305 185.512 170.059 185.02C169.814 184.651 169.446 184.282 168.955 184.036C168.709 183.913 168.587 183.791 168.587 183.545C168.464 183.053 168.832 182.438 169.446 181.578C170.059 180.717 171.041 180.225 172.145 180.102C173.127 179.98 173.985 180.102 174.599 180.594C175.335 180.963 175.826 181.701 176.071 182.438C176.071 182.438 176.194 182.684 176.317 183.176H176.439C177.176 180.717 178.648 179.242 180.734 178.996C181.838 178.873 182.697 178.996 183.556 179.488C184.415 179.98 185.028 180.84 185.396 181.824H185.519C186.255 179.365 187.728 177.89 189.813 177.644C191.04 177.521 192.145 177.767 193.126 178.504C194.108 179.242 194.599 180.348 194.844 181.824C194.844 182.192 194.967 182.93 195.212 184.282C195.335 185.512 195.458 186.618 195.58 187.479C195.826 188.954 196.316 189.937 197.298 190.429C197.298 190.306 197.421 190.552 197.421 190.675Z" fill="white"/>
<path d="M215.457 189.077C215.948 191.781 215.58 193.994 214.476 195.961C213.249 197.805 211.286 199.035 208.586 199.526C207.359 199.772 206.255 199.772 205.273 199.526C204.169 199.281 203.31 198.912 202.697 198.543C201.961 198.051 201.47 197.559 201.102 197.068C200.734 196.576 200.488 195.961 200.366 195.47C200.243 195.101 200.366 194.978 200.611 194.855C200.734 194.855 201.102 194.978 201.592 195.224C202.083 195.47 202.697 195.715 203.556 195.961C204.415 196.207 205.273 196.207 206.378 195.961C207.605 195.715 208.464 195.224 209.077 194.24C209.691 193.38 209.936 192.396 209.691 191.413L209.077 188.093H208.954C208.341 190.429 206.869 191.781 204.415 192.273C203.188 192.519 201.961 192.273 201.102 191.659C200.12 191.044 199.507 189.937 199.261 188.339L198.157 182.807C197.912 181.455 197.298 180.594 196.316 180.102C196.071 179.98 195.948 179.857 195.948 179.611C195.826 179.119 196.071 178.381 196.685 177.521C197.298 176.66 198.157 176.046 199.261 175.8C200.488 175.554 201.47 175.8 202.329 176.291C203.188 176.783 203.801 177.767 204.046 178.996L205.273 185.635C205.396 186.249 205.519 186.741 205.887 186.987C206.132 187.233 206.5 187.356 206.746 187.356C207.237 187.233 207.605 186.864 207.973 186.126C208.218 185.389 208.341 184.528 208.095 183.422L206.5 175.185L206.623 174.939C207.605 174.57 208.586 174.201 209.691 174.079C210.672 173.833 211.654 173.833 212.758 173.833C212.881 173.833 212.881 173.956 212.881 173.956L215.457 189.077Z" fill="white"/>
<path d="M241.592 181.086C241.715 181.578 241.469 182.192 240.856 183.176C240.242 184.036 239.383 184.651 238.279 184.897C237.175 185.143 236.071 185.02 235.212 184.528C234.353 184.036 233.739 183.176 233.371 181.947L232.022 176.414C231.899 175.923 231.776 175.554 231.653 175.308C231.531 175.062 231.408 174.693 231.163 174.447C230.917 174.079 230.672 173.956 230.181 173.833C229.813 173.71 229.322 173.833 228.709 173.956C229.077 175.185 229.445 176.291 229.69 177.275C229.936 178.258 230.181 179.365 230.304 180.594C230.426 181.824 230.549 182.93 230.426 183.668C230.304 184.405 229.936 185.266 229.445 186.003C228.954 186.741 228.218 187.11 227.236 187.356C226.132 187.602 225.273 187.479 224.537 186.987C223.801 186.495 223.31 185.758 223.065 184.651C222.942 183.913 222.942 183.176 223.065 182.438C223.31 181.701 223.433 181.332 223.678 181.209C223.801 181.209 223.924 181.209 224.046 181.332C224.292 181.455 224.414 181.455 224.66 181.332C225.396 181.209 225.887 180.471 226.009 179.242C226.132 178.013 226.009 176.414 225.641 174.693C225.519 174.693 225.396 174.816 225.028 174.816C224.782 174.939 224.537 174.939 224.292 175.062C223.678 175.185 223.433 175.062 223.31 174.693C223.187 173.956 223.678 172.972 225.028 171.743C226.377 170.513 228.095 169.653 230.181 169.161C232.144 168.669 233.739 168.792 235.089 169.407C236.439 170.022 237.42 171.374 237.788 173.341C237.788 173.464 237.911 173.71 237.911 174.079C238.034 174.447 238.034 174.939 238.279 175.677C238.402 176.414 238.647 177.152 238.77 177.89C239.138 179.365 239.751 180.225 240.733 180.594C241.469 180.717 241.592 180.84 241.592 181.086Z" fill="white"/>
<path d="M254.966 166.211C256.929 167.44 258.156 169.284 258.647 171.743C259.138 174.201 258.77 176.414 257.42 178.381C256.07 180.348 254.23 181.578 251.653 182.069C249.077 182.561 246.868 182.192 244.905 180.963C242.942 179.734 241.715 177.89 241.224 175.308C240.733 172.849 241.101 170.636 242.451 168.669C243.801 166.825 245.641 165.596 248.218 164.981C250.794 164.612 253.003 164.981 254.966 166.211ZM252.512 173.095C252.144 171.62 251.776 170.39 251.162 169.653C250.549 168.792 249.813 168.546 248.954 168.669C247.236 169.038 246.745 170.882 247.481 174.201C247.727 175.677 248.218 176.783 248.831 177.644C249.445 178.504 250.181 178.75 251.04 178.627C252.757 178.258 253.248 176.414 252.512 173.095Z" fill="white"/>
<path d="M279.015 173.956C279.137 174.447 278.769 175.062 278.156 175.923C277.542 176.783 276.684 177.398 275.457 177.521C274.23 177.767 273.248 177.521 272.389 177.029C271.53 176.414 271.039 175.554 270.794 174.324L270.426 171.866C270.058 171.989 269.567 171.989 268.954 172.112C269.076 176.414 267.727 178.873 265.027 179.242C264.046 179.365 263.187 179.242 262.328 178.873C261.592 178.381 261.101 177.767 260.856 176.66C260.733 175.923 260.733 175.185 260.978 174.57C261.224 173.956 261.469 173.587 261.714 173.464C261.714 173.464 261.837 173.464 262.082 173.587C262.205 173.587 262.451 173.71 262.819 173.71C263.064 173.71 263.432 173.71 263.8 173.71C264.168 173.71 264.414 173.464 264.782 173.218C265.15 172.972 265.273 172.726 265.273 172.357C264.046 172.48 262.819 172.235 261.714 171.497C260.61 170.759 259.874 169.776 259.629 168.301C259.383 166.579 259.874 164.981 261.346 163.752C262.819 162.522 264.659 161.662 266.868 161.416C269.444 161.047 271.53 161.293 273.125 162.154C274.72 163.014 275.702 164.489 275.947 166.702L276.438 170.636C276.684 172.112 277.297 173.095 278.279 173.464C278.892 173.71 279.015 173.833 279.015 173.956ZM270.303 169.161L270.058 167.317C269.935 166.579 269.69 165.965 269.322 165.596C268.954 165.227 268.463 165.104 267.849 165.227C267.236 165.35 266.868 165.596 266.622 165.965C266.377 166.334 266.254 166.825 266.377 167.44C266.5 168.055 266.745 168.669 267.358 169.038C267.972 169.407 268.585 169.53 269.567 169.407L270.303 169.161Z" fill="white"/>
<path d="M297.91 171.251C298.033 171.743 297.665 172.357 297.051 173.218C296.438 174.079 295.456 174.57 294.352 174.693C293.125 174.816 292.143 174.693 291.285 174.079C290.426 173.464 289.935 172.603 289.689 171.374L288.953 165.719C288.953 165.227 288.831 164.858 288.708 164.612C288.585 164.367 288.462 163.998 288.34 163.752C288.094 163.383 287.849 163.26 287.481 163.137C287.113 163.014 286.622 163.014 286.009 163.137C286.254 164.489 286.499 165.596 286.622 166.579C286.745 167.563 286.867 168.669 286.867 169.899C286.867 171.128 286.867 172.234 286.622 172.972C286.377 173.833 286.009 174.57 285.518 175.185C284.904 175.8 284.168 176.168 283.186 176.291C282.082 176.414 281.223 176.168 280.487 175.677C279.751 175.062 279.383 174.324 279.137 173.218C279.015 172.48 279.137 171.743 279.383 171.005C279.628 170.268 279.874 169.899 280.119 169.899C280.242 169.899 280.364 169.899 280.487 170.022C280.61 170.145 280.855 170.145 281.101 170.145C281.837 170.022 282.45 169.407 282.696 168.178C282.941 166.948 282.941 165.473 282.696 163.506C282.573 163.506 282.45 163.506 282.082 163.629C281.837 163.629 281.591 163.752 281.346 163.752C280.733 163.875 280.487 163.629 280.364 163.26C280.242 162.522 280.978 161.662 282.45 160.555C283.923 159.449 285.64 158.711 287.849 158.466C289.812 158.22 291.407 158.466 292.757 159.203C294.107 159.941 294.843 161.416 295.088 163.383C295.088 163.506 295.088 163.752 295.211 164.121C295.211 164.489 295.334 164.981 295.334 165.719C295.456 166.456 295.456 167.194 295.579 167.932C295.824 169.407 296.315 170.39 297.297 170.882C297.788 171.005 297.91 171.128 297.91 171.251Z" fill="white"/>
<path d="M312.634 161.785C313.861 162.645 314.474 163.998 314.72 165.719C314.965 167.686 314.352 169.53 313.002 170.882C311.652 172.357 309.935 173.218 307.726 173.341C306.376 173.464 305.027 173.464 303.922 173.095C302.818 172.849 301.959 172.357 301.346 171.743C300.732 171.128 300.242 170.513 299.873 169.776C299.505 169.038 299.26 168.301 299.26 167.563L298.892 163.383C298.646 162.154 298.156 161.293 297.297 160.801C297.051 160.678 296.929 160.555 296.929 160.31C296.929 159.818 297.174 159.203 297.91 158.343C298.646 157.482 299.505 156.99 300.61 156.867C301.714 156.744 302.695 156.99 303.554 157.482C304.413 157.974 304.904 158.834 305.027 160.064L305.149 161.416C306.131 160.924 307.235 160.678 308.34 160.556C309.935 160.556 311.407 160.924 312.634 161.785ZM308.34 166.211C308.217 165.35 307.971 164.735 307.603 164.244C307.113 163.752 306.622 163.629 305.886 163.629C305.64 163.629 305.518 163.752 305.272 163.752L305.64 167.317C305.763 169.161 306.376 170.022 307.235 170.022C308.217 169.899 308.585 168.669 308.34 166.211Z" fill="white"/>
<path d="M326.131 164.612L322.941 164.858L323.309 171.497C323.309 171.62 323.309 171.62 323.186 171.743C322.327 171.989 321.223 172.234 319.996 172.234C319.014 172.234 317.91 172.234 316.806 172.112C316.683 172.112 316.683 171.989 316.683 171.989C316.806 171.62 316.56 168.423 316.192 162.154C316.192 161.293 316.07 160.678 315.824 160.187C315.579 159.695 315.333 159.326 314.843 159.08C314.597 158.957 314.597 158.834 314.474 158.589C314.474 158.097 314.843 157.482 315.456 156.744C316.07 156.007 317.051 155.515 318.278 155.392C319.505 155.269 320.487 155.638 321.223 156.253C321.959 156.867 322.45 157.851 322.572 158.957L322.695 161.416L325.885 161.17L325.517 155.515C325.517 155.392 325.517 155.392 325.64 155.392C326.622 155.146 327.603 154.9 328.707 154.9C329.934 154.777 330.916 154.9 331.898 155.023C332.02 155.023 332.02 155.146 332.02 155.146L332.634 164.858C332.756 166.334 333.247 167.317 334.106 167.932C334.351 168.055 334.351 168.178 334.474 168.423C334.474 168.915 334.106 169.53 333.493 170.39C332.756 171.251 331.898 171.62 330.671 171.743C329.444 171.866 328.462 171.497 327.726 170.882C326.99 170.268 326.499 169.284 326.499 168.055L326.131 164.612Z" fill="white"/>
<path d="M350.425 156.622C352.143 158.22 353.002 160.31 353.002 162.768C353.002 165.35 352.265 167.44 350.548 169.038C348.953 170.636 346.744 171.497 344.167 171.497C341.591 171.497 339.382 170.759 337.787 169.161C336.069 167.563 335.21 165.473 335.21 162.891C335.21 160.31 335.947 158.22 337.664 156.622C339.382 155.023 341.468 154.163 344.045 154.163C346.499 154.163 348.707 155.023 350.425 156.622ZM346.621 162.768C346.621 161.293 346.376 160.064 345.885 159.08C345.394 158.097 344.781 157.728 343.922 157.728C342.204 157.728 341.345 159.449 341.345 162.891C341.345 164.367 341.591 165.596 342.081 166.579C342.572 167.563 343.186 167.932 344.045 167.932C345.885 167.809 346.744 166.211 346.621 162.768Z" fill="white"/>
<path d="M369.443 162.031C368.83 162.768 367.971 163.014 366.866 163.014C366.253 163.014 365.639 162.768 365.149 162.522C364.658 162.154 364.412 161.908 364.412 161.539C364.412 161.416 364.412 161.17 364.535 160.678C364.658 160.31 364.658 159.941 364.658 159.695C364.658 158.466 364.29 157.728 363.431 157.728C362.695 157.728 362.204 158.097 361.713 158.957C361.222 159.818 360.977 160.801 360.854 162.031C360.854 163.383 361.1 164.612 361.836 165.596C362.572 166.579 363.799 167.071 365.394 167.194C366.253 167.194 367.234 167.071 368.216 166.702C369.198 166.334 369.811 166.211 369.934 166.211C370.179 166.211 370.302 166.334 370.302 166.702C370.302 167.686 369.566 168.669 368.093 169.899C366.621 171.128 364.903 171.62 362.817 171.62C359.995 171.497 357.909 170.636 356.437 169.038C354.965 167.44 354.229 165.35 354.351 162.891C354.474 160.556 355.333 158.466 357.051 156.99C358.768 155.392 360.977 154.655 363.676 154.777C365.639 154.9 367.234 155.392 368.461 156.376C369.688 157.359 370.302 158.589 370.302 159.941C370.425 160.556 370.057 161.416 369.443 162.031Z" fill="white"/>
<path d="M398.522 171.743C398.522 172.234 398.032 172.726 397.173 173.464C396.314 174.201 395.332 174.447 394.228 174.324C393.001 174.201 392.142 173.71 391.406 172.972C390.792 172.234 390.424 171.251 390.67 169.899L391.406 163.137C391.529 161.908 391.283 161.17 390.67 161.17C390.179 161.17 389.688 161.416 389.32 162.031C388.952 162.645 388.584 163.506 388.461 164.612L387.602 172.849C387.602 172.972 387.48 172.972 387.48 172.972C386.621 173.095 385.516 173.095 384.412 172.972C383.431 172.849 382.449 172.603 381.345 172.357C381.222 172.357 381.222 172.234 381.222 172.234L382.326 162.277C382.449 161.047 382.204 160.31 381.59 160.31C381.099 160.31 380.609 160.555 380.24 161.17C379.872 161.785 379.504 162.645 379.382 163.752L378.523 171.989C378.523 172.112 378.4 172.112 378.4 172.112C377.541 172.234 376.437 172.234 375.333 172.112C374.351 171.989 373.247 171.743 372.142 171.497C372.02 171.497 372.02 171.374 372.02 171.374C372.142 171.005 372.511 167.809 373.247 161.662C373.369 160.801 373.369 160.187 373.247 159.695C373.124 159.203 372.879 158.834 372.388 158.466C372.265 158.343 372.142 158.097 372.142 157.974C372.142 157.482 372.633 156.99 373.492 156.253C374.351 155.515 375.333 155.269 376.437 155.392C377.418 155.515 378.155 155.884 378.768 156.376C379.382 156.99 379.627 157.728 379.75 158.588C379.75 158.588 379.75 158.834 379.75 159.326H379.872C381.222 157.113 382.94 156.13 385.026 156.376C386.13 156.499 386.989 156.867 387.725 157.605C388.461 158.343 388.829 159.203 388.952 160.433H389.075C390.424 158.22 392.142 157.236 394.228 157.482C395.455 157.605 396.437 158.097 397.173 159.08C397.909 160.064 398.154 161.293 398.032 162.768C398.032 163.137 397.909 163.875 397.786 165.227C397.664 166.456 397.541 167.563 397.418 168.423C397.295 169.899 397.541 171.005 398.4 171.743C398.4 171.374 398.522 171.62 398.522 171.743Z" fill="white"/>
<path d="M416.559 172.235C416.191 173.71 416.436 174.816 417.05 175.431C417.173 175.554 417.295 175.8 417.173 175.923C417.05 176.414 416.559 176.906 415.7 177.521C414.841 178.135 413.737 178.258 412.633 178.013C411.651 177.767 410.915 177.398 410.424 176.783C409.933 176.168 409.688 175.431 409.688 174.447C409.688 174.324 409.688 174.079 409.688 173.71H409.565C408.706 174.816 407.847 175.554 406.743 175.923C405.639 176.291 404.657 176.291 403.676 176.046C402.449 175.8 401.467 175.185 400.854 174.201C400.24 173.218 400.117 171.989 400.363 170.513L401.59 164.858C401.835 163.506 401.59 162.4 400.854 161.662C400.731 161.539 400.608 161.293 400.731 161.047C400.854 160.556 401.344 160.064 402.203 159.449C403.062 158.834 404.167 158.711 405.271 158.957C406.375 159.203 407.357 159.818 407.97 160.556C408.584 161.293 408.706 162.4 408.461 163.629L406.989 170.268C406.866 170.882 406.866 171.374 406.989 171.743C407.111 172.112 407.357 172.357 407.725 172.357C408.216 172.48 408.706 172.234 409.32 171.743C409.933 171.251 410.301 170.39 410.547 169.284L412.265 161.17L412.387 161.047C413.492 161.047 414.473 161.17 415.577 161.416C416.559 161.662 417.541 161.908 418.522 162.4C418.522 162.4 418.645 162.523 418.522 162.645C418.522 162.645 417.909 165.842 416.559 172.235Z" fill="white"/>
<path d="M87.7289 22.1286C86.7473 22.6204 85.6431 23.358 84.7842 24.0956C84.6615 23.358 84.5388 22.7433 84.2934 22.1286C78.772 3.44223 62.944 15.9818 66.2568 29.7507C68.5881 38.971 75.3365 49.9123 75.3365 49.9123C75.3365 49.9123 75.9499 49.2977 77.0542 48.1912C80.7352 47.3307 89.6921 44.749 95.7043 40.938C107.851 33.5617 104.539 12.9084 87.7289 22.1286Z" fill="#644F9A"/>
<path d="M16.0734 127.731C16.0734 127.731 19.877 121.216 20.9813 115.806C22.5764 107.693 13.1287 100.685 10.1839 111.627C9.81582 113.102 9.69312 114.577 9.81582 115.929C9.32503 115.561 8.83424 115.315 8.34345 115.069C-1.34968 109.906 -2.45396 121.707 4.29442 125.887C8.83424 128.715 15.9507 130.19 15.9507 130.19C15.9507 130.19 16.0734 129.207 15.828 127.485C16.0734 127.608 16.0734 127.731 16.0734 127.731Z" fill="#644F9A"/>
<path d="M460.485 170.022C458.89 169.776 457.417 169.899 456.068 170.268C456.313 169.653 456.558 169.161 456.804 168.546C460.608 157.482 448.829 157.974 445.638 165.842C443.553 171.128 442.939 178.873 442.939 178.873C442.939 178.873 443.921 178.75 445.516 178.381C445.393 178.504 445.393 178.627 445.393 178.627C445.393 178.627 452.264 181.824 457.663 182.315C466.006 182.684 471.65 171.62 460.485 170.022Z" fill="#644F9A"/>
</svg>
