<svg width="292" height="167" viewBox="0 0 292 167" fill="none" xmlns="http://www.w3.org/2000/svg">
<g clip-path="url(#clip0)">
<path d="M83.4286 112.087H103.722C113.242 112.087 119.631 119.124 119.631 128.926C119.631 138.727 113.242 145.889 103.722 145.889H95.329V160.968H83.4286V112.087ZM101.217 135.711C105.35 135.711 107.48 132.947 107.48 129.051C107.48 125.156 105.476 122.517 101.467 122.517H95.4543V135.711H101.217Z" fill="white"/>
<path d="M129.903 149.282C131.156 150.413 133.035 151.795 135.29 151.795C137.169 151.795 138.547 150.916 139.173 149.282L120.257 112.087H133.411L141.553 129.679C143.181 133.198 144.184 136.214 144.184 136.214H144.309C144.309 136.214 145.06 133.198 146.188 129.679L152.201 111.962H164.728L150.322 148.654C148.067 154.434 144.309 161.722 135.665 161.722C131.406 161.722 127.899 160.466 124.517 158.078L129.903 149.282Z" fill="white"/>
<path d="M192.161 111.333C198.675 111.333 205.69 113.47 210.45 118.245L204.939 127.292C201.807 124.527 197.047 122.266 192.662 122.266C182.891 122.266 178.883 129.177 178.883 136.214C178.883 143.502 183.267 150.916 192.662 150.916C197.548 150.916 202.308 148.277 205.69 144.884L211.828 153.68C207.569 158.078 201.055 161.848 192.161 161.848C176.503 161.848 166.481 150.916 166.481 136.465C166.607 122.266 177.129 111.333 192.161 111.333Z" fill="white"/>
<path d="M217.967 112.087H229.867V127.292H238.26C247.78 127.292 254.169 134.454 254.169 144.256C254.169 154.183 247.78 161.094 238.26 161.094H217.967V112.087ZM236.005 150.79C240.014 150.79 242.018 148.151 242.018 144.256C242.018 140.36 240.014 137.596 235.755 137.596H229.867V150.79H236.005Z" fill="white"/>
<path d="M33.6971 111.71C33.9477 108.946 34.6993 106.181 36.0772 103.417C37.9562 99.7728 40.7121 96.6313 43.8438 94.3695C44.2197 94.1181 44.5955 94.1181 45.0965 94.2438C45.7229 94.4951 45.8481 95.2491 45.5976 95.8774C45.5976 96.003 45.4723 96.1287 45.3471 96.2543C43.5933 97.6366 42.2154 99.5215 41.2132 101.658C40.8374 102.537 40.4616 103.291 40.2111 104.171L40.0858 104.422L40.4616 104.296C43.9691 103.166 46.9756 100.652 48.7293 97.0083C50.1073 94.3695 50.6083 91.605 50.2325 88.8405C50.2325 88.5892 50.2325 88.3379 50.3578 88.2122C50.6083 87.5839 51.3599 87.4583 51.861 87.7096C52.1115 87.8352 52.2368 87.9609 52.3621 88.0865C54.3664 92.7359 54.4916 98.2649 52.1115 103.166C49.7314 107.941 45.5976 111.082 40.8374 112.339C40.5869 112.339 40.2111 112.464 39.9605 112.59C39.5847 112.716 39.3342 112.967 39.0837 113.344C39.0837 113.344 39.0837 113.47 38.9584 113.47C38.8331 113.847 38.8331 114.098 38.8331 114.349C38.8331 114.349 38.8331 115.103 39.0837 115.606C39.0837 115.731 39.0837 115.731 39.0837 115.857C39.0837 116.234 38.7079 116.611 38.332 116.611C38.2068 116.611 38.0815 116.611 37.9562 116.485L34.1982 113.847C33.9477 113.595 33.6971 113.218 33.6971 112.841C33.6971 112.716 33.6971 111.836 33.6971 111.71Z" fill="#EC680B"/>
<path d="M33.5719 123.899C33.0708 119.25 31.8181 114.6 29.5633 110.077C26.5568 103.919 21.7967 98.7675 16.6607 94.9977C16.0343 94.6208 15.2827 94.4951 14.6564 94.8721C13.6542 95.3747 13.2784 96.5056 13.7795 97.5109C13.9048 97.7622 14.03 97.8879 14.1553 98.0135C17.0365 100.401 19.4166 103.417 21.1703 106.935C21.9219 108.318 22.2977 109.7 22.7988 111.208L22.9241 111.71L22.423 111.585C16.5354 109.574 11.5247 105.427 8.51824 99.3958C6.26341 94.9977 5.5118 90.4741 6.01287 85.8247C6.01287 85.4477 6.01287 85.0707 5.88761 84.6938C5.38653 83.6885 4.25912 83.4372 3.38224 83.8141C3.00644 83.9398 2.7559 84.1911 2.63064 84.5681C-0.876872 92.2333 -1.00214 101.658 3.00644 109.825C6.88975 117.742 13.9048 123.02 21.7967 125.03C22.2977 125.156 22.7988 125.281 23.2999 125.407C23.8009 125.658 24.302 126.035 24.6778 126.664C24.6778 126.789 24.8031 126.789 24.8031 126.915C25.0536 127.292 25.0536 127.795 25.1789 128.172C25.1789 128.172 25.1789 129.428 24.8031 130.182C24.8031 130.308 24.6778 130.433 24.6778 130.559C24.6778 131.187 25.1789 131.816 25.9305 131.816C26.181 131.816 26.4316 131.69 26.5568 131.564L32.695 127.041C33.1961 126.538 33.4466 126.035 33.5719 125.281C33.6971 125.533 33.5719 124.15 33.5719 123.899Z" fill="#F7A400"/>
<path d="M20.0429 76.7773C19.7924 74.0128 19.0408 71.2483 17.6628 68.4838C15.7838 64.8397 13.0279 61.6983 9.89618 59.4364C9.52038 59.1851 9.14458 59.1851 8.6435 59.3108C8.01716 59.5621 7.89189 60.316 8.14243 60.9443C8.14243 61.07 8.2677 61.1956 8.39297 61.3213C10.1467 62.7035 11.5247 64.5884 12.5268 66.7246C12.9026 67.6042 13.2784 68.3582 13.529 69.2378L13.6542 69.6148L13.2784 69.4891C9.77092 68.3582 6.76448 65.845 5.01073 62.2009C3.75805 59.5621 3.25697 56.7976 3.63278 54.0331C3.63278 53.7818 3.63278 53.5305 3.50751 53.4048C3.25697 52.7765 2.50537 52.6509 2.00429 52.9022C1.75376 53.0278 1.62849 53.1535 1.50322 53.2792C-0.501069 57.9285 -0.626338 63.4575 1.75376 68.3582C4.13385 73.1332 8.2677 76.2747 13.0279 77.5312C13.2784 77.5312 13.6542 77.6569 13.9048 77.7826C14.2806 77.9082 14.5311 78.1595 14.7816 78.5365C14.7816 78.5365 14.7816 78.6622 14.9069 78.6622C15.0322 78.9135 15.0322 79.1648 15.1574 79.4161C15.1574 79.4161 15.1574 80.1701 14.9069 80.6727C14.9069 80.7984 14.9069 80.7984 14.9069 80.924C14.9069 81.301 15.2827 81.678 15.6585 81.678C15.7838 81.678 15.9091 81.678 16.0343 81.5523L19.7924 78.9135C20.0429 78.6622 20.2934 78.2852 20.2934 77.9082C20.1682 77.7826 20.0429 77.0286 20.0429 76.7773Z" fill="#EC680B"/>
<path d="M20.2934 88.9661C20.7945 84.3168 22.0472 79.6674 24.302 75.1437C27.3084 68.9865 31.9434 63.8345 37.2046 60.0647C37.831 59.6877 38.5826 59.5621 39.2089 59.9391C40.2111 60.4417 40.5869 61.5726 40.0858 62.5779C39.9605 62.8292 39.8353 62.9549 39.71 63.0805C36.8288 65.468 34.4487 68.4838 32.695 72.0023C31.9434 73.3845 31.5676 74.7667 31.0665 76.2746L30.9412 76.7773L31.4423 76.6516C37.3299 74.6411 42.3406 70.4944 45.3471 64.4628C47.6019 59.9391 48.3535 55.4154 47.7271 50.766C47.7271 50.389 47.7272 50.012 47.8524 49.6351C48.3535 48.6298 49.4809 48.3785 50.3578 48.7555C50.7336 48.8811 50.9841 49.1324 51.1094 49.5094C54.6169 57.1746 54.7422 66.5989 50.7336 74.7667C46.8503 82.6832 39.8353 87.9609 31.9434 90.0971C31.4423 90.2227 30.9412 90.3484 30.4402 90.474C29.9391 90.7254 29.438 91.1023 29.0622 91.7306C29.0622 91.8563 28.9369 91.8563 28.9369 91.9819C28.6864 92.3589 28.6864 92.8615 28.5611 93.2385C28.5611 93.2385 28.5611 94.4951 28.9369 95.2491C28.9369 95.3747 29.0622 95.5004 29.0622 95.626C29.0622 96.2543 28.5611 96.8826 27.8095 96.8826C27.559 96.8826 27.3085 96.757 27.1832 96.6313L21.045 92.1076C20.544 91.605 20.2934 91.1023 20.1682 90.3484C20.1682 90.5997 20.2934 89.3431 20.2934 88.9661Z" fill="#F7A400"/>
<path d="M20.0429 146.769C19.7924 144.005 19.0408 141.24 17.6628 138.476C15.7838 134.831 13.0279 131.69 9.89618 129.428C9.52038 129.177 9.14458 129.177 8.6435 129.302C8.01716 129.554 7.89189 130.308 8.14243 130.936C8.14243 131.062 8.2677 131.187 8.39297 131.313C10.1467 132.695 11.5247 134.58 12.5268 136.716C12.9026 137.596 13.2784 138.35 13.529 139.23L13.7795 139.481L13.4037 139.355C9.89618 138.224 6.88975 135.711 5.136 132.067C3.75805 129.428 3.25697 126.664 3.63278 123.899C3.63278 123.648 3.63278 123.397 3.50751 123.271C3.25697 122.643 2.50537 122.517 2.00429 122.768C1.75376 122.894 1.62849 123.02 1.50322 123.145C-0.501069 127.795 -0.626338 133.324 1.75376 138.224C4.13385 142.999 8.2677 146.141 13.0279 147.397C13.2784 147.397 13.6542 147.523 13.9048 147.649C14.2806 147.774 14.5311 148.026 14.7816 148.403C14.7816 148.403 14.7816 148.528 14.9069 148.528C15.0322 148.78 15.0322 149.031 15.1574 149.282C15.1574 149.282 15.1574 150.036 14.9069 150.539C14.9069 150.664 14.9069 150.664 14.9069 150.79C14.9069 151.167 15.2827 151.544 15.6585 151.544C15.7838 151.544 15.9091 151.544 16.0343 151.418L19.7924 148.78C20.0429 148.528 20.2934 148.151 20.2934 147.774C20.1682 147.649 20.0429 146.895 20.0429 146.769Z" fill="#EC680B"/>
<path d="M20.2934 158.958C20.7945 154.309 22.0472 149.659 24.302 145.135C27.3084 138.978 31.9434 133.826 37.2046 130.056C37.831 129.679 38.5826 129.554 39.2089 129.931C40.2111 130.433 40.5869 131.564 40.0858 132.57C39.9605 132.821 39.8353 132.947 39.71 133.072C36.8288 135.46 34.4487 138.476 32.695 141.994C31.9434 143.376 31.5676 144.758 31.0665 146.266L30.9412 146.769L31.4423 146.643C37.3299 144.633 42.3406 140.486 45.3471 134.454C47.6019 129.931 48.3535 125.407 47.7271 120.758C47.7271 120.381 47.7272 120.004 47.8524 119.627C48.3535 118.622 49.4809 118.37 50.3578 118.747C50.7336 118.873 50.9841 119.124 51.1094 119.501C54.6169 127.166 54.7422 136.591 50.7336 144.758C46.8503 152.675 39.8353 157.953 31.9434 159.963C31.4423 160.089 30.9412 160.214 30.4402 160.34C29.9391 160.591 29.438 160.968 29.0622 161.597C29.0622 161.722 28.9369 161.722 28.9369 161.848C28.6864 162.225 28.6864 162.728 28.5611 163.105C28.5611 163.105 28.5611 164.361 28.9369 165.115C28.9369 165.241 29.0622 165.366 29.0622 165.492C29.0622 166.12 28.5611 166.749 27.8095 166.749C27.559 166.749 27.3085 166.623 27.1832 166.497L21.045 161.974C20.544 161.471 20.2934 160.968 20.1682 160.214C20.1682 160.466 20.2934 159.209 20.2934 158.958Z" fill="#F7A400"/>
<path d="M12.5268 41.9699C12.5268 43.2265 11.3994 44.3574 10.1467 44.3574C8.89404 44.3574 7.76662 43.2265 7.76662 41.9699V2.38751C7.76662 1.13093 8.89404 0 10.1467 0C11.5247 0 12.5268 1.13093 12.5268 2.38751V41.9699Z" fill="#F8A906"/>
<path d="M43.9691 41.9699C43.9691 43.2265 42.967 44.3574 41.589 44.3574C40.2111 44.3574 39.2089 43.2265 39.2089 41.9699V2.38751C39.2089 1.13093 40.2111 0 41.589 0C42.967 0 43.9691 1.13093 43.9691 2.38751V41.9699Z" fill="#F8A906"/>
<path d="M28.1853 54.7871C28.1853 56.0436 27.0579 57.1746 25.8052 57.1746C24.4273 57.1746 23.4251 56.0436 23.4251 54.7871V2.38751C23.4251 1.13093 24.5526 0 25.8052 0C27.0579 0 28.1853 1.13093 28.1853 2.38751V54.7871Z" fill="#F8A906"/>
<path d="M91.8215 46.4936V44.4831H95.2038V46.4936C100.34 46.4936 103.722 49.6351 103.722 54.2844C103.722 58.9338 100.214 62.2009 95.2038 62.2009V64.5884H91.8215V62.2009C86.6855 62.2009 83.3033 58.9338 83.3033 54.2844C83.178 49.6351 86.6855 46.4936 91.8215 46.4936ZM91.8215 59.3108V49.3837C88.8151 49.3837 86.6855 51.3943 86.6855 54.2844C86.6855 57.3002 88.8151 59.3108 91.8215 59.3108ZM100.34 54.2844C100.34 51.3943 98.2102 49.3837 95.2038 49.3837V59.3108C98.2102 59.3108 100.34 57.3002 100.34 54.2844Z" fill="white"/>
<path d="M112.867 50.389C117 50.389 120.257 53.2792 120.257 57.4259C120.257 61.5726 117 64.4627 112.867 64.4627C108.733 64.4627 105.476 61.5726 105.476 57.4259C105.601 53.4048 108.858 50.389 112.867 50.389ZM112.992 61.6983C115.121 61.6983 117 60.0647 117 57.5515C117 55.0384 115.247 53.4048 112.992 53.4048C110.737 53.4048 108.983 55.0384 108.983 57.5515C108.983 59.939 110.737 61.6983 112.992 61.6983Z" fill="white"/>
<path d="M123.013 50.766H126.396V55.918H132.158V50.766H135.54V64.2114H132.158V58.8081H126.396V64.2114H123.013V50.766Z" fill="white"/>
<path d="M139.298 61.5726C140.801 59.4364 141.052 55.918 141.052 53.6561V50.8916H150.948V61.5726H152.827V67.4785H149.821V64.3371H140.676V67.4785H137.544V61.5726H139.298ZM147.566 61.5726V53.5305H144.184V54.0331C144.184 56.0436 143.933 59.1851 142.555 61.4469H147.566V61.5726Z" fill="white"/>
<path d="M84.1802 77.1542H96.4565V90.5997H93.0742V80.0444H87.5624V90.5997H84.1802V77.1542Z" fill="white"/>
<path d="M99.964 77.1542H102.97V78.1595C102.97 78.6621 102.97 79.1648 102.97 79.1648C103.847 77.6569 105.476 76.9029 107.23 76.9029C110.862 76.9029 113.117 79.7931 113.117 83.9398C113.117 88.2122 110.486 90.9767 106.979 90.9767C105.476 90.9767 104.098 90.3484 103.096 89.0918C103.096 89.0918 103.221 89.5944 103.221 90.2227V95.8773H99.8387V77.1542H99.964ZM106.603 88.0865C108.482 88.0865 109.985 86.5786 109.985 83.9398C109.985 81.4266 108.607 79.6674 106.728 79.6674C104.975 79.6674 103.346 80.924 103.346 83.9398C103.221 86.076 104.348 88.0865 106.603 88.0865Z" fill="white"/>
<path d="M122.637 76.7773C126.771 76.7773 130.028 79.6674 130.028 83.8141C130.028 87.9609 126.771 90.851 122.637 90.851C118.504 90.851 115.247 87.9609 115.247 83.9398C115.247 79.7931 118.629 76.7773 122.637 76.7773ZM122.637 88.0865C124.767 88.0865 126.646 86.453 126.646 83.9398C126.646 81.4266 124.892 79.7931 122.637 79.7931C120.508 79.7931 118.629 81.5523 118.629 83.9398C118.754 86.3273 120.508 88.0865 122.637 88.0865Z" fill="white"/>
<path d="M132.659 87.9609C134.162 85.8247 134.413 82.3062 134.413 80.0444V77.2799H144.309V87.9609H146.188V93.8668H143.181V90.7253H134.037V93.8668H130.905V87.9609H132.659ZM141.052 87.9609V79.9187H137.67V80.4214C137.67 82.4319 137.419 85.5734 136.041 87.8352H141.052V87.9609Z" fill="white"/>
<path d="M155.082 76.7773C159.216 76.7773 162.473 79.6674 162.473 83.8141C162.473 87.9609 159.216 90.851 155.082 90.851C150.948 90.851 147.691 87.9609 147.691 83.8141C147.691 79.7931 150.948 76.7773 155.082 76.7773ZM155.082 88.0865C157.211 88.0865 159.09 86.453 159.09 83.9398C159.09 81.4266 157.337 79.7931 155.082 79.7931C152.952 79.7931 151.073 81.5523 151.073 83.9398C151.073 86.3273 152.952 88.0865 155.082 88.0865Z" fill="white"/>
<path d="M165.229 77.1542H171.492C174.248 77.1542 176.002 78.4108 176.002 80.6727C176.002 81.9293 175.375 83.0602 174.248 83.6885C175.876 84.0655 176.628 85.4477 176.628 86.8299C176.628 89.4688 174.498 90.7253 171.617 90.7253H165.229V77.1542ZM170.74 82.6832C171.993 82.6832 172.619 81.9293 172.619 80.924C172.619 79.9187 171.993 79.2904 170.74 79.2904H168.611V82.6832H170.74ZM170.991 88.3378C172.494 88.3378 173.246 87.5839 173.246 86.5786C173.246 85.4477 172.494 84.8194 170.991 84.8194H168.486V88.4635H170.991V88.3378Z" fill="white"/>
<path d="M185.898 76.7773C190.032 76.7773 193.289 79.6674 193.289 83.8141C193.289 87.9609 190.032 90.851 185.898 90.851C181.764 90.851 178.507 87.9609 178.507 83.8141C178.507 79.7931 181.889 76.7773 185.898 76.7773ZM185.898 88.0865C188.027 88.0865 189.906 86.453 189.906 83.9398C189.906 81.4266 188.153 79.7931 185.898 79.7931C183.768 79.7931 181.889 81.5523 181.889 83.9398C181.889 86.3273 183.768 88.0865 185.898 88.0865Z" fill="white"/>
<path d="M194.416 87.8352C196.045 87.5839 197.172 86.2017 197.172 81.4266V77.1542H206.943V90.5997H203.561V79.9187H200.429V81.4266C200.429 87.3326 198.926 90.5997 194.416 90.851V87.8352Z" fill="white"/>
<path d="M210.576 77.1542H213.958V81.8036H216.463C219.595 81.8036 221.474 83.3115 221.474 86.2016C221.474 88.8405 219.971 90.5997 216.338 90.5997H210.576V77.1542ZM215.837 88.3378C217.34 88.3378 218.092 87.4582 218.092 86.2016C218.092 84.9451 217.34 84.0655 215.837 84.0655H213.958V88.3378H215.837Z" fill="white"/>
<path d="M230.368 76.7773C232.122 76.7773 234.251 77.4056 235.504 78.7878L234.001 81.0497C233.124 80.17 231.871 79.5418 230.493 79.5418C227.988 79.5418 226.359 81.4266 226.359 83.6885C226.359 85.9503 227.988 87.9609 230.493 87.9609C231.871 87.9609 233.5 87.2069 234.502 86.2016L235.755 88.5892C234.502 89.9714 232.372 90.7253 230.243 90.7253C225.858 90.7253 222.977 87.5839 222.977 83.6885C223.103 80.0444 225.984 76.7773 230.368 76.7773Z" fill="white"/>
<path d="M241.517 80.0444H237.133V77.1542H249.284V80.0444H244.899V90.5997H241.642V80.0444H241.517Z" fill="white"/>
<path d="M251.538 77.1542H257.802C260.558 77.1542 262.311 78.4108 262.311 80.6727C262.311 81.9293 261.685 83.0602 260.558 83.6885C262.186 84.0655 262.938 85.4477 262.938 86.8299C262.938 89.4688 260.808 90.7253 257.927 90.7253H251.538V77.1542ZM257.05 82.6832C258.303 82.6832 258.929 81.9293 258.929 80.924C258.929 79.9187 258.303 79.2904 257.05 79.2904H254.921V82.6832H257.05ZM257.301 88.3378C258.804 88.3378 259.556 87.5839 259.556 86.5786C259.556 85.4477 258.804 84.8194 257.301 84.8194H254.795V88.4635H257.301V88.3378Z" fill="white"/>
<path d="M265.694 77.1542H268.825V84.3168C268.825 84.9451 268.825 85.699 268.7 85.9503C268.825 85.5734 269.326 84.8194 269.702 84.3168L274.713 77.1542H277.97V90.5997H274.838V83.4372C274.838 82.9345 274.838 82.1806 274.964 81.8036C274.838 82.1806 274.337 82.9345 273.961 83.4372L268.951 90.5997H265.694V77.1542Z" fill="white"/>
<path d="M283.231 86.3273C283.607 85.8247 283.858 85.4477 283.858 85.4477C282.354 84.9451 281.102 83.4372 281.102 81.4266C281.102 78.6622 282.981 77.0286 285.862 77.0286H291.875V90.474H288.492V85.9503H286.864L283.858 90.474H280.225L283.231 86.3273ZM288.618 83.6885V79.2904H286.864C285.361 79.2904 284.484 79.9187 284.484 81.4266C284.484 82.9345 285.486 83.6885 286.864 83.6885H288.618Z" fill="white"/>
</g>
<defs>
<clipPath id="clip0">
<rect width="292" height="167" fill="white"/>
</clipPath>
</defs>
</svg>
