<svg width="521" height="341" viewBox="0 0 521 341" fill="none" xmlns="http://www.w3.org/2000/svg">
<path fill-rule="evenodd" clip-rule="evenodd" d="M492.717 112.641C492.717 112.641 490.73 93.6493 505.342 85.6433C522.56 76.2106 525.842 97.2278 513.695 104.793C505.497 109.9 492.717 112.641 492.717 112.641Z" fill="white"/>
<path fill-rule="evenodd" clip-rule="evenodd" d="M492.823 113.976C492.823 113.976 506.694 101.766 501.862 85.6497C496.176 66.6627 480.069 79.3981 483.484 93.4494C485.66 100.687 488.802 107.593 492.823 113.976Z" fill="white"/>
<g clip-path="url(#clip0)">
<path fill-rule="evenodd" clip-rule="evenodd" d="M31.113 280.599C31.113 280.599 15.885 276.537 14.0155 262.913C11.8136 246.859 28.9852 250.519 31.2407 262.113C32.764 269.938 31.113 280.599 31.113 280.599Z" fill="white"/>
<path fill-rule="evenodd" clip-rule="evenodd" d="M32.1739 280.91C32.1739 280.91 26.845 266.619 12.9957 265.598C-3.3186 264.39 1.7569 280.56 13.5969 282.065C19.8183 282.519 26.0679 282.13 32.1739 280.91Z" fill="white"/>
</g>
<path fill-rule="evenodd" clip-rule="evenodd" d="M428.247 67.8827C428.247 67.8827 442.3 71.7368 450.828 61.5742C460.879 49.6055 445.511 44.5053 437.731 52.8405C433.903 57.4083 430.713 62.4688 428.247 67.8827Z" fill="white"/>
<path fill-rule="evenodd" clip-rule="evenodd" d="M500.226 123.759C500.226 123.759 508.207 129.329 515.848 124.842C524.851 119.559 516.322 112.911 509.56 116.415C506.129 118.433 502.989 120.904 500.226 123.759Z" fill="white"/>
<rect x="173" width="182" height="53" rx="26.5" fill="white"/>
<path d="M307.017 32.2412H301.125V33.8777H303.223V38.8126H304.932V33.8777H307.017V32.2412Z" fill="#5FAF2D"/>
<path d="M225.577 35.5271C225.577 33.571 227.066 32.0624 229.086 32.0624C230.394 32.0624 231.52 32.74 232.064 33.7628L230.588 34.6193C230.316 34.0824 229.746 33.7372 229.073 33.7372C228.05 33.7372 227.286 34.4915 227.286 35.5399C227.286 36.5754 228.05 37.3297 229.073 37.3297C229.759 37.3297 230.342 36.9973 230.601 36.4604L232.09 37.3042C231.52 38.327 230.394 39.0046 229.086 39.0046C227.066 38.9918 225.577 37.4832 225.577 35.5271Z" fill="#5FAF2D"/>
<path d="M239.225 32.2413L236.803 38.8127C236.117 40.7049 234.887 41.5359 233.294 41.4336V39.8611C234.201 39.8739 234.68 39.5543 234.991 38.736L232.31 32.2541H234.136L235.923 36.6649L237.399 32.2541H239.225V32.2413Z" fill="#5FAF2D"/>
<path d="M246.112 38.8126H244.39V33.8265H241.748V38.8126H240.026V32.2412H246.112V38.8126Z" fill="#5FAF2D"/>
<path d="M250.734 37.4577C251.394 37.4577 251.925 37.1765 252.223 36.8057L253.609 37.5984C252.987 38.4933 251.99 39.0047 250.708 39.0047C248.468 39.0047 247.07 37.4961 247.07 35.54C247.07 33.5839 248.494 32.0753 250.579 32.0753C252.547 32.0753 253.945 33.6095 253.945 35.54C253.945 35.7957 253.919 36.013 253.881 36.2304H248.869C249.103 37.087 249.828 37.4577 250.734 37.4577ZM252.223 34.9136C252.016 33.9675 251.291 33.5839 250.579 33.5839C249.659 33.5839 249.038 34.0698 248.831 34.9136H252.223Z" fill="#5FAF2D"/>
<path d="M261.986 35.5271C261.986 37.4832 260.523 38.9918 258.736 38.9918C257.765 38.9918 257.065 38.6338 256.586 38.0329V41.4337H254.877V32.2414H256.586V33.0212C257.065 32.4204 257.777 32.0624 258.736 32.0624C260.523 32.0624 261.986 33.571 261.986 35.5271ZM260.277 35.5271C260.277 34.4276 259.487 33.6733 258.425 33.6733C257.376 33.6733 256.586 34.4276 256.586 35.5271C256.586 36.6266 257.376 37.3809 258.425 37.3809C259.487 37.3809 260.277 36.6266 260.277 35.5271Z" fill="#5FAF2D"/>
<path d="M269.845 38.8126H268.187V34.9772L266.491 37.5981H266.284L264.575 34.9516V38.8126H262.93V32.2412H264.613L266.387 35.0027L268.161 32.2412H269.845V38.8126Z" fill="#5FAF2D"/>
<path d="M277.924 32.2414V38.8128H276.202V38.0329C275.723 38.621 275.011 38.9918 274.04 38.9918C272.266 38.9918 270.803 37.4832 270.803 35.5271C270.803 33.571 272.266 32.0624 274.04 32.0624C275.011 32.0624 275.723 32.4331 276.202 33.0212V32.2414H277.924ZM276.202 35.5271C276.202 34.4276 275.412 33.6733 274.351 33.6733C273.302 33.6733 272.512 34.4276 272.512 35.5271C272.512 36.6266 273.302 37.3809 274.351 37.3809C275.412 37.3809 276.202 36.6266 276.202 35.5271Z" fill="#5FAF2D"/>
<path d="M286.327 35.5271C286.327 37.4832 284.864 38.9918 283.077 38.9918C282.106 38.9918 281.407 38.6338 280.928 38.0329V41.4337H279.219V32.2414H280.928V33.0212C281.407 32.4204 282.119 32.0624 283.077 32.0624C284.864 32.0624 286.327 33.571 286.327 35.5271ZM284.605 35.5271C284.605 34.4276 283.815 33.6733 282.754 33.6733C281.705 33.6733 280.915 34.4276 280.915 35.5271C280.915 36.6266 281.705 37.3809 282.754 37.3809C283.815 37.3809 284.605 36.6266 284.605 35.5271Z" fill="#5FAF2D"/>
<path d="M297.384 37.4577C298.044 37.4577 298.575 37.1765 298.873 36.8057L300.259 37.5984C299.637 38.4933 298.64 39.0047 297.358 39.0047C295.118 39.0047 293.719 37.4961 293.719 35.54C293.719 33.5839 295.144 32.0753 297.229 32.0753C299.197 32.0753 300.595 33.6095 300.595 35.54C300.595 35.7957 300.569 36.013 300.53 36.2304H295.519C295.739 37.087 296.478 37.4577 297.384 37.4577ZM298.873 34.9136C298.666 33.9675 297.941 33.5839 297.229 33.5839C296.309 33.5839 295.688 34.0698 295.48 34.9136H298.873Z" fill="#5FAF2D"/>
<path d="M291.622 38.8126H293.616L291.066 35.4886L293.539 32.2412H291.493L289.564 34.9132H288.981V32.2412H287.272V38.8126H288.981V36.2173H289.693L291.622 38.8126Z" fill="#5FAF2D"/>
<path d="M317.893 16.6061H309.982V18.7923H312.778V25.4276H315.083V18.7923H317.893V16.6061Z" fill="#005A28"/>
<path d="M241.618 23.6116C242.512 23.6116 243.224 23.2408 243.625 22.7294L245.49 23.7906C244.648 24.9924 243.315 25.6827 241.593 25.6827C238.589 25.6827 236.698 23.6499 236.698 21.029C236.698 18.3954 238.615 16.3754 241.411 16.3754C244.053 16.3754 245.93 18.4465 245.93 21.029C245.93 21.3615 245.891 21.6683 245.839 21.9623H239.107C239.417 23.113 240.401 23.6116 241.618 23.6116ZM243.625 20.1852C243.34 18.9196 242.369 18.4082 241.411 18.4082C240.181 18.4082 239.34 19.0602 239.068 20.1852H243.625Z" fill="#005A28"/>
<path d="M257.104 21.0167C257.104 23.6504 255.136 25.6704 252.741 25.6704C251.433 25.6704 250.488 25.1973 249.841 24.3791V28.9433H247.536V16.6059H249.841V17.6415C250.488 16.8233 251.433 16.3502 252.741 16.3502C255.136 16.363 257.104 18.383 257.104 21.0167ZM254.8 21.0167C254.8 19.5336 253.738 18.5236 252.314 18.5236C250.902 18.5236 249.854 19.5336 249.854 21.0167C249.854 22.4997 250.902 23.5097 252.314 23.5097C253.738 23.5097 254.8 22.4997 254.8 21.0167Z" fill="#005A28"/>
<path d="M263.202 23.6116C264.095 23.6116 264.808 23.2408 265.209 22.7294L267.073 23.7906C266.232 24.9924 264.898 25.6827 263.176 25.6827C260.172 25.6827 258.282 23.6499 258.282 21.029C258.282 18.3954 260.198 16.3754 262.995 16.3754C265.636 16.3754 267.514 18.4465 267.514 21.029C267.514 21.3615 267.475 21.6683 267.423 21.9623H260.69C261.001 23.113 261.985 23.6116 263.202 23.6116ZM265.196 20.1852C264.911 18.9196 263.94 18.4082 262.982 18.4082C261.752 18.4082 260.91 19.0602 260.638 20.1852H265.196Z" fill="#005A28"/>
<path d="M288.722 21.0167C288.722 23.6504 286.754 25.6704 284.359 25.6704C283.051 25.6704 282.106 25.1973 281.458 24.3791V28.9433H279.154V16.6059H281.458V17.6415C282.106 16.8233 283.051 16.3502 284.359 16.3502C286.754 16.363 288.722 18.383 288.722 21.0167ZM286.417 21.0167C286.417 19.5336 285.356 18.5236 283.931 18.5236C282.52 18.5236 281.471 19.5336 281.471 21.0167C281.471 22.4997 282.52 23.5097 283.931 23.5097C285.356 23.5097 286.417 22.4997 286.417 21.0167Z" fill="#005A28"/>
<path d="M294.82 23.6123C295.714 23.6123 296.426 23.2415 296.827 22.7301L298.692 23.7912C297.85 24.993 296.516 25.6834 294.794 25.6834C291.791 25.6834 289.9 23.6506 289.9 21.0297C289.9 18.396 291.816 16.376 294.613 16.376C297.254 16.376 299.132 18.4472 299.132 21.0297C299.132 21.3621 299.093 21.669 299.041 21.963H292.308C292.619 23.1136 293.603 23.6123 294.82 23.6123ZM291.583 14.4839C291.583 13.8319 292.14 13.2821 292.8 13.2821C293.461 13.2821 293.992 13.8319 293.992 14.4839C293.992 15.1359 293.461 15.6729 292.8 15.6729C292.14 15.6729 291.583 15.1359 291.583 14.4839ZM296.814 20.1859C296.529 18.9202 295.558 18.4088 294.6 18.4088C293.37 18.4088 292.529 19.0609 292.257 20.1859H296.814ZM294.976 14.4839C294.976 13.8319 295.532 13.2821 296.193 13.2821C296.853 13.2821 297.397 13.8319 297.397 14.4839C297.397 15.1359 296.866 15.6729 296.193 15.6729C295.532 15.6729 294.976 15.1359 294.976 14.4839Z" fill="#005A28"/>
<path d="M300.206 21.0167C300.206 18.383 302.213 16.363 304.919 16.363C306.667 16.363 308.195 17.2835 308.92 18.6387L306.939 19.7894C306.576 19.0606 305.813 18.6132 304.906 18.6132C303.534 18.6132 302.511 19.6232 302.511 21.0295C302.511 22.4231 303.534 23.4331 304.906 23.4331C305.838 23.4331 306.602 22.9856 306.965 22.2696L308.972 23.3947C308.208 24.7755 306.68 25.6832 304.932 25.6832C302.2 25.6704 300.206 23.6504 300.206 21.0167Z" fill="#005A28"/>
<path d="M318.644 21.0167C318.644 18.383 320.728 16.363 323.357 16.363C325.985 16.363 328.095 18.3958 328.095 21.0167C328.095 23.6504 325.985 25.6704 323.357 25.6704C320.741 25.6704 318.644 23.6504 318.644 21.0167ZM325.791 21.0167C325.791 19.5848 324.742 18.5876 323.357 18.5876C321.997 18.5876 320.948 19.5976 320.948 21.0167C320.948 22.4486 321.997 23.4586 323.357 23.4586C324.742 23.4586 325.791 22.4486 325.791 21.0167Z" fill="#005A28"/>
<path d="M274.971 25.4276H277.652L274.22 20.9657L277.535 16.6061H274.79L272.214 20.1858H271.424V16.6061H269.119V25.4276H271.424V21.9501H272.382L274.971 25.4276Z" fill="#005A28"/>
<path d="M335.139 16.6061L332.562 20.1858H331.772V16.6061H329.468V25.4276H331.772V21.9501H332.743L335.32 25.4276H338L334.582 20.9657L337.896 16.6061H335.139Z" fill="#005A28"/>
<path d="M235.171 25.4277H232.711V15.5706H228.296V25.4277H225.823V13.2821H235.171V25.4277Z" fill="#005A28"/>
<path d="M207.968 21.5916L204.032 25.4782L200.096 21.5916C197.921 19.4438 197.921 15.9663 200.096 13.8312C202.271 11.6834 205.793 11.6834 207.968 13.8312C210.143 15.9791 210.143 19.4566 207.968 21.5916Z" fill="#5FAF2D"/>
<path d="M200.096 32.51L204.032 28.6234L207.968 32.51C210.143 34.6579 210.143 38.1353 207.968 40.2832C205.793 42.431 202.271 42.431 200.109 40.2832C197.934 38.1353 197.934 34.6579 200.096 32.51Z" fill="#005A28"/>
<path d="M209.561 30.9377L205.625 27.0511L209.561 23.1645C211.736 21.0166 215.258 21.0166 217.433 23.1645C219.608 25.3123 219.608 28.7898 217.433 30.9377C215.258 33.0855 211.736 33.0855 209.561 30.9377Z" fill="#1E8737"/>
<path d="M198.504 23.164L202.44 27.0506L198.504 30.9372C196.328 33.0851 192.807 33.0851 190.631 30.9372C188.456 28.7894 188.456 25.3119 190.631 23.164C192.82 21.029 196.341 21.029 198.504 23.164Z" fill="#AAE641"/>
<g filter="url(#filter0_d)">
<path d="M59.1 151.2H81.9C93.1 151.2 102.4 145.1 102.4 133.2C102.4 126.1 98.6 119.9 91.9 117.9V117.7C96.8 115.2 99.8 110.3 99.8 104.1C99.8 93.9 92.2 88 81.4 88H59.1V151.2ZM68 114.6V95.7H81.2C87.2 95.7 90.7 99.5 90.7 105C90.7 110.5 87.1 114.6 81.3 114.6H68ZM68 143.5V121.9H82.3C89 121.9 93.2 126.3 93.2 132.6C93.2 139.1 89.1 143.4 82.3 143.4H68V143.5Z" fill="white"/>
<path d="M165.6 151.2H174.4V88H165.6V151.2ZM115.3 151.2H137.7C148.8 151.2 156.6 143.4 156.6 131.7C156.6 119.1 148.4 111.8 137.2 111.8H124.2V88H115.3V151.2ZM124.2 143.5V119.5H136.1C143.1 119.5 147.6 124.2 147.6 131.7C147.6 139 143.4 143.5 136.3 143.5H124.2Z" fill="white"/>
<path d="M191.3 151.2H200L228.4 110.2C230.7 106.7 233.7 101 233.7 101H233.9C233.9 101 233.4 106.6 233.4 110.2V151.2H242.2V88H233.5L205.3 128.9C203 132.3 199.9 138.2 199.9 138.2H199.7C199.7 138.2 200.2 132.6 200.2 129V88H191.3V151.2Z" fill="white"/>
<path d="M259 151.2H267.9V95.7H294V88H259V151.2Z" fill="white"/>
<path d="M303.6 151.2H312.5V127.9H326.9C338.5 127.9 346.8 119.8 346.8 107.8C346.8 95.8 338.5 88 326.9 88H303.6V151.2ZM312.5 120.2V95.7H325.6C333.1 95.7 337.8 100.3 337.8 107.8C337.8 115.4 333 120.2 325.5 120.2H312.5Z" fill="white"/>
<path d="M347.5 151.2H356.6L363 133H387L393.4 151.2H402.6L379.8 88H370.3L347.5 151.2ZM365.4 125.7L372.5 105.7C373.6 102.4 374.9 96.7 374.9 96.7H375.1C375.1 96.7 376.5 102.4 377.6 105.7L384.6 125.7H365.4Z" fill="white"/>
<path d="M61.547 207.457C61.547 207.633 61.6063 207.751 61.784 207.751C63.7979 208.161 65.8119 208.337 67.7074 208.337C69.8398 208.337 71.7352 208.161 73.3938 207.751C73.5715 207.751 73.69 207.633 73.69 207.399V191.915C73.69 189.921 74.1046 188.337 74.9339 187.164C75.7631 185.991 76.6516 185.346 77.5994 185.346C78.1917 185.346 78.7248 185.639 79.1395 186.226C79.4949 186.812 79.7318 187.692 79.7318 188.806V201.651C79.7318 203.997 80.3834 205.757 81.805 207.047C83.1674 208.337 84.9444 208.924 87.1952 208.924C89.3277 208.924 91.1047 208.22 92.5263 206.812C93.9479 205.405 94.6587 204.29 94.6587 203.411C94.6587 203.059 94.481 202.765 94.1256 202.531C92.467 201.475 91.6378 199.54 91.6378 196.783C91.6378 195.141 91.6378 193.147 91.6378 190.742C91.6378 188.337 91.697 186.812 91.697 186.109C91.697 183.293 90.8677 181.123 89.3277 179.598C87.7876 178.073 85.8329 177.252 83.5228 177.252C81.6865 177.252 79.8503 177.78 78.014 178.836C76.1185 179.891 74.6969 181.534 73.6307 183.762H73.453C73.3938 183.528 73.3346 183.117 73.2753 182.648C72.9199 181.006 72.1499 179.716 70.9652 178.718C69.7805 177.78 68.2997 177.252 66.4634 177.252C64.2718 177.252 62.4948 177.956 61.0732 179.364C59.6516 180.771 59 181.886 59 182.707C59 183.059 59.1777 183.352 59.5331 183.587C60.3624 184.173 60.8955 184.877 61.2509 185.698C61.6063 186.519 61.784 187.751 61.784 189.276C61.784 200.771 61.6655 206.871 61.547 207.457Z" fill="white"/>
<path d="M114.218 185.17C115.64 185.17 116.706 185.933 117.535 187.399C118.305 188.865 118.72 190.683 118.72 192.912C118.72 195.141 118.305 197.018 117.535 198.425C116.706 199.891 115.64 200.595 114.218 200.595C112.737 200.595 111.612 199.891 110.842 198.425C110.013 197.018 109.657 195.141 109.657 192.912C109.657 190.683 110.013 188.865 110.842 187.399C111.612 185.933 112.737 185.17 114.218 185.17ZM102.964 177.428C100.772 177.428 98.9953 178.132 97.5736 179.54C96.152 180.947 95.5005 182.062 95.5005 182.883C95.5005 183.235 95.6782 183.528 96.0336 183.762C96.8628 184.349 97.3959 185.053 97.7513 185.874C98.1067 186.695 98.2844 187.927 98.2844 189.452C98.2844 210.918 98.2252 221.827 98.166 222.12C98.166 222.296 98.2252 222.413 98.4029 222.413C100.417 222.824 102.253 223 103.912 223C106.222 223 108.176 222.824 109.835 222.413C110.013 222.413 110.131 222.296 110.131 222.062V203.587H110.309C112.027 206.988 114.692 208.689 118.305 208.689C121.978 208.689 124.999 207.106 127.309 203.821C129.56 200.595 130.745 196.842 130.745 192.56C130.745 188.22 129.678 184.642 127.664 181.827C125.65 179.012 122.807 177.545 119.194 177.545C117.18 177.545 115.344 178.073 113.626 179.129C111.849 180.185 110.664 181.651 110.013 183.528H109.835C109.776 183.293 109.657 182.883 109.539 182.296C108.532 179.07 106.34 177.428 102.964 177.428Z" fill="white"/>
<path d="M164.995 178.777C164.995 178.66 164.936 178.543 164.818 178.425C162.922 178.073 161.027 177.897 159.131 177.897C157.058 177.897 155.103 178.132 153.208 178.484L152.971 178.836V194.144C152.971 196.196 152.556 197.839 151.727 199.012C150.898 200.185 150.069 200.771 149.121 200.771C148.469 200.771 147.936 200.478 147.581 199.891C147.166 199.305 146.988 198.484 146.988 197.311V184.818C146.988 182.531 146.218 180.713 144.797 179.422C143.375 178.132 141.539 177.487 139.347 177.487C137.156 177.487 135.379 178.191 134.016 179.598C132.595 181.006 131.943 182.179 131.943 183.059C131.943 183.528 132.121 183.821 132.476 183.997C134.135 185.111 135.023 186.93 135.023 189.452V200.067C135.023 202.883 135.793 205.053 137.333 206.519C138.873 208.044 140.828 208.748 143.257 208.748C145.152 208.748 147.048 208.279 148.825 207.282C150.602 206.284 152.023 204.642 153.09 202.296L153.267 202.355C153.326 202.941 153.386 203.352 153.504 203.587C153.86 205.229 154.63 206.46 155.814 207.399C156.94 208.337 158.421 208.806 160.257 208.806C162.448 208.806 164.225 208.103 165.647 206.695C167.009 205.287 167.72 204.173 167.72 203.293C167.72 202.941 167.543 202.648 167.187 202.413C165.647 201.475 164.936 199.598 164.936 196.783C164.936 184.935 164.936 178.894 164.995 178.777Z" fill="white"/>
<path d="M192.075 192.326V192.091C193.734 191.739 195.155 190.977 196.34 189.804C197.525 188.63 198.117 187.223 198.117 185.581C198.117 183.235 196.873 181.299 194.444 179.774C192.016 178.249 188.995 177.428 185.382 177.428C180.643 177.428 176.793 178.601 173.89 180.947C170.988 183.293 169.566 185.463 169.566 187.457C169.566 188.103 169.803 188.396 170.277 188.396C170.573 188.396 171.225 188.161 172.232 187.692C173.179 187.223 174.483 186.754 176.023 186.284C177.563 185.815 179.162 185.522 180.821 185.522C181.946 185.522 182.894 185.698 183.664 185.933C184.434 186.226 184.967 186.578 185.322 186.988C185.619 187.457 185.796 187.809 185.915 188.103C186.033 188.455 186.092 188.748 186.092 189.041C186.092 189.804 185.855 190.507 185.441 191.211C183.368 190.566 181.768 190.449 180.702 190.918C179.577 191.387 179.044 192.15 179.044 193.205C179.044 194.202 179.577 194.906 180.761 195.375C181.887 195.845 183.545 195.61 185.737 194.789L186.033 195.199C186.152 195.551 186.329 196.021 186.507 196.607C186.685 197.194 186.803 197.839 186.803 198.425C186.803 199.481 186.448 200.419 185.796 201.24C185.085 202.062 184.197 202.472 183.012 202.472C181.946 202.472 181.117 202.179 180.406 201.534C179.695 200.947 179.399 200.067 179.399 199.012C179.399 198.777 179.399 198.425 179.517 197.956C179.577 197.487 179.636 197.194 179.636 197.018C179.636 196.666 179.103 196.196 178.037 195.727C176.97 195.258 175.904 194.965 174.838 194.965C173.002 194.965 171.58 195.493 170.573 196.49C169.507 197.545 169.033 198.777 169.033 200.243C169.033 203 170.455 205.111 173.357 206.636C176.2 208.161 179.517 208.865 183.249 208.865C185.974 208.865 188.462 208.572 190.772 207.868C193.082 207.223 195.037 206.167 196.577 204.701C198.117 203.235 198.887 201.475 198.887 199.364C198.887 197.487 198.235 195.962 196.932 194.73C195.629 193.499 194.03 192.677 192.075 192.326Z" fill="white"/>
<path d="M214.552 184.877C214.552 182.589 213.782 180.771 212.36 179.481C210.939 178.191 209.102 177.545 206.911 177.545C204.719 177.545 202.942 178.249 201.58 179.657C200.158 181.065 199.507 182.238 199.507 183.117C199.507 183.587 199.684 183.88 200.04 184.056C201.698 185.17 202.587 186.988 202.587 189.51L202.527 196.196C202.527 197.663 202.764 199.07 203.238 200.478C203.712 201.886 204.423 203.235 205.489 204.525C206.496 205.815 207.977 206.871 209.932 207.633C211.827 208.455 214.137 208.806 216.744 208.806C220.712 208.806 224.029 207.633 226.695 205.229C229.36 202.824 230.723 199.716 230.723 195.962C230.723 192.501 229.597 189.862 227.346 187.985C228.057 186.578 229.005 185.874 230.19 185.874C230.782 185.874 231.256 186.167 231.67 186.636C232.085 187.164 232.322 187.868 232.322 188.806V201.592C232.322 203.938 232.974 205.698 234.395 206.988C235.817 208.279 237.594 208.865 239.845 208.865C241.977 208.865 243.754 208.161 245.176 206.754C246.597 205.346 247.308 204.232 247.308 203.352C247.308 203 247.13 202.707 246.775 202.472C245.116 201.416 244.287 199.481 244.287 196.724V185.581C244.287 183.411 243.458 181.416 241.859 179.657C240.2 177.897 237.712 177.194 234.395 177.545C231.967 177.839 229.834 178.777 227.998 180.419C226.102 182.062 224.681 183.997 223.733 186.226C220.712 185.287 217.632 185.463 214.552 186.695V184.877ZM217.099 202.062C215.322 202.062 214.493 200.361 214.493 196.9V190.742C214.848 190.683 215.263 190.625 215.677 190.625C217.099 190.625 218.224 191.152 218.935 192.208C219.646 193.264 220.001 194.672 220.001 196.314C220.001 197.78 219.705 199.129 219.231 200.302C218.698 201.475 217.987 202.062 217.099 202.062Z" fill="white"/>
<path d="M291.84 186.519C291.84 183.938 290.656 181.768 288.286 180.067C285.917 178.367 282.896 177.487 279.283 177.487C274.189 177.487 270.102 179.012 267.021 182.003C263.941 185.053 262.46 188.748 262.46 193.088C262.46 197.663 263.823 201.358 266.666 204.29C269.509 207.223 273.478 208.689 278.69 208.689C282.541 208.689 285.739 207.575 288.346 205.229C290.952 202.941 292.255 200.947 292.255 199.188C292.255 198.66 292.018 198.367 291.544 198.367C291.307 198.367 290.3 198.777 288.464 199.481C286.628 200.185 284.91 200.537 283.251 200.537C280.171 200.537 277.861 199.657 276.44 197.897C275.018 196.138 274.307 194.026 274.307 191.446C274.307 189.334 274.722 187.457 275.61 185.815C276.44 184.173 277.506 183.352 278.809 183.352C280.349 183.352 281.178 184.525 281.178 186.871C281.178 187.34 281.119 187.927 281.001 188.689C280.882 189.452 280.882 189.921 280.882 190.155C280.882 190.742 281.356 191.328 282.304 191.915C283.251 192.501 284.377 192.736 285.562 192.736C287.576 192.736 289.175 192.091 290.241 190.801C291.307 189.51 291.84 188.103 291.84 186.519Z" fill="white"/>
<path d="M355.908 167.164C355.908 167.047 355.789 166.93 355.552 166.871L354.782 166.695C354.19 166.636 353.361 166.519 352.235 166.402C351.11 166.284 349.984 166.226 348.8 166.226C346.667 166.226 344.594 166.46 342.58 166.871L342.165 167.106C340.685 172.501 338.671 179.246 336.124 187.34H335.59L334.88 184.818C334.406 183.176 333.754 181.182 333.043 178.953C332.273 176.724 331.622 175.082 331.089 173.968C330.615 173.147 330.2 172.384 329.845 171.798C329.489 171.211 328.956 170.507 328.245 169.628C327.535 168.806 326.765 168.103 325.995 167.575C325.165 167.047 324.218 166.578 323.033 166.167C321.848 165.815 320.545 165.581 319.183 165.581C316.576 165.581 314.385 166.284 312.726 167.575C311.008 168.924 310.12 170.155 310.001 171.27C310.001 171.622 310.179 171.974 310.594 172.384C311.008 172.795 311.423 173.381 311.778 174.144C312.134 174.906 312.312 175.845 312.193 176.959C309.765 192.56 308.521 202.765 308.461 207.457C308.461 207.633 308.521 207.751 308.758 207.751L309.291 207.927C309.646 208.044 310.179 208.161 310.949 208.279C311.66 208.396 312.43 208.396 313.2 208.396C314.74 208.396 316.28 208.22 317.761 207.751C317.998 207.751 318.116 207.633 318.116 207.399C318.413 197.076 319.064 188.982 320.012 183.176H320.367C322.026 185.17 324.691 193.264 328.482 207.516L328.838 207.751C329.667 208.103 330.852 208.279 332.392 208.279C333.34 208.279 334.583 208.161 336.183 207.809C336.36 207.692 336.479 207.575 336.538 207.34L344.475 182.472H344.712C346.016 188.924 346.845 197.252 347.082 207.457C347.082 207.692 347.141 207.809 347.378 207.809L348.03 207.985C348.385 208.103 349.155 208.161 350.28 208.279C351.406 208.396 352.709 208.455 354.19 208.455C356.855 208.455 358.81 208.279 360.113 207.809L360.232 207.751C360.291 207.751 360.35 207.751 360.469 207.692C360.587 207.633 360.646 207.516 360.646 207.399C360.409 192.971 358.869 179.598 355.908 167.164Z" fill="white"/>
<path d="M371.716 208.806C373.848 208.806 375.625 208.103 377.047 206.695C378.468 205.287 379.179 204.173 379.179 203.293C379.179 202.941 379.001 202.648 378.646 202.413C376.987 201.358 376.158 199.422 376.158 196.666V178.718C376.158 178.601 376.099 178.484 375.98 178.425C374.263 178.073 372.308 177.839 370.176 177.839C368.221 177.839 366.325 178.073 364.489 178.425C364.311 178.484 364.252 178.601 364.252 178.718V201.534C364.252 203.88 364.904 205.639 366.325 206.93C367.688 208.22 369.465 208.806 371.716 208.806ZM370.472 174.73C372.486 174.73 374.263 174.202 375.743 173.029C377.165 171.915 377.935 170.507 377.935 168.865C377.935 167.282 377.165 165.933 375.743 164.76C374.263 163.587 372.486 163 370.472 163C368.398 163 366.621 163.587 365.2 164.76C363.778 165.933 363.067 167.282 363.067 168.865C363.067 170.507 363.778 171.915 365.2 173.029C366.621 174.202 368.398 174.73 370.472 174.73Z" fill="white"/>
<path d="M388.997 208.806C391.13 208.806 392.907 208.103 394.329 206.695C395.75 205.287 396.461 204.173 396.461 203.293C396.461 202.941 396.283 202.648 395.928 202.413C394.269 201.358 393.44 199.422 393.44 196.666V164.056C393.44 163.938 393.322 163.821 393.203 163.762C391.485 163.411 389.59 163.176 387.457 163.176C385.503 163.176 383.607 163.411 381.771 163.762C381.593 163.821 381.534 163.938 381.534 164.056V201.534C381.534 203.88 382.186 205.639 383.607 206.93C384.97 208.22 386.747 208.806 388.997 208.806Z" fill="white"/>
<path d="M431.276 201.123C430.328 200.654 429.617 200.302 429.203 199.95C426.893 198.308 425.116 196.196 423.813 193.674C425.886 193.205 427.604 192.091 429.025 190.449C430.387 188.806 431.098 186.93 431.098 184.877C431.098 182.413 430.21 180.537 428.492 179.188C426.774 177.897 424.523 177.311 421.799 177.428C419.666 177.545 417.652 178.191 415.816 179.364C413.98 180.537 412.499 182.003 411.433 183.88H411.314V163.997C411.314 163.88 411.255 163.762 411.137 163.704C409.004 163.352 407.049 163.117 405.272 163.117C403.614 163.117 401.718 163.352 399.645 163.704L399.408 163.938V207.399C399.408 207.575 399.467 207.692 399.645 207.692C401.778 208.103 403.732 208.279 405.45 208.279C406.753 208.279 408.589 208.103 411.077 207.692L411.314 207.34V194.672C411.314 189.276 412.914 186.402 416.231 186.05C417.178 185.991 418.008 186.284 418.659 186.871C419.311 187.457 419.548 188.279 419.429 189.276C419.192 190.449 418.659 191.387 417.711 192.15C416.764 192.971 415.638 193.44 414.217 193.616C413.624 193.733 413.387 194.144 413.387 194.73C413.387 195.903 413.565 197.252 413.98 198.777C414.335 200.302 414.927 201.827 415.757 203.352C416.527 204.935 417.652 206.226 419.074 207.282C420.495 208.337 422.154 208.806 423.99 208.806C426.3 208.806 428.196 208.161 429.677 206.812C431.098 205.463 431.868 203.88 431.868 202.003C431.868 201.651 431.631 201.358 431.276 201.123Z" fill="white"/>
<path d="M465.979 196.724C465.979 194.085 466.038 188.103 466.157 178.777C466.157 178.66 466.038 178.543 465.861 178.425C464.202 178.132 462.307 177.956 460.233 177.956C458.338 177.956 456.502 178.132 454.784 178.425C454.547 178.543 454.488 178.66 454.488 178.777L453.895 182.531H453.718C452.888 181.006 451.763 179.774 450.223 178.894C448.683 178.015 446.965 177.545 445.01 177.545C441.338 177.545 438.435 179.188 436.303 182.355C434.171 185.581 433.104 189.334 433.104 193.616C433.104 197.78 434.111 201.358 436.244 204.29C438.317 207.223 441.16 208.689 444.714 208.689C446.728 208.689 448.505 208.161 450.164 207.106C451.822 206.05 453.066 204.584 453.895 202.707H454.073C454.31 204.584 455.139 206.109 456.502 207.164C457.805 208.22 459.523 208.748 461.537 208.748C463.432 208.748 465.15 208.161 466.69 206.93C468.23 205.698 469 204.466 469 203.293C469 202.941 468.822 202.648 468.467 202.413C466.808 201.358 465.979 199.422 465.979 196.724ZM449.749 200.595C448.327 200.595 447.202 199.891 446.432 198.425C445.603 197.018 445.247 195.141 445.247 192.912C445.247 190.683 445.603 188.865 446.432 187.399C447.202 185.933 448.327 185.17 449.749 185.17C451.171 185.17 452.296 185.933 453.125 187.399C453.895 188.865 454.31 190.683 454.31 192.912C454.31 195.141 453.895 197.018 453.125 198.425C452.296 199.891 451.171 200.595 449.749 200.595Z" fill="white"/>
<path d="M81.1186 252.3V252.08C82.4293 251.859 83.5216 251.253 84.45 250.371C85.3239 249.49 85.87 248.388 86.0338 247.065C86.3069 245.082 85.4331 243.208 83.4124 241.555C81.3917 239.902 78.3333 239.02 74.2373 239.02C69.4312 239.02 65.6629 240.343 62.9868 242.878C60.3107 245.467 59 249.049 59 253.678C59 258.802 60.3107 262.604 63.0414 265.029C65.7175 267.508 69.4312 268.72 74.2373 268.72C78.3879 268.72 81.7193 267.784 84.1224 265.8C86.5254 263.816 87.7815 261.612 87.7815 259.078C87.7815 257.149 87.0715 255.606 85.7608 254.449C84.3954 253.292 82.8662 252.576 81.1186 252.3ZM73.6911 245.082C74.3465 245.082 74.8926 245.357 75.3295 245.853C75.7664 246.349 75.9849 246.9 75.9849 247.506C75.9849 248.553 75.4934 249.435 74.6196 250.206C73.6911 250.978 72.3258 251.418 70.4689 251.529H69.9774C69.9228 249.655 70.1958 248.112 70.7966 246.9C71.3973 245.688 72.3804 245.082 73.6911 245.082ZM74.0734 262.769C71.2335 262.769 69.8681 260.345 69.9774 255.441C70.3597 255.441 70.7966 255.386 71.2335 255.386C73.0904 255.386 74.5649 255.827 75.6572 256.653C76.6949 257.48 77.241 258.416 77.241 259.518C77.241 260.4 76.9133 261.171 76.3672 261.833C75.8211 262.494 75.0565 262.769 74.0734 262.769Z" fill="white"/>
<path d="M138.69 229.102C130.607 228.771 124.163 228.551 119.466 228.551C117.008 228.551 114.769 228.716 112.749 228.937C110.673 229.157 109.035 229.488 107.724 229.873C106.413 230.259 105.266 230.7 104.393 231.141C103.464 231.637 102.809 232.078 102.427 232.518C102.044 232.959 101.88 233.345 101.88 233.731C101.88 233.951 101.99 234.227 102.263 234.502C102.481 234.833 102.754 235.108 103.082 235.439C103.355 235.769 103.628 236.376 103.901 237.257C104.12 238.139 104.283 239.241 104.283 240.508V267.398C104.283 267.563 104.338 267.673 104.502 267.673C106.359 268.059 108.27 268.224 110.182 268.224C112.53 268.224 114.442 268.059 115.971 267.673C116.135 267.673 116.244 267.563 116.244 267.343V237.973H127.003V241.059V244.916V249.159V253.512C127.003 254.945 126.948 256.378 126.948 257.755C126.948 259.133 126.948 260.4 126.948 261.557V264.588V266.682V267.398C126.948 267.563 127.003 267.673 127.167 267.673C129.023 268.059 130.935 268.224 132.846 268.224C135.195 268.224 137.106 268.059 138.635 267.673C138.799 267.673 138.909 267.563 138.909 267.343V229.378C138.909 229.267 138.799 229.157 138.69 229.102Z" fill="white"/>
<path d="M156.63 245.082C157.613 245.082 158.323 245.357 158.815 245.853C159.306 246.349 159.579 246.955 159.579 247.727C159.579 248.773 159.033 249.71 157.996 250.537C156.958 251.418 155.538 251.804 153.736 251.804C153.299 251.804 152.862 251.749 152.48 251.749C152.425 249.876 152.753 248.333 153.517 247.01C154.282 245.743 155.32 245.082 156.63 245.082ZM168.973 258.747C168.755 258.747 168.318 258.967 167.553 259.408C166.788 259.849 165.751 260.235 164.44 260.676C163.075 261.116 161.6 261.282 159.962 261.282C158.214 261.282 156.63 260.896 155.21 260.014C153.79 259.133 153.026 257.976 152.807 256.433C153.954 256.873 155.811 257.094 158.323 257.094C159.634 257.094 160.89 256.984 162.201 256.653C163.512 256.378 164.768 255.937 165.969 255.276C167.171 254.614 168.099 253.733 168.864 252.52C169.628 251.308 170.011 249.931 170.011 248.333C170.011 246.018 168.864 243.924 166.679 242.051C164.44 240.178 161.272 239.241 157.231 239.241C152.48 239.241 148.711 240.618 145.926 243.318C143.086 246.073 141.721 249.6 141.721 253.953C141.721 258.416 143.086 261.943 145.926 264.588C148.766 267.233 152.48 268.555 157.122 268.555C159.088 268.555 160.89 268.224 162.529 267.508C164.167 266.847 165.478 265.965 166.461 264.973C167.389 263.982 168.099 263.045 168.645 262.053C169.191 261.061 169.465 260.235 169.465 259.518C169.465 259.022 169.301 258.747 168.973 258.747Z" fill="white"/>
<path d="M188.082 246.459C189.393 246.459 190.376 247.176 191.141 248.553C191.851 249.931 192.233 251.639 192.233 253.733C192.233 255.827 191.851 257.59 191.141 258.912C190.376 260.29 189.393 260.951 188.082 260.951C186.717 260.951 185.679 260.29 184.969 258.912C184.205 257.59 183.877 255.827 183.877 253.733C183.877 251.639 184.205 249.931 184.969 248.553C185.679 247.176 186.717 246.459 188.082 246.459ZM177.706 239.186C175.685 239.186 174.047 239.847 172.736 241.169C171.425 242.492 170.824 243.539 170.824 244.31C170.824 244.641 170.988 244.916 171.316 245.137C172.08 245.688 172.572 246.349 172.9 247.12C173.227 247.892 173.391 249.049 173.391 250.482C173.391 270.649 173.337 280.898 173.282 281.173C173.282 281.339 173.337 281.449 173.5 281.449C175.357 281.835 177.05 282 178.58 282C180.709 282 182.512 281.835 184.041 281.449C184.205 281.449 184.314 281.339 184.314 281.118V263.761H184.478C186.062 266.957 188.519 268.555 191.851 268.555C195.237 268.555 198.022 267.067 200.152 263.982C202.227 260.951 203.32 257.424 203.32 253.402C203.32 249.324 202.337 245.963 200.48 243.318C198.623 240.673 196.001 239.296 192.67 239.296C190.813 239.296 189.12 239.792 187.536 240.784C185.898 241.776 184.805 243.153 184.205 244.916H184.041C183.986 244.696 183.877 244.31 183.768 243.759C182.839 240.729 180.819 239.186 177.706 239.186Z" fill="white"/>
<path d="M220.418 245.082C221.401 245.082 222.111 245.357 222.602 245.853C223.094 246.349 223.367 246.955 223.367 247.727C223.367 248.773 222.821 249.71 221.783 250.537C220.745 251.418 219.325 251.804 217.523 251.804C217.086 251.804 216.649 251.749 216.267 251.749C216.212 249.876 216.54 248.333 217.305 247.01C218.069 245.743 219.107 245.082 220.418 245.082ZM232.76 258.747C232.542 258.747 232.105 258.967 231.34 259.408C230.576 259.849 229.538 260.235 228.227 260.676C226.862 261.116 225.387 261.282 223.749 261.282C222.001 261.282 220.418 260.896 218.998 260.014C217.578 259.133 216.813 257.976 216.595 256.433C217.741 256.873 219.598 257.094 222.111 257.094C223.421 257.094 224.677 256.984 225.988 256.653C227.299 256.378 228.555 255.937 229.757 255.276C230.958 254.614 231.886 253.733 232.651 252.52C233.416 251.308 233.798 249.931 233.798 248.333C233.798 246.018 232.651 243.924 230.466 242.051C228.227 240.178 225.06 239.241 221.018 239.241C216.267 239.241 212.499 240.618 209.713 243.318C206.873 246.073 205.508 249.6 205.508 253.953C205.508 258.416 206.873 261.943 209.713 264.588C212.553 267.233 216.267 268.555 220.909 268.555C222.875 268.555 224.677 268.224 226.316 267.508C227.954 266.847 229.265 265.965 230.248 264.973C231.176 263.982 231.886 263.045 232.433 262.053C232.979 261.061 233.252 260.235 233.252 259.518C233.252 259.022 233.088 258.747 232.76 258.747Z" fill="white"/>
<path d="M265.305 262.439C264.431 261.943 263.612 261.227 262.956 260.235C262.246 259.298 261.645 258.361 261.208 257.369C260.717 256.433 260.225 255.496 259.679 254.504C259.133 253.567 258.478 252.741 257.713 252.08C256.894 251.418 255.966 250.922 254.873 250.702C255.146 249.931 255.638 249.269 256.293 248.663C256.949 248.112 257.713 247.782 258.587 247.782C259.297 247.782 260.007 248.002 260.772 248.333C261.536 248.718 261.918 248.884 261.973 248.884C262.465 248.884 263.065 248.443 263.775 247.506C264.485 246.569 264.868 245.522 264.868 244.31C264.868 242.933 264.376 241.72 263.393 240.673C262.41 239.682 260.99 239.131 259.133 239.131C256.621 239.131 254.491 240.178 252.798 242.271C251.105 244.365 250.177 247.176 250.067 250.702H248.32V245.798C248.32 243.814 247.664 242.161 246.408 240.949C245.097 239.737 243.459 239.131 241.493 239.131C239.472 239.131 237.834 239.792 236.523 241.114C235.212 242.437 234.612 243.484 234.612 244.255C234.612 244.586 234.775 244.861 235.103 245.082C236.468 246.073 237.178 247.616 237.178 249.765V267.343C237.178 267.508 237.233 267.618 237.397 267.618C239.363 268.004 241.22 268.169 242.913 268.169C244.114 268.169 245.807 268.004 248.101 267.618L248.32 267.288V255.827C248.593 255.827 248.866 255.882 249.084 255.992C249.303 256.102 249.521 256.212 249.63 256.267C249.74 256.378 249.903 256.543 250.013 256.818C250.122 257.149 250.177 257.314 250.177 257.369C250.177 257.48 250.231 257.7 250.34 258.031L250.45 258.582C250.723 260.069 251.05 261.337 251.433 262.384C251.76 263.431 252.306 264.478 252.962 265.469C253.617 266.516 254.436 267.288 255.529 267.839C256.566 268.39 257.822 268.61 259.297 268.61C261.427 268.61 263.12 268.059 264.376 266.902C265.578 265.745 266.233 264.643 266.233 263.596C266.233 263.21 265.905 262.824 265.305 262.439Z" fill="white"/>
<path d="M283.87 246.459C285.181 246.459 286.164 247.176 286.928 248.553C287.638 249.931 288.02 251.639 288.02 253.733C288.02 255.827 287.638 257.59 286.928 258.912C286.164 260.29 285.181 260.951 283.87 260.951C282.504 260.951 281.467 260.29 280.757 258.912C279.992 257.59 279.665 255.827 279.665 253.733C279.665 251.639 279.992 249.931 280.757 248.553C281.467 247.176 282.504 246.459 283.87 246.459ZM273.493 239.186C271.472 239.186 269.834 239.847 268.523 241.169C267.213 242.492 266.612 243.539 266.612 244.31C266.612 244.641 266.776 244.916 267.103 245.137C267.868 245.688 268.36 246.349 268.687 247.12C269.015 247.892 269.179 249.049 269.179 250.482C269.179 270.649 269.124 280.898 269.069 281.173C269.069 281.339 269.124 281.449 269.288 281.449C271.145 281.835 272.838 282 274.367 282C276.497 282 278.299 281.835 279.828 281.449C279.992 281.449 280.101 281.339 280.101 281.118V263.761H280.265C281.849 266.957 284.307 268.555 287.638 268.555C291.024 268.555 293.81 267.067 295.939 263.982C298.015 260.951 299.107 257.424 299.107 253.402C299.107 249.324 298.124 245.963 296.267 243.318C294.41 240.673 291.789 239.296 288.457 239.296C286.601 239.296 284.908 239.792 283.324 240.784C281.685 241.776 280.593 243.153 279.992 244.916H279.828C279.774 244.696 279.665 244.31 279.555 243.759C278.627 240.729 276.606 239.186 273.493 239.186Z" fill="white"/>
<path d="M316.205 245.082C317.188 245.082 317.898 245.357 318.39 245.853C318.881 246.349 319.154 246.955 319.154 247.727C319.154 248.773 318.608 249.71 317.57 250.537C316.533 251.418 315.113 251.804 313.311 251.804C312.874 251.804 312.437 251.749 312.054 251.749C312 249.876 312.327 248.333 313.092 247.01C313.857 245.743 314.894 245.082 316.205 245.082ZM328.548 258.747C328.329 258.747 327.892 258.967 327.128 259.408C326.363 259.849 325.326 260.235 324.015 260.676C322.649 261.116 321.175 261.282 319.536 261.282C317.789 261.282 316.205 260.896 314.785 260.014C313.365 259.133 312.601 257.976 312.382 256.433C313.529 256.873 315.386 257.094 317.898 257.094C319.209 257.094 320.465 256.984 321.776 256.653C323.086 256.378 324.343 255.937 325.544 255.276C326.746 254.614 327.674 253.733 328.439 252.52C329.203 251.308 329.585 249.931 329.585 248.333C329.585 246.018 328.439 243.924 326.254 242.051C324.015 240.178 320.847 239.241 316.806 239.241C312.054 239.241 308.286 240.618 305.501 243.318C302.661 246.073 301.295 249.6 301.295 253.953C301.295 258.416 302.661 261.943 305.501 264.588C308.341 267.233 312.054 268.555 316.697 268.555C318.663 268.555 320.465 268.224 322.103 267.508C323.742 266.847 325.052 265.965 326.036 264.973C326.964 263.982 327.674 263.045 328.22 262.053C328.766 261.061 329.039 260.235 329.039 259.518C329.039 259.022 328.875 258.747 328.548 258.747ZM314.73 233.235C314.73 231.802 314.13 230.535 313.037 229.543C311.945 228.551 310.58 228 308.996 228C307.412 228 306.047 228.551 304.955 229.543C303.862 230.535 303.316 231.802 303.316 233.235C303.316 234.667 303.862 235.935 304.955 236.927C306.047 237.973 307.412 238.469 308.996 238.469C310.525 238.469 311.891 237.973 313.037 236.927C314.13 235.935 314.73 234.667 314.73 233.235ZM328.384 233.235C328.384 231.802 327.783 230.535 326.691 229.543C325.599 228.551 324.233 228 322.704 228C321.066 228 319.7 228.551 318.608 229.543C317.516 230.535 316.97 231.802 316.97 233.235C316.97 234.667 317.516 235.935 318.663 236.927C319.755 237.973 321.12 238.469 322.704 238.469C324.233 238.469 325.599 237.973 326.691 236.927C327.783 235.935 328.384 234.667 328.384 233.235Z" fill="white"/>
<path d="M358.571 247.727C358.571 245.302 357.479 243.263 355.294 241.665C353.109 240.067 350.324 239.241 346.993 239.241C342.296 239.241 338.528 240.673 335.688 243.484C332.848 246.349 331.482 249.82 331.482 253.898C331.482 258.196 332.739 261.667 335.36 264.422C337.981 267.178 341.641 268.555 346.447 268.555C349.996 268.555 352.946 267.508 355.349 265.304C357.752 263.155 358.953 261.282 358.953 259.629C358.953 259.133 358.735 258.857 358.298 258.857C358.079 258.857 357.151 259.243 355.458 259.904C353.765 260.565 352.181 260.896 350.652 260.896C347.812 260.896 345.682 260.069 344.371 258.416C343.061 256.763 342.405 254.78 342.405 252.355C342.405 250.371 342.787 248.608 343.607 247.065C344.371 245.522 345.354 244.751 346.556 244.751C347.976 244.751 348.74 245.853 348.74 248.057C348.74 248.498 348.686 249.049 348.577 249.765C348.467 250.482 348.467 250.922 348.467 251.143C348.467 251.694 348.904 252.245 349.778 252.796C350.652 253.347 351.69 253.567 352.782 253.567C354.639 253.567 356.113 252.961 357.096 251.749C358.079 250.537 358.571 249.214 358.571 247.727Z" fill="white"/>
<path d="M407.027 262.659C405.498 261.667 404.733 259.849 404.733 257.259C404.733 255.716 404.733 253.898 404.733 251.694C404.733 249.545 404.788 248.167 404.788 247.506C404.788 244.861 404.023 242.822 402.603 241.39C401.183 239.957 399.381 239.186 397.251 239.186C393.592 239.186 390.861 241.224 389.004 245.302H388.841C388.404 243.373 387.53 241.886 386.219 240.784C384.908 239.737 383.325 239.186 381.522 239.186C377.863 239.186 375.133 241.224 373.276 245.302H373.112C373.003 244.586 372.948 244.2 372.948 244.09C372.566 242.602 371.856 241.39 370.763 240.508C369.671 239.627 368.306 239.186 366.667 239.186C364.647 239.186 363.008 239.847 361.697 241.169C360.387 242.492 359.786 243.539 359.786 244.31C359.786 244.641 359.95 244.916 360.278 245.137C361.042 245.688 361.534 246.349 361.861 247.12C362.189 247.892 362.353 249.049 362.353 250.482C362.353 261.171 362.244 266.847 362.134 267.398C362.134 267.563 362.189 267.673 362.353 267.673C364.21 268.059 366.067 268.224 367.814 268.224C369.78 268.224 371.528 268.059 373.057 267.673C373.221 267.673 373.33 267.563 373.33 267.343V252.961C373.33 251.088 373.603 249.545 374.204 248.443C374.805 247.341 375.515 246.79 376.389 246.79C377.481 246.79 378.027 247.892 378.027 250.041V267.398C378.027 267.563 378.082 267.673 378.246 267.673C380.102 268.059 381.905 268.224 383.543 268.224C385.509 268.224 387.257 268.059 388.786 267.673C388.95 267.673 389.059 267.563 389.059 267.343V252.961C389.059 251.088 389.332 249.545 389.933 248.443C390.534 247.341 391.244 246.79 392.117 246.79C393.21 246.79 393.756 247.892 393.756 250.041V261.833C393.756 264.037 394.357 265.69 395.667 266.902C396.923 268.114 398.562 268.665 400.637 268.665C402.603 268.665 404.242 268.004 405.552 266.682C406.863 265.359 407.518 264.312 407.518 263.486C407.518 263.155 407.355 262.88 407.027 262.659Z" fill="white"/>
<path d="M438.959 262.439C438.086 261.943 437.266 261.227 436.611 260.235C435.901 259.298 435.3 258.361 434.863 257.369C434.372 256.433 433.88 255.496 433.334 254.504C432.788 253.567 432.133 252.741 431.368 252.08C430.549 251.418 429.62 250.922 428.528 250.702C428.801 249.931 429.293 249.269 429.948 248.663C430.603 248.112 431.368 247.782 432.242 247.782C432.952 247.782 433.662 248.002 434.426 248.333C435.191 248.718 435.573 248.884 435.628 248.884C436.119 248.884 436.72 248.443 437.43 247.506C438.14 246.569 438.522 245.522 438.522 244.31C438.522 242.933 438.031 241.72 437.048 240.673C436.065 239.682 434.645 239.131 432.788 239.131C430.276 239.131 428.146 240.178 426.453 242.271C424.76 244.365 423.831 247.176 423.722 250.702H421.975V245.798C421.975 243.814 421.319 242.161 420.063 240.949C418.752 239.737 417.114 239.131 415.148 239.131C413.127 239.131 411.489 239.792 410.178 241.114C408.867 242.437 408.266 243.484 408.266 244.255C408.266 244.586 408.43 244.861 408.758 245.082C410.123 246.073 410.833 247.616 410.833 249.765V267.343C410.833 267.508 410.888 267.618 411.052 267.618C413.018 268.004 414.875 268.169 416.568 268.169C417.769 268.169 419.462 268.004 421.756 267.618L421.975 267.288V255.827C422.248 255.827 422.521 255.882 422.739 255.992C422.958 256.102 423.176 256.212 423.285 256.267C423.394 256.378 423.558 256.543 423.668 256.818C423.777 257.149 423.831 257.314 423.831 257.369C423.831 257.48 423.886 257.7 423.995 258.031L424.104 258.582C424.378 260.069 424.705 261.337 425.087 262.384C425.415 263.431 425.961 264.478 426.617 265.469C427.272 266.516 428.091 267.288 429.184 267.839C430.221 268.39 431.477 268.61 432.952 268.61C435.082 268.61 436.775 268.059 438.031 266.902C439.232 265.745 439.888 264.643 439.888 263.596C439.888 263.21 439.56 262.824 438.959 262.439Z" fill="white"/>
<path d="M455.62 245.082C456.603 245.082 457.313 245.357 457.804 245.853C458.296 246.349 458.569 246.955 458.569 247.727C458.569 248.773 458.023 249.71 456.985 250.537C455.947 251.418 454.527 251.804 452.725 251.804C452.288 251.804 451.851 251.749 451.469 251.749C451.414 249.876 451.742 248.333 452.507 247.01C453.271 245.743 454.309 245.082 455.62 245.082ZM467.962 258.747C467.744 258.747 467.307 258.967 466.542 259.408C465.778 259.849 464.74 260.235 463.429 260.676C462.064 261.116 460.589 261.282 458.951 261.282C457.203 261.282 455.62 260.896 454.2 260.014C452.78 259.133 452.015 257.976 451.797 256.433C452.944 256.873 454.8 257.094 457.313 257.094C458.623 257.094 459.879 256.984 461.19 256.653C462.501 256.378 463.757 255.937 464.959 255.276C466.16 254.614 467.089 253.733 467.853 252.52C468.618 251.308 469 249.931 469 248.333C469 246.018 467.853 243.924 465.669 242.051C463.429 240.178 460.262 239.241 456.22 239.241C451.469 239.241 447.701 240.618 444.915 243.318C442.075 246.073 440.71 249.6 440.71 253.953C440.71 258.416 442.075 261.943 444.915 264.588C447.755 267.233 451.469 268.555 456.111 268.555C458.077 268.555 459.879 268.224 461.518 267.508C463.156 266.847 464.467 265.965 465.45 264.973C466.379 263.982 467.089 263.045 467.635 262.053C468.181 261.061 468.454 260.235 468.454 259.518C468.454 259.022 468.29 258.747 467.962 258.747Z" fill="white"/>
<path d="M412.3 151.2H421L449.4 110.2C451.7 106.7 454.7 101 454.7 101H454.9C454.9 101 454.4 106.6 454.4 110.2V151.2H463.2V88H454.5L426.3 128.9C424 132.3 420.9 138.2 420.9 138.2H420.7C420.7 138.2 421.2 132.6 421.2 129V88H412.3V151.2Z" fill="white"/>
</g>
<g filter="url(#filter1_d)">
<path d="M72.7592 307.036C72.7592 306.068 72.3192 305.254 71.4392 304.616C70.5592 303.978 69.4372 303.648 68.0952 303.648C66.2032 303.648 64.6852 304.22 63.5412 305.342C62.3972 306.486 61.8472 307.872 61.8472 309.5C61.8472 311.216 62.3532 312.602 63.4092 313.702C64.4652 314.802 65.9392 315.352 67.8752 315.352C69.3052 315.352 70.4932 314.934 71.4612 314.054C72.4292 313.196 72.9132 312.448 72.9132 311.788C72.9132 311.59 72.8252 311.48 72.6492 311.48C72.5612 311.48 72.1872 311.634 71.5052 311.898C70.8232 312.162 70.1852 312.294 69.5692 312.294C68.4252 312.294 67.5672 311.964 67.0392 311.304C66.5112 310.644 66.2472 309.852 66.2472 308.884C66.2472 308.092 66.4012 307.388 66.7312 306.772C67.0392 306.156 67.4352 305.848 67.9192 305.848C68.4912 305.848 68.7992 306.288 68.7992 307.168C68.7992 307.344 68.7772 307.564 68.7332 307.85C68.6892 308.136 68.6892 308.312 68.6892 308.4C68.6892 308.62 68.8652 308.84 69.2172 309.06C69.5692 309.28 69.9872 309.368 70.4272 309.368C71.1752 309.368 71.7692 309.126 72.1652 308.642C72.5612 308.158 72.7592 307.63 72.7592 307.036ZM83.3765 299.38C83.2885 299.38 83.2005 299.424 83.0905 299.512C82.4745 299.996 81.9025 300.392 81.3305 300.722C80.7585 301.074 80.3185 301.316 79.9885 301.448C79.6365 301.58 79.3505 301.712 79.0865 301.8C78.8225 301.91 78.6465 301.998 78.5365 302.086C78.4265 302.174 78.3825 302.284 78.3825 302.416C78.3825 302.57 78.4485 302.68 78.6025 302.746C78.7345 302.834 78.9105 302.922 79.1305 303.01C79.3505 303.098 79.5705 303.252 79.7905 303.45C80.0105 303.648 80.1865 304 80.3405 304.484C80.4725 304.968 80.5605 305.606 80.5605 306.354V314.868V314.912L80.6265 314.978C81.2865 315.154 82.0565 315.22 82.9585 315.22C83.6625 315.22 84.3665 315.154 85.1145 314.978C85.1585 314.978 85.2025 314.934 85.2025 314.868V299.49C85.2025 299.424 85.1365 299.38 85.0485 299.38H83.3765ZM97.8055 303.582C96.0235 303.582 94.5495 304.132 93.4055 305.232C92.2395 306.332 91.6675 307.74 91.6675 309.5C91.6675 311.282 92.2395 312.712 93.3835 313.812C94.5275 314.912 96.0015 315.462 97.8055 315.462C99.6095 315.462 101.084 314.912 102.228 313.812C103.372 312.712 103.966 311.26 103.966 309.5C103.966 307.784 103.372 306.354 102.228 305.254C101.062 304.154 99.5875 303.582 97.8055 303.582ZM97.8055 312.976C97.1895 312.976 96.7495 312.668 96.4635 312.008C96.1555 311.37 96.0235 310.534 96.0235 309.5C96.0235 307.168 96.6175 306.002 97.8055 306.002C98.4215 306.002 98.8615 306.332 99.1695 306.97C99.4555 307.608 99.6095 308.444 99.6095 309.5C99.6095 311.832 98.9935 312.976 97.8055 312.976ZM116.765 312.91C116.413 312.712 116.083 312.426 115.819 312.03C115.533 311.656 115.291 311.282 115.115 310.886C114.917 310.512 114.719 310.138 114.499 309.742C114.279 309.368 114.015 309.038 113.707 308.774C113.377 308.51 113.003 308.312 112.563 308.224C112.673 307.916 112.871 307.652 113.135 307.41C113.399 307.19 113.707 307.058 114.059 307.058C114.345 307.058 114.631 307.146 114.939 307.278C115.247 307.432 115.401 307.498 115.423 307.498C115.621 307.498 115.863 307.322 116.149 306.948C116.435 306.574 116.589 306.156 116.589 305.672C116.589 305.122 116.391 304.638 115.995 304.22C115.599 303.824 115.027 303.604 114.279 303.604C113.267 303.604 112.409 304.022 111.727 304.858C111.045 305.694 110.671 306.816 110.627 308.224H109.923V306.266C109.923 305.474 109.659 304.814 109.153 304.33C108.625 303.846 107.965 303.604 107.173 303.604C106.359 303.604 105.699 303.868 105.171 304.396C104.643 304.924 104.401 305.342 104.401 305.65C104.401 305.782 104.467 305.892 104.599 305.98C105.149 306.376 105.435 306.992 105.435 307.85V314.868C105.435 314.934 105.457 314.978 105.523 314.978C106.315 315.132 107.063 315.198 107.745 315.198C108.229 315.198 108.911 315.132 109.835 314.978L109.923 314.846V310.27C110.033 310.27 110.143 310.292 110.231 310.336C110.319 310.38 110.407 310.424 110.451 310.446C110.495 310.49 110.561 310.556 110.605 310.666C110.649 310.798 110.671 310.864 110.671 310.886C110.671 310.93 110.693 311.018 110.737 311.15L110.781 311.37C110.891 311.964 111.023 312.47 111.177 312.888C111.309 313.306 111.529 313.724 111.793 314.12C112.057 314.538 112.387 314.846 112.827 315.066C113.245 315.286 113.751 315.374 114.345 315.374C115.203 315.374 115.885 315.154 116.391 314.692C116.875 314.23 117.139 313.79 117.139 313.372C117.139 313.218 117.007 313.064 116.765 312.91ZM136.322 312.998C135.706 312.602 135.398 311.876 135.398 310.842C135.398 310.226 135.398 309.5 135.398 308.62C135.398 307.762 135.42 307.212 135.42 306.948C135.42 305.892 135.112 305.078 134.54 304.506C133.968 303.934 133.242 303.626 132.384 303.626C130.91 303.626 129.81 304.44 129.062 306.068H128.996C128.82 305.298 128.468 304.704 127.94 304.264C127.412 303.846 126.774 303.626 126.048 303.626C124.574 303.626 123.474 304.44 122.726 306.068H122.66C122.616 305.782 122.594 305.628 122.594 305.584C122.44 304.99 122.154 304.506 121.714 304.154C121.274 303.802 120.724 303.626 120.064 303.626C119.25 303.626 118.59 303.89 118.062 304.418C117.534 304.946 117.292 305.364 117.292 305.672C117.292 305.804 117.358 305.914 117.49 306.002C117.798 306.222 117.996 306.486 118.128 306.794C118.26 307.102 118.326 307.564 118.326 308.136C118.326 312.404 118.282 314.67 118.238 314.89C118.238 314.956 118.26 315 118.326 315C119.074 315.154 119.822 315.22 120.526 315.22C121.318 315.22 122.022 315.154 122.638 315C122.704 315 122.748 314.956 122.748 314.868V309.126C122.748 308.378 122.858 307.762 123.1 307.322C123.342 306.882 123.628 306.662 123.98 306.662C124.42 306.662 124.64 307.102 124.64 307.96V314.89C124.64 314.956 124.662 315 124.728 315C125.476 315.154 126.202 315.22 126.862 315.22C127.654 315.22 128.358 315.154 128.974 315C129.04 315 129.084 314.956 129.084 314.868V309.126C129.084 308.378 129.194 307.762 129.436 307.322C129.678 306.882 129.964 306.662 130.316 306.662C130.756 306.662 130.976 307.102 130.976 307.96V312.668C130.976 313.548 131.218 314.208 131.746 314.692C132.252 315.176 132.912 315.396 133.748 315.396C134.54 315.396 135.2 315.132 135.728 314.604C136.256 314.076 136.52 313.658 136.52 313.328C136.52 313.196 136.454 313.086 136.322 312.998ZM149.471 313.042C148.855 312.646 148.547 311.92 148.547 310.886L148.635 308.18C148.679 306.684 148.217 305.54 147.205 304.77C146.193 304 144.807 303.604 143.003 303.56C141.419 303.538 140.055 303.868 138.933 304.528C137.789 305.21 137.239 306.156 137.239 307.388C137.239 308.4 137.569 309.192 138.251 309.786C138.933 310.38 139.725 310.71 140.605 310.776C140.539 310.996 140.385 311.172 140.143 311.304C139.879 311.436 139.637 311.502 139.417 311.502C139.175 311.502 138.955 311.48 138.757 311.414C138.559 311.37 138.405 311.304 138.295 311.238C138.185 311.194 138.119 311.15 138.097 311.15C137.921 311.15 137.701 311.37 137.459 311.788C137.217 312.228 137.107 312.69 137.107 313.218C137.107 313.922 137.327 314.472 137.811 314.868C138.295 315.264 138.867 315.44 139.571 315.44C141.485 315.44 142.673 313.988 143.113 311.04C143.531 311.04 143.861 311.04 144.125 311.018V312.712C144.125 313.592 144.367 314.252 144.895 314.736C145.401 315.22 146.061 315.44 146.897 315.44C147.689 315.44 148.349 315.176 148.877 314.648C149.405 314.12 149.669 313.702 149.669 313.372C149.669 313.24 149.603 313.13 149.471 313.042ZM143.619 309.126C142.959 309.126 142.497 308.972 142.189 308.62C141.881 308.29 141.749 307.894 141.749 307.41C141.749 307.058 141.859 306.75 142.101 306.486C142.321 306.222 142.651 306.112 143.047 306.112C143.509 306.134 143.839 306.288 144.015 306.574C144.191 306.882 144.301 307.3 144.301 307.828L144.257 309.104L143.619 309.126ZM157.193 304.462C156.291 304.506 155.499 304.748 154.817 305.232C154.113 305.716 153.585 306.398 153.233 307.278H153.145L153.101 306.816C153.057 306.508 153.123 306.09 153.299 305.584C153.453 305.1 153.717 304.66 154.113 304.286C154.575 303.824 155.235 303.494 156.071 303.296C156.907 303.098 157.743 302.922 158.579 302.746C159.415 302.57 160.053 302.284 160.515 301.866C161.307 301.14 161.725 300.128 161.725 298.808C161.725 298.456 161.637 298.126 161.483 297.796C161.329 297.466 161.197 297.29 161.065 297.29C160.999 297.29 160.933 297.312 160.867 297.356C160.779 297.4 160.669 297.488 160.493 297.576C160.317 297.686 160.097 297.774 159.877 297.862C159.393 298.06 158.623 298.302 157.523 298.566C156.423 298.83 155.433 299.16 154.575 299.534C153.695 299.93 152.925 300.458 152.265 301.118C150.725 302.658 149.955 304.99 149.955 308.114C149.955 310.446 150.483 312.25 151.583 313.526C152.683 314.802 154.113 315.44 155.895 315.44C157.655 315.44 159.107 314.868 160.207 313.702C161.307 312.536 161.879 311.106 161.879 309.412C161.879 307.96 161.439 306.75 160.559 305.804C159.679 304.88 158.557 304.418 157.193 304.462ZM155.917 312.932C155.389 312.932 155.015 312.624 154.773 311.964C154.509 311.326 154.399 310.644 154.399 309.94C154.399 309.192 154.509 308.532 154.773 307.982C155.015 307.454 155.411 307.168 155.961 307.168C156.467 307.168 156.841 307.454 157.061 307.982C157.281 308.532 157.413 309.192 157.413 309.94C157.413 311.942 156.907 312.932 155.917 312.932ZM169.275 306.53C169.803 306.53 170.199 306.816 170.507 307.366C170.793 307.916 170.947 308.598 170.947 309.434C170.947 310.27 170.793 310.974 170.507 311.502C170.199 312.052 169.803 312.316 169.275 312.316C168.725 312.316 168.307 312.052 168.021 311.502C167.713 310.974 167.581 310.27 167.581 309.434C167.581 308.598 167.713 307.916 168.021 307.366C168.307 306.816 168.725 306.53 169.275 306.53ZM165.095 303.626C164.281 303.626 163.621 303.89 163.093 304.418C162.565 304.946 162.323 305.364 162.323 305.672C162.323 305.804 162.389 305.914 162.521 306.002C162.829 306.222 163.027 306.486 163.159 306.794C163.291 307.102 163.357 307.564 163.357 308.136C163.357 316.188 163.335 320.28 163.313 320.39C163.313 320.456 163.335 320.5 163.401 320.5C164.149 320.654 164.831 320.72 165.447 320.72C166.305 320.72 167.031 320.654 167.647 320.5C167.713 320.5 167.757 320.456 167.757 320.368V313.438H167.823C168.461 314.714 169.451 315.352 170.793 315.352C172.157 315.352 173.279 314.758 174.137 313.526C174.973 312.316 175.413 310.908 175.413 309.302C175.413 307.674 175.017 306.332 174.269 305.276C173.521 304.22 172.465 303.67 171.123 303.67C170.375 303.67 169.693 303.868 169.055 304.264C168.395 304.66 167.955 305.21 167.713 305.914H167.647C167.625 305.826 167.581 305.672 167.537 305.452C167.163 304.242 166.349 303.626 165.095 303.626ZM188.658 313.042C188.042 312.646 187.734 311.92 187.734 310.886L187.822 308.18C187.866 306.684 187.404 305.54 186.392 304.77C185.38 304 183.994 303.604 182.19 303.56C180.606 303.538 179.242 303.868 178.12 304.528C176.976 305.21 176.426 306.156 176.426 307.388C176.426 308.4 176.756 309.192 177.438 309.786C178.12 310.38 178.912 310.71 179.792 310.776C179.726 310.996 179.572 311.172 179.33 311.304C179.066 311.436 178.824 311.502 178.604 311.502C178.362 311.502 178.142 311.48 177.944 311.414C177.746 311.37 177.592 311.304 177.482 311.238C177.372 311.194 177.306 311.15 177.284 311.15C177.108 311.15 176.888 311.37 176.646 311.788C176.404 312.228 176.294 312.69 176.294 313.218C176.294 313.922 176.514 314.472 176.998 314.868C177.482 315.264 178.054 315.44 178.758 315.44C180.672 315.44 181.86 313.988 182.3 311.04C182.718 311.04 183.048 311.04 183.312 311.018V312.712C183.312 313.592 183.554 314.252 184.082 314.736C184.588 315.22 185.248 315.44 186.084 315.44C186.876 315.44 187.536 315.176 188.064 314.648C188.592 314.12 188.856 313.702 188.856 313.372C188.856 313.24 188.79 313.13 188.658 313.042ZM182.806 309.126C182.146 309.126 181.684 308.972 181.376 308.62C181.068 308.29 180.936 307.894 180.936 307.41C180.936 307.058 181.046 306.75 181.288 306.486C181.508 306.222 181.838 306.112 182.234 306.112C182.696 306.134 183.026 306.288 183.202 306.574C183.378 306.882 183.488 307.3 183.488 307.828L183.444 309.104L182.806 309.126ZM195.13 314.89C195.13 314.956 195.152 315 195.218 315C195.966 315.154 196.714 315.22 197.418 315.22C198.21 315.22 198.914 315.154 199.53 315C199.596 315 199.64 314.956 199.64 314.868V309.06C199.64 308.312 199.794 307.718 200.102 307.278C200.41 306.838 200.74 306.596 201.092 306.596C201.312 306.596 201.51 306.706 201.664 306.926C201.796 307.146 201.884 307.476 201.884 307.894V312.712C201.884 313.592 202.126 314.252 202.654 314.736C203.16 315.22 203.82 315.44 204.656 315.44C205.448 315.44 206.108 315.176 206.636 314.648C207.164 314.12 207.428 313.702 207.428 313.372C207.428 313.24 207.362 313.13 207.23 313.042C206.614 312.646 206.306 311.92 206.306 310.886C206.306 310.27 206.306 309.522 206.306 308.62C206.306 307.718 206.328 307.146 206.328 306.882C206.328 305.826 206.02 305.012 205.448 304.44C204.876 303.868 204.15 303.56 203.292 303.56C202.61 303.56 201.928 303.758 201.246 304.154C200.542 304.55 200.014 305.166 199.618 306.002H199.552C199.53 305.914 199.508 305.76 199.486 305.584C199.354 304.968 199.068 304.484 198.628 304.11C198.188 303.758 197.638 303.56 196.956 303.56C196.142 303.56 195.482 303.824 194.954 304.352C194.426 304.88 194.184 305.298 194.184 305.606C194.184 305.738 194.25 305.848 194.382 305.936C194.69 306.156 194.888 306.42 195.02 306.728C195.152 307.036 195.218 307.498 195.218 308.07C195.218 312.382 195.174 314.67 195.13 314.89ZM214.165 303.582C212.383 303.582 210.909 304.132 209.765 305.232C208.599 306.332 208.027 307.74 208.027 309.5C208.027 311.282 208.599 312.712 209.743 313.812C210.887 314.912 212.361 315.462 214.165 315.462C215.969 315.462 217.443 314.912 218.587 313.812C219.731 312.712 220.325 311.26 220.325 309.5C220.325 307.784 219.731 306.354 218.587 305.254C217.421 304.154 215.947 303.582 214.165 303.582ZM214.165 312.976C213.549 312.976 213.109 312.668 212.823 312.008C212.515 311.37 212.383 310.534 212.383 309.5C212.383 307.168 212.977 306.002 214.165 306.002C214.781 306.002 215.221 306.332 215.529 306.97C215.815 307.608 215.969 308.444 215.969 309.5C215.969 311.832 215.353 312.976 214.165 312.976ZM234.32 306.31V306.2L234.694 305.958C234.936 305.804 235.244 305.562 235.596 305.254C235.948 304.946 236.3 304.616 236.652 304.242C237.004 303.89 237.29 303.45 237.554 302.966C237.796 302.482 237.928 302.02 237.928 301.558C237.928 300.942 237.84 300.458 237.664 300.084C237.488 299.71 237.312 299.512 237.136 299.512L236.322 299.644C235.772 299.754 235.134 299.798 234.43 299.798C234.1 299.798 233.264 299.732 231.944 299.6C230.602 299.468 229.81 299.38 229.546 299.38C228.358 299.38 227.478 299.688 226.884 300.26C226.29 300.854 226.004 301.624 226.004 302.548C226.004 302.9 226.048 303.274 226.18 303.648C226.29 304.044 226.444 304.352 226.62 304.594C226.796 304.836 226.95 304.946 227.126 304.924C227.236 304.924 227.412 304.858 227.676 304.748C227.94 304.66 228.292 304.55 228.776 304.462C229.26 304.374 229.854 304.308 230.558 304.308C231.086 304.308 231.878 304.396 232.912 304.55L232.956 304.682C232.604 305.298 232.208 305.738 231.79 306.002C231.086 305.892 230.492 305.958 230.008 306.178C229.524 306.42 229.326 306.772 229.392 307.212C229.436 307.674 229.744 307.96 230.294 308.092C230.822 308.224 231.35 308.158 231.856 307.938L232.01 307.982C232.098 308.026 232.23 308.092 232.384 308.202C232.516 308.312 232.67 308.444 232.824 308.598C232.978 308.774 233.11 308.994 233.22 309.302C233.308 309.61 233.374 309.962 233.374 310.358C233.374 310.974 233.242 311.524 232.978 311.964C232.714 312.426 232.34 312.646 231.878 312.646C230.91 312.646 230.448 312.096 230.448 310.996C230.448 310.82 230.448 310.666 230.492 310.49C230.514 310.314 230.536 310.226 230.536 310.182C230.536 309.984 230.36 309.742 230.008 309.478C229.656 309.214 229.216 309.082 228.688 309.082C227.786 309.082 227.126 309.346 226.708 309.852C226.268 310.38 226.07 310.974 226.07 311.678C226.07 312.734 226.554 313.636 227.522 314.362C228.49 315.088 229.964 315.44 231.922 315.44C232.67 315.44 233.418 315.352 234.144 315.154C234.87 314.956 235.552 314.67 236.19 314.274C236.828 313.9 237.334 313.372 237.73 312.712C238.126 312.052 238.324 311.282 238.324 310.424C238.324 310.05 238.258 309.654 238.126 309.258C237.994 308.862 237.796 308.466 237.532 308.048C237.246 307.63 236.828 307.256 236.278 306.948C235.706 306.64 235.068 306.42 234.32 306.31ZM243.542 299.38C243.454 299.38 243.366 299.424 243.256 299.512C242.64 299.996 242.068 300.392 241.496 300.722C240.924 301.074 240.484 301.316 240.154 301.448C239.802 301.58 239.516 301.712 239.252 301.8C238.988 301.91 238.812 301.998 238.702 302.086C238.592 302.174 238.548 302.284 238.548 302.416C238.548 302.57 238.614 302.68 238.768 302.746C238.9 302.834 239.076 302.922 239.296 303.01C239.516 303.098 239.736 303.252 239.956 303.45C240.176 303.648 240.352 304 240.506 304.484C240.638 304.968 240.726 305.606 240.726 306.354V314.868V314.912L240.792 314.978C241.452 315.154 242.222 315.22 243.124 315.22C243.828 315.22 244.532 315.154 245.28 314.978C245.324 314.978 245.368 314.934 245.368 314.868V299.49C245.368 299.424 245.302 299.38 245.214 299.38H243.542ZM257.972 303.582C256.19 303.582 254.716 304.132 253.572 305.232C252.406 306.332 251.834 307.74 251.834 309.5C251.834 311.282 252.406 312.712 253.55 313.812C254.694 314.912 256.168 315.462 257.972 315.462C259.776 315.462 261.25 314.912 262.394 313.812C263.538 312.712 264.132 311.26 264.132 309.5C264.132 307.784 263.538 306.354 262.394 305.254C261.228 304.154 259.754 303.582 257.972 303.582ZM257.972 312.976C257.356 312.976 256.916 312.668 256.63 312.008C256.322 311.37 256.19 310.534 256.19 309.5C256.19 307.168 256.784 306.002 257.972 306.002C258.588 306.002 259.028 306.332 259.336 306.97C259.622 307.608 259.776 308.444 259.776 309.5C259.776 311.832 259.16 312.976 257.972 312.976ZM276.931 312.91C276.579 312.712 276.249 312.426 275.985 312.03C275.699 311.656 275.457 311.282 275.281 310.886C275.083 310.512 274.885 310.138 274.665 309.742C274.445 309.368 274.181 309.038 273.873 308.774C273.543 308.51 273.169 308.312 272.729 308.224C272.839 307.916 273.037 307.652 273.301 307.41C273.565 307.19 273.873 307.058 274.225 307.058C274.511 307.058 274.797 307.146 275.105 307.278C275.413 307.432 275.567 307.498 275.589 307.498C275.787 307.498 276.029 307.322 276.315 306.948C276.601 306.574 276.755 306.156 276.755 305.672C276.755 305.122 276.557 304.638 276.161 304.22C275.765 303.824 275.193 303.604 274.445 303.604C273.433 303.604 272.575 304.022 271.893 304.858C271.211 305.694 270.837 306.816 270.793 308.224H270.089V306.266C270.089 305.474 269.825 304.814 269.319 304.33C268.791 303.846 268.131 303.604 267.339 303.604C266.525 303.604 265.865 303.868 265.337 304.396C264.809 304.924 264.567 305.342 264.567 305.65C264.567 305.782 264.633 305.892 264.765 305.98C265.315 306.376 265.601 306.992 265.601 307.85V314.868C265.601 314.934 265.623 314.978 265.689 314.978C266.481 315.132 267.229 315.198 267.911 315.198C268.395 315.198 269.077 315.132 270.001 314.978L270.089 314.846V310.27C270.199 310.27 270.309 310.292 270.397 310.336C270.485 310.38 270.573 310.424 270.617 310.446C270.661 310.49 270.727 310.556 270.771 310.666C270.815 310.798 270.837 310.864 270.837 310.886C270.837 310.93 270.859 311.018 270.903 311.15L270.947 311.37C271.057 311.964 271.189 312.47 271.343 312.888C271.475 313.306 271.695 313.724 271.959 314.12C272.223 314.538 272.553 314.846 272.993 315.066C273.411 315.286 273.917 315.374 274.511 315.374C275.369 315.374 276.051 315.154 276.557 314.692C277.041 314.23 277.305 313.79 277.305 313.372C277.305 313.218 277.173 313.064 276.931 312.91ZM296.488 312.998C295.872 312.602 295.564 311.876 295.564 310.842C295.564 310.226 295.564 309.5 295.564 308.62C295.564 307.762 295.586 307.212 295.586 306.948C295.586 305.892 295.278 305.078 294.706 304.506C294.134 303.934 293.408 303.626 292.55 303.626C291.076 303.626 289.976 304.44 289.228 306.068H289.162C288.986 305.298 288.634 304.704 288.106 304.264C287.578 303.846 286.94 303.626 286.214 303.626C284.74 303.626 283.64 304.44 282.892 306.068H282.826C282.782 305.782 282.76 305.628 282.76 305.584C282.606 304.99 282.32 304.506 281.88 304.154C281.44 303.802 280.89 303.626 280.23 303.626C279.416 303.626 278.756 303.89 278.228 304.418C277.7 304.946 277.458 305.364 277.458 305.672C277.458 305.804 277.524 305.914 277.656 306.002C277.964 306.222 278.162 306.486 278.294 306.794C278.426 307.102 278.492 307.564 278.492 308.136C278.492 312.404 278.448 314.67 278.404 314.89C278.404 314.956 278.426 315 278.492 315C279.24 315.154 279.988 315.22 280.692 315.22C281.484 315.22 282.188 315.154 282.804 315C282.87 315 282.914 314.956 282.914 314.868V309.126C282.914 308.378 283.024 307.762 283.266 307.322C283.508 306.882 283.794 306.662 284.146 306.662C284.586 306.662 284.806 307.102 284.806 307.96V314.89C284.806 314.956 284.828 315 284.894 315C285.642 315.154 286.368 315.22 287.028 315.22C287.82 315.22 288.524 315.154 289.14 315C289.206 315 289.25 314.956 289.25 314.868V309.126C289.25 308.378 289.36 307.762 289.602 307.322C289.844 306.882 290.13 306.662 290.482 306.662C290.922 306.662 291.142 307.102 291.142 307.96V312.668C291.142 313.548 291.384 314.208 291.912 314.692C292.418 315.176 293.078 315.396 293.914 315.396C294.706 315.396 295.366 315.132 295.894 314.604C296.422 314.076 296.686 313.658 296.686 313.328C296.686 313.196 296.62 313.086 296.488 312.998ZM309.637 313.042C309.021 312.646 308.713 311.92 308.713 310.886L308.801 308.18C308.845 306.684 308.383 305.54 307.371 304.77C306.359 304 304.973 303.604 303.169 303.56C301.585 303.538 300.221 303.868 299.099 304.528C297.955 305.21 297.405 306.156 297.405 307.388C297.405 308.4 297.735 309.192 298.417 309.786C299.099 310.38 299.891 310.71 300.771 310.776C300.705 310.996 300.551 311.172 300.309 311.304C300.045 311.436 299.803 311.502 299.583 311.502C299.341 311.502 299.121 311.48 298.923 311.414C298.725 311.37 298.571 311.304 298.461 311.238C298.351 311.194 298.285 311.15 298.263 311.15C298.087 311.15 297.867 311.37 297.625 311.788C297.383 312.228 297.273 312.69 297.273 313.218C297.273 313.922 297.493 314.472 297.977 314.868C298.461 315.264 299.033 315.44 299.737 315.44C301.651 315.44 302.839 313.988 303.279 311.04C303.697 311.04 304.027 311.04 304.291 311.018V312.712C304.291 313.592 304.533 314.252 305.061 314.736C305.567 315.22 306.227 315.44 307.063 315.44C307.855 315.44 308.515 315.176 309.043 314.648C309.571 314.12 309.835 313.702 309.835 313.372C309.835 313.24 309.769 313.13 309.637 313.042ZM303.785 309.126C303.125 309.126 302.663 308.972 302.355 308.62C302.047 308.29 301.915 307.894 301.915 307.41C301.915 307.058 302.025 306.75 302.267 306.486C302.487 306.222 302.817 306.112 303.213 306.112C303.675 306.134 304.005 306.288 304.181 306.574C304.357 306.882 304.467 307.3 304.467 307.828L304.423 309.104L303.785 309.126ZM317.359 304.462C316.457 304.506 315.665 304.748 314.983 305.232C314.279 305.716 313.751 306.398 313.399 307.278H313.311L313.267 306.816C313.223 306.508 313.289 306.09 313.465 305.584C313.619 305.1 313.883 304.66 314.279 304.286C314.741 303.824 315.401 303.494 316.237 303.296C317.073 303.098 317.909 302.922 318.745 302.746C319.581 302.57 320.219 302.284 320.681 301.866C321.473 301.14 321.891 300.128 321.891 298.808C321.891 298.456 321.803 298.126 321.649 297.796C321.495 297.466 321.363 297.29 321.231 297.29C321.165 297.29 321.099 297.312 321.033 297.356C320.945 297.4 320.835 297.488 320.659 297.576C320.483 297.686 320.263 297.774 320.043 297.862C319.559 298.06 318.789 298.302 317.689 298.566C316.589 298.83 315.599 299.16 314.741 299.534C313.861 299.93 313.091 300.458 312.431 301.118C310.891 302.658 310.121 304.99 310.121 308.114C310.121 310.446 310.649 312.25 311.749 313.526C312.849 314.802 314.279 315.44 316.061 315.44C317.821 315.44 319.273 314.868 320.373 313.702C321.473 312.536 322.045 311.106 322.045 309.412C322.045 307.96 321.605 306.75 320.725 305.804C319.845 304.88 318.723 304.418 317.359 304.462ZM316.083 312.932C315.555 312.932 315.181 312.624 314.939 311.964C314.675 311.326 314.565 310.644 314.565 309.94C314.565 309.192 314.675 308.532 314.939 307.982C315.181 307.454 315.577 307.168 316.127 307.168C316.633 307.168 317.007 307.454 317.227 307.982C317.447 308.532 317.579 309.192 317.579 309.94C317.579 311.942 317.073 312.932 316.083 312.932ZM329.441 306.53C329.969 306.53 330.365 306.816 330.673 307.366C330.959 307.916 331.113 308.598 331.113 309.434C331.113 310.27 330.959 310.974 330.673 311.502C330.365 312.052 329.969 312.316 329.441 312.316C328.891 312.316 328.473 312.052 328.187 311.502C327.879 310.974 327.747 310.27 327.747 309.434C327.747 308.598 327.879 307.916 328.187 307.366C328.473 306.816 328.891 306.53 329.441 306.53ZM325.261 303.626C324.447 303.626 323.787 303.89 323.259 304.418C322.731 304.946 322.489 305.364 322.489 305.672C322.489 305.804 322.555 305.914 322.687 306.002C322.995 306.222 323.193 306.486 323.325 306.794C323.457 307.102 323.523 307.564 323.523 308.136C323.523 316.188 323.501 320.28 323.479 320.39C323.479 320.456 323.501 320.5 323.567 320.5C324.315 320.654 324.997 320.72 325.613 320.72C326.471 320.72 327.197 320.654 327.813 320.5C327.879 320.5 327.923 320.456 327.923 320.368V313.438H327.989C328.627 314.714 329.617 315.352 330.959 315.352C332.323 315.352 333.445 314.758 334.303 313.526C335.139 312.316 335.579 310.908 335.579 309.302C335.579 307.674 335.183 306.332 334.435 305.276C333.687 304.22 332.631 303.67 331.289 303.67C330.541 303.67 329.859 303.868 329.221 304.264C328.561 304.66 328.121 305.21 327.879 305.914H327.813C327.791 305.826 327.747 305.672 327.703 305.452C327.329 304.242 326.515 303.626 325.261 303.626ZM348.825 313.042C348.209 312.646 347.901 311.92 347.901 310.886L347.989 308.18C348.033 306.684 347.571 305.54 346.559 304.77C345.547 304 344.161 303.604 342.357 303.56C340.773 303.538 339.409 303.868 338.287 304.528C337.143 305.21 336.593 306.156 336.593 307.388C336.593 308.4 336.923 309.192 337.605 309.786C338.287 310.38 339.079 310.71 339.959 310.776C339.893 310.996 339.739 311.172 339.497 311.304C339.233 311.436 338.991 311.502 338.771 311.502C338.529 311.502 338.309 311.48 338.111 311.414C337.913 311.37 337.759 311.304 337.649 311.238C337.539 311.194 337.473 311.15 337.451 311.15C337.275 311.15 337.055 311.37 336.813 311.788C336.571 312.228 336.461 312.69 336.461 313.218C336.461 313.922 336.681 314.472 337.165 314.868C337.649 315.264 338.221 315.44 338.925 315.44C340.839 315.44 342.027 313.988 342.467 311.04C342.885 311.04 343.215 311.04 343.479 311.018V312.712C343.479 313.592 343.721 314.252 344.249 314.736C344.755 315.22 345.415 315.44 346.251 315.44C347.043 315.44 347.703 315.176 348.231 314.648C348.759 314.12 349.023 313.702 349.023 313.372C349.023 313.24 348.957 313.13 348.825 313.042ZM342.973 309.126C342.313 309.126 341.851 308.972 341.543 308.62C341.235 308.29 341.103 307.894 341.103 307.41C341.103 307.058 341.213 306.75 341.455 306.486C341.675 306.222 342.005 306.112 342.401 306.112C342.863 306.134 343.193 306.288 343.369 306.574C343.545 306.882 343.655 307.3 343.655 307.828L343.611 309.104L342.973 309.126ZM366.098 309.808C365.988 309.808 365.834 309.874 365.658 309.962C365.482 310.072 365.196 310.182 364.8 310.292C364.404 310.402 363.898 310.446 363.282 310.446C362.798 310.446 361.368 310.402 359.036 310.314C358.992 310.27 358.992 310.248 359.036 310.248C359.344 310.16 359.74 310.028 360.224 309.83C360.708 309.654 361.302 309.368 362.05 308.972C362.798 308.576 363.458 308.158 364.074 307.696C364.668 307.234 365.196 306.662 365.68 305.98C366.164 305.298 366.428 304.594 366.494 303.868C366.604 302.46 366.142 301.316 365.108 300.436C364.052 299.578 362.534 299.138 360.532 299.138C358.816 299.138 357.408 299.534 356.33 300.326C355.252 301.118 354.724 302.108 354.724 303.274C354.724 303.978 354.944 304.572 355.428 305.012C355.912 305.452 356.484 305.672 357.188 305.672C357.672 305.672 358.112 305.562 358.508 305.342C358.904 305.122 359.124 304.902 359.124 304.682C359.124 304.66 359.102 304.55 359.08 304.352C359.036 304.176 359.036 304.022 359.036 303.934C359.036 303.406 359.146 302.944 359.41 302.57C359.674 302.218 359.982 302.02 360.378 302.02C360.84 302.02 361.17 302.196 361.39 302.548C361.61 302.9 361.676 303.384 361.61 303.956C361.522 304.616 361.236 305.276 360.708 305.892C360.18 306.53 359.564 307.102 358.882 307.608C358.178 308.136 357.496 308.664 356.836 309.192C356.154 309.72 355.582 310.336 355.12 311.04C354.636 311.744 354.416 312.492 354.416 313.262C354.416 313.702 354.504 314.142 354.68 314.604C354.856 315.088 355.032 315.308 355.208 315.308L356.198 315.176C356.858 315.088 357.54 315.022 358.266 315.022C358.816 315.022 359.828 315.11 361.324 315.242C362.798 315.374 363.59 315.44 363.678 315.44C364.844 315.44 365.724 315.154 366.318 314.56C366.912 313.988 367.22 313.218 367.22 312.272C367.22 311.744 367.088 311.194 366.846 310.644C366.582 310.094 366.34 309.808 366.098 309.808ZM381.493 307.3C381.493 305.76 381.251 304.374 380.811 303.186C380.371 301.998 379.601 301.03 378.545 300.26C377.489 299.512 376.169 299.116 374.585 299.116C372.429 299.116 370.757 299.908 369.525 301.448C368.293 303.01 367.699 304.968 367.699 307.3C367.699 309.676 368.315 311.612 369.569 313.152C370.801 314.692 372.473 315.44 374.585 315.44C376.807 315.44 378.523 314.692 379.711 313.152C380.899 311.634 381.493 309.676 381.493 307.3ZM372.451 307.3C372.451 305.848 372.627 304.616 373.023 303.626C373.397 302.636 373.925 302.13 374.585 302.13C375.289 302.13 375.839 302.614 376.191 303.582C376.543 304.55 376.741 305.804 376.741 307.3C376.741 310.754 376.015 312.47 374.585 312.47C373.859 312.47 373.331 312.008 372.979 311.04C372.627 310.094 372.451 308.84 372.451 307.3ZM393.405 309.808C393.295 309.808 393.141 309.874 392.965 309.962C392.789 310.072 392.503 310.182 392.107 310.292C391.711 310.402 391.205 310.446 390.589 310.446C390.105 310.446 388.675 310.402 386.343 310.314C386.299 310.27 386.299 310.248 386.343 310.248C386.651 310.16 387.047 310.028 387.531 309.83C388.015 309.654 388.609 309.368 389.357 308.972C390.105 308.576 390.765 308.158 391.381 307.696C391.975 307.234 392.503 306.662 392.987 305.98C393.471 305.298 393.735 304.594 393.801 303.868C393.911 302.46 393.449 301.316 392.415 300.436C391.359 299.578 389.841 299.138 387.839 299.138C386.123 299.138 384.715 299.534 383.637 300.326C382.559 301.118 382.031 302.108 382.031 303.274C382.031 303.978 382.251 304.572 382.735 305.012C383.219 305.452 383.791 305.672 384.495 305.672C384.979 305.672 385.419 305.562 385.815 305.342C386.211 305.122 386.431 304.902 386.431 304.682C386.431 304.66 386.409 304.55 386.387 304.352C386.343 304.176 386.343 304.022 386.343 303.934C386.343 303.406 386.453 302.944 386.717 302.57C386.981 302.218 387.289 302.02 387.685 302.02C388.147 302.02 388.477 302.196 388.697 302.548C388.917 302.9 388.983 303.384 388.917 303.956C388.829 304.616 388.543 305.276 388.015 305.892C387.487 306.53 386.871 307.102 386.189 307.608C385.485 308.136 384.803 308.664 384.143 309.192C383.461 309.72 382.889 310.336 382.427 311.04C381.943 311.744 381.723 312.492 381.723 313.262C381.723 313.702 381.811 314.142 381.987 314.604C382.163 315.088 382.339 315.308 382.515 315.308L383.505 315.176C384.165 315.088 384.847 315.022 385.573 315.022C386.123 315.022 387.135 315.11 388.631 315.242C390.105 315.374 390.897 315.44 390.985 315.44C392.151 315.44 393.031 315.154 393.625 314.56C394.219 313.988 394.527 313.218 394.527 312.272C394.527 311.744 394.395 311.194 394.153 310.644C393.889 310.094 393.647 309.808 393.405 309.808ZM408.799 307.3C408.799 305.76 408.557 304.374 408.117 303.186C407.677 301.998 406.907 301.03 405.851 300.26C404.795 299.512 403.475 299.116 401.891 299.116C399.735 299.116 398.063 299.908 396.831 301.448C395.599 303.01 395.005 304.968 395.005 307.3C395.005 309.676 395.621 311.612 396.875 313.152C398.107 314.692 399.779 315.44 401.891 315.44C404.113 315.44 405.829 314.692 407.017 313.152C408.205 311.634 408.799 309.676 408.799 307.3ZM399.757 307.3C399.757 305.848 399.933 304.616 400.329 303.626C400.703 302.636 401.231 302.13 401.891 302.13C402.595 302.13 403.145 302.614 403.497 303.582C403.849 304.55 404.047 305.804 404.047 307.3C404.047 310.754 403.321 312.47 401.891 312.47C401.165 312.47 400.637 312.008 400.285 311.04C399.933 310.094 399.757 308.84 399.757 307.3ZM425.047 311.458C424.937 311.458 424.717 311.546 424.365 311.7C424.013 311.854 423.551 312.008 422.979 312.184C422.407 312.36 421.835 312.426 421.263 312.426C420.559 312.426 420.229 312.228 420.229 311.81C420.229 311.546 420.383 311.304 420.713 311.084C421.021 310.864 421.417 310.644 421.879 310.424C422.341 310.204 422.803 309.962 423.265 309.698C423.727 309.434 424.123 309.06 424.453 308.576C424.761 308.114 424.937 307.564 424.937 306.948C424.937 305.848 424.453 304.99 423.507 304.418C422.561 303.846 421.461 303.56 420.207 303.56C418.645 303.56 417.325 303.978 416.225 304.77C415.125 305.584 414.597 306.464 414.597 307.388C414.597 307.564 414.685 307.652 414.861 307.652C414.949 307.652 415.169 307.564 415.521 307.388C415.873 307.212 416.335 307.036 416.907 306.86C417.457 306.684 418.029 306.596 418.623 306.596C418.953 306.596 419.239 306.684 419.459 306.816C419.679 306.97 419.811 307.168 419.811 307.432C419.811 307.74 419.635 308.026 419.283 308.268C418.931 308.51 418.535 308.73 418.051 308.928C417.567 309.148 417.083 309.368 416.599 309.632C416.115 309.896 415.719 310.27 415.411 310.754C415.081 311.238 414.927 311.788 414.971 312.426C415.015 313.35 415.433 314.098 416.247 314.626C417.039 315.176 418.139 315.44 419.503 315.44C421.065 315.44 422.407 315.066 423.551 314.274C424.695 313.504 425.267 312.646 425.311 311.722C425.311 311.546 425.223 311.458 425.047 311.458ZM432.21 303.582C430.428 303.582 428.954 304.132 427.81 305.232C426.644 306.332 426.072 307.74 426.072 309.5C426.072 311.282 426.644 312.712 427.788 313.812C428.932 314.912 430.406 315.462 432.21 315.462C434.014 315.462 435.488 314.912 436.632 313.812C437.776 312.712 438.37 311.26 438.37 309.5C438.37 307.784 437.776 306.354 436.632 305.254C435.466 304.154 433.992 303.582 432.21 303.582ZM432.21 312.976C431.594 312.976 431.154 312.668 430.868 312.008C430.56 311.37 430.428 310.534 430.428 309.5C430.428 307.168 431.022 306.002 432.21 306.002C432.826 306.002 433.266 306.332 433.574 306.97C433.86 307.608 434.014 308.444 434.014 309.5C434.014 311.832 433.398 312.976 432.21 312.976ZM451.364 307.476C451.364 304.638 450.792 302.394 449.648 300.722C448.504 299.072 446.898 298.236 444.808 298.236C443.664 298.236 442.608 298.61 441.596 299.314C440.584 300.04 440.034 300.854 439.946 301.734C439.902 301.998 440.012 302.13 440.254 302.13C440.298 302.13 440.496 302.064 440.804 301.888C441.112 301.712 441.53 301.558 442.014 301.382C442.498 301.206 442.982 301.118 443.466 301.118C444.654 301.118 445.534 301.558 446.084 302.438C446.634 303.318 446.92 304.374 446.92 305.562H446.854C446.854 305.562 446.832 305.496 446.766 305.408C446.678 305.32 446.568 305.188 446.414 305.056C446.238 304.924 446.062 304.77 445.842 304.638C445.622 304.506 445.336 304.396 445.028 304.308C444.698 304.22 444.368 304.154 444.016 304.154C442.564 304.154 441.42 304.682 440.54 305.694C439.66 306.706 439.242 308.026 439.242 309.61C439.242 311.326 439.77 312.712 440.826 313.812C441.882 314.912 443.312 315.44 445.094 315.44C447.074 315.44 448.614 314.736 449.714 313.284C450.814 311.832 451.364 309.896 451.364 307.476ZM445.204 312.888C444.236 312.844 443.752 311.7 443.796 309.456C443.796 308.708 443.928 308.07 444.192 307.542C444.434 307.014 444.808 306.772 445.336 306.816C446.348 306.904 446.832 307.894 446.81 309.764C446.788 310.204 446.766 310.578 446.722 310.886C446.678 311.194 446.59 311.524 446.502 311.876C446.392 312.228 446.238 312.47 446.018 312.646C445.798 312.822 445.512 312.91 445.204 312.888ZM464.321 310.864C464.321 309.874 464.343 307.63 464.387 304.132C464.387 304.088 464.343 304.044 464.277 304C463.661 303.89 462.957 303.824 462.187 303.824C461.483 303.824 460.801 303.89 460.163 304C460.075 304.044 460.053 304.088 460.053 304.132L459.833 305.54H459.767C459.459 304.968 459.041 304.506 458.469 304.176C457.897 303.846 457.259 303.67 456.533 303.67C455.169 303.67 454.091 304.286 453.299 305.474C452.507 306.684 452.111 308.092 452.111 309.698C452.111 311.26 452.485 312.602 453.277 313.702C454.047 314.802 455.103 315.352 456.423 315.352C457.171 315.352 457.831 315.154 458.447 314.758C459.063 314.362 459.525 313.812 459.833 313.108H459.899C459.987 313.812 460.295 314.384 460.801 314.78C461.285 315.176 461.923 315.374 462.671 315.374C463.375 315.374 464.013 315.154 464.585 314.692C465.157 314.23 465.443 313.768 465.443 313.328C465.443 313.196 465.377 313.086 465.245 312.998C464.629 312.602 464.321 311.876 464.321 310.864ZM458.293 312.316C457.765 312.316 457.347 312.052 457.061 311.502C456.753 310.974 456.621 310.27 456.621 309.434C456.621 308.598 456.753 307.916 457.061 307.366C457.347 306.816 457.765 306.53 458.293 306.53C458.821 306.53 459.239 306.816 459.547 307.366C459.833 307.916 459.987 308.598 459.987 309.434C459.987 310.27 459.833 310.974 459.547 311.502C459.239 312.052 458.821 312.316 458.293 312.316Z" fill="white"/>
</g>
<defs>
<filter id="filter0_d" x="39" y="68" width="450" height="234" filterUnits="userSpaceOnUse" color-interpolation-filters="sRGB">
<feFlood flood-opacity="0" result="BackgroundImageFix"/>
<feColorMatrix in="SourceAlpha" type="matrix" values="0 0 0 0 0 0 0 0 0 0 0 0 0 0 0 0 0 0 127 0"/>
<feOffset/>
<feGaussianBlur stdDeviation="10"/>
<feColorMatrix type="matrix" values="0 0 0 0 0.231373 0 0 0 0 0.172549 0 0 0 0 0.447059 0 0 0 1 0"/>
<feBlend mode="normal" in2="BackgroundImageFix" result="effect1_dropShadow"/>
<feBlend mode="normal" in="SourceGraphic" in2="effect1_dropShadow" result="shape"/>
</filter>
<filter id="filter1_d" x="41.8472" y="277.29" width="443.596" height="63.43" filterUnits="userSpaceOnUse" color-interpolation-filters="sRGB">
<feFlood flood-opacity="0" result="BackgroundImageFix"/>
<feColorMatrix in="SourceAlpha" type="matrix" values="0 0 0 0 0 0 0 0 0 0 0 0 0 0 0 0 0 0 127 0"/>
<feOffset/>
<feGaussianBlur stdDeviation="10"/>
<feColorMatrix type="matrix" values="0 0 0 0 0.231373 0 0 0 0 0.172549 0 0 0 0 0.447059 0 0 0 1 0"/>
<feBlend mode="normal" in2="BackgroundImageFix" result="effect1_dropShadow"/>
<feBlend mode="normal" in="SourceGraphic" in2="effect1_dropShadow" result="shape"/>
</filter>
<clipPath id="clip0">
<rect width="31.364" height="31.364" fill="white" transform="translate(0 277.299) rotate(-69.0942)"/>
</clipPath>
</defs>
</svg>
