<svg width="521" height="344" viewBox="0 0 521 344" fill="none" xmlns="http://www.w3.org/2000/svg">
<path fill-rule="evenodd" clip-rule="evenodd" d="M492.717 112.641C492.717 112.641 490.73 93.6493 505.342 85.6433C522.56 76.2106 525.842 97.2278 513.695 104.793C505.497 109.9 492.717 112.641 492.717 112.641Z" fill="white"/>
<path fill-rule="evenodd" clip-rule="evenodd" d="M492.823 113.976C492.823 113.976 506.694 101.766 501.862 85.6497C496.176 66.6627 480.069 79.3981 483.484 93.4494C485.66 100.687 488.802 107.593 492.823 113.976Z" fill="white"/>
<g clip-path="url(#clip0)">
<path fill-rule="evenodd" clip-rule="evenodd" d="M31.113 280.599C31.113 280.599 15.885 276.537 14.0155 262.913C11.8136 246.859 28.9852 250.519 31.2407 262.113C32.764 269.938 31.113 280.599 31.113 280.599Z" fill="white"/>
<path fill-rule="evenodd" clip-rule="evenodd" d="M32.1739 280.91C32.1739 280.91 26.845 266.619 12.9957 265.598C-3.3186 264.39 1.7569 280.56 13.5969 282.065C19.8183 282.519 26.0679 282.13 32.1739 280.91Z" fill="white"/>
</g>
<path fill-rule="evenodd" clip-rule="evenodd" d="M428.247 67.8827C428.247 67.8827 442.3 71.7368 450.828 61.5742C460.879 49.6055 445.511 44.5053 437.731 52.8405C433.903 57.4083 430.713 62.4688 428.247 67.8827Z" fill="white"/>
<path fill-rule="evenodd" clip-rule="evenodd" d="M500.226 123.759C500.226 123.759 508.207 129.329 515.848 124.842C524.851 119.559 516.322 112.911 509.56 116.415C506.129 118.433 502.989 120.904 500.226 123.759Z" fill="white"/>
<rect x="173" width="182" height="53" rx="26.5" fill="white"/>
<path d="M307.017 32.2412H301.125V33.8777H303.223V38.8126H304.932V33.8777H307.017V32.2412Z" fill="#5FAF2D"/>
<path d="M225.577 35.5271C225.577 33.571 227.066 32.0624 229.086 32.0624C230.394 32.0624 231.52 32.74 232.064 33.7628L230.588 34.6193C230.316 34.0824 229.746 33.7372 229.073 33.7372C228.05 33.7372 227.286 34.4915 227.286 35.5399C227.286 36.5754 228.05 37.3297 229.073 37.3297C229.759 37.3297 230.342 36.9973 230.601 36.4604L232.09 37.3042C231.52 38.327 230.394 39.0046 229.086 39.0046C227.066 38.9918 225.577 37.4832 225.577 35.5271Z" fill="#5FAF2D"/>
<path d="M239.225 32.2413L236.803 38.8127C236.117 40.7049 234.887 41.5359 233.294 41.4336V39.8611C234.201 39.8739 234.68 39.5543 234.991 38.736L232.31 32.2541H234.136L235.923 36.6649L237.399 32.2541H239.225V32.2413Z" fill="#5FAF2D"/>
<path d="M246.112 38.8126H244.39V33.8265H241.748V38.8126H240.026V32.2412H246.112V38.8126Z" fill="#5FAF2D"/>
<path d="M250.734 37.4577C251.394 37.4577 251.925 37.1765 252.223 36.8057L253.609 37.5984C252.987 38.4933 251.99 39.0047 250.708 39.0047C248.468 39.0047 247.07 37.4961 247.07 35.54C247.07 33.5839 248.494 32.0753 250.579 32.0753C252.547 32.0753 253.945 33.6095 253.945 35.54C253.945 35.7957 253.919 36.013 253.881 36.2304H248.869C249.103 37.087 249.828 37.4577 250.734 37.4577ZM252.223 34.9136C252.016 33.9675 251.291 33.5839 250.579 33.5839C249.659 33.5839 249.038 34.0698 248.831 34.9136H252.223Z" fill="#5FAF2D"/>
<path d="M261.986 35.5271C261.986 37.4832 260.523 38.9918 258.736 38.9918C257.765 38.9918 257.065 38.6338 256.586 38.0329V41.4337H254.877V32.2414H256.586V33.0212C257.065 32.4204 257.777 32.0624 258.736 32.0624C260.523 32.0624 261.986 33.571 261.986 35.5271ZM260.277 35.5271C260.277 34.4276 259.487 33.6733 258.425 33.6733C257.376 33.6733 256.586 34.4276 256.586 35.5271C256.586 36.6266 257.376 37.3809 258.425 37.3809C259.487 37.3809 260.277 36.6266 260.277 35.5271Z" fill="#5FAF2D"/>
<path d="M269.845 38.8126H268.187V34.9772L266.491 37.5981H266.284L264.575 34.9516V38.8126H262.93V32.2412H264.613L266.387 35.0027L268.161 32.2412H269.845V38.8126Z" fill="#5FAF2D"/>
<path d="M277.924 32.2414V38.8128H276.202V38.0329C275.723 38.621 275.011 38.9918 274.04 38.9918C272.266 38.9918 270.803 37.4832 270.803 35.5271C270.803 33.571 272.266 32.0624 274.04 32.0624C275.011 32.0624 275.723 32.4331 276.202 33.0212V32.2414H277.924ZM276.202 35.5271C276.202 34.4276 275.412 33.6733 274.351 33.6733C273.302 33.6733 272.512 34.4276 272.512 35.5271C272.512 36.6266 273.302 37.3809 274.351 37.3809C275.412 37.3809 276.202 36.6266 276.202 35.5271Z" fill="#5FAF2D"/>
<path d="M286.327 35.5271C286.327 37.4832 284.864 38.9918 283.077 38.9918C282.106 38.9918 281.407 38.6338 280.928 38.0329V41.4337H279.219V32.2414H280.928V33.0212C281.407 32.4204 282.119 32.0624 283.077 32.0624C284.864 32.0624 286.327 33.571 286.327 35.5271ZM284.605 35.5271C284.605 34.4276 283.815 33.6733 282.754 33.6733C281.705 33.6733 280.915 34.4276 280.915 35.5271C280.915 36.6266 281.705 37.3809 282.754 37.3809C283.815 37.3809 284.605 36.6266 284.605 35.5271Z" fill="#5FAF2D"/>
<path d="M297.384 37.4577C298.044 37.4577 298.575 37.1765 298.873 36.8057L300.259 37.5984C299.637 38.4933 298.64 39.0047 297.358 39.0047C295.118 39.0047 293.719 37.4961 293.719 35.54C293.719 33.5839 295.144 32.0753 297.229 32.0753C299.197 32.0753 300.595 33.6095 300.595 35.54C300.595 35.7957 300.569 36.013 300.53 36.2304H295.519C295.739 37.087 296.478 37.4577 297.384 37.4577ZM298.873 34.9136C298.666 33.9675 297.941 33.5839 297.229 33.5839C296.309 33.5839 295.688 34.0698 295.48 34.9136H298.873Z" fill="#5FAF2D"/>
<path d="M291.622 38.8126H293.616L291.066 35.4886L293.539 32.2412H291.493L289.564 34.9132H288.981V32.2412H287.272V38.8126H288.981V36.2173H289.693L291.622 38.8126Z" fill="#5FAF2D"/>
<path d="M317.893 16.6061H309.982V18.7923H312.778V25.4276H315.083V18.7923H317.893V16.6061Z" fill="#005A28"/>
<path d="M241.618 23.6116C242.512 23.6116 243.224 23.2408 243.625 22.7294L245.49 23.7906C244.648 24.9924 243.315 25.6827 241.593 25.6827C238.589 25.6827 236.698 23.6499 236.698 21.029C236.698 18.3954 238.615 16.3754 241.411 16.3754C244.053 16.3754 245.93 18.4465 245.93 21.029C245.93 21.3615 245.891 21.6683 245.839 21.9623H239.107C239.417 23.113 240.401 23.6116 241.618 23.6116ZM243.625 20.1852C243.34 18.9196 242.369 18.4082 241.411 18.4082C240.181 18.4082 239.34 19.0602 239.068 20.1852H243.625Z" fill="#005A28"/>
<path d="M257.104 21.0167C257.104 23.6504 255.136 25.6704 252.741 25.6704C251.433 25.6704 250.488 25.1973 249.841 24.3791V28.9433H247.536V16.6059H249.841V17.6415C250.488 16.8233 251.433 16.3502 252.741 16.3502C255.136 16.363 257.104 18.383 257.104 21.0167ZM254.8 21.0167C254.8 19.5336 253.738 18.5236 252.314 18.5236C250.902 18.5236 249.854 19.5336 249.854 21.0167C249.854 22.4997 250.902 23.5097 252.314 23.5097C253.738 23.5097 254.8 22.4997 254.8 21.0167Z" fill="#005A28"/>
<path d="M263.202 23.6116C264.095 23.6116 264.808 23.2408 265.209 22.7294L267.073 23.7906C266.232 24.9924 264.898 25.6827 263.176 25.6827C260.172 25.6827 258.282 23.6499 258.282 21.029C258.282 18.3954 260.198 16.3754 262.995 16.3754C265.636 16.3754 267.514 18.4465 267.514 21.029C267.514 21.3615 267.475 21.6683 267.423 21.9623H260.69C261.001 23.113 261.985 23.6116 263.202 23.6116ZM265.196 20.1852C264.911 18.9196 263.94 18.4082 262.982 18.4082C261.752 18.4082 260.91 19.0602 260.638 20.1852H265.196Z" fill="#005A28"/>
<path d="M288.722 21.0167C288.722 23.6504 286.754 25.6704 284.359 25.6704C283.051 25.6704 282.106 25.1973 281.458 24.3791V28.9433H279.154V16.6059H281.458V17.6415C282.106 16.8233 283.051 16.3502 284.359 16.3502C286.754 16.363 288.722 18.383 288.722 21.0167ZM286.417 21.0167C286.417 19.5336 285.356 18.5236 283.931 18.5236C282.52 18.5236 281.471 19.5336 281.471 21.0167C281.471 22.4997 282.52 23.5097 283.931 23.5097C285.356 23.5097 286.417 22.4997 286.417 21.0167Z" fill="#005A28"/>
<path d="M294.82 23.6123C295.714 23.6123 296.426 23.2415 296.827 22.7301L298.692 23.7912C297.85 24.993 296.516 25.6834 294.794 25.6834C291.791 25.6834 289.9 23.6506 289.9 21.0297C289.9 18.396 291.816 16.376 294.613 16.376C297.254 16.376 299.132 18.4472 299.132 21.0297C299.132 21.3621 299.093 21.669 299.041 21.963H292.308C292.619 23.1136 293.603 23.6123 294.82 23.6123ZM291.583 14.4839C291.583 13.8319 292.14 13.2821 292.8 13.2821C293.461 13.2821 293.992 13.8319 293.992 14.4839C293.992 15.1359 293.461 15.6729 292.8 15.6729C292.14 15.6729 291.583 15.1359 291.583 14.4839ZM296.814 20.1859C296.529 18.9202 295.558 18.4088 294.6 18.4088C293.37 18.4088 292.529 19.0609 292.257 20.1859H296.814ZM294.976 14.4839C294.976 13.8319 295.532 13.2821 296.193 13.2821C296.853 13.2821 297.397 13.8319 297.397 14.4839C297.397 15.1359 296.866 15.6729 296.193 15.6729C295.532 15.6729 294.976 15.1359 294.976 14.4839Z" fill="#005A28"/>
<path d="M300.206 21.0167C300.206 18.383 302.213 16.363 304.919 16.363C306.667 16.363 308.195 17.2835 308.92 18.6387L306.939 19.7894C306.576 19.0606 305.813 18.6132 304.906 18.6132C303.534 18.6132 302.511 19.6232 302.511 21.0295C302.511 22.4231 303.534 23.4331 304.906 23.4331C305.838 23.4331 306.602 22.9856 306.965 22.2696L308.972 23.3947C308.208 24.7755 306.68 25.6832 304.932 25.6832C302.2 25.6704 300.206 23.6504 300.206 21.0167Z" fill="#005A28"/>
<path d="M318.644 21.0167C318.644 18.383 320.728 16.363 323.357 16.363C325.985 16.363 328.095 18.3958 328.095 21.0167C328.095 23.6504 325.985 25.6704 323.357 25.6704C320.741 25.6704 318.644 23.6504 318.644 21.0167ZM325.791 21.0167C325.791 19.5848 324.742 18.5876 323.357 18.5876C321.997 18.5876 320.948 19.5976 320.948 21.0167C320.948 22.4486 321.997 23.4586 323.357 23.4586C324.742 23.4586 325.791 22.4486 325.791 21.0167Z" fill="#005A28"/>
<path d="M274.971 25.4276H277.652L274.22 20.9657L277.535 16.6061H274.79L272.214 20.1858H271.424V16.6061H269.119V25.4276H271.424V21.9501H272.382L274.971 25.4276Z" fill="#005A28"/>
<path d="M335.139 16.6061L332.562 20.1858H331.772V16.6061H329.468V25.4276H331.772V21.9501H332.743L335.32 25.4276H338L334.582 20.9657L337.896 16.6061H335.139Z" fill="#005A28"/>
<path d="M235.171 25.4277H232.711V15.5706H228.296V25.4277H225.823V13.2821H235.171V25.4277Z" fill="#005A28"/>
<path d="M207.968 21.5916L204.032 25.4782L200.096 21.5916C197.921 19.4438 197.921 15.9663 200.096 13.8312C202.271 11.6834 205.793 11.6834 207.968 13.8312C210.143 15.9791 210.143 19.4566 207.968 21.5916Z" fill="#5FAF2D"/>
<path d="M200.096 32.51L204.032 28.6234L207.968 32.51C210.143 34.6579 210.143 38.1353 207.968 40.2832C205.793 42.431 202.271 42.431 200.109 40.2832C197.934 38.1353 197.934 34.6579 200.096 32.51Z" fill="#005A28"/>
<path d="M209.561 30.9377L205.625 27.0511L209.561 23.1645C211.736 21.0166 215.258 21.0166 217.433 23.1645C219.608 25.3123 219.608 28.7898 217.433 30.9377C215.258 33.0855 211.736 33.0855 209.561 30.9377Z" fill="#1E8737"/>
<path d="M198.504 23.164L202.44 27.0506L198.504 30.9372C196.328 33.0851 192.807 33.0851 190.631 30.9372C188.456 28.7894 188.456 25.3119 190.631 23.164C192.82 21.029 196.341 21.029 198.504 23.164Z" fill="#AAE641"/>
<path d="M307.017 32.2412H301.125V33.8777H303.223V38.8126H304.932V33.8777H307.017V32.2412Z" fill="#5FAF2D"/>
<path d="M225.577 35.5271C225.577 33.571 227.066 32.0624 229.086 32.0624C230.394 32.0624 231.52 32.74 232.064 33.7628L230.588 34.6193C230.316 34.0824 229.746 33.7372 229.073 33.7372C228.05 33.7372 227.286 34.4915 227.286 35.5399C227.286 36.5754 228.05 37.3297 229.073 37.3297C229.759 37.3297 230.342 36.9973 230.601 36.4604L232.09 37.3042C231.52 38.327 230.394 39.0046 229.086 39.0046C227.066 38.9918 225.577 37.4832 225.577 35.5271Z" fill="#5FAF2D"/>
<path d="M239.225 32.2413L236.803 38.8127C236.117 40.7049 234.887 41.5359 233.294 41.4336V39.8611C234.201 39.8739 234.68 39.5543 234.991 38.736L232.31 32.2541H234.136L235.923 36.6649L237.399 32.2541H239.225V32.2413Z" fill="#5FAF2D"/>
<path d="M246.112 38.8126H244.39V33.8265H241.748V38.8126H240.026V32.2412H246.112V38.8126Z" fill="#5FAF2D"/>
<path d="M250.734 37.4577C251.394 37.4577 251.925 37.1765 252.223 36.8057L253.609 37.5984C252.987 38.4933 251.99 39.0047 250.708 39.0047C248.468 39.0047 247.07 37.4961 247.07 35.54C247.07 33.5839 248.494 32.0753 250.579 32.0753C252.547 32.0753 253.945 33.6095 253.945 35.54C253.945 35.7957 253.919 36.013 253.881 36.2304H248.869C249.103 37.087 249.828 37.4577 250.734 37.4577ZM252.223 34.9136C252.016 33.9675 251.291 33.5839 250.579 33.5839C249.659 33.5839 249.038 34.0698 248.831 34.9136H252.223Z" fill="#5FAF2D"/>
<path d="M261.986 35.5271C261.986 37.4832 260.523 38.9918 258.736 38.9918C257.765 38.9918 257.065 38.6338 256.586 38.0329V41.4337H254.877V32.2414H256.586V33.0212C257.065 32.4204 257.777 32.0624 258.736 32.0624C260.523 32.0624 261.986 33.571 261.986 35.5271ZM260.277 35.5271C260.277 34.4276 259.487 33.6733 258.425 33.6733C257.376 33.6733 256.586 34.4276 256.586 35.5271C256.586 36.6266 257.376 37.3809 258.425 37.3809C259.487 37.3809 260.277 36.6266 260.277 35.5271Z" fill="#5FAF2D"/>
<path d="M269.845 38.8126H268.187V34.9772L266.491 37.5981H266.284L264.575 34.9516V38.8126H262.93V32.2412H264.613L266.387 35.0027L268.161 32.2412H269.845V38.8126Z" fill="#5FAF2D"/>
<path d="M277.924 32.2414V38.8128H276.202V38.0329C275.723 38.621 275.011 38.9918 274.04 38.9918C272.266 38.9918 270.803 37.4832 270.803 35.5271C270.803 33.571 272.266 32.0624 274.04 32.0624C275.011 32.0624 275.723 32.4331 276.202 33.0212V32.2414H277.924ZM276.202 35.5271C276.202 34.4276 275.412 33.6733 274.351 33.6733C273.302 33.6733 272.512 34.4276 272.512 35.5271C272.512 36.6266 273.302 37.3809 274.351 37.3809C275.412 37.3809 276.202 36.6266 276.202 35.5271Z" fill="#5FAF2D"/>
<path d="M286.327 35.5271C286.327 37.4832 284.864 38.9918 283.077 38.9918C282.106 38.9918 281.407 38.6338 280.928 38.0329V41.4337H279.219V32.2414H280.928V33.0212C281.407 32.4204 282.119 32.0624 283.077 32.0624C284.864 32.0624 286.327 33.571 286.327 35.5271ZM284.605 35.5271C284.605 34.4276 283.815 33.6733 282.754 33.6733C281.705 33.6733 280.915 34.4276 280.915 35.5271C280.915 36.6266 281.705 37.3809 282.754 37.3809C283.815 37.3809 284.605 36.6266 284.605 35.5271Z" fill="#5FAF2D"/>
<path d="M297.384 37.4577C298.044 37.4577 298.575 37.1765 298.873 36.8057L300.259 37.5984C299.637 38.4933 298.64 39.0047 297.358 39.0047C295.118 39.0047 293.719 37.4961 293.719 35.54C293.719 33.5839 295.144 32.0753 297.229 32.0753C299.197 32.0753 300.595 33.6095 300.595 35.54C300.595 35.7957 300.569 36.013 300.53 36.2304H295.519C295.739 37.087 296.478 37.4577 297.384 37.4577ZM298.873 34.9136C298.666 33.9675 297.941 33.5839 297.229 33.5839C296.309 33.5839 295.688 34.0698 295.48 34.9136H298.873Z" fill="#5FAF2D"/>
<path d="M291.622 38.8126H293.616L291.066 35.4886L293.539 32.2412H291.493L289.564 34.9132H288.981V32.2412H287.272V38.8126H288.981V36.2173H289.693L291.622 38.8126Z" fill="#5FAF2D"/>
<path d="M317.893 16.6061H309.982V18.7923H312.778V25.4276H315.083V18.7923H317.893V16.6061Z" fill="#005A28"/>
<path d="M241.618 23.6116C242.512 23.6116 243.224 23.2408 243.625 22.7294L245.49 23.7906C244.648 24.9924 243.315 25.6827 241.593 25.6827C238.589 25.6827 236.698 23.6499 236.698 21.029C236.698 18.3954 238.615 16.3754 241.411 16.3754C244.053 16.3754 245.93 18.4465 245.93 21.029C245.93 21.3615 245.891 21.6683 245.839 21.9623H239.107C239.417 23.113 240.401 23.6116 241.618 23.6116ZM243.625 20.1852C243.34 18.9196 242.369 18.4082 241.411 18.4082C240.181 18.4082 239.34 19.0602 239.068 20.1852H243.625Z" fill="#005A28"/>
<path d="M257.104 21.0167C257.104 23.6504 255.136 25.6704 252.741 25.6704C251.433 25.6704 250.488 25.1973 249.841 24.3791V28.9433H247.536V16.6059H249.841V17.6415C250.488 16.8233 251.433 16.3502 252.741 16.3502C255.136 16.363 257.104 18.383 257.104 21.0167ZM254.8 21.0167C254.8 19.5336 253.738 18.5236 252.314 18.5236C250.902 18.5236 249.854 19.5336 249.854 21.0167C249.854 22.4997 250.902 23.5097 252.314 23.5097C253.738 23.5097 254.8 22.4997 254.8 21.0167Z" fill="#005A28"/>
<path d="M263.202 23.6116C264.095 23.6116 264.808 23.2408 265.209 22.7294L267.073 23.7906C266.232 24.9924 264.898 25.6827 263.176 25.6827C260.172 25.6827 258.282 23.6499 258.282 21.029C258.282 18.3954 260.198 16.3754 262.995 16.3754C265.636 16.3754 267.514 18.4465 267.514 21.029C267.514 21.3615 267.475 21.6683 267.423 21.9623H260.69C261.001 23.113 261.985 23.6116 263.202 23.6116ZM265.196 20.1852C264.911 18.9196 263.94 18.4082 262.982 18.4082C261.752 18.4082 260.91 19.0602 260.638 20.1852H265.196Z" fill="#005A28"/>
<path d="M288.722 21.0167C288.722 23.6504 286.754 25.6704 284.359 25.6704C283.051 25.6704 282.106 25.1973 281.458 24.3791V28.9433H279.154V16.6059H281.458V17.6415C282.106 16.8233 283.051 16.3502 284.359 16.3502C286.754 16.363 288.722 18.383 288.722 21.0167ZM286.417 21.0167C286.417 19.5336 285.356 18.5236 283.931 18.5236C282.52 18.5236 281.471 19.5336 281.471 21.0167C281.471 22.4997 282.52 23.5097 283.931 23.5097C285.356 23.5097 286.417 22.4997 286.417 21.0167Z" fill="#005A28"/>
<path d="M294.82 23.6123C295.714 23.6123 296.426 23.2415 296.827 22.7301L298.692 23.7912C297.85 24.993 296.516 25.6834 294.794 25.6834C291.791 25.6834 289.9 23.6506 289.9 21.0297C289.9 18.396 291.816 16.376 294.613 16.376C297.254 16.376 299.132 18.4472 299.132 21.0297C299.132 21.3621 299.093 21.669 299.041 21.963H292.308C292.619 23.1136 293.603 23.6123 294.82 23.6123ZM291.583 14.4839C291.583 13.8319 292.14 13.2821 292.8 13.2821C293.461 13.2821 293.992 13.8319 293.992 14.4839C293.992 15.1359 293.461 15.6729 292.8 15.6729C292.14 15.6729 291.583 15.1359 291.583 14.4839ZM296.814 20.1859C296.529 18.9202 295.558 18.4088 294.6 18.4088C293.37 18.4088 292.529 19.0609 292.257 20.1859H296.814ZM294.976 14.4839C294.976 13.8319 295.532 13.2821 296.193 13.2821C296.853 13.2821 297.397 13.8319 297.397 14.4839C297.397 15.1359 296.866 15.6729 296.193 15.6729C295.532 15.6729 294.976 15.1359 294.976 14.4839Z" fill="#005A28"/>
<path d="M300.206 21.0167C300.206 18.383 302.213 16.363 304.919 16.363C306.667 16.363 308.195 17.2835 308.92 18.6387L306.939 19.7894C306.576 19.0606 305.813 18.6132 304.906 18.6132C303.534 18.6132 302.511 19.6232 302.511 21.0295C302.511 22.4231 303.534 23.4331 304.906 23.4331C305.838 23.4331 306.602 22.9856 306.965 22.2696L308.972 23.3947C308.208 24.7755 306.68 25.6832 304.932 25.6832C302.2 25.6704 300.206 23.6504 300.206 21.0167Z" fill="#005A28"/>
<path d="M318.644 21.0167C318.644 18.383 320.728 16.363 323.357 16.363C325.985 16.363 328.095 18.3958 328.095 21.0167C328.095 23.6504 325.985 25.6704 323.357 25.6704C320.741 25.6704 318.644 23.6504 318.644 21.0167ZM325.791 21.0167C325.791 19.5848 324.742 18.5876 323.357 18.5876C321.997 18.5876 320.948 19.5976 320.948 21.0167C320.948 22.4486 321.997 23.4586 323.357 23.4586C324.742 23.4586 325.791 22.4486 325.791 21.0167Z" fill="#005A28"/>
<path d="M274.971 25.4276H277.652L274.22 20.9657L277.535 16.6061H274.79L272.214 20.1858H271.424V16.6061H269.119V25.4276H271.424V21.9501H272.382L274.971 25.4276Z" fill="#005A28"/>
<path d="M335.139 16.6061L332.562 20.1858H331.772V16.6061H329.468V25.4276H331.772V21.9501H332.743L335.32 25.4276H338L334.582 20.9657L337.896 16.6061H335.139Z" fill="#005A28"/>
<path d="M235.171 25.4277H232.711V15.5706H228.296V25.4277H225.823V13.2821H235.171V25.4277Z" fill="#005A28"/>
<path d="M207.968 21.5916L204.032 25.4782L200.096 21.5916C197.921 19.4438 197.921 15.9663 200.096 13.8312C202.271 11.6834 205.793 11.6834 207.968 13.8312C210.143 15.9791 210.143 19.4566 207.968 21.5916Z" fill="#5FAF2D"/>
<path d="M200.096 32.51L204.032 28.6234L207.968 32.51C210.143 34.6579 210.143 38.1353 207.968 40.2832C205.793 42.431 202.271 42.431 200.109 40.2832C197.934 38.1353 197.934 34.6579 200.096 32.51Z" fill="#005A28"/>
<path d="M209.561 30.9377L205.625 27.0511L209.561 23.1645C211.736 21.0166 215.258 21.0166 217.433 23.1645C219.608 25.3123 219.608 28.7898 217.433 30.9377C215.258 33.0855 211.736 33.0855 209.561 30.9377Z" fill="#1E8737"/>
<path d="M198.504 23.164L202.44 27.0506L198.504 30.9372C196.328 33.0851 192.807 33.0851 190.631 30.9372C188.456 28.7894 188.456 25.3119 190.631 23.164C192.82 21.029 196.341 21.029 198.504 23.164Z" fill="#AAE641"/>
<g filter="url(#filter0_d)">
<path d="M59.1 151.2H81.9C93.1 151.2 102.4 145.1 102.4 133.2C102.4 126.1 98.6 119.9 91.9 117.9V117.7C96.8 115.2 99.8 110.3 99.8 104.1C99.8 93.9 92.2 88 81.4 88H59.1V151.2ZM68 114.6V95.7H81.2C87.2 95.7 90.7 99.5 90.7 105C90.7 110.5 87.1 114.6 81.3 114.6H68ZM68 143.5V121.9H82.3C89 121.9 93.2 126.3 93.2 132.6C93.2 139.1 89.1 143.4 82.3 143.4H68V143.5Z" fill="white"/>
<path d="M165.6 151.2H174.4V88H165.6V151.2ZM115.3 151.2H137.7C148.8 151.2 156.6 143.4 156.6 131.7C156.6 119.1 148.4 111.8 137.2 111.8H124.2V88H115.3V151.2ZM124.2 143.5V119.5H136.1C143.1 119.5 147.6 124.2 147.6 131.7C147.6 139 143.4 143.5 136.3 143.5H124.2Z" fill="white"/>
<path d="M191.3 151.2H200L228.4 110.2C230.7 106.7 233.7 101 233.7 101H233.9C233.9 101 233.4 106.6 233.4 110.2V151.2H242.2V88H233.5L205.3 128.9C203 132.3 199.9 138.2 199.9 138.2H199.7C199.7 138.2 200.2 132.6 200.2 129V88H191.3V151.2Z" fill="white"/>
<path d="M259 151.2H267.9V95.7H294V88H259V151.2Z" fill="white"/>
<path d="M303.6 151.2H312.5V127.9H326.9C338.5 127.9 346.8 119.8 346.8 107.8C346.8 95.8 338.5 88 326.9 88H303.6V151.2ZM312.5 120.2V95.7H325.6C333.1 95.7 337.8 100.3 337.8 107.8C337.8 115.4 333 120.2 325.5 120.2H312.5Z" fill="white"/>
<path d="M347.5 151.2H356.6L363 133H387L393.4 151.2H402.6L379.8 88H370.3L347.5 151.2ZM365.4 125.7L372.5 105.7C373.6 102.4 374.9 96.7 374.9 96.7H375.1C375.1 96.7 376.5 102.4 377.6 105.7L384.6 125.7H365.4Z" fill="white"/>
<path d="M61.547 207.457C61.547 207.633 61.6063 207.751 61.784 207.751C63.7979 208.161 65.8119 208.337 67.7074 208.337C69.8398 208.337 71.7352 208.161 73.3938 207.751C73.5715 207.751 73.69 207.633 73.69 207.399V191.915C73.69 189.921 74.1046 188.337 74.9339 187.164C75.7631 185.991 76.6516 185.346 77.5994 185.346C78.1917 185.346 78.7248 185.639 79.1395 186.226C79.4949 186.812 79.7318 187.692 79.7318 188.806V201.651C79.7318 203.997 80.3834 205.757 81.805 207.047C83.1674 208.337 84.9444 208.924 87.1952 208.924C89.3277 208.924 91.1047 208.22 92.5263 206.812C93.9479 205.405 94.6587 204.29 94.6587 203.411C94.6587 203.059 94.481 202.765 94.1256 202.531C92.467 201.475 91.6378 199.54 91.6378 196.783C91.6378 195.141 91.6378 193.147 91.6378 190.742C91.6378 188.337 91.697 186.812 91.697 186.109C91.697 183.293 90.8677 181.123 89.3277 179.598C87.7876 178.073 85.8329 177.252 83.5228 177.252C81.6865 177.252 79.8503 177.78 78.014 178.836C76.1185 179.891 74.6969 181.534 73.6307 183.762H73.453C73.3938 183.528 73.3346 183.117 73.2753 182.648C72.9199 181.006 72.1499 179.716 70.9652 178.718C69.7805 177.78 68.2997 177.252 66.4634 177.252C64.2718 177.252 62.4948 177.956 61.0732 179.364C59.6516 180.771 59 181.886 59 182.707C59 183.059 59.1777 183.352 59.5331 183.587C60.3624 184.173 60.8955 184.877 61.2509 185.698C61.6063 186.519 61.784 187.751 61.784 189.276C61.784 200.771 61.6655 206.871 61.547 207.457Z" fill="white"/>
<path d="M114.218 185.17C115.64 185.17 116.706 185.933 117.535 187.399C118.305 188.865 118.72 190.683 118.72 192.912C118.72 195.141 118.305 197.018 117.535 198.425C116.706 199.891 115.64 200.595 114.218 200.595C112.737 200.595 111.612 199.891 110.842 198.425C110.013 197.018 109.657 195.141 109.657 192.912C109.657 190.683 110.013 188.865 110.842 187.399C111.612 185.933 112.737 185.17 114.218 185.17ZM102.964 177.428C100.772 177.428 98.9953 178.132 97.5736 179.54C96.152 180.947 95.5005 182.062 95.5005 182.883C95.5005 183.235 95.6782 183.528 96.0336 183.762C96.8628 184.349 97.3959 185.053 97.7513 185.874C98.1067 186.695 98.2844 187.927 98.2844 189.452C98.2844 210.918 98.2252 221.827 98.166 222.12C98.166 222.296 98.2252 222.413 98.4029 222.413C100.417 222.824 102.253 223 103.912 223C106.222 223 108.176 222.824 109.835 222.413C110.013 222.413 110.131 222.296 110.131 222.062V203.587H110.309C112.027 206.988 114.692 208.689 118.305 208.689C121.978 208.689 124.999 207.106 127.309 203.821C129.56 200.595 130.745 196.842 130.745 192.56C130.745 188.22 129.678 184.642 127.664 181.827C125.65 179.012 122.807 177.545 119.194 177.545C117.18 177.545 115.344 178.073 113.626 179.129C111.849 180.185 110.664 181.651 110.013 183.528H109.835C109.776 183.293 109.657 182.883 109.539 182.296C108.532 179.07 106.34 177.428 102.964 177.428Z" fill="white"/>
<path d="M164.995 178.777C164.995 178.66 164.936 178.543 164.818 178.425C162.922 178.073 161.027 177.897 159.131 177.897C157.058 177.897 155.103 178.132 153.208 178.484L152.971 178.836V194.144C152.971 196.196 152.556 197.839 151.727 199.012C150.898 200.185 150.069 200.771 149.121 200.771C148.469 200.771 147.936 200.478 147.581 199.891C147.166 199.305 146.988 198.484 146.988 197.311V184.818C146.988 182.531 146.218 180.713 144.797 179.422C143.375 178.132 141.539 177.487 139.347 177.487C137.156 177.487 135.379 178.191 134.016 179.598C132.595 181.006 131.943 182.179 131.943 183.059C131.943 183.528 132.121 183.821 132.476 183.997C134.135 185.111 135.023 186.93 135.023 189.452V200.067C135.023 202.883 135.793 205.053 137.333 206.519C138.873 208.044 140.828 208.748 143.257 208.748C145.152 208.748 147.048 208.279 148.825 207.282C150.602 206.284 152.023 204.642 153.09 202.296L153.267 202.355C153.326 202.941 153.386 203.352 153.504 203.587C153.86 205.229 154.63 206.46 155.814 207.399C156.94 208.337 158.421 208.806 160.257 208.806C162.448 208.806 164.225 208.103 165.647 206.695C167.009 205.287 167.72 204.173 167.72 203.293C167.72 202.941 167.543 202.648 167.187 202.413C165.647 201.475 164.936 199.598 164.936 196.783C164.936 184.935 164.936 178.894 164.995 178.777Z" fill="white"/>
<path d="M192.075 192.326V192.091C193.734 191.739 195.155 190.977 196.34 189.804C197.525 188.63 198.117 187.223 198.117 185.581C198.117 183.235 196.873 181.299 194.444 179.774C192.016 178.249 188.995 177.428 185.382 177.428C180.643 177.428 176.793 178.601 173.89 180.947C170.988 183.293 169.566 185.463 169.566 187.457C169.566 188.103 169.803 188.396 170.277 188.396C170.573 188.396 171.225 188.161 172.232 187.692C173.179 187.223 174.483 186.754 176.023 186.284C177.563 185.815 179.162 185.522 180.821 185.522C181.946 185.522 182.894 185.698 183.664 185.933C184.434 186.226 184.967 186.578 185.322 186.988C185.619 187.457 185.796 187.809 185.915 188.103C186.033 188.455 186.092 188.748 186.092 189.041C186.092 189.804 185.855 190.507 185.441 191.211C183.368 190.566 181.768 190.449 180.702 190.918C179.577 191.387 179.044 192.15 179.044 193.205C179.044 194.202 179.577 194.906 180.761 195.375C181.887 195.845 183.545 195.61 185.737 194.789L186.033 195.199C186.152 195.551 186.329 196.021 186.507 196.607C186.685 197.194 186.803 197.839 186.803 198.425C186.803 199.481 186.448 200.419 185.796 201.24C185.085 202.062 184.197 202.472 183.012 202.472C181.946 202.472 181.117 202.179 180.406 201.534C179.695 200.947 179.399 200.067 179.399 199.012C179.399 198.777 179.399 198.425 179.517 197.956C179.577 197.487 179.636 197.194 179.636 197.018C179.636 196.666 179.103 196.196 178.037 195.727C176.97 195.258 175.904 194.965 174.838 194.965C173.002 194.965 171.58 195.493 170.573 196.49C169.507 197.545 169.033 198.777 169.033 200.243C169.033 203 170.455 205.111 173.357 206.636C176.2 208.161 179.517 208.865 183.249 208.865C185.974 208.865 188.462 208.572 190.772 207.868C193.082 207.223 195.037 206.167 196.577 204.701C198.117 203.235 198.887 201.475 198.887 199.364C198.887 197.487 198.235 195.962 196.932 194.73C195.629 193.499 194.03 192.677 192.075 192.326Z" fill="white"/>
<path d="M214.552 184.877C214.552 182.589 213.782 180.771 212.36 179.481C210.939 178.191 209.102 177.545 206.911 177.545C204.719 177.545 202.942 178.249 201.58 179.657C200.158 181.065 199.507 182.238 199.507 183.117C199.507 183.587 199.684 183.88 200.04 184.056C201.698 185.17 202.587 186.988 202.587 189.51L202.527 196.196C202.527 197.663 202.764 199.07 203.238 200.478C203.712 201.886 204.423 203.235 205.489 204.525C206.496 205.815 207.977 206.871 209.932 207.633C211.827 208.455 214.137 208.806 216.744 208.806C220.712 208.806 224.029 207.633 226.695 205.229C229.36 202.824 230.723 199.716 230.723 195.962C230.723 192.501 229.597 189.862 227.346 187.985C228.057 186.578 229.005 185.874 230.19 185.874C230.782 185.874 231.256 186.167 231.67 186.636C232.085 187.164 232.322 187.868 232.322 188.806V201.592C232.322 203.938 232.974 205.698 234.395 206.988C235.817 208.279 237.594 208.865 239.845 208.865C241.977 208.865 243.754 208.161 245.176 206.754C246.597 205.346 247.308 204.232 247.308 203.352C247.308 203 247.13 202.707 246.775 202.472C245.116 201.416 244.287 199.481 244.287 196.724V185.581C244.287 183.411 243.458 181.416 241.859 179.657C240.2 177.897 237.712 177.194 234.395 177.545C231.967 177.839 229.834 178.777 227.998 180.419C226.102 182.062 224.681 183.997 223.733 186.226C220.712 185.287 217.632 185.463 214.552 186.695V184.877ZM217.099 202.062C215.322 202.062 214.493 200.361 214.493 196.9V190.742C214.848 190.683 215.263 190.625 215.677 190.625C217.099 190.625 218.224 191.152 218.935 192.208C219.646 193.264 220.001 194.672 220.001 196.314C220.001 197.78 219.705 199.129 219.231 200.302C218.698 201.475 217.987 202.062 217.099 202.062Z" fill="white"/>
<path d="M291.84 186.519C291.84 183.938 290.656 181.768 288.286 180.067C285.917 178.367 282.896 177.487 279.283 177.487C274.189 177.487 270.102 179.012 267.021 182.003C263.941 185.053 262.46 188.748 262.46 193.088C262.46 197.663 263.823 201.358 266.666 204.29C269.509 207.223 273.478 208.689 278.69 208.689C282.541 208.689 285.739 207.575 288.346 205.229C290.952 202.941 292.255 200.947 292.255 199.188C292.255 198.66 292.018 198.367 291.544 198.367C291.307 198.367 290.3 198.777 288.464 199.481C286.628 200.185 284.91 200.537 283.251 200.537C280.171 200.537 277.861 199.657 276.44 197.897C275.018 196.138 274.307 194.026 274.307 191.446C274.307 189.334 274.722 187.457 275.61 185.815C276.44 184.173 277.506 183.352 278.809 183.352C280.349 183.352 281.178 184.525 281.178 186.871C281.178 187.34 281.119 187.927 281.001 188.689C280.882 189.452 280.882 189.921 280.882 190.155C280.882 190.742 281.356 191.328 282.304 191.915C283.251 192.501 284.377 192.736 285.562 192.736C287.576 192.736 289.175 192.091 290.241 190.801C291.307 189.51 291.84 188.103 291.84 186.519Z" fill="white"/>
<path d="M355.908 167.164C355.908 167.047 355.789 166.93 355.552 166.871L354.782 166.695C354.19 166.636 353.361 166.519 352.235 166.402C351.11 166.284 349.984 166.226 348.8 166.226C346.667 166.226 344.594 166.46 342.58 166.871L342.165 167.106C340.685 172.501 338.671 179.246 336.124 187.34H335.59L334.88 184.818C334.406 183.176 333.754 181.182 333.043 178.953C332.273 176.724 331.622 175.082 331.089 173.968C330.615 173.147 330.2 172.384 329.845 171.798C329.489 171.211 328.956 170.507 328.245 169.628C327.535 168.806 326.765 168.103 325.995 167.575C325.165 167.047 324.218 166.578 323.033 166.167C321.848 165.815 320.545 165.581 319.183 165.581C316.576 165.581 314.385 166.284 312.726 167.575C311.008 168.924 310.12 170.155 310.001 171.27C310.001 171.622 310.179 171.974 310.594 172.384C311.008 172.795 311.423 173.381 311.778 174.144C312.134 174.906 312.312 175.845 312.193 176.959C309.765 192.56 308.521 202.765 308.461 207.457C308.461 207.633 308.521 207.751 308.758 207.751L309.291 207.927C309.646 208.044 310.179 208.161 310.949 208.279C311.66 208.396 312.43 208.396 313.2 208.396C314.74 208.396 316.28 208.22 317.761 207.751C317.998 207.751 318.116 207.633 318.116 207.399C318.413 197.076 319.064 188.982 320.012 183.176H320.367C322.026 185.17 324.691 193.264 328.482 207.516L328.838 207.751C329.667 208.103 330.852 208.279 332.392 208.279C333.34 208.279 334.583 208.161 336.183 207.809C336.36 207.692 336.479 207.575 336.538 207.34L344.475 182.472H344.712C346.016 188.924 346.845 197.252 347.082 207.457C347.082 207.692 347.141 207.809 347.378 207.809L348.03 207.985C348.385 208.103 349.155 208.161 350.28 208.279C351.406 208.396 352.709 208.455 354.19 208.455C356.855 208.455 358.81 208.279 360.113 207.809L360.232 207.751C360.291 207.751 360.35 207.751 360.469 207.692C360.587 207.633 360.646 207.516 360.646 207.399C360.409 192.971 358.869 179.598 355.908 167.164Z" fill="white"/>
<path d="M371.716 208.806C373.848 208.806 375.625 208.103 377.047 206.695C378.468 205.287 379.179 204.173 379.179 203.293C379.179 202.941 379.001 202.648 378.646 202.413C376.987 201.358 376.158 199.422 376.158 196.666V178.718C376.158 178.601 376.099 178.484 375.98 178.425C374.263 178.073 372.308 177.839 370.176 177.839C368.221 177.839 366.325 178.073 364.489 178.425C364.311 178.484 364.252 178.601 364.252 178.718V201.534C364.252 203.88 364.904 205.639 366.325 206.93C367.688 208.22 369.465 208.806 371.716 208.806ZM370.472 174.73C372.486 174.73 374.263 174.202 375.743 173.029C377.165 171.915 377.935 170.507 377.935 168.865C377.935 167.282 377.165 165.933 375.743 164.76C374.263 163.587 372.486 163 370.472 163C368.398 163 366.621 163.587 365.2 164.76C363.778 165.933 363.067 167.282 363.067 168.865C363.067 170.507 363.778 171.915 365.2 173.029C366.621 174.202 368.398 174.73 370.472 174.73Z" fill="white"/>
<path d="M388.997 208.806C391.13 208.806 392.907 208.103 394.329 206.695C395.75 205.287 396.461 204.173 396.461 203.293C396.461 202.941 396.283 202.648 395.928 202.413C394.269 201.358 393.44 199.422 393.44 196.666V164.056C393.44 163.938 393.322 163.821 393.203 163.762C391.485 163.411 389.59 163.176 387.457 163.176C385.503 163.176 383.607 163.411 381.771 163.762C381.593 163.821 381.534 163.938 381.534 164.056V201.534C381.534 203.88 382.186 205.639 383.607 206.93C384.97 208.22 386.747 208.806 388.997 208.806Z" fill="white"/>
<path d="M431.276 201.123C430.328 200.654 429.617 200.302 429.203 199.95C426.893 198.308 425.116 196.196 423.813 193.674C425.886 193.205 427.604 192.091 429.025 190.449C430.387 188.806 431.098 186.93 431.098 184.877C431.098 182.413 430.21 180.537 428.492 179.188C426.774 177.897 424.523 177.311 421.799 177.428C419.666 177.545 417.652 178.191 415.816 179.364C413.98 180.537 412.499 182.003 411.433 183.88H411.314V163.997C411.314 163.88 411.255 163.762 411.137 163.704C409.004 163.352 407.049 163.117 405.272 163.117C403.614 163.117 401.718 163.352 399.645 163.704L399.408 163.938V207.399C399.408 207.575 399.467 207.692 399.645 207.692C401.778 208.103 403.732 208.279 405.45 208.279C406.753 208.279 408.589 208.103 411.077 207.692L411.314 207.34V194.672C411.314 189.276 412.914 186.402 416.231 186.05C417.178 185.991 418.008 186.284 418.659 186.871C419.311 187.457 419.548 188.279 419.429 189.276C419.192 190.449 418.659 191.387 417.711 192.15C416.764 192.971 415.638 193.44 414.217 193.616C413.624 193.733 413.387 194.144 413.387 194.73C413.387 195.903 413.565 197.252 413.98 198.777C414.335 200.302 414.927 201.827 415.757 203.352C416.527 204.935 417.652 206.226 419.074 207.282C420.495 208.337 422.154 208.806 423.99 208.806C426.3 208.806 428.196 208.161 429.677 206.812C431.098 205.463 431.868 203.88 431.868 202.003C431.868 201.651 431.631 201.358 431.276 201.123Z" fill="white"/>
<path d="M465.979 196.724C465.979 194.085 466.038 188.103 466.157 178.777C466.157 178.66 466.038 178.543 465.861 178.425C464.202 178.132 462.307 177.956 460.233 177.956C458.338 177.956 456.502 178.132 454.784 178.425C454.547 178.543 454.488 178.66 454.488 178.777L453.895 182.531H453.718C452.888 181.006 451.763 179.774 450.223 178.894C448.683 178.015 446.965 177.545 445.01 177.545C441.338 177.545 438.435 179.188 436.303 182.355C434.171 185.581 433.104 189.334 433.104 193.616C433.104 197.78 434.111 201.358 436.244 204.29C438.317 207.223 441.16 208.689 444.714 208.689C446.728 208.689 448.505 208.161 450.164 207.106C451.822 206.05 453.066 204.584 453.895 202.707H454.073C454.31 204.584 455.139 206.109 456.502 207.164C457.805 208.22 459.523 208.748 461.537 208.748C463.432 208.748 465.15 208.161 466.69 206.93C468.23 205.698 469 204.466 469 203.293C469 202.941 468.822 202.648 468.467 202.413C466.808 201.358 465.979 199.422 465.979 196.724ZM449.749 200.595C448.327 200.595 447.202 199.891 446.432 198.425C445.603 197.018 445.247 195.141 445.247 192.912C445.247 190.683 445.603 188.865 446.432 187.399C447.202 185.933 448.327 185.17 449.749 185.17C451.171 185.17 452.296 185.933 453.125 187.399C453.895 188.865 454.31 190.683 454.31 192.912C454.31 195.141 453.895 197.018 453.125 198.425C452.296 199.891 451.171 200.595 449.749 200.595Z" fill="white"/>
<path d="M81.1186 252.3V252.08C82.4293 251.859 83.5216 251.253 84.45 250.371C85.3239 249.49 85.87 248.388 86.0338 247.065C86.3069 245.082 85.4331 243.208 83.4124 241.555C81.3917 239.902 78.3333 239.02 74.2373 239.02C69.4312 239.02 65.6629 240.343 62.9868 242.878C60.3107 245.467 59 249.049 59 253.678C59 258.802 60.3107 262.604 63.0414 265.029C65.7175 267.508 69.4312 268.72 74.2373 268.72C78.3879 268.72 81.7193 267.784 84.1224 265.8C86.5254 263.816 87.7815 261.612 87.7815 259.078C87.7815 257.149 87.0715 255.606 85.7608 254.449C84.3954 253.292 82.8662 252.576 81.1186 252.3ZM73.6911 245.082C74.3465 245.082 74.8926 245.357 75.3295 245.853C75.7664 246.349 75.9849 246.9 75.9849 247.506C75.9849 248.553 75.4934 249.435 74.6196 250.206C73.6911 250.978 72.3258 251.418 70.4689 251.529H69.9774C69.9228 249.655 70.1958 248.112 70.7966 246.9C71.3973 245.688 72.3804 245.082 73.6911 245.082ZM74.0734 262.769C71.2335 262.769 69.8681 260.345 69.9774 255.441C70.3597 255.441 70.7966 255.386 71.2335 255.386C73.0904 255.386 74.5649 255.827 75.6572 256.653C76.6949 257.48 77.241 258.416 77.241 259.518C77.241 260.4 76.9133 261.171 76.3672 261.833C75.8211 262.494 75.0565 262.769 74.0734 262.769Z" fill="white"/>
<path d="M138.69 229.102C130.607 228.771 124.163 228.551 119.466 228.551C117.008 228.551 114.769 228.716 112.749 228.937C110.673 229.157 109.035 229.488 107.724 229.873C106.413 230.259 105.266 230.7 104.393 231.141C103.464 231.637 102.809 232.078 102.427 232.518C102.044 232.959 101.88 233.345 101.88 233.731C101.88 233.951 101.99 234.227 102.263 234.502C102.481 234.833 102.754 235.108 103.082 235.439C103.355 235.769 103.628 236.376 103.901 237.257C104.12 238.139 104.283 239.241 104.283 240.508V267.398C104.283 267.563 104.338 267.673 104.502 267.673C106.359 268.059 108.27 268.224 110.182 268.224C112.53 268.224 114.442 268.059 115.971 267.673C116.135 267.673 116.244 267.563 116.244 267.343V237.973H127.003V241.059V244.916V249.159V253.512C127.003 254.945 126.948 256.378 126.948 257.755C126.948 259.133 126.948 260.4 126.948 261.557V264.588V266.682V267.398C126.948 267.563 127.003 267.673 127.167 267.673C129.023 268.059 130.935 268.224 132.846 268.224C135.195 268.224 137.106 268.059 138.635 267.673C138.799 267.673 138.909 267.563 138.909 267.343V229.378C138.909 229.267 138.799 229.157 138.69 229.102Z" fill="white"/>
<path d="M156.63 245.082C157.613 245.082 158.323 245.357 158.815 245.853C159.306 246.349 159.579 246.955 159.579 247.727C159.579 248.773 159.033 249.71 157.996 250.537C156.958 251.418 155.538 251.804 153.736 251.804C153.299 251.804 152.862 251.749 152.48 251.749C152.425 249.876 152.753 248.333 153.517 247.01C154.282 245.743 155.32 245.082 156.63 245.082ZM168.973 258.747C168.755 258.747 168.318 258.967 167.553 259.408C166.788 259.849 165.751 260.235 164.44 260.676C163.075 261.116 161.6 261.282 159.962 261.282C158.214 261.282 156.63 260.896 155.21 260.014C153.79 259.133 153.026 257.976 152.807 256.433C153.954 256.873 155.811 257.094 158.323 257.094C159.634 257.094 160.89 256.984 162.201 256.653C163.512 256.378 164.768 255.937 165.969 255.276C167.171 254.614 168.099 253.733 168.864 252.52C169.628 251.308 170.011 249.931 170.011 248.333C170.011 246.018 168.864 243.924 166.679 242.051C164.44 240.178 161.272 239.241 157.231 239.241C152.48 239.241 148.711 240.618 145.926 243.318C143.086 246.073 141.721 249.6 141.721 253.953C141.721 258.416 143.086 261.943 145.926 264.588C148.766 267.233 152.48 268.555 157.122 268.555C159.088 268.555 160.89 268.224 162.529 267.508C164.167 266.847 165.478 265.965 166.461 264.973C167.389 263.982 168.099 263.045 168.645 262.053C169.191 261.061 169.465 260.235 169.465 259.518C169.465 259.022 169.301 258.747 168.973 258.747Z" fill="white"/>
<path d="M188.082 246.459C189.393 246.459 190.376 247.176 191.141 248.553C191.851 249.931 192.233 251.639 192.233 253.733C192.233 255.827 191.851 257.59 191.141 258.912C190.376 260.29 189.393 260.951 188.082 260.951C186.717 260.951 185.679 260.29 184.969 258.912C184.205 257.59 183.877 255.827 183.877 253.733C183.877 251.639 184.205 249.931 184.969 248.553C185.679 247.176 186.717 246.459 188.082 246.459ZM177.706 239.186C175.685 239.186 174.047 239.847 172.736 241.169C171.425 242.492 170.824 243.539 170.824 244.31C170.824 244.641 170.988 244.916 171.316 245.137C172.08 245.688 172.572 246.349 172.9 247.12C173.227 247.892 173.391 249.049 173.391 250.482C173.391 270.649 173.337 280.898 173.282 281.173C173.282 281.339 173.337 281.449 173.5 281.449C175.357 281.835 177.05 282 178.58 282C180.709 282 182.512 281.835 184.041 281.449C184.205 281.449 184.314 281.339 184.314 281.118V263.761H184.478C186.062 266.957 188.519 268.555 191.851 268.555C195.237 268.555 198.022 267.067 200.152 263.982C202.227 260.951 203.32 257.424 203.32 253.402C203.32 249.324 202.337 245.963 200.48 243.318C198.623 240.673 196.001 239.296 192.67 239.296C190.813 239.296 189.12 239.792 187.536 240.784C185.898 241.776 184.805 243.153 184.205 244.916H184.041C183.986 244.696 183.877 244.31 183.768 243.759C182.839 240.729 180.819 239.186 177.706 239.186Z" fill="white"/>
<path d="M220.418 245.082C221.401 245.082 222.111 245.357 222.602 245.853C223.094 246.349 223.367 246.955 223.367 247.727C223.367 248.773 222.821 249.71 221.783 250.537C220.745 251.418 219.325 251.804 217.523 251.804C217.086 251.804 216.649 251.749 216.267 251.749C216.212 249.876 216.54 248.333 217.305 247.01C218.069 245.743 219.107 245.082 220.418 245.082ZM232.76 258.747C232.542 258.747 232.105 258.967 231.34 259.408C230.576 259.849 229.538 260.235 228.227 260.676C226.862 261.116 225.387 261.282 223.749 261.282C222.001 261.282 220.418 260.896 218.998 260.014C217.578 259.133 216.813 257.976 216.595 256.433C217.741 256.873 219.598 257.094 222.111 257.094C223.421 257.094 224.677 256.984 225.988 256.653C227.299 256.378 228.555 255.937 229.757 255.276C230.958 254.614 231.886 253.733 232.651 252.52C233.416 251.308 233.798 249.931 233.798 248.333C233.798 246.018 232.651 243.924 230.466 242.051C228.227 240.178 225.06 239.241 221.018 239.241C216.267 239.241 212.499 240.618 209.713 243.318C206.873 246.073 205.508 249.6 205.508 253.953C205.508 258.416 206.873 261.943 209.713 264.588C212.553 267.233 216.267 268.555 220.909 268.555C222.875 268.555 224.677 268.224 226.316 267.508C227.954 266.847 229.265 265.965 230.248 264.973C231.176 263.982 231.886 263.045 232.433 262.053C232.979 261.061 233.252 260.235 233.252 259.518C233.252 259.022 233.088 258.747 232.76 258.747Z" fill="white"/>
<path d="M265.305 262.439C264.431 261.943 263.612 261.227 262.956 260.235C262.246 259.298 261.645 258.361 261.208 257.369C260.717 256.433 260.225 255.496 259.679 254.504C259.133 253.567 258.478 252.741 257.713 252.08C256.894 251.418 255.966 250.922 254.873 250.702C255.146 249.931 255.638 249.269 256.293 248.663C256.949 248.112 257.713 247.782 258.587 247.782C259.297 247.782 260.007 248.002 260.772 248.333C261.536 248.718 261.918 248.884 261.973 248.884C262.465 248.884 263.065 248.443 263.775 247.506C264.485 246.569 264.868 245.522 264.868 244.31C264.868 242.933 264.376 241.72 263.393 240.673C262.41 239.682 260.99 239.131 259.133 239.131C256.621 239.131 254.491 240.178 252.798 242.271C251.105 244.365 250.177 247.176 250.067 250.702H248.32V245.798C248.32 243.814 247.664 242.161 246.408 240.949C245.097 239.737 243.459 239.131 241.493 239.131C239.472 239.131 237.834 239.792 236.523 241.114C235.212 242.437 234.612 243.484 234.612 244.255C234.612 244.586 234.775 244.861 235.103 245.082C236.468 246.073 237.178 247.616 237.178 249.765V267.343C237.178 267.508 237.233 267.618 237.397 267.618C239.363 268.004 241.22 268.169 242.913 268.169C244.114 268.169 245.807 268.004 248.101 267.618L248.32 267.288V255.827C248.593 255.827 248.866 255.882 249.084 255.992C249.303 256.102 249.521 256.212 249.63 256.267C249.74 256.378 249.903 256.543 250.013 256.818C250.122 257.149 250.177 257.314 250.177 257.369C250.177 257.48 250.231 257.7 250.34 258.031L250.45 258.582C250.723 260.069 251.05 261.337 251.433 262.384C251.76 263.431 252.306 264.478 252.962 265.469C253.617 266.516 254.436 267.288 255.529 267.839C256.566 268.39 257.822 268.61 259.297 268.61C261.427 268.61 263.12 268.059 264.376 266.902C265.578 265.745 266.233 264.643 266.233 263.596C266.233 263.21 265.905 262.824 265.305 262.439Z" fill="white"/>
<path d="M283.87 246.459C285.181 246.459 286.164 247.176 286.928 248.553C287.638 249.931 288.02 251.639 288.02 253.733C288.02 255.827 287.638 257.59 286.928 258.912C286.164 260.29 285.181 260.951 283.87 260.951C282.504 260.951 281.467 260.29 280.757 258.912C279.992 257.59 279.665 255.827 279.665 253.733C279.665 251.639 279.992 249.931 280.757 248.553C281.467 247.176 282.504 246.459 283.87 246.459ZM273.493 239.186C271.472 239.186 269.834 239.847 268.523 241.169C267.213 242.492 266.612 243.539 266.612 244.31C266.612 244.641 266.776 244.916 267.103 245.137C267.868 245.688 268.36 246.349 268.687 247.12C269.015 247.892 269.179 249.049 269.179 250.482C269.179 270.649 269.124 280.898 269.069 281.173C269.069 281.339 269.124 281.449 269.288 281.449C271.145 281.835 272.838 282 274.367 282C276.497 282 278.299 281.835 279.828 281.449C279.992 281.449 280.101 281.339 280.101 281.118V263.761H280.265C281.849 266.957 284.307 268.555 287.638 268.555C291.024 268.555 293.81 267.067 295.939 263.982C298.015 260.951 299.107 257.424 299.107 253.402C299.107 249.324 298.124 245.963 296.267 243.318C294.41 240.673 291.789 239.296 288.457 239.296C286.601 239.296 284.908 239.792 283.324 240.784C281.685 241.776 280.593 243.153 279.992 244.916H279.828C279.774 244.696 279.665 244.31 279.555 243.759C278.627 240.729 276.606 239.186 273.493 239.186Z" fill="white"/>
<path d="M316.205 245.082C317.188 245.082 317.898 245.357 318.39 245.853C318.881 246.349 319.154 246.955 319.154 247.727C319.154 248.773 318.608 249.71 317.57 250.537C316.533 251.418 315.113 251.804 313.311 251.804C312.874 251.804 312.437 251.749 312.054 251.749C312 249.876 312.327 248.333 313.092 247.01C313.857 245.743 314.894 245.082 316.205 245.082ZM328.548 258.747C328.329 258.747 327.892 258.967 327.128 259.408C326.363 259.849 325.326 260.235 324.015 260.676C322.649 261.116 321.175 261.282 319.536 261.282C317.789 261.282 316.205 260.896 314.785 260.014C313.365 259.133 312.601 257.976 312.382 256.433C313.529 256.873 315.386 257.094 317.898 257.094C319.209 257.094 320.465 256.984 321.776 256.653C323.086 256.378 324.343 255.937 325.544 255.276C326.746 254.614 327.674 253.733 328.439 252.52C329.203 251.308 329.585 249.931 329.585 248.333C329.585 246.018 328.439 243.924 326.254 242.051C324.015 240.178 320.847 239.241 316.806 239.241C312.054 239.241 308.286 240.618 305.501 243.318C302.661 246.073 301.295 249.6 301.295 253.953C301.295 258.416 302.661 261.943 305.501 264.588C308.341 267.233 312.054 268.555 316.697 268.555C318.663 268.555 320.465 268.224 322.103 267.508C323.742 266.847 325.052 265.965 326.036 264.973C326.964 263.982 327.674 263.045 328.22 262.053C328.766 261.061 329.039 260.235 329.039 259.518C329.039 259.022 328.875 258.747 328.548 258.747ZM314.73 233.235C314.73 231.802 314.13 230.535 313.037 229.543C311.945 228.551 310.58 228 308.996 228C307.412 228 306.047 228.551 304.955 229.543C303.862 230.535 303.316 231.802 303.316 233.235C303.316 234.667 303.862 235.935 304.955 236.927C306.047 237.973 307.412 238.469 308.996 238.469C310.525 238.469 311.891 237.973 313.037 236.927C314.13 235.935 314.73 234.667 314.73 233.235ZM328.384 233.235C328.384 231.802 327.783 230.535 326.691 229.543C325.599 228.551 324.233 228 322.704 228C321.066 228 319.7 228.551 318.608 229.543C317.516 230.535 316.97 231.802 316.97 233.235C316.97 234.667 317.516 235.935 318.663 236.927C319.755 237.973 321.12 238.469 322.704 238.469C324.233 238.469 325.599 237.973 326.691 236.927C327.783 235.935 328.384 234.667 328.384 233.235Z" fill="white"/>
<path d="M358.571 247.727C358.571 245.302 357.479 243.263 355.294 241.665C353.109 240.067 350.324 239.241 346.993 239.241C342.296 239.241 338.528 240.673 335.688 243.484C332.848 246.349 331.482 249.82 331.482 253.898C331.482 258.196 332.739 261.667 335.36 264.422C337.981 267.178 341.641 268.555 346.447 268.555C349.996 268.555 352.946 267.508 355.349 265.304C357.752 263.155 358.953 261.282 358.953 259.629C358.953 259.133 358.735 258.857 358.298 258.857C358.079 258.857 357.151 259.243 355.458 259.904C353.765 260.565 352.181 260.896 350.652 260.896C347.812 260.896 345.682 260.069 344.371 258.416C343.061 256.763 342.405 254.78 342.405 252.355C342.405 250.371 342.787 248.608 343.607 247.065C344.371 245.522 345.354 244.751 346.556 244.751C347.976 244.751 348.74 245.853 348.74 248.057C348.74 248.498 348.686 249.049 348.577 249.765C348.467 250.482 348.467 250.922 348.467 251.143C348.467 251.694 348.904 252.245 349.778 252.796C350.652 253.347 351.69 253.567 352.782 253.567C354.639 253.567 356.113 252.961 357.096 251.749C358.079 250.537 358.571 249.214 358.571 247.727Z" fill="white"/>
<path d="M407.027 262.659C405.498 261.667 404.733 259.849 404.733 257.259C404.733 255.716 404.733 253.898 404.733 251.694C404.733 249.545 404.788 248.167 404.788 247.506C404.788 244.861 404.023 242.822 402.603 241.39C401.183 239.957 399.381 239.186 397.251 239.186C393.592 239.186 390.861 241.224 389.004 245.302H388.841C388.404 243.373 387.53 241.886 386.219 240.784C384.908 239.737 383.325 239.186 381.522 239.186C377.863 239.186 375.133 241.224 373.276 245.302H373.112C373.003 244.586 372.948 244.2 372.948 244.09C372.566 242.602 371.856 241.39 370.763 240.508C369.671 239.627 368.306 239.186 366.667 239.186C364.647 239.186 363.008 239.847 361.697 241.169C360.387 242.492 359.786 243.539 359.786 244.31C359.786 244.641 359.95 244.916 360.278 245.137C361.042 245.688 361.534 246.349 361.861 247.12C362.189 247.892 362.353 249.049 362.353 250.482C362.353 261.171 362.244 266.847 362.134 267.398C362.134 267.563 362.189 267.673 362.353 267.673C364.21 268.059 366.067 268.224 367.814 268.224C369.78 268.224 371.528 268.059 373.057 267.673C373.221 267.673 373.33 267.563 373.33 267.343V252.961C373.33 251.088 373.603 249.545 374.204 248.443C374.805 247.341 375.515 246.79 376.389 246.79C377.481 246.79 378.027 247.892 378.027 250.041V267.398C378.027 267.563 378.082 267.673 378.246 267.673C380.102 268.059 381.905 268.224 383.543 268.224C385.509 268.224 387.257 268.059 388.786 267.673C388.95 267.673 389.059 267.563 389.059 267.343V252.961C389.059 251.088 389.332 249.545 389.933 248.443C390.534 247.341 391.244 246.79 392.117 246.79C393.21 246.79 393.756 247.892 393.756 250.041V261.833C393.756 264.037 394.357 265.69 395.667 266.902C396.923 268.114 398.562 268.665 400.637 268.665C402.603 268.665 404.242 268.004 405.552 266.682C406.863 265.359 407.518 264.312 407.518 263.486C407.518 263.155 407.355 262.88 407.027 262.659Z" fill="white"/>
<path d="M438.959 262.439C438.086 261.943 437.266 261.227 436.611 260.235C435.901 259.298 435.3 258.361 434.863 257.369C434.372 256.433 433.88 255.496 433.334 254.504C432.788 253.567 432.133 252.741 431.368 252.08C430.549 251.418 429.62 250.922 428.528 250.702C428.801 249.931 429.293 249.269 429.948 248.663C430.603 248.112 431.368 247.782 432.242 247.782C432.952 247.782 433.662 248.002 434.426 248.333C435.191 248.718 435.573 248.884 435.628 248.884C436.119 248.884 436.72 248.443 437.43 247.506C438.14 246.569 438.522 245.522 438.522 244.31C438.522 242.933 438.031 241.72 437.048 240.673C436.065 239.682 434.645 239.131 432.788 239.131C430.276 239.131 428.146 240.178 426.453 242.271C424.76 244.365 423.831 247.176 423.722 250.702H421.975V245.798C421.975 243.814 421.319 242.161 420.063 240.949C418.752 239.737 417.114 239.131 415.148 239.131C413.127 239.131 411.489 239.792 410.178 241.114C408.867 242.437 408.266 243.484 408.266 244.255C408.266 244.586 408.43 244.861 408.758 245.082C410.123 246.073 410.833 247.616 410.833 249.765V267.343C410.833 267.508 410.888 267.618 411.052 267.618C413.018 268.004 414.875 268.169 416.568 268.169C417.769 268.169 419.462 268.004 421.756 267.618L421.975 267.288V255.827C422.248 255.827 422.521 255.882 422.739 255.992C422.958 256.102 423.176 256.212 423.285 256.267C423.394 256.378 423.558 256.543 423.668 256.818C423.777 257.149 423.831 257.314 423.831 257.369C423.831 257.48 423.886 257.7 423.995 258.031L424.104 258.582C424.378 260.069 424.705 261.337 425.087 262.384C425.415 263.431 425.961 264.478 426.617 265.469C427.272 266.516 428.091 267.288 429.184 267.839C430.221 268.39 431.477 268.61 432.952 268.61C435.082 268.61 436.775 268.059 438.031 266.902C439.232 265.745 439.888 264.643 439.888 263.596C439.888 263.21 439.56 262.824 438.959 262.439Z" fill="white"/>
<path d="M455.62 245.082C456.603 245.082 457.313 245.357 457.804 245.853C458.296 246.349 458.569 246.955 458.569 247.727C458.569 248.773 458.023 249.71 456.985 250.537C455.947 251.418 454.527 251.804 452.725 251.804C452.288 251.804 451.851 251.749 451.469 251.749C451.414 249.876 451.742 248.333 452.507 247.01C453.271 245.743 454.309 245.082 455.62 245.082ZM467.962 258.747C467.744 258.747 467.307 258.967 466.542 259.408C465.778 259.849 464.74 260.235 463.429 260.676C462.064 261.116 460.589 261.282 458.951 261.282C457.203 261.282 455.62 260.896 454.2 260.014C452.78 259.133 452.015 257.976 451.797 256.433C452.944 256.873 454.8 257.094 457.313 257.094C458.623 257.094 459.879 256.984 461.19 256.653C462.501 256.378 463.757 255.937 464.959 255.276C466.16 254.614 467.089 253.733 467.853 252.52C468.618 251.308 469 249.931 469 248.333C469 246.018 467.853 243.924 465.669 242.051C463.429 240.178 460.262 239.241 456.22 239.241C451.469 239.241 447.701 240.618 444.915 243.318C442.075 246.073 440.71 249.6 440.71 253.953C440.71 258.416 442.075 261.943 444.915 264.588C447.755 267.233 451.469 268.555 456.111 268.555C458.077 268.555 459.879 268.224 461.518 267.508C463.156 266.847 464.467 265.965 465.45 264.973C466.379 263.982 467.089 263.045 467.635 262.053C468.181 261.061 468.454 260.235 468.454 259.518C468.454 259.022 468.29 258.747 467.962 258.747Z" fill="white"/>
<path d="M412.3 151.2H421L449.4 110.2C451.7 106.7 454.7 101 454.7 101H454.9C454.9 101 454.4 106.6 454.4 110.2V151.2H463.2V88H454.5L426.3 128.9C424 132.3 420.9 138.2 420.9 138.2H420.7C420.7 138.2 421.2 132.6 421.2 129V88H412.3V151.2Z" fill="white"/>
</g>
<g filter="url(#filter1_d)">
<path d="M72.4582 308.312C72.4582 307.256 71.9782 306.368 71.0182 305.672C70.0582 304.976 68.8342 304.616 67.3702 304.616C65.3062 304.616 63.6502 305.24 62.4022 306.464C61.1542 307.712 60.5542 309.224 60.5542 311C60.5542 312.872 61.1062 314.384 62.2582 315.584C63.4102 316.784 65.0182 317.384 67.1302 317.384C68.6902 317.384 69.9862 316.928 71.0422 315.968C72.0982 315.032 72.6262 314.216 72.6262 313.496C72.6262 313.28 72.5302 313.16 72.3382 313.16C72.2422 313.16 71.8342 313.328 71.0902 313.616C70.3462 313.904 69.6502 314.048 68.9782 314.048C67.7302 314.048 66.7942 313.688 66.2182 312.968C65.6422 312.248 65.3542 311.384 65.3542 310.328C65.3542 309.464 65.5222 308.696 65.8822 308.024C66.2182 307.352 66.6502 307.016 67.1782 307.016C67.8022 307.016 68.1382 307.496 68.1382 308.456C68.1382 308.648 68.1142 308.888 68.0662 309.2C68.0182 309.512 68.0182 309.704 68.0182 309.8C68.0182 310.04 68.2102 310.28 68.5942 310.52C68.9782 310.76 69.4342 310.856 69.9142 310.856C70.7302 310.856 71.3782 310.592 71.8102 310.064C72.2422 309.536 72.4582 308.96 72.4582 308.312ZM84.0407 299.96C83.9447 299.96 83.8487 300.008 83.7287 300.104C83.0567 300.632 82.4327 301.064 81.8087 301.424C81.1847 301.808 80.7047 302.072 80.3447 302.216C79.9607 302.36 79.6487 302.504 79.3607 302.6C79.0727 302.72 78.8807 302.816 78.7607 302.912C78.6407 303.008 78.5927 303.128 78.5927 303.272C78.5927 303.44 78.6647 303.56 78.8327 303.632C78.9767 303.728 79.1687 303.824 79.4087 303.92C79.6487 304.016 79.8887 304.184 80.1287 304.4C80.3687 304.616 80.5607 305 80.7287 305.528C80.8727 306.056 80.9687 306.752 80.9687 307.568V316.856V316.904L81.0407 316.976C81.7607 317.168 82.6007 317.24 83.5847 317.24C84.3527 317.24 85.1207 317.168 85.9367 316.976C85.9847 316.976 86.0327 316.928 86.0327 316.856V300.08C86.0327 300.008 85.9607 299.96 85.8647 299.96H84.0407ZM99.7815 304.544C97.8375 304.544 96.2295 305.144 94.9815 306.344C93.7095 307.544 93.0855 309.08 93.0855 311C93.0855 312.944 93.7095 314.504 94.9575 315.704C96.2055 316.904 97.8135 317.504 99.7815 317.504C101.749 317.504 103.357 316.904 104.605 315.704C105.853 314.504 106.501 312.92 106.501 311C106.501 309.128 105.853 307.568 104.605 306.368C103.333 305.168 101.725 304.544 99.7815 304.544ZM99.7815 314.792C99.1095 314.792 98.6295 314.456 98.3175 313.736C97.9815 313.04 97.8375 312.128 97.8375 311C97.8375 308.456 98.4855 307.184 99.7815 307.184C100.453 307.184 100.933 307.544 101.269 308.24C101.581 308.936 101.749 309.848 101.749 311C101.749 313.544 101.077 314.792 99.7815 314.792ZM120.465 314.72C120.081 314.504 119.721 314.192 119.433 313.76C119.121 313.352 118.857 312.944 118.665 312.512C118.449 312.104 118.233 311.696 117.993 311.264C117.753 310.856 117.465 310.496 117.129 310.208C116.769 309.92 116.361 309.704 115.881 309.608C116.001 309.272 116.217 308.984 116.505 308.72C116.793 308.48 117.129 308.336 117.513 308.336C117.825 308.336 118.137 308.432 118.473 308.576C118.809 308.744 118.977 308.816 119.001 308.816C119.217 308.816 119.481 308.624 119.793 308.216C120.105 307.808 120.273 307.352 120.273 306.824C120.273 306.224 120.057 305.696 119.625 305.24C119.193 304.808 118.569 304.568 117.753 304.568C116.649 304.568 115.713 305.024 114.969 305.936C114.225 306.848 113.817 308.072 113.769 309.608H113.001V307.472C113.001 306.608 112.713 305.888 112.161 305.36C111.585 304.832 110.865 304.568 110.001 304.568C109.113 304.568 108.393 304.856 107.817 305.432C107.241 306.008 106.977 306.464 106.977 306.8C106.977 306.944 107.049 307.064 107.193 307.16C107.793 307.592 108.105 308.264 108.105 309.2V316.856C108.105 316.928 108.129 316.976 108.201 316.976C109.065 317.144 109.881 317.216 110.625 317.216C111.153 317.216 111.897 317.144 112.905 316.976L113.001 316.832V311.84C113.121 311.84 113.241 311.864 113.337 311.912C113.433 311.96 113.529 312.008 113.577 312.032C113.625 312.08 113.697 312.152 113.745 312.272C113.793 312.416 113.817 312.488 113.817 312.512C113.817 312.56 113.841 312.656 113.889 312.8L113.937 313.04C114.057 313.688 114.201 314.24 114.369 314.696C114.513 315.152 114.753 315.608 115.041 316.04C115.329 316.496 115.689 316.832 116.169 317.072C116.625 317.312 117.177 317.408 117.825 317.408C118.761 317.408 119.505 317.168 120.057 316.664C120.585 316.16 120.873 315.68 120.873 315.224C120.873 315.056 120.729 314.888 120.465 314.72ZM141.799 314.816C141.127 314.384 140.791 313.592 140.791 312.464C140.791 311.792 140.791 311 140.791 310.04C140.791 309.104 140.815 308.504 140.815 308.216C140.815 307.064 140.479 306.176 139.855 305.552C139.231 304.928 138.439 304.592 137.503 304.592C135.895 304.592 134.695 305.48 133.879 307.256H133.807C133.615 306.416 133.231 305.768 132.655 305.288C132.079 304.832 131.383 304.592 130.591 304.592C128.983 304.592 127.783 305.48 126.967 307.256H126.895C126.847 306.944 126.823 306.776 126.823 306.728C126.655 306.08 126.343 305.552 125.863 305.168C125.383 304.784 124.783 304.592 124.063 304.592C123.175 304.592 122.455 304.88 121.879 305.456C121.303 306.032 121.039 306.488 121.039 306.824C121.039 306.968 121.111 307.088 121.255 307.184C121.591 307.424 121.807 307.712 121.951 308.048C122.095 308.384 122.167 308.888 122.167 309.512C122.167 314.168 122.119 316.64 122.071 316.88C122.071 316.952 122.095 317 122.167 317C122.983 317.168 123.799 317.24 124.567 317.24C125.431 317.24 126.199 317.168 126.871 317C126.943 317 126.991 316.952 126.991 316.856V310.592C126.991 309.776 127.111 309.104 127.375 308.624C127.639 308.144 127.951 307.904 128.335 307.904C128.815 307.904 129.055 308.384 129.055 309.32V316.88C129.055 316.952 129.079 317 129.151 317C129.967 317.168 130.759 317.24 131.479 317.24C132.343 317.24 133.111 317.168 133.783 317C133.855 317 133.903 316.952 133.903 316.856V310.592C133.903 309.776 134.023 309.104 134.287 308.624C134.551 308.144 134.863 307.904 135.247 307.904C135.727 307.904 135.967 308.384 135.967 309.32V314.456C135.967 315.416 136.231 316.136 136.807 316.664C137.359 317.192 138.079 317.432 138.991 317.432C139.855 317.432 140.575 317.144 141.151 316.568C141.727 315.992 142.015 315.536 142.015 315.176C142.015 315.032 141.943 314.912 141.799 314.816ZM156.144 314.864C155.472 314.432 155.136 313.64 155.136 312.512L155.232 309.56C155.28 307.928 154.776 306.68 153.672 305.84C152.568 305 151.056 304.568 149.088 304.52C147.36 304.496 145.872 304.856 144.648 305.576C143.4 306.32 142.8 307.352 142.8 308.696C142.8 309.8 143.16 310.664 143.904 311.312C144.648 311.96 145.512 312.32 146.472 312.392C146.4 312.632 146.232 312.824 145.968 312.968C145.68 313.112 145.416 313.184 145.176 313.184C144.912 313.184 144.672 313.16 144.456 313.088C144.24 313.04 144.072 312.968 143.952 312.896C143.832 312.848 143.76 312.8 143.736 312.8C143.544 312.8 143.304 313.04 143.04 313.496C142.776 313.976 142.656 314.48 142.656 315.056C142.656 315.824 142.896 316.424 143.424 316.856C143.952 317.288 144.576 317.48 145.344 317.48C147.432 317.48 148.728 315.896 149.208 312.68C149.664 312.68 150.024 312.68 150.312 312.656V314.504C150.312 315.464 150.576 316.184 151.152 316.712C151.704 317.24 152.424 317.48 153.336 317.48C154.2 317.48 154.92 317.192 155.496 316.616C156.072 316.04 156.36 315.584 156.36 315.224C156.36 315.08 156.288 314.96 156.144 314.864ZM149.76 310.592C149.04 310.592 148.536 310.424 148.2 310.04C147.864 309.68 147.72 309.248 147.72 308.72C147.72 308.336 147.84 308 148.104 307.712C148.344 307.424 148.704 307.304 149.136 307.304C149.64 307.328 150 307.496 150.192 307.808C150.384 308.144 150.504 308.6 150.504 309.176L150.456 310.568L149.76 310.592ZM164.567 305.504C163.583 305.552 162.719 305.816 161.975 306.344C161.207 306.872 160.631 307.616 160.247 308.576H160.151L160.103 308.072C160.055 307.736 160.127 307.28 160.319 306.728C160.487 306.2 160.775 305.72 161.207 305.312C161.711 304.808 162.431 304.448 163.343 304.232C164.255 304.016 165.167 303.824 166.079 303.632C166.991 303.44 167.687 303.128 168.191 302.672C169.055 301.88 169.511 300.776 169.511 299.336C169.511 298.952 169.415 298.592 169.247 298.232C169.079 297.872 168.935 297.68 168.791 297.68C168.719 297.68 168.647 297.704 168.575 297.752C168.479 297.8 168.359 297.896 168.167 297.992C167.975 298.112 167.735 298.208 167.495 298.304C166.967 298.52 166.127 298.784 164.927 299.072C163.727 299.36 162.647 299.72 161.711 300.128C160.751 300.56 159.911 301.136 159.191 301.856C157.511 303.536 156.671 306.08 156.671 309.488C156.671 312.032 157.247 314 158.447 315.392C159.647 316.784 161.207 317.48 163.151 317.48C165.071 317.48 166.655 316.856 167.855 315.584C169.055 314.312 169.679 312.752 169.679 310.904C169.679 309.32 169.199 308 168.239 306.968C167.279 305.96 166.055 305.456 164.567 305.504ZM163.175 314.744C162.599 314.744 162.191 314.408 161.927 313.688C161.639 312.992 161.519 312.248 161.519 311.48C161.519 310.664 161.639 309.944 161.927 309.344C162.191 308.768 162.623 308.456 163.223 308.456C163.775 308.456 164.183 308.768 164.423 309.344C164.663 309.944 164.807 310.664 164.807 311.48C164.807 313.664 164.255 314.744 163.175 314.744ZM177.748 307.76C178.324 307.76 178.756 308.072 179.092 308.672C179.404 309.272 179.572 310.016 179.572 310.928C179.572 311.84 179.404 312.608 179.092 313.184C178.756 313.784 178.324 314.072 177.748 314.072C177.148 314.072 176.692 313.784 176.38 313.184C176.044 312.608 175.9 311.84 175.9 310.928C175.9 310.016 176.044 309.272 176.38 308.672C176.692 308.072 177.148 307.76 177.748 307.76ZM173.188 304.592C172.3 304.592 171.58 304.88 171.004 305.456C170.428 306.032 170.164 306.488 170.164 306.824C170.164 306.968 170.236 307.088 170.38 307.184C170.716 307.424 170.932 307.712 171.076 308.048C171.22 308.384 171.292 308.888 171.292 309.512C171.292 318.296 171.268 322.76 171.244 322.88C171.244 322.952 171.268 323 171.34 323C172.156 323.168 172.9 323.24 173.572 323.24C174.508 323.24 175.3 323.168 175.972 323C176.044 323 176.092 322.952 176.092 322.856V315.296H176.164C176.86 316.688 177.94 317.384 179.404 317.384C180.892 317.384 182.116 316.736 183.052 315.392C183.964 314.072 184.444 312.536 184.444 310.784C184.444 309.008 184.012 307.544 183.196 306.392C182.38 305.24 181.228 304.64 179.764 304.64C178.948 304.64 178.204 304.856 177.508 305.288C176.788 305.72 176.308 306.32 176.044 307.088H175.972C175.948 306.992 175.9 306.824 175.852 306.584C175.444 305.264 174.556 304.592 173.188 304.592ZM198.894 314.864C198.222 314.432 197.886 313.64 197.886 312.512L197.982 309.56C198.03 307.928 197.526 306.68 196.422 305.84C195.318 305 193.806 304.568 191.838 304.52C190.11 304.496 188.622 304.856 187.398 305.576C186.15 306.32 185.55 307.352 185.55 308.696C185.55 309.8 185.91 310.664 186.654 311.312C187.398 311.96 188.262 312.32 189.222 312.392C189.15 312.632 188.982 312.824 188.718 312.968C188.43 313.112 188.166 313.184 187.926 313.184C187.662 313.184 187.422 313.16 187.206 313.088C186.99 313.04 186.822 312.968 186.702 312.896C186.582 312.848 186.51 312.8 186.486 312.8C186.294 312.8 186.054 313.04 185.79 313.496C185.526 313.976 185.406 314.48 185.406 315.056C185.406 315.824 185.646 316.424 186.174 316.856C186.702 317.288 187.326 317.48 188.094 317.48C190.182 317.48 191.478 315.896 191.958 312.68C192.414 312.68 192.774 312.68 193.062 312.656V314.504C193.062 315.464 193.326 316.184 193.902 316.712C194.454 317.24 195.174 317.48 196.086 317.48C196.95 317.48 197.67 317.192 198.246 316.616C198.822 316.04 199.11 315.584 199.11 315.224C199.11 315.08 199.038 314.96 198.894 314.864ZM192.51 310.592C191.79 310.592 191.286 310.424 190.95 310.04C190.614 309.68 190.47 309.248 190.47 308.72C190.47 308.336 190.59 308 190.854 307.712C191.094 307.424 191.454 307.304 191.886 307.304C192.39 307.328 192.75 307.496 192.942 307.808C193.134 308.144 193.254 308.6 193.254 309.176L193.206 310.568L192.51 310.592ZM205.954 316.88C205.954 316.952 205.978 317 206.05 317C206.866 317.168 207.682 317.24 208.45 317.24C209.314 317.24 210.082 317.168 210.754 317C210.826 317 210.874 316.952 210.874 316.856V310.52C210.874 309.704 211.042 309.056 211.378 308.576C211.714 308.096 212.074 307.832 212.458 307.832C212.698 307.832 212.914 307.952 213.082 308.192C213.226 308.432 213.322 308.792 213.322 309.248V314.504C213.322 315.464 213.586 316.184 214.162 316.712C214.714 317.24 215.434 317.48 216.346 317.48C217.21 317.48 217.93 317.192 218.506 316.616C219.082 316.04 219.37 315.584 219.37 315.224C219.37 315.08 219.298 314.96 219.154 314.864C218.482 314.432 218.146 313.64 218.146 312.512C218.146 311.84 218.146 311.024 218.146 310.04C218.146 309.056 218.17 308.432 218.17 308.144C218.17 306.992 217.834 306.104 217.21 305.48C216.586 304.856 215.794 304.52 214.858 304.52C214.114 304.52 213.37 304.736 212.626 305.168C211.858 305.6 211.282 306.272 210.85 307.184H210.778C210.754 307.088 210.73 306.92 210.706 306.728C210.562 306.056 210.25 305.528 209.77 305.12C209.29 304.736 208.69 304.52 207.946 304.52C207.058 304.52 206.338 304.808 205.762 305.384C205.186 305.96 204.922 306.416 204.922 306.752C204.922 306.896 204.994 307.016 205.138 307.112C205.474 307.352 205.69 307.64 205.834 307.976C205.978 308.312 206.05 308.816 206.05 309.44C206.05 314.144 206.002 316.64 205.954 316.88ZM226.719 304.544C224.775 304.544 223.167 305.144 221.919 306.344C220.647 307.544 220.023 309.08 220.023 311C220.023 312.944 220.647 314.504 221.895 315.704C223.143 316.904 224.751 317.504 226.719 317.504C228.687 317.504 230.295 316.904 231.543 315.704C232.791 314.504 233.439 312.92 233.439 311C233.439 309.128 232.791 307.568 231.543 306.368C230.271 305.168 228.663 304.544 226.719 304.544ZM226.719 314.792C226.047 314.792 225.567 314.456 225.255 313.736C224.919 313.04 224.775 312.128 224.775 311C224.775 308.456 225.423 307.184 226.719 307.184C227.391 307.184 227.871 307.544 228.207 308.24C228.519 308.936 228.687 309.848 228.687 311C228.687 313.544 228.015 314.792 226.719 314.792ZM248.707 307.52V307.4L249.115 307.136C249.379 306.968 249.715 306.704 250.099 306.368C250.483 306.032 250.867 305.672 251.251 305.264C251.635 304.88 251.947 304.4 252.235 303.872C252.499 303.344 252.643 302.84 252.643 302.336C252.643 301.664 252.547 301.136 252.355 300.728C252.163 300.32 251.971 300.104 251.779 300.104L250.891 300.248C250.291 300.368 249.595 300.416 248.827 300.416C248.467 300.416 247.555 300.344 246.115 300.2C244.651 300.056 243.787 299.96 243.499 299.96C242.203 299.96 241.243 300.296 240.595 300.92C239.947 301.568 239.635 302.408 239.635 303.416C239.635 303.8 239.683 304.208 239.827 304.616C239.947 305.048 240.115 305.384 240.307 305.648C240.499 305.912 240.667 306.032 240.859 306.008C240.979 306.008 241.171 305.936 241.459 305.816C241.747 305.72 242.131 305.6 242.659 305.504C243.187 305.408 243.835 305.336 244.603 305.336C245.179 305.336 246.043 305.432 247.171 305.6L247.219 305.744C246.835 306.416 246.403 306.896 245.947 307.184C245.179 307.064 244.531 307.136 244.003 307.376C243.475 307.64 243.259 308.024 243.331 308.504C243.379 309.008 243.715 309.32 244.315 309.464C244.891 309.608 245.467 309.536 246.019 309.296L246.187 309.344C246.283 309.392 246.427 309.464 246.595 309.584C246.739 309.704 246.907 309.848 247.075 310.016C247.243 310.208 247.387 310.448 247.507 310.784C247.603 311.12 247.675 311.504 247.675 311.936C247.675 312.608 247.531 313.208 247.243 313.688C246.955 314.192 246.547 314.432 246.043 314.432C244.987 314.432 244.483 313.832 244.483 312.632C244.483 312.44 244.483 312.272 244.531 312.08C244.555 311.888 244.579 311.792 244.579 311.744C244.579 311.528 244.387 311.264 244.003 310.976C243.619 310.688 243.139 310.544 242.563 310.544C241.579 310.544 240.859 310.832 240.403 311.384C239.923 311.96 239.707 312.608 239.707 313.376C239.707 314.528 240.235 315.512 241.291 316.304C242.347 317.096 243.955 317.48 246.091 317.48C246.907 317.48 247.723 317.384 248.515 317.168C249.307 316.952 250.051 316.64 250.747 316.208C251.443 315.8 251.995 315.224 252.427 314.504C252.859 313.784 253.075 312.944 253.075 312.008C253.075 311.6 253.003 311.168 252.859 310.736C252.715 310.304 252.499 309.872 252.211 309.416C251.899 308.96 251.443 308.552 250.843 308.216C250.219 307.88 249.523 307.64 248.707 307.52ZM258.767 299.96C258.671 299.96 258.575 300.008 258.455 300.104C257.783 300.632 257.159 301.064 256.535 301.424C255.911 301.808 255.431 302.072 255.071 302.216C254.687 302.36 254.375 302.504 254.087 302.6C253.799 302.72 253.607 302.816 253.487 302.912C253.367 303.008 253.319 303.128 253.319 303.272C253.319 303.44 253.391 303.56 253.559 303.632C253.703 303.728 253.895 303.824 254.135 303.92C254.375 304.016 254.615 304.184 254.855 304.4C255.095 304.616 255.287 305 255.455 305.528C255.599 306.056 255.695 306.752 255.695 307.568V316.856V316.904L255.767 316.976C256.487 317.168 257.327 317.24 258.311 317.24C259.079 317.24 259.847 317.168 260.663 316.976C260.711 316.976 260.759 316.928 260.759 316.856V300.08C260.759 300.008 260.687 299.96 260.591 299.96H258.767ZM274.508 304.544C272.564 304.544 270.956 305.144 269.708 306.344C268.436 307.544 267.812 309.08 267.812 311C267.812 312.944 268.436 314.504 269.684 315.704C270.932 316.904 272.54 317.504 274.508 317.504C276.476 317.504 278.084 316.904 279.332 315.704C280.58 314.504 281.228 312.92 281.228 311C281.228 309.128 280.58 307.568 279.332 306.368C278.06 305.168 276.452 304.544 274.508 304.544ZM274.508 314.792C273.836 314.792 273.356 314.456 273.044 313.736C272.708 313.04 272.564 312.128 272.564 311C272.564 308.456 273.212 307.184 274.508 307.184C275.18 307.184 275.66 307.544 275.996 308.24C276.308 308.936 276.476 309.848 276.476 311C276.476 313.544 275.804 314.792 274.508 314.792ZM295.191 314.72C294.807 314.504 294.447 314.192 294.159 313.76C293.847 313.352 293.583 312.944 293.391 312.512C293.175 312.104 292.959 311.696 292.719 311.264C292.479 310.856 292.191 310.496 291.855 310.208C291.495 309.92 291.087 309.704 290.607 309.608C290.727 309.272 290.943 308.984 291.231 308.72C291.519 308.48 291.855 308.336 292.239 308.336C292.551 308.336 292.863 308.432 293.199 308.576C293.535 308.744 293.703 308.816 293.727 308.816C293.943 308.816 294.207 308.624 294.519 308.216C294.831 307.808 294.999 307.352 294.999 306.824C294.999 306.224 294.783 305.696 294.351 305.24C293.919 304.808 293.295 304.568 292.479 304.568C291.375 304.568 290.439 305.024 289.695 305.936C288.951 306.848 288.543 308.072 288.495 309.608H287.727V307.472C287.727 306.608 287.439 305.888 286.887 305.36C286.311 304.832 285.591 304.568 284.727 304.568C283.839 304.568 283.119 304.856 282.543 305.432C281.967 306.008 281.703 306.464 281.703 306.8C281.703 306.944 281.775 307.064 281.919 307.16C282.519 307.592 282.831 308.264 282.831 309.2V316.856C282.831 316.928 282.855 316.976 282.927 316.976C283.791 317.144 284.607 317.216 285.351 317.216C285.879 317.216 286.623 317.144 287.631 316.976L287.727 316.832V311.84C287.847 311.84 287.967 311.864 288.063 311.912C288.159 311.96 288.255 312.008 288.303 312.032C288.351 312.08 288.423 312.152 288.471 312.272C288.519 312.416 288.543 312.488 288.543 312.512C288.543 312.56 288.567 312.656 288.615 312.8L288.663 313.04C288.783 313.688 288.927 314.24 289.095 314.696C289.239 315.152 289.479 315.608 289.767 316.04C290.055 316.496 290.415 316.832 290.895 317.072C291.351 317.312 291.903 317.408 292.551 317.408C293.487 317.408 294.231 317.168 294.783 316.664C295.311 316.16 295.599 315.68 295.599 315.224C295.599 315.056 295.455 314.888 295.191 314.72ZM316.526 314.816C315.854 314.384 315.518 313.592 315.518 312.464C315.518 311.792 315.518 311 315.518 310.04C315.518 309.104 315.542 308.504 315.542 308.216C315.542 307.064 315.206 306.176 314.582 305.552C313.958 304.928 313.166 304.592 312.23 304.592C310.622 304.592 309.422 305.48 308.606 307.256H308.534C308.342 306.416 307.958 305.768 307.382 305.288C306.806 304.832 306.11 304.592 305.318 304.592C303.71 304.592 302.51 305.48 301.694 307.256H301.622C301.574 306.944 301.55 306.776 301.55 306.728C301.382 306.08 301.07 305.552 300.59 305.168C300.11 304.784 299.51 304.592 298.79 304.592C297.902 304.592 297.182 304.88 296.606 305.456C296.03 306.032 295.766 306.488 295.766 306.824C295.766 306.968 295.838 307.088 295.982 307.184C296.318 307.424 296.534 307.712 296.678 308.048C296.822 308.384 296.894 308.888 296.894 309.512C296.894 314.168 296.846 316.64 296.798 316.88C296.798 316.952 296.822 317 296.894 317C297.71 317.168 298.526 317.24 299.294 317.24C300.158 317.24 300.926 317.168 301.598 317C301.67 317 301.718 316.952 301.718 316.856V310.592C301.718 309.776 301.838 309.104 302.102 308.624C302.366 308.144 302.678 307.904 303.062 307.904C303.542 307.904 303.782 308.384 303.782 309.32V316.88C303.782 316.952 303.806 317 303.878 317C304.694 317.168 305.486 317.24 306.206 317.24C307.07 317.24 307.838 317.168 308.51 317C308.582 317 308.63 316.952 308.63 316.856V310.592C308.63 309.776 308.75 309.104 309.014 308.624C309.278 308.144 309.59 307.904 309.974 307.904C310.454 307.904 310.694 308.384 310.694 309.32V314.456C310.694 315.416 310.958 316.136 311.534 316.664C312.086 317.192 312.806 317.432 313.718 317.432C314.582 317.432 315.302 317.144 315.878 316.568C316.454 315.992 316.742 315.536 316.742 315.176C316.742 315.032 316.67 314.912 316.526 314.816ZM330.87 314.864C330.198 314.432 329.862 313.64 329.862 312.512L329.958 309.56C330.006 307.928 329.502 306.68 328.398 305.84C327.294 305 325.782 304.568 323.814 304.52C322.086 304.496 320.598 304.856 319.374 305.576C318.126 306.32 317.526 307.352 317.526 308.696C317.526 309.8 317.886 310.664 318.63 311.312C319.374 311.96 320.238 312.32 321.198 312.392C321.126 312.632 320.958 312.824 320.694 312.968C320.406 313.112 320.142 313.184 319.902 313.184C319.638 313.184 319.398 313.16 319.182 313.088C318.966 313.04 318.798 312.968 318.678 312.896C318.558 312.848 318.486 312.8 318.462 312.8C318.27 312.8 318.03 313.04 317.766 313.496C317.502 313.976 317.382 314.48 317.382 315.056C317.382 315.824 317.622 316.424 318.15 316.856C318.678 317.288 319.302 317.48 320.07 317.48C322.158 317.48 323.454 315.896 323.934 312.68C324.39 312.68 324.75 312.68 325.038 312.656V314.504C325.038 315.464 325.302 316.184 325.878 316.712C326.43 317.24 327.15 317.48 328.062 317.48C328.926 317.48 329.646 317.192 330.222 316.616C330.798 316.04 331.086 315.584 331.086 315.224C331.086 315.08 331.014 314.96 330.87 314.864ZM324.486 310.592C323.766 310.592 323.262 310.424 322.926 310.04C322.59 309.68 322.446 309.248 322.446 308.72C322.446 308.336 322.566 308 322.83 307.712C323.07 307.424 323.43 307.304 323.862 307.304C324.366 307.328 324.726 307.496 324.918 307.808C325.11 308.144 325.23 308.6 325.23 309.176L325.182 310.568L324.486 310.592ZM339.294 305.504C338.31 305.552 337.446 305.816 336.702 306.344C335.934 306.872 335.358 307.616 334.974 308.576H334.878L334.83 308.072C334.782 307.736 334.854 307.28 335.046 306.728C335.214 306.2 335.502 305.72 335.934 305.312C336.438 304.808 337.158 304.448 338.07 304.232C338.982 304.016 339.894 303.824 340.806 303.632C341.718 303.44 342.414 303.128 342.918 302.672C343.782 301.88 344.238 300.776 344.238 299.336C344.238 298.952 344.142 298.592 343.974 298.232C343.806 297.872 343.662 297.68 343.518 297.68C343.446 297.68 343.374 297.704 343.302 297.752C343.206 297.8 343.086 297.896 342.894 297.992C342.702 298.112 342.462 298.208 342.222 298.304C341.694 298.52 340.854 298.784 339.654 299.072C338.454 299.36 337.374 299.72 336.438 300.128C335.478 300.56 334.638 301.136 333.918 301.856C332.238 303.536 331.398 306.08 331.398 309.488C331.398 312.032 331.974 314 333.174 315.392C334.374 316.784 335.934 317.48 337.878 317.48C339.798 317.48 341.382 316.856 342.582 315.584C343.782 314.312 344.406 312.752 344.406 310.904C344.406 309.32 343.926 308 342.966 306.968C342.006 305.96 340.782 305.456 339.294 305.504ZM337.902 314.744C337.326 314.744 336.918 314.408 336.654 313.688C336.366 312.992 336.246 312.248 336.246 311.48C336.246 310.664 336.366 309.944 336.654 309.344C336.918 308.768 337.35 308.456 337.95 308.456C338.502 308.456 338.91 308.768 339.15 309.344C339.39 309.944 339.534 310.664 339.534 311.48C339.534 313.664 338.982 314.744 337.902 314.744ZM352.475 307.76C353.051 307.76 353.483 308.072 353.819 308.672C354.131 309.272 354.299 310.016 354.299 310.928C354.299 311.84 354.131 312.608 353.819 313.184C353.483 313.784 353.051 314.072 352.475 314.072C351.875 314.072 351.419 313.784 351.107 313.184C350.771 312.608 350.627 311.84 350.627 310.928C350.627 310.016 350.771 309.272 351.107 308.672C351.419 308.072 351.875 307.76 352.475 307.76ZM347.915 304.592C347.027 304.592 346.307 304.88 345.731 305.456C345.155 306.032 344.891 306.488 344.891 306.824C344.891 306.968 344.963 307.088 345.107 307.184C345.443 307.424 345.659 307.712 345.803 308.048C345.947 308.384 346.019 308.888 346.019 309.512C346.019 318.296 345.995 322.76 345.971 322.88C345.971 322.952 345.995 323 346.067 323C346.883 323.168 347.627 323.24 348.299 323.24C349.235 323.24 350.027 323.168 350.699 323C350.771 323 350.819 322.952 350.819 322.856V315.296H350.891C351.587 316.688 352.667 317.384 354.131 317.384C355.619 317.384 356.843 316.736 357.779 315.392C358.691 314.072 359.171 312.536 359.171 310.784C359.171 309.008 358.739 307.544 357.923 306.392C357.107 305.24 355.955 304.64 354.491 304.64C353.675 304.64 352.931 304.856 352.235 305.288C351.515 305.72 351.035 306.32 350.771 307.088H350.699C350.675 306.992 350.627 306.824 350.579 306.584C350.171 305.264 349.283 304.592 347.915 304.592ZM373.62 314.864C372.948 314.432 372.612 313.64 372.612 312.512L372.708 309.56C372.756 307.928 372.252 306.68 371.148 305.84C370.044 305 368.532 304.568 366.564 304.52C364.836 304.496 363.348 304.856 362.124 305.576C360.876 306.32 360.276 307.352 360.276 308.696C360.276 309.8 360.636 310.664 361.38 311.312C362.124 311.96 362.988 312.32 363.948 312.392C363.876 312.632 363.708 312.824 363.444 312.968C363.156 313.112 362.892 313.184 362.652 313.184C362.388 313.184 362.148 313.16 361.932 313.088C361.716 313.04 361.548 312.968 361.428 312.896C361.308 312.848 361.236 312.8 361.212 312.8C361.02 312.8 360.78 313.04 360.516 313.496C360.252 313.976 360.132 314.48 360.132 315.056C360.132 315.824 360.372 316.424 360.9 316.856C361.428 317.288 362.052 317.48 362.82 317.48C364.908 317.48 366.204 315.896 366.684 312.68C367.14 312.68 367.5 312.68 367.788 312.656V314.504C367.788 315.464 368.052 316.184 368.628 316.712C369.18 317.24 369.9 317.48 370.812 317.48C371.676 317.48 372.396 317.192 372.972 316.616C373.548 316.04 373.836 315.584 373.836 315.224C373.836 315.08 373.764 314.96 373.62 314.864ZM367.236 310.592C366.516 310.592 366.012 310.424 365.676 310.04C365.34 309.68 365.196 309.248 365.196 308.72C365.196 308.336 365.316 308 365.58 307.712C365.82 307.424 366.18 307.304 366.612 307.304C367.116 307.328 367.476 307.496 367.668 307.808C367.86 308.144 367.98 308.6 367.98 309.176L367.932 310.568L367.236 310.592ZM392.464 311.336C392.344 311.336 392.176 311.408 391.984 311.504C391.792 311.624 391.48 311.744 391.048 311.864C390.616 311.984 390.064 312.032 389.392 312.032C388.864 312.032 387.304 311.984 384.76 311.888C384.712 311.84 384.712 311.816 384.76 311.816C385.096 311.72 385.528 311.576 386.056 311.36C386.584 311.168 387.232 310.856 388.048 310.424C388.864 309.992 389.584 309.536 390.256 309.032C390.904 308.528 391.48 307.904 392.008 307.16C392.536 306.416 392.824 305.648 392.896 304.856C393.016 303.32 392.512 302.072 391.384 301.112C390.232 300.176 388.576 299.696 386.392 299.696C384.52 299.696 382.984 300.128 381.808 300.992C380.632 301.856 380.056 302.936 380.056 304.208C380.056 304.976 380.296 305.624 380.824 306.104C381.352 306.584 381.976 306.824 382.744 306.824C383.272 306.824 383.752 306.704 384.184 306.464C384.616 306.224 384.856 305.984 384.856 305.744C384.856 305.72 384.832 305.6 384.808 305.384C384.76 305.192 384.76 305.024 384.76 304.928C384.76 304.352 384.88 303.848 385.168 303.44C385.456 303.056 385.792 302.84 386.224 302.84C386.728 302.84 387.088 303.032 387.328 303.416C387.568 303.8 387.64 304.328 387.568 304.952C387.472 305.672 387.16 306.392 386.584 307.064C386.008 307.76 385.336 308.384 384.592 308.936C383.824 309.512 383.08 310.088 382.36 310.664C381.616 311.24 380.992 311.912 380.488 312.68C379.96 313.448 379.72 314.264 379.72 315.104C379.72 315.584 379.816 316.064 380.008 316.568C380.2 317.096 380.392 317.336 380.584 317.336L381.664 317.192C382.384 317.096 383.128 317.024 383.92 317.024C384.52 317.024 385.624 317.12 387.256 317.264C388.864 317.408 389.728 317.48 389.824 317.48C391.096 317.48 392.056 317.168 392.704 316.52C393.352 315.896 393.688 315.056 393.688 314.024C393.688 313.448 393.544 312.848 393.28 312.248C392.992 311.648 392.728 311.336 392.464 311.336ZM409.258 308.6C409.258 306.92 408.994 305.408 408.514 304.112C408.034 302.816 407.194 301.76 406.042 300.92C404.89 300.104 403.45 299.672 401.722 299.672C399.37 299.672 397.546 300.536 396.202 302.216C394.858 303.92 394.21 306.056 394.21 308.6C394.21 311.192 394.882 313.304 396.25 314.984C397.594 316.664 399.418 317.48 401.722 317.48C404.146 317.48 406.018 316.664 407.314 314.984C408.61 313.328 409.258 311.192 409.258 308.6ZM399.394 308.6C399.394 307.016 399.586 305.672 400.018 304.592C400.426 303.512 401.002 302.96 401.722 302.96C402.49 302.96 403.09 303.488 403.474 304.544C403.858 305.6 404.074 306.968 404.074 308.6C404.074 312.368 403.282 314.24 401.722 314.24C400.93 314.24 400.354 313.736 399.97 312.68C399.586 311.648 399.394 310.28 399.394 308.6ZM422.254 311.336C422.134 311.336 421.966 311.408 421.774 311.504C421.582 311.624 421.27 311.744 420.838 311.864C420.406 311.984 419.854 312.032 419.182 312.032C418.654 312.032 417.094 311.984 414.55 311.888C414.502 311.84 414.502 311.816 414.55 311.816C414.886 311.72 415.318 311.576 415.846 311.36C416.374 311.168 417.022 310.856 417.838 310.424C418.654 309.992 419.374 309.536 420.046 309.032C420.694 308.528 421.27 307.904 421.798 307.16C422.326 306.416 422.614 305.648 422.686 304.856C422.806 303.32 422.302 302.072 421.174 301.112C420.022 300.176 418.366 299.696 416.182 299.696C414.31 299.696 412.774 300.128 411.598 300.992C410.422 301.856 409.846 302.936 409.846 304.208C409.846 304.976 410.086 305.624 410.614 306.104C411.142 306.584 411.766 306.824 412.534 306.824C413.062 306.824 413.542 306.704 413.974 306.464C414.406 306.224 414.646 305.984 414.646 305.744C414.646 305.72 414.622 305.6 414.598 305.384C414.55 305.192 414.55 305.024 414.55 304.928C414.55 304.352 414.67 303.848 414.958 303.44C415.246 303.056 415.582 302.84 416.014 302.84C416.518 302.84 416.878 303.032 417.118 303.416C417.358 303.8 417.43 304.328 417.358 304.952C417.262 305.672 416.95 306.392 416.374 307.064C415.798 307.76 415.126 308.384 414.382 308.936C413.614 309.512 412.87 310.088 412.15 310.664C411.406 311.24 410.782 311.912 410.278 312.68C409.75 313.448 409.51 314.264 409.51 315.104C409.51 315.584 409.606 316.064 409.798 316.568C409.99 317.096 410.182 317.336 410.374 317.336L411.454 317.192C412.174 317.096 412.918 317.024 413.71 317.024C414.31 317.024 415.414 317.12 417.046 317.264C418.654 317.408 419.518 317.48 419.614 317.48C420.886 317.48 421.846 317.168 422.494 316.52C423.142 315.896 423.478 315.056 423.478 314.024C423.478 313.448 423.334 312.848 423.07 312.248C422.782 311.648 422.518 311.336 422.254 311.336ZM439.048 308.6C439.048 306.92 438.784 305.408 438.304 304.112C437.824 302.816 436.984 301.76 435.832 300.92C434.68 300.104 433.24 299.672 431.512 299.672C429.16 299.672 427.336 300.536 425.992 302.216C424.648 303.92 424 306.056 424 308.6C424 311.192 424.672 313.304 426.04 314.984C427.384 316.664 429.208 317.48 431.512 317.48C433.936 317.48 435.808 316.664 437.104 314.984C438.4 313.328 439.048 311.192 439.048 308.6ZM429.184 308.6C429.184 307.016 429.376 305.672 429.808 304.592C430.216 303.512 430.792 302.96 431.512 302.96C432.28 302.96 432.88 303.488 433.264 304.544C433.648 305.6 433.864 306.968 433.864 308.6C433.864 312.368 433.072 314.24 431.512 314.24C430.72 314.24 430.144 313.736 429.76 312.68C429.376 311.648 429.184 310.28 429.184 308.6ZM456.772 313.136C456.652 313.136 456.412 313.232 456.028 313.4C455.644 313.568 455.14 313.736 454.516 313.928C453.892 314.12 453.268 314.192 452.644 314.192C451.876 314.192 451.516 313.976 451.516 313.52C451.516 313.232 451.684 312.968 452.044 312.728C452.38 312.488 452.812 312.248 453.316 312.008C453.82 311.768 454.324 311.504 454.828 311.216C455.332 310.928 455.764 310.52 456.124 309.992C456.46 309.488 456.652 308.888 456.652 308.216C456.652 307.016 456.124 306.08 455.092 305.456C454.06 304.832 452.86 304.52 451.492 304.52C449.788 304.52 448.348 304.976 447.148 305.84C445.948 306.728 445.372 307.688 445.372 308.696C445.372 308.888 445.468 308.984 445.66 308.984C445.756 308.984 445.996 308.888 446.38 308.696C446.764 308.504 447.268 308.312 447.892 308.12C448.492 307.928 449.116 307.832 449.764 307.832C450.124 307.832 450.436 307.928 450.676 308.072C450.916 308.24 451.06 308.456 451.06 308.744C451.06 309.08 450.868 309.392 450.484 309.656C450.1 309.92 449.668 310.16 449.14 310.376C448.612 310.616 448.084 310.856 447.556 311.144C447.028 311.432 446.596 311.84 446.26 312.368C445.9 312.896 445.732 313.496 445.78 314.192C445.828 315.2 446.284 316.016 447.172 316.592C448.036 317.192 449.236 317.48 450.724 317.48C452.428 317.48 453.892 317.072 455.14 316.208C456.388 315.368 457.012 314.432 457.06 313.424C457.06 313.232 456.964 313.136 456.772 313.136ZM463.674 314.624C463.674 313.856 463.362 313.208 462.786 312.656C462.21 312.128 461.49 311.84 460.626 311.84C459.786 311.84 459.09 312.128 458.514 312.656C457.938 313.208 457.65 313.856 457.65 314.624C457.65 315.392 457.914 316.064 458.49 316.592C459.066 317.12 459.762 317.384 460.626 317.384C461.514 317.384 462.234 317.12 462.81 316.592C463.386 316.064 463.674 315.416 463.674 314.624Z" fill="white"/>
</g>
<defs>
<filter id="filter0_d" x="39" y="68" width="450" height="234" filterUnits="userSpaceOnUse" color-interpolation-filters="sRGB">
<feFlood flood-opacity="0" result="BackgroundImageFix"/>
<feColorMatrix in="SourceAlpha" type="matrix" values="0 0 0 0 0 0 0 0 0 0 0 0 0 0 0 0 0 0 127 0"/>
<feOffset/>
<feGaussianBlur stdDeviation="10"/>
<feColorMatrix type="matrix" values="0 0 0 0 0.231373 0 0 0 0 0.172549 0 0 0 0 0.447059 0 0 0 1 0"/>
<feBlend mode="normal" in2="BackgroundImageFix" result="effect1_dropShadow"/>
<feBlend mode="normal" in="SourceGraphic" in2="effect1_dropShadow" result="shape"/>
</filter>
<filter id="filter1_d" x="40.5542" y="277.68" width="443.12" height="65.56" filterUnits="userSpaceOnUse" color-interpolation-filters="sRGB">
<feFlood flood-opacity="0" result="BackgroundImageFix"/>
<feColorMatrix in="SourceAlpha" type="matrix" values="0 0 0 0 0 0 0 0 0 0 0 0 0 0 0 0 0 0 127 0"/>
<feOffset/>
<feGaussianBlur stdDeviation="10"/>
<feColorMatrix type="matrix" values="0 0 0 0 0.231373 0 0 0 0 0.172549 0 0 0 0 0.447059 0 0 0 1 0"/>
<feBlend mode="normal" in2="BackgroundImageFix" result="effect1_dropShadow"/>
<feBlend mode="normal" in="SourceGraphic" in2="effect1_dropShadow" result="shape"/>
</filter>
<clipPath id="clip0">
<rect width="31.364" height="31.364" fill="white" transform="translate(0 277.299) rotate(-69.0942)"/>
</clipPath>
</defs>
</svg>
