<svg width="521" height="346" viewBox="0 0 521 346" fill="none" xmlns="http://www.w3.org/2000/svg">
<path fill-rule="evenodd" clip-rule="evenodd" d="M492.717 112.641C492.717 112.641 490.73 93.6493 505.342 85.6433C522.56 76.2106 525.842 97.2278 513.695 104.793C505.497 109.9 492.717 112.641 492.717 112.641Z" fill="white"/>
<path fill-rule="evenodd" clip-rule="evenodd" d="M492.823 113.976C492.823 113.976 506.694 101.766 501.862 85.6497C496.176 66.6627 480.069 79.3981 483.484 93.4494C485.66 100.687 488.802 107.593 492.823 113.976Z" fill="white"/>
<g clip-path="url(#clip0)">
<path fill-rule="evenodd" clip-rule="evenodd" d="M31.113 280.599C31.113 280.599 15.885 276.537 14.0155 262.913C11.8136 246.859 28.9852 250.519 31.2407 262.113C32.764 269.938 31.113 280.599 31.113 280.599Z" fill="white"/>
<path fill-rule="evenodd" clip-rule="evenodd" d="M32.1739 280.91C32.1739 280.91 26.845 266.619 12.9957 265.598C-3.3186 264.39 1.7569 280.56 13.5969 282.065C19.8183 282.519 26.0679 282.13 32.1739 280.91Z" fill="white"/>
</g>
<path fill-rule="evenodd" clip-rule="evenodd" d="M428.247 67.8827C428.247 67.8827 442.3 71.7368 450.828 61.5742C460.879 49.6055 445.511 44.5053 437.731 52.8405C433.903 57.4083 430.713 62.4688 428.247 67.8827Z" fill="white"/>
<path fill-rule="evenodd" clip-rule="evenodd" d="M500.226 123.759C500.226 123.759 508.207 129.329 515.848 124.842C524.851 119.559 516.322 112.911 509.56 116.415C506.129 118.433 502.989 120.904 500.226 123.759Z" fill="white"/>
<rect x="173" width="182" height="53" rx="26.5" fill="white"/>
<path d="M307.017 32.2412H301.125V33.8777H303.223V38.8126H304.932V33.8777H307.017V32.2412Z" fill="#5FAF2D"/>
<path d="M225.577 35.5271C225.577 33.571 227.066 32.0624 229.086 32.0624C230.394 32.0624 231.52 32.74 232.064 33.7628L230.588 34.6193C230.316 34.0824 229.746 33.7372 229.073 33.7372C228.05 33.7372 227.286 34.4915 227.286 35.5399C227.286 36.5754 228.05 37.3297 229.073 37.3297C229.759 37.3297 230.342 36.9973 230.601 36.4604L232.09 37.3042C231.52 38.327 230.394 39.0046 229.086 39.0046C227.066 38.9918 225.577 37.4832 225.577 35.5271Z" fill="#5FAF2D"/>
<path d="M239.225 32.2413L236.803 38.8127C236.117 40.7049 234.887 41.5359 233.294 41.4336V39.8611C234.201 39.8739 234.68 39.5543 234.991 38.736L232.31 32.2541H234.136L235.923 36.6649L237.399 32.2541H239.225V32.2413Z" fill="#5FAF2D"/>
<path d="M246.112 38.8126H244.39V33.8265H241.748V38.8126H240.026V32.2412H246.112V38.8126Z" fill="#5FAF2D"/>
<path d="M250.734 37.4577C251.394 37.4577 251.925 37.1765 252.223 36.8057L253.609 37.5984C252.987 38.4933 251.99 39.0047 250.708 39.0047C248.468 39.0047 247.07 37.4961 247.07 35.54C247.07 33.5839 248.494 32.0753 250.579 32.0753C252.547 32.0753 253.945 33.6095 253.945 35.54C253.945 35.7957 253.919 36.013 253.881 36.2304H248.869C249.103 37.087 249.828 37.4577 250.734 37.4577ZM252.223 34.9136C252.016 33.9675 251.291 33.5839 250.579 33.5839C249.659 33.5839 249.038 34.0698 248.831 34.9136H252.223Z" fill="#5FAF2D"/>
<path d="M261.986 35.5271C261.986 37.4832 260.523 38.9918 258.736 38.9918C257.765 38.9918 257.065 38.6338 256.586 38.0329V41.4337H254.877V32.2414H256.586V33.0212C257.065 32.4204 257.777 32.0624 258.736 32.0624C260.523 32.0624 261.986 33.571 261.986 35.5271ZM260.277 35.5271C260.277 34.4276 259.487 33.6733 258.425 33.6733C257.376 33.6733 256.586 34.4276 256.586 35.5271C256.586 36.6266 257.376 37.3809 258.425 37.3809C259.487 37.3809 260.277 36.6266 260.277 35.5271Z" fill="#5FAF2D"/>
<path d="M269.845 38.8126H268.187V34.9772L266.491 37.5981H266.284L264.575 34.9516V38.8126H262.93V32.2412H264.613L266.387 35.0027L268.161 32.2412H269.845V38.8126Z" fill="#5FAF2D"/>
<path d="M277.924 32.2414V38.8128H276.202V38.0329C275.723 38.621 275.011 38.9918 274.04 38.9918C272.266 38.9918 270.803 37.4832 270.803 35.5271C270.803 33.571 272.266 32.0624 274.04 32.0624C275.011 32.0624 275.723 32.4331 276.202 33.0212V32.2414H277.924ZM276.202 35.5271C276.202 34.4276 275.412 33.6733 274.351 33.6733C273.302 33.6733 272.512 34.4276 272.512 35.5271C272.512 36.6266 273.302 37.3809 274.351 37.3809C275.412 37.3809 276.202 36.6266 276.202 35.5271Z" fill="#5FAF2D"/>
<path d="M286.327 35.5271C286.327 37.4832 284.864 38.9918 283.077 38.9918C282.106 38.9918 281.407 38.6338 280.928 38.0329V41.4337H279.219V32.2414H280.928V33.0212C281.407 32.4204 282.119 32.0624 283.077 32.0624C284.864 32.0624 286.327 33.571 286.327 35.5271ZM284.605 35.5271C284.605 34.4276 283.815 33.6733 282.754 33.6733C281.705 33.6733 280.915 34.4276 280.915 35.5271C280.915 36.6266 281.705 37.3809 282.754 37.3809C283.815 37.3809 284.605 36.6266 284.605 35.5271Z" fill="#5FAF2D"/>
<path d="M297.384 37.4577C298.044 37.4577 298.575 37.1765 298.873 36.8057L300.259 37.5984C299.637 38.4933 298.64 39.0047 297.358 39.0047C295.118 39.0047 293.719 37.4961 293.719 35.54C293.719 33.5839 295.144 32.0753 297.229 32.0753C299.197 32.0753 300.595 33.6095 300.595 35.54C300.595 35.7957 300.569 36.013 300.53 36.2304H295.519C295.739 37.087 296.478 37.4577 297.384 37.4577ZM298.873 34.9136C298.666 33.9675 297.941 33.5839 297.229 33.5839C296.309 33.5839 295.688 34.0698 295.48 34.9136H298.873Z" fill="#5FAF2D"/>
<path d="M291.622 38.8126H293.616L291.066 35.4886L293.539 32.2412H291.493L289.564 34.9132H288.981V32.2412H287.272V38.8126H288.981V36.2173H289.693L291.622 38.8126Z" fill="#5FAF2D"/>
<path d="M317.893 16.6061H309.982V18.7923H312.778V25.4276H315.083V18.7923H317.893V16.6061Z" fill="#005A28"/>
<path d="M241.618 23.6116C242.512 23.6116 243.224 23.2408 243.625 22.7294L245.49 23.7906C244.648 24.9924 243.315 25.6827 241.593 25.6827C238.589 25.6827 236.698 23.6499 236.698 21.029C236.698 18.3954 238.615 16.3754 241.411 16.3754C244.053 16.3754 245.93 18.4465 245.93 21.029C245.93 21.3615 245.891 21.6683 245.839 21.9623H239.107C239.417 23.113 240.401 23.6116 241.618 23.6116ZM243.625 20.1852C243.34 18.9196 242.369 18.4082 241.411 18.4082C240.181 18.4082 239.34 19.0602 239.068 20.1852H243.625Z" fill="#005A28"/>
<path d="M257.104 21.0167C257.104 23.6504 255.136 25.6704 252.741 25.6704C251.433 25.6704 250.488 25.1973 249.841 24.3791V28.9433H247.536V16.6059H249.841V17.6415C250.488 16.8233 251.433 16.3502 252.741 16.3502C255.136 16.363 257.104 18.383 257.104 21.0167ZM254.8 21.0167C254.8 19.5336 253.738 18.5236 252.314 18.5236C250.902 18.5236 249.854 19.5336 249.854 21.0167C249.854 22.4997 250.902 23.5097 252.314 23.5097C253.738 23.5097 254.8 22.4997 254.8 21.0167Z" fill="#005A28"/>
<path d="M263.202 23.6116C264.095 23.6116 264.808 23.2408 265.209 22.7294L267.073 23.7906C266.232 24.9924 264.898 25.6827 263.176 25.6827C260.172 25.6827 258.282 23.6499 258.282 21.029C258.282 18.3954 260.198 16.3754 262.995 16.3754C265.636 16.3754 267.514 18.4465 267.514 21.029C267.514 21.3615 267.475 21.6683 267.423 21.9623H260.69C261.001 23.113 261.985 23.6116 263.202 23.6116ZM265.196 20.1852C264.911 18.9196 263.94 18.4082 262.982 18.4082C261.752 18.4082 260.91 19.0602 260.638 20.1852H265.196Z" fill="#005A28"/>
<path d="M288.722 21.0167C288.722 23.6504 286.754 25.6704 284.359 25.6704C283.051 25.6704 282.106 25.1973 281.458 24.3791V28.9433H279.154V16.6059H281.458V17.6415C282.106 16.8233 283.051 16.3502 284.359 16.3502C286.754 16.363 288.722 18.383 288.722 21.0167ZM286.417 21.0167C286.417 19.5336 285.356 18.5236 283.931 18.5236C282.52 18.5236 281.471 19.5336 281.471 21.0167C281.471 22.4997 282.52 23.5097 283.931 23.5097C285.356 23.5097 286.417 22.4997 286.417 21.0167Z" fill="#005A28"/>
<path d="M294.82 23.6123C295.714 23.6123 296.426 23.2415 296.827 22.7301L298.692 23.7912C297.85 24.993 296.516 25.6834 294.794 25.6834C291.791 25.6834 289.9 23.6506 289.9 21.0297C289.9 18.396 291.816 16.376 294.613 16.376C297.254 16.376 299.132 18.4472 299.132 21.0297C299.132 21.3621 299.093 21.669 299.041 21.963H292.308C292.619 23.1136 293.603 23.6123 294.82 23.6123ZM291.583 14.4839C291.583 13.8319 292.14 13.2821 292.8 13.2821C293.461 13.2821 293.992 13.8319 293.992 14.4839C293.992 15.1359 293.461 15.6729 292.8 15.6729C292.14 15.6729 291.583 15.1359 291.583 14.4839ZM296.814 20.1859C296.529 18.9202 295.558 18.4088 294.6 18.4088C293.37 18.4088 292.529 19.0609 292.257 20.1859H296.814ZM294.976 14.4839C294.976 13.8319 295.532 13.2821 296.193 13.2821C296.853 13.2821 297.397 13.8319 297.397 14.4839C297.397 15.1359 296.866 15.6729 296.193 15.6729C295.532 15.6729 294.976 15.1359 294.976 14.4839Z" fill="#005A28"/>
<path d="M300.206 21.0167C300.206 18.383 302.213 16.363 304.919 16.363C306.667 16.363 308.195 17.2835 308.92 18.6387L306.939 19.7894C306.576 19.0606 305.813 18.6132 304.906 18.6132C303.534 18.6132 302.511 19.6232 302.511 21.0295C302.511 22.4231 303.534 23.4331 304.906 23.4331C305.838 23.4331 306.602 22.9856 306.965 22.2696L308.972 23.3947C308.208 24.7755 306.68 25.6832 304.932 25.6832C302.2 25.6704 300.206 23.6504 300.206 21.0167Z" fill="#005A28"/>
<path d="M318.644 21.0167C318.644 18.383 320.728 16.363 323.357 16.363C325.985 16.363 328.095 18.3958 328.095 21.0167C328.095 23.6504 325.985 25.6704 323.357 25.6704C320.741 25.6704 318.644 23.6504 318.644 21.0167ZM325.791 21.0167C325.791 19.5848 324.742 18.5876 323.357 18.5876C321.997 18.5876 320.948 19.5976 320.948 21.0167C320.948 22.4486 321.997 23.4586 323.357 23.4586C324.742 23.4586 325.791 22.4486 325.791 21.0167Z" fill="#005A28"/>
<path d="M274.971 25.4276H277.652L274.22 20.9657L277.535 16.6061H274.79L272.214 20.1858H271.424V16.6061H269.119V25.4276H271.424V21.9501H272.382L274.971 25.4276Z" fill="#005A28"/>
<path d="M335.139 16.6061L332.562 20.1858H331.772V16.6061H329.468V25.4276H331.772V21.9501H332.743L335.32 25.4276H338L334.582 20.9657L337.896 16.6061H335.139Z" fill="#005A28"/>
<path d="M235.171 25.4277H232.711V15.5706H228.296V25.4277H225.823V13.2821H235.171V25.4277Z" fill="#005A28"/>
<path d="M207.968 21.5916L204.032 25.4782L200.096 21.5916C197.921 19.4438 197.921 15.9663 200.096 13.8312C202.271 11.6834 205.793 11.6834 207.968 13.8312C210.143 15.9791 210.143 19.4566 207.968 21.5916Z" fill="#5FAF2D"/>
<path d="M200.096 32.51L204.032 28.6234L207.968 32.51C210.143 34.6579 210.143 38.1353 207.968 40.2832C205.793 42.431 202.271 42.431 200.109 40.2832C197.934 38.1353 197.934 34.6579 200.096 32.51Z" fill="#005A28"/>
<path d="M209.561 30.9377L205.625 27.0511L209.561 23.1645C211.736 21.0166 215.258 21.0166 217.433 23.1645C219.608 25.3123 219.608 28.7898 217.433 30.9377C215.258 33.0855 211.736 33.0855 209.561 30.9377Z" fill="#1E8737"/>
<path d="M198.504 23.164L202.44 27.0506L198.504 30.9372C196.328 33.0851 192.807 33.0851 190.631 30.9372C188.456 28.7894 188.456 25.3119 190.631 23.164C192.82 21.029 196.341 21.029 198.504 23.164Z" fill="#AAE641"/>
<path d="M307.017 32.2412H301.125V33.8777H303.223V38.8126H304.932V33.8777H307.017V32.2412Z" fill="#5FAF2D"/>
<path d="M225.577 35.5271C225.577 33.571 227.066 32.0624 229.086 32.0624C230.394 32.0624 231.52 32.74 232.064 33.7628L230.588 34.6193C230.316 34.0824 229.746 33.7372 229.073 33.7372C228.05 33.7372 227.286 34.4915 227.286 35.5399C227.286 36.5754 228.05 37.3297 229.073 37.3297C229.759 37.3297 230.342 36.9973 230.601 36.4604L232.09 37.3042C231.52 38.327 230.394 39.0046 229.086 39.0046C227.066 38.9918 225.577 37.4832 225.577 35.5271Z" fill="#5FAF2D"/>
<path d="M239.225 32.2413L236.803 38.8127C236.117 40.7049 234.887 41.5359 233.294 41.4336V39.8611C234.201 39.8739 234.68 39.5543 234.991 38.736L232.31 32.2541H234.136L235.923 36.6649L237.399 32.2541H239.225V32.2413Z" fill="#5FAF2D"/>
<path d="M246.112 38.8126H244.39V33.8265H241.748V38.8126H240.026V32.2412H246.112V38.8126Z" fill="#5FAF2D"/>
<path d="M250.734 37.4577C251.394 37.4577 251.925 37.1765 252.223 36.8057L253.609 37.5984C252.987 38.4933 251.99 39.0047 250.708 39.0047C248.468 39.0047 247.07 37.4961 247.07 35.54C247.07 33.5839 248.494 32.0753 250.579 32.0753C252.547 32.0753 253.945 33.6095 253.945 35.54C253.945 35.7957 253.919 36.013 253.881 36.2304H248.869C249.103 37.087 249.828 37.4577 250.734 37.4577ZM252.223 34.9136C252.016 33.9675 251.291 33.5839 250.579 33.5839C249.659 33.5839 249.038 34.0698 248.831 34.9136H252.223Z" fill="#5FAF2D"/>
<path d="M261.986 35.5271C261.986 37.4832 260.523 38.9918 258.736 38.9918C257.765 38.9918 257.065 38.6338 256.586 38.0329V41.4337H254.877V32.2414H256.586V33.0212C257.065 32.4204 257.777 32.0624 258.736 32.0624C260.523 32.0624 261.986 33.571 261.986 35.5271ZM260.277 35.5271C260.277 34.4276 259.487 33.6733 258.425 33.6733C257.376 33.6733 256.586 34.4276 256.586 35.5271C256.586 36.6266 257.376 37.3809 258.425 37.3809C259.487 37.3809 260.277 36.6266 260.277 35.5271Z" fill="#5FAF2D"/>
<path d="M269.845 38.8126H268.187V34.9772L266.491 37.5981H266.284L264.575 34.9516V38.8126H262.93V32.2412H264.613L266.387 35.0027L268.161 32.2412H269.845V38.8126Z" fill="#5FAF2D"/>
<path d="M277.924 32.2414V38.8128H276.202V38.0329C275.723 38.621 275.011 38.9918 274.04 38.9918C272.266 38.9918 270.803 37.4832 270.803 35.5271C270.803 33.571 272.266 32.0624 274.04 32.0624C275.011 32.0624 275.723 32.4331 276.202 33.0212V32.2414H277.924ZM276.202 35.5271C276.202 34.4276 275.412 33.6733 274.351 33.6733C273.302 33.6733 272.512 34.4276 272.512 35.5271C272.512 36.6266 273.302 37.3809 274.351 37.3809C275.412 37.3809 276.202 36.6266 276.202 35.5271Z" fill="#5FAF2D"/>
<path d="M286.327 35.5271C286.327 37.4832 284.864 38.9918 283.077 38.9918C282.106 38.9918 281.407 38.6338 280.928 38.0329V41.4337H279.219V32.2414H280.928V33.0212C281.407 32.4204 282.119 32.0624 283.077 32.0624C284.864 32.0624 286.327 33.571 286.327 35.5271ZM284.605 35.5271C284.605 34.4276 283.815 33.6733 282.754 33.6733C281.705 33.6733 280.915 34.4276 280.915 35.5271C280.915 36.6266 281.705 37.3809 282.754 37.3809C283.815 37.3809 284.605 36.6266 284.605 35.5271Z" fill="#5FAF2D"/>
<path d="M297.384 37.4577C298.044 37.4577 298.575 37.1765 298.873 36.8057L300.259 37.5984C299.637 38.4933 298.64 39.0047 297.358 39.0047C295.118 39.0047 293.719 37.4961 293.719 35.54C293.719 33.5839 295.144 32.0753 297.229 32.0753C299.197 32.0753 300.595 33.6095 300.595 35.54C300.595 35.7957 300.569 36.013 300.53 36.2304H295.519C295.739 37.087 296.478 37.4577 297.384 37.4577ZM298.873 34.9136C298.666 33.9675 297.941 33.5839 297.229 33.5839C296.309 33.5839 295.688 34.0698 295.48 34.9136H298.873Z" fill="#5FAF2D"/>
<path d="M291.622 38.8126H293.616L291.066 35.4886L293.539 32.2412H291.493L289.564 34.9132H288.981V32.2412H287.272V38.8126H288.981V36.2173H289.693L291.622 38.8126Z" fill="#5FAF2D"/>
<path d="M317.893 16.6061H309.982V18.7923H312.778V25.4276H315.083V18.7923H317.893V16.6061Z" fill="#005A28"/>
<path d="M241.618 23.6116C242.512 23.6116 243.224 23.2408 243.625 22.7294L245.49 23.7906C244.648 24.9924 243.315 25.6827 241.593 25.6827C238.589 25.6827 236.698 23.6499 236.698 21.029C236.698 18.3954 238.615 16.3754 241.411 16.3754C244.053 16.3754 245.93 18.4465 245.93 21.029C245.93 21.3615 245.891 21.6683 245.839 21.9623H239.107C239.417 23.113 240.401 23.6116 241.618 23.6116ZM243.625 20.1852C243.34 18.9196 242.369 18.4082 241.411 18.4082C240.181 18.4082 239.34 19.0602 239.068 20.1852H243.625Z" fill="#005A28"/>
<path d="M257.104 21.0167C257.104 23.6504 255.136 25.6704 252.741 25.6704C251.433 25.6704 250.488 25.1973 249.841 24.3791V28.9433H247.536V16.6059H249.841V17.6415C250.488 16.8233 251.433 16.3502 252.741 16.3502C255.136 16.363 257.104 18.383 257.104 21.0167ZM254.8 21.0167C254.8 19.5336 253.738 18.5236 252.314 18.5236C250.902 18.5236 249.854 19.5336 249.854 21.0167C249.854 22.4997 250.902 23.5097 252.314 23.5097C253.738 23.5097 254.8 22.4997 254.8 21.0167Z" fill="#005A28"/>
<path d="M263.202 23.6116C264.095 23.6116 264.808 23.2408 265.209 22.7294L267.073 23.7906C266.232 24.9924 264.898 25.6827 263.176 25.6827C260.172 25.6827 258.282 23.6499 258.282 21.029C258.282 18.3954 260.198 16.3754 262.995 16.3754C265.636 16.3754 267.514 18.4465 267.514 21.029C267.514 21.3615 267.475 21.6683 267.423 21.9623H260.69C261.001 23.113 261.985 23.6116 263.202 23.6116ZM265.196 20.1852C264.911 18.9196 263.94 18.4082 262.982 18.4082C261.752 18.4082 260.91 19.0602 260.638 20.1852H265.196Z" fill="#005A28"/>
<path d="M288.722 21.0167C288.722 23.6504 286.754 25.6704 284.359 25.6704C283.051 25.6704 282.106 25.1973 281.458 24.3791V28.9433H279.154V16.6059H281.458V17.6415C282.106 16.8233 283.051 16.3502 284.359 16.3502C286.754 16.363 288.722 18.383 288.722 21.0167ZM286.417 21.0167C286.417 19.5336 285.356 18.5236 283.931 18.5236C282.52 18.5236 281.471 19.5336 281.471 21.0167C281.471 22.4997 282.52 23.5097 283.931 23.5097C285.356 23.5097 286.417 22.4997 286.417 21.0167Z" fill="#005A28"/>
<path d="M294.82 23.6123C295.714 23.6123 296.426 23.2415 296.827 22.7301L298.692 23.7912C297.85 24.993 296.516 25.6834 294.794 25.6834C291.791 25.6834 289.9 23.6506 289.9 21.0297C289.9 18.396 291.816 16.376 294.613 16.376C297.254 16.376 299.132 18.4472 299.132 21.0297C299.132 21.3621 299.093 21.669 299.041 21.963H292.308C292.619 23.1136 293.603 23.6123 294.82 23.6123ZM291.583 14.4839C291.583 13.8319 292.14 13.2821 292.8 13.2821C293.461 13.2821 293.992 13.8319 293.992 14.4839C293.992 15.1359 293.461 15.6729 292.8 15.6729C292.14 15.6729 291.583 15.1359 291.583 14.4839ZM296.814 20.1859C296.529 18.9202 295.558 18.4088 294.6 18.4088C293.37 18.4088 292.529 19.0609 292.257 20.1859H296.814ZM294.976 14.4839C294.976 13.8319 295.532 13.2821 296.193 13.2821C296.853 13.2821 297.397 13.8319 297.397 14.4839C297.397 15.1359 296.866 15.6729 296.193 15.6729C295.532 15.6729 294.976 15.1359 294.976 14.4839Z" fill="#005A28"/>
<path d="M300.206 21.0167C300.206 18.383 302.213 16.363 304.919 16.363C306.667 16.363 308.195 17.2835 308.92 18.6387L306.939 19.7894C306.576 19.0606 305.813 18.6132 304.906 18.6132C303.534 18.6132 302.511 19.6232 302.511 21.0295C302.511 22.4231 303.534 23.4331 304.906 23.4331C305.838 23.4331 306.602 22.9856 306.965 22.2696L308.972 23.3947C308.208 24.7755 306.68 25.6832 304.932 25.6832C302.2 25.6704 300.206 23.6504 300.206 21.0167Z" fill="#005A28"/>
<path d="M318.644 21.0167C318.644 18.383 320.728 16.363 323.357 16.363C325.985 16.363 328.095 18.3958 328.095 21.0167C328.095 23.6504 325.985 25.6704 323.357 25.6704C320.741 25.6704 318.644 23.6504 318.644 21.0167ZM325.791 21.0167C325.791 19.5848 324.742 18.5876 323.357 18.5876C321.997 18.5876 320.948 19.5976 320.948 21.0167C320.948 22.4486 321.997 23.4586 323.357 23.4586C324.742 23.4586 325.791 22.4486 325.791 21.0167Z" fill="#005A28"/>
<path d="M274.971 25.4276H277.652L274.22 20.9657L277.535 16.6061H274.79L272.214 20.1858H271.424V16.6061H269.119V25.4276H271.424V21.9501H272.382L274.971 25.4276Z" fill="#005A28"/>
<path d="M335.139 16.6061L332.562 20.1858H331.772V16.6061H329.468V25.4276H331.772V21.9501H332.743L335.32 25.4276H338L334.582 20.9657L337.896 16.6061H335.139Z" fill="#005A28"/>
<path d="M235.171 25.4277H232.711V15.5706H228.296V25.4277H225.823V13.2821H235.171V25.4277Z" fill="#005A28"/>
<path d="M207.968 21.5916L204.032 25.4782L200.096 21.5916C197.921 19.4438 197.921 15.9663 200.096 13.8312C202.271 11.6834 205.793 11.6834 207.968 13.8312C210.143 15.9791 210.143 19.4566 207.968 21.5916Z" fill="#5FAF2D"/>
<path d="M200.096 32.51L204.032 28.6234L207.968 32.51C210.143 34.6579 210.143 38.1353 207.968 40.2832C205.793 42.431 202.271 42.431 200.109 40.2832C197.934 38.1353 197.934 34.6579 200.096 32.51Z" fill="#005A28"/>
<path d="M209.561 30.9377L205.625 27.0511L209.561 23.1645C211.736 21.0166 215.258 21.0166 217.433 23.1645C219.608 25.3123 219.608 28.7898 217.433 30.9377C215.258 33.0855 211.736 33.0855 209.561 30.9377Z" fill="#1E8737"/>
<path d="M198.504 23.164L202.44 27.0506L198.504 30.9372C196.328 33.0851 192.807 33.0851 190.631 30.9372C188.456 28.7894 188.456 25.3119 190.631 23.164C192.82 21.029 196.341 21.029 198.504 23.164Z" fill="#AAE641"/>
<g filter="url(#filter0_d)">
<path d="M59.1 151.2H81.9C93.1 151.2 102.4 145.1 102.4 133.2C102.4 126.1 98.6 119.9 91.9 117.9V117.7C96.8 115.2 99.8 110.3 99.8 104.1C99.8 93.9 92.2 88 81.4 88H59.1V151.2ZM68 114.6V95.7H81.2C87.2 95.7 90.7 99.5 90.7 105C90.7 110.5 87.1 114.6 81.3 114.6H68ZM68 143.5V121.9H82.3C89 121.9 93.2 126.3 93.2 132.6C93.2 139.1 89.1 143.4 82.3 143.4H68V143.5Z" fill="white"/>
<path d="M165.6 151.2H174.4V88H165.6V151.2ZM115.3 151.2H137.7C148.8 151.2 156.6 143.4 156.6 131.7C156.6 119.1 148.4 111.8 137.2 111.8H124.2V88H115.3V151.2ZM124.2 143.5V119.5H136.1C143.1 119.5 147.6 124.2 147.6 131.7C147.6 139 143.4 143.5 136.3 143.5H124.2Z" fill="white"/>
<path d="M191.3 151.2H200L228.4 110.2C230.7 106.7 233.7 101 233.7 101H233.9C233.9 101 233.4 106.6 233.4 110.2V151.2H242.2V88H233.5L205.3 128.9C203 132.3 199.9 138.2 199.9 138.2H199.7C199.7 138.2 200.2 132.6 200.2 129V88H191.3V151.2Z" fill="white"/>
<path d="M259 151.2H267.9V95.7H294V88H259V151.2Z" fill="white"/>
<path d="M303.6 151.2H312.5V127.9H326.9C338.5 127.9 346.8 119.8 346.8 107.8C346.8 95.8 338.5 88 326.9 88H303.6V151.2ZM312.5 120.2V95.7H325.6C333.1 95.7 337.8 100.3 337.8 107.8C337.8 115.4 333 120.2 325.5 120.2H312.5Z" fill="white"/>
<path d="M347.5 151.2H356.6L363 133H387L393.4 151.2H402.6L379.8 88H370.3L347.5 151.2ZM365.4 125.7L372.5 105.7C373.6 102.4 374.9 96.7 374.9 96.7H375.1C375.1 96.7 376.5 102.4 377.6 105.7L384.6 125.7H365.4Z" fill="white"/>
<path d="M61.547 207.457C61.547 207.633 61.6063 207.751 61.784 207.751C63.7979 208.161 65.8119 208.337 67.7074 208.337C69.8398 208.337 71.7352 208.161 73.3938 207.751C73.5715 207.751 73.69 207.633 73.69 207.399V191.915C73.69 189.921 74.1046 188.337 74.9339 187.164C75.7631 185.991 76.6516 185.346 77.5994 185.346C78.1917 185.346 78.7248 185.639 79.1395 186.226C79.4949 186.812 79.7318 187.692 79.7318 188.806V201.651C79.7318 203.997 80.3834 205.757 81.805 207.047C83.1674 208.337 84.9444 208.924 87.1952 208.924C89.3277 208.924 91.1047 208.22 92.5263 206.812C93.9479 205.405 94.6587 204.29 94.6587 203.411C94.6587 203.059 94.481 202.765 94.1256 202.531C92.467 201.475 91.6378 199.54 91.6378 196.783C91.6378 195.141 91.6378 193.147 91.6378 190.742C91.6378 188.337 91.697 186.812 91.697 186.109C91.697 183.293 90.8677 181.123 89.3277 179.598C87.7876 178.073 85.8329 177.252 83.5228 177.252C81.6865 177.252 79.8503 177.78 78.014 178.836C76.1185 179.891 74.6969 181.534 73.6307 183.762H73.453C73.3938 183.528 73.3346 183.117 73.2753 182.648C72.9199 181.006 72.1499 179.716 70.9652 178.718C69.7805 177.78 68.2997 177.252 66.4634 177.252C64.2718 177.252 62.4948 177.956 61.0732 179.364C59.6516 180.771 59 181.886 59 182.707C59 183.059 59.1777 183.352 59.5331 183.587C60.3624 184.173 60.8955 184.877 61.2509 185.698C61.6063 186.519 61.784 187.751 61.784 189.276C61.784 200.771 61.6655 206.871 61.547 207.457Z" fill="white"/>
<path d="M114.218 185.17C115.64 185.17 116.706 185.933 117.535 187.399C118.305 188.865 118.72 190.683 118.72 192.912C118.72 195.141 118.305 197.018 117.535 198.425C116.706 199.891 115.64 200.595 114.218 200.595C112.737 200.595 111.612 199.891 110.842 198.425C110.013 197.018 109.657 195.141 109.657 192.912C109.657 190.683 110.013 188.865 110.842 187.399C111.612 185.933 112.737 185.17 114.218 185.17ZM102.964 177.428C100.772 177.428 98.9953 178.132 97.5736 179.54C96.152 180.947 95.5005 182.062 95.5005 182.883C95.5005 183.235 95.6782 183.528 96.0336 183.762C96.8628 184.349 97.3959 185.053 97.7513 185.874C98.1067 186.695 98.2844 187.927 98.2844 189.452C98.2844 210.918 98.2252 221.827 98.166 222.12C98.166 222.296 98.2252 222.413 98.4029 222.413C100.417 222.824 102.253 223 103.912 223C106.222 223 108.176 222.824 109.835 222.413C110.013 222.413 110.131 222.296 110.131 222.062V203.587H110.309C112.027 206.988 114.692 208.689 118.305 208.689C121.978 208.689 124.999 207.106 127.309 203.821C129.56 200.595 130.745 196.842 130.745 192.56C130.745 188.22 129.678 184.642 127.664 181.827C125.65 179.012 122.807 177.545 119.194 177.545C117.18 177.545 115.344 178.073 113.626 179.129C111.849 180.185 110.664 181.651 110.013 183.528H109.835C109.776 183.293 109.657 182.883 109.539 182.296C108.532 179.07 106.34 177.428 102.964 177.428Z" fill="white"/>
<path d="M164.995 178.777C164.995 178.66 164.936 178.543 164.818 178.425C162.922 178.073 161.027 177.897 159.131 177.897C157.058 177.897 155.103 178.132 153.208 178.484L152.971 178.836V194.144C152.971 196.196 152.556 197.839 151.727 199.012C150.898 200.185 150.069 200.771 149.121 200.771C148.469 200.771 147.936 200.478 147.581 199.891C147.166 199.305 146.988 198.484 146.988 197.311V184.818C146.988 182.531 146.218 180.713 144.797 179.422C143.375 178.132 141.539 177.487 139.347 177.487C137.156 177.487 135.379 178.191 134.016 179.598C132.595 181.006 131.943 182.179 131.943 183.059C131.943 183.528 132.121 183.821 132.476 183.997C134.135 185.111 135.023 186.93 135.023 189.452V200.067C135.023 202.883 135.793 205.053 137.333 206.519C138.873 208.044 140.828 208.748 143.257 208.748C145.152 208.748 147.048 208.279 148.825 207.282C150.602 206.284 152.023 204.642 153.09 202.296L153.267 202.355C153.326 202.941 153.386 203.352 153.504 203.587C153.86 205.229 154.63 206.46 155.814 207.399C156.94 208.337 158.421 208.806 160.257 208.806C162.448 208.806 164.225 208.103 165.647 206.695C167.009 205.287 167.72 204.173 167.72 203.293C167.72 202.941 167.543 202.648 167.187 202.413C165.647 201.475 164.936 199.598 164.936 196.783C164.936 184.935 164.936 178.894 164.995 178.777Z" fill="white"/>
<path d="M192.075 192.326V192.091C193.734 191.739 195.155 190.977 196.34 189.804C197.525 188.63 198.117 187.223 198.117 185.581C198.117 183.235 196.873 181.299 194.444 179.774C192.016 178.249 188.995 177.428 185.382 177.428C180.643 177.428 176.793 178.601 173.89 180.947C170.988 183.293 169.566 185.463 169.566 187.457C169.566 188.103 169.803 188.396 170.277 188.396C170.573 188.396 171.225 188.161 172.232 187.692C173.179 187.223 174.483 186.754 176.023 186.284C177.563 185.815 179.162 185.522 180.821 185.522C181.946 185.522 182.894 185.698 183.664 185.933C184.434 186.226 184.967 186.578 185.322 186.988C185.619 187.457 185.796 187.809 185.915 188.103C186.033 188.455 186.092 188.748 186.092 189.041C186.092 189.804 185.855 190.507 185.441 191.211C183.368 190.566 181.768 190.449 180.702 190.918C179.577 191.387 179.044 192.15 179.044 193.205C179.044 194.202 179.577 194.906 180.761 195.375C181.887 195.845 183.545 195.61 185.737 194.789L186.033 195.199C186.152 195.551 186.329 196.021 186.507 196.607C186.685 197.194 186.803 197.839 186.803 198.425C186.803 199.481 186.448 200.419 185.796 201.24C185.085 202.062 184.197 202.472 183.012 202.472C181.946 202.472 181.117 202.179 180.406 201.534C179.695 200.947 179.399 200.067 179.399 199.012C179.399 198.777 179.399 198.425 179.517 197.956C179.577 197.487 179.636 197.194 179.636 197.018C179.636 196.666 179.103 196.196 178.037 195.727C176.97 195.258 175.904 194.965 174.838 194.965C173.002 194.965 171.58 195.493 170.573 196.49C169.507 197.545 169.033 198.777 169.033 200.243C169.033 203 170.455 205.111 173.357 206.636C176.2 208.161 179.517 208.865 183.249 208.865C185.974 208.865 188.462 208.572 190.772 207.868C193.082 207.223 195.037 206.167 196.577 204.701C198.117 203.235 198.887 201.475 198.887 199.364C198.887 197.487 198.235 195.962 196.932 194.73C195.629 193.499 194.03 192.677 192.075 192.326Z" fill="white"/>
<path d="M214.552 184.877C214.552 182.589 213.782 180.771 212.36 179.481C210.939 178.191 209.102 177.545 206.911 177.545C204.719 177.545 202.942 178.249 201.58 179.657C200.158 181.065 199.507 182.238 199.507 183.117C199.507 183.587 199.684 183.88 200.04 184.056C201.698 185.17 202.587 186.988 202.587 189.51L202.527 196.196C202.527 197.663 202.764 199.07 203.238 200.478C203.712 201.886 204.423 203.235 205.489 204.525C206.496 205.815 207.977 206.871 209.932 207.633C211.827 208.455 214.137 208.806 216.744 208.806C220.712 208.806 224.029 207.633 226.695 205.229C229.36 202.824 230.723 199.716 230.723 195.962C230.723 192.501 229.597 189.862 227.346 187.985C228.057 186.578 229.005 185.874 230.19 185.874C230.782 185.874 231.256 186.167 231.67 186.636C232.085 187.164 232.322 187.868 232.322 188.806V201.592C232.322 203.938 232.974 205.698 234.395 206.988C235.817 208.279 237.594 208.865 239.845 208.865C241.977 208.865 243.754 208.161 245.176 206.754C246.597 205.346 247.308 204.232 247.308 203.352C247.308 203 247.13 202.707 246.775 202.472C245.116 201.416 244.287 199.481 244.287 196.724V185.581C244.287 183.411 243.458 181.416 241.859 179.657C240.2 177.897 237.712 177.194 234.395 177.545C231.967 177.839 229.834 178.777 227.998 180.419C226.102 182.062 224.681 183.997 223.733 186.226C220.712 185.287 217.632 185.463 214.552 186.695V184.877ZM217.099 202.062C215.322 202.062 214.493 200.361 214.493 196.9V190.742C214.848 190.683 215.263 190.625 215.677 190.625C217.099 190.625 218.224 191.152 218.935 192.208C219.646 193.264 220.001 194.672 220.001 196.314C220.001 197.78 219.705 199.129 219.231 200.302C218.698 201.475 217.987 202.062 217.099 202.062Z" fill="white"/>
<path d="M291.84 186.519C291.84 183.938 290.656 181.768 288.286 180.067C285.917 178.367 282.896 177.487 279.283 177.487C274.189 177.487 270.102 179.012 267.021 182.003C263.941 185.053 262.46 188.748 262.46 193.088C262.46 197.663 263.823 201.358 266.666 204.29C269.509 207.223 273.478 208.689 278.69 208.689C282.541 208.689 285.739 207.575 288.346 205.229C290.952 202.941 292.255 200.947 292.255 199.188C292.255 198.66 292.018 198.367 291.544 198.367C291.307 198.367 290.3 198.777 288.464 199.481C286.628 200.185 284.91 200.537 283.251 200.537C280.171 200.537 277.861 199.657 276.44 197.897C275.018 196.138 274.307 194.026 274.307 191.446C274.307 189.334 274.722 187.457 275.61 185.815C276.44 184.173 277.506 183.352 278.809 183.352C280.349 183.352 281.178 184.525 281.178 186.871C281.178 187.34 281.119 187.927 281.001 188.689C280.882 189.452 280.882 189.921 280.882 190.155C280.882 190.742 281.356 191.328 282.304 191.915C283.251 192.501 284.377 192.736 285.562 192.736C287.576 192.736 289.175 192.091 290.241 190.801C291.307 189.51 291.84 188.103 291.84 186.519Z" fill="white"/>
<path d="M355.908 167.164C355.908 167.047 355.789 166.93 355.552 166.871L354.782 166.695C354.19 166.636 353.361 166.519 352.235 166.402C351.11 166.284 349.984 166.226 348.8 166.226C346.667 166.226 344.594 166.46 342.58 166.871L342.165 167.106C340.685 172.501 338.671 179.246 336.124 187.34H335.59L334.88 184.818C334.406 183.176 333.754 181.182 333.043 178.953C332.273 176.724 331.622 175.082 331.089 173.968C330.615 173.147 330.2 172.384 329.845 171.798C329.489 171.211 328.956 170.507 328.245 169.628C327.535 168.806 326.765 168.103 325.995 167.575C325.165 167.047 324.218 166.578 323.033 166.167C321.848 165.815 320.545 165.581 319.183 165.581C316.576 165.581 314.385 166.284 312.726 167.575C311.008 168.924 310.12 170.155 310.001 171.27C310.001 171.622 310.179 171.974 310.594 172.384C311.008 172.795 311.423 173.381 311.778 174.144C312.134 174.906 312.312 175.845 312.193 176.959C309.765 192.56 308.521 202.765 308.461 207.457C308.461 207.633 308.521 207.751 308.758 207.751L309.291 207.927C309.646 208.044 310.179 208.161 310.949 208.279C311.66 208.396 312.43 208.396 313.2 208.396C314.74 208.396 316.28 208.22 317.761 207.751C317.998 207.751 318.116 207.633 318.116 207.399C318.413 197.076 319.064 188.982 320.012 183.176H320.367C322.026 185.17 324.691 193.264 328.482 207.516L328.838 207.751C329.667 208.103 330.852 208.279 332.392 208.279C333.34 208.279 334.583 208.161 336.183 207.809C336.36 207.692 336.479 207.575 336.538 207.34L344.475 182.472H344.712C346.016 188.924 346.845 197.252 347.082 207.457C347.082 207.692 347.141 207.809 347.378 207.809L348.03 207.985C348.385 208.103 349.155 208.161 350.28 208.279C351.406 208.396 352.709 208.455 354.19 208.455C356.855 208.455 358.81 208.279 360.113 207.809L360.232 207.751C360.291 207.751 360.35 207.751 360.469 207.692C360.587 207.633 360.646 207.516 360.646 207.399C360.409 192.971 358.869 179.598 355.908 167.164Z" fill="white"/>
<path d="M371.716 208.806C373.848 208.806 375.625 208.103 377.047 206.695C378.468 205.287 379.179 204.173 379.179 203.293C379.179 202.941 379.001 202.648 378.646 202.413C376.987 201.358 376.158 199.422 376.158 196.666V178.718C376.158 178.601 376.099 178.484 375.98 178.425C374.263 178.073 372.308 177.839 370.176 177.839C368.221 177.839 366.325 178.073 364.489 178.425C364.311 178.484 364.252 178.601 364.252 178.718V201.534C364.252 203.88 364.904 205.639 366.325 206.93C367.688 208.22 369.465 208.806 371.716 208.806ZM370.472 174.73C372.486 174.73 374.263 174.202 375.743 173.029C377.165 171.915 377.935 170.507 377.935 168.865C377.935 167.282 377.165 165.933 375.743 164.76C374.263 163.587 372.486 163 370.472 163C368.398 163 366.621 163.587 365.2 164.76C363.778 165.933 363.067 167.282 363.067 168.865C363.067 170.507 363.778 171.915 365.2 173.029C366.621 174.202 368.398 174.73 370.472 174.73Z" fill="white"/>
<path d="M388.997 208.806C391.13 208.806 392.907 208.103 394.329 206.695C395.75 205.287 396.461 204.173 396.461 203.293C396.461 202.941 396.283 202.648 395.928 202.413C394.269 201.358 393.44 199.422 393.44 196.666V164.056C393.44 163.938 393.322 163.821 393.203 163.762C391.485 163.411 389.59 163.176 387.457 163.176C385.503 163.176 383.607 163.411 381.771 163.762C381.593 163.821 381.534 163.938 381.534 164.056V201.534C381.534 203.88 382.186 205.639 383.607 206.93C384.97 208.22 386.747 208.806 388.997 208.806Z" fill="white"/>
<path d="M431.276 201.123C430.328 200.654 429.617 200.302 429.203 199.95C426.893 198.308 425.116 196.196 423.813 193.674C425.886 193.205 427.604 192.091 429.025 190.449C430.387 188.806 431.098 186.93 431.098 184.877C431.098 182.413 430.21 180.537 428.492 179.188C426.774 177.897 424.523 177.311 421.799 177.428C419.666 177.545 417.652 178.191 415.816 179.364C413.98 180.537 412.499 182.003 411.433 183.88H411.314V163.997C411.314 163.88 411.255 163.762 411.137 163.704C409.004 163.352 407.049 163.117 405.272 163.117C403.614 163.117 401.718 163.352 399.645 163.704L399.408 163.938V207.399C399.408 207.575 399.467 207.692 399.645 207.692C401.778 208.103 403.732 208.279 405.45 208.279C406.753 208.279 408.589 208.103 411.077 207.692L411.314 207.34V194.672C411.314 189.276 412.914 186.402 416.231 186.05C417.178 185.991 418.008 186.284 418.659 186.871C419.311 187.457 419.548 188.279 419.429 189.276C419.192 190.449 418.659 191.387 417.711 192.15C416.764 192.971 415.638 193.44 414.217 193.616C413.624 193.733 413.387 194.144 413.387 194.73C413.387 195.903 413.565 197.252 413.98 198.777C414.335 200.302 414.927 201.827 415.757 203.352C416.527 204.935 417.652 206.226 419.074 207.282C420.495 208.337 422.154 208.806 423.99 208.806C426.3 208.806 428.196 208.161 429.677 206.812C431.098 205.463 431.868 203.88 431.868 202.003C431.868 201.651 431.631 201.358 431.276 201.123Z" fill="white"/>
<path d="M465.979 196.724C465.979 194.085 466.038 188.103 466.157 178.777C466.157 178.66 466.038 178.543 465.861 178.425C464.202 178.132 462.307 177.956 460.233 177.956C458.338 177.956 456.502 178.132 454.784 178.425C454.547 178.543 454.488 178.66 454.488 178.777L453.895 182.531H453.718C452.888 181.006 451.763 179.774 450.223 178.894C448.683 178.015 446.965 177.545 445.01 177.545C441.338 177.545 438.435 179.188 436.303 182.355C434.171 185.581 433.104 189.334 433.104 193.616C433.104 197.78 434.111 201.358 436.244 204.29C438.317 207.223 441.16 208.689 444.714 208.689C446.728 208.689 448.505 208.161 450.164 207.106C451.822 206.05 453.066 204.584 453.895 202.707H454.073C454.31 204.584 455.139 206.109 456.502 207.164C457.805 208.22 459.523 208.748 461.537 208.748C463.432 208.748 465.15 208.161 466.69 206.93C468.23 205.698 469 204.466 469 203.293C469 202.941 468.822 202.648 468.467 202.413C466.808 201.358 465.979 199.422 465.979 196.724ZM449.749 200.595C448.327 200.595 447.202 199.891 446.432 198.425C445.603 197.018 445.247 195.141 445.247 192.912C445.247 190.683 445.603 188.865 446.432 187.399C447.202 185.933 448.327 185.17 449.749 185.17C451.171 185.17 452.296 185.933 453.125 187.399C453.895 188.865 454.31 190.683 454.31 192.912C454.31 195.141 453.895 197.018 453.125 198.425C452.296 199.891 451.171 200.595 449.749 200.595Z" fill="white"/>
<path d="M81.1186 252.3V252.08C82.4293 251.859 83.5216 251.253 84.45 250.371C85.3239 249.49 85.87 248.388 86.0338 247.065C86.3069 245.082 85.4331 243.208 83.4124 241.555C81.3917 239.902 78.3333 239.02 74.2373 239.02C69.4312 239.02 65.6629 240.343 62.9868 242.878C60.3107 245.467 59 249.049 59 253.678C59 258.802 60.3107 262.604 63.0414 265.029C65.7175 267.508 69.4312 268.72 74.2373 268.72C78.3879 268.72 81.7193 267.784 84.1224 265.8C86.5254 263.816 87.7815 261.612 87.7815 259.078C87.7815 257.149 87.0715 255.606 85.7608 254.449C84.3954 253.292 82.8662 252.576 81.1186 252.3ZM73.6911 245.082C74.3465 245.082 74.8926 245.357 75.3295 245.853C75.7664 246.349 75.9849 246.9 75.9849 247.506C75.9849 248.553 75.4934 249.435 74.6196 250.206C73.6911 250.978 72.3258 251.418 70.4689 251.529H69.9774C69.9228 249.655 70.1958 248.112 70.7966 246.9C71.3973 245.688 72.3804 245.082 73.6911 245.082ZM74.0734 262.769C71.2335 262.769 69.8681 260.345 69.9774 255.441C70.3597 255.441 70.7966 255.386 71.2335 255.386C73.0904 255.386 74.5649 255.827 75.6572 256.653C76.6949 257.48 77.241 258.416 77.241 259.518C77.241 260.4 76.9133 261.171 76.3672 261.833C75.8211 262.494 75.0565 262.769 74.0734 262.769Z" fill="white"/>
<path d="M138.69 229.102C130.607 228.771 124.163 228.551 119.466 228.551C117.008 228.551 114.769 228.716 112.749 228.937C110.673 229.157 109.035 229.488 107.724 229.873C106.413 230.259 105.266 230.7 104.393 231.141C103.464 231.637 102.809 232.078 102.427 232.518C102.044 232.959 101.88 233.345 101.88 233.731C101.88 233.951 101.99 234.227 102.263 234.502C102.481 234.833 102.754 235.108 103.082 235.439C103.355 235.769 103.628 236.376 103.901 237.257C104.12 238.139 104.283 239.241 104.283 240.508V267.398C104.283 267.563 104.338 267.673 104.502 267.673C106.359 268.059 108.27 268.224 110.182 268.224C112.53 268.224 114.442 268.059 115.971 267.673C116.135 267.673 116.244 267.563 116.244 267.343V237.973H127.003V241.059V244.916V249.159V253.512C127.003 254.945 126.948 256.378 126.948 257.755C126.948 259.133 126.948 260.4 126.948 261.557V264.588V266.682V267.398C126.948 267.563 127.003 267.673 127.167 267.673C129.023 268.059 130.935 268.224 132.846 268.224C135.195 268.224 137.106 268.059 138.635 267.673C138.799 267.673 138.909 267.563 138.909 267.343V229.378C138.909 229.267 138.799 229.157 138.69 229.102Z" fill="white"/>
<path d="M156.63 245.082C157.613 245.082 158.323 245.357 158.815 245.853C159.306 246.349 159.579 246.955 159.579 247.727C159.579 248.773 159.033 249.71 157.996 250.537C156.958 251.418 155.538 251.804 153.736 251.804C153.299 251.804 152.862 251.749 152.48 251.749C152.425 249.876 152.753 248.333 153.517 247.01C154.282 245.743 155.32 245.082 156.63 245.082ZM168.973 258.747C168.755 258.747 168.318 258.967 167.553 259.408C166.788 259.849 165.751 260.235 164.44 260.676C163.075 261.116 161.6 261.282 159.962 261.282C158.214 261.282 156.63 260.896 155.21 260.014C153.79 259.133 153.026 257.976 152.807 256.433C153.954 256.873 155.811 257.094 158.323 257.094C159.634 257.094 160.89 256.984 162.201 256.653C163.512 256.378 164.768 255.937 165.969 255.276C167.171 254.614 168.099 253.733 168.864 252.52C169.628 251.308 170.011 249.931 170.011 248.333C170.011 246.018 168.864 243.924 166.679 242.051C164.44 240.178 161.272 239.241 157.231 239.241C152.48 239.241 148.711 240.618 145.926 243.318C143.086 246.073 141.721 249.6 141.721 253.953C141.721 258.416 143.086 261.943 145.926 264.588C148.766 267.233 152.48 268.555 157.122 268.555C159.088 268.555 160.89 268.224 162.529 267.508C164.167 266.847 165.478 265.965 166.461 264.973C167.389 263.982 168.099 263.045 168.645 262.053C169.191 261.061 169.465 260.235 169.465 259.518C169.465 259.022 169.301 258.747 168.973 258.747Z" fill="white"/>
<path d="M188.082 246.459C189.393 246.459 190.376 247.176 191.141 248.553C191.851 249.931 192.233 251.639 192.233 253.733C192.233 255.827 191.851 257.59 191.141 258.912C190.376 260.29 189.393 260.951 188.082 260.951C186.717 260.951 185.679 260.29 184.969 258.912C184.205 257.59 183.877 255.827 183.877 253.733C183.877 251.639 184.205 249.931 184.969 248.553C185.679 247.176 186.717 246.459 188.082 246.459ZM177.706 239.186C175.685 239.186 174.047 239.847 172.736 241.169C171.425 242.492 170.824 243.539 170.824 244.31C170.824 244.641 170.988 244.916 171.316 245.137C172.08 245.688 172.572 246.349 172.9 247.12C173.227 247.892 173.391 249.049 173.391 250.482C173.391 270.649 173.337 280.898 173.282 281.173C173.282 281.339 173.337 281.449 173.5 281.449C175.357 281.835 177.05 282 178.58 282C180.709 282 182.512 281.835 184.041 281.449C184.205 281.449 184.314 281.339 184.314 281.118V263.761H184.478C186.062 266.957 188.519 268.555 191.851 268.555C195.237 268.555 198.022 267.067 200.152 263.982C202.227 260.951 203.32 257.424 203.32 253.402C203.32 249.324 202.337 245.963 200.48 243.318C198.623 240.673 196.001 239.296 192.67 239.296C190.813 239.296 189.12 239.792 187.536 240.784C185.898 241.776 184.805 243.153 184.205 244.916H184.041C183.986 244.696 183.877 244.31 183.768 243.759C182.839 240.729 180.819 239.186 177.706 239.186Z" fill="white"/>
<path d="M220.418 245.082C221.401 245.082 222.111 245.357 222.602 245.853C223.094 246.349 223.367 246.955 223.367 247.727C223.367 248.773 222.821 249.71 221.783 250.537C220.745 251.418 219.325 251.804 217.523 251.804C217.086 251.804 216.649 251.749 216.267 251.749C216.212 249.876 216.54 248.333 217.305 247.01C218.069 245.743 219.107 245.082 220.418 245.082ZM232.76 258.747C232.542 258.747 232.105 258.967 231.34 259.408C230.576 259.849 229.538 260.235 228.227 260.676C226.862 261.116 225.387 261.282 223.749 261.282C222.001 261.282 220.418 260.896 218.998 260.014C217.578 259.133 216.813 257.976 216.595 256.433C217.741 256.873 219.598 257.094 222.111 257.094C223.421 257.094 224.677 256.984 225.988 256.653C227.299 256.378 228.555 255.937 229.757 255.276C230.958 254.614 231.886 253.733 232.651 252.52C233.416 251.308 233.798 249.931 233.798 248.333C233.798 246.018 232.651 243.924 230.466 242.051C228.227 240.178 225.06 239.241 221.018 239.241C216.267 239.241 212.499 240.618 209.713 243.318C206.873 246.073 205.508 249.6 205.508 253.953C205.508 258.416 206.873 261.943 209.713 264.588C212.553 267.233 216.267 268.555 220.909 268.555C222.875 268.555 224.677 268.224 226.316 267.508C227.954 266.847 229.265 265.965 230.248 264.973C231.176 263.982 231.886 263.045 232.433 262.053C232.979 261.061 233.252 260.235 233.252 259.518C233.252 259.022 233.088 258.747 232.76 258.747Z" fill="white"/>
<path d="M265.305 262.439C264.431 261.943 263.612 261.227 262.956 260.235C262.246 259.298 261.645 258.361 261.208 257.369C260.717 256.433 260.225 255.496 259.679 254.504C259.133 253.567 258.478 252.741 257.713 252.08C256.894 251.418 255.966 250.922 254.873 250.702C255.146 249.931 255.638 249.269 256.293 248.663C256.949 248.112 257.713 247.782 258.587 247.782C259.297 247.782 260.007 248.002 260.772 248.333C261.536 248.718 261.918 248.884 261.973 248.884C262.465 248.884 263.065 248.443 263.775 247.506C264.485 246.569 264.868 245.522 264.868 244.31C264.868 242.933 264.376 241.72 263.393 240.673C262.41 239.682 260.99 239.131 259.133 239.131C256.621 239.131 254.491 240.178 252.798 242.271C251.105 244.365 250.177 247.176 250.067 250.702H248.32V245.798C248.32 243.814 247.664 242.161 246.408 240.949C245.097 239.737 243.459 239.131 241.493 239.131C239.472 239.131 237.834 239.792 236.523 241.114C235.212 242.437 234.612 243.484 234.612 244.255C234.612 244.586 234.775 244.861 235.103 245.082C236.468 246.073 237.178 247.616 237.178 249.765V267.343C237.178 267.508 237.233 267.618 237.397 267.618C239.363 268.004 241.22 268.169 242.913 268.169C244.114 268.169 245.807 268.004 248.101 267.618L248.32 267.288V255.827C248.593 255.827 248.866 255.882 249.084 255.992C249.303 256.102 249.521 256.212 249.63 256.267C249.74 256.378 249.903 256.543 250.013 256.818C250.122 257.149 250.177 257.314 250.177 257.369C250.177 257.48 250.231 257.7 250.34 258.031L250.45 258.582C250.723 260.069 251.05 261.337 251.433 262.384C251.76 263.431 252.306 264.478 252.962 265.469C253.617 266.516 254.436 267.288 255.529 267.839C256.566 268.39 257.822 268.61 259.297 268.61C261.427 268.61 263.12 268.059 264.376 266.902C265.578 265.745 266.233 264.643 266.233 263.596C266.233 263.21 265.905 262.824 265.305 262.439Z" fill="white"/>
<path d="M283.87 246.459C285.181 246.459 286.164 247.176 286.928 248.553C287.638 249.931 288.02 251.639 288.02 253.733C288.02 255.827 287.638 257.59 286.928 258.912C286.164 260.29 285.181 260.951 283.87 260.951C282.504 260.951 281.467 260.29 280.757 258.912C279.992 257.59 279.665 255.827 279.665 253.733C279.665 251.639 279.992 249.931 280.757 248.553C281.467 247.176 282.504 246.459 283.87 246.459ZM273.493 239.186C271.472 239.186 269.834 239.847 268.523 241.169C267.213 242.492 266.612 243.539 266.612 244.31C266.612 244.641 266.776 244.916 267.103 245.137C267.868 245.688 268.36 246.349 268.687 247.12C269.015 247.892 269.179 249.049 269.179 250.482C269.179 270.649 269.124 280.898 269.069 281.173C269.069 281.339 269.124 281.449 269.288 281.449C271.145 281.835 272.838 282 274.367 282C276.497 282 278.299 281.835 279.828 281.449C279.992 281.449 280.101 281.339 280.101 281.118V263.761H280.265C281.849 266.957 284.307 268.555 287.638 268.555C291.024 268.555 293.81 267.067 295.939 263.982C298.015 260.951 299.107 257.424 299.107 253.402C299.107 249.324 298.124 245.963 296.267 243.318C294.41 240.673 291.789 239.296 288.457 239.296C286.601 239.296 284.908 239.792 283.324 240.784C281.685 241.776 280.593 243.153 279.992 244.916H279.828C279.774 244.696 279.665 244.31 279.555 243.759C278.627 240.729 276.606 239.186 273.493 239.186Z" fill="white"/>
<path d="M316.205 245.082C317.188 245.082 317.898 245.357 318.39 245.853C318.881 246.349 319.154 246.955 319.154 247.727C319.154 248.773 318.608 249.71 317.57 250.537C316.533 251.418 315.113 251.804 313.311 251.804C312.874 251.804 312.437 251.749 312.054 251.749C312 249.876 312.327 248.333 313.092 247.01C313.857 245.743 314.894 245.082 316.205 245.082ZM328.548 258.747C328.329 258.747 327.892 258.967 327.128 259.408C326.363 259.849 325.326 260.235 324.015 260.676C322.649 261.116 321.175 261.282 319.536 261.282C317.789 261.282 316.205 260.896 314.785 260.014C313.365 259.133 312.601 257.976 312.382 256.433C313.529 256.873 315.386 257.094 317.898 257.094C319.209 257.094 320.465 256.984 321.776 256.653C323.086 256.378 324.343 255.937 325.544 255.276C326.746 254.614 327.674 253.733 328.439 252.52C329.203 251.308 329.585 249.931 329.585 248.333C329.585 246.018 328.439 243.924 326.254 242.051C324.015 240.178 320.847 239.241 316.806 239.241C312.054 239.241 308.286 240.618 305.501 243.318C302.661 246.073 301.295 249.6 301.295 253.953C301.295 258.416 302.661 261.943 305.501 264.588C308.341 267.233 312.054 268.555 316.697 268.555C318.663 268.555 320.465 268.224 322.103 267.508C323.742 266.847 325.052 265.965 326.036 264.973C326.964 263.982 327.674 263.045 328.22 262.053C328.766 261.061 329.039 260.235 329.039 259.518C329.039 259.022 328.875 258.747 328.548 258.747ZM314.73 233.235C314.73 231.802 314.13 230.535 313.037 229.543C311.945 228.551 310.58 228 308.996 228C307.412 228 306.047 228.551 304.955 229.543C303.862 230.535 303.316 231.802 303.316 233.235C303.316 234.667 303.862 235.935 304.955 236.927C306.047 237.973 307.412 238.469 308.996 238.469C310.525 238.469 311.891 237.973 313.037 236.927C314.13 235.935 314.73 234.667 314.73 233.235ZM328.384 233.235C328.384 231.802 327.783 230.535 326.691 229.543C325.599 228.551 324.233 228 322.704 228C321.066 228 319.7 228.551 318.608 229.543C317.516 230.535 316.97 231.802 316.97 233.235C316.97 234.667 317.516 235.935 318.663 236.927C319.755 237.973 321.12 238.469 322.704 238.469C324.233 238.469 325.599 237.973 326.691 236.927C327.783 235.935 328.384 234.667 328.384 233.235Z" fill="white"/>
<path d="M358.571 247.727C358.571 245.302 357.479 243.263 355.294 241.665C353.109 240.067 350.324 239.241 346.993 239.241C342.296 239.241 338.528 240.673 335.688 243.484C332.848 246.349 331.482 249.82 331.482 253.898C331.482 258.196 332.739 261.667 335.36 264.422C337.981 267.178 341.641 268.555 346.447 268.555C349.996 268.555 352.946 267.508 355.349 265.304C357.752 263.155 358.953 261.282 358.953 259.629C358.953 259.133 358.735 258.857 358.298 258.857C358.079 258.857 357.151 259.243 355.458 259.904C353.765 260.565 352.181 260.896 350.652 260.896C347.812 260.896 345.682 260.069 344.371 258.416C343.061 256.763 342.405 254.78 342.405 252.355C342.405 250.371 342.787 248.608 343.607 247.065C344.371 245.522 345.354 244.751 346.556 244.751C347.976 244.751 348.74 245.853 348.74 248.057C348.74 248.498 348.686 249.049 348.577 249.765C348.467 250.482 348.467 250.922 348.467 251.143C348.467 251.694 348.904 252.245 349.778 252.796C350.652 253.347 351.69 253.567 352.782 253.567C354.639 253.567 356.113 252.961 357.096 251.749C358.079 250.537 358.571 249.214 358.571 247.727Z" fill="white"/>
<path d="M407.027 262.659C405.498 261.667 404.733 259.849 404.733 257.259C404.733 255.716 404.733 253.898 404.733 251.694C404.733 249.545 404.788 248.167 404.788 247.506C404.788 244.861 404.023 242.822 402.603 241.39C401.183 239.957 399.381 239.186 397.251 239.186C393.592 239.186 390.861 241.224 389.004 245.302H388.841C388.404 243.373 387.53 241.886 386.219 240.784C384.908 239.737 383.325 239.186 381.522 239.186C377.863 239.186 375.133 241.224 373.276 245.302H373.112C373.003 244.586 372.948 244.2 372.948 244.09C372.566 242.602 371.856 241.39 370.763 240.508C369.671 239.627 368.306 239.186 366.667 239.186C364.647 239.186 363.008 239.847 361.697 241.169C360.387 242.492 359.786 243.539 359.786 244.31C359.786 244.641 359.95 244.916 360.278 245.137C361.042 245.688 361.534 246.349 361.861 247.12C362.189 247.892 362.353 249.049 362.353 250.482C362.353 261.171 362.244 266.847 362.134 267.398C362.134 267.563 362.189 267.673 362.353 267.673C364.21 268.059 366.067 268.224 367.814 268.224C369.78 268.224 371.528 268.059 373.057 267.673C373.221 267.673 373.33 267.563 373.33 267.343V252.961C373.33 251.088 373.603 249.545 374.204 248.443C374.805 247.341 375.515 246.79 376.389 246.79C377.481 246.79 378.027 247.892 378.027 250.041V267.398C378.027 267.563 378.082 267.673 378.246 267.673C380.102 268.059 381.905 268.224 383.543 268.224C385.509 268.224 387.257 268.059 388.786 267.673C388.95 267.673 389.059 267.563 389.059 267.343V252.961C389.059 251.088 389.332 249.545 389.933 248.443C390.534 247.341 391.244 246.79 392.117 246.79C393.21 246.79 393.756 247.892 393.756 250.041V261.833C393.756 264.037 394.357 265.69 395.667 266.902C396.923 268.114 398.562 268.665 400.637 268.665C402.603 268.665 404.242 268.004 405.552 266.682C406.863 265.359 407.518 264.312 407.518 263.486C407.518 263.155 407.355 262.88 407.027 262.659Z" fill="white"/>
<path d="M438.959 262.439C438.086 261.943 437.266 261.227 436.611 260.235C435.901 259.298 435.3 258.361 434.863 257.369C434.372 256.433 433.88 255.496 433.334 254.504C432.788 253.567 432.133 252.741 431.368 252.08C430.549 251.418 429.62 250.922 428.528 250.702C428.801 249.931 429.293 249.269 429.948 248.663C430.603 248.112 431.368 247.782 432.242 247.782C432.952 247.782 433.662 248.002 434.426 248.333C435.191 248.718 435.573 248.884 435.628 248.884C436.119 248.884 436.72 248.443 437.43 247.506C438.14 246.569 438.522 245.522 438.522 244.31C438.522 242.933 438.031 241.72 437.048 240.673C436.065 239.682 434.645 239.131 432.788 239.131C430.276 239.131 428.146 240.178 426.453 242.271C424.76 244.365 423.831 247.176 423.722 250.702H421.975V245.798C421.975 243.814 421.319 242.161 420.063 240.949C418.752 239.737 417.114 239.131 415.148 239.131C413.127 239.131 411.489 239.792 410.178 241.114C408.867 242.437 408.266 243.484 408.266 244.255C408.266 244.586 408.43 244.861 408.758 245.082C410.123 246.073 410.833 247.616 410.833 249.765V267.343C410.833 267.508 410.888 267.618 411.052 267.618C413.018 268.004 414.875 268.169 416.568 268.169C417.769 268.169 419.462 268.004 421.756 267.618L421.975 267.288V255.827C422.248 255.827 422.521 255.882 422.739 255.992C422.958 256.102 423.176 256.212 423.285 256.267C423.394 256.378 423.558 256.543 423.668 256.818C423.777 257.149 423.831 257.314 423.831 257.369C423.831 257.48 423.886 257.7 423.995 258.031L424.104 258.582C424.378 260.069 424.705 261.337 425.087 262.384C425.415 263.431 425.961 264.478 426.617 265.469C427.272 266.516 428.091 267.288 429.184 267.839C430.221 268.39 431.477 268.61 432.952 268.61C435.082 268.61 436.775 268.059 438.031 266.902C439.232 265.745 439.888 264.643 439.888 263.596C439.888 263.21 439.56 262.824 438.959 262.439Z" fill="white"/>
<path d="M455.62 245.082C456.603 245.082 457.313 245.357 457.804 245.853C458.296 246.349 458.569 246.955 458.569 247.727C458.569 248.773 458.023 249.71 456.985 250.537C455.947 251.418 454.527 251.804 452.725 251.804C452.288 251.804 451.851 251.749 451.469 251.749C451.414 249.876 451.742 248.333 452.507 247.01C453.271 245.743 454.309 245.082 455.62 245.082ZM467.962 258.747C467.744 258.747 467.307 258.967 466.542 259.408C465.778 259.849 464.74 260.235 463.429 260.676C462.064 261.116 460.589 261.282 458.951 261.282C457.203 261.282 455.62 260.896 454.2 260.014C452.78 259.133 452.015 257.976 451.797 256.433C452.944 256.873 454.8 257.094 457.313 257.094C458.623 257.094 459.879 256.984 461.19 256.653C462.501 256.378 463.757 255.937 464.959 255.276C466.16 254.614 467.089 253.733 467.853 252.52C468.618 251.308 469 249.931 469 248.333C469 246.018 467.853 243.924 465.669 242.051C463.429 240.178 460.262 239.241 456.22 239.241C451.469 239.241 447.701 240.618 444.915 243.318C442.075 246.073 440.71 249.6 440.71 253.953C440.71 258.416 442.075 261.943 444.915 264.588C447.755 267.233 451.469 268.555 456.111 268.555C458.077 268.555 459.879 268.224 461.518 267.508C463.156 266.847 464.467 265.965 465.45 264.973C466.379 263.982 467.089 263.045 467.635 262.053C468.181 261.061 468.454 260.235 468.454 259.518C468.454 259.022 468.29 258.747 467.962 258.747Z" fill="white"/>
<path d="M412.3 151.2H421L449.4 110.2C451.7 106.7 454.7 101 454.7 101H454.9C454.9 101 454.4 106.6 454.4 110.2V151.2H463.2V88H454.5L426.3 128.9C424 132.3 420.9 138.2 420.9 138.2H420.7C420.7 138.2 421.2 132.6 421.2 129V88H412.3V151.2Z" fill="white"/>
</g>
<g filter="url(#filter1_d)">
<path d="M72.5752 309.588C72.5752 308.444 72.0552 307.482 71.0152 306.728C69.9752 305.974 68.6492 305.584 67.0632 305.584C64.8272 305.584 63.0332 306.26 61.6812 307.586C60.3292 308.938 59.6792 310.576 59.6792 312.5C59.6792 314.528 60.2772 316.166 61.5252 317.466C62.7732 318.766 64.5152 319.416 66.8032 319.416C68.4932 319.416 69.8972 318.922 71.0412 317.882C72.1852 316.868 72.7572 315.984 72.7572 315.204C72.7572 314.97 72.6532 314.84 72.4452 314.84C72.3412 314.84 71.8992 315.022 71.0932 315.334C70.2872 315.646 69.5332 315.802 68.8052 315.802C67.4532 315.802 66.4392 315.412 65.8152 314.632C65.1912 313.852 64.8792 312.916 64.8792 311.772C64.8792 310.836 65.0612 310.004 65.4512 309.276C65.8152 308.548 66.2832 308.184 66.8552 308.184C67.5312 308.184 67.8952 308.704 67.8952 309.744C67.8952 309.952 67.8692 310.212 67.8172 310.55C67.7652 310.888 67.7652 311.096 67.7652 311.2C67.7652 311.46 67.9732 311.72 68.3892 311.98C68.8052 312.24 69.2992 312.344 69.8192 312.344C70.7032 312.344 71.4052 312.058 71.8732 311.486C72.3412 310.914 72.5752 310.29 72.5752 309.588ZM85.1228 300.54C85.0188 300.54 84.9148 300.592 84.7848 300.696C84.0568 301.268 83.3808 301.736 82.7048 302.126C82.0288 302.542 81.5088 302.828 81.1188 302.984C80.7028 303.14 80.3648 303.296 80.0528 303.4C79.7408 303.53 79.5328 303.634 79.4028 303.738C79.2728 303.842 79.2208 303.972 79.2208 304.128C79.2208 304.31 79.2988 304.44 79.4808 304.518C79.6368 304.622 79.8448 304.726 80.1048 304.83C80.3648 304.934 80.6248 305.116 80.8848 305.35C81.1448 305.584 81.3528 306 81.5348 306.572C81.6908 307.144 81.7948 307.898 81.7948 308.782V318.844V318.896L81.8728 318.974C82.6528 319.182 83.5628 319.26 84.6288 319.26C85.4608 319.26 86.2928 319.182 87.1768 318.974C87.2288 318.974 87.2808 318.922 87.2808 318.844V300.67C87.2808 300.592 87.2028 300.54 87.0988 300.54H85.1228ZM102.175 305.506C100.069 305.506 98.3274 306.156 96.9754 307.456C95.5974 308.756 94.9214 310.42 94.9214 312.5C94.9214 314.606 95.5974 316.296 96.9494 317.596C98.3014 318.896 100.043 319.546 102.175 319.546C104.307 319.546 106.049 318.896 107.401 317.596C108.753 316.296 109.455 314.58 109.455 312.5C109.455 310.472 108.753 308.782 107.401 307.482C106.023 306.182 104.281 305.506 102.175 305.506ZM102.175 316.608C101.447 316.608 100.927 316.244 100.589 315.464C100.225 314.71 100.069 313.722 100.069 312.5C100.069 309.744 100.771 308.366 102.175 308.366C102.903 308.366 103.423 308.756 103.787 309.51C104.125 310.264 104.307 311.252 104.307 312.5C104.307 315.256 103.579 316.608 102.175 316.608ZM124.582 316.53C124.166 316.296 123.776 315.958 123.464 315.49C123.126 315.048 122.84 314.606 122.632 314.138C122.398 313.696 122.164 313.254 121.904 312.786C121.644 312.344 121.332 311.954 120.968 311.642C120.578 311.33 120.136 311.096 119.616 310.992C119.746 310.628 119.98 310.316 120.292 310.03C120.604 309.77 120.968 309.614 121.384 309.614C121.722 309.614 122.06 309.718 122.424 309.874C122.788 310.056 122.97 310.134 122.996 310.134C123.23 310.134 123.516 309.926 123.854 309.484C124.192 309.042 124.374 308.548 124.374 307.976C124.374 307.326 124.14 306.754 123.672 306.26C123.204 305.792 122.528 305.532 121.644 305.532C120.448 305.532 119.434 306.026 118.628 307.014C117.822 308.002 117.38 309.328 117.328 310.992H116.496V308.678C116.496 307.742 116.184 306.962 115.586 306.39C114.962 305.818 114.182 305.532 113.246 305.532C112.284 305.532 111.504 305.844 110.88 306.468C110.256 307.092 109.97 307.586 109.97 307.95C109.97 308.106 110.048 308.236 110.204 308.34C110.854 308.808 111.192 309.536 111.192 310.55V318.844C111.192 318.922 111.218 318.974 111.296 318.974C112.232 319.156 113.116 319.234 113.922 319.234C114.494 319.234 115.3 319.156 116.392 318.974L116.496 318.818V313.41C116.626 313.41 116.756 313.436 116.86 313.488C116.964 313.54 117.068 313.592 117.12 313.618C117.172 313.67 117.25 313.748 117.302 313.878C117.354 314.034 117.38 314.112 117.38 314.138C117.38 314.19 117.406 314.294 117.458 314.45L117.51 314.71C117.64 315.412 117.796 316.01 117.978 316.504C118.134 316.998 118.394 317.492 118.706 317.96C119.018 318.454 119.408 318.818 119.928 319.078C120.422 319.338 121.02 319.442 121.722 319.442C122.736 319.442 123.542 319.182 124.14 318.636C124.712 318.09 125.024 317.57 125.024 317.076C125.024 316.894 124.868 316.712 124.582 316.53ZM147.694 316.634C146.966 316.166 146.602 315.308 146.602 314.086C146.602 313.358 146.602 312.5 146.602 311.46C146.602 310.446 146.628 309.796 146.628 309.484C146.628 308.236 146.264 307.274 145.588 306.598C144.912 305.922 144.054 305.558 143.04 305.558C141.298 305.558 139.998 306.52 139.114 308.444H139.036C138.828 307.534 138.412 306.832 137.788 306.312C137.164 305.818 136.41 305.558 135.552 305.558C133.81 305.558 132.51 306.52 131.626 308.444H131.548C131.496 308.106 131.47 307.924 131.47 307.872C131.288 307.17 130.95 306.598 130.43 306.182C129.91 305.766 129.26 305.558 128.48 305.558C127.518 305.558 126.738 305.87 126.114 306.494C125.49 307.118 125.204 307.612 125.204 307.976C125.204 308.132 125.282 308.262 125.438 308.366C125.802 308.626 126.036 308.938 126.192 309.302C126.348 309.666 126.426 310.212 126.426 310.888C126.426 315.932 126.374 318.61 126.322 318.87C126.322 318.948 126.348 319 126.426 319C127.31 319.182 128.194 319.26 129.026 319.26C129.962 319.26 130.794 319.182 131.522 319C131.6 319 131.652 318.948 131.652 318.844V312.058C131.652 311.174 131.782 310.446 132.068 309.926C132.354 309.406 132.692 309.146 133.108 309.146C133.628 309.146 133.888 309.666 133.888 310.68V318.87C133.888 318.948 133.914 319 133.992 319C134.876 319.182 135.734 319.26 136.514 319.26C137.45 319.26 138.282 319.182 139.01 319C139.088 319 139.14 318.948 139.14 318.844V312.058C139.14 311.174 139.27 310.446 139.556 309.926C139.842 309.406 140.18 309.146 140.596 309.146C141.116 309.146 141.376 309.666 141.376 310.68V316.244C141.376 317.284 141.662 318.064 142.286 318.636C142.884 319.208 143.664 319.468 144.652 319.468C145.588 319.468 146.368 319.156 146.992 318.532C147.616 317.908 147.928 317.414 147.928 317.024C147.928 316.868 147.85 316.738 147.694 316.634ZM163.235 316.686C162.507 316.218 162.143 315.36 162.143 314.138L162.247 310.94C162.299 309.172 161.753 307.82 160.557 306.91C159.361 306 157.723 305.532 155.591 305.48C153.719 305.454 152.107 305.844 150.781 306.624C149.429 307.43 148.779 308.548 148.779 310.004C148.779 311.2 149.169 312.136 149.975 312.838C150.781 313.54 151.717 313.93 152.757 314.008C152.679 314.268 152.497 314.476 152.211 314.632C151.899 314.788 151.613 314.866 151.353 314.866C151.067 314.866 150.807 314.84 150.573 314.762C150.339 314.71 150.157 314.632 150.027 314.554C149.897 314.502 149.819 314.45 149.793 314.45C149.585 314.45 149.325 314.71 149.039 315.204C148.753 315.724 148.623 316.27 148.623 316.894C148.623 317.726 148.883 318.376 149.455 318.844C150.027 319.312 150.703 319.52 151.535 319.52C153.797 319.52 155.201 317.804 155.721 314.32C156.215 314.32 156.605 314.32 156.917 314.294V316.296C156.917 317.336 157.203 318.116 157.827 318.688C158.425 319.26 159.205 319.52 160.193 319.52C161.129 319.52 161.909 319.208 162.533 318.584C163.157 317.96 163.469 317.466 163.469 317.076C163.469 316.92 163.391 316.79 163.235 316.686ZM156.319 312.058C155.539 312.058 154.993 311.876 154.629 311.46C154.265 311.07 154.109 310.602 154.109 310.03C154.109 309.614 154.239 309.25 154.525 308.938C154.785 308.626 155.175 308.496 155.643 308.496C156.189 308.522 156.579 308.704 156.787 309.042C156.995 309.406 157.125 309.9 157.125 310.524L157.073 312.032L156.319 312.058ZM172.36 306.546C171.294 306.598 170.358 306.884 169.552 307.456C168.72 308.028 168.096 308.834 167.68 309.874H167.576L167.524 309.328C167.472 308.964 167.55 308.47 167.758 307.872C167.94 307.3 168.252 306.78 168.72 306.338C169.266 305.792 170.046 305.402 171.034 305.168C172.022 304.934 173.01 304.726 173.998 304.518C174.986 304.31 175.74 303.972 176.286 303.478C177.222 302.62 177.716 301.424 177.716 299.864C177.716 299.448 177.612 299.058 177.43 298.668C177.248 298.278 177.092 298.07 176.936 298.07C176.858 298.07 176.78 298.096 176.702 298.148C176.598 298.2 176.468 298.304 176.26 298.408C176.052 298.538 175.792 298.642 175.532 298.746C174.96 298.98 174.05 299.266 172.75 299.578C171.45 299.89 170.28 300.28 169.266 300.722C168.226 301.19 167.316 301.814 166.536 302.594C164.716 304.414 163.806 307.17 163.806 310.862C163.806 313.618 164.43 315.75 165.73 317.258C167.03 318.766 168.72 319.52 170.826 319.52C172.906 319.52 174.622 318.844 175.922 317.466C177.222 316.088 177.898 314.398 177.898 312.396C177.898 310.68 177.378 309.25 176.338 308.132C175.298 307.04 173.972 306.494 172.36 306.546ZM170.852 316.556C170.228 316.556 169.786 316.192 169.5 315.412C169.188 314.658 169.058 313.852 169.058 313.02C169.058 312.136 169.188 311.356 169.5 310.706C169.786 310.082 170.254 309.744 170.904 309.744C171.502 309.744 171.944 310.082 172.204 310.706C172.464 311.356 172.62 312.136 172.62 313.02C172.62 315.386 172.022 316.556 170.852 316.556ZM186.639 308.99C187.263 308.99 187.731 309.328 188.095 309.978C188.433 310.628 188.615 311.434 188.615 312.422C188.615 313.41 188.433 314.242 188.095 314.866C187.731 315.516 187.263 315.828 186.639 315.828C185.989 315.828 185.495 315.516 185.157 314.866C184.793 314.242 184.637 313.41 184.637 312.422C184.637 311.434 184.793 310.628 185.157 309.978C185.495 309.328 185.989 308.99 186.639 308.99ZM181.699 305.558C180.737 305.558 179.957 305.87 179.333 306.494C178.709 307.118 178.423 307.612 178.423 307.976C178.423 308.132 178.501 308.262 178.657 308.366C179.021 308.626 179.255 308.938 179.411 309.302C179.567 309.666 179.645 310.212 179.645 310.888C179.645 320.404 179.619 325.24 179.593 325.37C179.593 325.448 179.619 325.5 179.697 325.5C180.581 325.682 181.387 325.76 182.115 325.76C183.129 325.76 183.987 325.682 184.715 325.5C184.793 325.5 184.845 325.448 184.845 325.344V317.154H184.923C185.677 318.662 186.847 319.416 188.433 319.416C190.045 319.416 191.371 318.714 192.385 317.258C193.373 315.828 193.893 314.164 193.893 312.266C193.893 310.342 193.425 308.756 192.541 307.508C191.657 306.26 190.409 305.61 188.823 305.61C187.939 305.61 187.133 305.844 186.379 306.312C185.599 306.78 185.079 307.43 184.793 308.262H184.715C184.689 308.158 184.637 307.976 184.585 307.716C184.143 306.286 183.181 305.558 181.699 305.558ZM209.547 316.686C208.819 316.218 208.455 315.36 208.455 314.138L208.559 310.94C208.611 309.172 208.065 307.82 206.869 306.91C205.673 306 204.035 305.532 201.903 305.48C200.031 305.454 198.419 305.844 197.093 306.624C195.741 307.43 195.091 308.548 195.091 310.004C195.091 311.2 195.481 312.136 196.287 312.838C197.093 313.54 198.029 313.93 199.069 314.008C198.991 314.268 198.809 314.476 198.523 314.632C198.211 314.788 197.925 314.866 197.665 314.866C197.379 314.866 197.119 314.84 196.885 314.762C196.651 314.71 196.469 314.632 196.339 314.554C196.209 314.502 196.131 314.45 196.105 314.45C195.897 314.45 195.637 314.71 195.351 315.204C195.065 315.724 194.935 316.27 194.935 316.894C194.935 317.726 195.195 318.376 195.767 318.844C196.339 319.312 197.015 319.52 197.847 319.52C200.109 319.52 201.513 317.804 202.033 314.32C202.527 314.32 202.917 314.32 203.229 314.294V316.296C203.229 317.336 203.515 318.116 204.139 318.688C204.737 319.26 205.517 319.52 206.505 319.52C207.441 319.52 208.221 319.208 208.845 318.584C209.469 317.96 209.781 317.466 209.781 317.076C209.781 316.92 209.703 316.79 209.547 316.686ZM202.631 312.058C201.851 312.058 201.305 311.876 200.941 311.46C200.577 311.07 200.421 310.602 200.421 310.03C200.421 309.614 200.551 309.25 200.837 308.938C201.097 308.626 201.487 308.496 201.955 308.496C202.501 308.522 202.891 308.704 203.099 309.042C203.307 309.406 203.437 309.9 203.437 310.524L203.385 312.032L202.631 312.058ZM217.196 318.87C217.196 318.948 217.222 319 217.3 319C218.184 319.182 219.068 319.26 219.9 319.26C220.836 319.26 221.668 319.182 222.396 319C222.474 319 222.526 318.948 222.526 318.844V311.98C222.526 311.096 222.708 310.394 223.072 309.874C223.436 309.354 223.826 309.068 224.242 309.068C224.502 309.068 224.736 309.198 224.918 309.458C225.074 309.718 225.178 310.108 225.178 310.602V316.296C225.178 317.336 225.464 318.116 226.088 318.688C226.686 319.26 227.466 319.52 228.454 319.52C229.39 319.52 230.17 319.208 230.794 318.584C231.418 317.96 231.73 317.466 231.73 317.076C231.73 316.92 231.652 316.79 231.496 316.686C230.768 316.218 230.404 315.36 230.404 314.138C230.404 313.41 230.404 312.526 230.404 311.46C230.404 310.394 230.43 309.718 230.43 309.406C230.43 308.158 230.066 307.196 229.39 306.52C228.714 305.844 227.856 305.48 226.842 305.48C226.036 305.48 225.23 305.714 224.424 306.182C223.592 306.65 222.968 307.378 222.5 308.366H222.422C222.396 308.262 222.37 308.08 222.344 307.872C222.188 307.144 221.85 306.572 221.33 306.13C220.81 305.714 220.16 305.48 219.354 305.48C218.392 305.48 217.612 305.792 216.988 306.416C216.364 307.04 216.078 307.534 216.078 307.898C216.078 308.054 216.156 308.184 216.312 308.288C216.676 308.548 216.91 308.86 217.066 309.224C217.222 309.588 217.3 310.134 217.3 310.81C217.3 315.906 217.248 318.61 217.196 318.87ZM239.691 305.506C237.585 305.506 235.843 306.156 234.491 307.456C233.113 308.756 232.437 310.42 232.437 312.5C232.437 314.606 233.113 316.296 234.465 317.596C235.817 318.896 237.559 319.546 239.691 319.546C241.823 319.546 243.565 318.896 244.917 317.596C246.269 316.296 246.971 314.58 246.971 312.5C246.971 310.472 246.269 308.782 244.917 307.482C243.539 306.182 241.797 305.506 239.691 305.506ZM239.691 316.608C238.963 316.608 238.443 316.244 238.105 315.464C237.741 314.71 237.585 313.722 237.585 312.5C237.585 309.744 238.287 308.366 239.691 308.366C240.419 308.366 240.939 308.756 241.303 309.51C241.641 310.264 241.823 311.252 241.823 312.5C241.823 315.256 241.095 316.608 239.691 316.608ZM267.905 305.012C267.905 303.712 267.255 302.594 265.955 301.658C264.655 300.748 263.043 300.28 261.119 300.28C259.143 300.28 257.505 300.8 256.153 301.814C254.801 302.854 254.151 304.154 254.151 305.766C254.151 306.65 254.437 307.482 255.035 308.21C255.607 308.938 256.439 309.562 257.531 310.03V310.108C256.543 310.472 255.659 311.018 254.879 311.746C254.073 312.474 253.683 313.358 253.683 314.372C253.683 315.516 254.047 316.478 254.775 317.258C255.503 318.064 256.387 318.636 257.479 319C258.571 319.364 259.741 319.52 261.015 319.52C263.303 319.52 265.175 319 266.579 317.96C267.983 316.92 268.711 315.542 268.711 313.852C268.711 312.76 268.321 311.798 267.541 310.966C266.761 310.134 265.799 309.458 264.655 308.938V308.886C265.071 308.678 265.409 308.496 265.721 308.314C266.033 308.132 266.371 307.872 266.735 307.56C267.099 307.248 267.385 306.884 267.593 306.442C267.801 306.026 267.905 305.532 267.905 305.012ZM260.807 315.932C260.235 315.932 259.741 315.776 259.299 315.438C258.831 315.1 258.623 314.658 258.623 314.086C258.623 313.488 258.753 312.942 259.039 312.474C259.325 312.006 259.637 311.616 259.975 311.356C259.975 311.382 260.001 311.408 260.053 311.408C260.079 311.408 260.105 311.434 260.131 311.434L260.209 311.46C260.599 311.668 260.937 311.824 261.197 311.954C261.457 312.11 261.743 312.266 262.055 312.474C262.367 312.682 262.601 312.942 262.757 313.202C262.913 313.462 262.991 313.748 262.991 314.06C262.991 314.58 262.757 315.022 262.341 315.386C261.899 315.75 261.379 315.932 260.807 315.932ZM261.483 303.764C261.951 303.764 262.367 303.92 262.731 304.232C263.095 304.544 263.303 304.934 263.303 305.376C263.303 305.844 263.173 306.286 262.939 306.728C262.679 307.196 262.419 307.534 262.159 307.742C260.495 306.988 259.689 306.182 259.689 305.298C259.689 304.882 259.871 304.544 260.235 304.232C260.599 303.92 261.015 303.764 261.483 303.764ZM284.263 316.244C284.263 317.284 284.549 318.064 285.173 318.636C285.771 319.208 286.551 319.468 287.539 319.468C288.475 319.468 289.255 319.156 289.879 318.532C290.503 317.908 290.815 317.414 290.815 317.024C290.815 316.868 290.737 316.738 290.581 316.634C289.853 316.166 289.489 315.308 289.489 314.086V306.13C289.489 306.078 289.463 306.026 289.411 306C288.657 305.844 287.799 305.74 286.863 305.74C286.005 305.74 285.173 305.844 284.367 306C284.289 306.026 284.263 306.078 284.263 306.13V310.706H281.637V308.704C281.637 307.768 281.325 306.988 280.701 306.416C280.077 305.844 279.297 305.558 278.361 305.558C277.399 305.558 276.619 305.87 275.995 306.494C275.371 307.118 275.085 307.612 275.085 307.976C275.085 308.132 275.163 308.262 275.319 308.366C275.683 308.626 275.917 308.938 276.073 309.302C276.229 309.666 276.307 310.212 276.307 310.888C276.307 315.932 276.255 318.61 276.203 318.87C276.203 318.948 276.229 319 276.307 319C277.191 319.182 278.075 319.26 278.907 319.26C279.921 319.26 280.779 319.182 281.507 319C281.585 319 281.637 318.948 281.637 318.844V313.462H284.263V316.244ZM298.775 305.506C296.669 305.506 294.927 306.156 293.575 307.456C292.197 308.756 291.521 310.42 291.521 312.5C291.521 314.606 292.197 316.296 293.549 317.596C294.901 318.896 296.643 319.546 298.775 319.546C300.907 319.546 302.649 318.896 304.001 317.596C305.353 316.296 306.055 314.58 306.055 312.5C306.055 310.472 305.353 308.782 304.001 307.482C302.623 306.182 300.881 305.506 298.775 305.506ZM298.775 316.608C298.047 316.608 297.527 316.244 297.189 315.464C296.825 314.71 296.669 313.722 296.669 312.5C296.669 309.744 297.371 308.366 298.775 308.366C299.503 308.366 300.023 308.756 300.387 309.51C300.725 310.264 300.907 311.252 300.907 312.5C300.907 315.256 300.179 316.608 298.775 316.608ZM321.697 316.686C320.969 316.218 320.605 315.36 320.605 314.138L320.709 310.94C320.761 309.172 320.215 307.82 319.019 306.91C317.823 306 316.185 305.532 314.053 305.48C312.181 305.454 310.569 305.844 309.243 306.624C307.891 307.43 307.241 308.548 307.241 310.004C307.241 311.2 307.631 312.136 308.437 312.838C309.243 313.54 310.179 313.93 311.219 314.008C311.141 314.268 310.959 314.476 310.673 314.632C310.361 314.788 310.075 314.866 309.815 314.866C309.529 314.866 309.269 314.84 309.035 314.762C308.801 314.71 308.619 314.632 308.489 314.554C308.359 314.502 308.281 314.45 308.255 314.45C308.047 314.45 307.787 314.71 307.501 315.204C307.215 315.724 307.085 316.27 307.085 316.894C307.085 317.726 307.345 318.376 307.917 318.844C308.489 319.312 309.165 319.52 309.997 319.52C312.259 319.52 313.663 317.804 314.183 314.32C314.677 314.32 315.067 314.32 315.379 314.294V316.296C315.379 317.336 315.665 318.116 316.289 318.688C316.887 319.26 317.667 319.52 318.655 319.52C319.591 319.52 320.371 319.208 320.995 318.584C321.619 317.96 321.931 317.466 321.931 317.076C321.931 316.92 321.853 316.79 321.697 316.686ZM314.781 312.058C314.001 312.058 313.455 311.876 313.091 311.46C312.727 311.07 312.571 310.602 312.571 310.03C312.571 309.614 312.701 309.25 312.987 308.938C313.247 308.626 313.637 308.496 314.105 308.496C314.651 308.522 315.041 308.704 315.249 309.042C315.457 309.406 315.587 309.9 315.587 310.524L315.535 312.032L314.781 312.058ZM330.823 306.546C329.757 306.598 328.821 306.884 328.015 307.456C327.183 308.028 326.559 308.834 326.143 309.874H326.039L325.987 309.328C325.935 308.964 326.013 308.47 326.221 307.872C326.403 307.3 326.715 306.78 327.183 306.338C327.729 305.792 328.509 305.402 329.497 305.168C330.485 304.934 331.473 304.726 332.461 304.518C333.449 304.31 334.203 303.972 334.749 303.478C335.685 302.62 336.179 301.424 336.179 299.864C336.179 299.448 336.075 299.058 335.893 298.668C335.711 298.278 335.555 298.07 335.399 298.07C335.321 298.07 335.243 298.096 335.165 298.148C335.061 298.2 334.931 298.304 334.723 298.408C334.515 298.538 334.255 298.642 333.995 298.746C333.423 298.98 332.513 299.266 331.213 299.578C329.913 299.89 328.743 300.28 327.729 300.722C326.689 301.19 325.779 301.814 324.999 302.594C323.179 304.414 322.269 307.17 322.269 310.862C322.269 313.618 322.893 315.75 324.193 317.258C325.493 318.766 327.183 319.52 329.289 319.52C331.369 319.52 333.085 318.844 334.385 317.466C335.685 316.088 336.361 314.398 336.361 312.396C336.361 310.68 335.841 309.25 334.801 308.132C333.761 307.04 332.435 306.494 330.823 306.546ZM329.315 316.556C328.691 316.556 328.249 316.192 327.963 315.412C327.651 314.658 327.521 313.852 327.521 313.02C327.521 312.136 327.651 311.356 327.963 310.706C328.249 310.082 328.717 309.744 329.367 309.744C329.965 309.744 330.407 310.082 330.667 310.706C330.927 311.356 331.083 312.136 331.083 313.02C331.083 315.386 330.485 316.556 329.315 316.556ZM345.102 308.99C345.726 308.99 346.194 309.328 346.558 309.978C346.896 310.628 347.078 311.434 347.078 312.422C347.078 313.41 346.896 314.242 346.558 314.866C346.194 315.516 345.726 315.828 345.102 315.828C344.452 315.828 343.958 315.516 343.62 314.866C343.256 314.242 343.1 313.41 343.1 312.422C343.1 311.434 343.256 310.628 343.62 309.978C343.958 309.328 344.452 308.99 345.102 308.99ZM340.162 305.558C339.2 305.558 338.42 305.87 337.796 306.494C337.172 307.118 336.886 307.612 336.886 307.976C336.886 308.132 336.964 308.262 337.12 308.366C337.484 308.626 337.718 308.938 337.874 309.302C338.03 309.666 338.108 310.212 338.108 310.888C338.108 320.404 338.082 325.24 338.056 325.37C338.056 325.448 338.082 325.5 338.16 325.5C339.044 325.682 339.85 325.76 340.578 325.76C341.592 325.76 342.45 325.682 343.178 325.5C343.256 325.5 343.308 325.448 343.308 325.344V317.154H343.386C344.14 318.662 345.31 319.416 346.896 319.416C348.508 319.416 349.834 318.714 350.848 317.258C351.836 315.828 352.356 314.164 352.356 312.266C352.356 310.342 351.888 308.756 351.004 307.508C350.12 306.26 348.872 305.61 347.286 305.61C346.402 305.61 345.596 305.844 344.842 306.312C344.062 306.78 343.542 307.43 343.256 308.262H343.178C343.152 308.158 343.1 307.976 343.048 307.716C342.606 306.286 341.644 305.558 340.162 305.558ZM368.01 316.686C367.282 316.218 366.918 315.36 366.918 314.138L367.022 310.94C367.074 309.172 366.528 307.82 365.332 306.91C364.136 306 362.498 305.532 360.366 305.48C358.494 305.454 356.882 305.844 355.556 306.624C354.204 307.43 353.554 308.548 353.554 310.004C353.554 311.2 353.944 312.136 354.75 312.838C355.556 313.54 356.492 313.93 357.532 314.008C357.454 314.268 357.272 314.476 356.986 314.632C356.674 314.788 356.388 314.866 356.128 314.866C355.842 314.866 355.582 314.84 355.348 314.762C355.114 314.71 354.932 314.632 354.802 314.554C354.672 314.502 354.594 314.45 354.568 314.45C354.36 314.45 354.1 314.71 353.814 315.204C353.528 315.724 353.398 316.27 353.398 316.894C353.398 317.726 353.658 318.376 354.23 318.844C354.802 319.312 355.478 319.52 356.31 319.52C358.572 319.52 359.976 317.804 360.496 314.32C360.99 314.32 361.38 314.32 361.692 314.294V316.296C361.692 317.336 361.978 318.116 362.602 318.688C363.2 319.26 363.98 319.52 364.968 319.52C365.904 319.52 366.684 319.208 367.308 318.584C367.932 317.96 368.244 317.466 368.244 317.076C368.244 316.92 368.166 316.79 368.01 316.686ZM361.094 312.058C360.314 312.058 359.768 311.876 359.404 311.46C359.04 311.07 358.884 310.602 358.884 310.03C358.884 309.614 359.014 309.25 359.3 308.938C359.56 308.626 359.95 308.496 360.418 308.496C360.964 308.522 361.354 308.704 361.562 309.042C361.77 309.406 361.9 309.9 361.9 310.524L361.848 312.032L361.094 312.058ZM388.424 312.864C388.294 312.864 388.112 312.942 387.904 313.046C387.696 313.176 387.358 313.306 386.89 313.436C386.422 313.566 385.824 313.618 385.096 313.618C384.524 313.618 382.834 313.566 380.078 313.462C380.026 313.41 380.026 313.384 380.078 313.384C380.442 313.28 380.91 313.124 381.482 312.89C382.054 312.682 382.756 312.344 383.64 311.876C384.524 311.408 385.304 310.914 386.032 310.368C386.734 309.822 387.358 309.146 387.93 308.34C388.502 307.534 388.814 306.702 388.892 305.844C389.022 304.18 388.476 302.828 387.254 301.788C386.006 300.774 384.212 300.254 381.846 300.254C379.818 300.254 378.154 300.722 376.88 301.658C375.606 302.594 374.982 303.764 374.982 305.142C374.982 305.974 375.242 306.676 375.814 307.196C376.386 307.716 377.062 307.976 377.894 307.976C378.466 307.976 378.986 307.846 379.454 307.586C379.922 307.326 380.182 307.066 380.182 306.806C380.182 306.78 380.156 306.65 380.13 306.416C380.078 306.208 380.078 306.026 380.078 305.922C380.078 305.298 380.208 304.752 380.52 304.31C380.832 303.894 381.196 303.66 381.664 303.66C382.21 303.66 382.6 303.868 382.86 304.284C383.12 304.7 383.198 305.272 383.12 305.948C383.016 306.728 382.678 307.508 382.054 308.236C381.43 308.99 380.702 309.666 379.896 310.264C379.064 310.888 378.258 311.512 377.478 312.136C376.672 312.76 375.996 313.488 375.45 314.32C374.878 315.152 374.618 316.036 374.618 316.946C374.618 317.466 374.722 317.986 374.93 318.532C375.138 319.104 375.346 319.364 375.554 319.364L376.724 319.208C377.504 319.104 378.31 319.026 379.168 319.026C379.818 319.026 381.014 319.13 382.782 319.286C384.524 319.442 385.46 319.52 385.564 319.52C386.942 319.52 387.982 319.182 388.684 318.48C389.386 317.804 389.75 316.894 389.75 315.776C389.75 315.152 389.594 314.502 389.308 313.852C388.996 313.202 388.71 312.864 388.424 312.864ZM406.618 309.9C406.618 308.08 406.332 306.442 405.812 305.038C405.292 303.634 404.382 302.49 403.134 301.58C401.886 300.696 400.326 300.228 398.454 300.228C395.906 300.228 393.93 301.164 392.474 302.984C391.018 304.83 390.316 307.144 390.316 309.9C390.316 312.708 391.044 314.996 392.526 316.816C393.982 318.636 395.958 319.52 398.454 319.52C401.08 319.52 403.108 318.636 404.512 316.816C405.916 315.022 406.618 312.708 406.618 309.9ZM395.932 309.9C395.932 308.184 396.14 306.728 396.608 305.558C397.05 304.388 397.674 303.79 398.454 303.79C399.286 303.79 399.936 304.362 400.352 305.506C400.768 306.65 401.002 308.132 401.002 309.9C401.002 313.982 400.144 316.01 398.454 316.01C397.596 316.01 396.972 315.464 396.556 314.32C396.14 313.202 395.932 311.72 395.932 309.9ZM420.696 312.864C420.566 312.864 420.384 312.942 420.176 313.046C419.968 313.176 419.63 313.306 419.162 313.436C418.694 313.566 418.096 313.618 417.368 313.618C416.796 313.618 415.106 313.566 412.35 313.462C412.298 313.41 412.298 313.384 412.35 313.384C412.714 313.28 413.182 313.124 413.754 312.89C414.326 312.682 415.028 312.344 415.912 311.876C416.796 311.408 417.576 310.914 418.304 310.368C419.006 309.822 419.63 309.146 420.202 308.34C420.774 307.534 421.086 306.702 421.164 305.844C421.294 304.18 420.748 302.828 419.526 301.788C418.278 300.774 416.484 300.254 414.118 300.254C412.09 300.254 410.426 300.722 409.152 301.658C407.878 302.594 407.254 303.764 407.254 305.142C407.254 305.974 407.514 306.676 408.086 307.196C408.658 307.716 409.334 307.976 410.166 307.976C410.738 307.976 411.258 307.846 411.726 307.586C412.194 307.326 412.454 307.066 412.454 306.806C412.454 306.78 412.428 306.65 412.402 306.416C412.35 306.208 412.35 306.026 412.35 305.922C412.35 305.298 412.48 304.752 412.792 304.31C413.104 303.894 413.468 303.66 413.936 303.66C414.482 303.66 414.872 303.868 415.132 304.284C415.392 304.7 415.47 305.272 415.392 305.948C415.288 306.728 414.95 307.508 414.326 308.236C413.702 308.99 412.974 309.666 412.168 310.264C411.336 310.888 410.53 311.512 409.75 312.136C408.944 312.76 408.268 313.488 407.722 314.32C407.15 315.152 406.89 316.036 406.89 316.946C406.89 317.466 406.994 317.986 407.202 318.532C407.41 319.104 407.618 319.364 407.826 319.364L408.996 319.208C409.776 319.104 410.582 319.026 411.44 319.026C412.09 319.026 413.286 319.13 415.054 319.286C416.796 319.442 417.732 319.52 417.836 319.52C419.214 319.52 420.254 319.182 420.956 318.48C421.658 317.804 422.022 316.894 422.022 315.776C422.022 315.152 421.866 314.502 421.58 313.852C421.268 313.202 420.982 312.864 420.696 312.864ZM438.889 309.9C438.889 308.08 438.603 306.442 438.083 305.038C437.563 303.634 436.653 302.49 435.405 301.58C434.157 300.696 432.597 300.228 430.725 300.228C428.177 300.228 426.201 301.164 424.745 302.984C423.289 304.83 422.587 307.144 422.587 309.9C422.587 312.708 423.315 314.996 424.797 316.816C426.253 318.636 428.229 319.52 430.725 319.52C433.351 319.52 435.379 318.636 436.783 316.816C438.187 315.022 438.889 312.708 438.889 309.9ZM428.203 309.9C428.203 308.184 428.411 306.728 428.879 305.558C429.321 304.388 429.945 303.79 430.725 303.79C431.557 303.79 432.207 304.362 432.623 305.506C433.039 306.65 433.273 308.132 433.273 309.9C433.273 313.982 432.415 316.01 430.725 316.01C429.867 316.01 429.243 315.464 428.827 314.32C428.411 313.202 428.203 311.72 428.203 309.9ZM458.091 314.814C457.961 314.814 457.701 314.918 457.285 315.1C456.869 315.282 456.323 315.464 455.647 315.672C454.971 315.88 454.295 315.958 453.619 315.958C452.787 315.958 452.397 315.724 452.397 315.23C452.397 314.918 452.579 314.632 452.969 314.372C453.333 314.112 453.801 313.852 454.347 313.592C454.893 313.332 455.439 313.046 455.985 312.734C456.531 312.422 456.999 311.98 457.389 311.408C457.753 310.862 457.961 310.212 457.961 309.484C457.961 308.184 457.389 307.17 456.271 306.494C455.153 305.818 453.853 305.48 452.371 305.48C450.525 305.48 448.965 305.974 447.665 306.91C446.365 307.872 445.741 308.912 445.741 310.004C445.741 310.212 445.845 310.316 446.053 310.316C446.157 310.316 446.417 310.212 446.833 310.004C447.249 309.796 447.795 309.588 448.471 309.38C449.121 309.172 449.797 309.068 450.499 309.068C450.889 309.068 451.227 309.172 451.487 309.328C451.747 309.51 451.903 309.744 451.903 310.056C451.903 310.42 451.695 310.758 451.279 311.044C450.863 311.33 450.395 311.59 449.823 311.824C449.251 312.084 448.679 312.344 448.107 312.656C447.535 312.968 447.067 313.41 446.703 313.982C446.313 314.554 446.131 315.204 446.183 315.958C446.235 317.05 446.729 317.934 447.691 318.558C448.627 319.208 449.927 319.52 451.539 319.52C453.385 319.52 454.971 319.078 456.323 318.142C457.675 317.232 458.351 316.218 458.403 315.126C458.403 314.918 458.299 314.814 458.091 314.814ZM465.568 316.426C465.568 315.594 465.23 314.892 464.606 314.294C463.982 313.722 463.202 313.41 462.266 313.41C461.356 313.41 460.602 313.722 459.978 314.294C459.354 314.892 459.042 315.594 459.042 316.426C459.042 317.258 459.328 317.986 459.952 318.558C460.576 319.13 461.33 319.416 462.266 319.416C463.228 319.416 464.008 319.13 464.632 318.558C465.256 317.986 465.568 317.284 465.568 316.426Z" fill="white"/>
</g>
<defs>
<filter id="filter0_d" x="39" y="68" width="450" height="234" filterUnits="userSpaceOnUse" color-interpolation-filters="sRGB">
<feFlood flood-opacity="0" result="BackgroundImageFix"/>
<feColorMatrix in="SourceAlpha" type="matrix" values="0 0 0 0 0 0 0 0 0 0 0 0 0 0 0 0 0 0 127 0"/>
<feOffset/>
<feGaussianBlur stdDeviation="10"/>
<feColorMatrix type="matrix" values="0 0 0 0 0.231373 0 0 0 0 0.172549 0 0 0 0 0.447059 0 0 0 1 0"/>
<feBlend mode="normal" in2="BackgroundImageFix" result="effect1_dropShadow"/>
<feBlend mode="normal" in="SourceGraphic" in2="effect1_dropShadow" result="shape"/>
</filter>
<filter id="filter1_d" x="39.6792" y="278.07" width="445.889" height="67.69" filterUnits="userSpaceOnUse" color-interpolation-filters="sRGB">
<feFlood flood-opacity="0" result="BackgroundImageFix"/>
<feColorMatrix in="SourceAlpha" type="matrix" values="0 0 0 0 0 0 0 0 0 0 0 0 0 0 0 0 0 0 127 0"/>
<feOffset/>
<feGaussianBlur stdDeviation="10"/>
<feColorMatrix type="matrix" values="0 0 0 0 0.231373 0 0 0 0 0.172549 0 0 0 0 0.447059 0 0 0 1 0"/>
<feBlend mode="normal" in2="BackgroundImageFix" result="effect1_dropShadow"/>
<feBlend mode="normal" in="SourceGraphic" in2="effect1_dropShadow" result="shape"/>
</filter>
<clipPath id="clip0">
<rect width="31.364" height="31.364" fill="white" transform="translate(0 277.299) rotate(-69.0942)"/>
</clipPath>
</defs>
</svg>
