<svg width="1259" height="263" viewBox="0 0 1259 263" fill="none" xmlns="http://www.w3.org/2000/svg">
<g clip-path="url(#clip0)">
<path d="M41.6886 186.746C100.053 256.256 229.288 290.493 537.264 237.063C864.52 180.002 896.308 142.134 1068.27 150.434C1240.24 158.734 1259 254.181 1259 254.181C1259 254.181 1276.72 14.0059 1031.8 4.66864C786.875 -4.66864 399.17 137.984 184.994 111.529C18.2387 90.7791 7.81648 0 7.81648 0C7.81648 0 -24.4923 107.897 41.6886 186.746Z" fill="#B9CF29"/>
<g clip-path="url(#clip1)">
<path fill-rule="evenodd" clip-rule="evenodd" d="M156.883 159.152L156.954 158.945C159.667 159.114 162.367 158.438 164.687 157.007C166.919 155.642 168.6 153.524 169.431 151.028C170.723 147.305 170.177 143.687 167.792 140.172C165.408 136.657 161.286 133.976 155.429 132.129C148.84 130.051 142.568 129.906 136.615 131.694C130.662 133.482 127.131 135.982 126.024 139.195C125.683 140.17 125.959 140.801 126.838 141.079C127.943 141.144 129.051 141.119 130.151 141.003C132.519 140.873 134.892 140.869 137.26 140.992C139.837 141.086 142.39 141.516 144.857 142.272C150.612 144.086 152.935 146.601 151.828 149.816C151.246 151.485 149.908 152.794 147.793 153.727C146.018 152.801 144.169 152.024 142.267 151.404C141.107 150.982 139.839 150.966 138.668 151.358C137.89 151.617 137.182 152.055 136.6 152.637C136.193 153.107 135.881 153.652 135.682 154.243C135.547 154.66 135.478 155.095 135.475 155.533C135.493 156.112 135.646 156.678 135.922 157.185C136.263 157.846 136.744 158.422 137.333 158.872C138.225 159.496 139.24 159.92 140.308 160.116C141.894 160.458 143.518 160.581 145.137 160.482C146.819 163.284 147.186 166.058 146.24 168.804C145.597 170.491 144.324 171.857 142.693 172.607C141.806 173.074 140.834 173.355 139.836 173.433C138.839 173.511 137.835 173.385 136.887 173.061C135.29 172.662 133.895 171.682 132.97 170.31C132.597 169.728 132.365 169.067 132.292 168.378C132.22 167.69 132.309 166.994 132.552 166.346C132.63 166.117 132.995 165.377 133.64 164.134C133.962 163.513 133.647 162.586 132.693 161.354C131.619 160.047 130.173 159.105 128.55 158.656C125.475 157.685 122.923 157.783 120.896 158.951C118.914 160.066 117.417 161.887 116.698 164.057C115.555 167.356 116.437 170.758 119.345 174.263C122.252 177.768 127.073 180.58 133.806 182.698C136.473 183.534 139.218 184.09 141.998 184.355C144.826 184.622 147.675 184.572 150.492 184.206C153.229 183.872 155.84 182.857 158.091 181.253C160.313 179.673 161.976 177.418 162.839 174.818C163.882 171.984 163.862 168.863 162.782 166.044C161.632 163.148 159.555 160.723 156.883 159.152ZM205.265 184.157C205.978 180.896 207.658 173.57 210.306 162.179C210.321 162.075 210.301 161.969 210.25 161.878C210.199 161.786 210.119 161.715 210.023 161.674C207.74 160.789 205.38 160.117 202.975 159.667C200.647 159.192 198.283 158.919 195.909 158.852C195.803 158.854 195.7 158.89 195.615 158.954C195.531 159.018 195.469 159.108 195.438 159.21L193.678 163.666L193.452 163.624C192.874 161.521 191.677 159.643 190.019 158.24C188.199 156.719 186.019 155.701 183.691 155.283C181.486 154.796 179.195 154.878 177.031 155.524C174.866 156.169 172.899 157.356 171.312 158.975C167.674 162.471 165.194 167.014 164.212 171.985C163.101 177.068 163.485 181.689 165.362 185.85C166.199 187.828 167.519 189.562 169.198 190.888C170.878 192.214 172.863 193.09 174.969 193.434C177.439 193.955 180.005 193.764 182.372 192.883C184.728 192.017 186.778 190.468 188.263 188.431L188.49 188.473C188.389 189.56 188.506 190.656 188.835 191.696C189.163 192.736 189.697 193.699 190.403 194.527C191.968 196.272 194.079 197.423 196.383 197.788C198.789 198.287 201.291 197.952 203.484 196.836C205.75 195.709 207.039 194.428 207.351 192.992C207.395 192.768 207.376 192.536 207.298 192.321C207.22 192.106 207.086 191.917 206.909 191.775C205.088 190.011 204.541 187.472 205.265 184.157ZM183.549 184.781C182.671 184.613 181.861 184.193 181.215 183.571C180.569 182.949 180.116 182.152 179.909 181.276C179.283 178.964 179.272 176.527 179.876 174.21C180.307 171.821 181.339 169.583 182.871 167.71C184.271 166.106 185.871 165.487 187.685 165.852C188.58 166.017 189.407 166.441 190.067 167.072C190.726 167.704 191.189 168.516 191.398 169.408C192.014 171.734 192.023 174.181 191.424 176.511C190.992 178.89 189.963 181.118 188.436 182.982C187.868 183.711 187.11 184.266 186.247 184.583C185.383 184.901 184.449 184.97 183.549 184.781ZM210.507 198.541C210.491 198.629 210.509 198.72 210.558 198.795C210.606 198.87 210.681 198.923 210.767 198.944C213.232 199.715 215.761 200.261 218.323 200.578C220.792 200.907 223.29 200.954 225.769 200.718C225.824 200.721 225.878 200.714 225.929 200.695C225.98 200.677 226.027 200.649 226.068 200.612C226.108 200.576 226.141 200.531 226.164 200.482C226.187 200.432 226.201 200.379 226.203 200.324L228.694 181.05C228.865 178.925 229.699 176.91 231.076 175.292C232.333 173.933 233.582 173.325 234.803 173.467C235.199 173.512 235.577 173.658 235.901 173.892C236.225 174.126 236.485 174.44 236.655 174.804C237.102 175.843 237.222 176.995 237.001 178.105L234.938 194.092C234.565 196.967 235.169 199.299 236.751 201.09C238.492 202.964 240.87 204.107 243.41 204.293C245.974 204.683 248.587 204.033 250.677 202.485C252.713 200.941 253.802 199.642 253.945 198.566C253.966 198.339 253.925 198.11 253.828 197.904C253.731 197.698 253.581 197.521 253.393 197.394C251.431 195.779 250.667 193.266 251.101 189.856C251.366 187.815 251.706 185.296 252.122 182.301C252.531 179.316 252.79 177.407 252.898 176.574C253.353 173.073 252.695 170.24 250.925 168.076C250.038 166.999 248.947 166.111 247.717 165.463C246.486 164.816 245.14 164.421 243.757 164.304C241.251 164.047 238.722 164.421 236.395 165.391C233.719 166.492 231.456 168.418 229.931 170.894L229.704 170.867C229.693 170.521 229.682 170.05 229.654 169.454C229.516 167.488 228.697 165.633 227.34 164.213C225.816 162.735 223.826 161.843 221.717 161.692C219.16 161.297 216.552 161.933 214.457 163.463C212.421 164.977 211.338 166.269 211.196 167.338C211.173 167.566 211.213 167.797 211.31 168.004C211.407 168.212 211.558 168.389 211.747 168.517C212.673 169.24 213.345 170.242 213.666 171.377C213.979 172.879 214.004 174.428 213.739 175.94C211.886 190.254 210.809 197.787 210.507 198.541ZM298.607 170.025C298.617 169.937 298.602 169.849 298.565 169.769C298.528 169.689 298.471 169.62 298.399 169.571C296.01 169.003 293.576 168.647 291.126 168.508C288.541 168.359 285.949 168.463 283.384 168.819L283.045 169.242L281.911 188.414C281.761 190.963 281.114 192.954 279.97 194.389C278.83 195.828 277.647 196.509 276.413 196.448C276.014 196.427 275.627 196.304 275.288 196.091C274.949 195.878 274.669 195.582 274.474 195.23C273.958 194.224 273.756 193.084 273.895 191.96L274.83 176.308C274.998 173.421 274.195 171.117 272.419 169.397C270.513 167.626 268.027 166.626 265.436 166.587C264.165 166.468 262.884 166.607 261.668 166.996C260.452 167.384 259.326 168.015 258.356 168.85C256.452 170.51 255.466 171.911 255.397 173.038C255.37 173.279 255.415 173.523 255.527 173.738C255.638 173.953 255.81 174.13 256.021 174.246C258.145 175.742 259.115 178.081 258.929 181.263L258.165 194.189C257.952 197.761 258.789 200.565 260.678 202.579C261.656 203.6 262.824 204.417 264.116 204.981C265.408 205.546 266.798 205.848 268.206 205.869C274.209 206.203 278.569 203.913 281.285 198.999L281.511 199.011L281.048 206.87C280.97 208.049 280.65 209.199 280.109 210.247C279.568 211.296 278.816 212.219 277.903 212.959C276.898 213.819 275.733 214.468 274.476 214.867C273.218 215.266 271.895 215.408 270.583 215.283C268.338 215.216 266.133 214.668 264.114 213.675C262.649 212.966 261.285 212.061 260.059 210.984C259.16 210.124 258.506 209.689 258.09 209.663C257.476 209.632 257.144 210.004 257.101 210.784C257.068 212.139 257.359 213.482 257.949 214.7C259.623 218.379 262.628 221.273 266.349 222.789C268.857 223.891 271.546 224.514 274.28 224.625C280.998 224.994 286.294 223.394 290.167 219.825C294.039 216.256 296.159 211.336 296.526 205.063L298.607 170.025ZM339.199 179.868C339.204 176.585 337.666 173.871 334.587 171.727C331.508 169.584 327.602 168.508 322.87 168.5C316.242 168.476 310.932 170.349 306.939 174.117C305.015 175.868 303.484 178.013 302.449 180.408C301.414 182.804 300.898 185.395 300.936 188.008C300.926 193.701 302.755 198.391 306.424 202.08C310.088 205.762 315.288 207.613 322.025 207.633C327.062 207.65 331.267 206.215 334.64 203.329C338.013 200.442 339.702 197.92 339.705 195.763C339.731 195.631 339.725 195.494 339.69 195.364C339.654 195.234 339.589 195.114 339.5 195.014C339.41 194.913 339.299 194.835 339.174 194.785C339.05 194.736 338.916 194.716 338.782 194.727C337.428 195.084 336.101 195.538 334.81 196.084C332.634 196.943 330.321 197.397 327.984 197.424C323.977 197.411 321.036 196.302 319.163 194.094C317.272 191.832 316.274 188.945 316.362 185.987C316.319 183.526 316.909 181.096 318.074 178.933C319.207 176.876 320.596 175.849 322.241 175.853C324.299 175.855 325.321 177.332 325.32 180.276C325.301 181.026 325.235 181.774 325.123 182.516C325.024 183.138 324.957 183.765 324.923 184.395C324.922 185.131 325.55 185.854 326.812 186.57C328.096 187.292 329.543 187.663 331.013 187.648C333.684 187.651 335.713 186.851 337.106 185.233C338.441 183.77 339.188 181.857 339.199 179.868ZM407.419 196.486C405.181 195.232 403.956 192.893 403.745 189.47C403.615 187.418 403.474 184.946 403.322 182.054C403.17 179.163 403.069 177.301 403.019 176.47C402.802 172.946 401.621 170.273 399.474 168.451C397.315 166.625 394.528 165.734 391.72 165.973C386.584 166.251 382.878 169.18 380.602 174.76L380.368 174.777C379.78 172.404 378.346 170.332 376.341 168.957C374.335 167.628 371.949 167.007 369.557 167.19C364.421 167.476 360.715 170.407 358.438 175.985L358.205 175.995C357.991 175.025 357.884 174.496 357.876 174.393C357.312 172.522 356.135 170.898 354.539 169.788C352.781 168.653 350.697 168.147 348.62 168.352C347.346 168.373 346.09 168.648 344.922 169.161C343.755 169.674 342.699 170.415 341.817 171.34C340.105 173.173 339.282 174.631 339.349 175.715C339.37 175.943 339.452 176.161 339.584 176.348C339.717 176.534 339.896 176.681 340.103 176.775C341.152 177.324 342.003 178.191 342.536 179.254C343.123 180.676 343.44 182.196 343.471 183.735C344.347 197.978 344.705 205.498 344.545 206.294C344.549 206.383 344.585 206.468 344.646 206.532C344.707 206.596 344.789 206.636 344.877 206.644C347.443 206.98 350.033 207.083 352.617 206.952C355.1 206.85 357.564 206.468 359.963 205.813C360.017 205.806 360.068 205.79 360.115 205.763C360.162 205.736 360.203 205.701 360.236 205.658C360.269 205.615 360.293 205.566 360.307 205.513C360.321 205.461 360.324 205.406 360.317 205.353L359.137 186.188C358.905 184.111 359.216 182.009 360.041 180.092C360.792 178.583 361.76 177.793 362.945 177.722C364.484 177.641 365.344 179.039 365.518 181.93L366.941 205.06C366.944 205.149 366.98 205.234 367.041 205.299C367.102 205.363 367.185 205.403 367.273 205.41C369.761 205.743 372.273 205.851 374.78 205.734C377.264 205.631 379.728 205.246 382.126 204.588C382.18 204.582 382.231 204.565 382.278 204.538C382.325 204.512 382.366 204.476 382.399 204.433C382.432 204.39 382.456 204.341 382.47 204.289C382.484 204.236 382.487 204.182 382.479 204.128L381.3 184.963C381.067 182.889 381.379 180.789 382.204 178.874C382.955 177.358 383.923 176.568 385.107 176.505C386.647 176.416 387.507 177.821 387.681 180.705L388.645 196.419C388.826 199.31 389.862 201.494 391.753 202.992C393.808 204.531 396.357 205.243 398.904 204.991C400.18 204.966 401.438 204.686 402.606 204.166C403.774 203.647 404.828 202.899 405.706 201.965C407.418 200.101 408.24 198.63 408.174 197.554C408.153 197.324 408.072 197.104 407.94 196.917C407.807 196.729 407.627 196.581 407.419 196.486ZM447.287 162.037C447.281 161.949 447.252 161.865 447.202 161.793C447.153 161.721 447.084 161.663 447.005 161.627C444.529 161.451 442.043 161.5 439.576 161.773C437.008 162.041 434.473 162.564 432.007 163.334L431.749 163.808L434.052 182.88C434.422 184.985 434.127 187.154 433.208 189.079C432.34 190.678 431.295 191.544 430.073 191.679C429.673 191.724 429.269 191.667 428.897 191.512C428.526 191.358 428.199 191.111 427.947 190.794C427.259 189.891 426.857 188.8 426.792 187.662L424.918 172.104C424.828 170.831 424.458 169.593 423.833 168.482C423.209 167.372 422.346 166.415 421.308 165.684C419.129 164.252 416.507 163.671 413.934 164.048C412.67 164.136 411.436 164.48 410.307 165.06C409.177 165.641 408.176 166.445 407.362 167.425C405.79 169.376 405.067 170.907 405.202 172.032C405.22 172.276 405.308 172.509 405.455 172.704C405.602 172.898 405.802 173.046 406.03 173.128C408.392 174.246 409.763 176.397 410.144 179.558L411.741 192.786C412.164 196.293 413.484 198.864 415.699 200.498C418.015 202.158 420.877 202.853 423.689 202.437C426.198 202.166 428.598 201.256 430.663 199.793C432.94 198.118 434.613 195.739 435.429 193.018L435.67 193.067C435.8 193.577 435.963 194.077 436.159 194.564C436.824 196.398 438.078 197.956 439.72 198.99C441.521 200.035 443.62 200.433 445.673 200.117C446.952 200.034 448.2 199.691 449.344 199.108C450.487 198.525 451.502 197.714 452.326 196.725C453.905 194.781 454.628 193.272 454.493 192.199C454.46 191.97 454.366 191.755 454.222 191.575C454.078 191.395 453.888 191.257 453.673 191.176C451.59 190.173 450.34 187.94 449.922 184.477C448.135 169.669 447.257 162.189 447.287 162.037ZM501.879 169.726L501.825 169.44C503.496 168.873 504.967 167.828 506.059 166.432C507.108 165.1 507.616 163.417 507.48 161.721C507.409 158.998 505.77 156.764 502.56 155.019C499.351 153.274 494.885 152.869 489.162 153.803C482.472 154.891 477.567 157.43 474.448 161.418C471.329 165.406 470.317 170.449 471.413 176.546C472.625 183.269 475.396 187.946 479.725 190.576C484.055 193.206 489.539 193.982 496.178 192.903C502.009 191.956 506.375 189.913 509.279 186.776C512.19 183.641 513.349 180.43 512.754 177.143C512.581 175.957 512.138 174.828 511.46 173.844C510.782 172.859 509.887 172.046 508.845 171.469C506.723 170.26 504.315 169.658 501.879 169.726ZM489.832 161.908C490.261 161.828 490.703 161.841 491.126 161.946C491.55 162.051 491.947 162.246 492.291 162.518C492.976 163.008 493.446 163.748 493.603 164.581C493.712 165.274 493.654 165.984 493.433 166.65C493.212 167.316 492.835 167.919 492.334 168.406C491.243 169.602 489.422 170.508 486.871 171.124L486.186 171.234C485.676 169.154 485.703 166.977 486.263 164.91C486.497 164.109 486.961 163.397 487.596 162.863C488.231 162.328 489.009 161.996 489.832 161.908ZM494.548 185.102C490.641 185.736 488.163 182.831 487.112 176.385C487.658 176.247 488.241 176.124 488.846 176.029C491.484 175.599 493.634 175.809 495.297 176.659C496.962 177.504 497.93 178.657 498.185 180.105C498.294 180.655 498.293 181.222 498.185 181.772C498.076 182.323 497.861 182.846 497.552 183.313C497.208 183.812 496.762 184.229 496.243 184.538C495.725 184.847 495.147 185.039 494.548 185.102ZM529.981 146.544C523.89 147.715 519.236 150.476 516.018 154.829C512.8 159.181 511.806 164.238 513.035 170C514.274 175.811 517.253 180.137 521.972 182.979C526.69 185.821 532.124 186.649 538.273 185.462C544.466 184.268 549.151 181.477 552.33 177.088C555.508 172.699 556.486 167.62 555.261 161.851C554.769 159.196 553.716 156.679 552.174 154.47C550.633 152.261 548.638 150.413 546.326 149.049C541.576 146.195 536.128 145.36 529.981 146.544ZM536.537 177.316C534.468 177.719 532.706 176.958 531.252 175.034C529.604 172.664 528.492 169.959 527.992 167.108C526.36 159.469 527.587 155.256 531.671 154.47C533.784 154.059 535.573 154.807 537.022 156.7C538.471 158.592 539.57 161.276 540.304 164.736C541.919 172.324 540.663 176.517 536.537 177.316ZM602.681 163.817C600.264 162.909 598.676 160.775 597.918 157.415C597.511 155.594 597.137 153.877 596.795 152.266C596.458 150.65 596.213 149.438 596.051 148.615C595.89 147.792 595.775 147.219 595.699 146.881C594.661 142.278 592.5 139.22 589.215 137.706C585.93 136.192 581.976 135.912 577.353 136.865C572.74 137.686 568.412 139.684 564.782 142.671C561.474 145.508 560.004 147.74 560.373 149.368C560.571 150.235 561.348 150.529 562.703 150.251C563.154 150.158 563.73 150.013 564.421 149.822C565.113 149.631 565.586 149.509 565.841 149.455C566.795 153.678 567.041 157.216 566.58 160.07C566.118 162.923 564.959 164.539 563.101 164.918C562.617 165.009 562.118 164.968 561.655 164.799C561.34 164.664 561.002 164.593 560.66 164.588C560.056 164.712 559.51 165.601 559.015 167.262C558.518 168.935 558.47 170.711 558.875 172.409C559.08 173.518 559.505 174.574 560.123 175.514C560.742 176.454 561.542 177.259 562.476 177.88C563.455 178.487 564.545 178.89 565.682 179.065C566.818 179.239 567.978 179.182 569.092 178.897C571.153 178.554 573.023 177.475 574.361 175.857C575.594 174.345 576.41 172.532 576.726 170.6C577.044 168.203 577.025 165.772 576.67 163.379C576.367 160.814 575.911 158.269 575.304 155.759C574.749 153.541 574.038 150.965 573.17 148.029C574.357 147.699 575.597 147.612 576.817 147.772C577.721 147.899 578.539 148.38 579.093 149.112C579.563 149.734 579.954 150.413 580.259 151.132C580.562 151.954 580.805 152.798 580.984 153.657L583.891 166.533C584.531 169.361 585.945 171.367 588.132 172.55C590.441 173.754 593.103 174.079 595.63 173.463C596.882 173.257 598.08 172.798 599.152 172.113C600.224 171.429 601.148 170.532 601.868 169.479C603.264 167.389 603.842 165.816 603.603 164.758C603.544 164.534 603.427 164.329 603.266 164.165C603.104 164 602.903 163.88 602.681 163.817ZM630.141 157.086C630.789 159.914 632.171 161.922 634.287 163.111C636.557 164.324 639.191 164.647 641.683 164.018C642.934 163.806 644.129 163.341 645.197 162.651C646.266 161.962 647.185 161.061 647.899 160.004C649.28 157.908 649.856 156.334 649.612 155.284C649.552 155.059 649.435 154.854 649.272 154.689C649.109 154.524 648.906 154.405 648.683 154.343C646.266 153.447 644.671 151.32 643.898 147.964L638.837 125.981C638.829 125.901 638.794 125.826 638.737 125.769C638.681 125.712 638.607 125.676 638.528 125.668C635.99 125.667 633.459 125.943 630.981 126.492C628.559 126.991 626.194 127.737 623.922 128.718C623.838 128.744 623.767 128.803 623.725 128.882C623.683 128.962 623.674 129.054 623.7 129.14L626.612 141.787L619.007 143.378L617.734 137.84C617.501 136.635 617.012 135.496 616.299 134.501C615.586 133.507 614.666 132.68 613.605 132.08C611.352 130.857 608.731 130.518 606.245 131.128C604.997 131.338 603.803 131.798 602.734 132.481C601.665 133.164 600.743 134.056 600.022 135.105C598.626 137.18 598.057 138.739 598.294 139.796C598.356 140.019 598.474 140.222 598.637 140.386C598.8 140.549 599.001 140.667 599.223 140.73C600.347 141.121 601.327 141.848 602.031 142.815C602.846 144.128 603.41 145.583 603.694 147.105C606.902 161.038 608.495 168.41 608.471 169.223C608.488 169.311 608.536 169.39 608.607 169.445C608.677 169.5 608.765 169.527 608.854 169.521C611.438 169.467 614.012 169.181 616.546 168.666C619.079 168.183 621.549 167.413 623.91 166.371C623.963 166.356 624.011 166.332 624.054 166.298C624.096 166.264 624.131 166.223 624.158 166.175C624.184 166.127 624.2 166.075 624.206 166.021C624.211 165.967 624.206 165.912 624.19 165.86L620.768 150.987L628.365 149.404L630.141 157.086ZM685.144 116.313C685.129 116.225 685.091 116.142 685.034 116.074C684.977 116.006 684.902 115.954 684.818 115.926C682.366 115.996 679.924 116.284 677.52 116.785C674.996 117.305 672.529 118.076 670.156 119.087L669.957 119.575L674.3 138.333C674.872 140.823 674.819 142.907 674.128 144.584C673.436 146.262 672.489 147.221 671.287 147.476C670.893 147.56 670.485 147.544 670.098 147.428C669.712 147.312 669.361 147.101 669.076 146.813C668.296 145.983 667.779 144.937 667.595 143.809L664.044 128.503C663.819 127.24 663.319 126.044 662.579 125.001C661.839 123.958 660.878 123.094 659.766 122.472C657.454 121.26 654.784 120.939 652.254 121.566C651.007 121.774 649.817 122.237 648.754 122.926C647.692 123.615 646.779 124.515 646.074 125.572C644.722 127.668 644.168 129.264 644.427 130.365C644.47 130.607 644.581 130.83 644.748 131.009C644.914 131.188 645.128 131.314 645.364 131.372C647.84 132.261 649.429 134.262 650.153 137.376L653.079 150.016C653.894 153.52 655.495 155.997 657.881 157.448C660.345 158.916 663.281 159.355 666.061 158.671C671.932 157.436 675.476 154.104 676.693 148.674L676.919 148.628L678.702 156.318C678.966 157.46 678.986 158.645 678.762 159.796C678.538 160.946 678.075 162.036 677.402 162.992C676.674 164.084 675.733 165.014 674.635 165.725C673.537 166.435 672.307 166.912 671.019 167.125C668.824 167.638 666.546 167.678 664.334 167.242C662.72 166.943 661.153 166.423 659.677 165.698C658.562 165.105 657.807 164.847 657.407 164.932C656.802 165.063 656.588 165.507 656.77 166.271C657.124 167.591 657.784 168.809 658.695 169.822C659.855 171.162 661.214 172.313 662.722 173.235C664.673 174.393 666.835 175.142 669.079 175.44C671.787 175.853 674.547 175.758 677.222 175.162C683.799 173.78 688.442 170.871 691.151 166.436C693.859 162 694.504 156.715 693.084 150.583L685.144 116.313ZM738.976 134.345C739.617 137.173 740.994 139.184 743.108 140.378C745.369 141.599 748 141.93 750.489 141.307C751.741 141.101 752.938 140.643 754.009 139.958C755.08 139.273 756.002 138.376 756.72 137.322C758.116 135.225 758.691 133.659 758.455 132.601C758.396 132.377 758.279 132.173 758.118 132.008C757.956 131.843 757.755 131.723 757.533 131.661C755.116 130.752 753.528 128.62 752.77 125.266L747.789 103.268C747.781 103.188 747.746 103.113 747.689 103.056C747.633 102.999 747.559 102.963 747.479 102.955C744.943 102.946 742.413 103.213 739.933 103.75C737.507 104.242 735.137 104.98 732.859 105.953C732.776 105.982 732.707 106.042 732.667 106.12C732.627 106.199 732.619 106.29 732.644 106.375L735.505 119.03L727.9 120.592L726.642 115.054C726.416 113.847 725.932 112.705 725.222 111.707C724.512 110.71 723.595 109.881 722.534 109.278C720.287 108.048 717.667 107.701 715.182 108.305C713.933 108.511 712.738 108.968 711.666 109.647C710.595 110.326 709.669 111.215 708.943 112.26C707.54 114.327 706.964 115.886 707.201 116.944C707.262 117.167 707.379 117.37 707.54 117.535C707.702 117.699 707.902 117.82 708.122 117.885C709.248 118.274 710.226 119.005 710.924 119.977C711.736 121.29 712.295 122.745 712.571 124.267C715.729 138.216 717.295 145.593 717.269 146.401C717.284 146.49 717.332 146.57 717.402 146.625C717.473 146.681 717.562 146.707 717.651 146.699C720.235 146.657 722.81 146.381 725.344 145.873C727.878 145.399 730.351 144.639 732.716 143.607C732.82 143.577 732.908 143.506 732.961 143.41C733.013 143.315 733.026 143.202 732.996 143.097L729.624 128.216L737.236 126.647L738.976 134.345ZM775.192 104.208C776.288 103.904 777.458 104.038 778.458 104.581C778.863 104.831 779.21 105.165 779.479 105.559C779.748 105.953 779.933 106.399 780.021 106.87C780.311 108.214 779.858 109.578 778.659 110.961C777.461 112.349 775.609 113.287 773.089 113.783C772.476 113.855 771.886 113.942 771.332 114.051C770.745 111.922 770.791 109.666 771.466 107.564C771.717 106.711 772.199 105.946 772.857 105.353C773.515 104.76 774.324 104.364 775.192 104.208ZM796.122 118.741C795.479 119.043 794.889 119.449 794.375 119.943C793.132 120.91 791.798 121.751 790.392 122.455C788.494 123.424 786.468 124.111 784.375 124.494C782.079 124.973 779.698 124.831 777.474 124.083C776.492 123.799 775.589 123.292 774.833 122.599C774.077 121.907 773.488 121.049 773.114 120.091C774.846 120.347 777.45 120.137 780.925 119.463C782.736 119.107 784.504 118.559 786.201 117.829C787.909 117.089 789.517 116.131 790.983 114.978C792.443 113.836 793.568 112.316 794.239 110.581C794.943 108.749 795.074 106.744 794.614 104.835C793.964 101.809 791.838 99.3709 788.236 97.5215C784.634 95.6722 780.013 95.3002 774.371 96.4054C767.829 97.6839 763.002 100.482 759.891 104.799C756.78 109.116 755.842 114.133 757.075 119.851C758.336 125.661 761.29 129.914 765.937 132.609C770.583 135.305 776.106 136.029 782.505 134.781C785.07 134.306 787.521 133.34 789.725 131.935C791.565 130.816 793.158 129.327 794.405 127.561C795.348 126.188 796.097 124.689 796.632 123.108C797.061 121.998 797.196 120.794 797.021 119.615C796.876 118.939 796.574 118.648 796.122 118.741ZM873.3 107.151C872.578 107.419 871.881 107.749 871.215 108.136C870.231 108.688 869.169 109.084 868.065 109.308C861.993 110.339 858.15 106.556 856.539 97.9589C856.174 96.1592 856.055 94.3176 856.186 92.4855C856.323 90.8647 856.848 89.9837 857.758 89.8275C859.077 89.6012 859.933 90.5571 860.334 92.6806C860.499 93.6009 860.594 94.5327 860.617 95.4677C860.65 95.9165 861.157 96.2501 862.137 96.4835C863.172 96.7167 864.241 96.7388 865.284 96.5485C867.616 96.1503 869.182 95.0529 869.996 93.2488C870.797 91.5315 870.934 89.5749 870.381 87.7609C869.681 85.3634 868.11 83.3203 865.982 82.0401C863.83 80.7361 860.995 80.457 857.477 81.2029C854.269 81.9456 851.376 83.6923 849.212 86.1935C847.827 87.7993 846.791 89.6801 846.171 91.7147C845.383 94.245 844.99 96.8839 845.007 99.5364L842.507 99.9656L840.203 86.0017C840.198 85.9222 840.166 85.8468 840.112 85.7883C840.058 85.7298 839.986 85.6919 839.908 85.6808C837.346 85.5857 834.78 85.7687 832.257 86.2266C829.763 86.6411 827.317 87.3061 824.955 88.2118C824.87 88.2362 824.797 88.2931 824.753 88.3705C824.709 88.4479 824.696 88.5397 824.718 88.6263L827.62 102.489L825.419 102.856C824.377 97.8533 822.298 94.2077 819.181 91.9193C817.678 90.7976 815.96 90.0026 814.137 89.5845C812.314 89.1664 810.424 89.1344 808.588 89.4905C804.689 90.1543 801.701 91.8445 799.623 94.5615C797.545 97.2784 796.725 99.7967 797.164 102.116C797.159 102.246 797.184 102.375 797.236 102.494C797.289 102.613 797.367 102.719 797.465 102.803C797.564 102.887 797.68 102.948 797.805 102.98C797.93 103.012 798.061 103.015 798.187 102.989C798.909 102.723 799.607 102.393 800.272 102.005C801.256 101.452 802.318 101.057 803.422 100.833C809.499 99.802 813.341 103.585 814.948 112.182C815.307 113.97 815.426 115.799 815.3 117.618C815.163 119.261 814.639 120.157 813.728 120.313C812.46 120.524 811.618 119.502 811.195 117.232C811.11 116.798 811 115.938 810.87 114.666C810.837 114.224 810.33 113.891 809.35 113.657C808.315 113.424 807.246 113.402 806.203 113.592C803.871 113.983 802.32 115.088 801.534 116.884C800.752 118.605 800.628 120.557 801.186 122.364C801.839 124.778 803.392 126.844 805.52 128.13C807.672 129.464 810.502 129.733 814.01 128.938C815.464 128.588 816.864 128.037 818.169 127.3C819.666 126.41 821.029 125.309 822.217 124.029C823.738 122.342 824.834 120.312 825.415 118.109C826.21 115.279 826.573 112.344 826.49 109.404L828.844 109.006L831.364 124.124C831.368 124.204 831.399 124.281 831.453 124.341C831.507 124.401 831.58 124.44 831.659 124.452C834.247 124.541 836.836 124.35 839.383 123.883C841.853 123.474 844.274 122.814 846.612 121.913C846.697 121.889 846.77 121.832 846.814 121.755C846.858 121.677 846.871 121.586 846.849 121.499L843.724 106.483L845.619 106.163C846.348 110.49 848.425 114.471 851.547 117.53C854.561 120.378 858.347 121.416 862.906 120.643C866.797 119.987 869.783 118.299 871.864 115.579C873.944 112.86 874.766 110.342 874.33 108.025C874.334 107.894 874.308 107.765 874.255 107.646C874.202 107.526 874.123 107.421 874.024 107.337C873.925 107.253 873.808 107.193 873.683 107.161C873.558 107.128 873.427 107.125 873.3 107.151ZM904.097 105.857C904.483 108.731 905.671 110.852 907.663 112.219C909.817 113.621 912.41 114.168 914.94 113.753C916.211 113.65 917.448 113.292 918.578 112.698C919.708 112.104 920.709 111.287 921.52 110.295C923.099 108.329 923.816 106.81 923.672 105.739C923.635 105.511 923.538 105.296 923.391 105.118C923.244 104.94 923.053 104.804 922.837 104.724C920.513 103.618 919.126 101.362 918.677 97.9558L915.721 75.6139C915.722 75.5333 915.694 75.4551 915.643 75.3935C915.591 75.3319 915.519 75.291 915.441 75.2781C912.91 75.0548 910.363 75.1093 907.844 75.4406C905.381 75.735 902.954 76.274 900.597 77.0498C900.511 77.0722 900.436 77.1267 900.388 77.2022C900.34 77.2778 900.322 77.3689 900.338 77.4572L902.04 90.308L894.312 91.23L893.571 85.6059C893.456 84.3877 893.077 83.2098 892.459 82.1561C891.842 81.1024 891.003 80.1985 890 79.5088C887.866 78.0913 885.283 77.5285 882.759 77.9306C881.492 78.0298 880.258 78.3828 879.128 78.9689C877.998 79.5551 876.996 80.3626 876.179 81.3442C874.592 83.2957 873.87 84.7971 874.012 85.8704C874.05 86.0985 874.148 86.3124 874.294 86.4906C874.441 86.6687 874.631 86.8049 874.847 86.8855C875.933 87.3664 876.842 88.1788 877.446 89.2083C878.135 90.586 878.558 92.0832 878.693 93.6202C880.569 107.78 881.457 115.262 881.357 116.068C881.363 116.158 881.403 116.243 881.469 116.304C881.535 116.365 881.622 116.398 881.711 116.396C884.295 116.571 886.889 116.509 889.461 116.21C892.031 115.947 894.565 115.396 897.014 114.568C897.068 114.558 897.118 114.537 897.163 114.506C897.208 114.476 897.247 114.437 897.277 114.392C897.307 114.346 897.328 114.295 897.338 114.242C897.349 114.188 897.349 114.133 897.338 114.079L895.336 98.9713L903.064 98.042L904.097 105.857ZM944.464 71.7043C938.263 72.0961 933.262 74.2428 929.461 78.1445C925.66 82.0463 923.968 86.9335 924.385 92.8061C924.801 98.7278 927.15 103.399 931.434 106.819C935.718 110.24 940.989 111.751 947.245 111.354C953.555 110.954 958.594 108.78 962.364 104.832C966.133 100.884 967.81 95.972 967.395 90.0969C967.281 87.4133 966.589 84.7868 965.367 82.4C964.145 80.0131 962.422 77.9231 960.318 76.2753C956.008 72.8356 950.723 71.3119 944.464 71.7043ZM946.668 103.056C944.559 103.187 942.922 102.209 941.741 100.123C940.441 97.5546 939.716 94.7296 939.617 91.8477C939.074 84.0648 940.879 80.0427 945.032 79.7813C947.191 79.6498 948.85 80.6127 950.031 82.677C951.211 84.7414 951.917 87.539 952.164 91.0627C952.706 98.794 950.874 102.792 946.668 103.056ZM1009.86 82.0266C1009.87 78.736 1008.35 76.015 1005.28 73.8636C1002.21 71.7122 998.314 70.6166 993.583 70.5769C986.948 70.5313 981.626 72.3818 977.616 76.1286C975.683 77.8703 974.141 80.0088 973.094 82.4008C972.048 84.7928 971.52 87.3829 971.547 89.9975C971.505 95.6906 973.31 100.387 976.962 104.085C980.614 107.784 985.807 109.66 992.542 109.712C997.579 109.751 1001.79 108.336 1005.18 105.466C1008.57 102.597 1010.27 100.082 1010.28 97.9228C1010.31 97.7907 1010.3 97.6538 1010.27 97.5233C1010.24 97.3928 1010.17 97.2723 1010.08 97.1715C1009.99 97.0706 1009.88 96.9923 1009.76 96.9428C1009.63 96.8933 1009.5 96.874 1009.37 96.8864C1008.01 97.2322 1006.68 97.6757 1005.39 98.2135C1003.21 99.0656 1000.89 99.5122 998.552 99.5316C994.537 99.5045 991.602 98.38 989.746 96.1578C987.866 93.8878 986.881 90.9988 986.98 88.0432C986.952 85.5792 987.554 83.1496 988.729 80.9889C989.877 78.9386 991.271 77.919 992.911 77.93C994.969 77.9467 995.989 79.4261 995.969 82.3683C995.947 83.1188 995.876 83.8671 995.757 84.6083C995.657 85.2306 995.59 85.8578 995.556 86.4873C995.549 87.2235 996.176 87.9462 997.432 88.6701C998.711 89.3956 1000.16 89.7721 1001.62 89.7627C1004.3 89.7881 1006.33 88.9879 1007.73 87.3769C1009.07 85.9203 1009.83 84.0138 1009.86 82.0266ZM1079.03 109.03C1077.07 107.415 1076.3 104.904 1076.74 101.499C1077 99.4578 1077.32 96.9959 1077.72 94.1285C1078.11 91.2612 1078.36 89.4111 1078.47 88.5856C1078.91 85.0773 1078.25 82.2447 1076.49 80.0879C1075.6 79.0125 1074.5 78.1259 1073.27 77.4796C1072.04 76.8333 1070.69 76.44 1069.31 76.3228C1064.21 75.7248 1060.01 77.9742 1056.72 83.0708L1056.49 83.0436C1056.36 80.6194 1055.34 78.332 1053.62 76.6305C1051.89 74.9734 1049.65 73.953 1047.27 73.7334C1042.17 73.1354 1037.97 75.3847 1034.68 80.4814L1034.45 80.4542C1034.42 79.4681 1034.41 78.9235 1034.42 78.8203C1034.23 76.89 1033.37 75.0878 1032.01 73.7204C1030.48 72.299 1028.52 71.4432 1026.45 71.2939C1023.9 70.9006 1021.29 71.5397 1019.2 73.0726C1017.16 74.5868 1016.08 75.8807 1015.94 76.9542C1015.92 77.1811 1015.96 77.4103 1016.05 77.617C1016.15 77.8236 1016.3 77.9999 1016.49 78.1267C1017.42 78.8467 1018.09 79.8493 1018.41 80.9862C1018.73 82.4884 1018.75 84.0368 1018.5 85.5493C1016.68 99.7153 1015.62 107.175 1015.32 107.929C1015.3 108.017 1015.32 108.108 1015.37 108.183C1015.42 108.259 1015.49 108.312 1015.58 108.331C1018.04 109.104 1020.57 109.648 1023.14 109.958C1025.6 110.285 1028.1 110.33 1030.58 110.091C1030.69 110.096 1030.8 110.058 1030.88 109.984C1030.96 109.91 1031.01 109.807 1031.02 109.697L1033.46 90.6444C1033.62 88.5526 1034.32 86.5398 1035.49 84.8019C1036.51 83.4375 1037.61 82.8304 1038.79 82.9661C1040.32 83.15 1040.9 84.6754 1040.54 87.5425L1037.59 110.546C1037.58 110.633 1037.6 110.722 1037.64 110.796C1037.69 110.87 1037.77 110.922 1037.85 110.941C1040.24 111.697 1042.7 112.235 1045.18 112.547C1047.65 112.869 1050.14 112.911 1052.62 112.674C1052.73 112.68 1052.84 112.643 1052.92 112.571C1053 112.499 1053.05 112.396 1053.06 112.286L1055.5 93.2266C1055.66 91.137 1056.36 89.1264 1057.53 87.3913C1058.56 86.0268 1059.65 85.4125 1060.83 85.5556C1062.36 85.7321 1062.94 87.2576 1062.58 90.132L1060.58 105.757C1060.21 108.624 1060.82 110.954 1062.4 112.747C1064.14 114.621 1066.52 115.76 1069.06 115.936C1070.33 116.131 1071.63 116.072 1072.87 115.76C1074.12 115.448 1075.29 114.891 1076.32 114.121C1078.36 112.584 1079.44 111.281 1079.58 110.209C1079.6 109.981 1079.57 109.75 1079.47 109.543C1079.37 109.335 1079.22 109.158 1079.03 109.03ZM1130.34 91.5462C1130.37 91.4642 1130.37 91.3769 1130.35 91.293C1130.33 91.2091 1130.29 91.1317 1130.23 91.0688C1127.98 90.0572 1125.63 89.2499 1123.23 88.6564C1120.72 88.0317 1118.16 87.6549 1115.58 87.5312L1115.17 87.8813L1110.14 106.473C1109.69 108.582 1108.6 110.498 1107.03 111.966C1105.62 113.165 1104.31 113.619 1103.12 113.322C1102.73 113.232 1102.38 113.043 1102.09 112.772C1101.8 112.501 1101.58 112.158 1101.47 111.777C1101.16 110.686 1101.2 109.527 1101.56 108.456L1105.66 93.2889C1106.42 90.4842 1106.1 88.0753 1104.7 86.0621C1103.19 83.9676 1100.95 82.5214 1098.43 82.0084C1097.2 81.6601 1095.91 81.5613 1094.64 81.7178C1093.37 81.8742 1092.14 82.2828 1091.02 82.9199C1088.82 84.1929 1087.57 85.3829 1087.27 86.4753C1087.19 86.7047 1087.19 86.9519 1087.25 87.1849C1087.32 87.4179 1087.45 87.6259 1087.63 87.7821C1089.42 89.6344 1089.89 92.1056 1089.06 95.1956L1085.58 108.082C1084.65 111.507 1084.92 114.358 1086.37 116.636C1087.93 118.992 1090.36 120.628 1093.11 121.185C1095.58 121.786 1098.16 121.755 1100.62 121.097C1103.38 120.313 1105.83 118.672 1107.62 116.406L1107.83 116.537C1107.75 117.056 1107.72 117.581 1107.72 118.106C1107.64 120.027 1108.23 121.914 1109.38 123.448C1110.69 125.051 1112.5 126.145 1114.52 126.541C1115.77 126.898 1117.07 127.003 1118.35 126.85C1119.64 126.697 1120.88 126.29 1122.01 125.651C1124.21 124.371 1125.45 123.21 1125.74 122.17C1125.79 121.947 1125.78 121.715 1125.71 121.497C1125.64 121.279 1125.52 121.083 1125.35 120.929C1123.78 119.281 1123.45 116.769 1124.36 113.394C1128.26 98.9646 1130.25 91.682 1130.34 91.5462Z" fill="white"/>
</g>
</g>
<defs>
<clipPath id="clip0">
<rect width="1259" height="263" fill="white"/>
</clipPath>
<clipPath id="clip1">
<rect width="1014.84" height="147.078" fill="white" transform="translate(115.366 79.1587) rotate(-0.559356)"/>
</clipPath>
</defs>
</svg>
