<svg width="860" height="180" viewBox="0 0 860 180" fill="none" xmlns="http://www.w3.org/2000/svg">
<path d="M28.5157 127.527C68.3721 174.995 156.626 198.375 366.939 161.888C590.42 122.922 612.128 97.0621 729.562 102.73C846.996 108.398 859.807 173.578 859.807 173.578C859.807 173.578 871.906 9.56451 704.651 3.18817C537.397 -3.18817 272.636 94.2282 126.377 76.1619C12.502 61.9922 5.38478 0 5.38478 0C5.38478 0 -16.6786 73.6822 28.5157 127.527Z" fill="#EB2316"/>
<path fill-rule="evenodd" clip-rule="evenodd" d="M107.181 108.684L107.229 108.542C109.082 108.658 110.926 108.196 112.51 107.219C114.034 106.287 115.182 104.84 115.75 103.136C116.632 100.594 116.259 98.1222 114.631 95.7219C113.002 93.3215 110.188 91.4907 106.188 90.2295C101.688 88.8106 97.4055 88.7116 93.3401 89.9326C89.2747 91.1536 86.8639 92.8612 86.1077 95.0553C85.875 95.7211 86.0636 96.1515 86.6636 96.3417C87.4179 96.3863 88.1746 96.3688 88.9261 96.2895C90.5431 96.2008 92.1636 96.1984 93.7809 96.2823C95.5402 96.3464 97.284 96.6403 98.9684 97.1566C102.898 98.3951 104.485 100.112 103.729 102.308C103.331 103.448 102.418 104.342 100.974 104.979C99.7611 104.347 98.499 103.816 97.2 103.392C96.4074 103.104 95.5417 103.093 94.7422 103.361C94.2109 103.538 93.7276 103.837 93.3302 104.234C93.052 104.555 92.839 104.928 92.7029 105.331C92.6111 105.616 92.5635 105.913 92.562 106.212C92.5737 106.607 92.6782 106.994 92.867 107.34C93.0995 107.792 93.4285 108.185 93.8303 108.492C94.4398 108.919 95.1327 109.208 95.8624 109.342C96.9452 109.575 98.0544 109.659 99.1595 109.591C100.308 111.505 100.559 113.4 99.9129 115.274C99.4739 116.427 98.6042 117.359 97.4908 117.872C96.885 118.191 96.2213 118.383 95.54 118.436C94.8586 118.489 94.1736 118.403 93.5262 118.182C92.4355 117.909 91.4829 117.24 90.8511 116.303C90.5964 115.906 90.4379 115.454 90.3883 114.984C90.3387 114.514 90.3993 114.038 90.5654 113.596C90.6188 113.44 90.868 112.935 91.3084 112.086C91.5285 111.662 91.313 111.029 90.6618 110.187C89.9288 109.294 88.9409 108.651 87.8325 108.345C85.7325 107.682 83.9902 107.749 82.6057 108.547C81.2523 109.307 80.2298 110.551 79.7388 112.033C78.9582 114.286 79.5608 116.609 81.5464 119.003C83.532 121.396 86.8239 123.316 91.4221 124.763C93.2429 125.334 95.1176 125.713 97.0159 125.894C98.9474 126.077 100.893 126.043 102.817 125.793C104.686 125.564 106.469 124.872 108.006 123.776C109.523 122.697 110.659 121.157 111.248 119.381C111.961 117.446 111.947 115.315 111.209 113.39C110.424 111.412 109.006 109.756 107.181 108.684ZM140.221 125.759C140.707 123.533 141.855 118.53 143.663 110.75C143.673 110.679 143.66 110.607 143.625 110.545C143.59 110.482 143.536 110.433 143.47 110.405C141.911 109.801 140.299 109.342 138.657 109.035C137.067 108.711 135.452 108.525 133.831 108.479C133.759 108.48 133.689 108.504 133.631 108.548C133.573 108.592 133.531 108.653 133.51 108.723L132.308 111.766L132.153 111.737C131.759 110.301 130.941 109.019 129.809 108.061C128.566 107.022 127.077 106.327 125.488 106.042C123.982 105.709 122.418 105.765 120.94 106.206C119.461 106.646 118.118 107.457 117.034 108.562C114.55 110.95 112.857 114.053 112.186 117.447C111.427 120.918 111.689 124.074 112.971 126.915C113.543 128.266 114.444 129.45 115.591 130.355C116.738 131.261 118.094 131.859 119.532 132.094C121.219 132.45 122.971 132.32 124.587 131.718C126.196 131.127 127.596 130.069 128.61 128.678L128.765 128.706C128.696 129.449 128.776 130.197 129 130.908C129.225 131.618 129.589 132.275 130.071 132.841C131.14 134.032 132.582 134.819 134.155 135.068C135.798 135.409 137.507 135.179 139.004 134.417C140.552 133.648 141.432 132.773 141.645 131.793C141.675 131.639 141.662 131.481 141.609 131.334C141.556 131.188 141.464 131.059 141.343 130.961C140.1 129.757 139.726 128.023 140.221 125.759ZM125.391 126.185C124.792 126.071 124.238 125.784 123.797 125.359C123.356 124.934 123.046 124.39 122.905 123.792C122.478 122.213 122.47 120.549 122.883 118.966C123.177 117.335 123.881 115.807 124.928 114.528C125.884 113.432 126.977 113.01 128.215 113.259C128.826 113.371 129.391 113.661 129.842 114.092C130.292 114.524 130.608 115.078 130.751 115.687C131.172 117.276 131.178 118.947 130.769 120.538C130.474 122.162 129.771 123.684 128.728 124.956C128.341 125.454 127.823 125.833 127.233 126.05C126.643 126.268 126.005 126.314 125.391 126.185ZM143.801 135.582C143.79 135.642 143.802 135.704 143.835 135.755C143.868 135.806 143.919 135.843 143.978 135.857C145.661 136.383 147.388 136.757 149.138 136.973C150.824 137.198 152.53 137.23 154.223 137.069C154.26 137.071 154.297 137.066 154.332 137.053C154.367 137.041 154.399 137.021 154.427 136.996C154.454 136.971 154.477 136.941 154.492 136.907C154.508 136.873 154.517 136.837 154.519 136.799L156.22 123.637C156.337 122.186 156.906 120.81 157.847 119.706C158.705 118.777 159.558 118.362 160.392 118.459C160.662 118.49 160.92 118.59 161.142 118.75C161.363 118.909 161.54 119.123 161.657 119.372C161.962 120.082 162.044 120.868 161.893 121.627L160.484 132.544C160.229 134.507 160.642 136.1 161.722 137.322C162.911 138.602 164.535 139.383 166.269 139.51C168.02 139.776 169.805 139.332 171.232 138.275C172.622 137.221 173.366 136.334 173.464 135.599C173.478 135.444 173.45 135.288 173.384 135.147C173.318 135.006 173.215 134.886 173.087 134.798C171.747 133.696 171.225 131.98 171.522 129.651C171.702 128.257 171.935 126.537 172.219 124.492C172.498 122.453 172.675 121.149 172.749 120.581C173.06 118.19 172.61 116.255 171.401 114.778C170.796 114.042 170.051 113.436 169.21 112.993C168.37 112.551 167.451 112.282 166.506 112.201C164.795 112.026 163.068 112.281 161.479 112.944C159.651 113.696 158.106 115.011 157.065 116.702L156.91 116.684C156.903 116.447 156.895 116.126 156.876 115.719C156.781 114.376 156.222 113.109 155.295 112.14C154.255 111.13 152.896 110.521 151.455 110.418C149.709 110.148 147.928 110.583 146.498 111.628C145.107 112.662 144.368 113.544 144.271 114.273C144.255 114.429 144.282 114.587 144.348 114.729C144.415 114.871 144.518 114.992 144.647 115.079C145.279 115.572 145.738 116.257 145.957 117.032C146.171 118.058 146.188 119.116 146.008 120.148C144.742 129.923 144.007 135.067 143.801 135.582ZM203.963 116.109C203.97 116.049 203.959 115.988 203.934 115.934C203.909 115.879 203.87 115.832 203.821 115.798C202.189 115.41 200.527 115.168 198.854 115.073C197.089 114.971 195.319 115.042 193.567 115.285L193.336 115.574L192.562 128.666C192.459 130.407 192.017 131.767 191.236 132.746C190.458 133.729 189.65 134.194 188.807 134.152C188.535 134.138 188.27 134.054 188.039 133.909C187.807 133.763 187.616 133.561 187.483 133.321C187.131 132.634 186.993 131.855 187.087 131.088L187.726 120.399C187.841 118.428 187.292 116.854 186.08 115.68C184.778 114.471 183.08 113.787 181.311 113.761C180.443 113.68 179.568 113.775 178.738 114.04C177.908 114.305 177.138 114.736 176.476 115.306C175.176 116.44 174.502 117.396 174.455 118.166C174.437 118.331 174.468 118.497 174.544 118.644C174.62 118.791 174.737 118.912 174.882 118.991C176.332 120.013 176.994 121.61 176.868 123.783L176.346 132.61C176.2 135.05 176.772 136.964 178.061 138.339C178.729 139.037 179.527 139.594 180.41 139.98C181.292 140.366 182.241 140.572 183.202 140.586C187.302 140.814 190.279 139.25 192.134 135.894L192.288 135.903L191.972 141.27C191.919 142.075 191.701 142.86 191.331 143.576C190.961 144.292 190.448 144.922 189.824 145.428C189.138 146.015 188.342 146.458 187.484 146.731C186.625 147.003 185.722 147.1 184.825 147.015C183.292 146.969 181.787 146.595 180.408 145.917C179.407 145.433 178.476 144.814 177.639 144.079C177.025 143.492 176.579 143.194 176.294 143.177C175.875 143.156 175.648 143.41 175.619 143.943C175.597 144.868 175.795 145.785 176.198 146.616C177.341 149.129 179.393 151.105 181.934 152.14C183.647 152.893 185.483 153.319 187.35 153.395C191.938 153.646 195.555 152.554 198.199 150.117C200.844 147.68 202.291 144.319 202.542 140.035L203.963 116.109ZM231.683 122.83C231.686 120.588 230.636 118.735 228.534 117.271C226.431 115.807 223.763 115.072 220.532 115.067C216.006 115.051 212.379 116.33 209.653 118.903C208.339 120.099 207.294 121.563 206.587 123.199C205.88 124.835 205.528 126.604 205.554 128.389C205.547 132.276 206.796 135.48 209.301 137.999C211.803 140.513 215.354 141.777 219.955 141.791C223.395 141.802 226.266 140.823 228.57 138.851C230.873 136.88 232.026 135.158 232.028 133.685C232.046 133.595 232.042 133.501 232.018 133.412C231.994 133.324 231.949 133.242 231.888 133.173C231.827 133.104 231.751 133.051 231.666 133.017C231.581 132.983 231.489 132.97 231.398 132.977C230.474 133.221 229.567 133.531 228.686 133.904C227.2 134.49 225.62 134.801 224.024 134.819C221.288 134.81 219.28 134.053 218.001 132.545C216.709 131 216.028 129.029 216.087 127.009C216.058 125.328 216.461 123.669 217.257 122.192C218.031 120.787 218.979 120.086 220.102 120.088C221.508 120.089 222.206 121.098 222.205 123.109C222.192 123.621 222.147 124.132 222.071 124.638C222.003 125.063 221.957 125.492 221.934 125.922C221.934 126.424 222.362 126.918 223.224 127.407C224.101 127.9 225.089 128.154 226.092 128.143C227.917 128.145 229.302 127.599 230.254 126.494C231.166 125.495 231.675 124.188 231.683 122.83ZM278.27 134.179C276.741 133.322 275.905 131.725 275.761 129.387C275.672 127.986 275.576 126.298 275.472 124.323C275.368 122.349 275.299 121.077 275.265 120.51C275.117 118.103 274.31 116.278 272.844 115.034C271.37 113.787 269.466 113.178 267.549 113.341C264.042 113.531 261.511 115.532 259.956 119.342L259.797 119.354C259.395 117.733 258.416 116.319 257.047 115.379C255.677 114.472 254.048 114.048 252.414 114.173C248.907 114.368 246.376 116.37 244.821 120.179L244.662 120.185C244.516 119.523 244.443 119.162 244.437 119.091C244.052 117.814 243.249 116.705 242.158 115.947C240.958 115.172 239.534 114.826 238.116 114.966C237.247 114.98 236.388 115.168 235.591 115.518C234.794 115.869 234.073 116.375 233.471 117.007C232.301 118.258 231.74 119.254 231.785 119.994C231.8 120.15 231.855 120.299 231.946 120.426C232.037 120.553 232.159 120.654 232.301 120.718C233.017 121.093 233.598 121.685 233.962 122.411C234.363 123.382 234.579 124.42 234.6 125.471C235.198 135.197 235.443 140.333 235.334 140.876C235.336 140.937 235.361 140.995 235.402 141.039C235.444 141.083 235.5 141.11 235.56 141.116C237.312 141.345 239.081 141.415 240.846 141.325C242.542 141.256 244.225 140.995 245.863 140.548C245.899 140.543 245.934 140.532 245.966 140.514C245.998 140.496 246.027 140.471 246.049 140.442C246.072 140.413 246.088 140.379 246.097 140.343C246.107 140.307 246.109 140.27 246.104 140.233L245.298 127.146C245.14 125.728 245.353 124.292 245.916 122.983C246.429 121.952 247.09 121.413 247.899 121.365C248.95 121.31 249.537 122.264 249.656 124.238L250.628 140.034C250.63 140.094 250.654 140.153 250.696 140.197C250.738 140.241 250.794 140.268 250.854 140.273C252.553 140.5 254.269 140.574 255.981 140.494C257.677 140.423 259.36 140.161 260.998 139.711C261.034 139.707 261.069 139.695 261.101 139.677C261.133 139.659 261.161 139.635 261.184 139.605C261.206 139.576 261.223 139.543 261.232 139.507C261.242 139.471 261.244 139.434 261.239 139.397L260.433 126.31C260.275 124.893 260.487 123.459 261.05 122.152C261.564 121.116 262.225 120.577 263.033 120.534C264.085 120.473 264.672 121.433 264.791 123.402L265.449 134.133C265.573 136.107 266.28 137.598 267.571 138.621C268.975 139.672 270.715 140.159 272.455 139.986C273.326 139.969 274.186 139.778 274.983 139.423C275.781 139.069 276.5 138.558 277.1 137.92C278.269 136.647 278.831 135.643 278.785 134.908C278.771 134.751 278.716 134.601 278.625 134.473C278.535 134.345 278.412 134.243 278.27 134.179ZM305.495 110.653C305.491 110.594 305.471 110.536 305.437 110.487C305.403 110.438 305.357 110.398 305.303 110.374C303.612 110.253 301.914 110.287 300.23 110.474C298.476 110.656 296.745 111.013 295.061 111.539L294.885 111.863L296.457 124.887C296.71 126.325 296.508 127.805 295.881 129.121C295.288 130.212 294.575 130.804 293.74 130.896C293.467 130.927 293.191 130.888 292.937 130.782C292.683 130.676 292.46 130.508 292.288 130.292C291.818 129.675 291.544 128.93 291.5 128.153L290.22 117.529C290.158 116.659 289.905 115.814 289.479 115.055C289.052 114.297 288.463 113.644 287.754 113.144C286.266 112.166 284.476 111.769 282.719 112.027C281.855 112.087 281.013 112.322 280.242 112.718C279.47 113.114 278.786 113.664 278.231 114.333C277.157 115.665 276.664 116.711 276.756 117.479C276.768 117.646 276.828 117.805 276.929 117.938C277.029 118.071 277.166 118.171 277.321 118.227C278.934 118.991 279.87 120.46 280.131 122.619L281.221 131.652C281.51 134.047 282.411 135.802 283.924 136.918C285.506 138.052 287.46 138.526 289.38 138.243C291.094 138.057 292.733 137.436 294.143 136.437C295.698 135.293 296.84 133.669 297.397 131.81L297.562 131.844C297.651 132.192 297.762 132.533 297.896 132.866C298.35 134.119 299.206 135.182 300.328 135.889C301.558 136.602 302.991 136.874 304.393 136.658C305.266 136.602 306.119 136.367 306.9 135.969C307.681 135.571 308.373 135.017 308.936 134.342C310.015 133.014 310.508 131.984 310.416 131.251C310.393 131.095 310.329 130.947 310.231 130.825C310.132 130.702 310.003 130.608 309.856 130.553C308.434 129.868 307.58 128.343 307.294 125.978C306.074 115.866 305.474 110.758 305.495 110.653ZM342.776 115.904L342.739 115.709C343.88 115.322 344.884 114.608 345.63 113.655C346.346 112.746 346.693 111.596 346.6 110.438C346.552 108.579 345.432 107.053 343.241 105.861C341.049 104.669 337.999 104.393 334.091 105.031C329.523 105.774 326.173 107.507 324.043 110.231C321.913 112.955 321.222 116.398 321.971 120.561C322.798 125.153 324.69 128.347 327.647 130.143C330.604 131.939 334.349 132.468 338.883 131.732C342.864 131.085 345.846 129.69 347.829 127.548C349.817 125.407 350.608 123.214 350.202 120.969C350.084 120.16 349.781 119.388 349.318 118.716C348.855 118.044 348.244 117.489 347.533 117.095C346.084 116.269 344.439 115.858 342.776 115.904ZM334.549 110.566C334.842 110.511 335.143 110.52 335.433 110.592C335.722 110.663 335.993 110.796 336.228 110.982C336.696 111.317 337.017 111.822 337.124 112.391C337.199 112.864 337.159 113.349 337.008 113.804C336.857 114.259 336.599 114.67 336.257 115.003C335.512 115.82 334.269 116.438 332.527 116.859L332.059 116.934C331.711 115.513 331.729 114.027 332.112 112.615C332.271 112.069 332.588 111.582 333.022 111.218C333.456 110.853 333.987 110.626 334.549 110.566ZM337.769 126.404C335.102 126.838 333.409 124.853 332.692 120.452C333.064 120.358 333.462 120.273 333.876 120.209C335.677 119.915 337.145 120.058 338.281 120.639C339.418 121.216 340.079 122.003 340.253 122.992C340.327 123.368 340.327 123.755 340.253 124.131C340.179 124.507 340.032 124.864 339.821 125.183C339.586 125.523 339.281 125.809 338.927 126.019C338.573 126.23 338.178 126.361 337.769 126.404ZM361.966 100.073C357.807 100.873 354.629 102.759 352.431 105.731C350.234 108.704 349.555 112.157 350.394 116.092C351.24 120.06 353.274 123.014 356.497 124.955C359.719 126.895 363.43 127.461 367.629 126.651C371.858 125.835 375.058 123.929 377.228 120.932C379.399 117.935 380.066 114.466 379.23 110.527C378.894 108.714 378.175 106.995 377.122 105.486C376.069 103.978 374.707 102.715 373.128 101.784C369.884 99.8352 366.164 99.2649 361.966 100.073ZM366.443 121.087C365.03 121.363 363.827 120.843 362.834 119.529C361.709 117.911 360.949 116.063 360.608 114.117C359.494 108.9 360.331 106.023 363.121 105.486C364.563 105.206 365.785 105.717 366.774 107.009C367.764 108.301 368.514 110.134 369.016 112.496C370.118 117.678 369.261 120.542 366.443 121.087ZM411.613 111.869C409.962 111.249 408.877 109.792 408.36 107.498C408.082 106.254 407.826 105.082 407.593 103.981C407.363 102.878 407.195 102.05 407.085 101.488C406.975 100.926 406.896 100.535 406.844 100.304C406.136 97.1606 404.66 95.072 402.417 94.0383C400.173 93.0045 397.473 92.813 394.316 93.4638C391.166 94.0242 388.21 95.3892 385.732 97.4285C383.473 99.3658 382.469 100.89 382.721 102.002C382.856 102.594 383.386 102.795 384.312 102.605C384.62 102.542 385.013 102.442 385.485 102.312C385.957 102.182 386.281 102.098 386.455 102.061C387.106 104.945 387.274 107.362 386.959 109.31C386.644 111.259 385.852 112.362 384.584 112.621C384.253 112.683 383.912 112.655 383.596 112.54C383.381 112.448 383.15 112.399 382.917 112.396C382.504 112.48 382.131 113.087 381.793 114.222C381.454 115.364 381.421 116.577 381.698 117.736C381.838 118.494 382.128 119.215 382.55 119.857C382.973 120.499 383.519 121.048 384.157 121.472C384.826 121.887 385.57 122.162 386.346 122.282C387.122 122.401 387.914 122.362 388.675 122.167C390.082 121.933 391.359 121.196 392.273 120.091C393.115 119.059 393.672 117.82 393.888 116.501C394.105 114.864 394.092 113.204 393.85 111.57C393.643 109.818 393.331 108.081 392.917 106.367C392.538 104.852 392.052 103.092 391.46 101.087C392.27 100.862 393.117 100.803 393.95 100.912C394.567 100.999 395.126 101.328 395.504 101.827C395.825 102.252 396.093 102.715 396.3 103.207C396.508 103.768 396.673 104.345 396.796 104.931L398.781 113.724C399.218 115.655 400.184 117.025 401.677 117.833C403.254 118.655 405.072 118.877 406.797 118.456C407.652 118.316 408.471 118.002 409.203 117.535C409.935 117.067 410.566 116.455 411.057 115.736C412.01 114.309 412.405 113.234 412.242 112.512C412.201 112.359 412.122 112.219 412.012 112.106C411.901 111.994 411.764 111.912 411.613 111.869ZM430.364 107.273C430.807 109.204 431.751 110.575 433.196 111.387C434.746 112.216 436.545 112.436 438.246 112.007C439.101 111.862 439.917 111.544 440.646 111.073C441.376 110.602 442.003 109.987 442.491 109.266C443.434 107.834 443.828 106.759 443.661 106.042C443.62 105.888 443.54 105.748 443.429 105.636C443.318 105.523 443.179 105.442 443.027 105.4C441.376 104.788 440.287 103.335 439.759 101.043L436.303 86.0313C436.297 85.9766 436.273 85.9255 436.235 85.8866C436.196 85.8476 436.146 85.8232 436.092 85.8173C434.359 85.8166 432.631 86.0053 430.938 86.3803C429.284 86.7208 427.669 87.2301 426.118 87.9002C426.06 87.9183 426.012 87.9587 425.983 88.0127C425.955 88.0667 425.949 88.1297 425.966 88.1882L427.955 96.8252L422.761 97.9114L421.892 94.1296C421.733 93.3069 421.399 92.529 420.912 91.8497C420.425 91.1704 419.797 90.6061 419.072 90.1959C417.534 89.3611 415.744 89.1297 414.047 89.5463C413.194 89.6895 412.379 90.0036 411.649 90.4701C410.919 90.9366 410.289 91.5459 409.796 92.2621C408.843 93.6789 408.455 94.7434 408.616 95.4657C408.659 95.6179 408.74 95.7564 408.851 95.868C408.962 95.9796 409.1 96.0605 409.251 96.103C410.019 96.37 410.688 96.8668 411.169 97.5269C411.725 98.4235 412.11 99.4172 412.304 100.457C414.495 109.971 415.583 115.006 415.567 115.561C415.578 115.621 415.611 115.675 415.659 115.712C415.707 115.75 415.767 115.768 415.828 115.764C417.593 115.728 419.35 115.532 421.081 115.18C422.81 114.851 424.497 114.325 426.11 113.613C426.145 113.603 426.179 113.586 426.208 113.563C426.236 113.541 426.261 113.512 426.278 113.479C426.296 113.447 426.307 113.411 426.311 113.374C426.315 113.337 426.311 113.3 426.301 113.264L423.964 103.108L429.152 102.026L430.364 107.273ZM467.925 79.4289C467.916 79.3687 467.89 79.3123 467.851 79.2658C467.812 79.2192 467.761 79.1842 467.703 79.1646C466.028 79.2129 464.361 79.4092 462.72 79.7512C460.996 80.1063 459.311 80.633 457.691 81.3235L457.554 81.6565L460.52 94.4663C460.911 96.1666 460.875 97.5896 460.403 98.7353C459.93 99.881 459.284 100.536 458.463 100.71C458.194 100.768 457.915 100.757 457.651 100.677C457.387 100.598 457.147 100.454 456.953 100.257C456.42 99.6907 456.068 98.9762 455.941 98.2058L453.517 87.7534C453.363 86.8913 453.022 86.0744 452.516 85.362C452.011 84.6496 451.355 84.0596 450.595 83.6347C449.016 82.8076 447.193 82.5878 445.465 83.0162C444.614 83.1587 443.801 83.4748 443.075 83.9452C442.35 84.4156 441.727 85.0303 441.245 85.7519C440.322 87.1835 439.944 88.273 440.121 89.0253C440.15 89.19 440.226 89.3427 440.339 89.4647C440.453 89.5868 440.599 89.673 440.76 89.7128C442.451 90.3196 443.536 91.6864 444.03 93.813L446.029 102.445C446.585 104.837 447.678 106.529 449.308 107.52C450.991 108.522 452.995 108.822 454.894 108.355C458.903 107.512 461.324 105.236 462.155 101.528L462.309 101.497L463.526 106.748C463.706 107.528 463.72 108.337 463.567 109.123C463.414 109.909 463.098 110.653 462.639 111.306C462.142 112.051 461.499 112.686 460.749 113.172C459.999 113.657 459.159 113.983 458.28 114.128C456.781 114.479 455.225 114.506 453.715 114.208C452.612 114.004 451.542 113.649 450.535 113.153C449.773 112.749 449.258 112.573 448.984 112.631C448.571 112.72 448.425 113.023 448.55 113.545C448.791 114.447 449.242 115.278 449.864 115.97C450.656 116.885 451.584 117.671 452.614 118.301C453.946 119.091 455.422 119.603 456.955 119.807C458.804 120.088 460.689 120.024 462.516 119.617C467.007 118.673 470.178 116.687 472.028 113.657C473.877 110.628 474.317 107.02 473.348 102.832L467.925 79.4289ZM504.687 91.7429C505.124 93.674 506.065 95.0472 507.508 95.8625C509.053 96.6968 510.849 96.9229 512.549 96.497C513.404 96.3569 514.222 96.0435 514.953 95.5759C515.684 95.1082 516.314 94.496 516.804 93.7761C517.757 92.3441 518.151 91.2746 517.989 90.5523C517.948 90.3993 517.869 90.2596 517.759 90.147C517.648 90.0344 517.511 89.9527 517.36 89.91C515.709 89.2894 514.624 87.8338 514.107 85.5432L510.705 70.5208C510.7 70.4661 510.676 70.415 510.637 70.3761C510.599 70.3371 510.548 70.3126 510.494 70.3067C508.762 70.3011 507.034 70.4831 505.34 70.8497C503.684 71.1858 502.066 71.6901 500.51 72.3546C500.453 72.3739 500.406 72.4148 500.379 72.4686C500.351 72.5223 500.346 72.5847 500.363 72.6426L502.317 81.2849L497.123 82.351L496.264 78.5691C496.11 77.7453 495.779 76.9653 495.294 76.284C494.81 75.6027 494.183 75.0366 493.459 74.6253C491.924 73.785 490.136 73.5481 488.438 73.9604C487.585 74.1015 486.769 74.4131 486.037 74.877C485.306 75.3408 484.674 75.9474 484.178 76.6613C483.22 78.0731 482.826 79.1376 482.988 79.8599C483.03 80.0122 483.11 80.1511 483.22 80.2635C483.33 80.3759 483.467 80.4581 483.617 80.5023C484.386 80.7682 485.054 81.2674 485.53 81.9314C486.085 82.8278 486.467 83.8218 486.655 84.8611C488.812 94.3862 489.881 99.4244 489.863 99.9759C489.874 100.037 489.906 100.091 489.955 100.129C490.003 100.167 490.064 100.185 490.125 100.179C491.889 100.151 493.647 99.9623 495.378 99.6154C497.108 99.2916 498.797 98.7727 500.412 98.0683C500.483 98.0475 500.543 97.9991 500.579 97.9337C500.615 97.8683 500.624 97.7913 500.603 97.7195L498.301 87.5575L503.499 86.4862L504.687 91.7429ZM529.419 71.1625C530.167 70.9553 530.966 71.0465 531.649 71.4172C531.925 71.5885 532.163 71.816 532.346 72.0851C532.53 72.3543 532.656 72.6591 532.716 72.9802C532.915 73.8982 532.605 74.8295 531.786 75.7742C530.968 76.7222 529.703 77.3629 527.982 77.7014C527.564 77.7508 527.161 77.81 526.783 77.8841C526.381 76.4304 526.413 74.8899 526.874 73.4545C527.046 72.8721 527.375 72.3493 527.824 71.9446C528.273 71.5399 528.825 71.2691 529.419 71.1625ZM543.711 81.0868C543.272 81.2935 542.869 81.5708 542.518 81.9078C541.67 82.5684 540.759 83.143 539.798 83.6234C538.503 84.285 537.119 84.754 535.69 85.0158C534.122 85.3427 532.496 85.2458 530.977 84.735C530.306 84.5413 529.689 84.1947 529.173 83.7221C528.657 83.2494 528.255 82.6634 527.999 82.0094C529.182 82.1838 530.96 82.0408 533.333 81.5803C534.57 81.337 535.778 80.963 536.936 80.4643C538.103 79.9591 539.201 79.3047 540.202 78.5172C541.199 77.7375 541.967 76.6998 542.426 75.5145C542.907 74.2638 542.996 72.8945 542.682 71.591C542.238 69.5242 540.786 67.8595 538.326 66.5966C535.867 65.3337 532.711 65.0796 528.858 65.8344C524.391 66.7075 521.094 68.618 518.97 71.5661C516.845 74.5142 516.204 77.9404 517.047 81.8448C517.908 85.8127 519.925 88.717 523.098 90.5578C526.271 92.3985 530.043 92.8928 534.413 92.0408C536.164 91.7162 537.838 91.0566 539.343 90.0975C540.6 89.3328 541.688 88.3162 542.539 87.1105C543.183 86.1725 543.694 85.1491 544.06 84.0695C544.353 83.3114 544.445 82.489 544.325 81.6841C544.226 81.2226 544.02 81.0235 543.711 81.0868ZM596.415 73.1727C595.923 73.3558 595.446 73.5807 594.992 73.8451C594.32 74.2223 593.595 74.4923 592.841 74.6453C588.694 75.3493 586.07 72.766 584.969 66.8953C584.72 65.6663 584.639 64.4087 584.729 63.1575C584.822 62.0507 585.18 61.449 585.802 61.3424C586.703 61.1878 587.288 61.8406 587.561 63.2907C587.674 63.9192 587.739 64.5556 587.754 65.1941C587.777 65.5005 588.123 65.7284 588.793 65.8877C589.499 66.047 590.23 66.0621 590.941 65.9321C592.534 65.6602 593.603 64.9107 594.159 63.6787C594.706 62.5061 594.8 61.1699 594.422 59.9312C593.944 58.2939 592.872 56.8987 591.418 56.0244C589.949 55.1339 588.013 54.9434 585.61 55.4528C583.42 55.9599 581.444 57.1527 579.966 58.8608C579.02 59.9573 578.313 61.2417 577.89 62.6311C577.351 64.359 577.083 66.1612 577.095 67.9725L575.388 68.2656L573.814 58.7298C573.811 58.6755 573.789 58.624 573.752 58.5841C573.715 58.5441 573.666 58.5182 573.613 58.5106C571.863 58.4457 570.111 58.5707 568.387 58.8834C566.685 59.1664 565.014 59.6206 563.401 60.239C563.343 60.2557 563.293 60.2945 563.263 60.3474C563.233 60.4003 563.225 60.463 563.239 60.5221L565.221 69.9885L563.718 70.2395C563.007 66.8231 561.587 64.3336 559.458 62.7709C558.432 62.0048 557.259 61.4619 556.014 61.1765C554.769 60.891 553.478 60.8691 552.224 61.1123C549.562 61.5655 547.521 62.7198 546.102 64.5752C544.683 66.4306 544.123 68.1503 544.423 69.7342C544.42 69.823 544.437 69.9113 544.473 69.9925C544.508 70.0738 544.562 70.1458 544.629 70.2033C544.696 70.2607 544.775 70.302 544.861 70.324C544.946 70.3461 545.035 70.3483 545.122 70.3306C545.615 70.1485 546.091 69.9236 546.546 69.6582C547.217 69.281 547.943 69.011 548.696 68.858C552.846 68.1539 555.47 70.7372 556.568 76.608C556.813 77.829 556.894 79.0778 556.808 80.3206C556.715 81.4425 556.357 82.0542 555.735 82.1608C554.869 82.305 554.294 81.6069 554.004 80.0564C553.947 79.7604 553.871 79.173 553.783 78.3042C553.76 78.0028 553.414 77.7749 552.744 77.6156C552.038 77.4563 551.308 77.4412 550.596 77.5712C549.003 77.8381 547.944 78.5924 547.408 79.8192C546.873 80.9943 546.789 82.3271 547.17 83.5615C547.616 85.2097 548.676 86.6205 550.129 87.4989C551.599 88.4095 553.531 88.5933 555.927 88.0505C556.92 87.8118 557.876 87.4354 558.767 86.932C559.79 86.3244 560.721 85.5721 561.532 84.6982C562.57 83.5464 563.319 82.1599 563.715 80.6553C564.259 78.7233 564.506 76.7188 564.45 74.7113L566.057 74.4392L567.778 84.7628C567.78 84.818 567.802 84.8706 567.839 84.9115C567.875 84.9524 567.925 84.9791 567.979 84.9871C569.746 85.0478 571.515 84.9177 573.254 84.5988C574.94 84.3191 576.594 83.8684 578.191 83.2536C578.249 83.237 578.298 83.1981 578.329 83.1453C578.359 83.0924 578.367 83.0297 578.352 82.9706L576.219 72.7164L577.513 72.4977C578.011 75.4529 579.428 78.1715 581.561 80.2599C583.619 82.2053 586.204 82.914 589.318 82.3859C591.975 81.9377 594.014 80.7851 595.435 78.928C596.856 77.0709 597.417 75.3513 597.119 73.769C597.122 73.6799 597.104 73.5915 597.068 73.5101C597.032 73.4288 596.978 73.3568 596.91 73.2995C596.842 73.2422 596.763 73.201 596.677 73.179C596.592 73.1571 596.502 73.1549 596.415 73.1727ZM617.447 72.2888C617.71 74.2517 618.522 75.6999 619.882 76.6333C621.353 77.5908 623.123 77.964 624.851 77.6807C625.719 77.6108 626.564 77.3658 627.336 76.9602C628.108 76.5545 628.791 75.9966 629.344 75.3194C630.423 73.9768 630.913 72.9398 630.814 72.2085C630.789 72.0524 630.723 71.9059 630.622 71.7841C630.522 71.6623 630.392 71.5695 630.244 71.5153C628.657 70.76 627.71 69.2193 627.403 66.8932L625.385 51.6361C625.385 51.581 625.366 51.5276 625.331 51.4856C625.296 51.4435 625.247 51.4155 625.193 51.4067C623.465 51.2543 621.725 51.2915 620.005 51.5177C618.324 51.7188 616.666 52.0869 615.056 52.6166C614.998 52.6319 614.947 52.6691 614.914 52.7207C614.881 52.7723 614.869 52.8345 614.88 52.8948L616.042 61.6705L610.764 62.3002L610.258 58.4595C610.18 57.6276 609.921 56.8233 609.5 56.1037C609.078 55.3841 608.505 54.7669 607.82 54.2958C606.362 53.3278 604.599 52.9435 602.875 53.2181C602.01 53.2858 601.167 53.5269 600.395 53.9272C599.624 54.3275 598.939 54.8789 598.382 55.5492C597.298 56.8819 596.805 57.9072 596.902 58.6402C596.928 58.7959 596.995 58.942 597.095 59.0636C597.195 59.1853 597.325 59.2783 597.472 59.3333C598.213 59.6617 598.834 60.2165 599.247 60.9196C599.717 61.8604 600.007 62.8828 600.099 63.9324C601.379 73.6018 601.986 78.7116 601.918 79.2619C601.922 79.3234 601.949 79.381 601.994 79.4227C602.039 79.4645 602.098 79.487 602.159 79.4857C603.924 79.6056 605.695 79.5631 607.452 79.3587C609.207 79.1789 610.937 78.8029 612.61 78.2376C612.646 78.2304 612.681 78.216 612.711 78.1953C612.742 78.1746 612.769 78.148 612.789 78.117C612.81 78.0859 612.824 78.0511 612.831 78.0145C612.838 77.9779 612.838 77.9402 612.831 77.9036L611.464 67.5866L616.741 66.952L617.447 72.2888ZM645.013 48.9662C640.778 49.2338 637.363 50.6997 634.768 53.3642C632.172 56.0287 631.016 59.3661 631.301 63.3765C631.585 67.4204 633.19 70.6102 636.115 72.9459C639.041 75.2817 642.64 76.314 646.912 76.0427C651.221 75.7694 654.662 74.2847 657.236 71.5886C659.81 68.8925 660.956 65.5384 660.672 61.5263C660.594 59.6937 660.122 57.9002 659.287 56.2702C658.453 54.6402 657.276 53.213 655.84 52.0877C652.896 49.7387 649.287 48.6983 645.013 48.9662ZM646.518 70.3762C645.078 70.4657 643.96 69.7979 643.154 68.3731C642.266 66.6192 641.77 64.69 641.703 62.722C641.332 57.4071 642.564 54.6605 645.401 54.482C646.875 54.3922 648.008 55.0497 648.814 56.4594C649.621 57.8691 650.103 59.7796 650.271 62.1859C650.641 67.4655 649.39 70.1957 646.518 70.3762ZM689.668 56.0153C689.679 53.7681 688.638 51.91 686.543 50.4408C684.449 48.9716 681.786 48.2235 678.556 48.1963C674.025 48.1652 670.39 49.4289 667.652 51.9875C666.332 53.1769 665.279 54.6373 664.564 56.2708C663.849 57.9042 663.489 59.673 663.508 61.4585C663.479 65.3462 664.712 68.5531 667.205 71.0791C669.699 73.605 673.246 74.8858 677.845 74.9213C681.285 74.948 684.161 73.9816 686.475 72.022C688.788 70.0624 689.95 68.3453 689.959 66.8706C689.977 66.7804 689.975 66.6869 689.952 66.5978C689.928 66.5087 689.884 66.4264 689.823 66.3575C689.763 66.2887 689.687 66.2352 689.601 66.2014C689.516 66.1675 689.425 66.1544 689.334 66.1629C688.407 66.399 687.499 66.7018 686.616 67.0691C685.127 67.651 683.546 67.956 681.949 67.9692C679.207 67.9507 677.203 67.1828 675.935 65.6653C674.652 64.1151 673.979 62.1423 674.047 60.1239C674.028 58.4413 674.439 56.7821 675.241 55.3066C676.025 53.9065 676.977 53.2102 678.097 53.2177C679.502 53.2291 680.199 54.2394 680.185 56.2486C680.17 56.7611 680.121 57.2721 680.04 57.7782C679.972 58.2032 679.927 58.6315 679.903 59.0614C679.898 59.5641 680.327 60.0577 681.184 60.552C682.058 61.0474 683.045 61.3046 684.047 61.2981C685.872 61.3155 687.262 60.7691 688.218 59.6689C689.134 58.6742 689.65 57.3722 689.668 56.0153ZM736.907 74.4553C735.566 73.3524 735.044 71.6383 735.342 69.313C735.518 67.9188 735.74 66.2376 736.01 64.2795C736.28 62.3214 736.447 61.058 736.522 60.4943C736.827 58.0985 736.376 56.1642 735.169 54.6913C734.562 53.9569 733.816 53.3515 732.975 52.9101C732.134 52.4687 731.214 52.2002 730.269 52.1202C726.786 51.7118 723.92 53.2479 721.671 56.7283L721.516 56.7097C721.427 55.0543 720.727 53.4922 719.554 52.3303C718.37 51.1987 716.843 50.5018 715.218 50.3519C711.735 49.9435 708.869 51.4796 706.62 54.96L706.461 54.9415C706.444 54.268 706.435 53.8961 706.445 53.8257C706.311 52.5075 705.728 51.2768 704.796 50.343C703.754 49.3723 702.416 48.788 701.001 48.686C699.256 48.4174 697.476 48.8538 696.049 49.9006C694.658 50.9346 693.917 51.8182 693.826 52.5514C693.81 52.7063 693.836 52.8628 693.902 53.0039C693.967 53.145 694.07 53.2654 694.198 53.352C694.833 53.8437 695.294 54.5284 695.513 55.3047C695.727 56.3306 695.746 57.388 695.568 58.4209C694.327 68.0947 693.604 73.189 693.4 73.7037C693.388 73.7638 693.4 73.8261 693.433 73.8774C693.466 73.9288 693.518 73.965 693.577 73.9785C695.26 74.5058 696.987 74.8776 698.737 75.0893C700.423 75.3128 702.129 75.3434 703.822 75.1804C703.897 75.1839 703.969 75.1575 704.025 75.1071C704.08 75.0567 704.114 74.9863 704.118 74.9111L705.786 61.9003C705.899 60.4718 706.376 59.0972 707.172 57.9105C707.871 56.9787 708.625 56.5641 709.428 56.6568C710.471 56.7824 710.869 57.8241 710.62 59.782L708.61 75.4906C708.599 75.55 708.611 75.6113 708.644 75.6617C708.678 75.7121 708.729 75.7474 708.787 75.7603C710.42 76.2767 712.095 76.644 713.792 76.8576C715.477 77.0771 717.181 77.106 718.873 76.9438C718.947 76.9483 719.02 76.9232 719.077 76.8738C719.133 76.8243 719.168 76.7545 719.174 76.6794L720.836 63.6636C720.949 62.2366 721.427 60.8636 722.223 59.6788C722.927 58.7469 723.675 58.3275 724.479 58.4252C725.522 58.5457 725.919 59.5874 725.671 61.5503L724.304 72.2207C724.054 74.1786 724.47 75.7698 725.552 76.9941C726.741 78.2736 728.365 79.0516 730.1 79.1717C730.966 79.3051 731.85 79.2642 732.701 79.0515C733.552 78.8387 734.353 78.4582 735.057 77.9319C736.447 76.8828 737.19 75.9925 737.284 75.261C737.299 75.1049 737.272 74.9475 737.206 74.8057C737.14 74.6638 737.036 74.5427 736.907 74.4553ZM771.947 62.5161C771.964 62.4601 771.967 62.4004 771.954 62.3432C771.941 62.2859 771.913 62.233 771.874 62.1901C770.331 61.4993 768.731 60.948 767.092 60.5427C765.379 60.1161 763.629 59.8587 761.866 59.7743L761.584 60.0134L758.154 72.7096C757.842 74.1495 757.099 75.4584 756.028 76.4604C755.064 77.2791 754.169 77.5894 753.355 77.3862C753.092 77.3254 752.85 77.1959 752.652 77.0108C752.454 76.8257 752.308 76.5915 752.228 76.3315C752.02 75.5864 752.043 74.7948 752.296 74.0637L755.091 63.7062C755.61 61.7909 755.393 60.1458 754.439 58.771C753.405 57.3407 751.876 56.3531 750.155 56.0028C749.313 55.7649 748.433 55.6975 747.565 55.8043C746.696 55.9112 745.858 56.1902 745.097 56.6253C743.59 57.4946 742.736 58.3072 742.534 59.0532C742.482 59.2099 742.478 59.3787 742.522 59.5378C742.566 59.6969 742.657 59.8389 742.782 59.9456C744 61.2105 744.324 62.8981 743.753 65.0082L741.377 73.8084C740.747 76.147 740.929 78.094 741.923 79.6494C742.988 81.2586 744.643 82.376 746.524 82.7564C748.21 83.1664 749.971 83.1457 751.647 82.6963C753.535 82.1606 755.209 81.0399 756.431 79.4926L756.571 79.5818C756.523 79.9368 756.498 80.2948 756.497 80.6532C756.447 81.9653 756.849 83.2543 757.634 84.3018C758.525 85.3963 759.766 86.1433 761.144 86.414C761.994 86.6576 762.883 86.7292 763.761 86.6249C764.639 86.5206 765.487 86.2423 766.257 85.806C767.759 84.9318 768.607 84.1393 768.801 83.4286C768.837 83.2767 768.831 83.118 768.785 82.969C768.739 82.82 768.654 82.6862 768.539 82.5816C767.464 81.456 767.238 79.7407 767.86 77.4356C770.526 67.582 771.888 62.6088 771.947 62.5161Z" fill="white"/>
</svg>
