<svg width="280" height="251" viewBox="0 0 280 251" fill="none" xmlns="http://www.w3.org/2000/svg">
<path d="M140.025 250.055C136.401 250.055 133.707 248.291 130.279 246.088C128.957 245.255 127.487 244.276 125.92 243.394C114.167 236.832 101.189 227.135 90.0234 218.467C68.9162 202.061 52.1185 186.537 38.749 171.013L38.651 170.915L38.5531 170.817C34.1945 164.597 28.7586 157.349 27.2404 156.027L26.7507 155.831L26.261 155.145C25.0856 153.48 24.0082 151.913 22.9798 150.395C19.4538 145.106 16.3195 139.719 13.626 134.381L10.5897 128.015C4.22325 113.666 0.79516 99.4145 0.109543 84.331C-1.01683 59.8936 6.57394 37.8559 21.4616 22.2826C28.3178 15.1815 36.3004 9.69659 45.3113 5.87672C54.6161 1.95891 64.7535 0 75.4295 0C79.7391 0 84.1956 0.342809 88.6032 0.979454C104.176 3.28117 118.966 11.9983 137.674 23.1151L140.073 24.5353L142.473 23.1151C161.132 11.9983 175.921 3.28117 191.495 0.979454C195.902 0.342809 200.359 0 204.668 0C215.344 0 225.482 1.95891 234.787 5.87672C243.798 9.64762 251.78 15.1815 258.538 22.2336C273.426 37.8069 281.017 59.8446 279.89 84.282C279.548 91.2851 278.617 98.3371 277.05 105.144V105.242L275.238 112.196C272.74 120.718 269.165 129.337 264.611 137.76L260.693 144.665C259.518 146.575 258.342 148.485 257.069 150.346C242.328 172.629 220.438 194.911 190.075 218.467C178.909 227.135 165.931 236.832 154.178 243.394C152.561 244.276 151.092 245.255 149.819 246.088C146.342 248.291 143.648 250.055 140.025 250.055Z" fill="#EB2316"/>
<path fill-rule="evenodd" clip-rule="evenodd" d="M134.158 239.991L134.186 240.01C137.984 242.451 138.883 242.829 140.025 242.829C141.174 242.829 142.059 242.45 145.908 240.012C146.005 239.948 146.105 239.883 146.208 239.815C147.372 239.052 148.95 238.017 150.683 237.069C161.901 230.802 174.482 221.424 185.644 212.759L185.645 212.758C215.631 189.495 236.88 167.768 251.043 146.359L251.074 146.312L251.106 146.266C252.242 144.605 253.308 142.879 254.472 140.988L258.289 134.26C262.583 126.308 265.935 118.216 268.274 110.267L269.838 104.263L270.008 103.523C271.471 97.1681 272.348 90.5474 272.673 83.9435C273.72 61.1935 266.649 41.1773 253.319 27.2308C247.232 20.8791 240.071 15.9211 231.997 12.5424L231.99 12.5393L231.983 12.5363C223.628 9.01849 214.452 7.22581 204.668 7.22581C200.738 7.22581 196.632 7.53878 192.54 8.12932C178.667 10.183 165.176 17.9996 146.172 29.3227L146.162 29.3281L140.073 32.9318L133.988 29.3302L133.982 29.3269C114.922 18.0004 101.434 10.1835 87.5586 8.12936C83.4664 7.5388 79.3601 7.22581 75.4295 7.22581C65.6494 7.22581 56.4757 9.0174 48.123 12.5331C40.0197 15.9695 32.852 20.8917 26.6724 27.2886C13.3465 41.236 6.2792 61.2507 7.32769 83.9983L7.3279 84.0028C7.96948 98.1176 11.1622 111.461 17.155 124.995L20.1128 131.197C22.6613 136.24 25.6314 141.344 28.9775 146.365C29.849 147.651 30.7518 148.967 31.7184 150.345L31.9862 150.578C32.8876 151.363 33.8722 152.526 34.6177 153.433C35.4893 154.493 36.5082 155.797 37.5845 157.213C39.6363 159.913 42.001 163.159 44.1413 166.201L44.2242 166.297C57.1998 181.364 73.6174 196.564 94.4578 212.762C105.628 221.433 118.219 230.819 129.443 237.085L129.453 237.091L129.463 237.096C130.84 237.871 132.22 238.754 133.289 239.438C133.597 239.635 133.88 239.816 134.129 239.973L134.158 239.991ZM38.5531 170.817L38.749 171.013C52.1185 186.537 68.9162 202.061 90.0234 218.467C101.189 227.135 114.167 236.832 125.92 243.394C127.099 244.057 128.222 244.775 129.269 245.445C129.614 245.666 129.951 245.881 130.279 246.088L130.414 246.175C133.778 248.338 136.448 250.055 140.025 250.055C143.564 250.055 146.216 248.373 149.577 246.241L149.819 246.088C149.93 246.015 150.043 245.941 150.158 245.866C151.35 245.085 152.703 244.199 154.178 243.394C165.931 236.832 178.909 227.135 190.075 218.467C220.438 194.911 242.328 172.629 257.069 150.346C258.342 148.485 259.518 146.575 260.693 144.666L264.611 137.76C269.165 129.337 272.74 120.718 275.238 112.196L277.05 105.242V105.144C278.617 98.3371 279.548 91.2851 279.89 84.282C281.017 59.8446 273.426 37.8069 258.538 22.2336C251.78 15.1815 243.798 9.64762 234.787 5.87672C225.482 1.95891 215.344 0 204.668 0C200.359 0 195.902 0.342809 191.495 0.979454C175.921 3.28117 161.132 11.9983 142.473 23.1151L140.073 24.5353L137.674 23.1151C118.966 11.9983 104.176 3.28117 88.6032 0.979454C84.1956 0.342809 79.7391 0 75.4295 0C64.7535 0 54.6161 1.95891 45.3113 5.87672C36.3004 9.69659 28.3178 15.1815 21.4616 22.2826C6.57394 37.8559 -1.01683 59.8936 0.109543 84.331C0.79516 99.4145 4.22325 113.666 10.5897 128.015L13.626 134.381C16.3195 139.719 19.4538 145.106 22.9798 150.395C24.0082 151.913 25.0856 153.48 26.261 155.145L26.7507 155.831L27.2404 156.027C28.7586 157.349 34.1945 164.597 38.5531 170.817Z" fill="white"/>
<path d="M63.6832 65.108L66.5157 65.2092C67.8308 65.2092 68.8172 64.9057 69.4747 64.2987C70.107 63.6918 70.4357 62.8825 70.4357 61.9214C70.4357 61.1627 70.3093 60.5558 70.0564 60.1005C69.8035 59.6453 69.5506 59.3924 69.323 59.3924C69.2471 59.3924 69.0954 59.443 68.8677 59.4936C68.6148 59.5694 68.2861 59.6453 67.8814 59.6959C67.4515 59.7718 66.9963 59.7971 66.4904 59.7971C65.1248 59.7718 63.7591 59.7465 62.3681 59.7212C61.2048 59.7212 60.2185 59.8476 59.3586 60.1258C58.4987 60.4293 57.8917 60.7328 57.563 61.0616C57.2089 61.3903 57.0572 61.6938 57.0572 61.9467C57.0572 62.0479 57.1077 62.1743 57.2342 62.3261C57.3354 62.4778 57.4618 62.6296 57.6135 62.7813C57.7653 62.9331 57.8917 63.2365 58.0182 63.6665C58.1194 64.0964 58.1952 64.6275 58.1952 65.2598C58.1952 70.4696 58.1699 74.5666 58.1446 77.5509C58.1446 77.6267 58.1699 77.6773 58.2458 77.6773C59.1057 77.8543 59.9908 77.9302 60.876 77.9302C61.9635 77.9302 62.8486 77.8543 63.5568 77.6773C63.6326 77.6773 63.6832 77.6267 63.6832 77.5256V65.108Z" fill="white"/>
<path d="M81.8662 75.3253C81.158 74.8701 80.804 74.0355 80.804 72.8469C80.804 72.2146 80.804 71.6076 80.804 71.0512C80.804 70.4949 80.8293 70.0649 80.8293 69.7614C80.8293 69.4832 80.8546 69.2809 80.8546 69.1545C80.8546 67.5359 80.374 66.3725 79.4383 65.6391C78.4773 64.9057 77.238 64.5263 75.6953 64.5263C73.9756 64.5263 72.5088 64.9057 71.2442 65.6138C69.9797 66.3472 69.3475 67.0048 69.3475 67.5612C69.3475 67.8647 69.5751 68.0164 70.0303 68.0164C70.182 68.0164 70.3591 68.0164 70.612 67.9911C70.8396 67.9911 70.9913 67.9658 71.0925 67.9658C71.0925 69.458 70.9155 70.6719 70.5614 71.5823C70.2073 72.5181 69.7015 72.9733 69.0946 72.9733C68.9428 72.9733 68.7911 72.948 68.6393 72.8469C68.4876 72.7457 68.3864 72.6951 68.3359 72.6951C68.1335 72.6951 67.8806 72.9733 67.6024 73.4791C67.3242 74.0102 67.1978 74.5919 67.1978 75.1989C67.1978 76.0587 67.4507 76.7669 67.9565 77.298C68.4623 77.8291 69.1451 78.082 70.005 78.082C70.7637 78.082 71.396 77.8796 71.9018 77.4244C72.4076 76.9945 72.787 76.4634 73.0399 75.8311C73.2928 75.1989 73.4445 74.3896 73.5457 73.4032C73.6468 72.4169 73.6721 71.5318 73.6721 70.7478C73.6468 69.9638 73.5962 69.0533 73.5457 67.9911C74.0262 67.9911 74.4308 68.0417 74.7343 68.1682C75.0378 68.2946 75.2401 68.4969 75.3666 68.7751C75.4677 69.0533 75.5436 69.3062 75.5942 69.5338C75.6195 69.7614 75.6448 70.0649 75.6448 70.419V74.946C75.6448 75.9576 75.9482 76.7163 76.5552 77.2727C77.1622 77.8291 77.9462 78.082 78.9072 78.082C79.8177 78.082 80.5764 77.7785 81.1833 77.1715C81.7903 76.5645 82.0938 76.084 82.0938 75.7047C82.0938 75.5529 82.0179 75.4265 81.8662 75.3253Z" fill="white"/>
<path d="M96.8035 72.9227C96.8035 71.7847 96.8288 69.2051 96.8793 65.1839C96.8793 65.1333 96.8288 65.0827 96.7529 65.0322C96.0448 64.9057 95.2355 64.8298 94.3503 64.8298C93.541 64.8298 92.757 64.9057 92.0236 65.0322C91.9224 65.0827 91.8971 65.1333 91.8971 65.1839L91.6442 66.8025H91.5684C91.2143 66.1449 90.7338 65.6138 90.0762 65.2345C89.4187 64.8551 88.6853 64.6528 87.8507 64.6528C86.2827 64.6528 85.0435 65.3609 84.133 66.7266C83.2226 68.1176 82.7673 69.7361 82.7673 71.5823C82.7673 73.378 83.1973 74.9207 84.1077 76.1852C84.9929 77.4497 86.2068 78.082 87.7242 78.082C88.5841 78.082 89.3428 77.8543 90.051 77.3991C90.7591 76.9439 91.2902 76.3116 91.6442 75.5023H91.7201C91.8213 76.3116 92.1753 76.9692 92.757 77.4244C93.3134 77.8796 94.0468 78.1072 94.9067 78.1072C95.716 78.1072 96.4494 77.8543 97.107 77.3232C97.7645 76.7922 98.0933 76.2611 98.0933 75.7552C98.0933 75.6035 98.0174 75.4771 97.8657 75.3759C97.1575 74.9207 96.8035 74.0861 96.8035 72.9227ZM89.8739 74.5919C89.267 74.5919 88.7864 74.2884 88.4577 73.6562C88.1036 73.0492 87.9519 72.2399 87.9519 71.2789C87.9519 70.3178 88.1036 69.5338 88.4577 68.9016C88.7864 68.2693 89.267 67.9405 89.8739 67.9405C90.4809 67.9405 90.9614 68.2693 91.3155 68.9016C91.6442 69.5338 91.8213 70.3178 91.8213 71.2789C91.8213 72.2399 91.6442 73.0492 91.3155 73.6562C90.9614 74.2884 90.4809 74.5919 89.8739 74.5919Z" fill="white"/>
<path d="M109.014 70.6213V70.5202C109.621 70.419 110.127 70.1408 110.557 69.7362C110.961 69.3315 111.214 68.8257 111.29 68.2187C111.417 67.3083 111.012 66.4484 110.076 65.6897C109.14 64.931 107.724 64.5263 105.827 64.5263C103.602 64.5263 101.857 65.1333 100.618 66.2967C99.3783 67.4853 98.7714 69.1292 98.7714 71.2536C98.7714 73.6056 99.3783 75.3506 100.643 76.4634C101.882 77.6014 103.602 78.1578 105.827 78.1578C107.749 78.1578 109.292 77.7279 110.405 76.8174C111.518 75.907 112.099 74.8954 112.099 73.732C112.099 72.8469 111.771 72.1387 111.164 71.6076C110.531 71.0765 109.823 70.7478 109.014 70.6213ZM105.574 67.3083C105.878 67.3083 106.131 67.4347 106.333 67.6623C106.535 67.89 106.637 68.1429 106.637 68.4211C106.637 68.9016 106.409 69.3062 106.004 69.6603C105.574 70.0143 104.942 70.2167 104.082 70.2672H103.855C103.829 69.4074 103.956 68.6992 104.234 68.1429C104.512 67.5865 104.967 67.3083 105.574 67.3083ZM105.752 75.4265C104.436 75.4265 103.804 74.3137 103.855 72.0629C104.032 72.0629 104.234 72.0376 104.436 72.0376C105.296 72.0376 105.979 72.2399 106.485 72.6192C106.965 72.9986 107.218 73.4285 107.218 73.9343C107.218 74.339 107.067 74.6931 106.814 74.9965C106.561 75.3 106.207 75.4265 105.752 75.4265Z" fill="white"/>
<path d="M121.275 74.9965C121.275 76.0082 121.553 76.7669 122.16 77.3232C122.742 77.8796 123.5 78.1325 124.461 78.1325C125.372 78.1325 126.131 77.8291 126.738 77.2221C127.344 76.6151 127.648 76.1346 127.648 75.7552C127.648 75.6035 127.572 75.4771 127.42 75.3759C126.712 74.9207 126.358 74.0861 126.358 72.8974V65.1586C126.358 65.108 126.333 65.0574 126.282 65.0322C125.549 64.8804 124.714 64.7792 123.804 64.7792C122.969 64.7792 122.16 64.8804 121.376 65.0322C121.3 65.0574 121.275 65.108 121.275 65.1586V69.6097H118.72V67.6623C118.72 66.7519 118.417 65.9932 117.81 65.4368C117.203 64.8804 116.444 64.6022 115.534 64.6022C114.598 64.6022 113.839 64.9057 113.232 65.5127C112.626 66.1196 112.347 66.6002 112.347 66.9542C112.347 67.106 112.423 67.2324 112.575 67.3336C112.929 67.5865 113.157 67.89 113.308 68.244C113.46 68.5981 113.536 69.1292 113.536 69.7867C113.536 74.6931 113.485 77.298 113.435 77.5509C113.435 77.6267 113.46 77.6773 113.536 77.6773C114.396 77.8543 115.256 77.9302 116.065 77.9302C117.051 77.9302 117.886 77.8543 118.594 77.6773C118.67 77.6773 118.72 77.6267 118.72 77.5256V72.2905H121.275V74.9965Z" fill="white"/>
<path d="M134.429 67.8141C134.429 66.8278 134.101 66.0438 133.494 65.4874C132.887 64.931 132.103 64.6528 131.167 64.6528C130.231 64.6528 129.472 64.9563 128.891 65.5632C128.284 66.1702 128.006 66.676 128.006 67.0554C128.006 67.2577 128.081 67.3842 128.233 67.46C128.941 67.9405 129.321 68.7245 129.321 69.812L129.295 72.6951C129.295 73.3274 129.397 73.9343 129.599 74.5413C129.801 75.1483 130.105 75.73 130.56 76.2863C130.99 76.8427 131.622 77.298 132.457 77.6267C133.266 77.9808 134.252 78.1325 135.365 78.1325C137.06 78.1325 138.476 77.6267 139.614 76.5898C140.752 75.5529 141.334 74.2125 141.334 72.594C141.334 71.1018 140.853 69.9638 139.892 69.1545C140.196 68.5475 140.6 68.244 141.106 68.244C141.359 68.244 141.561 68.3705 141.738 68.5728C141.915 68.8004 142.016 69.1039 142.016 69.5085V75.0218C142.016 76.0334 142.295 76.7922 142.902 77.3485C143.509 77.9049 144.267 78.1578 145.228 78.1578C146.139 78.1578 146.897 77.8543 147.504 77.2474C148.111 76.6404 148.415 76.1599 148.415 75.7805C148.415 75.6288 148.339 75.5023 148.187 75.4012C147.479 74.946 147.125 74.1114 147.125 72.9227V68.1176C147.125 67.1818 146.771 66.322 146.088 65.5632C145.38 64.8045 144.318 64.5011 142.902 64.6528C141.865 64.7792 140.954 65.1839 140.17 65.892C139.361 66.6002 138.754 67.4347 138.349 68.3958C137.06 67.9911 135.744 68.067 134.429 68.5981V67.8141ZM135.517 75.2242C134.758 75.2242 134.404 74.4907 134.404 72.9986V70.3431C134.556 70.3178 134.733 70.2925 134.91 70.2925C135.517 70.2925 135.997 70.5202 136.301 70.9754C136.604 71.4306 136.756 72.0376 136.756 72.7457C136.756 73.378 136.63 73.9596 136.427 74.4654C136.2 74.9712 135.896 75.2242 135.517 75.2242Z" fill="white"/>
<path d="M162.888 65.1839C162.888 65.1333 162.863 65.0827 162.812 65.0322C162.003 64.8804 161.194 64.8045 160.385 64.8045C159.499 64.8045 158.665 64.9057 157.855 65.0574L157.754 65.2092V71.81C157.754 72.6951 157.577 73.4032 157.223 73.9091C156.869 74.4149 156.515 74.6678 156.11 74.6678C155.832 74.6678 155.605 74.5413 155.453 74.2884C155.276 74.0355 155.2 73.6814 155.2 73.1756V67.7888C155.2 66.8025 154.871 66.0185 154.264 65.4621C153.657 64.9057 152.873 64.6275 151.938 64.6275C151.002 64.6275 150.243 64.931 149.661 65.538C149.054 66.1449 148.776 66.6507 148.776 67.0301C148.776 67.2324 148.852 67.3589 149.004 67.4347C149.712 67.9152 150.091 68.6992 150.091 69.7867V74.3643C150.091 75.5782 150.42 76.514 151.078 77.1462C151.735 77.8038 152.57 78.1072 153.607 78.1072C154.416 78.1072 155.225 77.9049 155.984 77.475C156.743 77.0451 157.35 76.3369 157.805 75.3253L157.881 75.3506C157.906 75.6035 157.931 75.7805 157.982 75.8817C158.134 76.5898 158.462 77.1209 158.968 77.5256C159.449 77.9302 160.081 78.1325 160.865 78.1325C161.801 78.1325 162.559 77.8291 163.166 77.2221C163.748 76.6151 164.052 76.1346 164.052 75.7552C164.052 75.6035 163.976 75.4771 163.824 75.3759C163.166 74.9712 162.863 74.162 162.863 72.948C162.863 67.8394 162.863 65.2345 162.888 65.1839ZM156.186 63.7929C157.653 63.7929 158.943 63.5147 160.056 62.9078C161.169 62.3008 161.75 61.5168 161.75 60.5052C161.75 59.8476 161.523 59.3418 161.093 58.9878C160.637 58.6337 160.132 58.4567 159.525 58.4567C159.044 58.4567 158.639 58.5578 158.285 58.7096C157.931 58.8866 157.704 59.0636 157.577 59.2154C157.426 59.3924 157.375 59.5442 157.375 59.6453C157.375 59.7718 157.4 59.8982 157.501 60.05C157.577 60.2017 157.628 60.404 157.628 60.6063C157.628 60.9604 157.476 61.2639 157.198 61.4662C156.894 61.6685 156.566 61.7697 156.186 61.7697C155.782 61.7697 155.453 61.6685 155.175 61.4662C154.897 61.2639 154.77 60.9857 154.77 60.6316C154.77 60.4799 154.795 60.2776 154.897 60.0752C154.972 59.8729 155.023 59.7465 155.023 59.6453C155.023 59.5442 154.972 59.3924 154.871 59.2154C154.77 59.0636 154.542 58.8866 154.214 58.7096C153.86 58.5578 153.455 58.4567 152.974 58.4567C152.367 58.4567 151.811 58.659 151.356 59.0131C150.875 59.3671 150.648 59.8982 150.648 60.5558C150.648 61.618 151.179 62.402 152.292 62.9583C153.379 63.5147 154.669 63.7929 156.186 63.7929Z" fill="white"/>
<path d="M171.277 77.5509C171.277 77.6267 171.302 77.6773 171.378 77.6773C172.238 77.8543 173.097 77.9302 173.907 77.9302C174.817 77.9302 175.626 77.8543 176.335 77.6773C176.41 77.6773 176.461 77.6267 176.461 77.5256V70.8489C176.461 69.9891 176.638 69.3062 176.992 68.8004C177.346 68.2946 177.726 68.0164 178.13 68.0164C178.383 68.0164 178.611 68.1429 178.788 68.3958C178.94 68.6487 179.041 69.028 179.041 69.5085V75.0471C179.041 76.0587 179.319 76.8174 179.926 77.3738C180.508 77.9302 181.266 78.1831 182.227 78.1831C183.138 78.1831 183.896 77.8796 184.503 77.2727C185.11 76.6657 185.414 76.1852 185.414 75.8058C185.414 75.6541 185.338 75.5276 185.186 75.4265C184.478 74.9712 184.124 74.1367 184.124 72.948C184.124 72.2399 184.124 71.38 184.124 70.3431C184.124 69.3062 184.149 68.6487 184.149 68.3452C184.149 67.1312 183.795 66.1955 183.138 65.538C182.48 64.8804 181.646 64.5263 180.659 64.5263C179.875 64.5263 179.091 64.754 178.307 65.2092C177.498 65.6644 176.891 66.3725 176.436 67.3336H176.36C176.335 67.2324 176.309 67.0554 176.284 66.8531C176.132 66.1449 175.804 65.5885 175.298 65.1586C174.792 64.754 174.16 64.5263 173.376 64.5263C172.44 64.5263 171.681 64.8298 171.074 65.4368C170.467 66.0438 170.189 66.5243 170.189 66.8783C170.189 67.0301 170.265 67.1565 170.417 67.2577C170.771 67.5106 170.998 67.8141 171.15 68.1682C171.302 68.5222 171.378 69.0533 171.378 69.7109C171.378 74.6678 171.327 77.298 171.277 77.5509Z" fill="white"/>
<path d="M193.765 67.9405C194.372 67.9405 194.827 68.2693 195.181 68.9016C195.51 69.5338 195.687 70.3178 195.687 71.2789C195.687 72.2399 195.51 73.0492 195.181 73.6562C194.827 74.2884 194.372 74.5919 193.765 74.5919C193.133 74.5919 192.652 74.2884 192.323 73.6562C191.969 73.0492 191.818 72.2399 191.818 71.2789C191.818 70.3178 191.969 69.5338 192.323 68.9016C192.652 68.2693 193.133 67.9405 193.765 67.9405ZM188.96 64.6022C188.024 64.6022 187.265 64.9057 186.658 65.5127C186.051 66.1196 185.773 66.6002 185.773 66.9542C185.773 67.106 185.849 67.2324 186.001 67.3336C186.355 67.5865 186.583 67.89 186.734 68.244C186.886 68.5981 186.962 69.1292 186.962 69.7867C186.962 79.043 186.937 83.747 186.911 83.8734C186.911 83.9493 186.937 83.9999 187.012 83.9999C187.872 84.1769 188.656 84.2528 189.364 84.2528C190.351 84.2528 191.185 84.1769 191.893 83.9999C191.969 83.9999 192.02 83.9493 192.02 83.8482V75.8817H192.096C192.829 77.3485 193.967 78.082 195.51 78.082C197.078 78.082 198.368 77.3991 199.354 75.9829C200.315 74.5919 200.821 72.9733 200.821 71.1271C200.821 69.2556 200.366 67.7129 199.506 66.499C198.646 65.2851 197.432 64.6528 195.889 64.6528C195.029 64.6528 194.246 64.8804 193.512 65.3356C192.753 65.7909 192.248 66.4231 191.969 67.2324H191.893C191.868 67.1312 191.818 66.9542 191.767 66.7013C191.337 65.3103 190.401 64.6022 188.96 64.6022Z" fill="white"/>
<path d="M215.445 65.1839C215.445 65.1333 215.419 65.0827 215.369 65.0322C214.56 64.8804 213.75 64.8045 212.941 64.8045C212.056 64.8045 211.221 64.9057 210.412 65.0574L210.311 65.2092V71.81C210.311 72.6951 210.134 73.4032 209.78 73.9091C209.426 74.4149 209.072 74.6678 208.667 74.6678C208.389 74.6678 208.161 74.5413 208.009 74.2884C207.832 74.0355 207.756 73.6814 207.756 73.1756V67.7888C207.756 66.8025 207.428 66.0185 206.821 65.4621C206.214 64.9057 205.43 64.6275 204.494 64.6275C203.558 64.6275 202.8 64.931 202.218 65.538C201.611 66.1449 201.333 66.6507 201.333 67.0301C201.333 67.2324 201.409 67.3589 201.56 67.4347C202.268 67.9152 202.648 68.6992 202.648 69.7867V74.3643C202.648 75.5782 202.977 76.514 203.634 77.1462C204.292 77.8038 205.126 78.1072 206.163 78.1072C206.972 78.1072 207.782 77.9049 208.54 77.475C209.299 77.0451 209.906 76.3369 210.361 75.3253L210.437 75.3506C210.463 75.6035 210.488 75.7805 210.538 75.8817C210.69 76.5898 211.019 77.1209 211.525 77.5256C212.005 77.9302 212.637 78.1325 213.421 78.1325C214.357 78.1325 215.116 77.8291 215.723 77.2221C216.305 76.6151 216.608 76.1346 216.608 75.7552C216.608 75.6035 216.532 75.4771 216.38 75.3759C215.723 74.9712 215.419 74.162 215.419 72.948C215.419 67.8394 215.419 65.2345 215.445 65.1839Z" fill="white"/>
<path d="M227.007 71.026V70.9248C227.715 70.7731 228.322 70.4443 228.827 69.9385C229.333 69.4327 229.586 68.8257 229.586 68.1176C229.586 67.106 229.055 66.2714 228.018 65.6138C226.981 64.9563 225.691 64.6022 224.149 64.6022C222.126 64.6022 220.482 65.108 219.242 66.1196C218.003 67.1312 217.396 68.067 217.396 68.9269C217.396 69.2051 217.497 69.3315 217.7 69.3315C217.826 69.3315 218.104 69.2303 218.534 69.028C218.939 68.8257 219.495 68.6234 220.153 68.4211C220.81 68.2187 221.493 68.0923 222.201 68.0923C222.682 68.0923 223.087 68.1681 223.415 68.2693C223.744 68.3958 223.972 68.5475 224.123 68.7245C224.25 68.9269 224.326 69.0786 224.376 69.2051C224.427 69.3568 224.452 69.4832 224.452 69.6097C224.452 69.9385 224.351 70.242 224.174 70.5454C223.289 70.2672 222.606 70.2167 222.151 70.419C221.67 70.6213 221.443 70.9501 221.443 71.4053C221.443 71.8352 221.67 72.1387 222.176 72.3411C222.657 72.5434 223.365 72.4422 224.3 72.0882L224.427 72.2652C224.478 72.4169 224.553 72.6192 224.629 72.8722C224.705 73.1251 224.756 73.4032 224.756 73.6562C224.756 74.1114 224.604 74.516 224.326 74.8701C224.022 75.2241 223.643 75.4012 223.137 75.4012C222.682 75.4012 222.328 75.2747 222.024 74.9965C221.721 74.7436 221.594 74.3643 221.594 73.9091C221.594 73.8079 221.594 73.6561 221.645 73.4538C221.67 73.2515 221.696 73.1251 221.696 73.0492C221.696 72.8974 221.468 72.6951 221.013 72.4928C220.558 72.2905 220.102 72.164 219.647 72.164C218.863 72.164 218.256 72.3916 217.826 72.8216C217.371 73.2768 217.169 73.8079 217.169 74.4402C217.169 75.6288 217.776 76.5392 219.015 77.1968C220.229 77.8543 221.645 78.1578 223.238 78.1578C224.402 78.1578 225.464 78.0314 226.45 77.7279C227.436 77.4497 228.271 76.9945 228.929 76.3622C229.586 75.73 229.915 74.9712 229.915 74.0608C229.915 73.2515 229.637 72.594 229.08 72.0629C228.524 71.5318 227.841 71.1777 227.007 71.026Z" fill="white"/>
<path d="M106.628 154.079C105.591 154.13 104.681 154.408 103.897 154.965C103.087 155.521 102.48 156.305 102.076 157.317H101.974L101.924 156.786C101.873 156.431 101.949 155.951 102.152 155.369C102.329 154.813 102.632 154.307 103.087 153.877C103.618 153.346 104.377 152.967 105.338 152.739C106.299 152.511 107.26 152.309 108.221 152.107C109.182 151.905 109.916 151.576 110.447 151.095C111.357 150.261 111.838 149.097 111.838 147.58C111.838 147.175 111.737 146.796 111.56 146.417C111.382 146.037 111.231 145.835 111.079 145.835C111.003 145.835 110.927 145.86 110.851 145.911C110.75 145.961 110.624 146.062 110.421 146.164C110.219 146.29 109.966 146.391 109.713 146.492C109.157 146.72 108.272 146.998 107.007 147.302C105.743 147.605 104.605 147.985 103.618 148.414C102.607 148.87 101.722 149.477 100.963 150.235C99.1925 152.006 98.3074 154.686 98.3074 158.278C98.3074 160.958 98.9143 163.032 100.179 164.499C101.443 165.966 103.087 166.699 105.136 166.699C107.159 166.699 108.828 166.042 110.093 164.701C111.357 163.361 112.015 161.717 112.015 159.77C112.015 158.101 111.509 156.71 110.497 155.622C109.486 154.56 108.196 154.029 106.628 154.079ZM105.161 163.816C104.554 163.816 104.124 163.462 103.846 162.703C103.542 161.97 103.416 161.186 103.416 160.377C103.416 159.517 103.542 158.758 103.846 158.126C104.124 157.519 104.579 157.19 105.212 157.19C105.793 157.19 106.223 157.519 106.476 158.126C106.729 158.758 106.881 159.517 106.881 160.377C106.881 162.678 106.299 163.816 105.161 163.816Z" fill="white"/>
<path d="M127.063 161.439C127.063 160.301 127.089 157.721 127.139 153.7C127.139 153.65 127.089 153.599 127.013 153.548C126.305 153.422 125.495 153.346 124.61 153.346C123.801 153.346 123.017 153.422 122.283 153.548C122.182 153.599 122.157 153.65 122.157 153.7L121.904 155.319H121.828C121.474 154.661 120.994 154.13 120.336 153.751C119.678 153.371 118.945 153.169 118.11 153.169C116.542 153.169 115.303 153.877 114.393 155.243C113.482 156.634 113.027 158.252 113.027 160.099C113.027 161.894 113.457 163.437 114.368 164.701C115.253 165.966 116.467 166.598 117.984 166.598C118.844 166.598 119.603 166.371 120.311 165.915C121.019 165.46 121.55 164.828 121.904 164.019H121.98C122.081 164.828 122.435 165.485 123.017 165.941C123.573 166.396 124.307 166.623 125.166 166.623C125.976 166.623 126.709 166.371 127.367 165.839C128.024 165.308 128.353 164.777 128.353 164.271C128.353 164.12 128.277 163.993 128.125 163.892C127.417 163.437 127.063 162.602 127.063 161.439ZM120.134 163.108C119.527 163.108 119.046 162.805 118.717 162.172C118.363 161.565 118.212 160.756 118.212 159.795C118.212 158.834 118.363 158.05 118.717 157.418C119.046 156.786 119.527 156.457 120.134 156.457C120.741 156.457 121.221 156.786 121.575 157.418C121.904 158.05 122.081 158.834 122.081 159.795C122.081 160.756 121.904 161.565 121.575 162.172C121.221 162.805 120.741 163.108 120.134 163.108Z" fill="white"/>
<path d="M143.27 163.842C142.561 163.386 142.207 162.552 142.207 161.363C142.207 160.731 142.207 160.124 142.207 159.567C142.207 159.011 142.233 158.581 142.233 158.278C142.233 157.999 142.258 157.797 142.258 157.671C142.258 156.052 141.777 154.889 140.842 154.155C139.881 153.422 138.641 153.043 137.099 153.043C135.379 153.043 133.912 153.422 132.648 154.13C131.383 154.863 130.751 155.521 130.751 156.077C130.751 156.381 130.979 156.533 131.434 156.533C131.585 156.533 131.763 156.533 132.015 156.507C132.243 156.507 132.395 156.482 132.496 156.482C132.496 157.974 132.319 159.188 131.965 160.099C131.611 161.034 131.105 161.49 130.498 161.49C130.346 161.49 130.195 161.464 130.043 161.363C129.891 161.262 129.79 161.211 129.739 161.211C129.537 161.211 129.284 161.49 129.006 161.995C128.728 162.526 128.601 163.108 128.601 163.715C128.601 164.575 128.854 165.283 129.36 165.814C129.866 166.345 130.549 166.598 131.408 166.598C132.167 166.598 132.799 166.396 133.305 165.941C133.811 165.511 134.19 164.98 134.443 164.347C134.696 163.715 134.848 162.906 134.949 161.919C135.05 160.933 135.076 160.048 135.076 159.264C135.05 158.48 135 157.57 134.949 156.507C135.43 156.507 135.834 156.558 136.138 156.684C136.441 156.811 136.644 157.013 136.77 157.291C136.871 157.57 136.947 157.822 136.998 158.05C137.023 158.278 137.048 158.581 137.048 158.935V163.462C137.048 164.474 137.352 165.233 137.959 165.789C138.566 166.345 139.35 166.598 140.311 166.598C141.221 166.598 141.98 166.295 142.587 165.688C143.194 165.081 143.497 164.6 143.497 164.221C143.497 164.069 143.421 163.943 143.27 163.842Z" fill="white"/>
<path d="M158.409 163.842C157.701 163.386 157.347 162.552 157.347 161.363C157.347 160.731 157.347 160.124 157.347 159.567C157.347 159.011 157.372 158.581 157.372 158.278C157.372 157.999 157.398 157.797 157.398 157.671C157.398 156.052 156.917 154.889 155.981 154.155C155.02 153.422 153.781 153.043 152.238 153.043C150.519 153.043 149.052 153.422 147.787 154.13C146.523 154.863 145.891 155.521 145.891 156.077C145.891 156.381 146.118 156.533 146.573 156.533C146.725 156.533 146.902 156.533 147.155 156.507C147.383 156.507 147.534 156.482 147.636 156.482C147.636 157.974 147.459 159.188 147.104 160.099C146.75 161.034 146.245 161.49 145.638 161.49C145.486 161.49 145.334 161.464 145.182 161.363C145.031 161.262 144.929 161.211 144.879 161.211C144.677 161.211 144.424 161.49 144.145 161.995C143.867 162.526 143.741 163.108 143.741 163.715C143.741 164.575 143.994 165.283 144.5 165.814C145.005 166.345 145.688 166.598 146.548 166.598C147.307 166.598 147.939 166.396 148.445 165.941C148.951 165.511 149.33 164.98 149.583 164.347C149.836 163.715 149.988 162.906 150.089 161.919C150.19 160.933 150.215 160.048 150.215 159.264C150.19 158.48 150.139 157.57 150.089 156.507C150.569 156.507 150.974 156.558 151.277 156.684C151.581 156.811 151.783 157.013 151.91 157.291C152.011 157.57 152.087 157.822 152.137 158.05C152.163 158.278 152.188 158.581 152.188 158.935V163.462C152.188 164.474 152.491 165.233 153.098 165.789C153.705 166.345 154.489 166.598 155.45 166.598C156.361 166.598 157.119 166.295 157.726 165.688C158.333 165.081 158.637 164.6 158.637 164.221C158.637 164.069 158.561 163.943 158.409 163.842Z" fill="white"/>
<path d="M166.366 153.068C164.318 153.068 162.623 153.7 161.308 154.965C159.968 156.229 159.31 157.848 159.31 159.871C159.31 161.919 159.968 163.563 161.283 164.828C162.598 166.092 164.293 166.725 166.366 166.725C168.44 166.725 170.135 166.092 171.45 164.828C172.765 163.563 173.448 161.894 173.448 159.871C173.448 157.898 172.765 156.254 171.45 154.99C170.109 153.725 168.415 153.068 166.366 153.068ZM166.366 163.867C165.658 163.867 165.152 163.513 164.824 162.754C164.47 162.021 164.318 161.06 164.318 159.871C164.318 157.19 165.001 155.85 166.366 155.85C167.075 155.85 167.58 156.229 167.934 156.963C168.263 157.696 168.44 158.657 168.44 159.871C168.44 162.552 167.732 163.867 166.366 163.867Z" fill="white"/>
<path d="M184.693 159.138V159.036C185.3 158.935 185.805 158.657 186.235 158.252C186.64 157.848 186.893 157.342 186.969 156.735C187.095 155.825 186.691 154.965 185.755 154.206C184.819 153.447 183.403 153.043 181.506 153.043C179.28 153.043 177.535 153.65 176.296 154.813C175.057 156.002 174.45 157.645 174.45 159.77C174.45 162.122 175.057 163.867 176.322 164.98C177.561 166.118 179.28 166.674 181.506 166.674C183.428 166.674 184.971 166.244 186.084 165.334C187.196 164.423 187.778 163.412 187.778 162.248C187.778 161.363 187.449 160.655 186.842 160.124C186.21 159.593 185.502 159.264 184.693 159.138ZM181.253 155.825C181.557 155.825 181.809 155.951 182.012 156.179C182.214 156.406 182.315 156.659 182.315 156.937C182.315 157.418 182.088 157.822 181.683 158.177C181.253 158.531 180.621 158.733 179.761 158.783H179.533C179.508 157.924 179.635 157.215 179.913 156.659C180.191 156.103 180.646 155.825 181.253 155.825ZM181.43 163.943C180.115 163.943 179.483 162.83 179.533 160.579C179.71 160.579 179.913 160.554 180.115 160.554C180.975 160.554 181.658 160.756 182.164 161.135C182.644 161.515 182.897 161.945 182.897 162.451C182.897 162.855 182.745 163.209 182.492 163.513C182.239 163.816 181.885 163.943 181.43 163.943Z" fill="white"/>
<path d="M27.2988 102.058L29.8151 108.04L35.7498 105.334V129.832H42.8714V96.5982H38.2186L27.2988 102.058Z" fill="white"/>
<path d="M55.12 113.215C55.12 123.043 60.1051 130.165 69.8854 130.165C79.4284 130.165 84.5084 123.043 84.5084 113.215C84.5084 103.435 79.3334 96.2659 69.7905 96.2659C60.1051 96.2659 55.12 103.435 55.12 113.215ZM62.7164 113.215C62.7164 106.711 65.47 103.387 69.7905 103.387C74.4432 103.387 76.9121 106.616 76.9121 113.215C76.9121 119.767 74.6332 123.043 69.8854 123.043C65.565 123.043 62.7164 119.767 62.7164 113.215Z" fill="white"/>
<path d="M87.3433 113.215C87.3433 123.043 92.3284 130.165 102.109 130.165C111.652 130.165 116.732 123.043 116.732 113.215C116.732 103.435 111.557 96.2659 102.014 96.2659C92.3285 96.2659 87.3433 103.435 87.3433 113.215ZM94.9397 113.215C94.9397 106.711 97.6934 103.387 102.014 103.387C106.667 103.387 109.135 106.616 109.135 113.215C109.135 119.767 106.856 123.043 102.109 123.043C97.7883 123.043 94.9397 119.767 94.9397 113.215Z" fill="white"/>
<path d="M119.567 113.215C119.567 123.043 124.552 130.165 134.332 130.165C143.875 130.165 148.955 123.043 148.955 113.215C148.955 103.435 143.78 96.2659 134.237 96.2659C124.552 96.2659 119.567 103.435 119.567 113.215ZM127.163 113.215C127.163 106.711 129.917 103.387 134.237 103.387C138.89 103.387 141.359 106.616 141.359 113.215C141.359 119.767 139.08 123.043 134.332 123.043C130.012 123.043 127.163 119.767 127.163 113.215Z" fill="white"/>
<path d="M159.27 113.215C159.27 123.043 164.255 130.165 174.036 130.165C183.579 130.165 188.659 123.043 188.659 113.215C188.659 103.435 183.484 96.2659 173.941 96.2659C164.255 96.2659 159.27 103.435 159.27 113.215ZM166.867 113.215C166.867 106.711 169.62 103.387 173.941 103.387C178.593 103.387 181.062 106.616 181.062 113.215C181.062 119.767 178.783 123.043 174.036 123.043C169.715 123.043 166.867 119.767 166.867 113.215Z" fill="white"/>
<path d="M191.493 113.215C191.493 123.043 196.479 130.165 206.259 130.165C215.802 130.165 220.882 123.043 220.882 113.215C220.882 103.435 215.707 96.2659 206.164 96.2659C196.479 96.2659 191.493 103.435 191.493 113.215ZM199.09 113.215C199.09 106.711 201.844 103.387 206.164 103.387C210.817 103.387 213.286 106.616 213.286 113.215C213.286 119.767 211.007 123.043 206.259 123.043C201.939 123.043 199.09 119.767 199.09 113.215Z" fill="white"/>
<path d="M223.717 113.215C223.717 123.043 228.702 130.165 238.482 130.165C248.025 130.165 253.105 123.043 253.105 113.215C253.105 103.435 247.93 96.2659 238.387 96.2659C228.702 96.2659 223.717 103.435 223.717 113.215ZM231.313 113.215C231.313 106.711 234.067 103.387 238.387 103.387C243.04 103.387 245.509 106.616 245.509 113.215C245.509 119.767 243.23 123.043 238.482 123.043C234.162 123.043 231.313 119.767 231.313 113.215Z" fill="white"/>
</svg>
