<svg width="197" height="68" viewBox="0 0 197 68" fill="none" xmlns="http://www.w3.org/2000/svg">
<g filter="url(#filter0_d)">
<rect x="6" y="3" width="185" height="56" rx="28" fill="white"/>
</g>
<path fill-rule="evenodd" clip-rule="evenodd" d="M66.8 38.0356V25.0815H77.3151V38.0356H74.7473V27.5545H69.3678V38.0356H66.8ZM84.8355 30.5694H83.3788C82.1661 30.5694 81.5563 31.003 81.5563 31.8499C81.5563 32.6833 82.1458 33.0965 83.3247 33.0965C83.8463 33.0965 84.3477 33.0627 84.8355 32.9746V30.5694ZM87.2136 28.5911V38.0356H84.8355V34.7632C84.3748 34.8445 83.887 34.9597 83.2976 34.9733L81.326 38.0356H78.6566L81.0075 34.6413C79.7745 34.1196 79.1241 33.2253 79.1241 31.8228C79.1241 29.8987 80.5265 28.6046 83.3043 28.6046C83.3043 28.5911 87.2136 28.5911 87.2136 28.5911ZM103.284 29.3905C104.009 30.1019 104.375 31.0708 104.375 32.3377V38.0356H101.929V32.7849C101.929 31.3486 101.164 30.583 100.039 30.583C98.8059 30.583 97.959 31.4637 97.959 32.8526V38.0356H95.5132V32.8052C95.5132 31.4028 94.7679 30.5897 93.6026 30.5897C92.4034 30.5897 91.5361 31.4705 91.5361 32.8797V38.0356H89.0903V28.5911H91.4887V29.9393C92.0239 28.9502 93.1351 28.3133 94.3681 28.3268C95.547 28.3268 96.6446 28.896 97.146 29.9868C97.8438 28.9502 99.1243 28.3268 100.534 28.3268C101.651 28.3336 102.573 28.6791 103.284 29.3905ZM123.542 35.2443C124.03 34.7226 124.274 34.0857 124.274 33.3201C124.274 32.5545 124.03 31.9177 123.542 31.396C123.054 30.8743 122.431 30.6168 121.652 30.6168C120.886 30.6168 120.263 30.8743 119.775 31.396C119.287 31.9177 119.043 32.5545 119.043 33.3201C119.043 34.0789 119.287 34.7226 119.775 35.2443C120.263 35.766 120.886 36.0234 121.652 36.0234C122.431 36.0234 123.054 35.766 123.542 35.2443ZM125.412 29.7903C126.299 30.7456 126.733 31.9244 126.733 33.3066C126.733 34.6887 126.279 35.8676 125.398 36.8229C124.511 37.7714 123.4 38.2592 122.065 38.2592C120.906 38.2592 119.829 37.7511 119.097 36.8568V41.9178H116.652V28.5911H119.077V29.8309C119.856 28.8621 120.879 28.3539 122.079 28.3539C123.42 28.3539 124.531 28.835 125.412 29.7903ZM132.688 36.0099C133.434 36.0099 134.043 35.7524 134.545 35.2307C135.046 34.6955 135.31 34.0518 135.31 33.3066C135.31 32.5613 135.053 31.9177 134.545 31.4028C134.037 30.8878 133.434 30.6236 132.688 30.6236C131.943 30.6236 131.32 30.8811 130.812 31.4028C130.31 31.9244 130.066 32.5613 130.066 33.3066C130.066 34.0518 130.31 34.6955 130.812 35.2307C131.313 35.7456 131.943 36.0031 132.688 36.0099ZM129.043 29.7903C129.999 28.8214 131.211 28.3336 132.688 28.3336C134.165 28.3336 135.378 28.8214 136.333 29.7903C137.289 30.7456 137.756 31.9244 137.756 33.3066C137.756 34.709 137.289 35.8879 136.333 36.8432C135.378 37.7917 134.165 38.2795 132.688 38.2795C131.211 38.2795 129.999 37.7917 129.043 36.8432C128.088 35.8879 127.621 34.7158 127.621 33.3066C127.621 31.9177 128.088 30.7388 129.043 29.7903ZM144.647 28.5911H147.092V38.0356H144.647V34.8581C143.928 35.2646 143.156 35.4746 142.546 35.4746C141.422 35.4746 140.588 35.2646 139.836 34.7632C139.091 34.228 138.678 33.2253 138.678 31.7686V28.5978H141.11V31.5925C141.11 32.7036 141.686 33.2524 142.831 33.2524C143.474 33.2524 144.023 33.1643 144.653 32.9136L144.647 28.5911ZM155.182 38.0356L151.415 33.6792V38.0356H148.969V28.5775H151.415V32.3242L154.85 28.5911H157.939L153.725 32.961L158.183 38.0289H155.182V38.0356Z" fill="#EB2316"/>
<path fill-rule="evenodd" clip-rule="evenodd" d="M164.633 31.3823C164.132 30.8471 163.502 30.5829 162.743 30.5829C161.964 30.5829 161.341 30.8403 160.832 31.3823C160.345 31.9176 160.101 32.5612 160.101 33.3065C160.101 34.0653 160.345 34.7089 160.846 35.2442C161.347 35.7794 161.971 36.0369 162.736 36.0369C163.502 36.0369 164.125 35.7794 164.627 35.2442C165.128 34.7089 165.392 34.0653 165.392 33.3065C165.392 32.5612 165.135 31.9176 164.633 31.3823ZM165.358 28.591H167.682V38.0355H165.358V36.7889C164.545 37.7713 163.536 38.2591 162.337 38.2591C160.981 38.2591 159.857 37.7916 158.969 36.8363C158.082 35.881 157.648 34.6886 157.648 33.2658C157.648 31.843 158.102 30.6709 158.983 29.7495C159.87 28.8145 160.995 28.3471 162.33 28.3471C163.509 28.3471 164.552 28.8823 165.351 29.824L165.358 28.591ZM111.143 26.2197C111.143 25.4066 111.787 24.7969 112.62 24.7969C113.433 24.7969 114.064 25.4405 114.064 26.2197C114.064 27.0666 113.44 27.6899 112.62 27.6899C111.787 27.6966 111.143 27.0733 111.143 26.2197ZM108.129 32.3512H112.939C112.715 31.1181 111.828 30.3796 110.581 30.3796C109.341 30.3796 108.42 31.1249 108.129 32.3512ZM108.84 24.8037C109.653 24.8037 110.297 25.4473 110.297 26.2264C110.297 27.0733 109.673 27.6966 108.84 27.6966C108.007 27.6966 107.383 27.0733 107.383 26.2264C107.383 25.4405 108.02 24.8037 108.84 24.8037ZM115.229 34.1737H108.129C108.474 35.5084 109.395 36.1859 110.886 36.1859C111.909 36.1859 113.047 35.7997 113.914 35.1154L114.897 36.6602C113.704 37.7781 112.343 38.2388 110.778 38.2388C109.111 38.2388 107.844 37.751 106.956 36.8024C106.069 35.8471 105.635 34.6683 105.635 33.3065C105.635 31.8701 106.089 30.6913 107.004 29.7563C107.925 28.8213 109.104 28.3538 110.561 28.3538C111.929 28.3538 113.074 28.7874 113.962 29.6343C114.849 30.4812 115.297 31.6262 115.297 33.0964C115.31 33.4284 115.276 33.7875 115.229 34.1737Z" fill="#EB2316"/>
<path fill-rule="evenodd" clip-rule="evenodd" d="M46.9555 15C38.1546 15 31 22.1546 31 30.9555C31 39.7564 38.1546 46.911 46.9555 46.911C55.7496 46.911 62.911 39.7564 62.911 30.9555C62.911 22.1546 55.7496 15 46.9555 15Z" fill="white"/>
<path fill-rule="evenodd" clip-rule="evenodd" d="M55.0042 19.5122C53.7847 22.6356 51.0136 23.286 47.0028 23.286C46.5691 23.286 46.1423 23.2792 45.7358 23.2724C45.3361 23.2656 44.9634 23.2589 44.5908 23.2589C44.2656 23.2589 43.9336 23.2656 43.6084 23.2792C44.1707 21.8971 45.0718 20.9621 46.3456 20.393C48.1274 19.6003 50.4445 19.5935 52.4838 19.5867C53.3646 19.58 54.2183 19.5732 55.0042 19.5122Z" fill="#008F32"/>
<path fill-rule="evenodd" clip-rule="evenodd" d="M56.2512 20.515C54.449 24.4378 50.4381 24.8308 46.9963 24.8308C46.2443 24.8308 45.5193 24.8105 44.8486 24.8105L43.9814 28.198C48.4191 24.5801 54.2864 28.1642 53.6631 33.6249C53.243 37.3039 50.621 39.709 47.8432 40.4001C44.8215 41.1521 41.4746 40.0275 39.9772 36.9448C39.8214 36.6196 39.5436 35.9691 39.4352 35.6168L42.6196 34.797C42.6738 34.98 42.7686 35.1561 42.8702 35.3187C45.0044 38.7605 49.327 37.0396 49.8148 33.4691C50.3094 29.8376 45.2212 27.9067 42.8973 32.148L40.0721 30.942L40.0247 30.9217L41.3865 25.4541C41.4678 25.0679 41.7523 23.9771 41.7998 23.801C43.3377 18.1369 48.3242 18.0489 52.3148 18.0353C50.6617 17.351 48.8527 16.9648 46.9489 16.9648C39.2252 16.9648 32.965 23.2251 32.965 30.9488C32.965 38.6724 39.2252 44.9327 46.9489 44.9327C54.6726 44.9327 60.9328 38.6724 60.9328 30.9488C60.9328 26.8024 59.1238 23.076 56.2512 20.515Z" fill="#EB2316"/>
<defs>
<filter id="filter0_d" x="0" y="0" width="197" height="68" filterUnits="userSpaceOnUse" color-interpolation-filters="sRGB">
<feFlood flood-opacity="0" result="BackgroundImageFix"/>
<feColorMatrix in="SourceAlpha" type="matrix" values="0 0 0 0 0 0 0 0 0 0 0 0 0 0 0 0 0 0 127 0"/>
<feOffset dy="3"/>
<feGaussianBlur stdDeviation="3"/>
<feColorMatrix type="matrix" values="0 0 0 0 0.340009 0 0 0 0 0.134184 0 0 0 0 0.545833 0 0 0 0.36 0"/>
<feBlend mode="normal" in2="BackgroundImageFix" result="effect1_dropShadow"/>
<feBlend mode="normal" in="SourceGraphic" in2="effect1_dropShadow" result="shape"/>
</filter>
</defs>
</svg>
