<svg width="115" height="27" viewBox="0 0 115 27" fill="none" xmlns="http://www.w3.org/2000/svg">
<path fill-rule="evenodd" clip-rule="evenodd" d="M29.9685 19.2832V8.43921H38.7707V19.2832H36.6212V10.5093H32.118V19.2832H29.9685ZM45.0661 13.0331H43.8467C42.8315 13.0331 42.3211 13.3961 42.3211 14.1051C42.3211 14.8027 42.8145 15.1486 43.8014 15.1486C44.2381 15.1486 44.6578 15.1203 45.0661 15.0465V13.0331ZM47.0568 11.3771V19.2832H45.0661V16.5438C44.6804 16.6119 44.2721 16.7083 43.7787 16.7196L42.1283 19.2832H39.8937L41.8617 16.4417C40.8295 16.005 40.285 15.2564 40.285 14.0824C40.285 12.4717 41.459 11.3884 43.7843 11.3884C43.7843 11.3771 47.0568 11.3771 47.0568 11.3771ZM60.5097 12.0463C61.1165 12.6418 61.4228 13.4528 61.4228 14.5134V19.2832H59.3754V14.8877C59.3754 13.6854 58.7345 13.0445 57.793 13.0445C56.7608 13.0445 56.0518 13.7818 56.0518 14.9444V19.2832H54.0044V14.9047C54.0044 13.7307 53.3806 13.0502 52.4051 13.0502C51.4012 13.0502 50.6752 13.7875 50.6752 14.9671V19.2832H48.6278V11.3771H50.6355V12.5057C51.0836 11.6776 52.0137 11.1445 53.0459 11.1559C54.0328 11.1559 54.9516 11.6323 55.3713 12.5454C55.9554 11.6777 57.0273 11.1559 58.207 11.1559C59.1428 11.1615 59.9142 11.4508 60.5097 12.0463ZM77.4675 16.9465C77.8759 16.5098 78.0801 15.9767 78.0801 15.3358C78.0801 14.6949 77.8759 14.1618 77.4675 13.7251C77.0592 13.2884 76.5374 13.0728 75.8852 13.0728C75.2443 13.0728 74.7225 13.2884 74.3142 13.7251C73.9058 14.1618 73.7016 14.6949 73.7016 15.3358C73.7016 15.971 73.9058 16.5098 74.3142 16.9465C74.7225 17.3832 75.2443 17.5987 75.8852 17.5987C76.5374 17.5987 77.0592 17.3832 77.4675 16.9465ZM79.0329 12.3809C79.7758 13.1806 80.1388 14.1674 80.1388 15.3244C80.1388 16.4814 79.7588 17.4683 79.0215 18.268C78.2786 19.062 77.3484 19.4703 76.2311 19.4703C75.2613 19.4703 74.3595 19.045 73.747 18.2963V22.5329H71.6996V11.3771H73.73V12.4149C74.3822 11.6039 75.2386 11.1786 76.2425 11.1786C77.3654 11.1786 78.2956 11.5812 79.0329 12.3809ZM85.1241 17.5874C85.748 17.5874 86.2584 17.3719 86.6781 16.9352C87.0978 16.4871 87.319 15.9483 87.319 15.3244C87.319 14.7006 87.1035 14.1618 86.6781 13.7307C86.2527 13.2997 85.748 13.0785 85.1241 13.0785C84.5002 13.0785 83.9784 13.294 83.5531 13.7307C83.1334 14.1674 82.9292 14.7006 82.9292 15.3244C82.9292 15.9483 83.1334 16.4871 83.5531 16.9352C83.9728 17.3662 84.5002 17.5817 85.1241 17.5874ZM82.0728 12.3809C82.8725 11.5699 83.8877 11.1615 85.1241 11.1615C86.3605 11.1615 87.3757 11.5699 88.1754 12.3809C88.9751 13.1806 89.3664 14.1674 89.3664 15.3244C89.3664 16.4984 88.9751 17.4853 88.1754 18.285C87.3757 19.079 86.3605 19.4873 85.1241 19.4873C83.8877 19.4873 82.8725 19.079 82.0728 18.285C81.2731 17.4853 80.8818 16.5041 80.8818 15.3244C80.8818 14.1618 81.2731 13.1749 82.0728 12.3809ZM95.1343 11.3771H97.1818V19.2832H95.1343V16.6232C94.5331 16.9635 93.8866 17.1393 93.3762 17.1393C92.4347 17.1393 91.7371 16.9635 91.1075 16.5438C90.4837 16.0958 90.1377 15.2564 90.1377 14.037V11.3827H92.1738V13.8895C92.1738 14.8197 92.6559 15.2791 93.6144 15.2791C94.1532 15.2791 94.6125 15.2053 95.14 14.9955L95.1343 11.3771ZM103.954 19.2832L100.8 15.6364V19.2832H98.7528V11.3657H100.8V14.5021L103.676 11.3771H106.262L102.734 15.0352L106.466 19.2775H103.954V19.2832Z" fill="#EB2316"/>
<path fill-rule="evenodd" clip-rule="evenodd" d="M111.865 13.7138C111.445 13.2657 110.918 13.0445 110.283 13.0445C109.631 13.0445 109.109 13.26 108.683 13.7138C108.275 14.1618 108.071 14.7006 108.071 15.3245C108.071 15.9597 108.275 16.4985 108.695 16.9465C109.114 17.3946 109.636 17.6101 110.277 17.6101C110.918 17.6101 111.44 17.3946 111.86 16.9465C112.279 16.4985 112.5 15.9597 112.5 15.3245C112.5 14.7006 112.285 14.1618 111.865 13.7138ZM112.472 11.3771H114.417V19.2832H112.472V18.2396C111.791 19.062 110.946 19.4704 109.943 19.4704C108.808 19.4704 107.867 19.079 107.124 18.2793C106.381 17.4797 106.018 16.4815 106.018 15.2905C106.018 14.0994 106.398 13.1183 107.135 12.3469C107.878 11.5643 108.82 11.1729 109.937 11.1729C110.924 11.1729 111.797 11.621 112.466 12.4093L112.472 11.3771ZM67.0885 9.39207C67.0885 8.71149 67.6273 8.20105 68.3249 8.20105C69.0055 8.20105 69.5329 8.73984 69.5329 9.39207C69.5329 10.101 69.0111 10.6228 68.3249 10.6228C67.6273 10.6285 67.0885 10.1067 67.0885 9.39207ZM64.5647 14.5248H68.5914C68.4043 13.4926 67.6613 12.8744 66.6177 12.8744C65.5799 12.8744 64.8085 13.4983 64.5647 14.5248ZM65.1602 8.20672C65.8408 8.20672 66.3795 8.74552 66.3795 9.39774C66.3795 10.1067 65.8578 10.6285 65.1602 10.6285C64.4626 10.6285 63.9408 10.1067 63.9408 9.39774C63.9408 8.73984 64.4739 8.20672 65.1602 8.20672ZM70.5084 16.0504H64.5647C64.8539 17.1677 65.6252 17.7349 66.873 17.7349C67.7294 17.7349 68.6822 17.4116 69.4081 16.8388L70.2305 18.1319C69.2323 19.0677 68.0923 19.4534 66.7822 19.4534C65.387 19.4534 64.3265 19.045 63.5835 18.251C62.8405 17.4513 62.4775 16.4645 62.4775 15.3245C62.4775 14.1221 62.8575 13.1353 63.6232 12.3526C64.3945 11.5699 65.3814 11.1786 66.6007 11.1786C67.7464 11.1786 68.7049 11.5416 69.4478 12.2505C70.1908 12.9595 70.5651 13.9179 70.5651 15.1487C70.5765 15.4266 70.5481 15.7272 70.5084 16.0504Z" fill="#EB2316"/>
<path fill-rule="evenodd" clip-rule="evenodd" d="M13.3564 0C5.98913 0 0 5.98913 0 13.3564C0 20.7238 5.98913 26.7129 13.3564 26.7129C20.7181 26.7129 26.7129 20.7238 26.7129 13.3564C26.7129 5.98913 20.7181 0 13.3564 0Z" fill="white"/>
<path fill-rule="evenodd" clip-rule="evenodd" d="M20.0939 3.77722C19.0731 6.39179 16.7534 6.93626 13.3959 6.93626C13.0329 6.93626 12.6756 6.93059 12.3353 6.92492C12.0007 6.91925 11.6887 6.91357 11.3768 6.91357C11.1046 6.91357 10.8267 6.91925 10.5544 6.93059C11.0252 5.7736 11.7795 4.99093 12.8457 4.51452C14.3374 3.85095 16.277 3.84528 17.9841 3.83961C18.7214 3.83394 19.4361 3.82827 20.0939 3.77722Z" fill="#008F32"/>
<path fill-rule="evenodd" clip-rule="evenodd" d="M21.138 4.61665C19.6294 7.90047 16.2719 8.22942 13.3907 8.22942C12.7612 8.22942 12.1544 8.2124 11.5929 8.2124L10.8669 11.0482C14.5818 8.01957 19.4933 11.0198 18.9715 15.5911C18.6199 18.6707 16.425 20.6841 14.0997 21.2626C11.5702 21.8921 8.76845 20.9506 7.51505 18.3701C7.3846 18.0979 7.15207 17.5534 7.06133 17.2585L9.72694 16.5722C9.77231 16.7254 9.85172 16.8728 9.93679 17.0089C11.7233 19.8901 15.3418 18.4495 15.7501 15.4606C16.1641 12.4207 11.9048 10.8043 9.95947 14.3547L7.59445 13.3451L7.55475 13.3281L8.69472 8.7512C8.76278 8.42792 9.00099 7.5148 9.04069 7.36734C10.3281 2.62595 14.5024 2.55222 17.8429 2.54088C16.459 1.96805 14.9447 1.64478 13.351 1.64478C6.88551 1.64478 1.64502 6.88526 1.64502 13.3508C1.64502 19.8163 6.88551 25.0568 13.351 25.0568C19.8166 25.0568 25.0571 19.8163 25.0571 13.3508C25.0571 9.87983 23.5428 6.76049 21.138 4.61665Z" fill="#EB2316"/>
</svg>
