<svg width="148" height="134" viewBox="0 0 148 134" fill="none" xmlns="http://www.w3.org/2000/svg">
<g filter="url(#filter0_d)">
<path d="M105.866 0C103.549 0.00333942 101.234 0.175653 98.9413 0.515569C90.7222 1.7194 83.0713 6.25691 73.3881 11.9882L72.8475 12.3086L72.3069 11.9882C62.6212 6.25691 54.9727 1.7194 46.7487 0.515569C44.455 0.175655 42.1397 0.00334208 39.821 0C28.7037 0 18.5901 4.17962 11.3371 11.763C3.47338 20.0046 -0.533543 31.6174 0.0571088 44.4666C0.602711 56.3597 4.50452 67.6222 11.9502 78.8971C19.5586 90.4098 30.8511 101.893 46.4884 114.026C52.2222 118.478 58.9071 123.489 65.0088 126.878C65.7822 127.308 66.488 127.766 67.1687 128.209C69.0258 129.415 70.6275 130.462 72.865 130.462C75.1025 130.462 76.7042 129.418 78.5613 128.209C79.242 127.766 79.9453 127.308 80.7212 126.878C86.8179 123.489 93.5003 118.478 99.2416 114.026C114.864 101.893 126.159 90.4023 133.78 78.8971C141.238 67.6222 145.127 56.3597 145.673 44.4666C146.264 31.6174 142.257 20.0071 134.39 11.773C127.105 4.18212 116.989 0 105.866 0Z" fill="#644F9A"/>
</g>
<defs>
<filter id="filter0_d" x="0" y="0" width="147.73" height="133.462" filterUnits="userSpaceOnUse" color-interpolation-filters="sRGB">
<feFlood flood-opacity="0" result="BackgroundImageFix"/>
<feColorMatrix in="SourceAlpha" type="matrix" values="0 0 0 0 0 0 0 0 0 0 0 0 0 0 0 0 0 0 127 0"/>
<feOffset dx="2" dy="3"/>
<feColorMatrix type="matrix" values="0 0 0 0 0.231373 0 0 0 0 0.172549 0 0 0 0 0.447059 0 0 0 1 0"/>
<feBlend mode="normal" in2="BackgroundImageFix" result="effect1_dropShadow"/>
<feBlend mode="normal" in="SourceGraphic" in2="effect1_dropShadow" result="shape"/>
</filter>
</defs>
</svg>
