<svg width="150" height="135" viewBox="0 0 150 135" fill="none" xmlns="http://www.w3.org/2000/svg">
<path d="M109.866 4C107.549 4.00334 105.234 4.17565 102.941 4.51557C94.7222 5.7194 87.0713 10.2569 77.3881 15.9882L76.8475 16.3086L76.3069 15.9882C66.6212 10.2569 58.9727 5.7194 50.7487 4.51557C48.455 4.17565 46.1397 4.00334 43.821 4C32.7037 4 22.5901 8.17962 15.3371 15.763C7.47338 24.0046 3.46646 35.6174 4.05711 48.4666C4.60271 60.3597 8.50452 71.6222 15.9502 82.8971C23.5586 94.4098 34.8511 105.893 50.4884 118.026C56.2222 122.478 62.9071 127.489 69.0088 130.878C69.7822 131.308 70.488 131.766 71.1687 132.209C73.0258 133.415 74.6275 134.462 76.865 134.462C79.1025 134.462 80.7042 133.418 82.5613 132.209C83.242 131.766 83.9453 131.308 84.7212 130.878C90.8179 127.489 97.5003 122.478 103.242 118.026C118.864 105.893 130.159 94.4023 137.78 82.8971C145.238 71.6222 149.127 60.3597 149.673 48.4666C150.264 35.6174 146.257 24.0071 138.39 15.773C131.105 8.18212 120.989 4 109.866 4Z" fill="#1EB1FB"/>
<path d="M105.866 0C103.549 0.00333942 101.234 0.175653 98.9413 0.515569C90.7222 1.7194 83.0713 6.25691 73.3881 11.9882L72.8475 12.3086L72.3069 11.9882C62.6212 6.25691 54.9727 1.7194 46.7487 0.515569C44.455 0.175655 42.1397 0.00334208 39.821 0C28.7037 0 18.5901 4.17962 11.3371 11.763C3.47338 20.0046 -0.533543 31.6174 0.0571088 44.4666C0.602711 56.3597 4.50452 67.6222 11.9502 78.8971C19.5586 90.4098 30.8511 101.893 46.4884 114.026C52.2222 118.478 58.9071 123.489 65.0088 126.878C65.7822 127.308 66.488 127.766 67.1687 128.209C69.0258 129.415 70.6275 130.462 72.865 130.462C75.1025 130.462 76.7042 129.418 78.5613 128.209C79.242 127.766 79.9453 127.308 80.7212 126.878C86.8179 123.489 93.5003 118.478 99.2416 114.026C114.864 101.893 126.159 90.4023 133.78 78.8971C141.238 67.6222 145.127 56.3597 145.673 44.4666C146.264 31.6174 142.257 20.0071 134.39 11.773C127.105 4.18212 116.989 0 105.866 0Z" fill="#7AD2FF"/>
</svg>
