<svg width="70" height="162" viewBox="0 0 70 162" fill="none" xmlns="http://www.w3.org/2000/svg">
<g clip-path="url(#clip0)">
<path fill-rule="evenodd" clip-rule="evenodd" d="M47.8771 23.7231C47.8771 23.7231 48.496 13.5927 56.8564 10.6728C66.7081 7.2328 66.5913 18.5386 59.5613 21.4428C54.8169 23.4037 47.8771 23.7231 47.8771 23.7231Z" fill="white"/>
<path fill-rule="evenodd" clip-rule="evenodd" d="M47.816 24.4311C47.816 24.4311 56.1559 19.2425 55.0317 10.3707C53.7106 -0.0808781 44.1524 5.18774 44.7147 12.8531C45.2226 16.838 46.2659 20.733 47.816 24.4311Z" fill="white"/>
</g>
<path fill-rule="evenodd" clip-rule="evenodd" d="M16.4504 80.378C16.4504 80.378 10.5786 64.7351 21.1849 54.7325C33.6834 42.9468 41.0992 60.0193 32.4824 69.1051C26.6674 75.2382 16.4504 80.378 16.4504 80.378Z" fill="white"/>
<path fill-rule="evenodd" clip-rule="evenodd" d="M16.8347 81.4865C16.8347 81.4865 25.8867 68.0875 18.2399 55.5067C9.23629 40.6837 -1.59325 55.021 4.39881 66.1656C7.83787 71.8143 12.0215 76.9686 16.8347 81.4865Z" fill="white"/>
<g clip-path="url(#clip1)">
<path fill-rule="evenodd" clip-rule="evenodd" d="M22.3258 127.704C22.3258 127.704 27.0298 118.711 35.8536 119.462C46.2509 120.348 41.5249 130.619 33.9219 130.397C28.7904 130.248 22.3258 127.704 22.3258 127.704Z" fill="white"/>
<path fill-rule="evenodd" clip-rule="evenodd" d="M21.9803 128.326C21.9803 128.326 31.7123 126.998 34.3111 118.441C37.3757 108.362 26.4991 109.265 23.8803 116.491C22.7157 120.336 22.0765 124.317 21.9803 128.326Z" fill="white"/>
</g>
<path fill-rule="evenodd" clip-rule="evenodd" d="M65.7343 158.215C65.7343 158.215 60.022 156.923 59.1338 151.891C58.0876 145.961 64.516 147.076 65.5185 151.349C66.1956 154.233 65.7343 158.215 65.7343 158.215Z" fill="white"/>
<path fill-rule="evenodd" clip-rule="evenodd" d="M66.1333 158.315C66.1333 158.315 63.9511 153.085 58.794 152.903C52.7189 152.686 54.8338 158.618 59.2517 159.009C61.5683 159.089 63.8834 158.855 66.1333 158.315Z" fill="white"/>
<defs>
<clipPath id="clip0">
<rect width="20.1976" height="20.1976" fill="white" transform="translate(45.9861 3.66382) rotate(9.4676)"/>
</clipPath>
<clipPath id="clip1">
<rect width="20.1976" height="20.1976" fill="white" transform="translate(28.7954 108.623) rotate(33.5836)"/>
</clipPath>
</defs>
</svg>
