<svg width="472" height="116" viewBox="0 0 472 116" fill="none" xmlns="http://www.w3.org/2000/svg">
<g clip-path="url(#clip0)">
<path fill-rule="evenodd" clip-rule="evenodd" d="M325.176 95.4055C325.176 95.4055 336.963 83.3637 350.63 88.7855C366.733 95.1752 354.299 109.238 342.319 105.243C334.233 102.547 325.176 95.4055 325.176 95.4055Z" fill="#644F9A"/>
<path fill-rule="evenodd" clip-rule="evenodd" d="M324.328 96.231C324.328 96.231 340.434 98.783 348.665 86.4263C358.367 71.8729 340.644 68.0972 333.019 78.329C329.325 83.8823 326.401 89.9048 324.328 96.231Z" fill="#644F9A"/>
</g>
<g clip-path="url(#clip1)">
<path fill-rule="evenodd" clip-rule="evenodd" d="M5.62564 55.3602C5.62564 55.3602 8.2349 45.3955 17.1336 44.1331C27.6193 42.6462 25.2787 53.88 17.7079 55.3886C12.5982 56.4075 5.62564 55.3602 5.62564 55.3602Z" fill="#644F9A"/>
<path fill-rule="evenodd" clip-rule="evenodd" d="M5.42526 56.0559C5.42526 56.0559 14.7498 52.5306 15.3759 43.476C16.1167 32.8098 5.56348 36.1752 4.61519 43.9179C4.3369 47.9854 4.60942 52.0688 5.42526 56.0559Z" fill="#644F9A"/>
</g>
<g clip-path="url(#clip2)">
<path fill-rule="evenodd" clip-rule="evenodd" d="M447.619 18.7297C447.619 18.7297 453.364 10.1799 462.182 11.9181C472.573 13.9669 466.664 23.8035 459.018 22.735C453.858 22.0146 447.619 18.7297 447.619 18.7297Z" fill="#644F9A"/>
<path fill-rule="evenodd" clip-rule="evenodd" d="M447.201 19.3206C447.201 19.3206 457.166 19.0622 460.739 10.7188C464.951 0.891425 453.878 0.594047 450.433 7.59275C448.831 11.3418 447.743 15.2872 447.201 19.3206Z" fill="#644F9A"/>
</g>
<g clip-path="url(#clip3)">
<path fill-rule="evenodd" clip-rule="evenodd" d="M151.636 58.3824C151.636 58.3824 151.198 48.0911 159.331 44.266C168.915 39.7594 169.984 51.1846 163.192 54.8542C158.608 57.3316 151.636 58.3824 151.636 58.3824Z" fill="#644F9A"/>
<path fill-rule="evenodd" clip-rule="evenodd" d="M151.649 59.1064C151.649 59.1064 159.523 52.9932 157.457 44.1553C155.027 33.7434 145.931 40.0652 147.303 47.7442C148.234 51.7135 149.696 55.5359 151.649 59.1064Z" fill="#644F9A"/>
</g>
<g clip-path="url(#clip4)">
<path fill-rule="evenodd" clip-rule="evenodd" d="M73.6957 61.3542C73.6957 61.3542 77.2613 44.7755 91.8048 42.0511C108.942 38.8419 105.911 57.4883 93.5692 60.5209C85.2396 62.5689 73.6957 61.3542 73.6957 61.3542Z" fill="#644F9A"/>
<path fill-rule="evenodd" clip-rule="evenodd" d="M73.4161 62.5118C73.4161 62.5118 88.4951 56.0346 88.8654 41.0972C89.307 23.5009 72.1954 29.8044 71.1997 42.6078C71.0383 49.3178 71.7839 56.0138 73.4161 62.5118Z" fill="#644F9A"/>
</g>
<g clip-path="url(#clip5)">
<path fill-rule="evenodd" clip-rule="evenodd" d="M389.427 67.1152C389.427 67.1152 394.184 44.998 413.586 41.3634C436.448 37.0822 432.404 61.9578 415.94 66.0035C404.827 68.7357 389.427 67.1152 389.427 67.1152Z" fill="#644F9A"/>
<path fill-rule="evenodd" clip-rule="evenodd" d="M389.054 68.6585C389.054 68.6585 409.17 60.0174 409.665 40.0899C410.254 16.6151 387.425 25.0245 386.097 42.1051C385.882 51.0567 386.877 59.9897 389.054 68.6585Z" fill="#644F9A"/>
</g>
<g clip-path="url(#clip6)">
<path fill-rule="evenodd" clip-rule="evenodd" d="M229.484 109.495C229.484 109.495 227.093 86.3641 244.9 76.6357C265.882 65.1738 269.848 90.7742 255.044 99.9694C245.052 106.177 229.484 109.495 229.484 109.495Z" fill="#644F9A"/>
<path fill-rule="evenodd" clip-rule="evenodd" d="M229.611 111.12C229.611 111.12 246.522 96.2707 240.661 76.6365C233.765 53.5051 214.13 68.9909 218.268 86.1081C220.907 94.9258 224.723 103.34 229.611 111.12Z" fill="#644F9A"/>
</g>
<defs>
<clipPath id="clip0">
<rect width="33.5332" height="33.5332" fill="white" transform="translate(344.604 68.1743) rotate(50.3587)"/>
</clipPath>
<clipPath id="clip1">
<rect width="20.4989" height="20.4989" fill="white" transform="translate(7.68924 35.0159) rotate(20.645)"/>
</clipPath>
<clipPath id="clip2">
<rect width="20.4989" height="20.4989" fill="white" transform="translate(456.267 0.199463) rotate(39.8703)"/>
</clipPath>
<clipPath id="clip3">
<rect width="20.4989" height="20.4989" fill="white" transform="translate(147.621 38.3316) rotate(3.53152)"/>
</clipPath>
<clipPath id="clip4">
<rect width="33.747" height="33.747" fill="white" transform="translate(75.6082 27.744) rotate(18.1092)"/>
</clipPath>
<clipPath id="clip5">
<rect width="45.0209" height="45.0209" fill="white" transform="translate(391.978 22.2767) rotate(18.1092)"/>
</clipPath>
<clipPath id="clip6">
<rect width="46.2778" height="46.2778" fill="white" transform="translate(217.705 64.8585) rotate(0.0697554)"/>
</clipPath>
</defs>
</svg>
