<svg width="88" height="38" viewBox="0 0 88 38" fill="none" xmlns="http://www.w3.org/2000/svg">
<g clip-path="url(#clip0)">
<path fill-rule="evenodd" clip-rule="evenodd" d="M68.8962 28.3345C68.8962 28.3345 74.2351 22.8801 80.4254 25.336C87.7195 28.2302 82.0874 34.6 76.6612 32.7903C72.9987 31.5694 68.8962 28.3345 68.8962 28.3345Z" fill="#644F9A"/>
<path fill-rule="evenodd" clip-rule="evenodd" d="M68.5119 28.7085C68.5119 28.7085 75.8073 29.8644 79.5358 24.2674C83.9299 17.6754 75.9025 15.9652 72.4485 20.5997C70.7755 23.1151 69.4512 25.843 68.5119 28.7085Z" fill="#644F9A"/>
</g>
<g clip-path="url(#clip1)">
<path fill-rule="evenodd" clip-rule="evenodd" d="M2.39047 23.0821C2.39047 23.0821 2.19184 18.4206 5.87579 16.688C10.2169 14.6467 10.701 19.8218 7.62464 21.484C5.54848 22.6061 2.39047 23.0821 2.39047 23.0821Z" fill="#644F9A"/>
<path fill-rule="evenodd" clip-rule="evenodd" d="M2.3961 23.4092C2.3961 23.4092 5.96278 20.6402 5.02697 16.6371C3.92599 11.921 -0.193937 14.7844 0.427572 18.2626C0.849251 20.0605 1.5115 21.7919 2.3961 23.4092Z" fill="#644F9A"/>
</g>
<g clip-path="url(#clip2)">
<path fill-rule="evenodd" clip-rule="evenodd" d="M26.797 21.2229C26.797 21.2229 30.1464 11.2364 39.3123 10.5622C50.1129 9.76845 46.9501 21.0683 39.1219 22.0852C33.8385 22.7724 26.797 21.2229 26.797 21.2229Z" fill="#644F9A"/>
<path fill-rule="evenodd" clip-rule="evenodd" d="M26.5446 21.9167C26.5446 21.9167 36.3011 18.9631 37.5645 9.76838C39.056 -1.06266 28.0569 1.64291 26.5554 9.47705C25.9909 13.6077 25.9873 17.7926 26.5446 21.9167Z" fill="#644F9A"/>
</g>
<defs>
<clipPath id="clip0">
<rect width="15.189" height="15.189" fill="white" transform="translate(77.6963 16) rotate(50.3587)"/>
</clipPath>
<clipPath id="clip1">
<rect width="9.28503" height="9.28503" fill="white" transform="translate(0.57196 14) rotate(3.53152)"/>
</clipPath>
<clipPath id="clip2">
<rect width="20.9617" height="20.9617" fill="white" transform="translate(30.3058 0.608887) rotate(24.5126)"/>
</clipPath>
</defs>
</svg>
