<svg width="274" height="114" viewBox="0 0 274 114" fill="none" xmlns="http://www.w3.org/2000/svg">
<g filter="url(#filter0_d)">
<path d="M58.1933 55.442C58.1933 53.2328 59.9842 51.442 62.1933 51.442H114.193C116.402 51.442 118.193 53.2328 118.193 55.442V89.442C118.193 91.6511 116.402 93.442 114.193 93.442H62.1933C59.9842 93.442 58.1933 91.6511 58.1933 89.442V55.442Z" fill="white"/>
<path d="M121.193 64.442H56.008C52.4224 64.442 50.6479 60.0878 53.212 57.5815L85.3791 26.1395C86.919 24.6343 89.3742 24.6183 90.9336 26.1033L123.951 57.5453C126.566 60.0354 124.804 64.442 121.193 64.442Z" fill="white"/>
<mask id="mask0" mask-type="alpha" maskUnits="userSpaceOnUse" x="32" y="59" width="19" height="35">
<rect x="32" y="59" width="18.8356" height="34.375" fill="white"/>
</mask>
<g mask="url(#mask0)">
<path d="M35.6698 74.7474C35.6698 73.7072 36.5131 72.8639 37.5533 72.8639H62.0396C63.0799 72.8639 63.9232 73.7072 63.9232 74.7474V90.7577C63.9232 91.798 63.0799 92.6413 62.0396 92.6413H37.5533C36.5131 92.6413 35.6698 91.798 35.6698 90.7577V74.7474Z" fill="white"/>
<path d="M65.3355 78.9854H34.6407C32.9523 78.9854 32.1167 76.9351 33.3241 75.7549L48.4713 60.9492C49.1964 60.2404 50.3525 60.2329 51.0869 60.9321L66.6345 75.7378C67.8658 76.9104 67.0359 78.9854 65.3355 78.9854Z" fill="white"/>
</g>
<mask id="mask1" mask-type="alpha" maskUnits="userSpaceOnUse" x="20" y="77" width="9" height="17">
<rect x="20" y="77" width="8.9726" height="16.375" fill="white"/>
</mask>
<g mask="url(#mask1)">
<path d="M21.7481 84.5014C21.7481 84.0059 22.1499 83.6042 22.6454 83.6042H34.3098C34.8053 83.6042 35.207 84.0059 35.207 84.5014V92.1282C35.207 92.6237 34.8053 93.0254 34.3098 93.0254H22.6454C22.1499 93.0254 21.7481 92.6237 21.7481 92.1282V84.5014Z" fill="white"/>
<path d="M35.8798 86.5203H21.2579C20.4536 86.5203 20.0556 85.5436 20.6308 84.9814L27.8463 77.9285C28.1918 77.5908 28.7425 77.5872 29.0923 77.9203L36.4986 84.9732C37.0852 85.5318 36.6898 86.5203 35.8798 86.5203Z" fill="white"/>
</g>
<path d="M125.708 20C125.343 20.0005 124.977 20.0277 124.616 20.0814C123.318 20.2714 122.111 20.9875 120.583 21.8921L120.497 21.9426L120.412 21.8921C118.883 20.9875 117.676 20.2714 116.378 20.0814C116.016 20.0277 115.651 20.0005 115.285 20C113.53 20 111.934 20.6597 110.789 21.8565C109.548 23.1572 108.916 24.9901 109.009 27.018C109.095 28.895 109.711 30.6725 110.886 32.452C112.087 34.269 113.869 36.0813 116.337 37.9963C117.242 38.699 118.297 39.4898 119.26 40.0246C119.382 40.0925 119.494 40.1648 119.601 40.2347C119.894 40.4251 120.147 40.5902 120.5 40.5902C120.853 40.5902 121.106 40.4255 121.399 40.2347C121.506 40.1648 121.617 40.0925 121.74 40.0246C122.702 39.4898 123.757 38.699 124.663 37.9963C127.129 36.0813 128.911 34.2678 130.114 32.452C131.291 30.6725 131.905 28.895 131.991 27.018C132.084 24.9901 131.452 23.1576 130.21 21.8581C129.06 20.66 127.464 20 125.708 20Z" fill="white"/>
</g>
<g filter="url(#filter1_d)">
<path d="M153.266 20.533C152.132 20.533 151.214 20.884 150.539 21.586C149.864 22.288 149.54 22.855 149.54 23.287C149.54 23.476 149.621 23.611 149.81 23.719C150.242 24.043 150.539 24.394 150.755 24.826C150.944 25.258 151.052 25.852 151.052 26.635C151.052 35.437 151.079 39.865 151.079 39.865C151.079 39.946 151.106 40 151.187 40C152.105 40.189 152.807 40.27 153.239 40.27C153.941 40.27 154.67 40.189 155.426 40L155.534 39.919L162.311 29.848L162.392 29.902C162.284 30.442 162.257 31.738 162.257 33.79L162.23 39.865C162.23 39.946 162.257 40 162.338 40C163.256 40.189 164.228 40.27 165.227 40.27C166.415 40.27 167.387 40.189 168.143 40C168.224 40 168.278 39.946 168.278 39.838V21.235C168.224 21.181 168.17 21.127 168.116 21.1C167.441 20.938 166.739 20.83 166.01 20.83C165.2 20.83 164.552 20.938 164.012 21.1C163.958 21.127 163.904 21.154 163.904 21.208L157.019 31.279L156.938 31.252C157.019 30.766 157.073 29.227 157.073 26.689V24.097C157.073 22.936 156.722 22.045 156.02 21.451C155.318 20.857 154.4 20.533 153.266 20.533ZM180.211 32.899V32.791C180.967 32.629 181.615 32.278 182.155 31.738C182.695 31.198 182.965 30.55 182.965 29.794C182.965 28.714 182.398 27.823 181.291 27.121C180.184 26.419 178.807 26.041 177.16 26.041C175 26.041 173.245 26.581 171.922 27.661C170.599 28.741 169.951 29.74 169.951 30.658C169.951 30.955 170.059 31.09 170.275 31.09C170.41 31.09 170.707 30.982 171.166 30.766C171.598 30.55 172.192 30.334 172.894 30.118C173.596 29.902 174.325 29.767 175.081 29.767C175.594 29.767 176.026 29.848 176.377 29.956C176.728 30.091 176.971 30.253 177.133 30.442C177.268 30.658 177.349 30.82 177.403 30.955C177.457 31.117 177.484 31.252 177.484 31.387C177.484 31.738 177.376 32.062 177.187 32.386C176.242 32.089 175.513 32.035 175.027 32.251C174.514 32.467 174.271 32.818 174.271 33.304C174.271 33.763 174.514 34.087 175.054 34.303C175.567 34.519 176.323 34.411 177.322 34.033L177.457 34.222C177.511 34.384 177.592 34.6 177.673 34.87C177.754 35.14 177.808 35.437 177.808 35.707C177.808 36.193 177.646 36.625 177.349 37.003C177.025 37.381 176.62 37.57 176.08 37.57C175.594 37.57 175.216 37.435 174.892 37.138C174.568 36.868 174.433 36.463 174.433 35.977C174.433 35.869 174.433 35.707 174.487 35.491C174.514 35.275 174.541 35.14 174.541 35.059C174.541 34.897 174.298 34.681 173.812 34.465C173.326 34.249 172.84 34.114 172.354 34.114C171.517 34.114 170.869 34.357 170.41 34.816C169.924 35.302 169.708 35.869 169.708 36.544C169.708 37.813 170.356 38.785 171.679 39.487C172.975 40.189 174.487 40.513 176.188 40.513C177.43 40.513 178.564 40.378 179.617 40.054C180.67 39.757 181.561 39.271 182.263 38.596C182.965 37.921 183.316 37.111 183.316 36.139C183.316 35.275 183.019 34.573 182.425 34.006C181.831 33.439 181.102 33.061 180.211 32.899ZM193.314 39.352C193.395 39.622 193.53 39.811 193.692 39.892C193.854 40 194.097 40.027 194.421 40.027C195.015 40.027 195.393 39.811 195.555 39.352C195.582 39.244 195.771 38.758 196.122 37.84C196.446 36.922 196.851 35.869 197.337 34.627C197.796 33.412 198.174 32.44 198.444 31.738H198.525L198.471 37.192C198.471 38.272 198.795 39.082 199.443 39.676C200.091 40.27 200.928 40.54 201.954 40.54C202.926 40.54 203.736 40.216 204.384 39.568C205.032 38.92 205.356 38.407 205.356 38.002C205.356 37.84 205.275 37.705 205.113 37.597C204.357 37.111 203.979 36.22 203.979 34.951V26.689C203.979 26.635 203.952 26.581 203.925 26.554C203.871 26.554 203.736 26.527 203.493 26.473C203.25 26.419 202.899 26.365 202.44 26.311C201.954 26.257 201.495 26.23 201.063 26.23C199.956 26.23 199.038 26.338 198.309 26.527C198.282 26.527 198.255 26.554 198.228 26.581C198.201 26.635 198.093 26.932 197.877 27.526C197.661 28.12 197.418 28.822 197.121 29.632C196.797 30.469 196.554 31.144 196.338 31.657H196.257C195.555 29.821 194.961 28.552 194.502 27.85C193.611 26.608 192.261 25.96 190.452 25.96C189.075 25.96 187.914 26.311 186.969 26.986C186.024 27.688 185.565 28.282 185.565 28.768C185.565 29.092 185.808 29.254 186.321 29.254C186.402 29.254 186.591 29.254 186.861 29.227C187.131 29.227 187.32 29.227 187.455 29.227C187.401 33.142 186.834 35.086 185.7 35.086C185.538 35.086 185.376 35.059 185.214 34.951C185.052 34.843 184.944 34.789 184.89 34.789C184.674 34.789 184.404 35.086 184.107 35.626C183.81 36.193 183.675 36.814 183.675 37.462C183.675 38.38 183.945 39.136 184.485 39.703C185.025 40.27 185.754 40.54 186.672 40.54C187.32 40.54 187.86 40.405 188.346 40.135C188.832 39.865 189.183 39.46 189.453 38.92C189.723 38.38 189.912 37.84 190.074 37.246C190.236 36.652 190.317 35.977 190.344 35.167C190.344 34.357 190.344 33.655 190.317 33.034C190.29 32.44 190.236 31.738 190.182 30.928H190.29C190.668 31.657 191.019 32.521 191.397 33.493C191.748 34.492 192.126 35.68 192.558 37.03C192.99 38.38 193.233 39.163 193.314 39.352ZM213.469 28.93C213.955 28.93 214.306 29.065 214.549 29.308C214.792 29.551 214.927 29.848 214.927 30.226C214.927 30.739 214.657 31.198 214.144 31.603C213.631 32.035 212.929 32.224 212.038 32.224C211.822 32.224 211.606 32.197 211.417 32.197C211.39 31.279 211.552 30.523 211.93 29.875C212.308 29.254 212.821 28.93 213.469 28.93ZM219.571 35.626C219.463 35.626 219.247 35.734 218.869 35.95C218.491 36.166 217.978 36.355 217.33 36.571C216.655 36.787 215.926 36.868 215.116 36.868C214.252 36.868 213.469 36.679 212.767 36.247C212.065 35.815 211.687 35.248 211.579 34.492C212.146 34.708 213.064 34.816 214.306 34.816C214.954 34.816 215.575 34.762 216.223 34.6C216.871 34.465 217.492 34.249 218.086 33.925C218.68 33.601 219.139 33.169 219.517 32.575C219.895 31.981 220.084 31.306 220.084 30.523C220.084 29.389 219.517 28.363 218.437 27.445C217.33 26.527 215.764 26.068 213.766 26.068C211.417 26.068 209.554 26.743 208.177 28.066C206.773 29.416 206.098 31.144 206.098 33.277C206.098 35.464 206.773 37.192 208.177 38.488C209.581 39.784 211.417 40.432 213.712 40.432C214.684 40.432 215.575 40.27 216.385 39.919C217.195 39.595 217.843 39.163 218.329 38.677C218.788 38.191 219.139 37.732 219.409 37.246C219.679 36.76 219.814 36.355 219.814 36.004C219.814 35.761 219.733 35.626 219.571 35.626ZM230.017 37.138C230.017 38.218 230.314 39.028 230.962 39.622C231.583 40.216 232.393 40.486 233.419 40.486C234.391 40.486 235.201 40.162 235.849 39.514C236.497 38.866 236.821 38.353 236.821 37.948C236.821 37.786 236.74 37.651 236.578 37.543C235.822 37.057 235.444 36.166 235.444 34.897V26.635C235.444 26.581 235.417 26.527 235.363 26.5C234.58 26.338 233.689 26.23 232.717 26.23C231.826 26.23 230.962 26.338 230.125 26.5C230.044 26.527 230.017 26.581 230.017 26.635V31.387H227.29V29.308C227.29 28.336 226.966 27.526 226.318 26.932C225.67 26.338 224.86 26.041 223.888 26.041C222.889 26.041 222.079 26.365 221.431 27.013C220.783 27.661 220.486 28.174 220.486 28.552C220.486 28.714 220.567 28.849 220.729 28.957C221.107 29.227 221.35 29.551 221.512 29.929C221.674 30.307 221.755 30.874 221.755 31.576C221.755 36.814 221.701 39.595 221.647 39.865C221.647 39.946 221.674 40 221.755 40C222.673 40.189 223.591 40.27 224.455 40.27C225.508 40.27 226.399 40.189 227.155 40C227.236 40 227.29 39.946 227.29 39.838V34.249H230.017V37.138ZM252.269 26.662C252.269 26.608 252.242 26.554 252.188 26.5C251.324 26.338 250.46 26.257 249.596 26.257C248.651 26.257 247.76 26.365 246.896 26.527L246.788 26.689V33.736C246.788 34.681 246.599 35.437 246.221 35.977C245.843 36.517 245.465 36.787 245.033 36.787C244.736 36.787 244.493 36.652 244.331 36.382C244.142 36.112 244.061 35.734 244.061 35.194V29.443C244.061 28.39 243.71 27.553 243.062 26.959C242.414 26.365 241.577 26.068 240.578 26.068C239.579 26.068 238.769 26.392 238.148 27.04C237.5 27.688 237.203 28.228 237.203 28.633C237.203 28.849 237.284 28.984 237.446 29.065C238.202 29.578 238.607 30.415 238.607 31.576V36.463C238.607 37.759 238.958 38.758 239.66 39.433C240.362 40.135 241.253 40.459 242.36 40.459C243.224 40.459 244.088 40.243 244.898 39.784C245.708 39.325 246.356 38.569 246.842 37.489L246.923 37.516C246.95 37.786 246.977 37.975 247.031 38.083C247.193 38.839 247.544 39.406 248.084 39.838C248.597 40.27 249.272 40.486 250.109 40.486C251.108 40.486 251.918 40.162 252.566 39.514C253.187 38.866 253.511 38.353 253.511 37.948C253.511 37.786 253.43 37.651 253.268 37.543C252.566 37.111 252.242 36.247 252.242 34.951C252.242 29.497 252.242 26.716 252.269 26.662ZM159.26 46.56C156.236 46.56 153.86 47.532 152.132 49.449C150.404 51.366 149.54 53.742 149.54 56.55C149.54 59.385 150.404 61.761 152.132 63.678C153.86 65.595 156.236 66.54 159.26 66.54C162.419 66.54 164.822 65.595 166.496 63.705C168.17 61.815 169.007 59.439 169.007 56.55C169.007 55.173 168.791 53.904 168.413 52.716C168.035 51.528 167.441 50.475 166.685 49.557C165.902 48.639 164.876 47.91 163.607 47.37C162.338 46.83 160.88 46.56 159.26 46.56ZM159.26 62.706C158.153 62.706 157.289 62.139 156.641 61.005C155.993 59.871 155.696 58.386 155.696 56.55C155.696 54.768 155.993 53.31 156.641 52.122C157.289 50.934 158.153 50.34 159.26 50.34C160.367 50.34 161.231 50.934 161.879 52.122C162.527 53.31 162.851 54.768 162.851 56.55C162.851 58.44 162.554 59.925 161.96 61.032C161.366 62.166 160.448 62.706 159.26 62.706ZM184.957 56.766C184.957 53.283 184.255 50.529 182.851 48.477C181.447 46.452 179.476 45.426 176.911 45.426C175.507 45.426 174.211 45.885 172.969 46.749C171.727 47.64 171.052 48.639 170.944 49.719C170.89 50.043 171.025 50.205 171.322 50.205C171.376 50.205 171.619 50.124 171.997 49.908C172.375 49.692 172.888 49.503 173.482 49.287C174.076 49.071 174.67 48.963 175.264 48.963C176.722 48.963 177.802 49.503 178.477 50.583C179.152 51.663 179.503 52.959 179.503 54.417H179.422C179.422 54.417 179.395 54.336 179.314 54.228C179.206 54.12 179.071 53.958 178.882 53.796C178.666 53.634 178.45 53.445 178.18 53.283C177.91 53.121 177.559 52.986 177.181 52.878C176.776 52.77 176.371 52.689 175.939 52.689C174.157 52.689 172.753 53.337 171.673 54.579C170.593 55.821 170.08 57.441 170.08 59.385C170.08 61.491 170.728 63.192 172.024 64.542C173.32 65.892 175.075 66.54 177.262 66.54C179.692 66.54 181.582 65.676 182.932 63.894C184.282 62.112 184.957 59.736 184.957 56.766ZM177.397 63.408C176.209 63.354 175.615 61.95 175.669 59.196C175.669 58.278 175.831 57.495 176.155 56.847C176.452 56.199 176.911 55.902 177.559 55.956C178.801 56.064 179.395 57.279 179.368 59.574C179.341 60.114 179.314 60.573 179.26 60.951C179.206 61.329 179.098 61.734 178.99 62.166C178.855 62.598 178.666 62.895 178.396 63.111C178.126 63.327 177.775 63.435 177.397 63.408ZM194.869 63.138C194.869 64.218 195.166 65.028 195.814 65.622C196.435 66.216 197.245 66.486 198.271 66.486C199.243 66.486 200.053 66.162 200.701 65.514C201.349 64.866 201.673 64.353 201.673 63.948C201.673 63.786 201.592 63.651 201.43 63.543C200.674 63.057 200.296 62.166 200.296 60.897V52.635C200.296 52.581 200.269 52.527 200.215 52.5C199.432 52.338 198.541 52.23 197.569 52.23C196.678 52.23 195.814 52.338 194.977 52.5C194.896 52.527 194.869 52.581 194.869 52.635V57.387H192.142V55.308C192.142 54.336 191.818 53.526 191.17 52.932C190.522 52.338 189.712 52.041 188.74 52.041C187.741 52.041 186.931 52.365 186.283 53.013C185.635 53.661 185.338 54.174 185.338 54.552C185.338 54.714 185.419 54.849 185.581 54.957C185.959 55.227 186.202 55.551 186.364 55.929C186.526 56.307 186.607 56.874 186.607 57.576C186.607 62.814 186.553 65.595 186.499 65.865C186.499 65.946 186.526 66 186.607 66C187.525 66.189 188.443 66.27 189.307 66.27C190.36 66.27 191.251 66.189 192.007 66C192.088 66 192.142 65.946 192.142 65.838V60.249H194.869V63.138ZM217.094 52.662C217.094 52.608 217.067 52.554 217.013 52.5C216.149 52.338 215.285 52.257 214.448 52.257C213.503 52.257 212.612 52.365 211.748 52.527L211.64 52.689V59.736C211.64 60.681 211.451 61.437 211.073 61.977C210.695 62.517 210.317 62.787 209.885 62.787C209.588 62.787 209.345 62.652 209.183 62.382C208.994 62.112 208.913 61.734 208.913 61.194V55.443C208.913 54.39 208.562 53.553 207.914 52.959C207.266 52.365 206.429 52.068 205.43 52.068C204.431 52.068 203.621 52.392 203 53.04C202.352 53.688 202.055 54.228 202.055 54.633C202.055 54.849 202.136 54.984 202.298 55.065C203.054 55.578 203.459 56.415 203.459 57.576V62.328C203.459 63.651 203.81 64.65 204.512 65.352C205.214 66.054 206.105 66.405 207.212 66.405C209.318 66.405 210.776 65.487 211.64 63.624H211.721V66.513C211.721 67.377 211.397 68.16 210.749 68.808C210.101 69.483 209.264 69.807 208.238 69.807C207.347 69.807 206.591 69.672 205.943 69.348C205.295 69.051 204.782 68.754 204.458 68.457C204.134 68.16 203.891 67.998 203.756 67.998C203.54 67.998 203.432 68.16 203.432 68.43C203.432 68.862 203.54 69.348 203.81 69.861C204.053 70.374 204.431 70.887 204.917 71.373C205.403 71.886 206.051 72.318 206.915 72.642C207.752 72.993 208.697 73.155 209.723 73.155C212.072 73.155 213.881 72.48 215.177 71.076C216.446 69.699 217.094 67.863 217.094 65.541V52.662ZM166.334 73.235C166.334 73.181 166.28 73.127 166.226 73.1C165.335 72.911 164.39 72.803 163.391 72.803C162.257 72.803 161.312 72.911 160.529 73.1L160.421 73.235V91.838C160.421 91.919 160.448 91.973 160.529 91.973C161.393 92.189 162.338 92.27 163.364 92.27C164.471 92.27 165.416 92.189 166.226 91.973L166.334 91.838V73.235ZM177.593 88.355C174.92 86.681 172.868 84.359 171.464 81.389C171.518 81.335 171.707 81.065 172.085 80.633C172.463 80.201 172.733 79.85 172.949 79.58C173.165 79.31 173.462 78.905 173.867 78.365C174.245 77.825 174.596 77.312 174.92 76.853C175.217 76.394 175.568 75.827 175.946 75.179C176.324 74.531 176.702 73.883 177.053 73.235C177.053 73.181 176.999 73.154 176.945 73.127C176.243 72.911 175.379 72.803 174.353 72.803C173.354 72.803 172.517 72.911 171.815 73.127C171.707 73.154 171.653 73.235 171.599 73.343C171.059 74.72 170.438 76.016 169.763 77.231C169.088 78.446 168.44 79.499 167.819 80.39C167.198 81.308 166.847 81.821 166.793 81.929C166.658 82.199 166.604 82.334 166.604 82.388C166.604 82.793 166.658 83.36 166.793 84.089C166.928 84.818 167.171 85.682 167.549 86.681C167.9 87.68 168.332 88.598 168.872 89.462C169.412 90.326 170.114 91.055 171.032 91.649C171.923 92.243 172.922 92.54 174.029 92.54C175.136 92.54 176.054 92.162 176.756 91.352C177.458 90.569 177.836 89.732 177.836 88.814C177.836 88.625 177.755 88.463 177.593 88.355ZM160.151 82.415C160.151 82.145 160.043 81.686 159.854 80.984C159.665 80.282 159.368 79.472 158.963 78.5C158.531 77.555 158.045 76.637 157.505 75.773C156.938 74.909 156.236 74.153 155.399 73.559C154.562 72.965 153.671 72.641 152.753 72.641C151.646 72.641 150.836 73.019 150.323 73.721C149.783 74.423 149.54 75.152 149.54 75.854C149.54 76.151 149.621 76.313 149.837 76.367C151.025 76.745 152.213 77.366 153.347 78.284C154.481 79.202 155.291 80.255 155.777 81.416C155.075 82.28 154.589 82.901 154.292 83.279C153.995 83.657 153.509 84.332 152.807 85.304C152.105 86.276 151.457 87.275 150.863 88.355C150.269 89.435 149.675 90.623 149.135 91.865C149.135 91.919 149.162 91.973 149.243 91.973C149.864 92.189 151.025 92.27 152.726 92.27C154.4 92.27 155.561 92.189 156.209 91.973C156.263 91.973 156.317 91.892 156.398 91.757C156.857 90.299 157.343 88.949 157.883 87.653C158.423 86.357 158.882 85.304 159.287 84.467C159.692 83.63 159.935 83.09 160.043 82.874C160.097 82.712 160.151 82.577 160.151 82.415ZM192.652 78.662C192.652 78.608 192.625 78.554 192.571 78.5C191.707 78.338 190.843 78.257 189.979 78.257C189.034 78.257 188.143 78.365 187.279 78.527L187.171 78.689V85.736C187.171 86.681 186.982 87.437 186.604 87.977C186.226 88.517 185.848 88.787 185.416 88.787C185.119 88.787 184.876 88.652 184.714 88.382C184.525 88.112 184.444 87.734 184.444 87.194V81.443C184.444 80.39 184.093 79.553 183.445 78.959C182.797 78.365 181.96 78.068 180.961 78.068C179.962 78.068 179.152 78.392 178.531 79.04C177.883 79.688 177.586 80.228 177.586 80.633C177.586 80.849 177.667 80.984 177.829 81.065C178.585 81.578 178.99 82.415 178.99 83.576V88.463C178.99 89.759 179.341 90.758 180.043 91.433C180.745 92.135 181.636 92.459 182.743 92.459C183.607 92.459 184.471 92.243 185.281 91.784C186.091 91.325 186.739 90.569 187.225 89.489L187.306 89.516C187.333 89.786 187.36 89.975 187.414 90.083C187.576 90.839 187.927 91.406 188.467 91.838C188.98 92.27 189.655 92.486 190.492 92.486C191.491 92.486 192.301 92.162 192.949 91.514C193.57 90.866 193.894 90.353 193.894 89.948C193.894 89.786 193.813 89.651 193.651 89.543C192.949 89.111 192.625 88.247 192.625 86.951C192.625 81.497 192.625 78.716 192.652 78.662ZM204.996 84.899V84.791C205.752 84.629 206.4 84.278 206.94 83.738C207.48 83.198 207.75 82.55 207.75 81.794C207.75 80.714 207.183 79.823 206.076 79.121C204.969 78.419 203.592 78.041 201.945 78.041C199.785 78.041 198.03 78.581 196.707 79.661C195.384 80.741 194.736 81.74 194.736 82.658C194.736 82.955 194.844 83.09 195.06 83.09C195.195 83.09 195.492 82.982 195.951 82.766C196.383 82.55 196.977 82.334 197.679 82.118C198.381 81.902 199.11 81.767 199.866 81.767C200.379 81.767 200.811 81.848 201.162 81.956C201.513 82.091 201.756 82.253 201.918 82.442C202.053 82.658 202.134 82.82 202.188 82.955C202.242 83.117 202.269 83.252 202.269 83.387C202.269 83.738 202.161 84.062 201.972 84.386C201.027 84.089 200.298 84.035 199.812 84.251C199.299 84.467 199.056 84.818 199.056 85.304C199.056 85.763 199.299 86.087 199.839 86.303C200.352 86.519 201.108 86.411 202.107 86.033L202.242 86.222C202.296 86.384 202.377 86.6 202.458 86.87C202.539 87.14 202.593 87.437 202.593 87.707C202.593 88.193 202.431 88.625 202.134 89.003C201.81 89.381 201.405 89.57 200.865 89.57C200.379 89.57 200.001 89.435 199.677 89.138C199.353 88.868 199.218 88.463 199.218 87.977C199.218 87.869 199.218 87.707 199.272 87.491C199.299 87.275 199.326 87.14 199.326 87.059C199.326 86.897 199.083 86.681 198.597 86.465C198.111 86.249 197.625 86.114 197.139 86.114C196.302 86.114 195.654 86.357 195.195 86.816C194.709 87.302 194.493 87.869 194.493 88.544C194.493 89.813 195.141 90.785 196.464 91.487C197.76 92.189 199.272 92.513 200.973 92.513C202.215 92.513 203.349 92.378 204.402 92.054C205.455 91.757 206.346 91.271 207.048 90.596C207.75 89.921 208.101 89.111 208.101 88.139C208.101 87.275 207.804 86.573 207.21 86.006C206.616 85.439 205.887 85.061 204.996 84.899ZM217.914 89.138C217.914 90.218 218.211 91.028 218.859 91.622C219.48 92.216 220.29 92.486 221.316 92.486C222.288 92.486 223.098 92.162 223.746 91.514C224.394 90.866 224.718 90.353 224.718 89.948C224.718 89.786 224.637 89.651 224.475 89.543C223.719 89.057 223.341 88.166 223.341 86.897V78.635C223.341 78.581 223.314 78.527 223.26 78.5C222.477 78.338 221.586 78.23 220.614 78.23C219.723 78.23 218.859 78.338 218.022 78.5C217.941 78.527 217.914 78.581 217.914 78.635V83.387H215.187V81.308C215.187 80.336 214.863 79.526 214.215 78.932C213.567 78.338 212.757 78.041 211.785 78.041C210.786 78.041 209.976 78.365 209.328 79.013C208.68 79.661 208.383 80.174 208.383 80.552C208.383 80.714 208.464 80.849 208.626 80.957C209.004 81.227 209.247 81.551 209.409 81.929C209.571 82.307 209.652 82.874 209.652 83.576C209.652 88.814 209.598 91.595 209.544 91.865C209.544 91.946 209.571 92 209.652 92C210.57 92.189 211.488 92.27 212.352 92.27C213.405 92.27 214.296 92.189 215.052 92C215.133 92 215.187 91.946 215.187 91.838V86.249H217.914V89.138ZM234.37 81.848C233.371 81.848 232.426 82.01 231.562 82.307L231.589 81.119C231.589 80.147 231.265 79.391 230.59 78.851C229.915 78.338 229.105 78.068 228.133 78.068C227.134 78.068 226.324 78.392 225.676 79.04C225.028 79.688 224.731 80.228 224.731 80.633C224.731 80.849 224.812 80.984 224.974 81.065C225.676 81.551 226.081 82.307 226.135 83.387V86.951C226.135 87.626 226.243 88.274 226.486 88.895C226.729 89.516 227.107 90.11 227.593 90.65C228.079 91.217 228.781 91.676 229.699 92C230.617 92.324 231.67 92.486 232.858 92.486C234.667 92.486 236.206 91.946 237.475 90.812C238.717 89.705 239.365 88.301 239.365 86.573C239.365 85.142 238.879 84.008 237.934 83.144C236.989 82.28 235.801 81.848 234.37 81.848ZM232.723 89.57C231.94 89.57 231.562 88.787 231.562 87.194V84.17C231.724 84.143 231.913 84.116 232.102 84.116C232.696 84.116 233.155 84.332 233.479 84.764C233.803 85.196 233.992 85.736 233.992 86.438C233.992 88.544 233.56 89.57 232.723 89.57Z" fill="white"/>
</g>
<defs>
<filter id="filter0_d" x="0.358887" y="0" width="151.641" height="113.442" filterUnits="userSpaceOnUse" color-interpolation-filters="sRGB">
<feFlood flood-opacity="0" result="BackgroundImageFix"/>
<feColorMatrix in="SourceAlpha" type="matrix" values="0 0 0 0 0 0 0 0 0 0 0 0 0 0 0 0 0 0 127 0"/>
<feOffset/>
<feGaussianBlur stdDeviation="10"/>
<feColorMatrix type="matrix" values="0 0 0 0 0.231373 0 0 0 0 0.172549 0 0 0 0 0.447059 0 0 0 1 0"/>
<feBlend mode="normal" in2="BackgroundImageFix" result="effect1_dropShadow"/>
<feBlend mode="normal" in="SourceGraphic" in2="effect1_dropShadow" result="shape"/>
</filter>
<filter id="filter1_d" x="129.135" y="0.532959" width="144.376" height="112.007" filterUnits="userSpaceOnUse" color-interpolation-filters="sRGB">
<feFlood flood-opacity="0" result="BackgroundImageFix"/>
<feColorMatrix in="SourceAlpha" type="matrix" values="0 0 0 0 0 0 0 0 0 0 0 0 0 0 0 0 0 0 127 0"/>
<feOffset/>
<feGaussianBlur stdDeviation="10"/>
<feColorMatrix type="matrix" values="0 0 0 0 0.231373 0 0 0 0 0.172549 0 0 0 0 0.447059 0 0 0 1 0"/>
<feBlend mode="normal" in2="BackgroundImageFix" result="effect1_dropShadow"/>
<feBlend mode="normal" in="SourceGraphic" in2="effect1_dropShadow" result="shape"/>
</filter>
</defs>
</svg>
