<svg width="518" height="114" viewBox="0 0 518 114" fill="none" xmlns="http://www.w3.org/2000/svg">
<g clip-path="url(#clip0)">
<path fill-rule="evenodd" clip-rule="evenodd" d="M309.24 94.146C309.24 94.146 320.854 82.2812 334.32 87.6233C350.186 93.9191 337.935 107.775 326.131 103.839C318.164 101.183 309.24 94.146 309.24 94.146Z" fill="white"/>
<path fill-rule="evenodd" clip-rule="evenodd" d="M308.404 94.9593C308.404 94.9593 324.274 97.4737 332.385 85.2987C341.943 70.9591 324.481 67.239 316.968 77.3203C313.329 82.792 310.448 88.7261 308.404 94.9593Z" fill="white"/>
</g>
<g clip-path="url(#clip1)">
<path fill-rule="evenodd" clip-rule="evenodd" d="M5.08769 54.689C5.08769 54.689 7.65861 44.8708 16.4265 43.6269C26.7581 42.1619 24.4519 53.2306 16.9924 54.717C11.9578 55.721 5.08769 54.689 5.08769 54.689Z" fill="white"/>
<path fill-rule="evenodd" clip-rule="evenodd" d="M4.89057 55.3718C4.89057 55.3718 14.078 51.8983 14.695 42.9768C15.4249 32.4674 5.02677 35.7832 4.09241 43.4122C3.81821 47.4199 4.08672 51.4434 4.89057 55.3718Z" fill="white"/>
</g>
<g clip-path="url(#clip2)">
<path fill-rule="evenodd" clip-rule="evenodd" d="M493.978 18.5969C493.978 18.5969 499.638 10.1728 508.327 11.8854C518.564 13.9041 512.742 23.5961 505.209 22.5434C500.125 21.8335 493.978 18.5969 493.978 18.5969Z" fill="white"/>
<path fill-rule="evenodd" clip-rule="evenodd" d="M493.567 19.1768C493.567 19.1768 503.385 18.9222 506.906 10.7014C511.055 1.01848 500.145 0.725474 496.751 7.62132C495.172 11.3152 494.101 15.2027 493.567 19.1768Z" fill="white"/>
</g>
<g clip-path="url(#clip3)">
<path fill-rule="evenodd" clip-rule="evenodd" d="M157.321 57.6671C157.321 57.6671 156.889 47.527 164.903 43.7581C174.346 39.3178 175.399 50.575 168.707 54.1907C164.191 56.6317 157.321 57.6671 157.321 57.6671Z" fill="white"/>
<path fill-rule="evenodd" clip-rule="evenodd" d="M157.334 58.3778C157.334 58.3778 165.092 52.3545 163.056 43.6465C160.662 33.3876 151.7 39.6164 153.051 47.1826C153.969 51.0935 155.409 54.8598 157.334 58.3778Z" fill="white"/>
</g>
<g clip-path="url(#clip4)">
<path fill-rule="evenodd" clip-rule="evenodd" d="M76.603 60.595C76.603 60.595 80.1162 44.2599 94.4459 41.5755C111.331 38.4135 108.345 56.7859 96.1844 59.7739C87.9772 61.7918 76.603 60.595 76.603 60.595Z" fill="white"/>
<path fill-rule="evenodd" clip-rule="evenodd" d="M76.3273 61.7355C76.3273 61.7355 91.1847 55.3534 91.5496 40.6356C91.9846 23.2979 75.1245 29.5087 74.1435 42.124C73.9844 48.7353 74.7191 55.333 76.3273 61.7355Z" fill="white"/>
</g>
<g clip-path="url(#clip5)">
<path fill-rule="evenodd" clip-rule="evenodd" d="M402.553 66.2715C402.553 66.2715 407.24 44.4794 426.356 40.8982C448.883 36.6799 444.898 61.19 428.676 65.1762C417.727 67.8682 402.553 66.2715 402.553 66.2715Z" fill="white"/>
<path fill-rule="evenodd" clip-rule="evenodd" d="M402.185 67.7922C402.185 67.7922 422.006 59.2781 422.493 39.6434C423.073 16.5136 400.581 24.7994 399.272 41.629C399.06 50.449 400.04 59.2508 402.185 67.7922Z" fill="white"/>
</g>
<g clip-path="url(#clip6)">
<path fill-rule="evenodd" clip-rule="evenodd" d="M227.221 108.029C227.221 108.029 224.865 85.2373 242.409 75.6518C263.083 64.3584 266.991 89.5825 252.404 98.6426C242.56 104.759 227.221 108.029 227.221 108.029Z" fill="white"/>
<path fill-rule="evenodd" clip-rule="evenodd" d="M227.345 109.629C227.345 109.629 244.007 94.9985 238.233 75.6528C231.438 52.8613 212.091 68.1195 216.169 84.9852C218.77 93.6733 222.529 101.964 227.345 109.629Z" fill="white"/>
</g>
<defs>
<clipPath id="clip0">
<rect width="33.0404" height="33.0404" fill="white" transform="translate(328.383 67.3149) rotate(50.3587)"/>
</clipPath>
<clipPath id="clip1">
<rect width="20.1976" height="20.1976" fill="white" transform="translate(7.12109 34.6437) rotate(20.645)"/>
</clipPath>
<clipPath id="clip2">
<rect width="20.1976" height="20.1976" fill="white" transform="translate(502.498 0.339111) rotate(39.8703)"/>
</clipPath>
<clipPath id="clip3">
<rect width="20.1976" height="20.1976" fill="white" transform="translate(153.366 37.9109) rotate(3.53152)"/>
</clipPath>
<clipPath id="clip4">
<rect width="33.251" height="33.251" fill="white" transform="translate(78.4872 27.4786) rotate(18.1092)"/>
</clipPath>
<clipPath id="clip5">
<rect width="44.3592" height="44.3592" fill="white" transform="translate(405.066 22.0919) rotate(18.1092)"/>
</clipPath>
<clipPath id="clip6">
<rect width="45.5976" height="45.5976" fill="white" transform="translate(215.614 64.0477) rotate(0.0697554)"/>
</clipPath>
</defs>
</svg>
