<svg width="416" height="372" viewBox="0 0 416 372" fill="none" xmlns="http://www.w3.org/2000/svg">
<path d="M301.56 1.41638C294.998 1.42559 288.446 1.91319 281.956 2.87532C258.705 6.28186 237.062 19.1219 209.654 35.3402L208.124 36.2467L206.594 35.3402C179.193 19.1219 157.543 6.28186 134.271 2.87532C127.78 1.91319 121.229 1.42559 114.667 1.41638C83.2152 1.41638 54.5889 13.2437 34.0647 34.7028C11.8124 58.0245 0.473785 90.8859 2.14519 127.246C3.68911 160.901 14.7303 192.771 35.7998 224.676C57.3297 257.254 89.2847 289.747 133.534 324.082C149.767 336.681 168.676 350.86 185.943 360.449C188.138 361.667 190.128 362.963 192.055 364.217C197.31 367.63 201.842 370.591 208.174 370.591C214.505 370.591 219.038 367.637 224.293 364.217C226.219 362.963 228.209 361.667 230.405 360.449C247.657 350.86 266.574 336.681 282.813 324.082C327.027 289.747 358.982 257.233 380.547 224.676C401.652 192.771 412.658 160.901 414.202 127.246C415.874 90.8859 404.535 58.0315 382.276 34.7311C361.659 13.2507 333.033 1.41638 301.56 1.41638Z" fill="#7ECEF4"/>
<path d="M226.085 150.525C229.671 150.46 233.194 151.474 236.197 153.435C239.2 155.396 241.545 158.215 242.926 161.525C244.308 164.835 244.663 168.484 243.946 171.998C243.229 175.512 241.472 178.73 238.904 181.234L207.169 212.962L175.44 181.234C172.171 177.81 170.372 173.243 170.427 168.509C170.482 163.775 172.387 159.251 175.734 155.904C179.081 152.557 183.605 150.652 188.339 150.597C193.072 150.542 197.64 152.341 201.064 155.61L202.664 157.211L207.183 161.729L211.694 157.197L213.266 155.61C216.705 152.296 221.31 150.469 226.085 150.525ZM226.085 144.151C219.626 144.091 213.406 146.588 208.783 151.099L207.19 152.699L205.589 151.099C203.315 148.824 200.615 147.02 197.643 145.789C194.671 144.558 191.486 143.925 188.27 143.925C185.053 143.925 181.868 144.558 178.896 145.789C175.925 147.02 173.225 148.824 170.95 151.099C168.676 153.373 166.871 156.073 165.641 159.045C164.41 162.017 163.776 165.202 163.776 168.418C163.776 171.635 164.41 174.82 165.641 177.792C166.871 180.763 168.676 183.464 170.95 185.738L203.528 218.316C204.007 218.796 204.576 219.178 205.203 219.438C205.829 219.698 206.501 219.831 207.179 219.831C207.857 219.831 208.529 219.698 209.156 219.438C209.782 219.178 210.351 218.796 210.83 218.316L243.408 185.738C246.866 182.343 249.229 177.99 250.191 173.24C251.153 168.49 250.672 163.561 248.808 159.087C246.945 154.613 243.785 150.8 239.735 148.138C235.685 145.476 230.931 144.088 226.085 144.151Z" fill="white"/>
<path d="M301.56 0C294.923 0.00772992 288.295 0.500072 281.73 1.4731C257.955 4.95754 236.227 17.9321 208.075 34.5966C179.98 17.9321 158.252 4.95754 134.477 1.4731C127.911 0.499821 121.284 0.00747774 114.647 0C46.5158 0 -2.64179 53.8248 0.729336 127.31C3.78885 193.96 44.0795 256.433 132.628 325.201C150.185 338.827 168.443 352.368 185.207 361.688C193.344 366.207 198.953 372 208.125 372C217.296 372 222.905 366.207 231.043 361.688C247.806 352.368 266.064 338.827 283.621 325.201C372.149 256.433 412.468 193.96 415.52 127.31C418.891 53.8248 369.727 0 301.56 0ZM406.32 126.892C405.872 136.817 404.533 146.682 402.319 156.368L399.713 166.326C395.977 178.893 390.935 191.034 384.67 202.551L379.075 212.325C377.437 215.025 375.727 217.724 373.947 220.42C352.899 252.247 321.504 284.159 277.969 317.963C261.978 330.385 243.359 344.344 226.567 353.678C224.145 355.024 221.942 356.455 219.994 357.722C214.839 361.079 211.963 362.829 208.125 362.829C204.286 362.829 201.411 361.079 196.255 357.722C194.314 356.455 192.105 355.024 189.683 353.678C172.891 344.344 154.272 330.385 138.28 317.963C108.152 294.591 83.839 272.077 64.7454 249.896C64.7454 249.896 49.4195 228.125 46.9478 227.233C45.3472 224.966 43.7986 222.705 42.3019 220.448C37.4398 213.127 33.0083 205.529 29.0298 197.693L24.738 188.656C15.9597 169.205 10.9353 148.271 9.92912 126.956C8.35687 92.6707 18.9306 61.856 39.7027 40.1065C49.0139 30.3421 60.246 22.6113 72.6916 17.401C85.9954 11.8915 100.269 9.10521 114.668 9.20687C120.85 9.2162 127.023 9.67539 133.138 10.5808C154.895 13.7678 175.957 26.2467 202.629 42.0471L203.436 42.5216L208.125 45.3261L212.82 42.4932L213.62 42.0187C240.292 26.2183 261.355 13.7395 283.111 10.5525C289.22 9.65757 295.386 9.20785 301.56 9.20687C315.958 9.10417 330.23 11.893 343.529 17.4081C355.98 22.6139 367.215 30.3452 376.525 40.1136C397.319 61.856 407.892 92.6777 406.32 126.892Z" fill="white"/>
<path d="M18.1234 192.87C28.3643 215.582 43.3149 237.742 63.7824 260.526C66.4808 257.041 66.4312 253.989 63.6691 250.781L54.6251 240.278L87.352 265.483C95.192 270.753 105.589 274.69 113.223 275.236C150.901 278.033 191.312 258.479 193.011 257.643C198.876 254.811 202.587 251.177 204.046 246.935C204.562 245.389 204.766 243.755 204.644 242.129C204.523 240.504 204.078 238.918 203.337 237.466C200.334 231.368 192.339 230.816 189.017 230.866H188.606L188.252 230.653C186.184 229.378 178.953 225.157 172.82 224.506C167.94 223.996 153.245 225.71 141.134 227.487L140.801 227.537L139.258 227.006C137.699 226.468 135.936 225.859 134.3 225.143C124.123 220.738 116.198 211.34 115.405 210.377C84.8449 176.064 59.9297 185.554 50.5599 189.095L48.9381 189.711H48.7611C47.1817 189.888 35.1774 189.973 24.7382 189.973H23.8105L23.5555 189.399C21.7495 190.617 19.9223 191.758 18.1234 192.87ZM152.834 232.197C158.578 231.489 168.727 230.334 172.197 230.703C174.497 231.056 176.73 231.758 178.819 232.785L182.848 234.57L155.879 240.186L155.377 239.265C154.455 237.564 153.314 235.99 151.984 234.584L150.051 232.544L152.834 232.197ZM29.023 196.212C48.3361 196.212 50.9141 195.639 51.2328 195.504L52.7908 194.916C62.6068 191.219 82.9965 183.429 110.617 214.357L110.709 214.47C110.78 214.562 119.789 225.653 131.828 230.866C133.585 231.616 135.447 232.282 137.246 232.891L137.43 232.955C140.207 233.925 142.834 234.832 144.307 235.986C150.058 240.554 151.658 244.726 150.681 246.673C149.704 248.621 145.277 250.023 137.869 248.231C119.456 243.784 92.0192 229.074 88.9526 227.41C88.5865 227.201 88.1823 227.067 87.7639 227.018C87.3454 226.968 86.9212 227.002 86.5163 227.119C85.7255 227.35 85.0584 227.885 84.6608 228.606C84.2874 229.344 84.2122 230.197 84.4509 230.988C84.6896 231.779 85.2238 232.448 85.9427 232.856C89.0376 234.541 116.956 249.577 136.403 254.279C146.205 256.645 153.634 254.818 156.283 249.393C156.883 248.06 157.15 246.602 157.062 245.143V243.968L190.023 237.091H190.207C192.509 237.204 196.581 237.757 197.771 240.186C198.146 240.907 198.372 241.697 198.434 242.507C198.496 243.318 198.393 244.133 198.132 244.903C197.537 246.673 195.689 249.364 190.278 251.985C186.404 253.862 153.67 269.223 120.915 269.223C118.497 269.223 116.085 269.136 113.677 268.961C107.097 268.472 97.777 264.959 91.0135 260.413L90.9356 260.356L56.1478 233.578C55.5812 233.167 54.4552 232.438 52.9821 231.595C50.8889 230.394 48.7057 229.357 46.4523 228.493L46.0486 228.344L45.7936 227.983C44.1293 225.632 42.5571 223.337 41.1194 221.163C36.2315 213.806 31.7718 206.172 27.7623 198.302L26.7283 196.248L29.023 196.212Z" fill="white"/>
<path d="M406.476 156.942L386.454 162.473C374.868 165.688 350.795 171.857 348.564 172.183H348.38L346.659 171.991C336.695 170.908 310.221 168.011 289.293 208.932C288.776 210.065 283.465 221.177 274.74 227.99C273.323 229.102 271.765 230.115 270.391 231.05L269.031 231.956L268.691 231.999C256.524 233.33 241.885 235.377 237.282 237.112C231.51 239.286 225.582 245.193 223.896 246.949L223.613 247.247L223.209 247.346C220.001 248.139 212.388 250.696 211.021 257.353C210.677 258.946 210.653 260.592 210.951 262.195C211.248 263.797 211.862 265.325 212.756 266.688C215.242 270.427 219.739 272.977 226.134 274.258C227.99 274.641 272.041 283.359 307.778 271.142C315.03 268.663 324.067 262.254 330.349 255.179L357.353 220.334C359.804 217.332 365.633 212.473 368.239 212.105L381.801 210.519L380.335 212.941C380.518 213.462 380.842 213.923 381.27 214.272C382.462 215.422 383.942 216.23 385.555 216.609C392.58 204.69 396.681 186.899 398.862 173.712C395.369 183.867 391.043 193.717 385.93 203.16L385.583 203.805L367.715 205.894C363.225 206.184 357.368 211.46 355.052 213.684C353.827 214.881 352.927 215.88 352.474 216.418L325.561 251.22C320.172 257.332 312.042 263.083 305.795 265.214C272.579 276.546 231.92 269.025 227.395 268.125C221.481 266.928 219.017 264.789 217.983 263.21C217.539 262.534 217.237 261.775 217.094 260.979C216.952 260.183 216.972 259.366 217.154 258.578C217.707 255.915 221.488 254.329 223.691 253.663L223.868 253.614L257.494 251.942L257.771 253.083C258.051 254.518 258.678 255.862 259.598 256.999C263.528 261.581 271.177 261.475 280.065 256.709C297.693 247.254 320.916 225.653 323.508 223.224C324.096 222.646 324.438 221.863 324.465 221.039C324.491 220.215 324.199 219.412 323.649 218.798C323.369 218.5 323.032 218.262 322.659 218.095C322.286 217.929 321.884 217.838 321.475 217.827C321.065 217.813 320.657 217.88 320.273 218.026C319.89 218.172 319.54 218.394 319.244 218.677L319.187 218.727C316.638 221.114 293.769 242.282 277.119 251.22C270.405 254.818 265.788 254.634 264.329 252.941C262.87 251.248 263.408 246.85 267.82 240.993C268.96 239.499 271.269 237.948 273.72 236.312L273.875 236.206C275.462 235.143 277.105 234.046 278.606 232.877C288.946 224.796 294.895 211.786 294.895 211.666L294.952 211.553C313.862 174.633 335.554 177.013 345.987 178.16L347.679 178.344H347.792C351.334 178.344 383.912 169.612 387.559 168.479L400.158 164.675C400.491 161.963 406.377 158.408 406.476 156.942ZM260.009 241.617C259.065 243.311 258.351 245.124 257.884 247.006L257.629 248.026L230.115 249.393L233.564 246.652C235.326 245.135 237.308 243.893 239.442 242.969C242.707 241.744 252.82 240.285 258.564 239.527L261.354 239.159L260.009 241.617Z" fill="white"/>
<path d="M77.4296 67.2102H81.0202L84.6959 77.4369C85.1137 78.6621 85.6095 80.4681 85.6095 80.4681H85.6662C85.6662 80.4681 86.1619 78.6621 86.5798 77.4369L90.2554 67.2102H93.8461L95.3688 87.8973H91.9835L91.2186 76.3321C91.1124 74.9652 91.2186 73.1309 91.2186 73.1309H91.169C91.169 73.1309 90.567 75.1352 90.1421 76.3321L87.1251 84.3421H84.1931L81.176 76.3321C80.7582 75.1352 80.1491 73.0955 80.1491 73.0955H80.0995C80.0995 73.0955 80.1775 74.9652 80.0995 76.3321L79.3418 87.8973H75.9565L77.4296 67.2102Z" fill="white"/>
<path d="M105.341 72.6918C109.434 72.6918 112.713 75.9213 112.713 80.4822C112.713 85.0431 109.434 88.2726 105.369 88.2726C101.304 88.2726 98.0247 85.0644 98.0247 80.4822C98.0247 75.9 101.304 72.6918 105.341 72.6918ZM105.341 85.0998C107.522 85.0998 109.328 83.2372 109.328 80.468C109.328 77.6989 107.522 75.8363 105.341 75.8363C103.159 75.8363 101.382 77.7343 101.382 80.468C101.382 83.2018 103.195 85.0998 105.383 85.0998H105.341Z" fill="white"/>
<path d="M117.982 80.2628V80.2061L114.229 73.0389H117.692L120.66 78.8109H122.281V73.0389H125.405V78.8109H127.034L129.994 73.0389H133.457L129.732 80.2061V80.2628L133.825 87.8974H130.171L127.104 81.9271H125.426V87.8974H122.303V81.9271H120.624L117.558 87.8974H113.882L117.982 80.2628Z" fill="white"/>
<path d="M136.212 73.0389H139.541V78.7826H145.263V73.0389H148.585V87.9116H145.256V81.913H139.534V87.9116H136.205L136.212 73.0389Z" fill="white"/>
<path d="M158.995 72.6918C163.089 72.6918 166.368 75.9213 166.368 80.4822C166.368 85.0431 163.089 88.2726 159.024 88.2726C154.958 88.2726 151.679 85.0644 151.679 80.4822C151.679 75.9 154.958 72.6918 158.995 72.6918ZM158.995 85.0998C161.17 85.0998 162.983 83.2372 162.983 80.468C162.983 77.6989 161.17 75.8363 158.995 75.8363C156.821 75.8363 155.036 77.7343 155.036 80.468C155.036 83.2018 156.849 85.0998 159.024 85.0998H158.995Z" fill="white"/>
<path d="M176.46 73.0389H188.656V87.9116H185.327V76.1905H179.789V87.8974H176.46V73.0389Z" fill="white"/>
<path d="M198.613 72.6918C202.438 72.6918 204.541 75.8079 204.541 79.774C204.53 80.2476 204.495 80.7204 204.435 81.1904H195.228C195.441 83.7825 197.218 85.121 199.244 85.121C200.673 85.0544 202.03 84.4762 203.068 83.4921L204.378 86.1409C202.918 87.5006 200.998 88.2593 199.003 88.2655C194.569 88.2655 191.793 84.7244 191.793 80.4751C191.786 75.8929 194.619 72.6918 198.613 72.6918ZM201.205 78.6125C201.205 76.6295 200.03 75.468 198.535 75.468C196.829 75.468 195.625 76.7215 195.306 78.6125H201.205Z" fill="white"/>
<path d="M207.771 73.0389H210.816V74.1508C210.815 74.5009 210.796 74.8507 210.759 75.1989H210.816C211.233 74.4266 211.855 73.7841 212.613 73.3419C213.372 72.8996 214.237 72.6747 215.115 72.6918C218.734 72.6918 221.043 75.8647 221.043 80.4823C221.043 85.2061 218.443 88.2727 214.931 88.2727C214.163 88.262 213.411 88.0625 212.739 87.692C212.067 87.3214 211.496 86.7912 211.078 86.148H211.021C211.075 86.5731 211.101 87.0014 211.099 87.4299V93.726H207.771V73.0389ZM214.329 85.1282C216.163 85.1282 217.686 83.4709 217.686 80.5247C217.686 77.6919 216.319 75.8647 214.378 75.8647C212.622 75.8647 211 77.2811 211 80.5602C211 82.8619 212.154 85.1282 214.329 85.1282Z" fill="white"/>
<path d="M230.2 72.6918C234.031 72.6918 236.128 75.8079 236.128 79.774C236.12 80.2478 236.084 80.7207 236.021 81.1904H226.815C227.027 83.7825 228.812 85.121 230.83 85.121C232.262 85.056 233.622 84.4778 234.662 83.4921L235.972 86.1409C234.51 87.4988 232.591 88.2572 230.596 88.2655C226.163 88.2655 223.38 84.7244 223.38 80.4751C223.38 75.8929 226.191 72.6918 230.2 72.6918ZM232.799 78.6337C232.799 76.6507 231.616 75.4892 230.122 75.4892C228.415 75.4892 227.211 76.7428 226.9 78.6337H232.799Z" fill="white"/>
<path d="M239.697 84.93C241.163 82.5362 241.482 78.6905 241.482 76.1268V73.0389H251.319V84.93H253.231V91.396H250.214V87.8974H241.142V91.396H238.047V84.93H239.697ZM247.983 84.93V76.0135H244.655V76.7217C244.655 78.9597 244.421 82.3875 243.026 84.937L247.983 84.93Z" fill="white"/>
<path d="M263.047 78.6125H263.621V78.4071C263.621 76.4524 262.495 75.7867 261.107 75.7867C259.746 75.8515 258.441 76.3475 257.381 77.2031L256.149 74.5544C257.643 73.3763 259.487 72.7308 261.39 72.7201C264.881 72.7201 266.949 74.8448 266.949 78.6337V87.9256H263.854V86.672C263.854 86.3115 263.882 85.9515 263.939 85.5955H263.883C263.488 86.3893 262.883 87.0595 262.134 87.5329C261.385 88.0062 260.52 88.2646 259.633 88.2797C259.046 88.2957 258.461 88.1908 257.916 87.9715C257.37 87.7522 256.876 87.4231 256.463 87.0048C256.05 86.5864 255.727 86.0877 255.515 85.5395C255.302 84.9913 255.205 84.4053 255.228 83.8179C255.257 79.3207 260.08 78.6125 263.047 78.6125ZM260.582 85.461C262.438 85.461 263.649 83.3363 263.649 81.5516V81.1479H263.068C261.39 81.1479 258.557 81.41 258.557 83.5063C258.556 83.7678 258.608 84.0269 258.71 84.2674C258.813 84.508 258.964 84.7249 259.154 84.9048C259.344 85.0847 259.568 85.2237 259.814 85.3133C260.06 85.4029 260.321 85.4411 260.582 85.4256V85.461Z" fill="white"/>
<path d="M273.6 76.1905H269.194V73.0389H281.333V76.1905H276.9V87.8974H273.6V76.1905Z" fill="white"/>
<path d="M283.77 73.0389H287.106V78.1381H289.592C292.743 78.1381 294.627 79.8308 294.627 83.0957C294.627 85.9852 293.083 87.9328 289.57 87.9328H283.77V73.0389ZM289.046 85.362C290.562 85.362 291.27 84.3776 291.27 83.0319C291.27 81.6863 290.562 80.6452 288.99 80.6452H287.106V85.362H289.046Z" fill="white"/>
<path d="M31.8274 108.004H38.0385C40.7439 108.004 42.5499 109.342 42.5499 111.849C42.5749 112.501 42.4252 113.147 42.1164 113.721C41.8076 114.295 41.3508 114.776 40.7935 115.114C41.5103 115.338 42.1321 115.795 42.5605 116.412C42.9888 117.029 43.1994 117.771 43.1589 118.521C43.1589 121.495 40.9776 122.834 38.2014 122.834H31.8274V108.004ZM37.3303 114.123C37.5877 114.141 37.846 114.103 38.0867 114.01C38.3274 113.917 38.5446 113.772 38.7226 113.585C38.9007 113.398 39.0352 113.174 39.1165 112.929C39.1978 112.684 39.2239 112.424 39.1929 112.168C39.1929 111.092 38.5909 110.419 37.2807 110.419H35.156V114.123H37.3303ZM37.5923 120.419C39.0867 120.419 39.7949 119.569 39.7949 118.436C39.7949 117.303 39.0371 116.424 37.5923 116.424H35.156V120.398L37.5923 120.419Z" fill="white"/>
<path d="M59.2778 103.315L63.8954 101.276L64.894 104.278L59.8019 106.403C57.5214 107.451 56.0271 108.818 55.8996 111.361H55.9492C56.4545 110.674 57.1201 110.122 57.8879 109.751C58.6557 109.381 59.5025 109.204 60.3543 109.236C63.7892 109.236 66.0767 111.949 66.0767 116.056C66.0767 120.164 63.4776 123.138 59.5186 123.138C54.8727 123.138 52.6985 119.385 52.6985 114.109C52.6985 108.584 54.3911 105.412 59.2778 103.315ZM59.3841 120.157C61.2184 120.157 62.7198 118.67 62.7198 116.162C62.7198 113.655 61.2183 112.14 59.4407 112.14C57.5214 112.14 56.0837 113.804 56.0837 116.134C56.0837 118.67 57.5781 120.157 59.3841 120.157Z" fill="white"/>
<path d="M67.8476 119.746C69.5048 119.484 70.6804 117.94 70.6804 112.664V108.004H80.4326V122.876H77.104V111.007H73.8533V112.664C73.8533 119.137 72.3023 122.862 67.8688 123.011L67.8476 119.746Z" fill="white"/>
<path d="M91.2185 113.542H91.7921V113.315C91.7921 111.36 90.6661 110.695 89.2779 110.695C87.9176 110.761 86.6134 111.257 85.5527 112.111L84.3204 109.462C85.8165 108.283 87.6635 107.638 89.5683 107.628C93.0528 107.628 95.1279 109.753 95.1279 113.542V122.834H92.0329V121.58C92.0322 121.22 92.0582 120.86 92.1108 120.504H92.0542C91.6614 121.298 91.0566 121.969 90.3068 122.441C89.5569 122.913 88.6911 123.169 87.8048 123.181C87.2175 123.198 86.633 123.094 86.0876 122.875C85.5421 122.657 85.0475 122.328 84.6343 121.911C84.2212 121.493 83.8984 120.994 83.686 120.447C83.4736 119.899 83.3762 119.313 83.3997 118.726C83.428 114.3 88.2298 113.542 91.2185 113.542ZM88.7326 120.397C90.5952 120.397 91.7992 118.273 91.7992 116.495V116.091H91.2185C89.54 116.091 86.7071 116.353 86.7071 118.45C86.6996 118.714 86.7475 118.977 86.8476 119.222C86.9478 119.467 87.0981 119.688 87.2888 119.872C87.4796 120.055 87.7065 120.197 87.9552 120.287C88.2038 120.378 88.4686 120.415 88.7326 120.397Z" fill="white"/>
<path d="M98.9032 108.004H107.692V111.148H102.239V122.862H98.9032V108.004Z" fill="white"/>
<path d="M116.594 107.65C120.681 107.65 123.96 110.879 123.96 115.44C123.96 120.001 120.681 123.231 116.616 123.231C112.55 123.231 109.278 120.029 109.278 115.44C109.278 110.851 112.55 107.65 116.594 107.65ZM116.594 120.058C118.776 120.058 120.582 118.195 120.582 115.426C120.582 112.657 118.776 110.794 116.594 110.794C114.413 110.794 112.635 112.685 112.635 115.426C112.635 118.167 114.441 120.065 116.616 120.065L116.594 120.058Z" fill="white"/>
<path d="M129.966 111.148H125.561V108.004H137.699V111.148H133.273V122.862H129.966V111.148Z" fill="white"/>
<path d="M140.135 108.004H146.353C149.059 108.004 150.865 109.342 150.865 111.849C150.89 112.501 150.74 113.147 150.431 113.721C150.123 114.295 149.666 114.776 149.108 115.114C149.825 115.338 150.446 115.795 150.873 116.412C151.3 117.029 151.509 117.771 151.467 118.521C151.467 121.495 149.293 122.834 146.509 122.834H140.135V108.004ZM145.645 114.123C145.903 114.141 146.161 114.103 146.402 114.01C146.642 113.917 146.86 113.772 147.038 113.585C147.216 113.398 147.35 113.174 147.431 112.929C147.513 112.684 147.539 112.424 147.508 112.168C147.508 111.092 146.906 110.419 145.596 110.419H143.471V114.123H145.645ZM145.907 120.419C147.402 120.419 148.11 119.569 148.11 118.436C148.11 117.303 147.352 116.424 145.907 116.424H143.471V120.398L145.907 120.419Z" fill="white"/>
<path d="M161.014 107.65C165.107 107.65 168.386 110.879 168.386 115.44C168.386 120.001 165.107 123.231 161.042 123.231C156.977 123.231 153.698 120.029 153.698 115.44C153.698 110.851 156.977 107.65 161.014 107.65ZM161.014 120.058C163.188 120.058 165.001 118.195 165.001 115.426C165.001 112.657 163.188 110.794 161.014 110.794C158.839 110.794 157.083 112.692 157.083 115.44C157.083 118.188 158.868 120.065 161.042 120.065L161.014 120.058Z" fill="white"/>
<path d="M171.439 108.004H174.477V109.108C174.477 109.668 174.428 110.157 174.428 110.157H174.477C174.897 109.386 175.521 108.745 176.28 108.304C177.039 107.863 177.905 107.639 178.783 107.657C182.402 107.657 184.711 110.829 184.711 115.447C184.711 120.171 182.112 123.237 178.599 123.237C177.831 123.225 177.078 123.025 176.405 122.655C175.732 122.285 175.16 121.755 174.739 121.113H174.69C174.744 121.538 174.77 121.966 174.767 122.395V128.691H171.439V108.004ZM177.997 120.093C179.831 120.093 181.354 118.436 181.354 115.49C181.354 112.657 179.987 110.829 178.047 110.829C176.29 110.829 174.661 112.246 174.661 115.518C174.661 117.82 175.816 120.093 177.997 120.093Z" fill="white"/>
<path d="M187.94 108.004H191.113V115.957C191.113 116.665 191.063 117.501 191.035 117.735H191.078C191.233 117.359 191.736 116.538 192.076 115.957L197.034 108.004H200.284V122.876H197.112V114.937C197.112 114.385 197.168 113.521 197.189 113.16H197.14C196.841 113.771 196.508 114.364 196.141 114.937L191.184 122.862H187.961L187.94 108.004Z" fill="white"/>
<path d="M207.119 111.148H202.714V108.004H214.86V111.148H210.426V122.862H207.119V111.148Z" fill="white"/>
<path d="M223.316 107.65C227.148 107.65 229.244 110.766 229.244 114.732C229.236 115.206 229.201 115.679 229.138 116.148H219.931C220.143 118.741 221.928 120.079 223.947 120.079C225.378 120.014 226.738 119.436 227.778 118.45L229.088 121.099C227.625 122.454 225.707 123.212 223.713 123.224C219.279 123.224 216.496 119.682 216.496 115.433C216.496 110.858 219.308 107.65 223.316 107.65ZM225.915 113.592C225.915 111.609 224.733 110.447 223.238 110.447C221.532 110.447 220.328 111.701 220.016 113.592H225.915Z" fill="white"/>
<path d="M231.248 119.746C232.898 119.484 234.081 117.94 234.081 112.664V108.004H243.84V122.876H240.512V111.007H237.254V112.664C237.254 119.137 235.71 122.862 231.277 123.011L231.248 119.746Z" fill="white"/>
<path d="M247.735 108.004H251.071V113.103H253.564C256.709 113.103 258.599 114.795 258.599 118.06C258.599 120.943 257.048 122.898 253.536 122.898H247.735V108.004ZM253.012 120.327C253.318 120.343 253.624 120.294 253.909 120.181C254.194 120.069 254.451 119.896 254.663 119.675C254.875 119.453 255.036 119.189 255.136 118.899C255.236 118.609 255.273 118.302 255.242 117.997C255.242 116.63 254.534 115.61 252.955 115.61H251.064V120.327H253.012Z" fill="white"/>
<path d="M261.248 108.004H264.577V113.74H270.292V108.004H273.628V122.876H270.292V116.856H264.577V122.855H261.248V108.004Z" fill="white"/>
<path d="M277.545 108.004H280.88V113.103H283.267C286.411 113.103 288.302 114.795 288.302 118.06C288.302 120.943 286.751 122.898 283.239 122.898H277.573L277.545 108.004ZM282.715 120.327C283.021 120.343 283.327 120.294 283.612 120.181C283.897 120.069 284.154 119.896 284.366 119.675C284.578 119.453 284.739 119.189 284.839 118.899C284.939 118.609 284.976 118.302 284.945 117.997C284.945 116.63 284.237 115.61 282.658 115.61H280.88V120.327H282.715ZM290.137 108.004H293.465V122.876H290.137V108.004Z" fill="white"/>
<path d="M297.396 108.004H300.569V115.957C300.569 116.665 300.519 117.501 300.491 117.735H300.548C300.703 117.359 301.199 116.538 301.546 115.957L306.504 108.004H309.726V122.876H306.553V114.937C306.553 114.385 306.603 113.521 306.631 113.159H306.582C306.28 113.769 305.947 114.362 305.583 114.937L300.625 122.862H297.396V108.004ZM299.259 102.557V102.175H301.808V102.557C301.79 102.796 301.823 103.036 301.904 103.262C301.984 103.487 302.112 103.693 302.277 103.866C302.443 104.039 302.643 104.175 302.865 104.266C303.087 104.356 303.325 104.399 303.565 104.392C303.807 104.398 304.049 104.354 304.274 104.261C304.498 104.169 304.701 104.031 304.869 103.855C305.037 103.68 305.167 103.471 305.25 103.243C305.332 103.015 305.366 102.771 305.349 102.529V102.175H307.863V102.557C307.863 105.121 305.845 106.573 303.565 106.573C301.284 106.573 299.259 105.121 299.259 102.557Z" fill="white"/>
<path d="M327.106 107.685V102.465H330.257V107.685C334.372 107.827 337.495 110.886 337.495 115.433C337.495 119.98 334.372 123.039 330.257 123.223V128.705H327.106V123.23C322.991 123.061 319.846 120.029 319.846 115.44C319.846 110.851 322.991 107.827 327.106 107.685ZM327.106 120.242V110.652C324.804 110.83 323.097 112.579 323.097 115.433C323.097 118.287 324.804 120.036 327.106 120.242ZM334.266 115.44C334.266 112.607 332.566 110.837 330.257 110.66V120.249C332.566 120.036 334.266 118.273 334.266 115.44Z" fill="white"/>
<path d="M347.141 107.65C351.228 107.65 354.507 110.879 354.507 115.44C354.507 120.001 351.228 123.231 347.163 123.231C343.098 123.231 339.804 120.008 339.804 115.44C339.804 110.872 343.098 107.65 347.141 107.65ZM347.141 120.058C349.323 120.058 351.129 118.195 351.129 115.426C351.129 112.657 349.323 110.794 347.141 110.794C344.96 110.794 343.183 112.685 343.183 115.426C343.183 118.167 344.989 120.065 347.163 120.065L347.141 120.058Z" fill="white"/>
<path d="M357.609 108.004H360.945V113.74H366.66V108.004H369.989V122.876H366.66V116.856H360.945V122.855H357.609V108.004Z" fill="white"/>
<path d="M374.082 119.888C375.555 117.501 375.866 113.655 375.866 111.092V108.004H385.704V119.888H387.616V126.361H384.606V122.862H375.527V126.361H372.432V119.888H374.082ZM382.375 119.888V110.978H379.039V111.686C379.039 113.931 378.806 117.352 377.417 119.902L382.375 119.888Z" fill="white"/>
<path fill-rule="evenodd" clip-rule="evenodd" d="M320.356 70.6875C320.356 70.6875 317.488 64.5897 312.693 64.5897C307.899 64.5897 305.03 69.3136 305.03 73.7329C305.03 80.2485 320.356 92.012 320.356 92.012C320.356 92.012 335.675 80.4114 335.675 73.7329C335.675 67.0543 329.436 64.5897 326.468 64.5897C323.501 64.5897 320.356 70.6875 320.356 70.6875Z" fill="white"/>
</svg>
