<svg width="155" height="67" viewBox="0 0 155 67" fill="none" xmlns="http://www.w3.org/2000/svg">
<g clip-path="url(#clip0)">
<path fill-rule="evenodd" clip-rule="evenodd" d="M98.0189 58.9486C98.0189 58.9486 102.593 54.2753 107.897 56.3794C114.147 58.8592 109.321 64.3169 104.672 62.7663C101.534 61.7202 98.0189 58.9486 98.0189 58.9486Z" fill="#7D68AC"/>
<path fill-rule="evenodd" clip-rule="evenodd" d="M97.6897 59.269C97.6897 59.269 103.94 60.2594 107.135 55.4639C110.9 49.8158 104.022 48.3505 101.063 52.3214C99.6292 54.4766 98.4945 56.8139 97.6897 59.269Z" fill="#7D68AC"/>
</g>
<g clip-path="url(#clip1)">
<path fill-rule="evenodd" clip-rule="evenodd" d="M2.00401 7.89544C2.00401 7.89544 3.01665 4.02823 6.47015 3.5383C10.5396 2.96126 9.63121 7.321 6.69303 7.90648C4.71001 8.30191 2.00401 7.89544 2.00401 7.89544Z" fill="#7D68AC"/>
<path fill-rule="evenodd" clip-rule="evenodd" d="M1.92627 8.1655C1.92627 8.1655 5.54503 6.79734 5.78804 3.28334C6.07554 -0.856106 1.97991 0.449944 1.61189 3.45485C1.50389 5.0334 1.60965 6.61815 1.92627 8.1655Z" fill="#7D68AC"/>
</g>
<g clip-path="url(#clip2)">
<path fill-rule="evenodd" clip-rule="evenodd" d="M145.538 29.1914C145.538 29.1914 147.768 25.8733 151.19 26.5479C155.222 27.343 152.929 31.1605 149.962 30.7459C147.959 30.4663 145.538 29.1914 145.538 29.1914Z" fill="#7D68AC"/>
<path fill-rule="evenodd" clip-rule="evenodd" d="M145.376 29.4207C145.376 29.4207 149.243 29.3205 150.63 26.0825C152.264 22.2686 147.967 22.1531 146.63 24.8693C146.008 26.3242 145.586 27.8554 145.376 29.4207Z" fill="#7D68AC"/>
</g>
<g clip-path="url(#clip3)">
<path fill-rule="evenodd" clip-rule="evenodd" d="M36.0482 45.7816C36.0482 45.7816 35.878 41.7876 39.0344 40.3031C42.7538 38.5541 43.1686 42.9881 40.5328 44.4123C38.754 45.3738 36.0482 45.7816 36.0482 45.7816Z" fill="#7D68AC"/>
<path fill-rule="evenodd" clip-rule="evenodd" d="M36.0532 46.0625C36.0532 46.0625 39.1091 43.6901 38.3073 40.2601C37.364 36.2194 33.834 38.6728 34.3665 41.653C34.7278 43.1934 35.2952 44.6769 36.0532 46.0625Z" fill="#7D68AC"/>
</g>
<g clip-path="url(#clip4)">
<path fill-rule="evenodd" clip-rule="evenodd" d="M17.4901 35.754C17.4901 35.754 12.2552 31.7656 13.6984 26.2075C15.3994 19.6583 21.4488 23.8004 20.4772 28.6359C19.8219 31.8997 17.4901 35.754 17.4901 35.754Z" fill="#7D68AC"/>
<path fill-rule="evenodd" clip-rule="evenodd" d="M17.8506 36.0433C17.8506 36.0433 18.064 29.6778 12.8783 27.0825C6.77038 24.0235 6.16051 31.0742 10.4934 33.537C12.8237 34.7011 15.2988 35.5442 17.8506 36.0433Z" fill="#7D68AC"/>
</g>
<g clip-path="url(#clip5)">
<path fill-rule="evenodd" clip-rule="evenodd" d="M122.954 47.9695C122.954 47.9695 124.8 39.386 132.33 37.9754C141.203 36.3139 139.633 45.9679 133.243 47.538C128.931 48.5984 122.954 47.9695 122.954 47.9695Z" fill="#7D68AC"/>
<path fill-rule="evenodd" clip-rule="evenodd" d="M122.809 48.5684C122.809 48.5684 130.616 45.2148 130.808 37.4811C131.037 28.3708 122.177 31.6344 121.662 38.2632C121.578 41.7372 121.964 45.2041 122.809 48.5684Z" fill="#7D68AC"/>
</g>
<g clip-path="url(#clip6)">
<path fill-rule="evenodd" clip-rule="evenodd" d="M60.8818 64.4168C60.8818 64.4168 59.9538 55.4398 66.8643 51.6643C75.0075 47.216 76.5466 57.1513 70.8011 60.7199C66.9236 63.129 60.8818 64.4168 60.8818 64.4168Z" fill="#7D68AC"/>
<path fill-rule="evenodd" clip-rule="evenodd" d="M60.9308 65.0473C60.9308 65.0473 67.4938 59.2845 65.2194 51.6646C62.5429 42.6875 54.9227 48.6974 56.5289 55.3405C57.5531 58.7625 59.034 62.0281 60.9308 65.0473Z" fill="#7D68AC"/>
</g>
<defs>
<clipPath id="clip0">
<rect width="13.014" height="13.014" fill="white" transform="translate(105.559 48.3804) rotate(50.3587)"/>
</clipPath>
<clipPath id="clip1">
<rect width="7.95544" height="7.95544" fill="white" transform="translate(2.80491) rotate(20.645)"/>
</clipPath>
<clipPath id="clip2">
<rect width="7.95544" height="7.95544" fill="white" transform="translate(148.894 22) rotate(39.8703)"/>
</clipPath>
<clipPath id="clip3">
<rect width="7.95544" height="7.95544" fill="white" transform="translate(34.49 38) rotate(3.53152)"/>
</clipPath>
<clipPath id="clip4">
<rect width="13.0969" height="13.0969" fill="white" transform="translate(6 29.5355) rotate(-46.7245)"/>
</clipPath>
<clipPath id="clip5">
<rect width="17.4722" height="17.4722" fill="white" transform="translate(123.944 30.568) rotate(18.1092)"/>
</clipPath>
<clipPath id="clip6">
<rect width="17.96" height="17.96" fill="white" transform="translate(56.3103 47.0936) rotate(0.0697554)"/>
</clipPath>
</defs>
</svg>
