<svg width="780" height="170" viewBox="0 0 780 170" fill="none" xmlns="http://www.w3.org/2000/svg">
<g clip-path="url(#clip0)">
<path d="M39.058 69.1373L55.2191 107.267C55.3227 107.451 55.2378 107.644 55.054 107.747C53.6872 108.76 51.8492 109.797 49.441 110.767C47.4994 111.619 45.5437 112.189 43.4891 112.669C43.3006 112.679 43.2016 112.589 43.1969 112.495L42.8767 111.755L42.015 109.624L40.7295 106.569C40.1974 105.367 39.6652 104.165 39.1238 102.775C38.5823 101.384 37.9465 99.9985 37.4003 98.5137L35.3848 94.0781L33.5672 89.8215L31.9567 85.9327L30.6665 82.7839L19.7472 87.39L32.2682 116.912C32.3719 117.096 32.287 117.289 32.1032 117.393C30.7364 118.406 28.8983 119.442 26.4902 120.412C24.5485 121.265 22.5928 121.834 20.5382 122.315C20.3497 122.324 20.2508 122.234 20.2461 122.14L8.61016 95.2198C8.07335 93.9235 7.45635 92.9147 6.84872 92.0944C6.24109 91.2742 5.6522 90.8309 5.26585 90.6611C4.87951 90.4914 4.39423 90.232 4.00789 90.0622C3.62154 89.8924 3.42368 89.7132 3.31538 89.4351C3.10816 89.0674 3.17429 88.4972 3.33467 87.9222C3.58929 87.3426 4.02303 86.5651 4.7395 85.7735C5.45597 84.9819 6.44581 83.9877 7.53457 83.0831C8.71758 82.1739 10.2682 81.0573 12.2005 80.0163C14.1281 78.8811 16.3431 77.826 18.8408 76.7569C23.6525 74.7223 30.2314 72.1274 38.5821 69.0665C38.8555 68.8639 38.9544 68.9535 39.058 69.1373Z" fill="#644F9A"/>
<path d="M77.1409 71.2135C81.1975 72.9963 83.9957 76.0701 85.54 80.5292C87.1832 85.0779 87.0124 89.2443 85.1311 93.2121C83.2451 97.0857 79.8893 99.8984 75.252 101.641C70.6101 103.289 66.3597 103.311 62.3973 101.524C58.435 99.7363 55.6321 96.5682 53.8947 92.0242C52.2515 87.4755 52.4223 83.3092 54.4025 79.4309C56.3827 75.5526 59.6443 72.7445 64.192 71.1011C68.8339 69.4529 73.1832 69.5202 77.1409 71.2135ZM74.4087 84.6733C73.4247 81.9818 72.2849 79.9595 70.8905 78.5169C69.5008 77.1685 68.0637 76.7675 66.485 77.3184C63.4218 78.4156 63.0344 82.0257 65.1249 87.9697C66.1042 90.5669 67.244 92.5892 68.6384 94.0318C70.0281 95.3802 71.4651 95.7813 72.9496 95.235C76.1071 94.1331 76.5934 90.6126 74.4087 84.6733Z" fill="#644F9A"/>
<path d="M119.934 80.6152C118.274 85.2336 114.748 88.4327 109.63 90.01C104.979 91.4697 100.809 91.2044 97.2141 89.2097C93.5251 87.2196 91.005 84.0375 89.6492 79.569C88.3075 75.3833 88.4028 71.5987 89.841 68.2198C91.2792 64.841 93.9045 62.5371 97.6274 61.4071C98.5558 61.0774 99.4935 60.9363 100.346 60.9884C101.199 61.0405 102.052 61.0926 102.721 61.2484C103.39 61.4041 103.97 61.6588 104.545 61.8192C105.124 62.0739 105.511 62.2437 105.708 62.4229C106.001 62.5973 106.099 62.6869 106.104 62.7812L106.293 62.7718C105.285 59.609 103.745 57.1341 101.573 55.2576C99.4015 53.3811 96.7345 52.9467 93.6666 53.9497C92.3613 54.298 91.1642 54.9245 90.0754 55.8291C88.9867 56.7337 88.077 57.4404 87.3559 58.1377C86.6347 58.835 86.2765 59.2308 86.088 59.2402C85.4377 59.4615 85.1409 59.1927 85.0091 58.4433C84.5104 56.0112 85.331 53.5135 87.3674 50.7663C89.4085 48.1135 91.963 46.2856 94.8471 45.3863C100.337 43.6959 105.195 44.494 109.525 47.9642C113.854 51.4344 117.142 56.7518 119.496 64.1946C121.511 70.5202 121.688 75.9922 119.934 80.6152ZM109.798 81.9695C110.236 81.2862 110.481 80.5181 110.434 79.5754C110.388 78.6328 110.341 77.6901 110.204 76.8464C110.068 76.0027 109.828 74.9752 109.489 73.8581C108.015 68.923 105.924 66.759 103.214 67.3662C101.81 67.625 101.009 68.6098 100.806 70.2263C100.602 71.8428 100.781 73.5349 101.355 75.5853C103.064 81.4537 105.273 84.0843 107.79 83.3922C108.718 83.0626 109.359 82.6528 109.798 81.9695Z" fill="#644F9A"/>
<path d="M155.896 66.6378C156.122 67.3825 156.075 68.3298 155.754 69.4797C155.433 70.6296 154.929 71.8832 154.24 73.2403C153.552 74.5975 152.383 75.7896 150.743 77.0051C149.197 78.2158 147.349 79.0636 145.205 79.6427C140.262 80.9278 135.899 80.5777 132.21 78.5876C128.426 76.6022 125.991 73.2269 124.72 68.5652C123.543 63.8989 124.002 59.8127 126.274 56.1089C128.551 52.4993 132.109 49.9601 137.241 48.6655C141.624 47.5027 145.219 47.6076 148.121 48.9753C151.024 50.343 152.724 52.2429 153.412 54.6656C153.873 56.3437 153.858 57.9508 153.363 59.3929C152.868 60.835 152.081 62.1025 150.997 63.1014C149.912 64.1002 148.725 64.9152 147.438 65.6407C146.147 66.2718 144.757 66.8134 143.357 67.1665C140.652 67.8679 138.682 68.1548 137.259 68.0365C137.904 69.6109 139.087 70.5916 140.811 71.0729C142.536 71.5541 144.336 71.6537 146.197 71.0887C147.969 70.6226 149.449 69.9821 150.825 69.1577C152.107 68.338 153.111 67.6267 153.832 66.9293C154.553 66.232 154.916 65.9305 155.1 65.8269C155.576 65.8977 155.774 66.0769 155.896 66.6378ZM135.528 57.9169C135.132 59.4485 135.127 61.2442 135.696 63.2004C136.163 63.0827 136.535 62.9697 137.006 62.9463C138.967 62.4708 140.338 61.5522 141.224 60.3742C142.111 59.1962 142.431 58.0463 142.092 56.9292C141.862 56.0901 141.457 55.5433 140.773 55.1048C140.095 54.7605 139.242 54.7084 138.215 54.9484C136.909 55.2968 135.92 56.291 135.528 57.9169Z" fill="#644F9A"/>
<path d="M194.527 62.6388C194.664 63.4825 194.258 64.8256 193.207 66.4843C192.16 68.2373 190.511 69.2642 188.362 69.749C186.119 70.2385 184.215 69.9551 182.467 69.0025C180.719 68.0499 179.692 66.4 179.198 64.0622L176.973 53.4946C176.836 52.6509 176.61 51.9062 176.398 51.4443C176.182 50.888 175.871 50.3365 175.466 49.7897C175.061 49.2428 174.472 48.7996 173.708 48.6485C172.945 48.4975 172.003 48.5443 170.886 48.8833C171.573 51.3061 172.147 53.3565 172.524 55.2277C172.99 57 173.286 59.1587 173.592 61.5059C173.897 63.8531 173.901 65.8374 173.599 67.3643C173.302 68.9856 172.713 70.4323 171.737 71.7093C170.761 72.9862 169.385 73.8106 167.608 74.1824C165.643 74.5635 163.933 74.3651 162.463 73.3042C160.998 72.3375 160.07 70.7772 159.689 68.8117C159.425 67.3128 159.454 65.9884 159.86 64.6453C160.265 63.3022 160.699 62.5247 161.17 62.5013C161.264 62.4966 161.552 62.5768 161.934 62.6523C162.32 62.8221 162.697 62.8034 163.074 62.7846C164.572 62.5212 165.449 61.1546 165.808 58.8689C166.167 56.5831 166.022 53.6609 165.283 50.2013C165.094 50.2106 164.722 50.3236 164.166 50.5403C163.61 50.7569 163.139 50.7803 162.86 50.8886C161.833 51.1287 161.159 50.8787 161.028 50.1293C160.774 48.8189 161.91 46.967 164.441 44.6678C167.066 42.3639 170.294 40.786 174.22 39.9294C177.867 39.1811 180.902 39.4083 183.512 40.6015C186.028 41.7995 187.761 44.3592 188.514 48.1017C188.528 48.3845 188.646 48.8511 188.773 49.5063C188.9 50.1614 189.046 51.1937 189.3 52.504C189.554 53.8143 189.813 55.2189 190.17 56.7131C190.777 59.4233 192.002 61.2524 193.83 61.9175C194.217 62.0873 194.414 62.2665 194.527 62.6388Z" fill="#644F9A"/>
<path d="M228.595 50.4565C229.018 53.2704 230.144 55.0099 231.788 55.7787C232.175 55.9484 232.377 56.2219 232.49 56.5942C232.626 57.4379 232.122 58.6915 230.976 60.3549C229.831 62.0182 228.087 63.0499 225.929 63.3461C224.148 63.6237 222.531 63.4205 221.264 62.633C219.997 61.8455 218.993 60.6669 218.353 59.1868C218.245 58.9087 218.132 58.5363 217.915 57.9801L217.727 57.9895C217 60.4825 215.869 62.4287 214.233 63.7384C212.598 65.0482 210.84 65.797 208.875 66.1782C206.438 66.5827 204.337 66.1202 202.575 64.8848C200.813 63.6494 199.669 61.5329 199.245 58.719L197.481 47.9395C197.072 45.4085 195.946 43.669 194.015 42.82C193.628 42.6502 193.426 42.3768 193.308 41.9102C193.167 40.9722 193.672 39.7187 194.817 38.0553C195.963 36.3919 197.612 35.365 199.865 35.064C202.113 34.6688 204.021 35.0464 205.679 36.098C207.338 37.1495 208.369 38.8937 208.769 41.2362L210.815 53.8916C210.965 55.0181 211.29 55.8524 211.79 56.3946C212.289 56.9368 212.864 57.0972 213.524 57.0644C214.461 56.9233 215.272 56.127 215.871 54.8688C216.47 53.6106 216.663 51.8055 216.278 49.7458L213.709 34.1869L213.879 33.8005C215.736 33.1412 217.691 32.5716 219.755 32.28C221.631 31.9978 223.605 31.8051 225.5 31.9C225.599 31.9896 225.697 32.0792 225.707 32.2677C225.712 32.3619 226.676 38.4563 228.595 50.4565Z" fill="#644F9A"/>
<path d="M286.823 51.0589C286.865 51.9073 286.266 53.1655 285.021 54.7393C283.777 56.3131 282.029 57.2505 279.771 57.4572C277.514 57.6639 275.695 57.1873 274.127 56.0368C272.558 54.8863 271.715 53.1327 271.503 50.7808L270.301 37.989C270.089 35.6371 269.374 34.5387 268.148 34.5996C267.206 34.6465 266.485 35.3438 265.98 36.5973C265.476 37.8509 265.277 39.5617 265.475 41.6308L267.006 57.2411C267.016 57.4297 266.926 57.5286 266.742 57.6322C265.164 58.1832 263.198 58.5644 261.036 58.7663C259.25 58.9496 257.266 58.9537 255.178 58.774C254.99 58.7833 254.891 58.6938 254.882 58.5052L253.092 39.6003C252.88 37.2484 252.164 36.15 250.939 36.2109C249.997 36.2577 249.276 36.9551 248.771 38.2086C248.267 39.4621 248.068 41.1729 248.265 43.2421L249.797 58.8524C249.806 59.041 249.717 59.1399 249.533 59.2435C247.954 59.7945 245.989 60.1756 243.826 60.3776C241.946 60.5656 239.868 60.5744 237.781 60.3946C237.592 60.404 237.493 60.3144 237.484 60.1259C237.545 59.4613 237.052 53.3435 235.906 41.6829C235.732 40.0851 235.483 38.869 235.064 38.0394C234.644 37.2098 233.952 36.5827 233.076 36.0593C232.689 35.8895 232.487 35.6161 232.468 35.239C232.426 34.3906 233.025 33.1324 234.269 31.5586C235.513 29.9848 237.267 29.1417 239.524 28.935C241.404 28.7471 242.931 29.0492 244.203 29.9309C245.475 30.8127 246.384 31.996 246.935 33.575C246.939 33.6693 247.052 34.0417 247.283 34.8807L247.471 34.8713C249.037 30.2576 251.842 27.7558 255.885 27.3659C257.859 27.1733 259.673 27.5556 261.237 28.6118C262.802 29.668 263.918 31.219 264.586 33.2647L264.775 33.2553C266.341 28.6417 269.145 26.1399 273.188 25.7499C275.54 25.5386 277.552 26.1 279.323 27.524C281.094 28.9479 282.05 31.0738 282.384 33.9866C282.417 34.6464 282.586 36.15 282.797 38.5019C283.009 40.8538 283.206 42.9229 283.38 44.5208C283.615 47.344 284.651 49.1824 286.493 50.1303C286.601 50.4084 286.804 50.6819 286.823 51.0589Z" fill="#644F9A"/>
<path d="M316.914 34.9164C319.081 36.6986 320.249 39.2865 320.314 42.4961C320.501 46.2667 319.153 49.5466 316.447 52.138C313.742 54.7294 310.316 56.1281 306.259 56.2353C303.62 56.3664 301.24 56.0122 299.224 55.3565C297.207 54.7007 295.553 53.7434 294.456 52.5695C293.358 51.3956 292.444 50.1181 291.809 48.7322C291.173 47.3464 290.914 45.9418 290.839 44.4336L290.54 36.5107C290.324 34.0645 289.391 32.4099 287.738 31.4526C287.351 31.2828 287.144 30.9152 287.125 30.5381C287.078 29.5955 287.776 28.4268 289.12 26.9426C290.463 25.4584 292.31 24.6106 294.483 24.5971C296.65 24.4894 298.474 25.0602 300.038 26.1165C301.607 27.2669 302.346 28.8366 302.458 31.099L302.495 33.7431C304.442 32.9849 306.501 32.599 308.669 32.4913C312.057 32.2284 314.747 33.1341 316.914 34.9164ZM308.416 42.615C308.336 41.0125 307.898 39.8058 307.192 38.896C306.485 37.9861 305.331 37.571 304.012 37.6366C303.635 37.6553 303.163 37.6787 302.791 37.7917L303.029 44.4892C303.203 47.9769 304.046 49.7305 305.836 49.6415C307.726 49.6421 308.556 47.3329 308.416 42.615Z" fill="#644F9A"/>
<path d="M351.995 37.4251C350.925 38.7068 349.351 39.352 347.179 39.3655C345.949 39.3321 344.894 39.0066 343.923 38.4878C342.948 37.8748 342.448 37.3326 342.51 36.6681C342.496 36.3853 342.567 35.9093 342.718 35.1458C342.869 34.3824 342.836 33.7225 342.911 33.3408C342.983 30.9748 342.163 29.6926 340.556 29.6779C339.232 29.6492 338.139 30.4596 337.281 32.2032C336.418 33.8525 335.946 35.7659 335.865 37.9433C335.808 40.5921 336.576 42.7274 337.989 44.5471C339.402 46.3668 341.715 47.2913 344.835 47.3252C346.536 47.3352 348.312 46.9634 350.169 46.3041C352.021 45.5506 353.044 45.2163 353.232 45.2069C353.704 45.1835 353.906 45.4569 353.934 46.0225C353.929 47.8182 352.614 49.868 349.894 52.1766C347.175 54.4852 343.928 55.686 340.049 55.5953C334.758 55.5748 330.711 53.9805 327.917 51.0009C325.119 47.9271 323.702 44.1232 323.755 39.4902C323.813 34.9515 325.421 31.1862 328.484 28.199C331.638 25.1129 335.818 23.6767 340.921 23.7065C344.606 23.7124 347.673 24.5994 350.029 26.3722C352.384 28.1451 353.628 30.3512 353.575 33.0943C353.655 34.6968 353.16 36.1388 351.995 37.4251Z" fill="#644F9A"/>
<path d="M391.573 52.4676C391.521 53.3207 390.729 54.494 389.282 55.7944C387.745 57.1937 385.884 57.7587 383.707 57.6779C381.431 57.5075 379.692 56.7434 378.397 55.3904C377.101 54.0373 376.442 52.1801 376.608 49.8095L376.849 45.1671C376.19 45.1999 375.243 45.1525 374.102 45.0202C372.418 52.9471 369.019 56.8014 363.714 56.4981C361.819 56.4033 360.274 55.7241 358.992 54.6538C357.711 53.5836 357.16 52.0045 357.349 50.1052C357.467 48.6818 357.873 47.3387 358.576 46.2643C359.273 45.0957 359.91 44.5916 360.385 44.6624C360.48 44.6578 360.673 44.7427 360.965 44.9171C361.257 45.0916 361.643 45.2614 362.223 45.5161C362.798 45.6765 363.373 45.8369 363.943 45.9031C364.607 45.9646 365.262 45.8375 366.002 45.5173C366.742 45.197 367.19 44.7022 367.35 44.1273C364.971 43.7731 362.841 42.745 361.15 41.0336C359.364 39.3269 358.592 37.0973 358.739 34.3496C358.952 31.0316 360.621 28.4918 363.845 26.8196C367.068 25.1474 370.814 24.4888 375.084 24.8436C379.815 24.9864 383.659 26.3073 386.231 28.6364C388.893 30.8665 390 34.1189 389.541 38.205L388.87 45.6092C388.728 48.4511 389.392 50.4026 391.059 51.6426C391.446 51.8124 391.559 52.1848 391.573 52.4676ZM377.445 40.0347L377.743 36.5235C377.856 35.0059 377.611 33.8841 377.192 33.0545C376.773 32.2248 375.902 31.7957 374.573 31.6727C373.527 31.5357 372.598 31.8654 371.971 32.558C371.25 33.2553 370.911 34.0282 370.868 35.0697C370.839 36.3941 371.178 37.5112 371.885 38.4211C372.69 39.4205 373.944 39.9252 375.649 40.0294L377.445 40.0347Z" fill="#644F9A"/>
<path d="M430.779 48.6291L424.785 47.793L423.133 60.1598C423.142 60.3483 422.958 60.4519 422.77 60.4613C421.078 60.6399 419.089 60.5497 416.715 60.2897C414.811 60.0064 412.804 59.5391 410.787 58.8834C410.594 58.7985 410.589 58.7042 410.58 58.5157C410.834 57.9361 411.666 51.847 413.262 40.239C413.465 38.6225 413.498 37.3924 413.263 36.4591C413.027 35.5258 412.519 34.7951 411.821 34.0738C411.525 33.8051 411.317 33.4374 411.398 33.1499C411.544 32.2922 412.341 31.2131 413.981 29.9976C415.621 28.7821 417.487 28.3114 419.673 28.5807C421.86 28.85 423.608 29.8026 424.814 31.2547C426.024 32.8009 426.49 34.5732 426.221 36.76L425.598 41.3269L431.591 42.1629L432.961 31.7002C432.951 31.5117 433.041 31.4127 433.229 31.4034C435.11 31.2154 437.098 31.3056 439.002 31.589C441.188 31.8583 443.101 32.3302 444.741 33.0047C444.84 33.0943 444.939 33.1838 444.849 33.2828L442.549 51.635C442.214 54.3921 442.788 56.4425 444.272 57.7862C444.569 58.0549 444.776 58.4226 444.696 58.7101C444.549 59.5678 443.753 60.6469 442.112 61.8624C440.472 63.0778 438.606 63.5486 436.42 63.2792C434.233 63.0099 432.486 62.0573 431.28 60.6053C430.074 59.1533 429.598 57.1925 429.957 54.9067L430.779 48.6291Z" fill="#644F9A"/>
<path d="M478.42 60.5303C478.269 61.2938 477.84 62.1656 477.034 63.0561C476.232 64.0409 475.238 64.9408 474.05 65.7558C472.867 66.6651 471.293 67.3103 469.328 67.6915C467.363 68.0726 465.384 68.171 463.188 67.7131C458.137 66.8302 454.439 64.6516 451.904 61.1867C449.375 57.816 448.509 53.7012 449.406 48.9318C450.307 44.2566 452.495 40.746 456.058 38.301C459.625 35.9502 464.032 35.2588 469.083 36.1417C473.469 36.9631 476.763 38.5949 478.774 41.0463C480.786 43.4978 481.572 46.0101 481.128 48.4891C480.835 50.2046 480.147 51.5618 479.072 52.7491C477.993 53.8422 476.805 54.6573 475.316 55.1093C473.827 55.5613 472.423 55.82 471.009 55.8903C469.595 55.9606 468.078 55.847 466.65 55.6344C463.884 55.1104 461.967 54.5443 460.798 53.8464C460.694 55.5525 461.424 56.9337 462.715 58.1925C464.006 59.4513 465.65 60.22 467.554 60.5034C469.363 60.7914 470.975 60.9003 472.572 60.7265C474.075 60.5572 475.291 60.3078 476.219 59.9782C477.148 59.6486 477.614 59.5309 477.902 59.6111C478.378 59.6819 478.486 59.96 478.42 60.5303ZM463.614 43.9732C462.54 45.1606 461.865 46.8006 461.497 48.8978C461.973 48.9686 462.355 49.0442 462.835 49.2093C464.838 49.5822 466.435 49.4083 467.722 48.6829C469.009 47.9575 469.72 47.0716 469.952 46.0207C470.098 45.1629 469.971 44.5078 469.561 43.8667C469.151 43.2255 468.374 42.7917 467.328 42.6547C465.891 42.2536 464.684 42.6916 463.614 43.9732Z" fill="#644F9A"/>
<path d="M538.551 76.6301C538.08 78.5435 536.647 80.1267 534.257 81.4739C531.868 82.8211 529.144 83.1455 526.176 82.348C522.637 81.4844 520.367 79.5183 519.171 76.3649C517.979 73.3057 517.806 69.8179 518.749 65.9912L517.312 65.5901L514.519 77.8245C514.529 78.0131 514.34 78.0224 514.246 78.0271C512.352 77.9322 510.354 77.6536 508.441 77.1817C506.24 76.6295 504.318 75.9691 502.763 75.1014C502.664 75.0118 502.66 74.9176 502.65 74.729L505.924 62.6597L504.105 62.1831C502.997 64.6006 501.781 66.74 500.442 68.3185C499.014 69.9959 497.652 71.1031 496.172 71.7436C494.692 72.3842 493.387 72.7325 492.166 72.8877C490.946 73.0428 489.81 73.0048 488.665 72.7782C485.899 72.2542 483.954 71.1224 482.927 69.4725C481.9 67.8226 481.425 65.8618 481.793 63.7646C482.001 62.2423 482.689 60.8851 483.863 59.7873C485.036 58.6895 486.53 58.3318 488.255 58.8131C489.117 59.0537 489.89 59.3933 490.478 59.8365C491.067 60.2797 491.373 60.737 491.204 61.1234C490.874 62.0848 490.624 62.7587 490.548 63.1404C490.072 64.9595 490.312 65.9871 491.362 66.2183C492.032 66.3741 492.762 65.8653 493.366 64.7013C493.969 63.5374 494.558 62.0906 494.955 60.559C496.691 53.6689 495.259 49.5822 490.571 48.3978C489.902 48.242 488.955 48.1946 487.918 48.2461C486.882 48.2976 486.222 48.3304 486.128 48.3351C485.746 48.2596 485.539 47.8919 485.699 47.3169C486.171 45.4036 487.604 43.8204 489.993 42.4732C492.383 41.126 495.107 40.8016 498.075 41.599C501.138 42.3918 503.394 44.0751 504.76 46.8421C506.215 49.5102 506.478 52.899 505.549 57.0086L507.268 57.3956L509.826 46.1178C509.816 45.9293 510.005 45.9199 510.099 45.9153C511.993 46.0101 513.991 46.2888 515.998 46.756C518.199 47.3081 520.027 47.9733 521.676 48.8363C521.775 48.9259 521.78 49.0201 521.789 49.2086L518.751 60.3213L520.664 60.7932C521.687 58.5689 522.828 56.8112 524.077 55.3317C525.326 53.8522 526.693 52.8393 528.079 52.2034C529.464 51.5676 530.765 51.1249 531.99 51.0641C533.211 50.9089 534.44 50.9423 535.585 51.1689C538.351 51.6929 540.297 52.8246 541.324 54.4745C542.351 56.1244 542.821 57.991 542.552 60.1778C542.344 61.7001 541.656 63.0573 540.482 64.155C539.309 65.2528 537.81 65.5163 535.996 65.134C535.134 64.8934 534.361 64.5538 533.772 64.1106C533.183 63.6673 532.877 63.2101 533.047 62.8236C533.386 62.0508 533.632 61.2826 533.787 60.6134C534.174 58.8932 533.939 57.96 532.884 57.6344C532.214 57.4787 531.484 57.9875 530.88 59.1514C530.277 60.3154 529.683 61.6679 529.296 63.3881C527.56 70.2781 528.991 74.3648 533.679 75.5493C534.349 75.705 535.296 75.7525 536.332 75.7009C537.369 75.6494 538.029 75.6166 538.123 75.6119C538.604 75.777 538.712 76.0552 538.551 76.6301Z" fill="#644F9A"/>
<path d="M562.474 78.9375L556.622 77.1494L553.057 89.0442C552.972 89.2374 552.882 89.3364 552.694 89.3457C550.988 89.2415 548.985 88.8686 546.776 88.1279C544.952 87.5571 543.119 86.7977 541.178 85.7602C541.079 85.6706 540.98 85.5811 541.065 85.3878C541.414 84.8035 543.296 78.9457 546.711 67.8143C547.201 66.278 547.423 65.0385 547.282 64.1006C547.235 63.1579 546.816 62.3283 546.208 61.508C545.907 61.145 545.893 60.8622 545.968 60.4805C546.209 59.618 547.203 58.7181 549.046 57.7761C550.795 56.8387 552.769 56.6461 554.88 57.2971C556.991 57.9482 558.56 59.0987 559.492 60.7533C560.425 62.4079 560.613 64.2885 559.962 66.3998L558.575 70.8155L564.427 72.6036L567.512 62.4336C567.597 62.2404 567.691 62.2358 567.785 62.2311C569.684 62.4202 571.592 62.7978 573.51 63.364C575.621 64.0151 577.454 64.7744 579.008 65.6421C579.107 65.7317 579.112 65.826 579.121 66.0145L573.763 83.6682C572.952 86.3545 573.154 88.5179 574.459 90.0594C574.76 90.4224 574.774 90.7052 574.699 91.087C574.458 91.9494 573.464 92.8493 571.621 93.7914C569.873 94.7287 567.898 94.9214 565.787 94.2703C563.676 93.6192 562.108 92.4687 561.081 90.8188C560.054 89.1689 559.956 87.1894 560.696 84.9792L562.474 78.9375Z" fill="#644F9A"/>
<path d="M610.741 78.7121C613.006 82.4739 613.495 86.6074 612.212 91.2071C610.929 95.8067 608.36 99.2417 604.491 101.229C600.621 103.217 596.3 103.715 591.603 102.343C586.91 101.064 583.381 98.4988 581.21 94.7323C578.945 90.9705 578.545 86.738 579.828 82.1384C581.111 77.5388 583.685 74.198 587.55 72.116C591.419 70.1282 595.65 69.7289 600.343 71.0076C605.041 72.3806 608.57 74.9456 610.741 78.7121ZM600.715 87.9986C601.522 85.2181 601.688 82.8474 601.405 80.9715C601.123 79.0956 600.12 77.917 598.49 77.431C595.328 76.5487 592.91 79.2203 591.231 85.3516C590.514 88.0331 590.254 90.4085 590.536 92.2844C590.818 94.1603 591.727 95.3436 593.358 95.8295C596.613 96.7072 599.036 94.1298 600.715 87.9986Z" fill="#644F9A"/>
<path d="M643.07 96.1936C641.704 97.2065 640.017 97.4794 638.009 97.0121C636.86 96.6913 635.889 96.1725 634.999 95.3663C634.203 94.5554 633.793 93.9143 633.953 93.3394C634.038 93.1461 634.199 92.5712 634.449 91.8973C634.694 91.1291 634.948 90.5495 635.024 90.1678C635.571 87.8726 635.124 86.4774 633.498 86.0857C632.254 85.7695 630.963 86.4007 629.709 87.786C628.46 89.2655 627.602 91.0091 627.045 93.1157C626.418 95.6983 626.625 97.956 627.675 100.077C628.725 102.198 630.685 103.613 633.743 104.311C635.368 104.703 637.164 104.708 639.133 104.422C641.103 104.135 642.229 103.984 642.423 104.069C642.899 104.14 643.106 104.508 642.945 105.083C642.558 106.803 640.753 108.499 637.718 110.162C634.683 111.824 631.116 112.285 627.29 111.341C622.22 110.081 618.606 107.71 616.445 104.132C614.377 100.549 613.893 96.5098 614.893 91.9242C615.903 87.5272 618.288 84.1958 622.049 81.9299C625.81 79.664 630.221 79.0668 635.196 80.3315C638.829 81.1904 641.552 82.756 643.46 85.0236C645.368 87.2912 646.055 89.714 645.428 92.2966C645.314 93.8142 644.433 95.0865 643.07 96.1936Z" fill="#644F9A"/>
<path d="M695.336 119.394C695.189 120.251 694.294 121.241 692.559 122.461C690.825 123.681 688.949 123.963 686.852 123.595C684.657 123.137 683.003 122.18 681.792 120.634C680.676 119.083 680.295 117.117 680.748 114.827L683.141 102.14C683.594 99.8494 683.245 98.5438 682.006 98.3219C681.054 98.1802 680.225 98.5994 679.334 99.6831C678.443 100.767 677.858 102.308 677.486 104.311L674.569 119.764C674.578 119.953 674.395 120.056 674.206 120.066C672.51 120.15 670.611 119.961 668.42 119.597C666.61 119.309 664.787 118.739 662.761 117.894C662.568 117.809 662.563 117.715 662.554 117.527L666.07 98.9249C666.523 96.6345 666.174 95.3288 664.935 95.1069C663.983 94.9653 663.154 95.3845 662.263 96.4682C661.372 97.552 660.787 99.093 660.414 101.096L657.498 116.549C657.507 116.738 657.323 116.842 657.135 116.851C655.439 116.935 653.54 116.746 651.349 116.383C649.44 116.005 647.523 115.439 645.501 114.689C645.308 114.604 645.303 114.51 645.294 114.321C645.549 113.741 646.757 107.634 648.928 96.186C649.225 94.5648 649.258 93.3347 649.122 92.491C648.981 91.553 648.467 90.7281 647.775 90.101C647.478 89.8323 647.365 89.4599 647.441 89.0782C647.587 88.2204 648.483 87.2309 650.222 86.105C651.867 84.9838 653.832 84.6027 655.928 84.9709C657.742 85.3533 659.099 86.0418 660.103 87.2204C661.106 88.399 661.648 89.7895 661.732 91.4863C661.737 91.5805 661.666 92.0565 661.703 92.8106L661.892 92.8013C664.715 88.7866 668.132 87.1993 672.043 87.9499C674.046 88.3228 675.6 89.1905 676.806 90.6426C678.012 92.0946 678.667 93.8575 678.68 96.0303L678.869 96.0209C681.692 92.0062 685.109 90.4189 689.02 91.1695C691.31 91.6227 693.161 92.7591 694.386 94.5882C695.611 96.4172 696.011 98.7598 695.491 101.621C695.336 102.29 695.034 103.817 694.581 106.107C694.128 108.398 693.755 110.401 693.462 112.116C692.938 114.882 693.418 116.938 694.907 118.376C695.303 118.734 695.411 119.012 695.336 119.394Z" fill="#644F9A"/>
<path d="M727.372 108.163C729.181 110.341 729.882 113.046 729.471 116.185C728.999 119.988 727.16 122.915 724.05 124.959C720.939 127.004 717.391 127.842 713.395 127.284C710.733 126.944 708.523 126.204 706.586 125.26C704.65 124.317 703.265 123.063 702.346 121.691C701.428 120.319 700.792 118.933 700.435 117.439C700.077 115.945 700.007 114.531 700.219 113.103L701.244 105.209C701.409 102.838 700.844 100.976 699.365 99.727C699.068 99.4583 698.866 99.1848 698.937 98.7088C699.078 97.7568 699.969 96.6731 701.515 95.4623C703.155 94.2468 705.022 93.7761 707.208 94.0454C709.394 94.3147 711.137 95.1731 712.433 96.5261C713.728 97.8792 714.289 99.6468 713.925 101.838L713.486 104.412C715.545 104.026 717.619 103.923 719.81 104.286C723.042 104.693 725.563 105.985 727.372 108.163ZM717.663 114.315C717.871 112.793 717.711 111.478 717.094 110.469C716.477 109.46 715.502 108.847 714.168 108.63C713.787 108.554 713.41 108.573 712.938 108.597L712.041 115.256C711.555 118.777 712.214 120.634 713.924 120.832C715.828 121.116 717.04 118.882 717.663 114.315Z" fill="#644F9A"/>
<path d="M775.149 105.694C777.669 108.876 778.719 112.887 778.298 117.727C777.877 122.568 776.175 126.338 773.191 129.037C770.203 131.643 766.292 132.782 761.452 132.361C757.089 132.011 753.612 130.483 751.026 127.871C748.44 125.259 747.135 121.828 747.023 117.675L745.219 117.481L744.212 129.533C744.221 129.721 744.037 129.825 743.849 129.834C742.162 130.107 740.178 130.111 737.808 129.945C735.909 129.756 733.906 129.383 731.894 128.822C731.701 128.737 731.696 128.643 731.692 128.548C731.942 127.874 732.49 121.799 733.516 110.125C733.625 108.513 733.564 107.288 733.328 106.355C733.093 105.421 732.49 104.695 731.703 104.073C731.407 103.804 731.204 103.531 731.28 103.149C731.332 102.296 732.128 101.217 733.67 99.912C735.211 98.607 737.072 98.042 739.254 98.217C741.436 98.3921 743.179 99.2504 744.479 100.698C745.779 102.145 746.339 103.913 746.169 106.189L745.692 111.788L747.59 111.977C748.529 108.056 750.462 105.125 753.38 102.996C756.396 100.956 759.944 100.118 764.213 100.473C769.043 100.705 772.629 102.512 775.149 105.694ZM766.621 116.607C767.231 109.867 766.017 106.337 763.076 106.105C760.136 105.873 758.406 109.077 757.801 115.911C757.191 122.651 758.401 126.087 761.341 126.319C764.281 126.551 766.012 123.346 766.621 116.607Z" fill="#644F9A"/>
</g>
<defs>
<clipPath id="clip0">
<rect width="773" height="131" fill="white" transform="translate(0.719353 39.1028) rotate(-2.8453)"/>
</clipPath>
</defs>
</svg>
