<svg width="32" height="32" viewBox="0 0 32 32" fill="none" xmlns="http://www.w3.org/2000/svg">
<circle cx="16" cy="16" r="16" fill="#E9E9E9"/>
<path fill-rule="evenodd" clip-rule="evenodd" d="M16 15.3333C15.6318 15.3333 15.3333 15.6318 15.3333 16V22C15.3333 22.3682 15.6318 22.6667 16 22.6667H22C22.3682 22.6667 22.6667 22.3682 22.6667 22V16C22.6667 15.6318 22.3682 15.3333 22 15.3333H16ZM14 16C14 14.8954 14.8954 14 16 14H22C23.1046 14 24 14.8954 24 16V22C24 23.1046 23.1046 24 22 24H16C14.8954 24 14 23.1046 14 22V16Z" fill="#644F9A"/>
<path fill-rule="evenodd" clip-rule="evenodd" d="M11 10.3333C10.8232 10.3333 10.6536 10.4036 10.5286 10.5286C10.4036 10.6536 10.3333 10.8232 10.3333 11V17C10.3333 17.1768 10.4036 17.3464 10.5286 17.4714C10.6536 17.5964 10.8232 17.6667 11 17.6667H11.6667C12.0349 17.6667 12.3333 17.9651 12.3333 18.3333C12.3333 18.7015 12.0349 19 11.6667 19H11C10.4696 19 9.96086 18.7893 9.58579 18.4142C9.21071 18.0391 9 17.5304 9 17V11C9 10.4696 9.21071 9.96086 9.58579 9.58579C9.96086 9.21071 10.4696 9 11 9H17C17.5304 9 18.0391 9.21071 18.4142 9.58579C18.7893 9.96086 19 10.4696 19 11V11.6667C19 12.0349 18.7015 12.3333 18.3333 12.3333C17.9651 12.3333 17.6667 12.0349 17.6667 11.6667V11C17.6667 10.8232 17.5964 10.6536 17.4714 10.5286C17.3464 10.4036 17.1768 10.3333 17 10.3333H11Z" fill="#644F9A"/>
</svg>
