<svg width="91" height="27" viewBox="0 0 91 27" fill="none" xmlns="http://www.w3.org/2000/svg">
<path fill-rule="evenodd" clip-rule="evenodd" d="M13.2476 0C5.9425 0 0 5.8867 0 13.1232C0 20.3597 5.9425 26.2464 13.2476 26.2464C20.5527 26.2464 26.4952 20.3597 26.4952 13.1232C26.4952 5.8867 20.5527 0 13.2476 0ZM75.852 9.93616C75.5113 9.56121 75.0571 9.29875 74.4137 9.29875C73.3539 9.26125 72.5969 10.1611 72.559 11.361V11.5109C72.559 12.7858 73.316 13.6482 74.3758 13.6482C75.0193 13.6482 75.4735 13.4232 75.8141 13.0107L75.852 12.9732C76.0413 12.6733 76.4198 12.5608 76.7226 12.7483L78.88 13.9856L78.4637 14.5855C77.631 15.7104 76.3819 16.5353 74.3001 16.5353C71.6128 16.5353 69.3039 14.5105 69.3039 11.5484V11.3235C69.3039 8.36137 71.6506 6.37415 74.338 6.37415C76.3819 6.37415 77.6688 7.19903 78.5015 8.36137L78.9179 8.96129L76.7604 10.1986C76.4576 10.3861 76.0791 10.2736 75.8898 9.97365L75.852 9.93616ZM45.1552 17.96C44.9281 17.8475 44.966 17.5101 44.966 17.5101V14.248C44.966 13.9106 44.701 13.5731 44.3225 13.5731C43.7169 13.5731 43.6791 13.2732 43.6791 12.8982V7.53645V7.34898C43.6791 6.97403 43.3763 6.67407 42.9978 6.67407H34.4814C34.3679 6.67407 34.2543 6.74906 34.2543 6.86155V7.12401C34.2543 7.27399 34.33 7.31149 34.4814 7.38648C34.6328 7.46146 34.6707 7.64894 34.6707 7.76142V9.74865C34.6707 11.9609 34.2543 12.6358 33.4973 13.5731H33.0431C32.6646 13.5731 32.3618 13.8731 32.3618 14.248V18.6724H34.6707C35.0492 18.6724 35.352 18.3725 35.352 17.9975V16.9477C35.352 16.5727 35.6548 16.2728 36.0333 16.2728H41.3702C41.7487 16.2728 42.0515 16.5727 42.0515 16.9477V17.9975C42.0515 18.3725 42.3543 18.6724 42.7328 18.6724H45.2309C45.3445 18.6724 45.458 18.5974 45.458 18.485V18.26C45.3958 18.106 45.3081 18.0532 45.2158 17.9976L45.2157 17.9976L45.2157 17.9976L45.2156 17.9976C45.1956 17.9855 45.1754 17.9734 45.1552 17.96ZM40.4238 12.8982C40.4238 13.2732 40.386 13.5731 39.7804 13.5731H36.9416C37.5472 12.7858 37.85 11.6609 37.85 10.0861V9.26123H39.7804C40.1589 9.26123 40.4617 9.29873 40.4617 9.89864V12.8982H40.4238ZM90.6136 15.5604C90.3865 15.4479 90.4243 15.1104 90.4243 15.1104V14.8855V6.67407H88.7589C88.3047 6.67407 87.9262 6.86155 87.6234 7.12401L87.5099 7.2365L84.2926 10.4236C84.2547 10.4611 84.2169 10.4986 84.1412 10.4986C84.0276 10.4986 83.9141 10.3861 83.9141 10.2736V7.57395V7.38648C83.9141 7.01153 83.6113 6.71157 83.2328 6.71157H80.5454C80.4318 6.71157 80.3183 6.78656 80.3183 6.89904V7.12401C80.3183 7.27399 80.394 7.31149 80.5454 7.38648C80.7725 7.49896 80.7346 7.83641 80.7346 7.83641V16.2728H82.4001C82.8543 16.2728 83.2328 16.0853 83.5356 15.8228L83.6491 15.7103L86.8286 12.5608C86.8664 12.5233 86.9421 12.4858 86.98 12.4858C87.0935 12.4858 87.2071 12.5983 87.2071 12.7108V15.3729V15.5604C87.2071 15.9353 87.5099 16.2353 87.8884 16.2353H90.5757C90.6893 16.2353 90.8028 16.1603 90.8028 16.0478V15.8228C90.8364 15.7229 90.7805 15.6822 90.6615 15.5955C90.6465 15.5846 90.6305 15.5729 90.6136 15.5604ZM56.5859 15.1104C56.5859 15.1104 56.548 15.4479 56.7751 15.5604C56.7983 15.5776 56.8205 15.593 56.8412 15.6074C56.956 15.6869 57.0227 15.7333 56.9265 15.8603V16.0853C56.9265 16.1978 56.813 16.2728 56.6994 16.2728H54.0121C53.6336 16.2728 53.3308 15.9728 53.3308 15.5979V12.7108C53.3308 12.5983 53.2172 12.4858 53.1037 12.4858C53.0658 12.4858 52.9901 12.5233 52.9523 12.5608L49.7728 15.7103L49.6593 15.8228C49.3943 16.0853 48.978 16.2728 48.5238 16.2728H46.8962V7.83641C46.8962 7.83641 46.9341 7.49896 46.707 7.38648C46.5556 7.31149 46.4799 7.27399 46.4799 7.12401V6.89904C46.4799 6.78656 46.5934 6.71157 46.707 6.71157H49.3943C49.7728 6.71157 50.0756 7.01153 50.0756 7.38648V10.2736C50.0756 10.3861 50.1892 10.4986 50.3027 10.4986C50.3784 10.4986 50.4163 10.4611 50.4541 10.4236L53.6714 7.2365L53.785 7.12401C54.0499 6.86155 54.4663 6.67407 54.9205 6.67407H56.5859V14.8855V15.1104ZM65.2915 11.8109C65.0265 11.5484 65.0265 11.136 65.2915 10.8735L69.5307 6.67409H65.8971C65.5186 6.67409 65.0265 6.89906 64.7616 7.12403L63.3232 8.54884C63.0583 8.8113 62.869 8.73631 62.869 8.36136V7.3115C62.869 6.93656 62.5662 6.6366 62.1877 6.6366H59.5004C59.3868 6.6366 59.2733 6.71159 59.2733 6.82407V7.12403C59.2733 7.27401 59.349 7.3115 59.5004 7.38649C59.7275 7.49898 59.6896 7.83643 59.6896 7.83643V15.1104V16.2728H62.1877C62.5662 16.2728 62.869 15.9728 62.869 15.5979V15.0729V13.6106L65.0644 15.7854C65.3293 16.0478 65.8214 16.2353 66.1999 16.2353H69.19C69.5685 16.2353 69.6442 16.0103 69.3793 15.7854L65.2915 11.8109ZM12.415 9.26123H14.3453C14.7238 9.26123 15.0266 9.33622 15.0266 9.86115V12.8982C15.0266 13.2732 14.9888 13.5731 14.3832 13.5731H11.5066C12.1122 12.7858 12.415 11.6609 12.415 10.0861V9.26123ZM19.7576 18.7099C19.8712 18.7099 19.9847 18.6349 19.9847 18.5224H19.909V18.2975C19.909 18.1475 19.8333 18.11 19.6819 18.035C19.4548 17.9225 19.4927 17.5851 19.4927 17.5851V14.323C19.4927 13.9481 19.1899 13.6481 18.8492 13.6481C18.2436 13.6481 18.2058 13.3481 18.2058 12.9732V7.57393V7.38646C18.2058 7.01151 17.903 6.71155 17.5245 6.71155H9.00814C8.89459 6.71155 8.78103 6.78654 8.78103 6.89902V7.12399C8.78103 7.27397 8.85674 7.31147 9.00814 7.38646C9.15954 7.46145 9.19739 7.64892 9.19739 7.7614V9.74863C9.19739 11.9608 8.78103 12.6732 8.02403 13.6106H7.56982C7.19132 13.6106 6.88852 13.9106 6.88852 14.2855V18.7099H9.19739C9.57589 18.7099 9.87869 18.41 9.87869 18.035V17.5101V16.9477C9.87869 16.5727 10.1815 16.2727 10.56 16.2727H15.8969C16.2754 16.2727 16.5782 16.5727 16.5782 16.9477V17.5101V18.035C16.5782 18.41 16.881 18.7099 17.2595 18.7099H19.7576Z" fill="#FF6600"/>
</svg>
