<svg width="197" height="68" viewBox="0 0 197 68" fill="none" xmlns="http://www.w3.org/2000/svg">
<g filter="url(#filter0_d)">
<rect x="6" y="3" width="185" height="56" rx="28" fill="white"/>
</g>
<path fill-rule="evenodd" clip-rule="evenodd" d="M55.5391 13.9907C45.7951 13.9907 37.8687 21.8428 37.8687 31.4953C37.8687 41.1478 45.7951 48.9998 55.5391 48.9998C65.2831 48.9998 73.2096 41.1478 73.2096 31.4953C73.2096 21.8428 65.2831 13.9907 55.5391 13.9907ZM139.045 27.2442C138.59 26.744 137.985 26.3939 137.126 26.3939C135.713 26.3439 134.703 27.5442 134.652 29.1446V29.3447C134.652 31.0451 135.662 32.1954 137.076 32.1954C137.934 32.1954 138.54 31.8954 138.994 31.3452L139.045 31.2952C139.297 30.8951 139.802 30.7451 140.206 30.9951L143.084 32.6455L142.528 33.4458C141.418 34.9461 139.752 36.0464 136.975 36.0464C133.39 36.0464 130.311 33.3457 130.311 29.3947V29.0946C130.311 25.1436 133.441 22.4929 137.025 22.4929C139.752 22.4929 141.468 23.5932 142.579 25.1436L143.134 25.9438L140.256 27.5942C139.853 27.8443 139.348 27.6943 139.095 27.2942L139.045 27.2442ZM98.0994 37.947C97.7965 37.7969 97.847 37.3468 97.847 37.3468V32.9957C97.847 32.5456 97.4936 32.0954 96.9887 32.0954C96.1809 32.0954 96.1304 31.6953 96.1304 31.1952V24.0434V23.7933C96.1304 23.2932 95.7265 22.8931 95.2216 22.8931H83.8621C83.7106 22.8931 83.5591 22.9931 83.5591 23.1431V23.4932C83.5591 23.6933 83.6601 23.7433 83.8621 23.8433C84.064 23.9433 84.1145 24.1934 84.1145 24.3434V26.9941C84.1145 29.9449 83.5591 30.8451 82.5494 32.0954H81.9436C81.4387 32.0954 81.0348 32.4956 81.0348 32.9957V38.8972H84.1145C84.6194 38.8972 85.0233 38.4971 85.0233 37.997V36.5966C85.0233 36.0965 85.4272 35.6964 85.932 35.6964H93.0507C93.5556 35.6964 93.9595 36.0965 93.9595 36.5966V37.997C93.9595 38.4971 94.3634 38.8972 94.8682 38.8972H98.2004C98.3518 38.8972 98.5033 38.7972 98.5033 38.6471V38.3471C98.4203 38.1416 98.3033 38.0712 98.1801 37.9971C98.1534 37.981 98.1264 37.9648 98.0994 37.947ZM91.7884 31.1953C91.7884 31.6954 91.7379 32.0955 90.9301 32.0955H87.1436C87.9513 31.0452 88.3552 29.5448 88.3552 27.4443V26.344H90.9301C91.435 26.344 91.8388 26.394 91.8388 27.1942V31.1953H91.7884ZM158.735 34.7461C158.432 34.5961 158.482 34.146 158.482 34.146V33.8459V22.8931H156.261C155.655 22.8931 155.15 23.1431 154.746 23.4932L154.595 23.6433L150.303 27.8944C150.253 27.9444 150.202 27.9944 150.101 27.9944C149.95 27.9944 149.798 27.8443 149.798 27.6943V24.0934V23.8433C149.798 23.3432 149.394 22.9431 148.89 22.9431H145.305C145.154 22.9431 145.002 23.0431 145.002 23.1931V23.4932C145.002 23.6933 145.103 23.7433 145.305 23.8433C145.608 23.9934 145.557 24.4435 145.557 24.4435V35.6964H147.779C148.385 35.6964 148.89 35.4463 149.293 35.0962L149.445 34.9462L153.686 30.7451C153.736 30.6951 153.837 30.6451 153.888 30.6451C154.039 30.6451 154.191 30.7951 154.191 30.9452V34.4961V34.7461C154.191 35.2463 154.595 35.6464 155.099 35.6464H158.684C158.836 35.6464 158.987 35.5463 158.987 35.3963V35.0962C159.032 34.963 158.957 34.9086 158.798 34.793L158.798 34.7928C158.778 34.7783 158.757 34.7628 158.735 34.7461ZM113.346 34.146C113.346 34.146 113.296 34.5961 113.599 34.7461C113.63 34.7691 113.659 34.7897 113.687 34.8088C113.84 34.915 113.929 34.9768 113.801 35.1462V35.4463C113.801 35.5964 113.649 35.6964 113.498 35.6964H109.913C109.408 35.6964 109.004 35.2963 109.004 34.7962V30.9452C109.004 30.7951 108.853 30.6451 108.702 30.6451C108.651 30.6451 108.55 30.6951 108.5 30.7451L104.259 34.9462L104.107 35.0962C103.754 35.4463 103.198 35.6964 102.593 35.6964H100.422V24.4435C100.422 24.4435 100.472 23.9934 100.169 23.8433C99.9673 23.7433 99.8663 23.6933 99.8663 23.4932V23.1931C99.8663 23.0431 100.018 22.9431 100.169 22.9431H103.754C104.259 22.9431 104.663 23.3432 104.663 23.8433V27.6943C104.663 27.8443 104.814 27.9944 104.966 27.9944C105.066 27.9944 105.117 27.9444 105.167 27.8944L109.459 23.6433L109.61 23.4932C109.964 23.1431 110.519 22.8931 111.125 22.8931H113.346V33.8459V34.146ZM124.958 29.7448C124.605 29.3947 124.605 28.8446 124.958 28.4945L130.613 22.893H125.766C125.261 22.893 124.605 23.1931 124.252 23.4932L122.333 25.3937C121.98 25.7438 121.727 25.6437 121.727 25.1436V23.7433C121.727 23.2431 121.323 22.843 120.818 22.843H117.234C117.082 22.843 116.931 22.943 116.931 23.0931V23.4932C116.931 23.6932 117.032 23.7433 117.234 23.8433C117.537 23.9933 117.486 24.4434 117.486 24.4434V34.1459V35.6963H120.818C121.323 35.6963 121.727 35.2962 121.727 34.7961V34.0959V32.1454L124.655 35.0462C125.009 35.3963 125.665 35.6463 126.17 35.6463H130.159C130.663 35.6463 130.764 35.3463 130.411 35.0462L124.958 29.7448ZM54.4286 26.344H57.0034C57.5083 26.344 57.9122 26.444 57.9122 27.1442V31.1953C57.9122 31.6954 57.8617 32.0955 57.0539 32.0955H53.2169C54.0247 31.0452 54.4286 29.5448 54.4286 27.4443V26.344ZM64.2225 38.947C64.3739 38.947 64.5254 38.847 64.5254 38.6969H64.4244V38.3969C64.4244 38.1968 64.3234 38.1468 64.1215 38.0468C63.8186 37.8967 63.8691 37.4466 63.8691 37.4466V33.0955C63.8691 32.5954 63.4652 32.1953 63.0108 32.1953C62.203 32.1953 62.1525 31.7952 62.1525 31.295V24.0932V23.8431C62.1525 23.343 61.7486 22.9429 61.2437 22.9429H49.8842C49.7327 22.9429 49.5812 23.0429 49.5812 23.1929V23.493C49.5812 23.6931 49.6822 23.7431 49.8842 23.8431C50.0861 23.9431 50.1366 24.1932 50.1366 24.3432V26.9939C50.1366 29.9447 49.5812 30.8949 48.5715 32.1453H47.9657C47.4608 32.1453 47.0569 32.5454 47.0569 33.0455V38.947H50.1366C50.6415 38.947 51.0454 38.5469 51.0454 38.0468V37.3466V36.5964C51.0454 36.0963 51.4493 35.6962 51.9541 35.6962H59.0728C59.5777 35.6962 59.9816 36.0963 59.9816 36.5964V37.3466V38.0468C59.9816 38.5469 60.3855 38.947 60.8903 38.947H64.2225Z" fill="#FF6600"/>
<defs>
<filter id="filter0_d" x="0" y="0" width="197" height="68" filterUnits="userSpaceOnUse" color-interpolation-filters="sRGB">
<feFlood flood-opacity="0" result="BackgroundImageFix"/>
<feColorMatrix in="SourceAlpha" type="matrix" values="0 0 0 0 0 0 0 0 0 0 0 0 0 0 0 0 0 0 127 0"/>
<feOffset dy="3"/>
<feGaussianBlur stdDeviation="3"/>
<feColorMatrix type="matrix" values="0 0 0 0 0.340009 0 0 0 0 0.134184 0 0 0 0 0.545833 0 0 0 0.36 0"/>
<feBlend mode="normal" in2="BackgroundImageFix" result="effect1_dropShadow"/>
<feBlend mode="normal" in="SourceGraphic" in2="effect1_dropShadow" result="shape"/>
</filter>
</defs>
</svg>
