<svg width="518" height="616" viewBox="0 0 518 616" fill="none" xmlns="http://www.w3.org/2000/svg">
<path d="M513.496 575.827C513.542 575.068 513.58 574.214 513.611 573.214L513.496 575.827Z" fill="#D8C9FF"/>
<path d="M512.716 581.514C512.471 582.529 512.196 583.565 511.943 585.018C511.538 586.449 511.209 588.318 510.307 590.895L511.224 588.749C511.507 588.026 511.706 587.274 511.951 586.529C512.479 585.055 512.685 583.507 513.014 581.981C513.144 581.215 513.183 580.434 513.259 579.66C513.328 578.893 513.412 578.068 513.427 577.404L513.496 575.827C513.443 576.733 513.374 577.492 513.297 578.156C513.098 579.507 512.892 580.492 512.716 581.514Z" fill="#D8C9FF"/>
<path d="M511.285 576.857L511.277 574.397L511.27 569.476C510.964 572.469 510.696 575.44 510.367 578.441L511.232 579.375L511.293 578.083L511.285 576.857Z" fill="#D8C9FF"/>
<path d="M4.06502 78.6371L3.33838 76.9727C3.42252 81.36 3.74377 80.4548 4.06502 78.6371Z" fill="#D8C9FF"/>
<path d="M135.557 1.8396L132.49 2.59151C133.163 2.65721 133.889 2.70102 134.593 2.75942C135.358 2.54041 135.741 2.24111 135.557 1.8396Z" fill="#D8C9FF"/>
<path d="M0.737793 138.33C1.41854 136.294 1.93102 133.958 2.33641 131.534C1.77804 130.621 1.07434 133.074 0.737793 138.33Z" fill="#D8C9FF"/>
<path d="M185.076 2.24128C188.403 2.39458 191.31 2.48218 194.415 2.59898C192.334 2.27778 189.023 2.07337 185.076 2.24128Z" fill="#D8C9FF"/>
<path d="M518 102.238C517.342 97.3984 517.48 105.261 516.96 103.399C519.14 89.3609 515.438 56.2913 517.388 56.065C516.853 49.2686 515.422 46.4362 514.902 44.5892C514.956 44.0271 515.017 43.4577 515.07 42.881C515.093 42.5817 515.132 42.3262 515.147 41.9904C515.155 41.6473 515.17 41.3042 515.178 40.9611C515.185 40.2675 515.2 39.5667 515.208 38.8586C515.246 38.1432 515.116 37.4351 515.063 36.7124C514.986 35.9897 514.925 35.2524 514.826 34.515C514.673 33.785 514.52 33.0477 514.359 32.3031C514.091 30.7993 513.518 29.3538 513.028 27.8427C512.783 27.0908 512.401 26.3827 512.08 25.6454C511.728 24.9227 511.437 24.1561 511.001 23.4626C510.581 22.7545 510.16 22.0464 509.739 21.331C509.533 20.966 509.296 20.6229 509.043 20.2871L508.294 19.2651C507.33 17.8707 506.137 16.6224 504.966 15.3449C504.37 14.7098 503.689 14.1477 503.046 13.5491L502.06 12.6657C501.731 12.3737 501.356 12.1255 501.004 11.8481C501.341 12.1255 501.693 12.381 502.014 12.673L502.955 13.571C503.574 14.1769 504.217 14.7536 504.798 15.3887C505.915 16.6954 507.085 17.9437 508.011 19.3746L507.116 18.6591C504.232 14.8339 500.568 11.4977 496.331 8.89886L496.874 9.07407C493.011 6.81103 488.644 5.13199 484.031 4.22678C482.869 4.05157 481.706 3.86907 480.536 3.68657C479.358 3.59897 478.172 3.54057 476.987 3.47486C476.352 3.43836 475.893 3.43836 475.403 3.43836L473.935 3.42376C472.956 3.41646 471.977 3.40916 470.998 3.40186C463.142 3.32886 455.18 3.25586 447.309 3.18286C431.568 2.97846 416.17 2.59155 402.624 1.59873C416.017 2.64265 403.519 3.54057 404.384 4.24138C389.759 1.61333 358.268 1.56223 332.53 1.85423C332.645 2.47475 330.572 2.97115 333.716 3.46026L318.196 2.24844L320.254 2.99306C292.458 3.54057 262.199 0.248205 243.849 1.64983C255.192 2.00024 255.261 2.62075 256.393 3.61357C236.483 3.54057 217.697 3.50406 194.437 2.61345C195.684 2.79595 196.495 3.00036 196.533 3.22666C190.437 3.48216 183.109 2.75215 176.875 2.39444L176.026 3.87637C164.132 3.19016 148.758 3.95667 134.615 2.76675C129.07 4.40198 100.356 1.25562 84.0257 1.94184C77.7765 1.58413 97.6407 3.65007 80.1171 3.56247C77.6159 0.328506 57.354 3.46756 55.9849 0L48.3284 0.635112L46.3396 0.803015L43.8614 1.07312C42.2093 1.20452 40.5953 1.62063 38.9814 1.94914C38.599 1.86883 38.2012 1.76663 37.8111 1.70093L36.6332 1.53303C35.8454 1.42353 35.0346 1.32862 34.2162 1.23372C30.2694 3.23396 26.988 4.95679 23.9437 6.84753C22.3681 7.71624 20.9454 8.73096 19.4386 9.68728C18.6737 10.1545 18.0006 10.7312 17.2586 11.2568C16.8915 11.5269 16.5243 11.797 16.1572 12.0744L15.5988 12.4905L15.071 12.9431C14.3673 13.5637 13.6484 14.1915 12.9141 14.8412C12.1721 15.4909 11.5296 16.2501 10.8106 16.9947C10.4588 17.3743 10.1069 17.7612 9.74743 18.1554C9.40323 18.5569 9.08962 18.995 8.76072 19.433C8.43947 19.8783 8.10292 20.3236 7.77401 20.7835C7.44511 21.2434 7.10091 21.7106 6.81791 22.2216C4.31672 26.1637 2.29742 31.2957 1.83849 37.5811C2.41215 36.3036 2.97817 33.7047 3.02406 35.0041C2.83284 35.9824 2.54983 37.1285 2.41215 38.3549C2.28977 39.5813 2.17504 40.9246 2.08325 42.1948C1.99146 44.1585 1.89968 46.1077 1.79259 47.5385C1.57078 50.3928 1.28012 51.1666 0.813538 45.8302C0.828836 55.6854 -0.0125406 89.2076 1.90733 74.1621C0.86708 75.2498 1.75435 61.4744 2.12914 55.5102C3.68187 56.3132 3.06996 71.1179 4.76036 74.7899C4.59208 75.2644 4.32437 77.2208 4.06431 78.6298L5.02807 80.7395C3.31472 99.2453 4.54619 118.058 2.33566 131.534C2.81754 132.315 3.19234 135.556 3.07761 141.922L1.12714 142.192L1.16539 161.873L4.00312 152.66C4.56914 174.254 1.34896 189.453 0.86708 207.185C4.11785 211.748 -0.364389 241.802 2.52689 257.169L3.40651 243.306C2.81754 272.923 4.77566 277.639 3.65892 305.255C2.57278 281.822 3.22293 281.683 0.561125 247.555C1.92262 281.822 -1.27461 306.752 0.614667 338.128C1.3872 336.033 1.88438 328.156 2.68751 335.835C1.01241 341.96 2.7487 365.394 0.790591 360.751C1.46369 370.496 3.28413 372.19 3.55184 378.147L1.15774 410.844L1.54018 409.844C3.80425 437.636 3.04701 463.573 1.96087 489.532C1.4178 502.512 0.79824 515.499 0.431094 528.727C0.247521 535.341 0.125139 542.013 0.11749 548.78C0.109841 552.16 0.132788 555.569 0.18633 558.993C0.216926 560.709 0.25517 562.432 0.285765 564.162L0.316361 565.461L0.331659 566.111L0.339308 566.439L0.369903 566.892C0.446392 568.096 0.538178 569.308 0.645263 570.513C0.958867 569.987 1.27247 569.469 1.59372 568.958C1.47134 574.798 2.62632 580.799 5.03572 586.391C4.59208 585.347 4.29378 584.536 4.08726 583.96C3.81955 583.135 3.7966 582.719 3.85779 582.653C3.92663 582.587 4.1255 582.85 4.40851 583.339C4.70682 583.814 5.13515 584.5 5.63233 585.288C6.54255 586.909 7.97289 588.8 9.18141 590.347C10.4894 591.829 11.629 592.932 11.9885 593.026C12.5775 593.851 13.2889 594.589 13.9467 595.37L14.964 596.523C15.3158 596.896 15.6983 597.239 16.0654 597.596C16.815 598.297 17.5493 599.027 18.3371 599.699L20.7924 601.626L21.412 602.101L22.0621 602.531L23.3854 603.385C24.2726 603.947 25.1523 604.524 26.1007 604.991L28.9385 606.43C29.9175 606.838 30.9119 607.233 31.9062 607.627C32.8929 608.043 33.9255 608.342 34.9581 608.641L36.5108 609.087C37.031 609.233 37.5511 609.386 38.0789 609.474C39.1344 609.685 40.1976 609.882 41.2684 610.072C41.8039 610.182 42.3316 610.24 42.8594 610.284L44.4427 610.437C46.8062 610.656 48.0683 610.722 49.6822 610.839L54.3557 611.175C54.7764 610.744 54.4475 610.028 52.8565 609.452C52.061 609.167 50.9519 608.912 49.468 608.744C48.7261 608.663 47.8924 608.598 46.9516 608.568C46.3779 608.547 45.766 608.525 45.1311 608.495C44.4504 608.474 43.739 608.452 42.9894 608.43C44.1521 608.43 45.3071 608.437 46.4773 608.437L49.185 608.386C50.9749 608.371 52.7647 608.393 54.5469 608.444C58.1189 608.547 61.6756 608.766 65.1712 609.014C72.1699 609.517 78.9315 610.153 85.1194 610.291L80.9049 609.371L93.3802 610.262L93.2502 609.021C113.879 609.882 139.511 608.948 147.045 611.021L144.643 609.006L166.519 610.875L153.998 609.364C178.589 609.284 215.931 611.335 221.185 611.394L218.975 610.627C222.998 610.306 226.172 610.831 230.364 611.131L227.136 609.985C264.187 610.788 274.345 614.27 315.695 616C326.969 615.89 309.453 615.555 309.285 614.934C315.458 614.138 329.929 615.175 333.058 615.708C329.807 613.934 312.36 614.226 325.615 613.022C335.008 614 319.221 611.335 335.765 611.897L342.221 614.204C351.43 613.941 344.08 612.496 358.636 612.912C375.241 614.102 338.267 615.153 365.022 615.839C378.439 615.876 393.316 611.087 419.299 612.635C441.748 611.781 407.543 609.021 438.566 610.014L428.378 609.131L450.896 609.437C451.898 609.496 452.9 609.547 453.879 609.576C453.313 609.532 452.793 609.496 452.288 609.459L476.314 609.788C477.996 609.788 479.641 609.663 481.255 609.437C481.331 609.43 481.4 609.43 481.484 609.423C481.913 609.393 482.356 609.364 482.823 609.328C483.289 609.291 483.756 609.174 484.245 609.087C488.177 608.422 493.011 606.495 497.195 603.29C501.433 600.144 504.752 595.64 506.718 591.231C507.743 588.96 508.385 586.726 508.775 584.682C509.242 582.565 509.494 580.368 509.494 578.12V577.2C509.525 576.608 509.556 576.054 509.594 575.608C509.556 575.375 509.517 575.221 509.494 575.127V547.831L510.328 548.941C509.403 543.028 509.242 519.521 510.405 516.543C512.233 518.244 511.093 541.955 511.238 549.773C511.82 515.265 515.063 509.002 513.709 479.779L513.066 484.707C511.491 466.53 514.091 447.805 514.03 431.876C514.459 436.358 515.216 437.271 515.568 435.161C513.938 399.931 515.17 365.277 514.183 325.119L516.233 313.03L514.673 312.285C513.984 292.64 516.876 308.029 516.723 295.371C516.73 300.189 516.47 299.32 516.08 300.306C517.855 277.5 514.627 287.633 515.124 274.843C513.449 280.924 514.527 299.51 512.309 293.801C514.084 271.047 513.097 235.67 516.86 232.334C515.315 190.11 517.679 137.746 518 102.238ZM3.34532 142.98L3.483 134.52C3.38356 132.819 3.36061 131.074 3.56713 129.154L3.483 134.52C3.74306 138.863 4.56149 142.061 3.34532 142.98ZM509.869 45.7864C510.106 50.3125 510.114 56.4519 510.122 58.934C509.9 60.3356 509.686 61.7956 509.487 63.2995V42.151C509.487 41.9904 509.479 41.8298 509.471 41.6619C509.663 42.6255 509.777 44.0928 509.869 45.7864ZM13.4877 317.388L13.1741 318.008C13.2736 316.49 13.373 314.964 13.4877 313.431V317.388ZM509.487 333.675C510.091 327.813 511.009 321.914 510.374 313.774C510.091 315.037 509.785 316.213 509.487 317.505V304.963C509.663 304.233 509.953 301.882 510.473 297.006C511.192 324.615 510.481 353.998 509.487 383.002V333.675ZM510.19 220.289L510.971 223.209L510.856 230.078L510.19 220.289ZM509.487 183.263V151.12C509.67 149.529 509.862 147.966 510.045 146.455C512.019 155.288 510.756 169.173 509.487 183.263ZM431.246 3.89097L436.93 4.50418C422.114 5.2707 429.74 4.53338 431.246 3.89097L424.416 3.16826C431.155 3.23396 431.942 3.55517 431.246 3.89097ZM400.008 6.05911C401.967 4.94219 421.616 5.1539 426.864 5.76711C418.595 5.90581 397.01 6.19051 400.008 6.05911ZM386.049 8.93536C395.97 9.50478 390.639 10.0523 392.054 10.483H391.495C387.617 10.1107 384.856 9.57778 386.049 8.93536ZM339.59 9.02297C339.628 8.91346 339.605 8.81126 339.559 8.70906C339.751 8.81126 339.766 8.92076 339.59 9.02297ZM297.284 8.72366C308.742 9.69458 306.531 8.32945 312.651 8.07395L308.742 9.69458C292.121 8.73096 290.981 7.74544 278.292 5.78171C294.745 4.89109 299.242 7.60674 297.284 8.72366ZM284.709 4.06618C286.499 3.86177 288.717 3.73767 291.478 3.77417L284.709 4.06618C276.701 4.94219 275.033 7.32934 263.805 4.94219L284.709 4.06618ZM13.0135 49.0131C13.1741 47.721 13.3042 46.3924 13.4112 45.0345C13.4418 44.7133 13.4648 44.3848 13.4877 44.0563V58.204C13.0058 57.6419 12.501 57.8025 11.7361 56.3132C12.2792 54.0429 12.6999 51.5974 13.0135 49.0131ZM9.18906 274.149L9.32674 277.011L10.0763 265.148C11.6673 280.734 8.69953 291.867 8.20235 299.831C8.32473 292.874 11.1395 273.865 8.02643 277.186L9.18906 274.149ZM3.55184 180.328C4.4544 176.233 4.68387 162.508 5.97653 162.311C4.57679 174.254 8.2253 182.693 5.5023 185C5.75471 180.992 5.87709 179.021 5.74706 176.101C4.97453 178.182 3.81955 186.219 3.55184 180.328ZM5.54054 395.908C5.61703 395.149 5.67057 394.455 5.80061 393.601C5.74706 394.353 5.65528 395.149 5.54054 395.908C4.59973 405.15 6.93264 408.822 4.66857 416.341C2.72576 407.114 4.73741 401.186 5.54054 395.908ZM5.76236 439.892C5.22694 433 6.23659 417.137 6.5043 423.006C7.18505 437.76 8.56185 415.918 9.23495 425.598L9.08962 417.867C10.5429 430.409 7.54455 426.817 7.95759 435.643L7.68988 429.737C6.38192 425.072 6.79496 438.789 5.76236 439.892ZM11.0707 118.649C11.063 120.255 11.0401 122.073 10.9636 124.358C10.8871 121.883 10.9559 120.16 11.0707 118.649C11.1013 112.502 10.8718 110.75 12.1033 111.385C12.6158 108.407 11.958 103.538 12.4704 100.53C13.5642 112.502 11.5908 111.758 11.0707 118.649ZM13.4877 148.091V157.997C13.1665 159.311 12.7075 159.398 12.0727 157.617C12.9753 156.442 13.35 152.653 13.4877 148.091ZM14.8951 577.003C14.352 576.01 13.9926 574.615 13.4342 573.104C13.0976 571.739 12.6463 570.243 12.3251 568.695C12.6158 569.695 12.9217 568.308 13.1818 565.819C13.2965 564.965 13.3959 563.957 13.4877 562.862V566.439C13.4877 570.9 14.4591 575.141 16.2031 578.988C15.8818 578.886 15.4382 578.163 14.8951 577.003ZM173.196 606.751C182.375 605.867 183.469 606.247 189.641 606.692C187.653 607.167 179.43 607.196 173.196 606.751ZM187.706 607.787C203.019 606.729 200.289 609.298 209.559 609.656C197.359 610.627 199.164 608.291 187.706 607.787ZM366.307 609.16L360.142 608.714C359.026 608.525 358.559 608.349 358.376 608.174L369.076 608.32C370.04 608.605 369.505 608.912 366.307 609.16ZM509.487 530.72V515.718C509.709 515.068 509.9 514.178 509.999 512.63C509.747 516.492 509.624 526.624 509.487 530.72ZM510.359 501.804L510.19 483.992C509.831 492.153 509.709 500.015 509.479 506.907V468.8C509.816 467.362 510.236 465.398 511.062 465.318C510.305 472.246 512.424 494.591 510.359 501.804ZM513.135 397.098C514.589 409.727 512.531 416.801 512.286 425.693L511.628 420.875C510.978 431.161 510.183 435.92 509.487 439.337V430.314C509.563 430.489 509.632 430.701 509.701 430.942C509.67 416.188 510.405 394.514 512.21 386.323C513.533 396.018 510.443 409.253 511.223 412.042C511.858 407.099 511.835 397.266 513.135 397.098ZM513.051 352.801L511.376 358.904L511.483 347.092L513.051 352.801ZM511.322 141.418C511.628 128.03 511.055 102.654 510.076 92.4927C509.793 91.9014 509.571 90.7845 509.533 88.4849C509.732 89.1565 509.907 90.6823 510.076 92.4927C510.412 93.1059 510.841 92.7774 511.2 91.7116C511.338 89.7698 511.537 88.0688 511.866 87.2585C511.873 89.0032 511.583 90.675 511.2 91.7116C510.848 96.829 511.039 104.458 511.521 107.932C512.294 105.874 512.149 97.9897 512.661 94.9383C514.504 106.626 508.967 132.877 514.283 125.387C513.64 130.337 512.24 147.266 511.322 141.418Z" fill="#D8C9FF"/>
<path d="M5.03662 586.398C5.22019 586.829 5.42671 587.303 5.66383 587.821C5.44201 587.347 5.24314 586.873 5.03662 586.398Z" fill="#D8C9FF"/>
<path d="M500.997 11.8555L499.284 10.505C498.726 10.0378 498.075 9.68741 497.471 9.2713L496.852 9.06689C497.601 9.5195 498.335 9.93561 499.016 10.3955C499.689 10.8846 500.339 11.3664 500.997 11.8555Z" fill="#D8C9FF"/>
</svg>
