<svg width="335" height="637" viewBox="0 0 335 637" fill="none" xmlns="http://www.w3.org/2000/svg">
<path d="M332.087 372.398C332.117 371.907 332.142 371.355 332.161 370.708L332.087 372.398Z" fill="#D8C9FF"/>
<path d="M331.583 376.076C331.425 376.732 331.246 377.402 331.083 378.342C330.821 379.267 330.608 380.476 330.025 382.142L330.618 380.754C330.801 380.287 330.93 379.801 331.088 379.319C331.43 378.365 331.563 377.365 331.776 376.378C331.86 375.882 331.885 375.377 331.934 374.877C331.979 374.381 332.033 373.847 332.043 373.418L332.087 372.398C332.053 372.983 332.008 373.474 331.959 373.904C331.83 374.777 331.697 375.415 331.583 376.076Z" fill="#D8C9FF"/>
<path d="M330.657 373.064L330.652 371.473L330.647 368.291C330.45 370.226 330.276 372.148 330.064 374.088L330.623 374.693L330.662 373.857L330.657 373.064Z" fill="#D8C9FF"/>
<path d="M2.62887 50.8561L2.15894 49.7797C2.21335 52.6171 2.42111 52.0316 2.62887 50.8561Z" fill="#D8C9FF"/>
<path d="M87.6672 1.1897L85.6836 1.67597C86.1189 1.71846 86.5888 1.74679 87.0439 1.78456C87.5386 1.64293 87.7859 1.44936 87.6672 1.1897Z" fill="#D8C9FF"/>
<path d="M0.477051 89.4608C0.917304 88.1436 1.24873 86.6328 1.5109 85.0654C1.1498 84.4753 0.694704 86.0616 0.477051 89.4608Z" fill="#D8C9FF"/>
<path d="M119.692 1.44953C121.844 1.54867 123.723 1.60533 125.732 1.68086C124.386 1.47313 122.244 1.34094 119.692 1.44953Z" fill="#D8C9FF"/>
<path d="M335 66.1194C334.575 62.9893 334.664 68.074 334.327 66.8701C335.737 57.7913 333.343 36.4046 334.604 36.2583C334.258 31.8629 333.333 30.0311 332.997 28.8367C333.031 28.4731 333.071 28.1049 333.105 27.7319C333.12 27.5384 333.145 27.3731 333.155 27.1559C333.16 26.934 333.17 26.7122 333.175 26.4903C333.18 26.0418 333.19 25.5885 333.194 25.1306C333.219 24.6679 333.135 24.21 333.1 23.7426C333.051 23.2752 333.011 22.7983 332.947 22.3215C332.848 21.8494 332.749 21.3726 332.645 20.891C332.472 19.9184 332.101 18.9837 331.785 18.0064C331.626 17.5201 331.379 17.0622 331.171 16.5853C330.944 16.1179 330.756 15.6222 330.474 15.1737C330.202 14.7158 329.93 14.2578 329.658 13.7951C329.524 13.5591 329.371 13.3372 329.207 13.12L328.723 12.4591C328.099 11.5573 327.328 10.75 326.571 9.92381C326.185 9.51308 325.745 9.14955 325.329 8.76242L324.691 8.19116C324.478 8.00231 324.236 7.8418 324.008 7.66239C324.226 7.8418 324.454 8.00704 324.661 8.19588L325.27 8.77658C325.671 9.16843 326.086 9.5414 326.462 9.95214C327.184 10.7972 327.941 11.6045 328.54 12.5299L327.961 12.0672C326.096 9.59334 323.727 7.43578 320.986 5.75506L321.337 5.86836C318.839 4.40481 316.015 3.31895 313.032 2.73353C312.28 2.62023 311.528 2.5022 310.771 2.38417C310.009 2.32752 309.243 2.28975 308.476 2.24726C308.065 2.22365 307.769 2.22365 307.452 2.22365L306.502 2.21421C305.869 2.20949 305.236 2.20477 304.603 2.20005C299.522 2.15284 294.373 2.10562 289.283 2.05841C279.103 1.92622 269.145 1.676 260.384 1.03393C269.046 1.70905 260.963 2.28975 261.522 2.74298C252.064 1.04337 231.699 1.01032 215.053 1.19917C215.127 1.60046 213.787 1.9215 215.82 2.23782L205.783 1.45411L207.114 1.93566C189.138 2.28975 169.569 0.160518 157.702 1.06698C165.037 1.29359 165.082 1.69489 165.814 2.33696C152.938 2.28975 140.789 2.26614 125.746 1.69016C126.552 1.80819 127.077 1.94038 127.101 2.08674C123.159 2.25198 118.42 1.77987 114.389 1.54853L113.839 2.50692C106.147 2.06313 96.2046 2.55885 87.0582 1.78931C83.4718 2.84684 64.9021 0.812034 54.3409 1.25582C50.2995 1.02449 63.146 2.36056 51.8132 2.30391C50.1956 0.212451 37.0919 2.24254 36.2064 0L31.2548 0.410738L29.9687 0.519324L28.366 0.694006C27.2975 0.778986 26.2537 1.04809 25.21 1.26054C24.9627 1.20861 24.7054 1.14251 24.4532 1.10002L23.6914 0.991437C23.1819 0.92062 22.6575 0.859246 22.1282 0.797871C19.5757 2.09146 17.4536 3.20565 15.4849 4.42842C14.4658 4.99023 13.5458 5.64647 12.5713 6.26494C12.0766 6.56709 11.6413 6.94006 11.1615 7.27998C10.924 7.45466 10.6866 7.62935 10.4491 7.80875L10.088 8.07785L9.74672 8.37056C9.29163 8.77186 8.82664 9.17788 8.35176 9.59806C7.87193 10.0182 7.45641 10.5092 6.99142 10.9908C6.76388 11.2363 6.53633 11.4865 6.30384 11.7415C6.08124 12.0011 5.87842 12.2844 5.66572 12.5676C5.45796 12.8556 5.2403 13.1436 5.0276 13.4411C4.81489 13.7385 4.59229 14.0406 4.40926 14.3711C2.7917 16.9205 1.48578 20.2395 1.18898 24.3044C1.55998 23.4782 1.92604 21.7975 1.95572 22.6378C1.83205 23.2704 1.64902 24.0117 1.55998 24.8048C1.48084 25.598 1.40664 26.4667 1.34728 27.2881C1.28792 28.5581 1.22856 29.8187 1.1593 30.744C1.01585 32.59 0.827876 33.0904 0.52613 29.6393C0.536023 36.0128 -0.00811028 57.6922 1.2335 47.962C0.560756 48.6654 1.13457 39.7566 1.37696 35.8995C2.38113 36.4188 1.9854 45.9932 3.07861 48.368C2.96978 48.6748 2.79665 49.9401 2.62846 50.8513L3.25174 52.2157C2.14369 64.1838 2.9401 76.3501 1.51052 85.0653C1.82216 85.5705 2.06454 87.6667 1.99034 91.7835L0.728943 91.9582L0.753676 104.686L2.58889 98.7283C2.95494 112.693 0.872396 122.523 0.560756 133.99C2.66309 136.941 -0.235657 156.378 1.63418 166.316L2.20305 157.351C1.82216 176.504 3.0885 179.554 2.36629 197.414C1.66386 182.259 2.08433 182.169 0.36289 160.098C1.2434 182.259 -0.82431 198.382 0.397516 218.673C0.89713 217.318 1.21866 212.224 1.73806 217.191C0.654743 221.152 1.77764 236.307 0.51129 233.304C0.946597 239.607 2.1239 240.702 2.29704 244.555L0.74873 265.7L0.996063 265.054C2.46028 283.027 1.97056 537.801 1.26813 554.59C0.916917 562.984 0.516236 571.383 0.278796 579.937C0.160076 584.215 0.0809293 588.53 0.0759826 592.906C0.071036 595.092 0.085876 597.297 0.120503 599.511C0.140289 600.621 0.165023 601.735 0.184809 602.854L0.204596 603.694L0.214489 604.114L0.219436 604.327L0.239223 604.619C0.288689 605.398 0.34805 606.182 0.417303 606.961C0.620116 606.621 0.82293 606.286 1.03069 605.955C0.951543 609.732 1.69849 613.613 3.25669 617.229C2.96978 616.554 2.77686 616.03 2.6433 615.657C2.47017 615.124 2.45533 614.855 2.4949 614.812C2.53942 614.77 2.66804 614.94 2.85106 615.256C3.04398 615.563 3.321 616.007 3.64253 616.517C4.23118 617.565 5.15621 618.787 5.93778 619.788C6.78366 620.747 7.52072 621.46 7.75321 621.521C8.1341 622.055 8.59414 622.531 9.01956 623.036L9.67746 623.782C9.90501 624.023 10.1523 624.245 10.3898 624.476C10.8746 624.93 11.3494 625.402 11.8589 625.836L13.4468 627.083L13.8475 627.389L14.268 627.668L15.1237 628.22C15.6976 628.584 16.2664 628.957 16.8798 629.259L18.715 630.189C19.3482 630.453 19.9913 630.708 20.6343 630.963C21.2725 631.232 21.9403 631.426 22.6081 631.62L23.6122 631.907C23.9486 632.002 24.285 632.101 24.6263 632.158C25.3089 632.295 25.9965 632.422 26.6891 632.545C27.0353 632.616 27.3766 632.653 27.718 632.682L28.7419 632.781C30.2704 632.923 31.0866 632.965 32.1304 633.041L35.1528 633.258C35.4249 632.979 35.2122 632.517 34.1833 632.144C33.6688 631.959 32.9515 631.794 31.9919 631.686C31.5121 631.634 30.9729 631.591 30.3644 631.572C29.9934 631.558 29.5977 631.544 29.1871 631.525C28.7469 631.511 28.2868 631.497 27.8021 631.483C28.5539 631.483 29.3009 631.487 30.0577 631.487L31.8089 631.454C32.9664 631.445 34.1239 631.459 35.2765 631.492C37.5866 631.558 39.8868 631.7 42.1474 631.86C46.6736 632.186 51.0464 632.597 55.0483 632.686L52.3227 632.092L60.3907 632.668L60.3066 631.865C73.6478 632.422 90.224 631.818 95.0965 633.159L93.5433 631.856L107.691 633.064L99.593 632.087C115.497 632.035 139.646 633.362 143.045 633.399L141.615 632.904C144.217 632.696 146.27 633.036 148.981 633.229L146.893 632.488C170.855 633.008 177.424 635.26 204.166 636.378C211.457 636.308 200.129 636.09 200.02 635.689C204.012 635.174 213.371 635.845 215.395 636.19C213.292 635.042 202.009 635.231 210.581 634.452C216.656 635.085 206.446 633.362 217.146 633.725L221.321 635.217C227.276 635.047 222.523 634.112 231.936 634.381C242.675 635.151 218.763 635.831 236.067 636.275C244.743 636.298 254.364 633.201 271.168 634.202C285.687 633.65 263.565 631.865 283.629 632.507L277.04 631.936L291.603 632.134C292.251 632.172 292.899 632.205 293.532 632.224C293.166 632.195 292.83 632.172 292.503 632.148L308.041 632.361C309.129 632.361 310.192 632.28 311.236 632.134C311.286 632.129 311.33 632.129 311.385 632.125C311.662 632.106 311.948 632.087 312.25 632.063C312.552 632.04 312.854 631.964 313.17 631.907C315.713 631.478 318.839 630.231 321.545 628.159C324.285 626.124 326.432 623.211 327.704 620.36C328.367 618.891 328.782 617.447 329.034 616.125C329.336 614.756 329.499 613.335 329.499 611.88V611.286C329.519 610.903 329.539 610.544 329.564 610.256C329.539 610.105 329.514 610.006 329.499 609.945V592.292L330.038 593.01C329.44 589.186 329.336 573.984 330.088 572.058C331.27 573.158 330.533 588.492 330.627 593.548C331.003 571.232 333.1 567.181 332.225 548.282L331.809 551.469C330.79 539.713 332.472 289.604 332.433 279.302C332.71 282.201 333.199 282.791 333.427 281.427C332.373 258.642 333.17 236.231 332.532 210.26L333.857 202.442L332.848 201.96C332.403 189.256 334.273 199.208 334.174 191.022C334.179 194.138 334.011 193.576 333.758 194.213C334.906 179.464 332.819 186.017 333.14 177.746C332.057 181.679 332.754 193.699 331.32 190.007C332.467 175.291 331.829 152.412 334.263 150.255C333.264 122.948 334.792 89.083 335 66.1194ZM2.16348 92.468L2.25252 86.9963C2.18821 85.8962 2.17337 84.7679 2.30693 83.5262L2.25252 86.9963C2.4207 89.8053 2.95 91.8732 2.16348 92.468ZM329.742 29.6109C329.895 32.538 329.9 36.5085 329.905 38.1137C329.761 39.0201 329.623 39.9644 329.494 40.9369V27.2598C329.494 27.1559 329.489 27.0521 329.484 26.9435C329.608 27.5667 329.682 28.5156 329.742 29.6109ZM8.72276 205.261L8.51994 205.662C8.58425 204.68 8.64856 203.693 8.72276 202.702V205.261ZM329.494 215.793C329.885 212.002 330.479 208.188 330.068 202.924C329.885 203.74 329.687 204.5 329.494 205.336V197.225C329.608 196.753 329.796 195.233 330.132 192.079C330.597 209.934 330.137 228.937 329.494 247.694V215.793ZM329.949 142.465L330.454 144.353L330.38 148.796L329.949 142.465ZM329.494 118.519V97.7321C329.613 96.7029 329.737 95.6926 329.855 94.7153C331.132 100.428 330.315 109.407 329.494 118.519ZM278.895 2.51636L282.57 2.91294C272.989 3.40866 277.92 2.93182 278.895 2.51636L274.478 2.04897C278.836 2.09146 279.345 2.29919 278.895 2.51636ZM258.693 3.91854C259.959 3.19621 272.667 3.33312 276.06 3.72969C270.713 3.81939 256.754 4.00352 258.693 3.91854ZM249.665 5.77866C256.081 6.14691 252.633 6.501 253.548 6.77954H253.187C250.679 6.53876 248.893 6.19412 249.665 5.77866ZM219.619 5.83532C219.644 5.7645 219.629 5.6984 219.599 5.63231C219.723 5.6984 219.733 5.76922 219.619 5.83532ZM192.259 5.64175C199.669 6.26966 198.239 5.38681 202.197 5.22157L199.669 6.26966C188.92 5.64647 188.183 5.00912 179.976 3.73913C190.617 3.16316 193.525 4.91942 192.259 5.64175ZM184.127 2.62967C185.284 2.49748 186.719 2.41722 188.504 2.44082L184.127 2.62967C178.947 3.19621 177.869 4.74001 170.607 3.1962L184.127 2.62967ZM8.41606 31.6977C8.51994 30.862 8.60404 30.0028 8.67329 29.1246C8.69308 28.9169 8.70792 28.7045 8.72276 28.492V37.6416C8.41112 37.278 8.08464 37.3819 7.58997 36.4188C7.94118 34.9505 8.21325 33.3689 8.41606 31.6977ZM5.94273 177.297L6.03177 179.148L6.51654 171.476C7.54545 181.556 5.62614 188.755 5.30461 193.906C5.38376 189.407 7.20413 177.113 5.19084 179.261L5.94273 177.297ZM2.29704 116.621C2.88074 113.973 3.02914 105.097 3.86513 104.97C2.95989 112.693 5.31945 118.151 3.55844 119.643C3.72168 117.051 3.80082 115.776 3.71673 113.888C3.21712 115.233 2.47017 120.431 2.29704 116.621ZM3.58317 256.041C3.63264 255.55 3.66726 255.102 3.75136 254.549C3.71673 255.035 3.65737 255.55 3.58317 256.041C2.97473 262.018 4.48346 264.393 3.01925 269.255C1.7628 263.288 3.06377 259.454 3.58317 256.041ZM3.72662 284.486C3.38036 280.029 4.03332 269.77 4.20645 273.566C4.6467 283.107 5.5371 268.982 5.97241 275.242L5.87842 270.242C6.81829 278.353 4.8792 276.03 5.14632 281.738L4.97318 277.919C4.1273 274.902 4.39442 283.773 3.72662 284.486ZM7.15961 76.7325C7.15466 77.7712 7.13982 78.9467 7.09036 80.4244C7.04089 78.824 7.08541 77.7098 7.15961 76.7325C7.1794 72.7573 7.031 71.6243 7.82741 72.035C8.15884 70.1088 7.73343 66.9598 8.06485 65.0147C8.77223 72.7573 7.49598 72.2758 7.15961 76.7325ZM8.72276 95.7728V102.179C8.515 103.029 8.2182 103.086 7.80762 101.934C8.39133 101.174 8.63372 98.7235 8.72276 95.7728ZM9.63294 611.158C9.28173 610.516 9.04924 609.614 8.68813 608.637C8.47048 607.754 8.17862 606.786 7.97086 605.785C8.15884 606.432 8.3567 605.535 8.52489 603.925C8.59909 603.373 8.6634 602.721 8.72276 602.013V604.327C8.72276 607.211 9.35098 609.954 10.4788 612.442C10.2711 612.376 9.98416 611.909 9.63294 611.158ZM112.009 630.397C117.945 629.826 118.653 630.071 122.645 630.359C121.358 630.666 116.041 630.685 112.009 630.397ZM121.393 631.067C131.296 630.383 129.53 632.044 135.526 632.276C127.636 632.904 128.803 631.393 121.393 631.067ZM236.898 631.955L232.911 631.667C232.188 631.544 231.887 631.431 231.768 631.317L238.688 631.412C239.312 631.596 238.965 631.794 236.898 631.955ZM329.494 581.226V571.524C329.638 571.104 329.761 570.528 329.826 569.527C329.663 572.025 329.583 578.578 329.494 581.226ZM330.058 562.526L329.949 551.006C329.717 556.284 329.638 561.369 329.489 565.826V541.182C329.707 540.251 329.979 300.981 330.513 300.93C330.024 305.41 331.394 557.861 330.058 562.526ZM331.854 256.811C332.794 264.978 331.463 269.553 331.305 275.303L330.879 272.187C330.459 278.839 329.944 281.918 329.494 284.127V278.292C329.544 278.405 329.588 278.542 329.633 278.698C329.613 269.156 330.088 255.139 331.255 249.842C332.111 256.112 330.113 264.671 330.617 266.475C331.028 263.279 331.013 256.919 331.854 256.811ZM331.799 228.163L330.716 232.11L330.785 224.471L331.799 228.163ZM330.682 91.4577C330.879 82.7992 330.508 66.3885 329.875 59.8167C329.692 59.4343 329.549 58.712 329.524 57.2248C329.653 57.6592 329.766 58.6459 329.875 59.8167C330.093 60.2133 330.37 60.0008 330.602 59.3116C330.691 58.0557 330.82 56.9557 331.033 56.4317C331.038 57.56 330.85 58.6412 330.602 59.3116C330.375 62.6211 330.499 67.5546 330.81 69.8019C331.31 68.4706 331.216 63.3717 331.547 61.3983C332.739 68.9568 329.158 85.934 332.596 81.0901C332.18 84.2911 331.275 95.2393 330.682 91.4577Z" fill="#D8C9FF"/>
<path d="M3.25732 379.234C3.37604 379.513 3.5096 379.82 3.66295 380.155C3.5195 379.848 3.39088 379.541 3.25732 379.234Z" fill="#D8C9FF"/>
<path d="M324.004 7.66724L322.896 6.79383C322.535 6.49168 322.114 6.26507 321.724 5.99596L321.323 5.86377C321.808 6.15648 322.283 6.42558 322.723 6.72301C323.158 7.03933 323.579 7.35093 324.004 7.66724Z" fill="#D8C9FF"/>
</svg>
