<svg width="713" height="140" viewBox="0 0 713 140" fill="none" xmlns="http://www.w3.org/2000/svg">
<path d="M40.2177 23.4704L53.8124 65.8708C53.9075 66.0609 53.8124 66.251 53.6223 66.3461C52.1012 67.2968 50.0097 68.2474 47.2527 69.1031C45.1612 69.7685 42.8796 70.2439 40.693 70.5291C40.5029 70.5291 40.4078 70.434 40.3127 70.339L40.1226 69.3883L39.3621 67.0116L38.3163 63.6842C37.936 62.3532 37.4607 60.9272 36.9854 59.4061C36.51 57.885 36.0347 56.2689 35.4643 54.6527L33.8481 49.8042L32.327 45.0508L30.9961 40.7728L29.8552 37.3503L17.6865 41.2481L28.2391 74.0466C28.3342 74.2367 28.2391 74.4269 28.0489 74.5219C26.5279 75.4726 24.4364 76.4233 21.6794 77.2789C19.5879 77.9444 17.3063 78.4197 15.1197 78.7049C14.9295 78.7049 14.8345 78.6099 14.7394 78.5148L5.2326 48.3782C4.75726 46.9522 4.28192 45.8114 3.61644 44.8607C3.04603 44.0051 2.47562 43.4347 2.00028 43.1495C1.52494 42.8643 1.14467 42.6741 0.764397 42.3889C0.384125 42.1037 0.0989201 41.9136 0.0989201 41.6284C-0.0912161 41.153 0.003852 40.6777 0.289056 40.0122C0.574261 39.4418 1.14467 38.6813 2.00028 37.8256C2.8559 36.97 3.99671 36.1144 5.32767 35.1637C6.65862 34.2131 8.46492 33.2624 10.6515 32.3117C12.838 31.2659 15.3098 30.3153 18.0668 29.4597C23.3906 27.7484 30.7109 25.6569 39.9325 23.0901C40.0275 23.1852 40.2177 23.2802 40.2177 23.4704Z" fill="#644F9A"/>
<path d="M66.2661 33.9278C66.5513 34.4982 66.8365 34.8785 66.9315 35.1637L67.1217 35.0686C67.3118 32.8821 68.1674 30.9807 69.6885 29.3645C71.2096 27.7484 73.0159 26.7026 75.1074 26.1322C78.9101 25.1816 82.3326 25.847 85.2797 28.3188C88.2268 30.7906 90.3183 34.3081 91.4591 38.9664C92.5999 43.5297 92.5049 47.8078 90.9838 51.8957C89.4627 55.9836 86.7057 58.5505 82.8079 59.5962C79.0052 60.5469 75.7729 59.5011 72.9208 56.3639L72.7307 56.459L77.9595 76.2331C78.0545 76.4233 77.9595 76.6134 77.7693 76.7085C76.1532 77.5641 74.1567 78.3246 71.685 78.9901C69.9737 79.4654 67.9773 79.7507 65.6957 79.8457C65.5055 79.8457 65.4105 79.7507 65.4105 79.5605C65.4105 79.1802 62.4633 67.5819 56.4741 44.6705C55.9987 42.9593 55.5234 41.7234 54.953 40.9629C54.3826 40.2023 53.5269 39.5368 52.5763 39.2516C52.1009 39.0615 51.9108 38.8714 51.8157 38.4911C51.5305 37.5404 52.0059 36.2095 53.1467 34.3081C54.2875 32.4067 55.9036 31.1708 58.1853 30.6004C61.6077 29.6498 64.3647 30.7906 66.2661 33.9278ZM69.1181 38.9664C68.7378 40.7727 68.7378 42.8642 69.4033 45.2409C70.0688 47.6176 70.9244 49.4239 72.1603 50.7549C73.3962 52.0858 74.8222 52.5612 76.3433 52.1809C77.8644 51.8006 78.8151 50.7549 79.2904 48.9486C79.7657 47.1423 79.6707 45.1459 79.0052 42.7692C78.3397 40.3925 77.4841 38.4911 76.2482 37.1601C75.0123 35.8292 73.6814 35.3538 72.1603 35.7341C70.5441 36.1144 69.4984 37.2552 69.1181 38.9664Z" fill="#644F9A"/>
<path d="M131.198 35.4489C131.863 38.4911 133.004 40.2974 134.906 41.0579C135.381 41.248 135.571 41.5332 135.666 41.9135C135.856 42.8642 135.381 44.1951 134.24 46.0014C133.099 47.8077 131.293 48.9486 128.916 49.519C127.015 49.8992 125.304 49.7091 123.878 48.9486C122.452 48.188 121.311 46.9521 120.55 45.336C120.36 45.0508 120.265 44.6705 119.98 44.1001H119.79C119.124 46.8571 117.983 48.9486 116.367 50.3746C114.656 51.8006 112.85 52.7513 110.758 53.2266C108.191 53.797 105.91 53.4168 103.913 52.1809C101.917 50.945 100.586 48.7584 100.016 45.7162L97.5438 34.213C96.9734 31.456 95.6424 29.6497 93.646 28.8892C93.2657 28.7941 92.9805 28.4138 92.8855 28.0336C92.6953 27.0829 93.1707 25.6569 94.3115 23.8506C95.4523 22.0443 97.2586 20.9035 99.5402 20.4281C101.917 19.9528 104.008 20.238 105.815 21.2837C107.621 22.3295 108.857 24.1358 109.332 26.6075L112.089 40.1072C112.374 41.3431 112.755 42.1987 113.325 42.7691C113.896 43.3395 114.466 43.5297 115.131 43.3395C116.177 43.1494 116.938 42.2938 117.508 40.8678C118.079 39.4417 118.174 37.5404 117.698 35.3538L114.276 18.812L114.466 18.3366C116.367 17.481 118.459 16.8155 120.645 16.4353C122.642 16.055 124.733 15.7698 126.825 15.7698C127.015 15.8648 127.015 15.9599 127.11 16.15C127.205 16.15 128.536 22.6147 131.198 35.4489Z" fill="#644F9A"/>
<path d="M158.578 36.0193C157.057 32.9771 155.726 30.3152 154.585 28.1287C153.349 25.9421 152.208 24.0407 151.067 22.4246H150.782C151.257 24.2309 151.638 25.9421 151.828 27.3681C152.113 28.7941 152.398 30.5054 152.588 32.4067C152.874 34.3081 152.874 36.0193 152.683 37.4453C152.493 38.8714 152.208 40.2974 151.828 41.6283C151.352 42.9593 150.687 44.1001 149.641 44.8607C148.595 45.7163 147.36 46.1916 145.838 46.4768C143.652 46.762 141.846 46.3817 140.325 45.2409C138.803 44.1001 137.948 42.3889 137.663 40.2974C137.472 38.6812 137.568 37.2552 138.043 35.8292C138.518 34.4032 139.089 33.6426 139.564 33.5475C139.659 33.5475 139.944 33.6426 140.42 33.8327C140.8 34.0229 141.275 34.0229 141.655 34.0229C144.317 33.6426 145.078 28.7941 143.747 19.5725C143.462 19.5725 142.986 19.6676 142.321 19.7627C141.655 19.8577 141.275 19.9528 141.085 20.0479C139.849 20.238 139.279 19.9528 139.089 19.1923C138.898 17.9564 139.849 16.4353 141.846 14.4388C143.842 12.4424 146.504 11.3016 149.736 10.8263C154.014 10.1608 157.437 11.2065 160.004 13.8684C161.335 15.2945 163.141 18.1465 165.518 22.2344H165.708C165.993 20.9035 166.373 19.1923 166.849 17.1958C167.324 15.1043 167.609 13.3931 167.894 11.872C168.179 10.446 168.37 9.68544 168.37 9.59038C168.465 9.49531 168.465 9.40024 168.56 9.40024C170.271 8.63969 172.362 8.06929 175.024 7.68901C176.07 7.49888 177.211 7.40381 178.352 7.40381C179.493 7.40381 180.348 7.40381 180.919 7.40381C181.489 7.40381 181.869 7.40381 181.964 7.49888C182.059 7.49888 182.154 7.59394 182.154 7.78408L185.102 27.3681C185.577 30.3152 186.718 32.3117 188.714 33.2623C189.094 33.4525 189.38 33.7377 189.475 34.118C189.57 35.0686 188.999 36.3996 187.764 38.2059C186.433 40.0122 184.626 41.0579 182.345 41.3431C179.968 41.7234 177.876 41.3431 176.165 40.1072C174.359 38.9664 173.313 37.1601 172.933 34.5933L171.127 21.664H170.936C170.556 23.3753 169.986 25.847 169.32 28.8892C168.655 31.9314 168.084 34.5933 167.609 36.8749C167.134 39.1566 166.849 40.3924 166.849 40.6777C166.658 41.8185 165.803 42.4839 164.377 42.6741C163.616 42.7692 163.046 42.7692 162.57 42.579C162.19 42.3889 161.81 42.0086 161.525 41.4382C160.859 40.7727 160.004 39.0615 158.578 36.0193Z" fill="#644F9A"/>
<path d="M226.931 23.1851C227.217 26.2273 228.167 28.2237 229.974 29.1744C230.354 29.3646 230.639 29.7448 230.639 30.1251C230.734 31.0758 230.069 32.4067 228.738 34.0229C227.407 35.7341 225.505 36.6848 223.129 36.8749C221.132 37.0651 219.516 36.6848 218.185 35.7341C216.854 34.7834 215.904 33.4525 215.333 31.7413C215.238 31.4561 215.048 30.9807 214.953 30.4103H214.763C213.812 33.0722 212.481 34.9736 210.58 36.3045C208.773 37.5404 206.777 38.301 204.685 38.4911C202.024 38.6812 199.837 38.1108 198.031 36.5897C196.224 35.0686 195.179 32.787 194.893 29.7448L193.658 18.0515C193.372 15.2945 192.327 13.3931 190.33 12.3474C189.95 12.1572 189.665 11.872 189.665 11.3967C189.57 10.446 190.235 9.11505 191.566 7.40382C192.897 5.6926 194.798 4.74191 197.175 4.55178C199.552 4.36164 201.643 4.83698 203.355 6.16794C205.066 7.40382 206.016 9.30519 206.207 11.872L207.442 25.5618C207.538 26.7977 207.823 27.7484 208.298 28.3188C208.773 28.8892 209.344 29.1744 210.104 29.1744C211.15 29.0794 212.006 28.3188 212.766 26.9879C213.527 25.5618 213.812 23.7555 213.622 21.569L212.101 4.74191L212.291 4.36164C214.287 3.79123 216.474 3.31589 218.66 3.12576C220.752 2.93562 222.843 2.93562 224.935 3.12576C225.03 3.22082 225.125 3.31589 225.125 3.50603C225.125 3.50603 225.696 10.1608 226.931 23.1851Z" fill="#644F9A"/>
<path d="M285.684 32.1216C285.779 37.6355 284.353 42.1037 281.31 45.4311C278.268 48.8536 273.99 50.5648 268.381 50.6599C265.909 50.6599 263.723 50.3747 261.631 49.519C259.635 48.7585 258.019 47.7127 256.783 46.5719C255.642 45.4311 254.691 44.1952 254.026 42.9593C253.36 41.7235 253.075 40.5826 253.075 39.5369C253.075 38.8714 253.36 38.4911 253.836 38.4911C254.216 38.4911 254.786 38.8714 255.547 39.5369C256.403 40.2024 257.543 40.9629 259.064 41.6284C260.586 42.2939 262.487 42.6741 264.578 42.5791C267.05 42.5791 269.047 41.7235 270.568 40.1073C272.089 38.4911 272.849 36.5898 272.754 34.5933L272.659 27.6534H272.469C270.568 32.1216 267.05 34.4032 262.012 34.4983C259.35 34.5933 257.258 33.7377 255.547 32.1216C253.836 30.5054 252.98 28.0336 252.885 24.8964L252.695 13.4882C252.6 10.7312 251.649 8.73482 249.843 7.49893C249.463 7.3088 249.272 6.92852 249.272 6.45318C249.272 5.5025 249.938 4.17155 251.459 2.55539C252.98 0.939231 254.881 0.178686 257.258 0.0836182C259.635 0.0836182 261.631 0.749095 263.247 2.08005C264.864 3.50607 265.719 5.40743 265.719 7.97427L266.004 21.7591C266.004 22.995 266.29 23.9457 266.67 24.6112C267.145 25.2767 267.716 25.5619 268.381 25.5619C269.427 25.5619 270.378 24.8964 271.233 23.5654C272.089 22.2345 272.469 20.4282 272.469 18.2416L272.184 1.41457L272.469 1.0343C274.561 0.558959 276.652 0.273754 278.934 0.273754C280.93 0.273754 283.022 0.368823 285.113 0.749095C285.208 0.844163 285.303 0.939231 285.303 1.12937L285.684 32.1216Z" fill="#644F9A"/>
<path d="M329.415 29.5547C329.415 30.5054 328.559 31.7413 327.038 33.2624C325.422 34.7835 323.52 35.449 321.144 35.3539C318.767 35.2588 316.771 34.4983 315.345 33.0723C313.919 31.6462 313.158 29.6498 313.253 27.083L313.443 22.1394L313.158 22.0444C310.401 23.8507 307.454 24.7063 304.317 24.6112C298.993 24.4211 295.666 22.0444 294.525 17.4811C294.144 16.1501 294.049 14.629 294.049 12.9178C294.144 10.1608 293.289 8.06934 291.483 6.92853C291.102 6.64332 290.912 6.35812 290.912 5.97785C290.912 5.02716 291.768 3.79128 293.289 2.27019C294.905 0.749098 296.806 0.0836212 299.183 0.178689C301.56 0.273758 303.556 1.0343 304.982 2.46032C306.408 3.88635 307.169 5.88278 307.074 8.44962L306.884 13.203C306.788 15.6748 308.024 17.0057 310.686 17.1008C311.447 17.1008 312.398 17.0058 313.443 16.8156L313.919 2.17512C313.919 1.98498 314.014 1.88992 314.204 1.88992C316.2 1.50964 318.292 1.41458 320.383 1.41458C322.76 1.50964 324.851 1.79485 326.658 2.27019C326.753 2.27019 326.848 2.46032 326.848 2.55539L326.182 22.3296C326.087 25.3717 326.943 27.4632 328.654 28.7942C329.225 28.7942 329.415 29.1745 329.415 29.5547Z" fill="#644F9A"/>
<path d="M371.34 32.0265C371.72 32.3117 371.91 32.692 371.815 33.0723C371.72 34.4032 370.769 35.6391 368.963 36.7799C367.157 37.9207 365.256 38.4912 363.164 38.301C360.977 38.1109 359.171 37.3503 357.84 36.0194C356.509 34.6884 355.749 32.9772 355.654 30.8857H355.464C354.418 32.8821 352.897 34.4032 350.995 35.3539C349.094 36.3997 347.098 36.7799 344.911 36.5898C341.013 36.3046 338.161 34.4032 336.165 30.9808C334.168 27.5583 333.408 23.5655 333.788 19.0022C334.168 14.2488 335.689 10.2559 338.351 6.92854C341.013 3.60115 344.245 2.08006 348.238 2.46033C350.425 2.65047 352.231 3.31595 353.847 4.3617C355.464 5.50251 356.604 6.92854 357.27 8.73483H357.46L358.411 4.6469C358.411 4.45677 358.506 4.3617 358.791 4.26663C360.692 4.07649 362.689 4.07649 364.78 4.26663C367.062 4.45677 369.058 4.83704 370.865 5.31238C371.055 5.40745 371.15 5.59758 371.15 5.69265C370.104 15.8649 369.534 22.4246 369.248 25.3718C368.868 28.6041 369.629 30.6956 371.34 32.0265ZM354.988 26.2274C355.939 24.7063 356.604 22.7098 356.794 20.2381C356.985 17.7663 356.794 15.7699 356.034 14.0586C355.273 12.3474 354.133 11.4918 352.611 11.3017C351.09 11.2066 349.759 11.8721 348.809 13.3932C347.858 14.9143 347.193 16.9107 347.002 19.3825C346.812 21.8542 347.098 23.8507 347.763 25.5619C348.524 27.178 349.664 28.1287 351.185 28.2238C352.707 28.509 354.037 27.7485 354.988 26.2274Z" fill="#644F9A"/>
<path d="M407.086 24.0407C405.755 25.2766 403.948 25.7519 401.762 25.4667C400.526 25.2766 399.385 24.8012 398.434 24.0407C397.484 23.2801 397.008 22.6147 397.104 21.9492C397.104 21.664 397.294 21.1887 397.484 20.333C397.674 19.4774 397.864 18.907 397.864 18.4317C398.244 15.8648 397.579 14.4388 395.868 14.2487C394.537 14.0585 393.206 14.8191 392.065 16.4352C390.924 18.1465 390.164 20.0478 389.783 22.4245C389.403 25.1815 389.878 27.6533 391.114 29.7448C392.445 31.8363 394.727 33.1672 398.054 33.6426C399.861 33.9278 401.762 33.7376 403.853 33.2623C405.945 32.787 407.086 32.5018 407.276 32.5018C407.751 32.5968 408.036 32.882 407.941 33.5475C407.656 35.4489 405.945 37.4453 402.808 39.5368C399.67 41.6283 395.963 42.4839 391.78 41.9135C386.171 41.153 382.083 38.9664 379.421 35.3538C376.759 31.7412 375.808 27.4631 376.474 22.5196C377.139 17.7662 379.326 13.9635 383.129 11.1114C386.931 8.25939 391.495 7.21364 397.008 7.97418C400.906 8.54459 404.043 9.87554 406.325 12.0621C408.607 14.2487 409.557 16.8155 409.177 19.6676C409.272 21.2837 408.417 22.8048 407.086 24.0407Z" fill="#644F9A"/>
<path d="M465.457 49.0437C465.267 49.9944 464.317 51.0401 462.51 52.276C460.704 53.5119 458.613 53.8922 456.331 53.4168C453.954 52.9415 452.148 51.8957 451.007 50.1845C449.771 48.4733 449.486 46.4769 449.961 43.91L452.528 30.4103C453.004 27.9386 452.623 26.5125 451.387 26.3224C450.437 26.1323 449.486 26.6076 448.535 27.7484C447.585 28.8893 446.919 30.5054 446.444 32.787L443.116 49.3289C443.116 49.519 442.926 49.6141 442.736 49.6141C440.93 49.7092 438.838 49.519 436.557 49.0437C434.655 48.6634 432.659 48.093 430.567 47.1423C430.377 47.0473 430.377 46.9522 430.377 46.7621L434.37 26.7978C434.846 24.326 434.465 22.9 433.229 22.7098C432.279 22.5197 431.328 22.995 430.377 24.1358C429.427 25.2767 428.761 26.8928 428.286 29.1745L424.863 45.6212C424.863 45.8114 424.673 45.9064 424.483 45.9064C422.677 46.0015 420.585 45.8114 418.304 45.336C416.307 44.9558 414.216 44.2903 412.124 43.4347C411.934 43.3396 411.934 43.2445 411.934 43.0544C412.219 42.3889 413.645 35.9243 416.022 23.6605C416.402 21.9493 416.402 20.6183 416.212 19.6676C416.022 18.717 415.547 17.7663 414.786 17.0057C414.501 16.7205 414.311 16.3403 414.406 15.96C414.596 15.0093 415.547 13.9636 417.353 12.7277C419.159 11.4918 421.251 11.1115 423.532 11.5869C425.434 11.9671 426.955 12.8227 428.001 14.0586C429.046 15.2945 429.617 16.8156 429.712 18.717C429.712 18.812 429.712 19.2874 429.617 20.143H429.807C432.849 15.8649 436.557 14.1537 440.74 15.0093C442.831 15.3896 444.542 16.4353 445.873 17.9564C447.204 19.4775 447.87 21.3789 447.87 23.7556H448.06C451.102 19.4775 454.81 17.7663 458.993 18.6219C461.465 19.0972 463.366 20.3331 464.697 22.3296C466.028 24.326 466.408 26.8928 465.838 29.935C465.648 30.6955 465.362 32.2166 464.887 34.7835C464.412 37.2552 463.936 39.4418 463.556 41.153C462.986 44.1002 463.461 46.3818 464.982 47.9029C465.362 48.2832 465.553 48.6634 465.457 49.0437Z" fill="#644F9A"/>
<path d="M503.58 51.9908C502.819 54.9379 503.009 57.1245 504.34 58.6456C504.625 59.0258 504.72 59.311 504.625 59.6913C504.34 60.642 503.294 61.5927 501.488 62.7335C499.587 63.8743 497.495 64.0645 495.214 63.494C493.312 63.0187 491.886 62.068 490.935 60.7371C489.985 59.4061 489.509 57.885 489.604 55.9837C489.604 55.6985 489.604 55.2231 489.7 54.6527L489.509 54.5576C487.703 56.7442 485.802 58.0752 483.615 58.6456C481.429 59.216 479.337 59.216 477.341 58.6456C474.774 57.9801 472.968 56.6491 471.732 54.6527C470.496 52.6563 470.306 50.0894 471.161 47.1423L474.203 35.8292C474.964 33.1673 474.584 30.9807 473.063 29.2695C472.777 28.9843 472.682 28.604 472.777 28.1287C473.063 27.178 474.108 26.1323 475.915 24.9915C477.816 23.8506 479.812 23.6605 482.094 24.2309C484.471 24.8964 486.182 26.0372 487.323 27.8435C488.464 29.6498 488.749 31.7413 488.083 34.2131L484.566 47.5226C484.281 48.7585 484.186 49.7092 484.471 50.4697C484.756 51.2303 485.136 51.7056 485.802 51.8007C486.847 52.0859 487.893 51.7056 489.129 50.6598C490.365 49.6141 491.221 47.9979 491.791 45.8114L496.164 29.4597L496.544 29.1745C498.636 29.2695 500.823 29.6498 502.914 30.2202C504.91 30.7906 506.907 31.4561 508.808 32.4068C508.903 32.5018 508.903 32.692 508.903 32.787C508.713 32.8821 507.002 39.3467 503.58 51.9908Z" fill="#644F9A"/>
<path d="M540.561 66.251C540.276 67.0115 539.705 67.8671 538.755 68.7228C537.804 69.5784 536.663 70.434 535.237 71.1945C533.811 71.9551 532.005 72.4304 529.913 72.6205C527.822 72.8107 525.635 72.5255 523.449 71.86C518.22 70.1488 514.512 67.3918 512.231 63.3989C509.949 59.4061 509.664 54.9379 511.28 49.9943C512.801 45.1459 515.653 41.6283 519.836 39.6319C523.924 37.6355 528.677 37.4453 534.001 39.1566C538.565 40.5826 541.797 42.7692 543.603 45.7163C545.409 48.5683 545.98 51.3253 545.124 53.8921C544.554 55.6984 543.603 57.0294 542.367 58.1702C541.131 59.2159 539.705 59.8814 538.089 60.1666C536.473 60.4518 534.952 60.5469 533.336 60.3568C531.815 60.2617 530.294 59.8814 528.773 59.4061C525.92 58.4554 523.924 57.5998 522.783 56.6491C522.498 58.4554 522.973 60.0716 524.209 61.4976C525.445 62.9236 527.061 64.0644 529.058 64.6348C530.864 65.2052 532.67 65.4904 534.286 65.5855C535.998 65.5855 537.329 65.4904 538.279 65.3003C539.23 65.1102 539.895 65.0151 540.086 65.1102C540.656 65.3954 540.751 65.6806 540.561 66.251ZM527.156 46.5719C525.825 47.7127 524.875 49.3289 524.304 51.5154C524.78 51.7056 525.255 51.8006 525.73 51.9908C527.822 52.6562 529.533 52.6562 531.054 52.0858C532.48 51.5154 533.431 50.6598 533.811 49.519C534.096 48.6634 534.001 47.9028 533.621 47.1423C533.241 46.3817 532.48 45.9064 531.434 45.5261C529.818 45.0508 528.392 45.4311 527.156 46.5719Z" fill="#644F9A"/>
<path d="M271.138 100.634C272.564 102.155 273.134 104.056 272.849 106.338C272.469 109.285 270.758 111.661 267.62 113.658C264.483 115.654 260.49 116.32 255.547 115.749C249.938 115.084 245.755 113.183 242.903 109.855C240.051 106.623 239.005 102.06 239.67 96.0703C240.336 90.6514 242.332 86.6586 245.85 83.9967C249.367 81.3348 253.931 80.3841 259.54 81.0495C264.388 81.6199 267.906 83.046 269.997 85.2325C272.184 87.4191 272.944 89.7007 272.279 92.0774C271.899 93.5985 271.138 94.8344 269.997 95.69C268.761 96.5456 267.43 97.1161 265.814 97.2111V97.4963C268.001 98.0667 269.712 99.1125 271.138 100.634ZM259.159 107.954C259.92 107.288 260.3 106.433 260.49 105.387C260.681 104.056 260.11 102.915 259.064 101.774C257.924 100.634 256.212 99.9681 254.026 99.6829C253.55 99.5878 252.98 99.5878 252.505 99.5878C251.744 105.292 252.98 108.334 256.307 108.714C257.448 108.809 258.399 108.619 259.159 107.954ZM254.691 89.7958C253.836 91.1268 253.265 92.838 253.075 95.1196L253.645 95.2147C255.832 95.3098 257.543 94.9295 258.684 94.1689C259.825 93.4084 260.49 92.4577 260.681 91.2218C260.776 90.4613 260.585 89.7958 260.11 89.1303C259.635 88.4649 259.064 88.0846 258.304 88.0846C256.688 87.8944 255.547 88.4649 254.691 89.7958Z" fill="#644F9A"/>
<path d="M324.281 109.95C324.281 110.045 324.186 110.14 323.996 110.14L315.915 108.714L312.778 117.461L312.493 117.651L307.264 115.749C307.264 115.749 307.169 115.749 307.169 115.654C307.169 115.654 307.169 115.559 307.074 115.464C307.074 115.369 307.074 115.274 307.074 115.179L309.831 107.573L305.363 106.813L302.225 115.559L301.75 115.844L296.616 113.943L296.521 113.468L299.278 105.862L294.145 105.007L293.859 104.721L294.81 99.3976C294.905 99.2075 295 99.1124 295.285 99.1124L301.37 100.158C301.56 99.6828 301.845 99.0173 302.13 97.9716C302.511 96.9258 302.796 96.1653 302.986 95.69L295.951 94.4541L295.666 94.1689L296.616 88.845C296.711 88.6549 296.806 88.5598 297.092 88.5598L305.077 89.9859C306.789 85.3275 307.834 82.3804 308.31 81.2396C308.31 81.1445 308.405 81.1445 308.595 81.1445L313.824 83.0459C313.919 83.141 314.014 83.236 314.014 83.3311L311.162 91.0316L315.725 91.7922L318.862 83.0459C319.052 82.9508 319.147 82.8558 319.243 82.9508L324.471 84.8522L324.566 85.2325L321.714 92.933L326.848 93.7886C327.038 93.7886 327.133 93.8837 327.038 94.0738L326.087 99.5877C326.087 99.6828 325.992 99.7779 325.802 99.7779L319.528 98.7321L317.912 103.2L324.947 104.436C325.137 104.436 325.232 104.531 325.137 104.721L324.281 109.95ZM312.778 99.6828C313.158 98.6371 313.443 97.8765 313.634 97.4012L309.07 96.6406L307.454 101.109L312.017 101.869C312.112 101.394 312.398 100.729 312.778 99.6828Z" fill="#B69BFF"/>
<path d="M369.153 110.806C370.294 112.992 370.674 115.369 370.294 117.746C369.629 122.309 367.157 125.731 362.879 128.013C358.601 130.2 353.277 130.865 346.907 130.01C341.013 129.154 336.64 127.062 333.883 123.735C331.126 120.408 330.175 115.654 331.031 109.76L333.123 95.2146C333.313 93.5985 333.408 92.1724 333.218 91.1267C333.027 89.9859 332.837 89.2253 332.552 88.75C332.267 88.2746 331.982 87.8944 331.696 87.419C331.411 86.9437 331.316 86.6585 331.411 86.4683C331.506 86.0881 331.696 85.6127 332.267 85.1374C332.742 84.6621 333.503 84.1867 334.644 83.7114C335.689 83.236 337.02 82.8558 338.541 82.5706C340.062 82.2854 341.964 82.0952 344.341 82.0952C346.717 82.0952 349.284 82.2853 352.041 82.6656C358.316 83.5212 363.164 85.2325 366.491 87.7993C369.819 90.2711 371.245 93.5034 370.674 97.4012C370.484 98.6371 370.104 99.7779 369.629 100.824C369.058 101.869 368.488 102.63 367.822 103.2C367.157 103.771 366.491 104.246 365.921 104.721C365.256 105.102 364.78 105.387 364.305 105.577L363.639 105.862L363.544 106.243C366.111 107.003 368.012 108.619 369.153 110.806ZM353.847 119.647C355.178 118.506 355.939 116.89 356.224 114.894C356.414 113.563 356.414 112.327 356.224 111.186C356.034 110.045 355.844 109.19 355.559 108.714L355.178 108.049C353.277 108.429 351.851 108.429 350.9 107.954C349.95 107.478 349.379 107.003 349.094 106.433C348.809 105.862 348.809 105.292 348.904 104.626C349.094 103.581 349.664 102.82 350.71 102.44C351.756 101.964 352.992 102.06 354.513 102.63C355.464 101.489 356.129 99.873 356.414 97.7815C356.604 96.0702 356.319 94.7393 355.368 93.6935C354.418 92.6478 352.992 91.8872 351.185 91.6971C350.14 91.507 349.189 91.507 348.143 91.602C346.052 105.102 345.006 112.517 345.006 113.943C344.721 118.316 346.242 120.788 349.664 121.263C350.995 121.168 352.516 120.788 353.847 119.647Z" fill="#B69BFF"/>
<path d="M405.374 106.528C408.416 110.14 409.747 114.418 409.272 119.457C408.796 124.591 406.705 128.679 402.997 131.531C399.29 134.478 394.821 135.619 389.593 135.143C384.364 134.668 380.181 132.576 377.139 129.059C374.097 125.541 372.766 121.168 373.336 115.939C373.811 110.806 375.903 106.813 379.61 103.961C383.318 101.109 387.786 99.8729 392.92 100.443C398.149 100.919 402.237 103.01 405.374 106.528ZM396.438 118.221C396.723 115.179 396.533 112.612 395.867 110.711C395.202 108.809 393.966 107.669 392.16 107.478C388.642 107.098 386.646 110.426 385.98 117.175C385.695 120.218 385.885 122.689 386.55 124.591C387.216 126.587 388.452 127.633 390.163 127.823C393.681 128.298 395.772 125.066 396.438 118.221Z" fill="#B69BFF"/>
<path d="M448.44 132.862C448.345 133.812 447.585 135.048 445.968 136.474C444.352 137.9 442.356 138.566 439.979 138.471C437.602 138.376 435.606 137.52 434.085 135.999C432.564 134.478 431.898 132.481 432.088 129.915L432.754 118.316C432.849 117.366 432.849 116.605 432.754 116.035C432.659 115.464 432.564 114.799 432.279 114.038C431.993 113.278 431.518 112.802 430.758 112.422C429.997 112.042 428.951 111.852 427.715 111.852C427.715 114.514 427.715 116.89 427.62 118.887C427.525 120.883 427.335 123.165 426.955 125.636C426.575 128.108 426.004 130.2 425.339 131.721C424.578 133.337 423.532 134.573 422.201 135.619C420.87 136.664 419.159 137.14 417.258 137.045C415.071 136.95 413.36 136.189 412.124 134.763C410.888 133.337 410.318 131.531 410.508 129.344C410.603 127.728 411.078 126.302 411.839 124.971C412.6 123.64 413.265 123.07 413.835 123.07C413.93 123.07 414.216 123.165 414.596 123.45C414.976 123.735 415.356 123.83 415.737 123.83C417.353 123.925 418.684 122.784 419.635 120.503C420.68 118.221 421.251 115.179 421.536 111.376C421.346 111.376 420.87 111.376 420.3 111.376C419.73 111.376 419.159 111.376 418.779 111.376C417.638 111.281 417.068 110.901 417.068 110.14C417.163 108.714 418.874 107.098 422.201 105.482C425.529 103.771 429.332 103.105 433.705 103.295C437.698 103.486 440.835 104.626 443.116 106.623C445.398 108.619 446.444 111.661 446.254 115.844C446.254 116.13 446.159 116.7 446.159 117.366C446.063 118.126 445.968 119.172 445.873 120.598C445.778 122.024 445.683 123.545 445.588 125.256C445.398 128.298 446.159 130.39 447.965 131.721C448.345 132.196 448.535 132.481 448.44 132.862Z" fill="#B69BFF"/>
<path d="M473.538 124.496L466.978 124.401L466.788 137.805C466.788 137.995 466.693 138.186 466.503 138.186C464.697 138.566 462.605 138.756 460.038 138.756C457.947 138.756 455.855 138.471 453.574 137.995C453.384 137.995 453.289 137.805 453.289 137.71C453.479 137.045 453.669 130.39 453.764 117.841C453.764 116.13 453.574 114.799 453.289 113.848C452.908 112.897 452.338 112.137 451.387 111.566C451.007 111.281 450.817 110.996 450.817 110.616C450.817 109.665 451.577 108.429 453.194 106.908C454.715 105.387 456.711 104.626 459.088 104.722C461.465 104.722 463.366 105.482 464.887 106.908C466.408 108.334 467.169 110.236 467.074 112.612L466.978 117.556L473.538 117.651L473.633 106.243C473.633 106.053 473.728 105.957 473.918 105.957C475.915 105.577 478.006 105.387 480.098 105.387C482.475 105.387 484.566 105.672 486.467 106.148C486.563 106.148 486.658 106.338 486.658 106.433L486.372 126.207C486.372 129.249 487.228 131.341 489.034 132.577C489.415 132.862 489.605 133.147 489.605 133.527C489.605 134.478 488.844 135.714 487.228 137.235C485.707 138.756 483.71 139.516 481.334 139.516C478.957 139.516 476.961 138.756 475.44 137.33C473.918 135.904 473.253 133.907 473.253 131.436L473.538 124.496Z" fill="#B69BFF"/>
<path d="M531.149 131.245C531.53 131.531 531.72 131.816 531.72 132.196C531.72 133.527 530.959 134.858 529.343 136.284C527.727 137.71 525.826 138.471 523.734 138.471C521.547 138.566 519.646 137.995 518.22 136.855C516.699 135.714 515.748 134.098 515.368 132.101H515.178C514.322 134.193 513.086 135.904 511.28 137.045C509.569 138.281 507.572 138.946 505.386 138.946C501.488 139.041 498.351 137.52 495.974 134.383C493.597 131.245 492.266 127.348 492.171 122.784C491.981 118.031 493.027 113.848 495.214 110.235C497.4 106.623 500.537 104.721 504.53 104.626C506.717 104.531 508.618 105.007 510.329 105.862C512.041 106.813 513.372 108.049 514.227 109.76H514.417L514.893 105.577C514.893 105.387 514.988 105.292 515.178 105.197C517.079 104.817 519.076 104.531 521.072 104.436C523.354 104.341 525.445 104.436 527.251 104.721C527.442 104.817 527.537 104.912 527.632 105.102C527.822 115.369 528.012 121.929 528.107 124.876C528.392 128.108 529.343 130.105 531.149 131.245ZM514.322 127.443C515.083 125.827 515.463 123.735 515.368 121.358C515.273 118.887 514.798 116.89 513.847 115.274C512.896 113.658 511.66 112.897 510.044 112.992C508.523 113.087 507.287 113.848 506.527 115.559C505.766 117.175 505.386 119.267 505.481 121.739C505.576 124.21 506.051 126.207 507.002 127.728C507.953 129.249 509.189 130.01 510.71 130.01C512.326 129.915 513.467 129.059 514.322 127.443Z" fill="#B69BFF"/>
<path d="M592.373 131.531C592.373 131.626 592.373 131.721 592.278 131.816C592.183 131.911 592.088 131.911 591.993 131.911L591.898 132.006C590.567 132.576 588.476 133.052 585.528 133.337C583.912 133.527 582.486 133.527 581.25 133.527C580.014 133.527 579.159 133.527 578.779 133.432L578.018 133.337C577.828 133.337 577.638 133.242 577.638 132.957C576.307 121.739 574.691 112.707 572.504 105.767H572.219L566.135 133.812C566.135 134.002 566.039 134.193 565.754 134.383C564.043 134.858 562.712 135.143 561.666 135.238C560.05 135.428 558.719 135.333 557.769 135.048L557.388 134.858C551.874 119.552 548.072 110.901 546.075 109H545.695C545.22 115.464 545.41 124.401 546.075 135.809C546.075 135.999 545.98 136.189 545.695 136.189C544.174 136.854 542.558 137.235 540.846 137.33C539.991 137.425 539.23 137.425 538.375 137.425C537.519 137.425 536.949 137.33 536.568 137.235L535.998 137.14C535.808 137.14 535.618 137.045 535.618 136.854C535.237 131.626 535.523 120.408 536.568 103.01C536.568 101.774 536.378 100.729 535.903 99.968C535.428 99.2075 534.952 98.542 534.477 98.1617C534.002 97.7815 533.716 97.4012 533.716 97.0209C533.716 95.785 534.572 94.359 536.283 92.6478C537.994 91.0316 540.276 90.0809 543.128 89.7957C544.649 89.7007 546.075 89.7007 547.406 90.0809C548.737 90.3661 549.878 90.8415 550.733 91.3168C551.589 91.7922 552.54 92.4576 553.395 93.4083C554.251 94.2639 554.916 95.0245 555.392 95.5949C555.867 96.1653 556.342 96.9259 556.913 97.8765C557.578 99.0174 558.529 100.824 559.575 103.105C560.621 105.482 561.476 107.573 562.142 109.38L563.187 112.042L563.758 111.947C565.754 102.82 567.275 95.2146 568.321 89.1303L568.701 88.8451C570.888 88.1796 573.075 87.7042 575.356 87.5141C576.687 87.419 577.923 87.324 579.159 87.324C580.395 87.324 581.345 87.324 581.916 87.419L582.771 87.5141C583.057 87.5141 583.152 87.6092 583.152 87.7993C587.62 101.109 590.757 115.749 592.373 131.531Z" fill="#B69BFF"/>
<path d="M599.789 129.534C598.077 128.393 597.127 126.492 596.746 124.02L593.229 99.1125C593.229 98.9224 593.229 98.8273 593.419 98.7322C595.32 98.0668 597.412 97.4963 599.503 97.2111C601.88 96.9259 603.971 96.8309 605.873 97.021C605.968 97.021 606.063 97.1161 606.063 97.3062L608.82 116.89C609.2 119.837 610.436 121.834 612.337 122.784C612.718 122.975 613.003 123.26 613.003 123.64C613.098 124.591 612.528 125.922 611.292 127.633C609.961 129.344 608.155 130.39 605.778 130.77C603.591 131.15 601.5 130.77 599.789 129.534ZM593.514 92.7429C591.803 91.6972 590.757 90.2712 590.567 88.5599C590.282 86.8487 590.852 85.2326 592.278 83.7115C593.704 82.1904 595.415 81.3348 597.697 81.0496C599.884 80.7644 601.88 81.1446 603.686 82.1904C605.398 83.2361 606.443 84.6622 606.728 86.3734C607.014 88.1797 606.443 89.7958 605.017 91.2219C603.591 92.6479 601.785 93.5986 599.598 93.8838C597.222 94.0739 595.225 93.7887 593.514 92.7429Z" fill="#B69BFF"/>
<path d="M620.038 126.587C618.327 125.446 617.281 123.64 616.806 121.073L610.056 80.2889C610.056 80.0988 610.056 80.0037 610.246 79.9086C612.148 79.1481 614.144 78.5777 616.236 78.2925C618.517 77.9122 620.609 77.8172 622.51 77.9122C622.7 77.9122 622.795 78.0073 622.795 78.1974L628.594 113.658C629.07 116.605 630.306 118.601 632.302 119.457C632.682 119.647 632.968 119.932 633.063 120.313C633.253 121.263 632.682 122.594 631.446 124.401C630.211 126.207 628.404 127.253 626.028 127.633C623.841 128.108 621.75 127.728 620.038 126.587Z" fill="#B69BFF"/>
<path d="M672.23 111.376C672.611 113.373 672.23 115.274 670.899 116.985C669.663 118.792 667.762 119.932 665.29 120.408C663.389 120.788 661.488 120.598 659.681 119.742C657.875 118.887 656.449 117.746 655.213 116.225C654.072 114.704 653.026 113.183 652.266 111.661C651.505 110.14 651.03 108.714 650.745 107.478C650.65 106.813 650.84 106.338 651.41 106.052C652.931 105.577 654.072 104.722 654.833 103.676C655.688 102.63 656.069 101.489 655.974 100.253C655.879 99.1125 655.498 98.2569 654.643 97.7815C653.787 97.3062 652.836 97.1161 651.886 97.4963C648.463 98.5421 647.322 101.965 648.463 107.859L651.22 121.549L651.03 122.024C648.463 122.975 646.562 123.545 645.136 123.83C643.33 124.21 641.238 124.401 638.766 124.401C638.576 124.401 638.481 124.306 638.481 124.115L629.069 77.1518L629.259 76.8666C631.446 76.0109 633.347 75.3455 635.154 75.0603C637.055 74.68 639.242 74.4898 641.523 74.3948C641.618 74.3948 641.713 74.4898 641.808 74.68L646.182 96.1654H646.277C647.037 93.8837 648.273 91.9824 649.984 90.2712C651.696 88.655 653.692 87.5142 655.974 86.9438C658.921 86.1832 661.392 86.3734 663.579 87.4191C665.671 88.4649 667.002 90.3662 667.572 93.0281C668.047 95.2147 667.667 97.4013 666.526 99.4928C665.385 101.584 663.769 103.105 661.678 104.151C663.579 106.528 665.956 108.429 668.808 109.76C669.378 110.045 670.139 110.235 671.28 110.616C671.85 110.616 672.135 110.901 672.23 111.376Z" fill="#B69BFF"/>
<path d="M712.159 101.869C712.634 102.06 712.825 102.25 712.92 102.63C713.205 103.866 712.729 105.387 711.494 107.098C710.258 108.809 708.546 109.95 706.55 110.426C704.459 110.996 702.462 110.806 700.751 110.045C699.04 109.285 697.804 107.859 696.948 105.957H696.758C696.378 108.144 695.427 110.045 694.001 111.661C692.575 113.182 690.769 114.323 688.582 114.799C684.779 115.749 681.452 114.894 678.41 112.327C675.368 109.76 673.371 106.243 672.23 101.774C671.09 97.211 671.185 92.8379 672.611 88.845C674.037 84.8522 676.604 82.3804 680.501 81.4297C682.593 80.8593 684.589 80.9544 686.396 81.4297C688.202 82.0001 689.818 82.9508 691.054 84.4719H691.244L690.864 80.2889C690.864 80.0988 690.864 80.0037 691.054 79.8136C692.765 79.053 694.666 78.3875 696.663 77.8171C698.849 77.2467 700.941 76.9615 702.747 76.8665C702.937 76.8665 703.128 76.9615 703.128 77.1517C705.504 87.1338 707.025 93.5034 707.786 96.3554C708.737 99.3025 710.068 101.109 712.159 101.869ZM694.857 101.679C695.332 99.968 695.237 97.8765 694.667 95.4998C694.096 93.1231 693.145 91.2217 691.91 89.8908C690.674 88.5598 689.248 88.0845 687.727 88.4648C686.205 88.845 685.255 89.8908 684.779 91.6971C684.304 93.5034 684.399 95.5949 684.97 97.9716C685.54 100.348 686.491 102.25 687.727 103.581C688.962 104.912 690.293 105.387 691.814 105.007C693.431 104.436 694.381 103.39 694.857 101.679Z" fill="#B69BFF"/>
</svg>
