<svg width="678" height="127" viewBox="0 0 678 127" fill="none" xmlns="http://www.w3.org/2000/svg">
<path d="M47.0954 93.7536C47.0976 93.8457 47.0998 93.9378 47.102 94.0299C47.1042 94.122 47.0143 94.2162 46.9244 94.3105L46.8323 94.3127C45.6572 95.2621 43.7476 96.3212 41.2854 97.3935C40.2835 97.8781 39.2771 98.1785 38.3651 98.5688C37.4508 98.867 36.7185 99.0688 36.2603 99.1718L35.528 99.3736C35.3438 99.378 35.2495 99.2881 35.1552 99.1982L26.2922 79.1394C25.8054 78.0453 25.323 77.1355 24.9349 76.3155C24.5467 75.4955 23.9767 74.772 23.2224 74.0529C22.4681 73.3338 21.7183 72.7988 20.975 72.5402C20.2317 72.2815 19.2166 72.2136 18.1116 72.2399C16.9167 72.3606 15.6363 72.7597 14.2704 73.4372C14.3668 73.6192 14.5598 73.9831 14.7528 74.3471C18.7304 82.7289 21.1819 88.9357 22.1972 92.8734C24.2366 101.117 22.5202 106.41 17.05 108.844C14.8619 109.818 12.836 109.866 10.8825 109.083C8.9289 108.301 7.51027 106.768 6.53669 104.58C5.95342 103.304 5.73849 102.019 5.70554 100.638C5.76686 99.3465 6.02555 98.6032 6.66575 98.4037C7.03189 98.3028 7.39804 98.2019 7.76418 98.1011C9.86017 97.1297 11.0068 94.9832 11.1074 91.4795C11.3002 87.9737 9.98666 83.1217 7.07032 76.7417C6.70417 76.8426 6.06616 77.1342 5.33827 77.5201C4.61038 77.906 4.15434 78.1012 3.97237 78.1977C2.78625 78.6866 2.04517 78.5201 1.65486 77.608C0.970717 75.9658 1.92434 73.4554 4.6078 70.0744C7.29127 66.6934 10.911 63.9351 15.3792 61.9857C20.0294 59.9399 24.1667 59.5647 27.8808 60.7661C31.5051 62.0617 34.3358 64.8504 36.2851 69.3186C40.1795 78.0709 43.7821 86.1852 47.0954 93.7536Z" fill="white"/>
<path d="M67.7229 58.5256C71.6323 60.1829 74.4673 63.1558 76.0461 67.5408C77.717 71.9235 77.6317 76.0717 75.788 79.8934C73.9443 83.715 70.7872 86.5545 66.3124 88.2276C61.8376 89.9007 57.6915 89.9074 53.7822 88.2501C49.8729 86.5927 47.0356 83.5278 45.3647 79.145C43.6938 74.7623 43.7791 70.614 45.6228 66.7924C47.4666 62.9708 50.6258 60.2234 55.1007 58.5503C59.5755 56.8772 63.8136 56.8682 67.7229 58.5256ZM65.2724 71.6676C64.2878 69.0191 63.1344 67.0196 61.8145 65.7611C60.4945 64.5027 59.0102 64.0774 57.55 64.6651C54.6274 65.7483 54.1584 69.2608 56.417 75.1037C57.3993 77.6601 58.5527 79.6596 59.8726 80.9181C61.1926 82.1765 62.677 82.6018 64.1393 82.1062C67.0597 80.9309 67.4366 77.4206 65.2724 71.6676Z" fill="white"/>
<path d="M107.511 57.8528C109.278 58.5477 110.508 59.9004 111.109 61.9131C111.907 64.4739 111.416 67.0655 109.64 69.872C107.772 72.6807 104.782 74.7791 100.484 76.1715C95.6391 77.7613 91.401 77.7703 87.7701 76.1984C84.2313 74.6244 81.5695 71.1867 79.881 66.0672C78.3877 61.4038 78.5651 57.2534 80.4176 53.8001C82.2701 50.3468 85.71 47.777 90.6474 46.185C94.8526 44.7948 98.2576 44.6214 100.862 45.6649C103.467 46.7084 104.978 48.2387 105.307 50.4422C105.616 51.8169 105.463 53.1105 104.754 54.3251C104.138 55.5376 103.147 56.4826 101.874 57.158L101.97 57.34C103.895 56.9255 105.741 57.0657 107.511 57.8528ZM89.7555 55.1437C89.5122 56.5315 89.7359 58.1847 90.4267 60.1031L90.8827 59.9079C92.7068 59.1273 93.9763 58.2678 94.6866 57.1452C95.3991 56.1147 95.5569 55.0053 95.1644 54.0011C94.9648 53.3609 94.5855 52.9093 93.9321 52.5563C93.2787 52.2033 92.724 52.1244 91.9918 52.3262C90.7135 52.8174 89.9067 53.758 89.7555 55.1437ZM100.3 68.4363C100.649 67.5988 100.721 66.7678 100.423 65.8536C100.028 64.7573 99.1794 63.9483 97.877 63.4266C96.4825 62.907 94.9193 63.0365 92.9066 63.6373C92.4483 63.7404 91.9923 63.9355 91.6284 64.1285C93.1283 69.0681 95.3889 71.1334 98.2237 70.2365C99.32 69.8418 99.9514 69.2739 100.3 68.4363Z" fill="white"/>
<path d="M144.105 50.8064C144.814 53.4615 146.05 55.0905 147.723 55.6956C148.096 55.8709 148.377 56.0485 148.478 56.4147C148.681 57.239 148.344 58.537 147.371 60.2187C146.397 61.9004 144.86 63.1349 142.753 63.6458C141.015 64.148 139.447 64.0933 138.142 63.4794C136.838 62.8656 135.709 61.879 134.937 60.4232C134.746 60.1514 134.645 59.7852 134.358 59.3314L134.174 59.3358C133.773 61.8331 132.806 63.791 131.458 65.2053C130.017 66.6217 128.382 67.5821 126.551 68.0865C124.262 68.6939 122.14 68.5603 120.271 67.4992C118.403 66.4381 117.07 64.6271 116.36 61.88L113.535 51.6279C112.831 49.157 111.597 47.6201 109.648 47.0216C109.277 46.9384 108.994 46.6687 108.891 46.2105C108.687 45.3861 109.025 44.0881 109.996 42.3143C110.97 40.6326 112.414 39.4004 114.521 38.8894C116.626 38.2864 118.564 38.4244 120.244 39.3057C121.923 40.187 123.158 41.7239 123.763 43.9208L127.092 56.0035C127.394 57.1019 127.783 57.9219 128.346 58.3692C128.91 58.8164 129.466 58.9874 130.015 58.7901C130.931 58.5839 131.648 57.7376 132.075 56.3453C132.503 54.953 132.463 53.2955 131.957 51.3727L127.92 36.6348L128.095 36.2621C129.825 35.3916 131.651 34.7031 133.572 34.1044C135.402 33.6001 137.238 33.2799 139.169 33.1416C139.263 33.2315 139.358 33.3214 139.452 33.4113C139.362 33.5056 140.884 39.3661 144.105 50.8064Z" fill="white"/>
<path d="M191.783 37.1382C193.462 38.0195 194.513 39.5608 194.929 41.5779C195.451 44.1453 194.684 46.7435 192.535 49.3746C190.385 51.9136 187.109 53.6502 182.709 54.5845C177.666 55.6261 173.509 55.1725 170.144 53.1336C166.778 51.0948 164.572 47.4619 163.432 42.1451C162.487 37.2843 163.129 33.3071 165.354 30.0292C167.579 26.7513 171.306 24.6353 176.349 23.5936C180.66 22.7537 184.073 22.9487 186.593 24.2706C189.112 25.5926 190.351 27.3137 190.495 29.5215C190.621 30.9006 190.283 32.1986 189.573 33.3212C188.77 34.446 187.777 35.2989 186.407 35.7923L186.413 36.0685C188.343 35.8382 190.103 36.2569 191.783 37.1382ZM174.442 32.4844C174.107 33.8744 174.054 35.5342 174.563 37.5491L175.113 37.4438C177.034 36.8451 178.4 36.1676 179.204 35.1349C180.011 34.1943 180.261 33.0826 180.053 32.0741C179.945 31.4317 179.564 30.888 179 30.4407C178.437 29.9935 177.79 29.9168 177.148 30.0242C175.679 30.2436 174.777 31.0943 174.442 32.4844ZM183.447 46.9194C183.89 46.1717 184.052 45.2465 183.846 44.33C183.634 43.1373 182.877 42.3261 181.57 41.6202C180.266 41.0064 178.604 40.8617 176.679 41.2762C176.221 41.3793 175.762 41.4824 175.396 41.5832C176.348 46.7202 178.337 48.9762 181.27 48.3534C182.279 48.1451 183.005 47.6671 183.447 46.9194Z" fill="white"/>
<path d="M223.253 19.9869C226.72 22.3919 228.923 25.9327 229.586 30.5238C230.342 35.2048 229.424 39.1886 226.833 42.5674C224.241 45.9462 220.606 48.0599 215.833 48.8188C211.152 49.5754 206.986 48.7534 203.518 46.2563C200.049 43.7592 197.94 40.3083 197.183 35.6273C196.426 30.9464 197.437 26.9603 200.028 23.5816C202.62 20.2028 206.257 18.1811 210.938 17.4245C215.619 16.6678 219.785 17.4898 223.253 19.9869ZM218.11 32.2718C217.676 29.518 216.979 27.3234 215.928 25.7821C214.878 24.2408 213.571 23.5349 211.92 23.8507C208.798 24.2937 207.68 27.6373 208.656 33.7873C209.091 36.541 209.786 38.6436 210.836 40.1849C211.886 41.7262 213.193 42.4321 214.754 42.2106C217.966 41.6733 219.086 38.4217 218.11 32.2718Z" fill="white"/>
<path d="M267.782 36.5229C267.894 37.3494 267.278 38.5619 266.026 40.1581C264.772 41.6622 263.136 42.6226 260.931 42.8595C258.725 43.0964 256.872 42.6799 255.37 41.518C253.779 40.4503 252.908 38.7205 252.669 36.4227L251.59 25.9448C251.478 25.1182 251.368 24.3837 251.265 23.9255C251.16 23.3752 250.87 22.8293 250.579 22.1913C250.195 21.5554 249.726 21.1981 248.983 20.9394C248.239 20.6807 247.318 20.7027 246.216 20.8211C246.641 23.2066 246.968 25.3179 247.196 27.1553C247.424 28.9926 247.565 31.0162 247.619 33.3184C247.674 35.6205 247.444 37.5609 247.019 39.0452C246.594 40.5296 245.89 41.9284 244.811 43.0598C243.733 44.1912 242.275 44.871 240.527 45.0048C238.506 45.2373 236.929 44.8142 235.612 43.6479C234.296 42.5736 233.522 41.0257 233.382 39.002C233.254 37.5309 233.408 36.2373 233.93 34.9349C234.451 33.6325 234.896 32.977 235.357 32.966C235.449 32.9638 235.727 33.0493 236.1 33.2247C236.473 33.4 236.843 33.4833 237.212 33.4745C238.683 33.3473 239.667 32.126 240.259 29.9006C240.851 27.6752 240.967 24.8161 240.609 21.4156C240.425 21.42 240.059 21.5209 239.509 21.6261C238.958 21.7314 238.5 21.8345 238.132 21.8432C237.121 21.9595 236.562 21.6964 236.452 20.9619C236.33 19.6749 237.579 17.9866 240.388 15.9847C243.196 13.9829 246.485 12.7987 250.438 12.428C254.023 12.0661 256.983 12.5483 259.322 14.0588C261.659 15.4773 263.104 18.1148 263.471 21.8837C263.477 22.1599 263.58 22.6182 263.596 23.2628C263.611 23.9074 263.727 24.9181 263.85 26.2051C263.973 27.4921 264.098 28.8712 264.225 30.3423C264.475 33.1005 265.532 34.918 267.304 35.7972C267.49 35.8848 267.681 36.1567 267.782 36.5229Z" fill="white"/>
<path d="M290.044 27.3308L284.155 27.6555L284.813 39.802C284.818 39.9862 284.728 40.0805 284.546 40.1769C282.991 40.6747 281.064 40.9971 278.67 41.0542C276.831 41.1902 274.8 41.0544 272.768 40.8265C272.584 40.8309 272.489 40.741 272.485 40.5568C272.562 39.91 272.327 33.9267 271.778 22.5147C271.649 20.9514 271.436 19.7587 271.048 18.9388C270.66 18.1188 270.092 17.4874 269.158 16.9568C268.785 16.7814 268.592 16.4175 268.586 16.1412C268.566 15.3125 269.182 14.1 270.438 12.6879C271.694 11.2759 273.516 10.4032 275.634 10.3527C277.75 10.21 279.607 10.8107 281.017 11.9749C282.427 13.139 283.297 14.8689 283.348 16.9868L283.64 21.4946L289.529 21.1698L289.006 10.8629C289.002 10.6787 289.092 10.5844 289.184 10.5822C291.015 10.0779 292.85 9.75766 294.784 9.71153C296.899 9.56891 298.837 9.70695 300.594 9.94146C300.686 9.93926 300.78 10.0292 300.784 10.2133L301.765 28.1568C301.923 30.9171 302.796 32.7391 304.572 33.8023C304.945 33.9777 305.138 34.3417 305.144 34.6179C305.164 35.4467 304.548 36.6592 303.294 38.1633C301.948 39.6696 300.216 40.448 298.1 40.5907C295.892 40.7355 294.127 40.1326 292.625 38.9707C291.215 37.8065 290.435 35.9824 290.288 33.6824L290.044 27.3308Z" fill="white"/>
<path d="M340.049 37.8393C340.076 42.8141 338.699 46.901 335.915 49.9158C333.131 52.9306 329.206 54.4985 324.045 54.4373C321.833 54.398 319.798 54.078 317.939 53.3852C316.079 52.6925 314.674 51.7125 313.543 50.6338C312.503 49.553 311.648 48.4677 311.159 47.2816C310.58 46.1898 310.372 45.1812 310.348 44.1683C310.332 43.5237 310.602 43.2408 311.062 43.2298C311.339 43.2232 311.9 43.5784 312.652 44.2054C313.404 44.8324 314.435 45.545 315.831 46.1566C317.23 46.8603 318.896 47.1891 320.83 47.143C323.042 47.1824 324.867 46.4017 326.307 44.9853C327.747 43.5689 328.445 41.8938 328.398 39.96L328.341 33.696L328.157 33.7004C326.318 37.7062 323.143 39.8089 318.534 39.7346C316.138 39.6997 314.187 39.0091 312.676 37.4788C311.165 35.9485 310.376 33.756 310.4 30.8992L310.338 20.5813C310.368 18.0007 309.496 16.1787 307.812 15.1133C307.439 14.9379 307.246 14.5739 307.237 14.2056C307.215 13.2847 307.926 12.1621 309.274 10.7479C310.622 9.33367 312.357 8.64733 314.567 8.5946C316.777 8.54187 318.544 9.23681 320.048 10.4909C321.46 11.7471 322.241 13.5712 322.203 15.8756L322.226 28.4057C322.252 29.5108 322.458 30.4272 322.84 30.9709C323.222 31.5147 323.783 31.8698 324.335 31.8567C325.256 31.8347 326.164 31.2602 326.964 30.0433C327.764 28.8264 328.187 27.25 328.139 25.2241L328.051 9.93138L328.318 9.55645C330.151 9.14417 332.172 8.91166 334.201 8.95541C336.042 8.91147 337.891 9.14379 339.741 9.46819C339.835 9.55808 339.93 9.64797 339.934 9.83214L340.049 37.8393Z" fill="white"/>
<path d="M379.902 28.3196L373.995 27.9077L373.178 39.9973C373.183 40.1814 373.093 40.2757 372.819 40.3744C371.168 40.6902 369.234 40.7363 366.925 40.515C365.079 40.3748 363.137 40.0526 361.097 39.5484C360.911 39.4607 360.909 39.3686 360.907 39.2765C361.076 38.6275 361.577 32.6266 362.412 21.2737C362.559 19.7039 362.438 18.509 362.14 17.5947C361.844 16.7726 361.364 15.9548 360.522 15.422C360.147 15.1546 360.048 14.8805 360.039 14.5122C360.112 13.6812 360.914 12.5564 362.359 11.3241C363.802 9.9998 365.632 9.49543 367.847 9.62688C369.969 9.76052 371.739 10.5475 372.969 11.9003C374.291 13.2508 374.795 15.0815 374.661 17.2039L374.309 21.727L380.215 22.1389L380.982 11.8012C380.978 11.617 381.068 11.5228 381.252 11.5184C383.089 11.2903 385.021 11.152 386.959 11.2901C389.081 11.4237 391.024 11.7459 392.695 12.2589C392.789 12.3488 392.883 12.4387 392.885 12.5307L391.654 30.4348C391.444 33.204 392.134 35.1224 393.731 36.3742C394.106 36.6417 394.204 36.9158 394.213 37.2841C394.141 38.1151 393.338 39.2399 391.896 40.5642C390.453 41.8886 388.625 42.485 386.408 42.2615C384.194 42.13 382.516 41.3408 381.194 39.9903C379.872 38.6398 379.368 36.809 379.497 34.5025L379.902 28.3196Z" fill="white"/>
<path d="M427.011 37.1466C426.936 37.8855 426.496 38.7252 425.873 39.6614C425.158 40.5999 424.259 41.5427 423.176 42.4899C422.001 43.4393 420.543 44.1191 418.713 44.6234C416.882 45.1278 414.858 45.2682 412.734 45.0425C407.835 44.4223 404.014 42.5785 401.359 39.4171C398.703 36.2556 397.596 32.3201 398.22 27.6062C398.755 22.9865 400.698 19.439 404.045 16.8714C407.395 14.3959 411.609 13.374 416.6 13.992C420.943 14.5333 424.201 15.9298 426.374 18.1814C428.547 20.433 429.433 22.8075 429.124 25.3025C428.887 26.9667 428.368 28.3611 427.383 29.5824C426.397 30.7116 425.311 31.5667 423.943 32.1522C422.573 32.6456 421.2 33.0469 419.729 33.1741C418.35 33.2991 416.877 33.3343 415.489 33.091C412.81 32.7864 410.863 32.28 409.65 31.664C409.69 33.3215 410.367 34.6874 411.775 35.7595C413.183 36.8315 414.766 37.5309 416.614 37.7632C418.37 37.9977 420.028 37.9582 421.494 37.6467C422.961 37.3353 424.152 37.0305 424.974 36.7345C425.796 36.4385 426.344 36.2411 426.528 36.2367C426.897 36.2279 427.09 36.5919 427.011 37.1466ZM411.627 21.8502C410.643 23.0715 410.13 24.7422 409.9 26.6826C410.363 26.7637 410.733 26.847 411.196 26.9281C413.136 27.1582 414.697 26.9367 415.969 26.1692C417.148 25.404 417.863 24.4656 418.021 23.3561C418.093 22.5252 417.983 21.7907 417.51 21.2492C417.034 20.6155 416.289 20.2648 415.273 20.1969C413.701 19.958 412.61 20.5368 411.627 21.8502Z" fill="white"/>
<path d="M486.545 49.2705C486.22 51.121 484.878 52.8115 482.609 54.2477C480.34 55.6839 477.773 56.2058 474.811 55.6315C471.386 54.9761 468.948 53.1915 467.588 50.2756C466.229 47.3596 465.871 43.959 466.61 40.1638L465.13 39.9227L463.113 51.9487C463.118 52.1328 463.028 52.2271 462.844 52.2315C461.002 52.2755 459.064 52.1374 457.119 51.7231C454.898 51.3154 453.041 50.7148 451.458 50.0154C451.364 49.9256 451.269 49.8357 451.357 49.6493L453.836 37.7044L452.078 37.3778C451.214 39.794 450.067 41.9405 448.818 43.6288C447.568 45.3171 446.213 46.4551 444.849 47.2247C443.484 47.9023 442.205 48.3934 441.013 48.6062C439.82 48.8189 438.715 48.8453 437.606 48.6875C434.924 48.2907 432.966 47.3239 431.824 45.7849C430.681 44.2458 430.177 42.415 430.403 40.2905C430.55 38.7206 431.163 37.4161 432.242 36.2847C433.321 35.1533 434.693 34.752 436.544 35.0764C437.377 35.2408 438.12 35.4995 438.776 35.9445C439.431 36.3896 439.716 36.7513 439.541 37.1241C439.289 38.1436 439.12 38.7926 439.037 39.1631C438.712 41.0136 439.011 41.9279 439.938 42.1822C440.587 42.351 441.218 41.7831 441.834 40.5706C442.358 39.3603 442.786 37.968 443.117 36.3938C444.428 29.5443 442.77 25.7141 438.142 24.811C437.493 24.6422 436.572 24.6642 435.563 24.8725C434.552 24.9888 433.91 25.0962 433.816 25.0063C433.353 24.9252 433.254 24.6512 433.333 24.0965C433.658 22.246 434.999 20.5555 437.269 19.1193C439.538 17.6831 442.105 17.1611 445.067 17.7354C448.029 18.3097 450.369 19.8203 451.904 22.3635C453.439 24.9067 453.886 28.213 453.244 32.1903L454.91 32.5191L456.765 21.4183C456.76 21.2341 456.85 21.1398 457.034 21.1354C458.876 21.0915 460.814 21.2295 462.759 21.6438C464.888 22.0537 466.743 22.5623 468.326 23.2616C468.42 23.3515 468.514 23.4414 468.427 23.6278L466.11 34.6474L468.052 34.9696C468.92 32.7376 469.892 30.9638 471.053 29.4619C472.215 27.96 473.478 26.8242 474.752 26.1489C476.026 25.4735 477.304 24.9823 478.497 24.7696C479.69 24.5569 480.887 24.5283 482.088 24.6839C484.77 25.0806 486.728 26.0474 487.87 27.5865C489.012 29.1256 489.517 30.9563 489.383 33.0787C489.236 34.6485 488.622 35.9531 487.544 37.0845C486.465 38.2159 485.001 38.6194 483.242 38.2928C482.409 38.1284 481.666 37.8697 481.01 37.4246C480.354 36.9796 480.069 36.6178 480.245 36.2451C480.504 35.5018 480.67 34.7607 480.839 34.1118C481.168 32.4454 480.775 31.4413 479.85 31.2791C479.201 31.1103 478.57 31.6782 477.951 32.7986C477.427 34.0089 477 35.4011 476.669 36.9754C475.358 43.8248 477.016 47.6551 481.644 48.5582C482.293 48.727 483.214 48.705 484.223 48.4966C485.233 48.3804 485.876 48.2729 485.97 48.3628C486.525 48.4417 486.716 48.7136 486.545 49.2705Z" fill="white"/>
<path d="M510.153 50.1814L504.405 48.6601L501.369 60.434C501.281 60.6204 501.191 60.7147 501.007 60.7191C499.347 60.6665 497.407 60.4364 495.181 59.8446C493.326 59.336 491.561 58.7331 489.603 57.7663C489.417 57.6786 489.415 57.5865 489.41 57.4024C489.766 56.8411 491.285 51.0002 494.154 39.9673C494.579 38.483 494.735 37.2815 494.621 36.3628C494.507 35.4441 494.119 34.6242 493.457 33.9029C493.174 33.6332 493.073 33.2671 493.156 32.8965C493.413 32.0612 494.312 31.1183 496.039 30.1557C497.767 29.1931 499.604 28.965 501.735 29.467C503.774 29.9712 505.366 31.0389 506.419 32.6722C507.471 34.3056 507.699 36.1429 507.103 38.1842L506.009 42.5407L511.758 44.0621L514.375 34.0488C514.371 33.8646 514.555 33.8602 514.647 33.858C516.491 33.9061 518.434 34.2283 520.289 34.7369C522.328 35.2411 524.187 35.9338 525.68 36.7275C525.774 36.8173 525.777 36.9094 525.781 37.0936L521.313 54.5221C520.641 57.2101 520.965 59.2294 522.289 60.672C522.572 60.9417 522.673 61.3078 522.59 61.6784C522.333 62.5137 521.434 63.4565 519.707 64.4191C517.981 65.4738 516.144 65.7019 514.011 65.1079C511.877 64.5138 510.288 63.5382 509.327 61.9026C508.277 60.3614 508.139 58.4298 508.731 56.2043L510.153 50.1814Z" fill="white"/>
<path d="M558.437 50.3194C560.461 54.0488 560.836 58.186 559.466 62.5492C558.098 67.0044 555.41 70.2012 551.586 72.1352C547.763 74.0692 543.529 74.2623 538.98 72.8045C534.43 71.3467 531.143 68.7532 529.03 65.1181C527.006 61.3887 526.631 57.2515 528.091 52.794C529.459 48.3388 532.146 45.142 535.972 43.3001C539.798 41.4582 543.94 41.2673 548.487 42.633C553.034 43.9987 556.413 46.5901 558.437 50.3194ZM548.328 59.1294C549.185 56.437 549.498 54.126 549.27 52.2887C549.042 50.4514 548.093 49.2763 546.606 48.7589C543.543 47.8185 541.114 50.272 539.229 56.2138C538.369 58.8142 538.146 61.0308 538.376 62.9602C538.604 64.7975 539.462 65.9748 541.04 66.49C544.103 67.4305 546.532 64.9769 548.328 59.1294Z" fill="white"/>
<path d="M589.791 70.7631C588.337 71.627 586.682 71.7586 584.731 71.0681C583.617 70.7261 582.68 70.1035 582.014 69.198C581.347 68.2925 581.056 67.6545 581.227 67.0976C581.314 66.9112 581.488 66.4464 581.838 65.7009C582.191 65.0476 582.454 64.4884 582.535 64.0258C583.311 61.796 582.91 60.4235 581.424 59.9062C580.216 59.4743 578.937 59.9655 577.585 61.1955C576.234 62.5177 575.259 64.1073 574.57 66.1507C573.799 68.5647 573.761 70.8691 574.549 72.9695C575.336 75.0698 577.217 76.6834 580.096 77.6283C581.674 78.1434 583.431 78.3779 585.362 78.2397C587.294 78.1015 588.399 78.0751 588.585 78.1628C589.05 78.336 589.149 78.6101 588.978 79.167C588.465 80.8377 586.564 82.2651 583.372 83.6312C580.18 84.9973 576.772 85.0786 573.15 83.8751C568.32 82.2397 565.031 79.554 563.286 75.9102C561.54 72.2663 561.444 68.2145 562.908 63.9413C564.283 59.7623 566.975 56.7496 570.801 54.9077C574.627 53.0659 578.952 52.8705 583.783 54.5059C587.218 55.6217 589.748 57.4041 591.463 59.7588C593.178 62.1134 593.605 64.591 592.742 67.0071C592.229 68.6779 591.242 69.807 589.791 70.7631Z" fill="white"/>
<path d="M638.543 98.2547C638.286 99.0901 637.293 99.943 635.565 100.906C633.838 101.868 631.908 102.099 629.867 101.502C627.734 100.908 626.232 99.7463 625.274 98.2028C624.315 96.6593 624.177 94.7277 624.769 92.5023L628.259 80.4411C628.943 78.2135 628.636 76.9309 627.522 76.5889C626.687 76.3324 625.775 76.7227 624.784 77.6678C623.793 78.6128 623.091 80.1037 622.493 82.0529L618.238 96.8043C618.15 96.9907 618.06 97.0849 617.876 97.0893C616.216 97.0368 614.366 96.7124 612.324 96.1161C610.654 95.6032 608.887 94.9082 607.021 93.9392C606.926 93.8493 606.832 93.7595 606.92 93.5731L612.023 75.7609C612.707 73.5333 612.4 72.2507 611.286 71.9087C610.451 71.6522 609.539 72.0425 608.548 72.9875C607.557 73.9326 606.855 75.4235 606.257 77.3727L602.002 92.1241C601.914 92.3104 601.824 92.4047 601.64 92.4091C599.98 92.3566 598.13 92.0322 596.089 91.4359C594.326 90.9251 592.464 90.1403 590.601 89.2634C590.506 89.1735 590.412 89.0836 590.5 88.8973C590.855 88.336 592.561 82.5827 595.708 71.6354C596.134 70.151 596.289 68.9495 596.267 68.0287C596.245 67.1078 595.857 66.2878 595.195 65.5665C594.91 65.2048 594.811 64.9307 594.895 64.5602C595.151 63.7248 596.144 62.8719 597.872 61.9093C599.6 60.9467 601.531 60.8085 603.573 61.4047C605.335 61.9155 606.554 62.8078 607.412 63.9851C608.269 65.1625 608.673 66.6271 608.62 68.2868C608.622 68.3789 608.539 68.7494 608.467 69.5804L608.653 69.6681C611.79 65.9998 615.263 64.8113 618.973 65.8285C620.828 66.3371 622.328 67.4069 623.376 68.8561C624.424 70.3053 624.928 72.136 624.702 74.2606L624.889 74.3483C628.026 70.6801 631.499 69.4916 635.209 70.5087C637.436 71.1927 639.032 72.4445 640.092 74.3541C641.151 76.2638 641.298 78.5637 640.533 81.2539C640.364 81.9029 639.936 83.2952 639.252 85.5228C638.568 87.7504 638.06 89.6053 637.545 91.184C636.777 93.7821 637.012 95.8957 638.339 97.4304C638.617 97.5159 638.718 97.882 638.543 98.2547Z" fill="white"/>
<path d="M672.66 99.3757C671.987 102.064 672.312 104.083 673.54 105.344C673.823 105.613 673.924 105.979 673.84 106.35C673.676 107.183 672.685 108.128 671.052 109.181C669.418 110.233 667.491 110.556 665.36 110.054C663.599 109.635 662.29 108.837 661.433 107.66C660.576 106.482 660.082 105.112 660.043 103.454C660.036 103.178 660.025 102.718 660.104 102.163L659.918 102.075C658.398 104.046 656.587 105.38 654.667 105.978C652.746 106.577 650.812 106.623 648.96 106.206C646.642 105.617 644.864 104.461 643.715 102.646C642.566 100.831 642.327 98.533 643 95.845L645.424 85.4677C646.01 82.966 645.595 81.041 644.179 79.6006C643.896 79.331 643.795 78.9648 643.878 78.5943C644.043 77.7611 645.031 76.724 646.665 75.6715C648.298 74.619 650.225 74.2966 652.264 74.8008C654.396 75.3028 655.987 76.3705 657.13 77.9096C658.18 79.4508 658.502 81.3781 658.005 83.6934L655.162 95.8312C654.912 96.9428 654.934 97.8637 655.133 98.5039C655.425 99.1419 655.804 99.5935 656.451 99.6703C657.379 99.9245 658.383 99.532 659.371 98.4949C660.455 97.5477 661.156 96.0568 661.66 94.0177L665.174 79.0997L665.444 78.8169C667.38 78.8628 669.32 79.0929 671.267 79.5993C673.12 80.0158 674.885 80.6187 676.654 81.4057C676.748 81.4956 676.753 81.6797 676.755 81.7718C676.852 81.9538 675.425 87.7925 672.66 99.3757Z" fill="white"/>
</svg>
