<svg width="70" height="60" viewBox="0 0 70 60" fill="none" xmlns="http://www.w3.org/2000/svg">
<g opacity="0.3" clip-path="url(#clip0)">
<path fill-rule="evenodd" clip-rule="evenodd" d="M40.2137 49.1335C40.2137 49.1335 20.5315 43.8839 18.1151 26.275C15.2692 5.52562 37.4635 10.2553 40.3787 25.2406C42.3476 35.3544 40.2137 49.1335 40.2137 49.1335Z" fill="white"/>
<path fill-rule="evenodd" clip-rule="evenodd" d="M41.5844 49.5361C41.5844 49.5361 34.6968 31.0647 16.7966 29.7449C-4.28952 28.1839 2.27054 49.0838 17.5737 51.0287C25.6148 51.6157 33.6924 51.1135 41.5844 49.5361Z" fill="white"/>
</g>
<g opacity="0.5" clip-path="url(#clip1)">
<path fill-rule="evenodd" clip-rule="evenodd" d="M60.1641 21.2369C60.1641 21.2369 53.3021 15.6745 55.4628 8.27616C58.0094 -0.441394 65.9578 5.35985 64.459 11.8079C63.4481 16.1601 60.1641 21.2369 60.1641 21.2369Z" fill="white"/>
<path fill-rule="evenodd" clip-rule="evenodd" d="M60.6355 21.639C60.6355 21.639 61.179 13.1077 54.3267 9.41645C46.256 5.0657 45.153 14.5003 50.8665 17.9793C53.9457 19.6352 57.2322 20.8663 60.6355 21.639Z" fill="white"/>
</g>
<defs>
<clipPath id="clip0">
<rect width="40.5378" height="40.5378" fill="white" transform="translate(0 44.8691) rotate(-69.0942)"/>
</clipPath>
<clipPath id="clip1">
<rect width="17.5787" height="17.5787" fill="white" transform="translate(45 12.4299) rotate(-45)"/>
</clipPath>
</defs>
</svg>
