<svg width="55" height="67" viewBox="0 0 55 67" fill="none" xmlns="http://www.w3.org/2000/svg">
<g opacity="0.5" clip-path="url(#clip0)">
<path fill-rule="evenodd" clip-rule="evenodd" d="M9.80711 51.311C9.80711 51.311 17.5845 32.484 35.3582 32.3902C56.3015 32.281 48.7112 53.6665 33.4734 54.5978C23.189 55.2278 9.80711 51.311 9.80711 51.311Z" fill="white"/>
<path fill-rule="evenodd" clip-rule="evenodd" d="M9.22879 52.6177C9.22879 52.6177 28.442 48.2037 32.0903 30.6297C36.3943 9.92855 14.8163 13.7003 10.8876 28.6179C9.25455 36.5133 8.69649 44.5873 9.22879 52.6177Z" fill="white"/>
</g>
<g opacity="0.5" clip-path="url(#clip1)">
<path fill-rule="evenodd" clip-rule="evenodd" d="M9.67415 13.5485C9.67415 13.5485 5.29641 9.99986 6.67488 5.27992C8.29954 -0.281637 13.3704 3.4194 12.4142 7.53308C11.7693 10.3096 9.67415 13.5485 9.67415 13.5485Z" fill="white"/>
<path fill-rule="evenodd" clip-rule="evenodd" d="M9.97491 13.805C9.97491 13.805 10.3216 8.36225 5.95006 6.00734C0.801156 3.23169 0.0974806 9.25072 3.74255 11.4702C5.70701 12.5266 7.80369 13.3121 9.97491 13.805Z" fill="white"/>
</g>
<defs>
<clipPath id="clip0">
<rect width="40.5378" height="40.5378" fill="white" transform="translate(19.2915 12) rotate(28.417)"/>
</clipPath>
<clipPath id="clip1">
<rect width="11.2147" height="11.2147" fill="white" transform="translate(0 7.92993) rotate(-45)"/>
</clipPath>
</defs>
</svg>
