<svg width="86" height="79" viewBox="0 0 86 79" fill="none" xmlns="http://www.w3.org/2000/svg">
<g filter="url(#filter0_d)">
<path d="M61.0223 0C59.6863 0.00192487 58.3522 0.101248 57.0306 0.297178C52.293 0.991076 47.883 3.60653 42.3015 6.91012L41.9899 7.09478L41.6783 6.91012C36.0954 3.60653 31.6868 0.991076 26.9463 0.297178C25.6243 0.101249 24.2897 0.0019264 22.9532 0C16.5451 0 10.7155 2.40917 6.53478 6.78029C2.00209 11.5308 -0.307539 18.2245 0.032918 25.6309C0.347408 32.4862 2.59644 38.978 6.88822 45.477C11.2738 52.113 17.7828 58.7317 26.7963 65.7255C30.1013 68.2919 33.9545 71.18 37.4716 73.1333C37.9174 73.3814 38.3242 73.6454 38.7166 73.9008C39.787 74.5961 40.7103 75.1991 42 75.1991C43.2897 75.1991 44.213 74.5976 45.2834 73.9008C45.6758 73.6454 46.0812 73.3814 46.5284 73.1333C50.0426 71.18 53.8943 68.2919 57.2037 65.7255C66.2085 58.7317 72.719 52.1087 77.1118 45.477C81.4108 38.978 83.6526 32.4862 83.9671 25.6309C84.3075 18.2245 81.9979 11.5323 77.4638 6.78606C73.2643 2.41061 67.4333 0 61.0223 0Z" fill="#AFABB4"/>
</g>
<defs>
<filter id="filter0_d" x="0" y="0" width="86" height="78.1991" filterUnits="userSpaceOnUse" color-interpolation-filters="sRGB">
<feFlood flood-opacity="0" result="BackgroundImageFix"/>
<feColorMatrix in="SourceAlpha" type="matrix" values="0 0 0 0 0 0 0 0 0 0 0 0 0 0 0 0 0 0 127 0"/>
<feOffset dx="2" dy="3"/>
<feColorMatrix type="matrix" values="0 0 0 0 0.434192 0 0 0 0 0.418212 0 0 0 0 0.454167 0 0 0 1 0"/>
<feBlend mode="normal" in2="BackgroundImageFix" result="effect1_dropShadow"/>
<feBlend mode="normal" in="SourceGraphic" in2="effect1_dropShadow" result="shape"/>
</filter>
</defs>
</svg>
