<svg width="25" height="24" viewBox="0 0 25 24" fill="none" xmlns="http://www.w3.org/2000/svg">
<g filter="url(#filter0_d)">
<path d="M16.7085 0C16.3427 0.000527048 15.9774 0.0277226 15.6155 0.0813703C14.3183 0.271366 13.1108 0.987504 11.5826 1.89206L11.4972 1.94262L11.4119 1.89206C9.88326 0.987504 8.67613 0.271366 7.37816 0.0813703C7.01617 0.0277229 6.65074 0.000527467 6.2848 0C4.5302 0 2.934 0.659652 1.78928 1.85651C0.54819 3.15725 -0.0842071 4.99005 0.00901327 7.01799C0.0951236 8.89504 0.710931 10.6725 1.88606 12.452C3.08686 14.269 4.86911 16.0813 7.33708 17.9963C8.24203 18.699 9.29708 19.4898 10.2601 20.0246C10.3821 20.0925 10.4935 20.1648 10.601 20.2347C10.8941 20.4251 11.1469 20.5902 11.5 20.5902C11.8531 20.5902 12.1059 20.4255 12.399 20.2347C12.5065 20.1648 12.6175 20.0925 12.7399 20.0246C13.7021 19.4898 14.7568 18.699 15.6629 17.9963C18.1285 16.0813 19.9112 14.2678 21.1139 12.452C22.291 10.6725 22.9049 8.89504 22.991 7.01799C23.0842 4.99005 22.4518 3.15764 21.2103 1.85809C20.0605 0.660047 18.4639 0 16.7085 0Z" fill="#644F9A"/>
</g>
<defs>
<filter id="filter0_d" x="0" y="0" width="25" height="23.5902" filterUnits="userSpaceOnUse" color-interpolation-filters="sRGB">
<feFlood flood-opacity="0" result="BackgroundImageFix"/>
<feColorMatrix in="SourceAlpha" type="matrix" values="0 0 0 0 0 0 0 0 0 0 0 0 0 0 0 0 0 0 127 0"/>
<feOffset dx="2" dy="3"/>
<feColorMatrix type="matrix" values="0 0 0 0 0.231373 0 0 0 0 0.172549 0 0 0 0 0.447059 0 0 0 1 0"/>
<feBlend mode="normal" in2="BackgroundImageFix" result="effect1_dropShadow"/>
<feBlend mode="normal" in="SourceGraphic" in2="effect1_dropShadow" result="shape"/>
</filter>
</defs>
</svg>
