<svg width="25" height="24" viewBox="0 0 25 24" fill="none" xmlns="http://www.w3.org/2000/svg">
<g filter="url(#filter0_d)">
<path d="M16.7085 0C16.3427 0.000518845 15.9774 0.0272911 15.6155 0.0801038C14.3183 0.267142 13.1108 0.972134 11.5826 1.86261L11.4972 1.91238L11.4119 1.86261C9.88326 0.972134 8.67613 0.267142 7.37816 0.0801038C7.01617 0.0272914 6.65074 0.000519257 6.2848 0C4.5302 0 2.934 0.649385 1.78928 1.82761C0.54819 3.10811 -0.0842071 4.91239 0.00901327 6.90876C0.0951236 8.75659 0.710931 10.5064 1.88606 12.2582C3.08686 14.0469 4.86911 15.831 7.33708 17.7162C8.24203 18.4079 9.29708 19.1864 10.2601 19.7129C10.3821 19.7798 10.4935 19.851 10.601 19.9198C10.8941 20.1072 11.1469 20.2698 11.5 20.2698C11.8531 20.2698 12.1059 20.1076 12.399 19.9198C12.5065 19.851 12.6175 19.7798 12.7399 19.7129C13.7021 19.1864 14.7568 18.4079 15.6629 17.7162C18.1285 15.831 19.9112 14.0458 21.1139 12.2582C22.291 10.5064 22.9049 8.75659 22.991 6.90876C23.0842 4.91239 22.4518 3.10849 21.2103 1.82917C20.0605 0.649774 18.4639 0 16.7085 0Z" fill="#FFC122"/>
</g>
<defs>
<filter id="filter0_d" x="0" y="0" width="25" height="23.2698" filterUnits="userSpaceOnUse" color-interpolation-filters="sRGB">
<feFlood flood-opacity="0" result="BackgroundImageFix"/>
<feColorMatrix in="SourceAlpha" type="matrix" values="0 0 0 0 0 0 0 0 0 0 0 0 0 0 0 0 0 0 127 0"/>
<feOffset dx="2" dy="3"/>
<feColorMatrix type="matrix" values="0 0 0 0 0.8375 0 0 0 0 0.602545 0 0 0 0 0 0 0 0 1 0"/>
<feBlend mode="normal" in2="BackgroundImageFix" result="effect1_dropShadow"/>
<feBlend mode="normal" in="SourceGraphic" in2="effect1_dropShadow" result="shape"/>
</filter>
</defs>
</svg>
