<svg width="15" height="15" viewBox="0 0 15 15" fill="none" xmlns="http://www.w3.org/2000/svg">
<path d="M7.5 15C11.6421 15 15 11.6421 15 7.5C15 3.35786 11.6421 0 7.5 0C3.35786 0 0 3.35786 0 7.5C0 11.6421 3.35786 15 7.5 15Z" fill="white"/>
<path fill-rule="evenodd" clip-rule="evenodd" d="M8.93684 7.0052C9.24882 6.59295 9.4828 6.16955 9.4828 5.61245C9.4828 4.1974 8.39088 3.38403 7.13182 3.38403C5.83935 3.38403 4.79199 4.23083 4.79199 5.61245H6.24046C6.24046 5.09991 6.5413 4.68765 7.13182 4.68765C7.68893 4.68765 8.03433 5.07763 8.03433 5.6013C8.03433 5.84643 7.88949 6.11384 7.71121 6.34782L6.8867 7.40632C6.59701 7.78515 6.4633 8.08598 6.4633 8.56509V8.89935H7.91177V8.66537C7.91177 8.47596 8.00091 8.24197 8.11233 8.09713L8.93684 7.0052ZM6.41895 11.384H7.95655V9.9021H6.41895V11.384Z" fill="#3B2C72"/>
</svg>
