<svg width="101" height="26" viewBox="0 0 101 26" fill="none" xmlns="http://www.w3.org/2000/svg">
<path d="M0 26H96L101 13L96 0H0V26Z" fill="#1C388C"/>
<path fill-rule="evenodd" clip-rule="evenodd" d="M21.7782 10.3652L21.2229 10.4783L21.1674 10.987L20.4456 10.9304L20.168 11.3261L19.5016 11.1L19.0574 11.3826L18.4467 11.0435L17.8914 11.1565L17.3917 10.7043L16.7254 10.6478L16.3922 10.1391L15.7259 9.91304L15.5594 9.34783L14.9486 9.0087L15.0041 8.5L14.5044 7.9913L14.782 7.65217L14.4489 7.08696L14.8931 6.80435L14.7265 6.23913L15.2817 6.12609L15.3373 5.61739H16.0036L16.2812 5.22174L16.9475 5.44783L17.3917 5.16522L18.0025 5.50435L18.5577 5.3913L19.0574 5.84348L19.7238 5.9L20.0569 6.4087L20.7232 6.63478L20.8898 7.2L21.5006 7.53913L21.445 8.04783L21.9448 8.5L21.6671 8.89565L22.0003 9.46087L21.5561 9.74348C21.6116 9.8 21.7782 10.3652 21.7782 10.3652ZM23.9992 7.82174C23.8881 7.76522 25.3873 6.97391 25.3873 6.63478C25.3873 5.84348 23.8326 5.22174 22.2224 5.27826C22.0558 5.27826 22.1669 4.43043 21.8337 3.63913C21.5561 3.18696 21.5006 3.07391 19.8903 3.75217C19.7238 3.07391 18.8909 0.869565 17.3917 2.96087C17.1696 2.62174 16.9475 2.16957 16.5033 2C16.3367 2.11304 16.0591 2.45217 15.7815 2.96087C15.4483 2.73478 14.7265 2.22609 14.0602 2.33913C13.9491 2.39565 13.9491 2.84783 13.8936 3.46957C13.7826 3.52609 12.8386 3.18696 12.1723 3.41304C12.1723 3.52609 12.45 4.26087 12.6721 4.6C12.1723 4.54348 11.3395 4.88261 11.0618 5.1087C11.0618 5.22174 11.0618 5.67391 12.1723 6.57826C11.5616 6.74783 11.0063 7.31304 11.0063 7.42609C10.8953 8.16087 12.2834 9.0087 12.6165 9.17826C12.2834 9.85652 12.0058 10.7609 12.1723 11.1C12.8942 11.7217 13.6715 11.7783 14.2823 11.7217C14.2268 11.8348 14.2268 12.0043 14.1712 12.1174V12.2304C14.1157 12.4 14.0602 12.6261 14.0047 12.7957C13.9491 12.9652 13.9491 13.0217 13.9491 13.0783C14.0047 13.4174 14.7265 13.7 15.2817 13.7C15.3928 13.7 15.6704 13.7 15.837 13.7C16.5033 13.587 16.9475 13.4174 17.2251 13.1913C17.3362 13.1348 17.3917 13.0783 17.4472 13.0217C17.6693 13.5304 18.2801 14.3217 19.7793 15C20.0014 14.8304 20.5011 13.8696 20.5011 13.7565C20.6677 13.9826 21.8337 14.8304 22.7221 14.6043C23.1108 14.2652 23.0553 12.6261 23.0553 12.6261C23.0553 12.6261 23.9437 12.9652 24.5544 12.9087C24.721 12.9087 24.9986 12.9087 25.1097 12.5696C25.1652 12.4565 25.2207 11.9478 25.1097 11.5522C24.9986 10.987 24.3323 10.3652 24.3323 10.3652C24.3323 10.3652 25.3873 10.1957 25.9981 9.46087C26.0536 9.12174 24.8876 8.10435 23.9992 7.82174Z" fill="#FFE100"/>
<path fill-rule="evenodd" clip-rule="evenodd" d="M16.2904 20.4522C16.9114 19.3415 18.1534 17.8799 21.1456 18.2892C21.0892 18.3476 17.6453 18.7569 16.2904 20.4522ZM9.85437 15.9507C12.5643 15.4246 14.0886 17.12 14.7096 18.2892C12.3949 15.8923 9.85437 15.9507 9.85437 15.9507ZM21.8231 18.0553C19.7342 16.1846 18.097 17.5876 17.7018 17.8215C17.0243 18.2892 16.5727 18.6984 16.2339 19.1661C16.4598 18.1138 16.742 16.6523 16.8549 16.0677C16.9679 15.3077 17.2501 13.2615 16.8549 13.0277C16.742 12.9692 16.742 12.9692 16.6856 13.3784C16.6856 13.3784 16.6291 14.1969 16.0081 16.1846C15.7258 17.12 15.6129 17.5876 15.4435 17.9969C15.2177 17.2369 14.7096 16.243 13.3547 15.3077C12.9595 15.0154 11.2658 13.5538 9.1769 15.6C9.00753 15.8338 8.83816 16.1261 9.28981 16.4769C9.74146 16.7692 9.91083 16.9446 10.0237 17.2953C10.1367 17.6461 10.6448 18.9322 12.3384 19.0492C14.0321 19.1661 14.4273 19.4584 14.7096 19.6922C14.7096 19.6922 14.879 19.8676 14.9919 19.9261C14.9919 19.9845 14.9919 19.9845 14.9919 20.043C14.9919 20.043 14.7661 22.3815 15.2742 23.2584C15.8952 24.2522 16.5727 23.9599 16.5727 23.9599C16.5727 23.9599 16.1775 23.2584 16.0081 21.9722C16.1775 21.9138 16.3468 21.7384 16.3468 21.7384C16.6856 21.4461 16.9679 21.2707 18.6616 21.1538C20.3552 21.0368 20.8633 19.8676 20.9763 19.5169C21.0892 19.1661 21.2585 18.9907 21.7102 18.7569C22.1618 18.523 21.9925 18.2307 21.8231 18.0553Z" fill="#96DE16"/>
<path fill-rule="evenodd" clip-rule="evenodd" d="M74.6617 6.19531H64.4965V9.49061H67.9035V19.4324H71.1988V9.49061H74.6059L74.6617 6.19531ZM59.9725 10.8869H55.3367V6.19531H51.9856V10.8869H51.0361V14.1822H51.9856V19.4324H55.2809V14.1822H59.9166V19.4324H63.2119V6.19531H59.9166V10.8869H59.9725ZM43.8869 14.1822H50.2541V10.8869H43.8869V9.54647H50.4217V6.25117H40.4799V19.4882H50.5893V16.1929H43.8869V14.1822ZM25.7349 19.4324H29.2536L32.6606 9.49061H35.3415V19.4324H38.8602V6.19531H30.2031L25.7349 19.4324Z" fill="#FFE100"/>
<path fill-rule="evenodd" clip-rule="evenodd" d="M78.683 12.2274L79.4649 9.93743L80.2469 12.2274H78.683ZM81.5315 6.19531H77.4542L75.3877 12.2274H73.1536V15.5227H74.2706L72.9302 19.4324H76.2255L77.5659 15.5227H81.3639L82.7044 19.4324H85.9997L81.5315 6.19531Z" fill="#FFE100"/>
</svg>
