<svg width="197" height="68" viewBox="0 0 197 68" fill="none" xmlns="http://www.w3.org/2000/svg">
<g filter="url(#filter0_d)">
<rect x="6" y="3" width="185" height="56" rx="28" fill="white"/>
</g>
<path d="M103.128 38.3143V23.6909H112.605V27.0874H107.08V38.3143H103.128Z" fill="#E30613"/>
<path d="M124.526 38.3143V32.5871H118.656V38.3143H114.705V23.6909H118.656V29.1483H124.526V23.6909H128.478V38.3143H124.526Z" fill="#E30613"/>
<path d="M151.409 38.3143V27.0874H146.793V23.6909H160V27.0874H155.362V38.3143H151.409Z" fill="#E30613"/>
<path d="M140.979 38.3123V29.9802L134.689 38.3123H131.385V23.6929H135.336V31.9383L141.521 23.6929H144.932V38.3123H140.979Z" fill="#E30613"/>
<path d="M80.4208 38.3143V29.6237L76.4756 34.2149L72.5305 29.6237V38.3143H68.5791V23.6909H72.4788L76.4756 28.7192L80.4725 23.6909H84.3721V38.3143H80.4208Z" fill="#E30613"/>
<path fill-rule="evenodd" clip-rule="evenodd" d="M96.7781 36.2633L97.6052 38.3121H101.645L95.5665 23.6907H91.9129L85.8359 38.3121H89.8079L90.635 36.2633H96.7781ZM93.7098 28.5859L95.5459 33.171H91.8737L93.7098 28.5859Z" fill="#E30613"/>
<path d="M37.9841 26.662C37.988 24.896 38.7099 23.2033 39.9918 21.9547C41.2738 20.706 43.0113 20.0032 44.824 20H60.615V23.3864H44.8282C43.9375 23.3901 43.0843 23.7364 42.4543 24.3498C41.8243 24.9632 41.4684 25.7942 41.4641 26.662L41.4434 32.3471C41.3713 33.0754 41.0537 33.76 40.54 34.294C40.0264 34.8279 39.3458 35.181 38.6044 35.2983L37.9841 35.391V26.662Z" fill="#E30613"/>
<path d="M37.9844 42.0048V38.6183H53.7753C54.6662 38.6141 55.5193 38.2674 56.1493 37.6537C56.7792 37.0398 57.1351 36.2087 57.1395 35.3407V29.9458C57.1438 29.1631 57.4336 28.4074 57.9571 27.8136C58.4805 27.2199 59.2035 26.8267 59.997 26.7044L60.6173 26.6138V35.3407C60.6134 37.107 59.8916 38.7999 58.6096 40.0488C57.3278 41.2978 55.5903 42.001 53.7774 42.0048H37.9844Z" fill="#E30613"/>
<path d="M51.3615 35.4032V31.0256L49.3021 33.4209L47.2447 31.0256V35.4032H44.5175V26.7891H47.1L49.3021 29.559L51.5042 26.7891H54.0868V35.4032H51.3615Z" fill="#E30613"/>
<defs>
<filter id="filter0_d" x="0" y="0" width="197" height="68" filterUnits="userSpaceOnUse" color-interpolation-filters="sRGB">
<feFlood flood-opacity="0" result="BackgroundImageFix"/>
<feColorMatrix in="SourceAlpha" type="matrix" values="0 0 0 0 0 0 0 0 0 0 0 0 0 0 0 0 0 0 127 0"/>
<feOffset dy="3"/>
<feGaussianBlur stdDeviation="3"/>
<feColorMatrix type="matrix" values="0 0 0 0 0.340009 0 0 0 0 0.134184 0 0 0 0 0.545833 0 0 0 0.36 0"/>
<feBlend mode="normal" in2="BackgroundImageFix" result="effect1_dropShadow"/>
<feBlend mode="normal" in="SourceGraphic" in2="effect1_dropShadow" result="shape"/>
</filter>
</defs>
</svg>
