<svg width="88" height="17" viewBox="0 0 88 17" fill="none" xmlns="http://www.w3.org/2000/svg">
<path d="M46.5762 13.4165V2.70374H53.3514V5.19192H49.4013V13.4165H46.5762Z" fill="#E30613"/>
<path d="M61.8756 13.4165V9.22084H57.6786V13.4165H54.8535V2.70374H57.6786V6.70165H61.8756V2.70374H64.7007V13.4165H61.8756Z" fill="#E30613"/>
<path d="M81.0955 13.4165V5.19192H77.7959V2.70374H87.238V5.19192H83.9221V13.4165H81.0955Z" fill="#E30613"/>
<path d="M73.6387 13.4149V7.31102L69.1416 13.4149H66.7793V2.70508H69.6044V8.74545L74.0261 2.70508H76.4653V13.4149H73.6387Z" fill="#E30613"/>
<path d="M30.341 13.4165V7.04994L27.5203 10.4133L24.6996 7.04994V13.4165H21.8745V2.70374H24.6627L27.5203 6.3873L30.3779 2.70374H33.166V13.4165H30.341Z" fill="#E30613"/>
<path fill-rule="evenodd" clip-rule="evenodd" d="M42.0362 11.914L42.6275 13.4149H45.5162L41.1699 2.70361H38.5577L34.2129 13.4149H37.0527L37.6441 11.914H42.0362ZM41.1549 9.6487H38.5294L39.8422 6.28979L41.1549 9.6487Z" fill="#E30613"/>
<path d="M0 4.88044C0.0027354 3.58665 0.518892 2.34665 1.43546 1.43194C2.35202 0.517231 3.5943 0.00233953 4.89032 0H16.1804V2.4808H4.89329C4.25646 2.48351 3.64648 2.73716 3.19604 3.18655C2.7456 3.63594 2.49115 4.24471 2.48804 4.88044L2.47325 9.04513C2.42172 9.5787 2.19462 10.0802 1.8274 10.4714C1.46019 10.8625 0.973559 11.1212 0.4435 11.2072L0 11.275V4.88044Z" fill="#E30613"/>
<path d="M0.000488281 16.12V13.6392H11.2905C11.9275 13.6361 12.5375 13.3821 12.9879 12.9325C13.4382 12.4828 13.6927 11.8739 13.6958 11.2381V7.28593C13.6989 6.71255 13.9061 6.15893 14.2803 5.72396C14.6546 5.28899 15.1715 5.00099 15.7388 4.91139L16.1823 4.84497V11.2381C16.1796 12.5321 15.6635 13.7722 14.7469 14.6871C13.8304 15.6021 12.5882 16.1172 11.292 16.12H0.000488281Z" fill="#E30613"/>
<path d="M9.56469 11.2838V8.07697L8.09225 9.83168L6.62131 8.07697V11.2838H4.67139V4.97339H6.51783L8.09225 7.0026L9.66669 4.97339H11.5131V11.2838H9.56469Z" fill="#E30613"/>
</svg>
