<svg width="447" height="222" viewBox="0 0 447 222" fill="none" xmlns="http://www.w3.org/2000/svg">
<path fill-rule="evenodd" clip-rule="evenodd" d="M432.42 54.9405C432.42 54.9405 437.261 50.0887 442.798 52.3469C449.323 55.0083 444.211 60.6796 439.354 59.0081C436.076 57.8804 432.42 54.9405 432.42 54.9405Z" fill="white"/>
<path fill-rule="evenodd" clip-rule="evenodd" d="M432.072 55.2723C432.072 55.2723 438.613 56.3728 442.009 51.3791C446.011 45.4976 438.818 43.8931 435.677 48.025C434.153 50.2692 432.94 52.7074 432.072 55.2723Z" fill="white"/>
<path fill-rule="evenodd" clip-rule="evenodd" d="M397.061 58.4175C397.061 58.4175 399.463 43.5155 412.265 40.4207C427.35 36.775 425.519 53.4903 414.688 56.7572C407.379 58.9631 397.061 58.4175 397.061 58.4175Z" fill="white"/>
<path fill-rule="evenodd" clip-rule="evenodd" d="M396.866 59.4575C396.866 59.4575 409.971 53.002 409.609 39.7068C409.187 24.0448 394.268 30.4399 393.975 41.8671C394.142 47.8391 395.115 53.7569 396.866 59.4575Z" fill="white"/>
<path fill-rule="evenodd" clip-rule="evenodd" d="M25.1287 185.7C25.1287 185.7 13.5962 180.285 14.0621 169.178C14.6119 156.091 27.7485 161.464 27.8806 171.011C27.9707 177.455 25.1287 185.7 25.1287 185.7Z" fill="white"/>
<path fill-rule="evenodd" clip-rule="evenodd" d="M25.9274 186.099C25.9274 186.099 23.7368 173.966 12.8652 171.168C0.0592396 167.868 1.77884 181.46 10.9826 184.355C15.867 185.608 20.8947 186.195 25.9274 186.099Z" fill="white"/>
<path d="M103.25 221.28C97.6933 221.28 92.7281 219.625 88.5904 216.551C85.9896 218.561 82.5613 219.625 78.8965 219.625C75.8228 219.625 73.1037 219.034 70.7394 217.733C70.0301 217.379 69.2025 216.788 68.375 216.078C67.4292 216.906 66.3653 217.733 65.1831 218.325C61.7547 220.334 57.9717 221.28 53.7159 221.28C45.7952 221.28 40.83 217.733 38.111 214.896C34.2097 210.877 32.2 205.557 32.2 199.528C32.2 195.39 33.1458 191.607 35.0373 188.061C37.1652 184.159 39.6478 181.795 42.0122 180.613C39.6478 178.13 38.3474 174.702 38.3474 171.51C38.3474 168.082 39.5296 165.244 41.0664 162.88C38.4656 160.634 37.047 157.442 37.047 154.014C37.047 153.895 37.047 153.659 37.047 153.541C37.1652 147.984 37.2834 144.083 37.4016 141.837C34.8008 138.527 33.9733 134.153 35.5101 130.133C35.983 128.715 36.9288 126.823 38.5838 125.05C38.2292 123.986 38.111 122.804 38.111 121.74V93.9583C37.4016 93.1308 36.8105 92.0668 36.3377 90.7664C35.1555 87.4563 35.3919 83.7915 36.9288 80.7178C35.983 78.9445 35.3919 76.9348 35.3919 74.8068V25.5096C35.3919 19.0075 40.7118 13.6877 47.2138 13.6877H64.7102C71.4487 13.6877 77.3596 15.461 81.8519 18.6529C83.9799 15.6974 87.5265 13.6877 91.5459 13.6877H100.412C106.914 13.6877 112.234 19.0075 112.234 25.5096V30.9476C114.717 31.1841 117.199 31.657 119.446 32.4845V25.3914C119.446 18.8893 124.765 13.5695 131.267 13.5695H139.779C142.025 13.5695 144.272 14.2788 146.045 15.3427C147.818 14.1606 149.946 13.5695 152.31 13.5695H161.177C166.142 13.5695 170.398 16.6432 172.171 21.0173L173.59 18.8893C175.718 15.5792 179.501 13.5695 183.52 13.5695H192.387C194.633 13.5695 196.879 14.2788 198.652 15.3427C200.425 14.1606 202.553 13.5695 204.918 13.5695H233.054C234.354 13.5695 235.536 13.8059 236.719 14.1606C237.901 13.8059 239.083 13.5695 240.383 13.5695H259.299C268.283 13.5695 275.849 17.2343 280.696 23.3816L281.405 21.4901C283.061 16.7614 287.553 13.5695 292.518 13.5695H301.857C306.822 13.5695 311.315 16.7614 312.97 21.4901L314.27 25.1549C314.388 19.7168 318.29 15.1063 323.373 13.9241C323.373 13.8059 323.373 12.7419 323.373 12.7419C323.373 6.23989 328.693 0.920044 335.195 0.920044H341.934C343.589 0.920044 345.125 1.2747 346.544 1.8658C347.963 1.2747 349.499 0.920044 351.155 0.920044H357.775C364.277 0.920044 369.597 6.23989 369.597 12.7419C369.597 12.7419 369.597 13.9241 369.597 14.0423C374.444 15.5792 377.872 20.0715 377.872 25.2731V74.334C377.872 77.4077 376.69 80.2449 374.798 82.3729C376.69 85.4465 378.227 89.5842 378.227 94.9041C378.227 98.9235 377.281 102.707 375.626 106.135C373.971 109.563 371.37 112.282 368.178 114.528V116.775C368.178 118.311 367.942 119.73 367.351 121.03C369.478 121.976 371.134 123.277 372.316 124.341C377.754 129.306 378.936 134.744 378.936 138.409C378.936 140.3 378.7 142.192 378.108 143.965C378.818 146.329 378.818 148.812 377.99 151.294C377.517 153.068 376.572 154.723 375.389 156.496C374.444 157.915 373.261 159.215 371.843 160.516C371.725 160.634 371.488 160.752 371.37 160.988C374.089 165.126 375.508 169.737 375.508 174.702V191.252C378.345 193.735 380 197.4 380 201.183C380 207.212 376.335 211.704 373.498 214.542C369.242 218.916 363.568 221.162 357.184 221.162C351.273 221.162 345.953 219.27 341.815 215.724C336.495 219.27 330.112 221.044 323.137 221.044C317.817 221.044 312.852 220.216 308.596 218.443C305.877 217.261 303.394 215.842 301.266 214.187C301.148 214.305 301.148 214.305 301.03 214.423C296.774 218.797 291.099 221.044 284.716 221.044C280.105 221.044 275.731 219.861 272.184 217.615C271.002 218.325 269.82 218.797 268.401 219.152C265.091 219.98 261.426 220.334 257.289 220.334C253.979 220.334 250.314 219.98 246.531 219.27C246.294 219.27 246.176 219.152 245.94 219.152C245.467 219.034 245.112 218.916 244.639 218.797C244.166 218.916 243.694 219.152 243.102 219.27C239.792 220.098 236.128 220.453 231.99 220.453C228.443 220.453 224.779 220.098 220.996 219.389C220.759 219.389 220.641 219.27 220.404 219.27C219.459 219.034 218.513 218.679 217.685 218.206C214.257 220.098 210.356 221.162 206.218 221.162C199.953 221.162 194.396 219.034 190.259 215.133C188.367 213.359 186.357 210.759 184.939 207.212C184.348 207.212 183.757 207.212 183.047 207.212C178.319 207.212 174.063 206.266 170.398 204.493C169.097 206.976 167.206 209.34 165.078 211.586C162.477 214.305 159.049 216.551 154.911 218.325C150.774 219.98 146.399 220.925 141.671 220.925C133.041 220.925 125.593 218.797 119.446 214.423L119.327 214.542C115.19 218.916 109.633 221.28 103.25 221.28Z" fill="white"/>
<path d="M63.4098 81.7817C63.528 81.7817 63.6463 81.8999 63.6463 82.1364V121.503C63.6463 121.74 63.528 121.858 63.4098 121.858H50.0511C49.8146 121.858 49.8146 121.74 49.8146 121.503V93.84C49.8146 91.9485 49.6964 90.5299 49.3418 89.466C48.9871 88.402 48.6325 87.5745 48.0414 87.1016C47.5685 86.6287 47.332 86.3923 47.332 86.3923C47.0956 86.0376 47.2138 85.8012 47.4503 85.5647C47.6867 85.3283 48.1596 85.0919 48.8689 84.9736L63.4098 81.7817ZM120.864 102.588C120.864 105.307 120.51 107.79 119.682 110.272C118.973 112.637 117.791 114.883 116.372 116.893C114.953 118.902 113.062 120.439 110.697 121.621C108.333 122.804 105.614 123.395 102.777 123.395C98.9937 123.395 95.6836 122.331 92.8463 120.321C90.0091 118.311 87.9993 115.711 86.6989 112.637C85.3985 109.563 84.8074 106.253 84.8074 102.588C84.8074 97.032 86.3443 92.185 89.5362 88.0473C92.7281 83.9097 97.1022 81.8999 102.777 81.8999C106.56 81.8999 109.87 82.9639 112.707 84.9736C115.544 86.9834 117.554 89.5842 118.973 92.6579C120.273 95.7316 120.864 99.0417 120.864 102.588ZM98.4026 102.588C98.4026 111.573 99.8212 116.183 102.777 116.183C103.841 116.183 104.668 115.829 105.259 115.001C105.85 114.174 106.323 113.11 106.678 111.573C106.914 110.036 107.151 108.617 107.269 107.317C107.387 106.017 107.387 104.48 107.387 102.588C107.387 93.6036 105.85 88.9931 102.777 88.9931C99.8212 89.1113 98.4026 93.6036 98.4026 102.588ZM159.404 102.588C159.404 105.307 159.049 107.79 158.221 110.272C157.512 112.637 156.33 114.883 154.911 116.893C153.493 118.902 151.601 120.439 149.237 121.621C146.872 122.804 144.153 123.395 141.316 123.395C137.533 123.395 134.223 122.331 131.386 120.321C128.548 118.311 126.539 115.711 125.238 112.637C123.938 109.563 123.347 106.253 123.347 102.588C123.347 97.032 124.884 92.185 128.076 88.0473C131.267 83.9097 135.642 81.8999 141.316 81.8999C145.099 81.8999 148.409 82.9639 151.246 84.9736C154.084 86.9834 156.093 89.5842 157.512 92.6579C158.694 95.7316 159.404 99.0417 159.404 102.588ZM136.824 102.588C136.824 111.573 138.242 116.183 141.198 116.183C142.262 116.183 143.089 115.829 143.68 115.001C144.272 114.174 144.744 113.11 145.099 111.573C145.336 110.036 145.572 108.617 145.69 107.317C145.808 106.017 145.808 104.48 145.808 102.588C145.808 93.6036 144.272 88.9931 141.198 88.9931C138.361 89.1113 136.824 93.6036 136.824 102.588ZM197.825 102.588C197.825 105.307 197.47 107.79 196.643 110.272C195.933 112.637 194.751 114.883 193.332 116.893C191.914 118.902 190.022 120.439 187.658 121.621C185.294 122.804 182.574 123.395 179.737 123.395C175.954 123.395 172.644 122.331 169.807 120.321C166.97 118.311 164.96 115.711 163.659 112.637C162.359 109.563 161.768 106.253 161.768 102.588C161.768 97.032 163.305 92.185 166.497 88.0473C169.689 83.9097 174.063 81.8999 179.737 81.8999C183.52 81.8999 186.83 82.9639 189.668 84.9736C192.505 86.9834 194.515 89.5842 195.933 92.6579C197.234 95.7316 197.825 99.0417 197.825 102.588ZM175.363 102.588C175.363 111.573 176.782 116.183 179.737 116.183C180.801 116.183 181.629 115.829 182.22 115.001C182.811 114.174 183.284 113.11 183.638 111.573C183.875 110.036 184.111 108.617 184.23 107.317C184.348 106.017 184.348 104.48 184.348 102.588C184.348 93.6036 182.811 88.9931 179.737 88.9931C176.782 89.1113 175.363 93.6036 175.363 102.588ZM254.097 102.588C254.097 105.307 253.742 107.79 252.915 110.272C252.205 112.637 251.023 114.883 249.605 116.893C248.186 118.902 246.294 120.439 243.93 121.621C241.566 122.804 238.847 123.395 236.009 123.395C232.226 123.395 228.916 122.331 226.079 120.321C223.242 118.311 221.232 115.711 219.932 112.637C218.631 109.563 218.04 106.253 218.04 102.588C218.04 97.032 219.577 92.185 222.769 88.0473C225.961 83.9097 230.335 81.8999 236.009 81.8999C239.792 81.8999 243.103 82.9639 245.94 84.9736C248.777 86.9834 250.787 89.5842 252.205 92.6579C253.388 95.7316 254.097 99.0417 254.097 102.588ZM231.517 102.588C231.517 111.573 232.936 116.183 235.891 116.183C236.955 116.183 237.783 115.829 238.374 115.001C238.965 114.174 239.438 113.11 239.792 111.573C240.029 110.036 240.265 108.617 240.384 107.317C240.502 106.017 240.502 104.48 240.502 102.588C240.502 93.6036 238.965 88.9931 235.891 88.9931C233.054 89.1113 231.517 93.6036 231.517 102.588ZM292.518 102.588C292.518 105.307 292.163 107.79 291.336 110.272C290.627 112.637 289.444 114.883 288.026 116.893C286.607 118.902 284.716 120.439 282.351 121.621C279.987 122.804 277.268 123.395 274.431 123.395C270.648 123.395 267.337 122.331 264.5 120.321C261.663 118.311 259.653 115.711 258.353 112.637C257.052 109.563 256.461 106.253 256.461 102.588C256.461 97.032 257.998 92.185 261.19 88.0473C264.382 83.9097 268.756 81.8999 274.431 81.8999C278.214 81.8999 281.524 82.9639 284.361 84.9736C287.198 86.9834 289.208 89.5842 290.627 92.6579C291.927 95.7316 292.518 99.0417 292.518 102.588ZM270.056 102.588C270.056 111.573 271.475 116.183 274.431 116.183C275.495 116.183 276.322 115.829 276.913 115.001C277.504 114.174 277.977 113.11 278.332 111.573C278.568 110.036 278.805 108.617 278.923 107.317C279.041 106.017 279.041 104.48 279.041 102.588C279.041 93.6036 277.504 88.9931 274.431 88.9931C271.475 89.1113 270.056 93.6036 270.056 102.588ZM331.057 102.588C331.057 105.307 330.703 107.79 329.875 110.272C329.166 112.637 327.984 114.883 326.565 116.893C325.146 118.902 323.255 120.439 320.891 121.621C318.526 122.804 315.807 123.395 312.97 123.395C309.187 123.395 305.877 122.331 303.04 120.321C300.202 118.311 298.193 115.711 296.892 112.637C295.592 109.563 295.001 106.253 295.001 102.588C295.001 97.032 296.537 92.185 299.729 88.0473C302.921 83.9097 307.295 81.8999 312.97 81.8999C316.753 81.8999 320.063 82.9639 322.9 84.9736C325.738 86.9834 327.747 89.5842 329.166 92.6579C330.348 95.7316 331.057 99.0417 331.057 102.588ZM308.478 102.588C308.478 111.573 309.896 116.183 312.852 116.183C313.916 116.183 314.743 115.829 315.334 115.001C315.925 114.174 316.398 113.11 316.753 111.573C316.989 110.036 317.226 108.617 317.344 107.317C317.462 106.017 317.462 104.48 317.462 102.588C317.462 93.6036 315.925 88.9931 312.852 88.9931C310.014 89.1113 308.478 93.6036 308.478 102.588ZM71.2123 145.029C71.2123 146.329 71.3305 147.393 71.5669 148.221C71.8034 149.048 72.0398 149.639 72.2762 149.994C72.5127 150.349 72.8673 150.585 73.1038 150.822C73.3402 150.94 73.5766 151.176 73.6949 151.294C73.8131 151.413 73.8131 151.531 73.8131 151.767C73.5766 152.477 72.9855 153.186 71.9216 153.777C70.8576 154.368 69.7936 154.723 68.6114 154.723C66.8382 154.723 65.3013 154.132 64.1191 152.95C62.9369 151.767 62.3458 150.112 62.3458 148.103V145.265H57.9717V153.777C57.9717 153.895 57.8535 154.013 57.7353 154.013H48.8689L48.7507 153.895C48.7507 153.895 48.7507 153.895 48.7507 153.777C48.9871 147.039 49.1053 142.664 49.1053 140.655C49.1053 139.118 48.9871 137.817 48.6325 136.872C48.2778 135.926 48.0414 135.335 47.6867 135.098C47.332 134.862 46.9774 134.744 46.741 134.507C46.5045 134.389 46.3863 134.153 46.5045 133.916C46.741 133.207 47.4503 132.379 48.5142 131.788C49.5782 131.197 50.6422 130.843 51.8244 130.843C53.5976 130.843 55.1345 131.434 56.3167 132.734C57.4989 134.034 58.09 135.571 58.09 137.581V140.182H62.4641V132.143C62.4641 132.025 62.5823 131.907 62.7005 131.907H71.2123C71.3305 131.907 71.3305 132.025 71.3305 132.143V145.029H71.2123ZM98.4026 145.147C98.4026 146.684 98.5208 147.984 98.8755 148.93C99.2301 149.876 99.4666 150.467 99.8212 150.703C100.176 150.94 100.412 151.058 100.649 151.294C100.885 151.413 101.003 151.649 100.885 151.886C100.649 152.595 100.058 153.422 98.9937 154.013C97.9297 154.723 96.8658 154.959 95.6836 154.959C94.1467 154.959 92.8463 154.486 91.7824 153.659C90.7184 152.713 90.0091 151.531 89.6544 149.994C87.8811 153.304 85.635 154.959 82.6795 154.959C80.9062 154.959 79.3694 154.368 77.9507 153.186C76.6503 152.004 75.5864 150.467 74.9953 148.694C74.4042 146.92 74.0495 145.029 74.0495 142.901C74.0495 139.709 74.8771 136.872 76.4139 134.507C77.9507 132.143 80.1969 130.961 82.9159 130.961C85.7532 130.961 87.9994 132.379 89.5362 135.217V132.143C89.5362 132.025 89.6544 131.907 89.7726 131.907H98.639C98.7573 131.907 98.7573 132.025 98.7573 132.143C98.5208 138.645 98.4026 143.019 98.4026 145.147ZM83.9799 147.157C84.571 148.221 85.3985 148.812 86.4625 148.812C87.5265 148.812 88.354 148.221 88.9451 147.157C89.5362 146.093 89.7726 144.556 89.7726 142.901C89.7726 141.246 89.5362 139.709 88.9451 138.645C88.354 137.463 87.5265 136.99 86.4625 136.99C85.3985 136.99 84.571 137.581 83.9799 138.645C83.3888 139.827 83.1524 141.246 83.1524 142.901C83.1524 144.556 83.3888 145.975 83.9799 147.157ZM137.297 145.147C137.297 146.684 137.415 147.984 137.77 148.93C138.124 149.876 138.361 150.467 138.715 150.703C139.07 150.94 139.425 151.058 139.661 151.294C139.897 151.531 140.016 151.649 139.897 151.886C139.661 152.595 138.952 153.422 137.888 154.013C136.824 154.723 135.76 154.959 134.578 154.959C133.041 154.959 131.74 154.486 130.676 153.659C129.612 152.713 128.903 151.531 128.548 149.876C127.721 151.649 126.657 152.949 125.357 153.777C124.056 154.605 122.756 154.959 121.455 154.959C119.8 154.959 118.382 154.25 117.199 152.95C116.017 151.649 115.426 149.876 115.426 147.63V140.773C115.426 139.473 115.308 138.409 115.071 137.581C114.835 136.754 114.599 136.162 114.244 135.808C113.889 135.453 113.653 135.217 113.298 134.98C112.944 134.744 112.707 134.626 112.589 134.507C112.471 134.389 112.352 134.271 112.471 134.034C112.707 133.325 113.416 132.498 114.48 131.907C115.544 131.315 116.608 130.961 117.791 130.961C119.682 130.961 121.219 131.552 122.401 132.852C123.701 134.034 124.293 135.69 124.293 137.699V146.329C124.293 147.866 124.765 148.812 125.593 148.93C126.302 149.048 127.012 148.575 127.721 147.393C128.194 146.566 128.43 145.502 128.43 144.32V132.143L128.548 131.907H137.415C137.533 131.907 137.533 132.025 137.533 132.143C137.415 138.645 137.297 143.019 137.297 145.147ZM162.241 147.157C162.359 147.275 162.477 147.511 162.359 147.866C162.241 148.457 161.886 149.048 161.413 149.758C160.94 150.467 160.231 151.294 159.522 152.004C158.694 152.831 157.63 153.541 156.33 154.013C155.029 154.605 153.611 154.841 152.074 154.841C148.764 154.841 145.808 153.659 143.562 151.294C141.316 148.93 140.016 146.093 140.016 142.783C140.016 139.591 141.08 136.754 143.326 134.507C145.572 132.143 148.291 130.961 151.719 130.843C154.438 130.843 156.803 131.434 158.694 132.498C160.586 133.562 161.65 135.098 161.65 137.108C161.65 138.172 161.295 139.236 160.468 140.182C159.64 141.128 158.576 141.6 157.394 141.6C156.685 141.6 156.093 141.482 155.384 141.364C154.675 141.246 154.32 141.009 154.32 140.891C154.202 140.773 154.202 140.655 154.202 140.418C154.202 140.182 154.202 140.064 154.202 139.709C154.202 139.473 154.202 139.236 154.202 139C154.202 138.054 153.965 137.345 153.611 136.754C153.256 136.162 152.665 135.926 152.074 135.926C151.01 135.926 150.064 136.635 149.473 138.172C148.882 139.591 148.646 141.246 148.882 143.019C149 144.556 149.473 145.738 150.064 146.802C150.655 147.748 151.483 148.457 152.429 148.812C153.374 149.167 154.32 149.285 155.502 149.285C156.566 149.285 157.63 149.048 158.694 148.694C159.758 148.339 160.704 147.866 161.65 147.393C161.886 147.039 162.123 147.039 162.241 147.157ZM186.594 131.788C186.594 131.907 186.594 131.907 186.712 131.907V153.659C186.712 153.777 186.594 153.895 186.594 153.895H178.082C177.964 153.895 177.964 153.777 177.964 153.659V135.808H172.999V153.659C172.999 153.777 172.881 153.895 172.762 153.895H164.251C164.132 153.895 164.132 153.777 164.132 153.659V131.907C164.132 131.788 164.251 131.788 164.251 131.788C167.561 131.197 171.225 130.843 175.481 130.843C179.619 130.724 183.402 131.079 186.594 131.788ZM213.43 143.019C213.43 146.447 212.247 149.285 209.883 151.531C207.519 153.777 204.563 154.959 201.017 154.959C197.47 154.959 194.515 153.777 192.15 151.413C189.786 149.048 188.604 146.211 188.604 142.901C188.604 139.591 189.786 136.754 192.15 134.389C194.515 132.025 197.47 130.843 201.017 130.843C204.563 130.843 207.519 132.025 209.883 134.389C212.247 136.754 213.43 139.591 213.43 143.019ZM197.352 143.019C197.352 145.029 197.706 146.684 198.298 147.984C198.889 149.285 199.834 149.994 201.017 149.994C202.317 149.994 203.263 149.403 203.854 148.103C204.445 146.802 204.681 145.147 204.681 143.019C204.681 141.009 204.327 139.354 203.736 137.936C203.145 136.635 202.199 135.926 201.017 135.926C199.834 135.926 198.889 136.635 198.298 137.936C197.706 139.236 197.352 140.891 197.352 143.019ZM237.664 131.907V153.659C237.664 153.777 237.546 153.895 237.546 153.895H229.034C228.916 153.895 228.916 153.777 228.916 153.659V135.808H225.724C225.37 141.6 225.015 145.502 224.66 147.275C223.715 152.358 221.35 154.841 217.331 154.841C216.03 154.841 214.966 154.486 214.021 153.777C213.193 153.068 212.72 152.358 212.72 151.767C212.72 151.649 212.839 151.413 213.075 151.176C213.311 150.94 213.548 150.703 213.902 150.349C214.257 149.994 214.612 149.285 215.203 148.221C215.676 147.157 216.149 145.856 216.622 144.201C216.858 143.137 217.213 141.6 217.449 139.591C217.685 137.581 217.922 135.808 218.04 134.271L218.158 132.025C218.158 131.907 218.158 131.788 218.277 131.788C224.424 130.488 230.808 130.488 237.664 131.788C237.664 131.788 237.664 131.788 237.664 131.907ZM263.909 145.029C263.909 146.329 264.027 147.393 264.264 148.221C264.5 149.048 264.737 149.639 264.973 149.994C265.209 150.349 265.564 150.585 265.801 150.822C266.037 150.94 266.273 151.176 266.392 151.294C266.51 151.413 266.51 151.531 266.51 151.767C266.273 152.477 265.682 153.186 264.618 153.777C263.554 154.368 262.49 154.723 261.308 154.723C259.535 154.723 257.998 154.132 256.816 152.95C255.634 151.767 255.043 150.112 255.043 148.103V145.265H250.669V153.777C250.669 153.895 250.55 154.013 250.432 154.013H241.566L241.447 153.895C241.447 153.895 241.447 153.895 241.447 153.777C241.684 147.039 241.802 142.664 241.802 140.655C241.802 139.118 241.684 137.817 241.329 136.872C240.975 135.926 240.738 135.335 240.384 135.098C240.029 134.862 239.674 134.744 239.438 134.507C239.201 134.389 239.083 134.153 239.201 133.916C239.438 133.207 240.147 132.379 241.211 131.788C242.275 131.197 243.339 130.843 244.521 130.843C246.294 130.843 247.831 131.434 249.013 132.734C250.196 134.034 250.787 135.571 250.787 137.581V140.182H255.161V132.143C255.161 132.025 255.279 131.907 255.397 131.907H263.909C264.027 131.907 264.027 132.025 264.027 132.143V145.029H263.909ZM288.971 147.157C289.208 147.275 289.208 147.511 289.09 147.866C288.971 148.339 288.617 149.048 288.144 149.758C287.671 150.467 286.962 151.294 286.134 152.122C285.307 152.95 284.243 153.659 282.824 154.132C281.524 154.723 279.987 154.959 278.568 154.959C275.258 154.959 272.421 153.777 270.056 151.413C267.692 149.048 266.51 146.211 266.51 142.901C266.51 139.591 267.692 136.754 270.056 134.389C272.421 132.025 275.376 130.843 279.159 130.843C282.469 130.843 285.07 131.67 286.844 133.325C288.617 134.98 289.563 136.754 289.563 138.527C289.563 140.182 289.09 141.6 288.262 142.664C287.316 143.728 286.252 144.556 284.834 144.911C283.415 145.265 281.997 145.502 280.341 145.62C278.686 145.738 277.15 145.62 275.731 145.265C276.44 147.393 278.095 148.694 280.696 148.93C283.297 149.285 285.898 148.694 288.499 147.039C288.617 147.039 288.735 147.039 288.971 147.157ZM277.504 136.281C276.204 137.108 275.376 138.763 275.258 141.482C277.15 141.719 278.686 141.482 279.632 140.773C280.578 140.182 281.169 139.236 281.169 137.936C281.169 137.345 280.933 136.754 280.46 136.399C279.987 136.044 279.514 135.808 278.805 135.808H278.686C278.214 135.926 277.859 136.044 277.504 136.281ZM314.625 145.029C314.625 146.329 314.743 147.393 314.98 148.221C315.216 149.048 315.453 149.639 315.689 149.994C315.925 150.349 316.28 150.585 316.516 150.822C316.753 150.94 316.989 151.176 317.108 151.294C317.226 151.413 317.226 151.531 317.226 151.767C316.989 152.477 316.398 153.186 315.334 153.777C314.27 154.368 313.206 154.723 312.024 154.723C310.251 154.723 308.714 154.132 307.532 152.95C306.35 151.767 305.759 150.112 305.759 148.103V145.265H301.384V153.777C301.384 153.895 301.266 154.013 301.148 154.013H292.282L292.163 153.895C292.163 153.895 292.163 153.895 292.163 153.777C292.4 147.039 292.518 142.664 292.518 140.655C292.518 139.118 292.4 137.817 292.045 136.872C291.691 135.926 291.454 135.335 291.099 135.098C290.745 134.862 290.39 134.744 290.154 134.507C289.917 134.389 289.799 134.153 289.917 133.916C290.154 133.207 290.863 132.379 291.927 131.788C292.991 131.197 294.055 130.843 295.237 130.843C297.01 130.843 298.547 131.434 299.729 132.734C300.912 134.034 301.503 135.571 301.503 137.581V140.182H305.877V132.143C305.877 132.025 305.995 131.907 306.113 131.907H314.625C314.743 131.907 314.743 132.025 314.743 132.143V145.029H314.625ZM341.461 145.147C341.461 146.684 341.579 147.984 341.934 148.93C342.288 149.876 342.525 150.467 342.879 150.703C343.234 150.94 343.589 151.058 343.825 151.294C344.061 151.531 344.18 151.649 344.061 151.886C343.825 152.595 343.116 153.422 342.052 154.013C340.988 154.723 339.924 154.959 338.742 154.959C337.205 154.959 335.904 154.486 334.84 153.659C333.776 152.713 333.067 151.531 332.712 149.876C331.885 151.649 330.821 152.949 329.521 153.777C328.22 154.605 326.92 154.959 325.619 154.959C323.964 154.959 322.546 154.25 321.363 152.95C320.181 151.649 319.59 149.876 319.59 147.63V140.773C319.59 139.473 319.472 138.409 319.236 137.581C318.999 136.754 318.763 136.162 318.408 135.808C318.053 135.453 317.817 135.217 317.462 134.98C317.108 134.744 316.871 134.626 316.753 134.507C316.635 134.389 316.516 134.271 316.635 134.034C316.871 133.325 317.58 132.498 318.644 131.907C319.708 131.315 320.772 130.961 321.955 130.961C323.846 130.961 325.383 131.552 326.565 132.852C327.865 134.034 328.457 135.69 328.457 137.699V146.329C328.457 147.866 328.929 148.812 329.757 148.93C330.466 149.048 331.176 148.575 331.885 147.393C332.358 146.566 332.594 145.502 332.594 144.32V132.143L332.712 131.907H341.579C341.697 131.907 341.697 132.025 341.697 132.143C341.579 138.645 341.461 143.019 341.461 145.147ZM366.641 147.157C366.878 147.275 366.878 147.511 366.759 147.866C366.641 148.339 366.287 149.048 365.814 149.758C365.341 150.467 364.632 151.294 363.804 152.122C362.977 152.95 361.913 153.659 360.494 154.132C359.194 154.723 357.657 154.959 356.238 154.959C352.928 154.959 350.091 153.777 347.726 151.413C345.362 149.048 344.18 146.211 344.18 142.901C344.18 139.591 345.362 136.754 347.726 134.389C350.091 132.025 353.046 130.843 356.829 130.843C360.139 130.843 362.74 131.67 364.513 133.325C366.287 134.98 367.232 136.754 367.232 138.527C367.232 140.182 366.759 141.6 365.932 142.664C364.986 143.728 363.922 144.556 362.504 144.911C361.085 145.265 359.666 145.502 358.011 145.62C356.356 145.738 354.819 145.62 353.401 145.265C354.11 147.393 355.765 148.694 358.366 148.93C360.967 149.285 363.568 148.694 366.168 147.039C366.287 147.039 366.523 147.039 366.641 147.157ZM355.174 136.281C353.874 137.108 353.046 138.763 352.928 141.482C354.819 141.719 356.356 141.482 357.302 140.773C358.248 140.182 358.839 139.236 358.839 137.936C358.839 137.345 358.602 136.754 358.13 136.399C357.657 136.044 357.184 135.808 356.474 135.808H356.356C355.883 135.926 355.529 136.044 355.174 136.281ZM72.8673 197.991C71.4487 193.617 70.2665 189.834 69.0843 186.642C67.9021 183.45 66.7199 180.613 65.5378 178.367H65.1831C65.4195 180.967 65.5378 183.214 65.656 185.223C65.7742 187.233 65.7742 189.479 65.656 192.08C65.656 194.681 65.3013 196.927 64.8284 198.818C64.3556 200.71 63.6463 202.483 62.8187 204.257C61.9912 206.03 60.809 207.33 59.2722 208.158C57.7353 209.103 55.962 209.458 53.8341 209.458C50.8786 209.458 48.5142 208.512 46.741 206.739C44.9677 204.848 44.1401 202.483 44.1401 199.528C44.1401 197.4 44.613 195.39 45.5588 193.617C46.5045 191.844 47.332 190.898 48.0414 190.898C48.1596 190.898 48.5142 191.016 49.1053 191.371C49.5782 191.725 50.1693 191.844 50.6422 191.844C54.307 191.844 56.1985 185.578 56.3167 172.928C55.962 172.928 55.2527 172.928 54.4252 172.928C53.5976 172.928 53.0066 173.047 52.6519 173.047C50.9968 173.047 50.1693 172.574 50.1693 171.51C50.1693 169.855 51.7061 167.963 54.7798 165.717C57.8535 163.471 61.6365 162.407 66.0106 162.407C71.9216 162.407 76.2957 164.417 79.1329 168.554C80.6698 170.801 82.5613 174.82 84.8074 180.849H85.0439C85.7532 179.194 86.5807 176.948 87.5265 174.347C88.4722 171.746 89.2998 169.382 90.0091 167.49C90.7184 165.599 91.073 164.535 91.073 164.417C91.1913 164.299 91.3095 164.299 91.3095 164.299C93.6739 163.707 96.6293 163.353 100.176 163.353C101.595 163.353 103.131 163.471 104.668 163.589C106.205 163.707 107.387 163.944 108.097 164.062C108.806 164.18 109.279 164.299 109.397 164.417C109.515 164.417 109.515 164.653 109.515 164.89V191.371C109.515 195.508 110.697 198.346 113.18 199.882C113.653 200.237 114.008 200.71 114.008 201.183C114.008 202.483 112.944 204.138 110.934 206.266C108.806 208.394 106.205 209.458 103.013 209.458C99.703 209.458 97.1022 208.512 94.9743 206.621C92.8463 204.729 91.7824 202.01 91.7824 198.582L91.9006 180.967H91.6641C90.8366 183.214 89.5362 186.405 88.1176 190.307C86.6989 194.208 85.2803 197.754 84.2163 200.71C83.1524 203.665 82.4431 205.32 82.3248 205.675C81.852 207.094 80.5516 207.803 78.6601 207.803C77.5961 207.803 76.7686 207.685 76.2957 207.33C75.8228 207.094 75.3499 206.503 75.1135 205.557C74.9953 204.966 74.1677 202.483 72.8673 197.991ZM161.65 194.799C161.65 195.863 161.177 197.282 160.349 198.818C159.522 200.355 158.34 201.892 156.803 203.547C155.266 205.202 153.256 206.503 150.537 207.567C147.936 208.631 144.981 209.222 141.789 209.222C134.341 209.222 128.43 207.094 123.938 202.956C119.446 198.818 117.199 193.144 117.199 186.051C117.199 179.076 119.446 173.52 123.938 169.145C128.43 164.89 134.459 162.643 142.025 162.643C148.527 162.643 153.611 164.18 157.157 167.136C160.704 170.091 162.477 173.401 162.477 177.066C162.477 179.549 161.886 181.795 160.704 183.686C159.522 185.578 157.985 186.997 155.975 188.061C154.084 189.124 152.074 189.834 149.946 190.307C147.818 190.78 145.808 191.016 143.68 191.016C139.661 191.016 136.706 190.661 134.814 189.952C135.169 192.316 136.469 194.208 138.715 195.627C140.961 197.045 143.444 197.636 146.281 197.636C148.882 197.636 151.246 197.282 153.493 196.572C155.621 195.863 157.276 195.272 158.576 194.563C159.758 193.853 160.468 193.617 160.822 193.617C161.413 193.499 161.65 193.971 161.65 194.799ZM136.233 174.938C135.05 176.948 134.459 179.431 134.578 182.504C135.169 182.504 135.878 182.504 136.587 182.622C139.543 182.622 141.789 181.913 143.444 180.613C145.099 179.312 145.927 177.775 145.927 176.12C145.927 174.938 145.572 173.874 144.744 173.047C143.917 172.219 142.735 171.865 141.198 171.865C139.07 171.865 137.415 172.928 136.233 174.938ZM217.567 201.065C217.567 202.365 216.503 204.02 214.494 206.148C212.484 208.276 209.765 209.34 206.573 209.34C203.263 209.34 200.662 208.394 198.652 206.503C196.643 204.611 195.579 201.892 195.579 198.464V191.725L195.224 191.607C191.559 194.208 187.658 195.508 183.402 195.508C176.191 195.508 171.698 192.435 169.807 186.287C169.334 184.514 168.979 182.386 168.979 180.14C168.979 176.357 167.797 173.638 165.315 172.101C164.842 171.746 164.487 171.273 164.487 170.801C164.487 169.5 165.551 167.845 167.561 165.717C169.689 163.589 172.289 162.525 175.481 162.525C178.791 162.525 181.392 163.471 183.402 165.362C185.412 167.254 186.476 169.973 186.476 173.401V179.785C186.476 183.214 188.249 184.869 191.677 184.869C192.741 184.869 193.923 184.75 195.342 184.396V164.653C195.342 164.417 195.46 164.299 195.697 164.18C198.416 163.589 201.253 163.353 204.09 163.353C207.282 163.353 210.119 163.589 212.602 164.18C212.72 164.18 212.839 164.417 212.839 164.653V191.371C212.839 195.508 214.021 198.346 216.503 199.882C217.331 200.119 217.567 200.592 217.567 201.065ZM295.828 201.065C295.828 202.365 294.764 204.02 292.754 206.148C290.745 208.276 288.026 209.34 284.834 209.34C281.524 209.34 278.923 208.394 276.913 206.503C274.903 204.611 273.839 201.892 273.839 198.464V179.785C273.839 176.357 273.012 174.584 271.239 174.584C269.938 174.584 268.756 175.411 267.81 177.184C266.865 178.958 266.392 181.322 266.392 184.396V207.212C266.392 207.448 266.273 207.685 265.919 207.685C263.554 208.276 260.717 208.512 257.525 208.512C254.924 208.512 252.087 208.276 249.013 207.685C248.777 207.685 248.659 207.448 248.659 207.212V179.667C248.659 176.239 247.831 174.465 246.058 174.465C244.758 174.465 243.575 175.293 242.63 177.066C241.684 178.839 241.211 181.204 241.211 184.278V207.094C241.211 207.33 241.093 207.567 240.738 207.567C238.374 208.158 235.537 208.394 232.345 208.394C229.507 208.394 226.67 208.158 223.596 207.567C223.36 207.567 223.242 207.33 223.242 207.094C223.478 206.148 223.596 197.163 223.596 180.258C223.596 177.894 223.36 176.12 222.887 174.938C222.414 173.638 221.587 172.692 220.286 171.865C219.813 171.51 219.459 171.037 219.459 170.564C219.459 169.264 220.523 167.609 222.532 165.481C224.542 163.353 227.261 162.407 230.453 162.407C233.172 162.407 235.3 163.116 237.073 164.535C238.847 165.954 239.911 167.845 240.502 170.209C240.502 170.328 240.62 170.919 240.738 172.101H240.975C243.93 165.599 248.304 162.407 254.215 162.407C257.171 162.407 259.653 163.235 261.781 164.89C263.909 166.545 265.328 169.027 265.919 172.101H266.155C269.111 165.599 273.485 162.407 279.396 162.407C282.824 162.407 285.661 163.589 288.026 165.835C290.39 168.082 291.454 171.392 291.454 175.529C291.454 176.475 291.454 178.721 291.454 182.15C291.454 185.578 291.454 188.533 291.454 191.016C291.454 195.154 292.636 197.991 295.119 199.528C295.592 200.119 295.828 200.592 295.828 201.065ZM319.945 176.357C324.555 174.465 329.048 174.229 333.54 175.648C334.959 172.219 337.087 169.382 339.806 166.899C342.525 164.535 345.717 163.116 349.263 162.643C354.228 162.052 357.893 163.116 360.257 165.717C362.622 168.318 363.804 171.273 363.804 174.584V191.134C363.804 195.272 364.986 198.109 367.469 199.646C367.942 200.001 368.296 200.474 368.296 200.946C368.296 202.247 367.232 203.902 365.223 206.03C363.213 208.158 360.494 209.222 357.302 209.222C353.992 209.222 351.391 208.276 349.263 206.384C347.135 204.493 346.189 201.774 346.189 198.346V179.312C346.189 177.894 345.835 176.83 345.244 176.12C344.653 175.411 343.943 174.938 342.997 174.938C341.342 174.938 339.924 176.002 338.86 178.13C342.17 180.849 343.825 184.869 343.825 190.07C343.825 195.627 341.815 200.237 337.914 203.784C334.013 207.33 329.048 209.103 323.137 209.103C319.236 209.103 315.925 208.512 313.088 207.33C310.251 206.148 308.005 204.611 306.586 202.601C305.167 200.592 303.985 198.582 303.276 196.572C302.567 194.444 302.212 192.435 302.212 190.188L302.33 180.258C302.33 176.475 301.03 173.756 298.547 172.101C298.074 171.865 297.72 171.392 297.72 170.682C297.72 169.382 298.784 167.609 300.793 165.481C302.803 163.353 305.404 162.289 308.714 162.289C312.024 162.289 314.625 163.235 316.753 165.126C318.881 167.018 319.945 169.737 319.945 173.165V176.357ZM326.92 196.572C327.629 194.799 328.102 192.789 328.102 190.661C328.102 188.179 327.629 186.169 326.565 184.514C325.501 182.977 323.964 182.15 321.718 182.15C321.127 182.15 320.536 182.15 319.945 182.268V191.489C319.945 196.572 321.245 199.173 323.846 199.173C325.146 199.173 326.092 198.346 326.92 196.572ZM46.9774 25.5095H64.4738C73.3402 25.5095 79.724 30.1201 79.724 38.159C79.724 42.7695 77.4779 46.6707 73.8131 48.6804V48.7987C79.2511 50.3355 81.7337 55.3007 81.7337 60.3841C81.7337 70.1963 73.8131 74.5704 64.8284 74.5704H47.0956V25.5095H46.9774ZM64.4738 45.4885C68.375 45.4885 70.503 42.7695 70.503 39.2229C70.503 35.6764 68.375 33.1938 64.2374 33.1938H55.8438V45.6067H64.4738V45.4885ZM65.4195 66.8861C70.0301 66.8861 72.5127 63.9307 72.5127 59.793C72.5127 55.7736 69.9119 52.6999 65.4195 52.6999H55.8438V66.8861H65.4195ZM91.3095 25.5095H100.176V42.6513H109.279C118.263 42.6513 124.647 48.9169 124.647 58.729C124.647 68.0683 118.382 74.5704 109.515 74.5704H91.3095V25.5095ZM107.86 66.8861C112.707 66.8861 115.544 63.6942 115.544 58.729C115.544 53.6456 112.589 50.3355 107.742 50.3355H100.176V66.8861H107.86ZM130.913 25.5095H139.779V74.5704H130.913V25.5095ZM152.31 25.5095H161.177V53.7638C161.177 56.7193 160.704 61.3299 160.704 61.3299H160.822C160.822 61.3299 163.187 56.6011 164.96 53.6456L183.52 25.5095H192.387V74.5704H183.52V46.3161C183.52 43.3606 183.993 38.75 183.993 38.75H183.875C183.875 38.75 181.629 43.4788 179.855 46.3161L161.177 74.5704H152.31V25.5095ZM204.8 25.5095H232.936V33.1938H213.666V74.5704H204.8V25.5095ZM240.384 25.5095H259.299C268.52 25.5095 274.903 31.8934 274.903 41.4691C274.903 51.0448 268.52 57.6651 259.299 57.6651H249.25V74.5704H240.384V25.5095ZM257.643 49.8626C262.845 49.8626 265.919 46.5525 265.919 41.4691C265.919 36.3857 262.845 33.1938 257.88 33.1938H249.368V49.8626H257.643ZM292.518 25.5095H301.857L318.999 74.5704H309.896L305.64 62.0392H288.499L284.361 74.5704H275.258L292.518 25.5095ZM303.512 54.7096L299.138 41.5873C298.311 38.8683 297.247 34.0213 297.247 34.0213H297.129C297.129 34.0213 296.065 38.8683 295.237 41.5873L290.863 54.7096H303.512ZM326.092 25.5095H334.959V53.7638C334.959 56.7193 334.486 61.3299 334.486 61.3299H334.604C334.604 61.3299 336.968 56.6011 338.742 53.6456L357.302 25.5095H366.168V74.5704H357.302V46.3161C357.302 43.3606 357.775 38.75 357.775 38.75H357.657C357.657 38.75 355.41 43.4788 353.637 46.3161L334.959 74.5704H326.092V25.5095ZM335.195 13.8059V12.8601H341.934V13.8059C341.934 16.7613 344.298 18.18 346.544 18.18C348.79 18.18 351.273 16.7613 351.273 13.8059V12.8601H357.893V13.8059C357.893 19.835 352.573 23.3816 346.544 23.3816C340.515 23.2634 335.195 19.835 335.195 13.8059ZM339.924 122.922V117.011H335.668V111.691H339.924V107.435H335.668V100.579H339.924V83.4368H352.219C357.184 83.4368 360.73 84.5008 363.095 86.5105C365.341 88.5202 366.523 91.3575 366.523 95.0222C366.523 97.1502 366.05 99.1599 365.104 101.051C364.159 102.943 362.622 104.48 360.376 105.544C358.248 106.726 355.292 107.199 351.509 107.199H347.963V111.455H356.238V116.775H347.963V122.685H339.924V122.922ZM347.963 100.46H350.682C352.928 100.46 354.819 100.106 356.12 99.2781C357.538 98.4506 358.13 97.1502 358.13 95.3769C358.13 92.0668 356.002 90.4117 351.628 90.4117H347.963V100.46Z" fill="#7D68AC"/>
</svg>
