<svg width="511" height="299" viewBox="0 0 511 299" fill="none" xmlns="http://www.w3.org/2000/svg">
<path fill-rule="evenodd" clip-rule="evenodd" d="M482.717 74.6406C482.717 74.6406 480.73 55.6493 495.342 47.6433C512.56 38.2106 515.842 59.2278 503.695 66.7931C495.497 71.9003 482.717 74.6406 482.717 74.6406Z" fill="white"/>
<path fill-rule="evenodd" clip-rule="evenodd" d="M482.823 75.9759C482.823 75.9759 496.694 63.766 491.862 47.6497C486.176 28.6627 470.069 41.3981 473.484 55.4494C475.66 62.6872 478.802 69.5927 482.823 75.9759Z" fill="white"/>
<g clip-path="url(#clip0)">
<path fill-rule="evenodd" clip-rule="evenodd" d="M31.201 242.777C31.201 242.777 15.973 238.716 14.1035 225.092C11.9016 209.038 29.0732 212.697 31.3286 224.291C32.852 232.116 31.201 242.777 31.201 242.777Z" fill="white"/>
<path fill-rule="evenodd" clip-rule="evenodd" d="M32.2618 243.089C32.2618 243.089 26.9329 228.797 13.0836 227.776C-3.23069 226.568 1.8448 242.739 13.6848 244.243C19.9062 244.698 26.1558 244.309 32.2618 243.089Z" fill="white"/>
</g>
<path fill-rule="evenodd" clip-rule="evenodd" d="M417.247 22.8827C417.247 22.8827 431.3 26.7368 439.828 16.5742C449.878 4.60548 434.511 -0.494689 426.731 7.84049C422.903 12.4083 419.713 17.4688 417.247 22.8827Z" fill="white"/>
<path fill-rule="evenodd" clip-rule="evenodd" d="M490.227 85.759C490.227 85.759 498.207 91.3288 505.848 86.8419C514.851 81.559 506.322 74.9109 499.56 78.4151C496.129 80.4331 492.989 82.9037 490.227 85.759Z" fill="white"/>
<g filter="url(#filter0_d)">
<path d="M64.4 187.1H58.9V198.5C58.9 198.7 58.8 198.8 58.6 198.8C57.1 199.2 55.3 199.3 53.1 199.3C51.3 199.3 49.5 199.1 47.6 198.8C47.5 198.8 47.4 198.7 47.4 198.5C47.5 197.9 47.6 192.3 47.6 181.7C47.6 180.2 47.4 179.1 47.1 178.3C46.8 177.5 46.2 176.9 45.5 176.4C45.2 176.2 45 175.9 45 175.6C45 174.8 45.6 173.7 46.9 172.4C48.2 171.1 49.9 170.5 51.9 170.5C53.9 170.5 55.6 171.1 56.9 172.3C58.2 173.5 58.8 175.1 58.8 177.1V181.3H64.3V171.6C64.3 171.5 64.4 171.4 64.5 171.3C66.2 170.9 68 170.8 69.8 170.8C71.8 170.8 73.6 171 75.2 171.3C75.3 171.3 75.4 171.4 75.4 171.6V188.4C75.4 191 76.2 192.8 77.7 193.8C78 194 78.2 194.3 78.2 194.6C78.2 195.4 77.6 196.5 76.3 197.8C75 199.1 73.3 199.8 71.3 199.8C69.3 199.8 67.6 199.2 66.3 198C65 196.8 64.4 195.1 64.4 193V187.1Z" fill="white"/>
<path d="M112.4 193.8C112.7 194 112.9 194.3 112.9 194.6C112.9 195.7 112.2 196.8 110.8 198C109.4 199.2 107.8 199.7 106 199.7C104.1 199.7 102.6 199.2 101.3 198.2C100.1 197.2 99.2999 195.8 99.0999 194.1H98.9C98.1 195.9 97 197.2 95.5 198.2C94 199.2 92.3 199.7 90.4 199.7C87.1 199.7 84.4999 198.3 82.5999 195.6C80.6999 192.8 79.7 189.5 79.7 185.6C79.7 181.6 80.7 178.1 82.7 175.1C84.7 172.1 87.3999 170.6 90.7999 170.6C92.5999 170.6 94.2 171 95.7 171.8C97.1 172.6 98.2 173.8 98.9 175.2H99.0999L99.5999 171.7C99.5999 171.6 99.7 171.4 99.9 171.4C101.5 171.1 103.2 171 104.9 171C106.8 171 108.6 171.1 110.1 171.4C110.3 171.5 110.4 171.6 110.4 171.7C110.3 180.4 110.2 186 110.2 188.5C110.1 191 110.9 192.8 112.4 193.8ZM98.2 190.1C98.9 188.7 99.2999 187 99.2999 184.9C99.2999 182.8 98.9 181.1 98.2 179.7C97.5 178.3 96.3999 177.6 95.0999 177.6C93.7999 177.6 92.8 178.3 92 179.7C91.3 181.1 90.9 182.8 90.9 184.9C90.9 187 91.3 188.7 92 190.1C92.7 191.5 93.7999 192.1 95.0999 192.1C96.3999 192.1 97.5 191.4 98.2 190.1Z" fill="white"/>
<path d="M156.8 188.5C156.8 191.1 157.5 192.9 158.9 193.8C159.2 194 159.4 194.3 159.4 194.6C159.4 195.4 158.8 196.5 157.5 197.8C156.2 199.1 154.6 199.8 152.5 199.8C150.8 199.8 149.4 199.4 148.4 198.5C147.3 197.6 146.6 196.4 146.3 194.9C146.2 194.6 146.2 194.3 146.1 193.7L145.9 193.6C144.9 195.8 143.6 197.3 142 198.2C140.4 199.1 138.6 199.6 136.8 199.6C134.6 199.6 132.7 198.9 131.3 197.5C129.9 196.1 129.2 194.1 129.2 191.5V181.6C129.2 179.2 128.4 177.5 126.8 176.5C126.5 176.3 126.3 176 126.3 175.6C126.3 174.8 126.9 173.7 128.2 172.4C129.5 171.1 131.1 170.4 133.1 170.4C135.1 170.4 136.8 171 138.2 172.2C139.5 173.4 140.2 175.1 140.2 177.2V189C140.2 190.1 140.4 190.9 140.7 191.4C141.1 191.9 141.5 192.2 142.1 192.2C143 192.2 143.8 191.6 144.5 190.5C145.2 189.4 145.6 187.9 145.6 186V171.7L145.8 171.4C147.6 171 149.4 170.9 151.3 170.9C153.1 170.9 154.8 171.1 156.6 171.4C156.7 171.5 156.8 171.6 156.8 171.7C156.8 171.8 156.8 177.4 156.8 188.5Z" fill="white"/>
<path d="M186.6 183C185.6 184.2 184.2 184.8 182.3 184.8C181.2 184.8 180.2 184.5 179.3 184C178.4 183.5 178 182.9 178 182.4C178 182.2 178 181.7 178.1 181C178.2 180.3 178.2 179.7 178.2 179.3C178.2 177.1 177.5 176 176 176C174.8 176 173.8 176.8 173 178.3C172.2 179.8 171.8 181.6 171.8 183.6C171.8 186 172.5 188 173.8 189.6C175.1 191.2 177.2 192.1 180.1 192.1C181.6 192.1 183.3 191.8 185 191.1C186.7 190.4 187.6 190.1 187.8 190.1C188.2 190.1 188.5 190.4 188.5 190.9C188.5 192.5 187.3 194.4 184.9 196.5C182.5 198.7 179.5 199.7 175.9 199.7C171.1 199.7 167.4 198.3 164.8 195.6C162.2 192.9 160.9 189.4 160.9 185.1C160.9 181 162.3 177.5 165.2 174.7C168 171.9 171.8 170.5 176.5 170.5C179.9 170.5 182.6 171.3 184.8 172.9C187 174.5 188.1 176.5 188.1 179C188 180.4 187.5 181.7 186.6 183Z" fill="white"/>
<path d="M191.8 181.5C191.8 180 191.6 178.9 191.3 178.1C191 177.3 190.4 176.7 189.7 176.2C189.4 176 189.2 175.7 189.2 175.4C189.2 174.6 189.8 173.5 191.1 172.2C192.4 170.9 194.1 170.3 196.1 170.3C197.8 170.3 199.2 170.8 200.3 171.7C201.4 172.6 202.1 173.8 202.4 175.4C202.5 175.8 202.5 176.2 202.6 176.4H202.8C203.8 174.3 205.1 172.7 206.9 171.8C208.6 170.8 210.3 170.3 212 170.3C214.2 170.3 216 171 217.4 172.5C218.8 173.9 219.6 176 219.6 178.6C219.6 179.2 219.6 180.7 219.6 182.9C219.6 185.1 219.6 187 219.6 188.6C219.6 191.2 220.4 193 221.9 194C222.2 194.2 222.4 194.5 222.4 194.8C222.4 195.6 221.8 196.7 220.5 198C219.2 199.3 217.5 200 215.5 200C213.5 200 211.8 199.4 210.5 198.2C209.2 197 208.6 195.3 208.6 193.2V181.2C208.6 180.1 208.4 179.3 208.1 178.8C207.7 178.3 207.3 178 206.7 178C205.8 178 205 178.6 204.2 179.7C203.4 180.8 203 182.3 203 184.2V198.7C203 198.9 202.9 199 202.7 199C201.2 199.4 199.4 199.5 197.4 199.5C195.6 199.5 193.8 199.3 191.9 199C191.8 199 191.7 198.9 191.7 198.7C191.7 197.9 191.8 192.3 191.8 181.5Z" fill="white"/>
<path d="M250.1 174.5C253 177.3 254.4 180.8 254.4 185.1C254.4 189.5 253 193.1 250.1 195.8C247.2 198.6 243.5 199.9 239 199.9C234.5 199.9 230.9 198.5 228 195.8C225.1 193.1 223.7 189.5 223.7 185.1C223.7 180.7 225.1 177.2 228 174.4C230.9 171.7 234.5 170.3 239 170.3C243.5 170.3 247.2 171.7 250.1 174.5ZM243.5 185.1C243.5 182.5 243.1 180.4 242.4 178.8C241.7 177.2 240.5 176.4 239 176.4C236 176.4 234.6 179.3 234.6 185.1C234.6 187.7 235 189.7 235.7 191.4C236.4 193 237.5 193.8 239 193.8C242 193.8 243.5 190.9 243.5 185.1Z" fill="white"/>
<path d="M287.6 194.5C287.6 195.3 287 196.4 285.7 197.7C284.4 199 282.7 199.7 280.7 199.7C278.7 199.7 277 199.1 275.6 197.9C274.3 196.7 273.6 195 273.6 192.9V183.1C273.6 182.3 273.6 181.6 273.5 181.2C273.4 180.7 273.3 180.2 273 179.6C272.7 179 272.3 178.6 271.6 178.3C270.9 178 270.1 177.9 269 177.9C269.1 180.2 269.2 182.2 269.3 183.9C269.3 185.6 269.3 187.5 269.1 189.7C268.9 191.9 268.5 193.6 268 195C267.5 196.4 266.6 197.5 265.5 198.5C264.4 199.5 263 199.9 261.4 199.9C259.5 199.9 258.1 199.3 257 198.2C255.9 197 255.4 195.5 255.4 193.7C255.4 192.3 255.7 191.1 256.3 190C256.9 188.9 257.4 188.3 257.9 188.3C258 188.3 258.2 188.4 258.6 188.6C258.9 188.8 259.3 188.9 259.6 188.9C261 188.9 262 187.9 262.8 185.9C263.6 183.9 264 181.3 264 178.1C263.8 178.1 263.5 178.1 263 178.2C262.5 178.2 262.1 178.3 261.7 178.3C260.7 178.3 260.2 178 260.2 177.3C260.2 176.1 261.6 174.6 264.3 173.1C267 171.5 270.3 170.7 274 170.7C277.4 170.7 280.1 171.5 282.1 173.1C284.1 174.7 285.2 177.2 285.2 180.8C285.2 181.1 285.2 181.5 285.2 182.1C285.2 182.7 285.2 183.6 285.1 184.9C285 186.2 285.1 187.4 285.1 188.8C285.1 191.4 285.9 193.2 287.4 194.2C287.5 193.9 287.6 194.2 287.6 194.5Z" fill="white"/>
<path d="M307.8 187.1H302.3V198.5C302.3 198.7 302.2 198.8 302 198.8C300.5 199.2 298.7 199.3 296.5 199.3C294.7 199.3 292.9 199.1 291 198.8C290.9 198.8 290.8 198.7 290.8 198.5C290.9 197.9 291 192.3 291 181.7C291 180.2 290.8 179.1 290.5 178.3C290.2 177.5 289.6 176.9 288.9 176.4C288.6 176.2 288.4 175.9 288.4 175.6C288.4 174.8 289 173.7 290.3 172.4C291.6 171.1 293.3 170.5 295.3 170.5C297.3 170.5 299 171.1 300.3 172.3C301.6 173.5 302.2 175.1 302.2 177.1V181.3H307.7V171.6C307.7 171.5 307.8 171.4 307.9 171.3C309.6 170.9 311.4 170.8 313.2 170.8C315.2 170.8 317 171 318.6 171.3C318.7 171.3 318.8 171.4 318.8 171.6V188.4C318.8 191 319.6 192.8 321.1 193.8C321.4 194 321.6 194.3 321.6 194.6C321.6 195.4 321 196.5 319.7 197.8C318.4 199.1 316.7 199.8 314.7 199.8C312.7 199.8 311 199.2 309.7 198C308.4 196.8 307.8 195.1 307.8 193V187.1Z" fill="white"/>
<path d="M350.9 190.7C350.9 191.4 350.6 192.2 350.1 193.2C349.6 194.2 348.8 195.1 347.9 196.1C346.9 197.1 345.6 197.9 344 198.6C342.3 199.3 340.5 199.6 338.5 199.6C333.9 199.6 330.1 198.3 327.3 195.7C324.5 193.1 323 189.5 323 185.1C323 180.7 324.4 177.2 327.2 174.5C330 171.8 333.8 170.4 338.6 170.4C342.7 170.4 345.9 171.3 348.1 173.2C350.3 175.1 351.4 177.1 351.4 179.5C351.4 181.1 351 182.5 350.3 183.6C349.6 184.8 348.6 185.7 347.4 186.3C346.2 186.9 344.9 187.4 343.6 187.7C342.3 188 341 188.1 339.7 188.1C337.2 188.1 335.3 187.9 334.2 187.4C334.4 188.9 335.2 190.1 336.6 190.9C338 191.8 339.6 192.2 341.3 192.2C342.9 192.2 344.4 192 345.8 191.6C347.2 191.2 348.2 190.8 349 190.3C349.7 189.9 350.2 189.7 350.4 189.7C350.8 189.9 350.9 190.2 350.9 190.7ZM334.9 178.2C334.2 179.5 333.8 181.1 333.8 182.9C334.2 182.9 334.6 182.9 335.1 183C336.9 183 338.4 182.6 339.4 181.7C340.4 180.9 341 179.9 341 178.9C341 178.1 340.8 177.5 340.3 177C339.8 176.5 339.1 176.3 338.1 176.3C336.7 176.3 335.7 177 334.9 178.2Z" fill="white"/>
<path d="M371.7 187.1H366.2V198.5C366.2 198.7 366.1 198.8 365.9 198.8C364.4 199.2 362.6 199.3 360.4 199.3C358.6 199.3 356.8 199.1 354.9 198.8C354.8 198.8 354.7 198.7 354.7 198.5C354.8 197.9 354.9 192.3 354.9 181.7C354.9 180.2 354.7 179.1 354.4 178.3C354.1 177.5 353.5 176.9 352.8 176.4C352.5 176.2 352.3 175.9 352.3 175.6C352.3 174.8 352.9 173.7 354.2 172.4C355.5 171.1 357.2 170.5 359.2 170.5C361.2 170.5 362.9 171.1 364.2 172.3C365.5 173.5 366.1 175.1 366.1 177.1V181.3H371.6V171.6C371.6 171.5 371.7 171.4 371.8 171.3C373.5 170.9 375.3 170.8 377.1 170.8C379.1 170.8 380.9 171 382.5 171.3C382.6 171.3 382.7 171.4 382.7 171.6V188.4C382.7 191 383.5 192.8 385 193.8C385.3 194 385.5 194.3 385.5 194.6C385.5 195.4 384.9 196.5 383.6 197.8C382.3 199.1 380.6 199.8 378.6 199.8C376.6 199.8 374.9 199.2 373.6 198C372.3 196.8 371.7 195.1 371.7 193V187.1Z" fill="white"/>
<path d="M416.8 188.5C416.8 191.1 417.5 192.9 418.9 193.8C419.2 194 419.4 194.3 419.4 194.6C419.4 195.4 418.8 196.5 417.5 197.8C416.2 199.1 414.6 199.8 412.5 199.8C410.8 199.8 409.4 199.4 408.4 198.5C407.3 197.6 406.6 196.4 406.3 194.9C406.2 194.6 406.2 194.3 406.1 193.7L405.9 193.6C404.9 195.8 403.6 197.3 402 198.2C400.4 199.1 398.6 199.6 396.8 199.6C394.6 199.6 392.7 198.9 391.3 197.5C389.9 196.1 389.2 194.1 389.2 191.5V181.6C389.2 179.2 388.4 177.5 386.8 176.5C386.5 176.3 386.3 176 386.3 175.6C386.3 174.8 386.9 173.7 388.2 172.4C389.5 171.1 391.1 170.4 393.1 170.4C395.1 170.4 396.8 171 398.2 172.2C399.5 173.4 400.2 175.1 400.2 177.2V189C400.2 190.1 400.4 190.9 400.7 191.4C401.1 191.9 401.5 192.2 402.1 192.2C403 192.2 403.8 191.6 404.5 190.5C405.2 189.4 405.6 187.9 405.6 186V171.7L405.8 171.4C407.6 171 409.4 170.9 411.3 170.9C413.1 170.9 414.8 171.1 416.6 171.4C416.7 171.5 416.8 171.6 416.8 171.7C416.8 171.8 416.8 177.4 416.8 188.5Z" fill="white"/>
<path d="M448.7 190.7C448.7 191.4 448.4 192.2 447.9 193.2C447.4 194.2 446.6 195.1 445.7 196.1C444.7 197.1 443.4 197.9 441.8 198.6C440.1 199.3 438.3 199.6 436.3 199.6C431.7 199.6 427.9 198.3 425.1 195.7C422.3 193.1 420.8 189.5 420.8 185.1C420.8 180.7 422.2 177.2 425 174.5C427.8 171.8 431.6 170.4 436.4 170.4C440.5 170.4 443.7 171.3 445.9 173.2C448.1 175.1 449.2 177.1 449.2 179.5C449.2 181.1 448.8 182.5 448.1 183.6C447.4 184.8 446.4 185.7 445.2 186.3C444 186.9 442.7 187.4 441.4 187.7C440.1 188 438.8 188.1 437.5 188.1C435 188.1 433.1 187.9 432 187.4C432.2 188.9 433 190.1 434.4 190.9C435.8 191.8 437.4 192.2 439.1 192.2C440.7 192.2 442.2 192 443.6 191.6C445 191.2 446 190.8 446.8 190.3C447.5 189.9 448 189.7 448.2 189.7C448.5 189.9 448.7 190.2 448.7 190.7ZM432.7 178.2C432 179.5 431.6 181.1 431.6 182.9C432 182.9 432.4 182.9 432.9 183C434.7 183 436.2 182.6 437.2 181.7C438.2 180.9 438.8 179.9 438.8 178.9C438.8 178.1 438.6 177.5 438.1 177C437.6 176.5 436.9 176.3 435.9 176.3C434.5 176.3 433.5 177 432.7 178.2Z" fill="white"/>
<path d="M81.7001 264.3C80.0001 258.8 78.4001 254 76.9001 250C75.4001 246 73.9001 242.5 72.4001 239.6H72.0001C72.3001 242.8 72.5001 245.7 72.6001 248.2C72.7001 250.7 72.7001 253.6 72.7001 256.8C72.6001 260.1 72.3001 262.9 71.7001 265.2C71.1001 267.6 70.2001 269.8 69.2001 272C68.1001 274.2 66.6001 275.8 64.7001 276.9C62.8001 278 60.5001 278.6 57.8001 278.6C54.1001 278.6 51.1001 277.4 48.9001 275.1C46.7001 272.8 45.6001 269.8 45.6001 266.1C45.6001 263.4 46.2001 260.9 47.4001 258.6C48.6001 256.3 49.6001 255.2 50.5001 255.2C50.7001 255.2 51.2001 255.4 51.8001 255.8C52.5001 256.2 53.1001 256.4 53.8001 256.4C58.4001 256.4 60.8001 248.5 60.9001 232.6C60.4001 232.5 59.6001 232.5 58.5001 232.6C57.4001 232.7 56.7001 232.7 56.3001 232.7C54.3001 232.7 53.2001 232 53.2001 230.7C53.2001 228.7 55.1001 226.2 59.0001 223.5C62.8001 220.7 67.5001 219.3 73.1001 219.3C80.5001 219.3 86.0001 221.9 89.5001 227C91.4001 229.8 93.8001 234.9 96.6001 242.5H97.0001C97.9001 240.4 98.9001 237.6 100.2 234.3C101.4 230.9 102.5 228.1 103.3 225.7C104.1 223.3 104.6 222.1 104.7 221.9C104.8 221.8 105 221.7 105 221.7C108 220.9 111.7 220.5 116.2 220.5C118 220.5 119.9 220.6 121.8 220.8C123.7 221 125.1 221.2 126.1 221.4C127.1 221.6 127.7 221.7 127.8 221.8C127.9 221.9 128 222.1 128 222.3V255.9C128 261 129.5 264.6 132.6 266.6C133.3 267 133.6 267.6 133.6 268.2C133.6 269.8 132.3 271.9 129.7 274.6C127.1 277.2 123.8 278.5 119.8 278.5C115.7 278.5 112.3 277.3 109.7 274.9C107 272.5 105.7 269.2 105.7 264.9L105.9 242.8H105.6C104.5 245.7 103 249.6 101.1 254.5C99.2001 259.5 97.6001 263.8 96.2001 267.5C94.8001 271.2 94.0001 273.3 93.9001 273.7C93.2001 275.5 91.7001 276.4 89.3001 276.4C88.0001 276.4 87.0001 276.2 86.3001 275.9C85.6001 275.5 85.1001 274.8 84.8001 273.7C84.4001 272.9 83.4001 269.8 81.7001 264.3Z" fill="white"/>
<path d="M192.3 260.2C192.3 261.6 191.8 263.3 190.7 265.2C189.6 267.1 188.2 269.1 186.3 271.1C184.4 273.1 181.8 274.8 178.5 276.1C175.2 277.5 171.5 278.2 167.6 278.2C158.3 278.2 150.8 275.6 145.2 270.3C139.5 265 136.7 258 136.7 249.1C136.7 240.4 139.5 233.3 145.1 227.9C150.7 222.5 158.3 219.8 167.8 219.8C176 219.8 182.3 221.7 186.8 225.4C191.3 229.1 193.5 233.3 193.5 237.9C193.5 241 192.8 243.8 191.3 246.2C189.8 248.6 187.8 250.4 185.4 251.7C183 253 180.5 253.9 177.9 254.5C175.3 255.1 172.7 255.4 170.1 255.4C165.1 255.4 161.4 255 159 254.1C159.4 257.1 161.1 259.5 163.9 261.2C166.7 262.9 169.9 263.8 173.4 263.8C176.7 263.8 179.7 263.4 182.4 262.5C185.1 261.6 187.2 260.8 188.7 260C190.2 259.2 191.1 258.7 191.5 258.7C192 258.6 192.3 259.1 192.3 260.2ZM160.3 235.3C158.8 237.9 158.1 241 158.2 244.7C159 244.7 159.8 244.7 160.7 244.8C164.4 244.8 167.2 244 169.3 242.3C171.4 240.6 172.4 238.8 172.4 236.7C172.4 235.2 171.9 233.9 170.9 232.9C169.9 231.9 168.4 231.4 166.5 231.4C163.9 231.4 161.8 232.7 160.3 235.3Z" fill="white"/>
<path d="M261.5 268C261.5 269.6 260.2 271.7 257.6 274.4C255 277 251.7 278.3 247.7 278.3C243.6 278.3 240.3 277.1 237.7 274.7C235.1 272.3 233.9 269 233.9 264.7V256.3L233.5 256.1C229 259.3 224 260.9 218.7 260.9C209.6 260.9 204 257 201.7 249.3C201 247 200.7 244.5 200.7 241.6C200.7 236.8 199.2 233.5 196.1 231.5C195.4 231.1 195.1 230.5 195.1 229.9C195.1 228.3 196.4 226.2 199 223.5C201.6 220.9 204.9 219.6 208.9 219.6C213 219.6 216.3 220.8 218.9 223.2C221.5 225.6 222.7 228.9 222.7 233.2V241.2C222.7 245.4 224.9 247.6 229.3 247.6C230.6 247.6 232.2 247.4 233.9 246.9V222.1C233.9 221.8 234 221.6 234.3 221.6C237.7 220.9 241.2 220.5 244.8 220.5C248.8 220.5 252.4 220.9 255.5 221.6C255.7 221.7 255.8 221.9 255.8 222.1V255.7C255.8 260.8 257.3 264.4 260.4 266.4C261.2 266.8 261.5 267.4 261.5 268Z" fill="white"/>
<path d="M358.9 268C358.9 269.6 357.6 271.7 355 274.4C352.4 277 349.1 278.3 345.1 278.3C341 278.3 337.7 277.1 335.1 274.7C332.5 272.3 331.3 269 331.3 264.7V241.2C331.3 236.9 330.2 234.7 328 234.7C326.3 234.7 324.9 235.8 323.7 238C322.5 240.2 321.9 243.2 321.9 247V275.6C321.9 276 321.7 276.2 321.4 276.3C318.4 277 314.9 277.4 310.9 277.4C307.6 277.4 304.1 277 300.3 276.3C300 276.2 299.9 276 299.9 275.8V241.3C299.9 237 298.8 234.8 296.6 234.8C294.9 234.8 293.5 235.9 292.3 238.1C291.1 240.3 290.5 243.3 290.5 247.1V275.7C290.5 276.1 290.3 276.3 290 276.4C287 277.1 283.5 277.5 279.5 277.5C276 277.5 272.3 277.1 268.5 276.4C268.2 276.3 268.1 276.1 268.1 275.9C268.4 274.7 268.5 263.5 268.5 242.2C268.5 239.3 268.2 237 267.6 235.5C267 233.9 265.9 232.6 264.4 231.6C263.7 231.2 263.4 230.6 263.4 230C263.4 228.4 264.7 226.3 267.3 223.7C269.9 221.1 273.2 219.8 277.2 219.8C280.6 219.8 283.3 220.7 285.5 222.4C287.7 224.2 289.1 226.5 289.8 229.5C289.8 229.6 289.9 230.5 290.1 231.9H290.4C294.1 223.8 299.6 219.7 307 219.7C310.7 219.7 313.8 220.8 316.5 222.9C319.2 225 320.9 228 321.7 231.9H322C325.7 223.8 331.2 219.7 338.6 219.7C342.9 219.7 346.5 221.1 349.4 224C352.3 226.9 353.7 231 353.7 236.2C353.7 237.4 353.7 240.2 353.6 244.5C353.6 248.8 353.5 252.5 353.5 255.6C353.5 260.7 355 264.3 358.1 266.3C358.5 266.8 358.9 267.4 358.9 268Z" fill="white"/>
<path d="M388.3 237C394.1 234.7 399.7 234.4 405.3 236.1C407.1 231.9 409.8 228.2 413.2 225.2C416.6 222.2 420.6 220.4 425 219.9C431.2 219.2 435.8 220.5 438.8 223.8C441.8 227.1 443.3 230.8 443.3 234.9V255.7C443.3 260.8 444.8 264.4 447.9 266.4C448.6 266.8 448.9 267.4 448.9 268C448.9 269.6 447.6 271.7 445 274.4C442.4 277 439.1 278.3 435.1 278.3C431 278.3 427.7 277.1 425.1 274.7C422.5 272.3 421.2 269 421.2 264.7V241C421.2 239.2 420.8 237.9 420 236.9C419.2 235.9 418.3 235.5 417.2 235.5C415.1 235.5 413.3 236.8 411.9 239.4C416.1 242.8 418.2 247.8 418.2 254.3C418.2 261.3 415.7 267.1 410.8 271.6C405.9 276.1 399.7 278.3 392.3 278.3C387.5 278.3 383.3 277.6 379.7 276.1C376.1 274.6 373.4 272.7 371.5 270.2C369.6 267.7 368.2 265.2 367.3 262.6C366.4 260 366 257.4 366 254.6L366.1 242.1C366.1 237.3 364.5 233.9 361.4 231.9C360.7 231.5 360.4 231 360.4 230.1C360.4 228.4 361.7 226.3 364.2 223.6C366.8 221 370 219.7 374.1 219.7C378.2 219.7 381.6 220.9 384.2 223.3C386.9 225.7 388.2 229.1 388.2 233.4V237H388.3ZM396.9 262.4C397.9 260.2 398.3 257.7 398.3 255C398.3 251.9 397.6 249.3 396.3 247.3C395 245.3 393 244.3 390.3 244.3C389.6 244.3 388.8 244.4 388.1 244.5V256C388.1 262.4 389.7 265.6 392.9 265.6C394.6 265.7 396 264.6 396.9 262.4Z" fill="white"/>
<path d="M45.1001 90.2H67.9001C79.1001 90.2 88.4001 84.1 88.4001 72.2C88.4001 65.1 84.6001 58.9 77.9001 56.9V56.7C82.8001 54.2 85.8001 49.3 85.8001 43.1C85.8001 32.9 78.2001 27 67.4001 27H45.1001V90.2ZM54.0001 53.6V34.7H67.2001C73.2001 34.7 76.7001 38.5 76.7001 44C76.7001 49.5 73.1001 53.6 67.3001 53.6H54.0001ZM54.0001 82.5V60.9H68.3001C75.0001 60.9 79.2001 65.3 79.2001 71.6C79.2001 78.1 75.1001 82.4 68.3001 82.4H54.0001V82.5Z" fill="white"/>
<path d="M151.6 90.2H160.4V27H151.6V90.2ZM101.3 90.2H123.7C134.8 90.2 142.6 82.4 142.6 70.7C142.6 58.1 134.4 50.8 123.2 50.8H110.2V27H101.3V90.2ZM110.2 82.5V58.5H122.1C129.1 58.5 133.6 63.2 133.6 70.7C133.6 78 129.4 82.5 122.3 82.5H110.2Z" fill="white"/>
<path d="M177.3 90.2H186L214.4 49.2C216.7 45.7 219.7 40 219.7 40H219.9C219.9 40 219.4 45.6 219.4 49.2V90.2H228.2V27H219.5L191.3 67.9C189 71.3 185.9 77.2 185.9 77.2H185.7C185.7 77.2 186.2 71.6 186.2 68V27H177.3V90.2Z" fill="white"/>
<path d="M245 90.2H253.9V34.7H280V27H245V90.2Z" fill="white"/>
<path d="M289.6 90.2H298.5V66.9H312.9C324.5 66.9 332.8 58.8 332.8 46.8C332.8 34.8 324.5 27 312.9 27H289.6V90.2ZM298.5 59.2V34.7H311.6C319.1 34.7 323.8 39.3 323.8 46.8C323.8 54.4 319 59.2 311.5 59.2H298.5Z" fill="white"/>
<path d="M333.5 90.2H342.6L349 72H373L379.4 90.2H388.6L365.8 27H356.3L333.5 90.2ZM351.4 64.7L358.5 44.7C359.6 41.4 360.9 35.7 360.9 35.7H361.1C361.1 35.7 362.5 41.4 363.6 44.7L370.6 64.7H351.4Z" fill="white"/>
<path d="M398.3 90.2H407L435.4 49.2C437.7 45.7 440.7 40 440.7 40H440.9C440.9 40 440.4 45.6 440.4 49.2V90.2H449.2V27H440.5L412.3 67.9C410 71.3 406.9 77.2 406.9 77.2H406.7C406.7 77.2 407.2 71.6 407.2 68V27H398.3V90.2Z" fill="white"/>
<path d="M67.0001 97.7C67.2001 97.7 67.3001 97.9 67.3001 98.2V151.3C67.3001 151.5 67.2001 151.7 66.9001 151.8H49.4001C49.2001 151.8 49.0001 151.6 49.0001 151.3V114C49.0001 111.5 48.8001 109.6 48.3001 108.1C47.9001 106.6 47.3001 105.6 46.7001 104.9C46.1001 104.3 45.8001 103.9 45.8001 103.9C45.6001 103.5 45.6001 103.1 46.0001 102.8C46.4001 102.5 47.0001 102.2 47.9001 102.1L67.0001 97.7Z" fill="white"/>
<path d="M141.3 125.8C141.3 129.4 140.8 132.9 139.8 136.1C138.8 139.3 137.4 142.3 135.5 145C133.6 147.7 131.1 149.8 128 151.4C124.9 153 121.4 153.7 117.5 153.7C112.5 153.7 108.1 152.3 104.4 149.6C100.8 146.8 98.0999 143.3 96.3999 139.2C94.6999 135 93.8999 130.5 93.8999 125.7C93.8999 118.2 95.9999 111.7 100.2 106.1C104.4 100.5 110.2 97.7 117.6 97.7C122.6 97.7 126.9 99.1 130.6 101.9C134.4 104.6 137.1 108.1 138.8 112.2C140.4 116.6 141.3 121 141.3 125.8ZM117.5 107.6C113.6 107.6 111.7 113.7 111.7 125.9C111.7 138.1 113.6 144.2 117.5 144.2C118.8 144.2 119.9 143.7 120.8 142.6C121.6 141.5 122.3 140 122.6 138C123 135.9 123.2 134.1 123.3 132.3C123.4 130.5 123.5 128.4 123.5 125.9C123.5 113.6 121.5 107.6 117.5 107.6Z" fill="white"/>
<path d="M191.2 125.8C191.2 129.4 190.7 132.9 189.7 136.1C188.7 139.3 187.3 142.3 185.4 145C183.5 147.7 181 149.8 177.8 151.4C174.7 153 171.2 153.7 167.3 153.7C162.3 153.7 157.9 152.3 154.2 149.6C150.6 146.8 147.9 143.3 146.2 139.2C144.5 135 143.7 130.5 143.7 125.7C143.7 118.2 145.8 111.7 150 106.1C154.2 100.5 160 97.7 167.4 97.7C172.4 97.7 176.7 99.1 180.4 101.9C184.2 104.6 186.9 108.1 188.6 112.2C190.3 116.6 191.2 121 191.2 125.8ZM167.4 107.6C163.5 107.6 161.6 113.7 161.6 125.9C161.6 138.1 163.5 144.2 167.4 144.2C168.7 144.2 169.8 143.7 170.7 142.6C171.5 141.5 172.2 140 172.5 138C172.9 135.9 173.1 134.1 173.2 132.3C173.3 130.5 173.4 128.4 173.4 125.9C173.4 113.6 171.4 107.6 167.4 107.6Z" fill="white"/>
<path d="M241.1 125.8C241.1 129.4 240.6 132.9 239.6 136.1C238.6 139.3 237.2 142.3 235.3 145C233.4 147.7 230.9 149.8 227.8 151.4C224.7 153 221.2 153.7 217.3 153.7C212.3 153.7 207.9 152.3 204.2 149.6C200.6 146.8 197.9 143.3 196.2 139.2C194.5 135 193.7 130.5 193.7 125.7C193.7 118.2 195.8 111.7 200 106.1C204.2 100.5 210 97.7 217.4 97.7C222.4 97.7 226.7 99.1 230.4 101.9C234.2 104.6 236.9 108.1 238.6 112.2C240.2 116.6 241.1 121 241.1 125.8ZM217.3 107.6C213.4 107.6 211.5 113.7 211.5 125.9C211.5 138.1 213.4 144.2 217.3 144.2C218.6 144.2 219.7 143.7 220.6 142.6C221.4 141.5 222.1 140 222.4 138C222.8 135.9 223 134.1 223.1 132.3C223.2 130.5 223.3 128.4 223.3 125.9C223.3 113.6 221.3 107.6 217.3 107.6Z" fill="white"/>
<path d="M313.7 125.8C313.7 129.4 313.2 132.9 312.2 136.1C311.2 139.3 309.8 142.3 307.9 145C306 147.7 303.5 149.8 300.3 151.4C297.2 153 293.7 153.7 289.8 153.7C284.8 153.7 280.4 152.3 276.7 149.6C273.1 146.8 270.4 143.3 268.7 139.2C267 135.1 266.2 130.5 266.2 125.7C266.2 118.2 268.3 111.7 272.5 106.1C276.7 100.5 282.5 97.7 289.9 97.7C294.9 97.7 299.2 99.1 302.9 101.9C306.7 104.6 309.4 108.1 311.1 112.2C312.8 116.6 313.7 121 313.7 125.8ZM289.9 107.6C286 107.6 284.1 113.7 284.1 125.9C284.1 138.1 286 144.2 289.9 144.2C291.2 144.2 292.3 143.7 293.2 142.6C294 141.5 294.7 140 295 138C295.4 135.9 295.6 134.1 295.7 132.3C295.8 130.5 295.9 128.4 295.9 125.9C295.9 113.6 293.9 107.6 289.9 107.6Z" fill="white"/>
<path d="M363.6 125.8C363.6 129.4 363.1 132.9 362.1 136.1C361.1 139.3 359.7 142.3 357.8 145C355.9 147.7 353.4 149.8 350.2 151.4C347.1 153 343.6 153.7 339.7 153.7C334.7 153.7 330.3 152.3 326.6 149.6C323 146.8 320.3 143.3 318.6 139.2C316.9 135.1 316.1 130.5 316.1 125.7C316.1 118.2 318.2 111.7 322.4 106.1C326.6 100.5 332.4 97.7 339.8 97.7C344.8 97.7 349.1 99.1 352.8 101.9C356.6 104.6 359.3 108.1 361 112.2C362.7 116.6 363.6 121 363.6 125.8ZM339.8 107.6C335.9 107.6 334 113.7 334 125.9C334 138.1 335.9 144.2 339.8 144.2C341.1 144.2 342.2 143.7 343.1 142.6C343.9 141.5 344.6 140 344.9 138C345.3 135.9 345.5 134.1 345.6 132.3C345.7 130.5 345.8 128.4 345.8 125.9C345.8 113.6 343.8 107.6 339.8 107.6Z" fill="white"/>
<path d="M413.5 125.8C413.5 129.4 413 132.9 412 136.1C411 139.3 409.6 142.3 407.7 145C405.8 147.7 403.3 149.8 400.2 151.4C397.1 153 393.6 153.7 389.7 153.7C384.7 153.7 380.3 152.3 376.6 149.6C373 146.8 370.3 143.3 368.6 139.2C366.9 135.1 366.1 130.5 366.1 125.7C366.1 118.2 368.2 111.7 372.4 106.1C376.6 100.5 382.4 97.7 389.8 97.7C394.8 97.7 399.1 99.1 402.8 101.9C406.6 104.6 409.3 108.1 411 112.2C412.7 116.6 413.5 121 413.5 125.8ZM389.7 107.6C385.8 107.6 383.9 113.7 383.9 125.9C383.9 138.1 385.8 144.2 389.7 144.2C391 144.2 392.1 143.7 393 142.6C393.8 141.5 394.5 140 394.8 138C395.2 135.9 395.4 134.1 395.5 132.3C395.6 130.5 395.7 128.4 395.7 125.9C395.7 113.6 393.7 107.6 389.7 107.6Z" fill="white"/>
<path d="M421 151.7V144.2H415.5V137.4H421V132H415.5V123.3H421V101.8H436.6C442.9 101.8 447.4 103.1 450.3 105.7C453.2 108.3 454.7 111.9 454.7 116.5C454.7 119.2 454.1 121.7 452.9 124.1C451.7 126.5 449.7 128.4 447 129.8C444.3 131.2 440.5 132 435.8 132H431.4V137.5H441.9V144.3H431.4V151.8H421V151.7ZM431.3 123.4H434.7C437.6 123.4 439.9 122.9 441.6 121.9C443.3 120.9 444.2 119.2 444.2 116.9C444.2 112.7 441.5 110.5 436 110.5H431.3V123.4Z" fill="white"/>
</g>
<defs>
<filter id="filter0_d" x="25" y="7" width="449.7" height="291.6" filterUnits="userSpaceOnUse" color-interpolation-filters="sRGB">
<feFlood flood-opacity="0" result="BackgroundImageFix"/>
<feColorMatrix in="SourceAlpha" type="matrix" values="0 0 0 0 0 0 0 0 0 0 0 0 0 0 0 0 0 0 127 0"/>
<feOffset/>
<feGaussianBlur stdDeviation="10"/>
<feColorMatrix type="matrix" values="0 0 0 0 0.231373 0 0 0 0 0.172549 0 0 0 0 0.447059 0 0 0 1 0"/>
<feBlend mode="normal" in2="BackgroundImageFix" result="effect1_dropShadow"/>
<feBlend mode="normal" in="SourceGraphic" in2="effect1_dropShadow" result="shape"/>
</filter>
<clipPath id="clip0">
<rect width="31.364" height="31.364" fill="white" transform="translate(0.0878906 239.478) rotate(-69.0942)"/>
</clipPath>
</defs>
</svg>
