<svg width="110" height="99" viewBox="0 0 110 99" fill="none" xmlns="http://www.w3.org/2000/svg">
<path d="M80.9476 3.79309C79.2584 3.79552 77.5716 3.92111 75.9006 4.16883C69.9106 5.04618 64.3347 8.35308 57.2776 12.53L56.8836 12.7635L56.4897 12.53C49.4308 8.35308 43.8567 5.04618 37.863 4.16883C36.1915 3.92111 34.504 3.79553 32.8142 3.79309C24.712 3.79309 17.3413 6.83916 12.0553 12.3659C6.32434 18.3723 3.40413 26.8356 3.83459 36.2C4.23222 44.8676 7.07583 53.0756 12.5022 61.2927C18.0472 69.6831 26.277 78.0516 37.6733 86.8943C41.8521 90.1392 46.724 93.7908 51.1709 96.2605C51.7345 96.5742 52.2489 96.908 52.745 97.2309C54.0984 98.11 55.2658 98.8725 56.8964 98.8725C58.5271 98.8725 59.6944 98.1119 61.0478 97.2309C61.5439 96.908 62.0565 96.5742 62.6219 96.2605C67.0652 93.7908 71.9352 90.1392 76.1195 86.8943C87.5049 78.0516 95.7366 69.6776 101.291 61.2927C106.726 53.0756 109.561 44.8676 109.958 36.2C110.389 26.8356 107.468 18.3741 101.736 12.3732C96.426 6.84099 89.0534 3.79309 80.9476 3.79309Z" fill="#3B2C72"/>
<path d="M77.1546 0C75.4654 0.00243374 73.7786 0.128014 72.1076 0.375743C66.1176 1.25308 60.5417 4.55999 53.4847 8.73693L53.0907 8.9704L52.6967 8.73693C45.6378 4.55999 40.0637 1.25308 34.0701 0.375743C32.3985 0.128016 30.7111 0.00243568 29.0212 0C20.9191 0 13.5483 3.04607 8.26236 8.57277C2.53137 14.5792 -0.388842 23.0425 0.0416205 32.4069C0.439251 41.0745 3.28286 49.2825 8.70924 57.4996C14.2542 65.89 22.484 74.2585 33.8804 83.1012C38.0591 86.3461 42.931 89.9977 47.3779 92.4674C47.9415 92.7811 48.4559 93.1149 48.952 93.4378C50.3054 94.3169 51.4728 95.0794 53.1034 95.0794C54.7341 95.0794 55.9014 94.3188 57.2549 93.4378C57.751 93.1149 58.2635 92.7811 58.829 92.4674C63.2722 89.9977 68.1423 86.3461 72.3265 83.1012C83.7119 74.2585 91.9436 65.8845 97.4977 57.4996C102.933 49.2825 105.768 41.0745 106.165 32.4069C106.596 23.0425 103.676 14.581 97.9427 8.58007C92.633 3.04789 85.2605 0 77.1546 0Z" fill="#644F9A"/>
</svg>
