<svg width="61" height="55" viewBox="0 0 61 55" fill="none" xmlns="http://www.w3.org/2000/svg">
<g filter="url(#filter0_d)">
<path d="M42.1968 0C41.2729 0.00133104 40.3504 0.0700124 39.4365 0.205498C36.1605 0.685326 33.111 2.49391 29.2514 4.77833L29.0359 4.90602L28.8204 4.77833C24.9599 2.49391 21.9113 0.685326 18.6333 0.205498C17.7191 0.0700134 16.7962 0.0013321 15.8721 0C11.4409 0 7.40972 1.66593 4.51878 4.68855C1.38444 7.97353 -0.212662 12.6022 0.0227627 17.7237C0.240232 22.4641 1.79543 26.9532 4.76319 31.4472C7.79578 36.036 12.2968 40.6128 18.5296 45.449C20.815 47.2237 23.4795 49.2208 25.9115 50.5715C26.2198 50.7431 26.5011 50.9256 26.7724 51.1022C27.5126 51.583 28.1511 52 29.0429 52C29.9347 52 30.5731 51.584 31.3133 51.1022C31.5847 50.9256 31.865 50.7431 32.1742 50.5715C34.6043 49.2208 37.2678 47.2237 39.5562 45.449C45.783 40.6128 50.285 36.033 53.3226 31.4472C56.2953 26.9532 57.8455 22.4641 58.063 17.7237C58.2984 12.6022 56.7013 7.97452 53.566 4.69254C50.6621 1.66693 46.6299 0 42.1968 0Z" fill="#644F9A"/>
</g>
<defs>
<filter id="filter0_d" x="0" y="0" width="60.0858" height="55" filterUnits="userSpaceOnUse" color-interpolation-filters="sRGB">
<feFlood flood-opacity="0" result="BackgroundImageFix"/>
<feColorMatrix in="SourceAlpha" type="matrix" values="0 0 0 0 0 0 0 0 0 0 0 0 0 0 0 0 0 0 127 0"/>
<feOffset dx="2" dy="3"/>
<feColorMatrix type="matrix" values="0 0 0 0 0.231373 0 0 0 0 0.172549 0 0 0 0 0.447059 0 0 0 1 0"/>
<feBlend mode="normal" in2="BackgroundImageFix" result="effect1_dropShadow"/>
<feBlend mode="normal" in="SourceGraphic" in2="effect1_dropShadow" result="shape"/>
</filter>
</defs>
</svg>
