<svg width="114" height="55" viewBox="0 0 114 55" fill="none" xmlns="http://www.w3.org/2000/svg">
<path d="M52.8656 20.9576C53.5616 21.013 56.1506 20.819 56.7352 23.3694C59.185 21.013 58.7117 17.9082 56.9579 16.6884C54.007 14.637 50.8612 16.5221 50.5828 18.6567C50.3879 20.0151 51.1952 20.819 52.8656 20.9576ZM113.359 17.6033C111.717 17.5478 109.323 20.2091 107.346 20.2368C106.038 20.2368 105.954 19.2666 106.734 17.6033C109.629 11.449 106.121 11.6431 105.37 12.2252C105.37 12.2252 107.875 7.84519 103.449 7.84519C98.0202 7.87291 93.1762 12.4193 90.6707 19.1557C89.752 21.4566 87.7198 26.3633 85.5762 26.9732C83.544 27.5277 83.544 24.8664 82.2355 24.3674C90.9212 18.5458 91.0326 13.8331 89.6685 12.2252C88.4436 10.8114 84.3234 10.3679 79.2289 15.635C80.4817 10.9778 84.0172 8.12241 84.8524 3.43743C85.2978 0.692974 83.2656 -2.16237 79.396 2.41172C76.7791 5.51656 75.415 11.1718 72.8817 18.4072C71.3784 22.815 68.3718 30.7157 65.6714 30.7434C64.5022 30.7434 64.1681 29.7177 64.5301 26.8346C65.226 21.2071 69.7637 14.7202 71.3506 10.0629C72.5476 6.9581 71.3506 5.12846 70.0143 4.82352C68.2048 4.49086 65.6436 6.18189 63.7506 10.8391C62.2473 14.0549 61.0224 18.4904 60.1037 23.508C59.2685 27.694 55.9279 35.9274 52.6985 35.5115C51.5015 35.3452 52.7264 32.3235 54.2018 29.3296C55.4546 26.7792 56.4568 23.702 53.7843 23.6743C49.692 23.6743 46.6854 32.074 46.2121 38.3391C45.9894 41.3885 45.878 44.9092 48.2443 44.9092C51.1674 44.9092 54.9257 41.8598 58.489 36.565C58.7396 39.5035 62.5257 43.44 69.8194 32.9057C69.9308 34.5135 70.2927 36.8976 71.5176 36.9531C71.5176 36.9531 72.6311 37.258 73.8004 34.6522C74.9696 32.0463 76.2224 28.7474 76.4729 28.1098C77.0854 26.6406 78.2546 26.3633 78.3381 28.8583C78.4495 31.4364 79.1454 33.3215 81.2333 33.3215C85.3535 33.2938 88.9169 29.5513 89.9469 28.1375C90.5315 30.3553 95.5982 31.1315 101.11 24.506C101.361 26.2802 102.892 28.8306 109.824 23.4526C114.222 20.0982 114.612 17.6587 113.359 17.6033ZM78.4495 21.9001C78.2824 21.9001 78.004 21.7615 78.1154 21.4843C78.6722 20.0705 79.563 18.823 80.7044 17.8528C81.7066 16.9934 82.7645 16.4944 83.5718 16.4944C84.3235 16.4944 84.7689 16.9379 84.741 17.6864C84.7132 18.2686 84.3513 18.9893 83.6553 19.6269C81.1777 21.9001 78.6443 21.9001 78.4495 21.9001ZM102.029 14.6925C99.6626 18.3517 100.498 18.7676 98.7718 21.4011C97.3799 23.508 95.4311 24.0624 94.7073 22.9536C93.9835 21.8447 94.7073 19.4329 96.3498 17.5478C97.9923 15.6627 103.115 13.0292 102.029 14.6925ZM41.8971 38.8659C42.5652 26.5851 49.2465 16.3558 49.4971 12.0589C49.5806 10.3124 48.6619 8.95406 46.574 9.06495C43.0663 9.23128 36.7747 14.2212 33.629 20.514C31.8751 15.2192 27.6714 18.3517 25.6949 20.6804C26.0568 10.7283 22.9945 9.86888 21.2128 9.95205C15.6451 10.2015 9.82675 17.6587 6.65313 23.0922C3.73005 28.0821 -3.67508 42.9964 2.22675 43.8835C3.67437 44.1053 5.17767 42.442 6.17987 38.6164C10.0216 24.1456 14.6429 20.819 16.5081 20.9576C21.4634 21.318 15.0605 39.6698 12.889 46.129C11.6641 49.5665 10.6341 55.1663 14.5872 54.9722C18.9857 54.7782 20.8509 43.7172 21.9088 37.7015C23.1059 31.1038 24.804 28.9692 26.4744 29.1078C28.4509 29.3573 27.6158 33.2938 26.3073 37.0917C25.1381 40.945 21.0736 50.3981 25.8341 50.8139C30.6224 50.9803 30.4275 42.3311 31.7359 36.8699C33.7403 28.6365 35.9953 23.0922 38.3894 23.5634C41.3403 24.201 34.4363 34.9848 33.963 43.5231C33.6011 50.1486 36.6077 54.9722 40.9784 53.0871C45.5996 50.9248 41.5352 45.4914 41.8971 38.8659Z" fill="#644F9A"/>
</svg>
