<svg width="64" height="64" viewBox="0 0 64 64" fill="none" xmlns="http://www.w3.org/2000/svg">
<circle cx="32" cy="32" r="32" fill="#644F9A"/>
<path d="M33.7031 20.97C33.7031 20.646 33.7031 20.97 33.3791 21.294C33.3791 20.97 33.9731 19.674 34.2971 19.026C34.2971 19.026 34.6211 19.026 34.9451 18.702C34.9451 19.026 34.6211 19.35 34.6211 19.674C33.8111 23.562 32.6231 27.126 31.4351 30.69C30.8411 32.958 30.2471 35.226 29.6531 37.494C29.0591 39.438 28.4651 41.058 28.1951 43.002C27.9251 43.326 27.9251 43.65 27.6011 43.974C27.2771 44.298 27.6011 44.946 27.6551 45.27C27.9791 45.594 27.9791 45.918 28.3031 45.918C28.3031 45.918 28.6271 45.918 28.6271 46.242C29.0051 46.89 29.6531 47.862 30.6251 48.186C30.9491 47.862 30.9491 47.538 31.2731 47.538C31.9211 46.89 32.1911 45.918 32.5151 45.27C32.7851 44.622 33.1091 43.974 33.3791 43.002C33.3791 43.002 33.3791 42.678 33.7031 42.354C34.3511 41.706 34.6211 40.41 35.2151 39.438C35.5391 38.79 35.8631 38.466 36.1871 37.818C36.4571 36.846 36.7271 35.874 37.3751 34.578C37.6451 33.282 37.9151 31.986 38.5631 30.69C38.8331 29.394 39.1031 27.774 39.0491 26.154C39.0491 25.83 39.0491 25.506 38.9951 25.182C39.3191 24.858 39.3191 24.21 39.3191 23.886C39.2651 22.266 39.2111 20.97 38.8331 19.35C38.8331 18.702 38.5091 18.054 37.8071 17.082L37.4831 16.758C37.1591 16.758 36.8351 16.758 36.5111 16.758C36.1871 16.758 36.1871 16.758 35.8631 16.758C35.5391 16.758 35.5391 17.082 35.2151 17.082C34.8911 17.082 34.5671 17.082 34.2431 17.406C33.9731 18.054 33.3251 18.378 33.0011 18.702C32.6771 19.35 32.4071 19.998 31.7591 20.646C31.1651 21.618 30.3011 22.968 29.7071 23.94C27.4931 26.856 27.1151 27.936 25.4411 29.826C24.7931 30.474 24.2531 31.662 23.6051 32.148C24.5771 33.12 25.5491 33.444 26.8451 33.12C27.1691 32.796 27.9791 32.904 28.2491 32.256C30.0311 30.906 30.6791 28.368 31.3271 27.45C31.3271 27.45 31.6511 27.126 31.5971 26.802C31.2731 26.154 31.9211 25.506 32.1911 25.182C32.1911 24.858 32.5151 24.534 32.5151 23.886C33.1091 22.914 33.4331 21.942 33.7031 20.97Z" fill="white"/>
</svg>
