<svg width="64" height="64" viewBox="0 0 64 64" fill="none" xmlns="http://www.w3.org/2000/svg">
<circle cx="32" cy="32" r="32" fill="#644F9A"/>
<path d="M37.2826 33.12C37.5526 32.634 37.7146 32.202 38.0926 31.932C38.0386 31.77 38.3086 31.662 38.6326 31.662C38.8486 31.392 38.5246 31.176 38.5246 31.176C39.1726 30.852 39.0646 30.312 39.2806 29.988C39.9826 28.584 39.8746 26.748 39.9826 25.398C40.0366 24.372 39.4426 23.616 39.0646 22.266C38.7406 22.32 38.6866 22.158 38.6866 21.888C38.0386 21.672 36.9046 20.97 36.5806 20.538C35.9866 19.998 35.2846 19.566 34.6906 19.35C34.0426 19.134 33.7186 19.026 33.5026 19.026C32.5306 18.54 31.9906 19.026 31.1266 19.08C28.2106 19.674 24.9166 24.426 25.0246 25.83C25.0786 26.262 24.5926 26.64 24.9706 27.288C24.9706 27.288 24.9706 27.504 25.0246 27.72C25.6186 27.882 25.9426 28.638 26.4286 28.584C27.4546 29.07 28.4266 29.286 29.4526 28.26C29.4526 28.26 29.7226 27.99 30.0466 27.99C30.8566 27.342 31.7746 21.78 33.8266 22.266C34.7446 22.482 35.0146 23.454 34.8526 24.264C34.6906 25.668 34.3666 25.992 33.8266 27.126C32.4766 31.014 30.2086 34.038 27.4546 37.548C26.6446 38.79 24.9706 40.626 23.8906 41.598C23.4046 42.57 22.5946 44.73 24.3226 45.162C24.3226 45.432 24.9706 45.972 25.2946 45.918C25.2946 45.918 25.5646 45.918 25.9426 45.81C26.6986 46.026 27.4546 46.242 28.3186 46.08C28.8586 46.026 29.7226 45.972 30.6406 46.08C31.5586 46.35 32.4226 45.594 33.2866 45.54C34.6906 45.378 34.3126 45.918 35.8786 45.486C38.0926 44.892 40.0366 45.702 41.2246 46.08C41.4946 46.026 41.5486 44.73 40.7386 44.082C39.0646 42.732 36.3646 42.03 33.9346 42.354C33.6646 42.354 29.9386 42.678 29.8846 42.408C32.2606 39.708 34.5286 37.44 36.5806 34.578C36.7966 33.984 37.1206 33.66 37.2826 33.12Z" fill="white"/>
</svg>
