<svg width="64" height="64" viewBox="0 0 64 64" fill="none" xmlns="http://www.w3.org/2000/svg">
<circle cx="32" cy="32" r="32" fill="#644F9A"/>
<path d="M29.0386 49.936C29.3266 49.936 29.6146 49.936 29.9026 49.648C30.1906 49.648 30.7666 49.36 31.0546 49.072C32.2066 48.496 33.6466 47.632 34.5106 46.768C35.3746 45.904 35.9506 45.328 36.5266 44.464C37.1026 43.888 37.3906 43.024 37.9666 42.448C38.2546 41.872 38.5426 41.296 38.5426 40.432C38.5426 40.144 38.8306 39.568 38.8306 38.992C38.5426 38.704 38.5426 38.128 38.5426 37.552C38.2546 37.552 38.2546 37.552 38.2546 37.552C37.9666 35.824 37.1026 34.672 35.6626 33.808C35.0866 33.52 34.5106 33.232 33.9346 32.944C33.6466 32.656 33.3586 32.656 33.0706 32.656C33.3586 32.368 33.6466 32.08 33.6466 31.792C34.2226 31.504 34.5106 31.216 34.7986 30.928C35.6626 30.064 36.5266 29.2 37.3906 28.336C37.9666 28.048 38.2546 27.472 38.5426 26.896C38.8306 26.32 39.1186 25.456 39.6946 24.88C39.9826 24.304 40.2706 23.728 40.5586 22.864C40.5586 22.576 40.8466 22.576 40.8466 22.288C40.8466 20.848 40.8466 20.56 39.9826 19.12C39.4066 17.968 38.5426 17.104 37.3906 16.24C36.2386 15.664 34.7986 15.664 33.6466 15.088C32.4946 14.8 31.3426 14.512 30.1906 14.224C29.9026 14.224 29.3266 13.936 28.7506 13.648C28.4626 13.648 28.1746 13.36 27.8866 12.784C27.8866 12.496 27.8866 12.208 27.5986 11.92C27.3106 12.208 27.0226 12.208 27.0226 12.496C27.0226 13.072 27.3106 13.936 27.3106 14.512C27.8866 16.24 28.7506 17.392 30.1906 18.256C31.3426 18.832 32.4946 19.12 33.9346 19.408C34.5106 19.408 35.3746 19.12 36.2386 19.408C36.8146 19.408 37.1026 19.984 36.5266 20.56C36.5266 20.848 36.2386 21.424 35.9506 21.712C34.5106 23.44 32.7826 24.88 31.0546 26.32C30.4786 26.896 29.9026 27.472 29.3266 28.336C28.1746 29.2 27.8866 30.352 27.5986 31.504C27.5986 31.792 27.8866 32.08 27.8866 32.08C28.1746 33.52 28.7506 34.384 29.6146 35.248C29.9026 35.536 30.1906 35.824 30.7666 35.824C31.3426 36.112 31.9186 36.112 32.4946 36.112C33.0706 36.112 33.6466 36.112 33.9346 35.536C34.2226 35.824 34.2226 35.824 34.5106 35.824C34.7986 35.824 35.0866 36.112 35.3746 36.688C35.3746 37.264 35.3746 37.552 35.0866 38.128C34.2226 39.568 33.0706 40.72 31.9186 41.872C30.7666 42.736 29.6146 43.6 28.1746 44.176C27.3106 44.752 26.1586 45.328 24.7186 45.328C24.4306 45.328 24.1426 45.616 23.8546 45.616C23.2786 46.192 23.2786 46.768 23.2786 47.344C23.5666 47.344 23.8546 47.92 23.8546 48.496C24.1426 48.496 24.7186 48.496 25.0066 48.784C25.2946 49.072 25.5826 49.072 26.1586 49.072C26.1586 49.36 26.1586 49.36 26.1586 49.36C26.1586 49.36 26.1586 49.648 25.8706 49.936C26.7346 49.648 27.5986 49.648 28.4626 49.36C28.7506 49.648 28.7506 49.648 29.0386 49.936Z" fill="white"/>
</svg>
