<svg width="64" height="64" viewBox="0 0 64 64" fill="none" xmlns="http://www.w3.org/2000/svg">
<circle cx="32" cy="32" r="32" fill="#644F9A"/>
<path d="M35.9031 26.128C35.8551 26.608 35.6151 26.896 35.6151 27.472C35.5671 27.76 35.5671 27.76 35.5671 27.952C35.5671 28.816 35.2791 28.912 35.2311 29.488L34.7991 31.072L34.7031 31.216C33.9831 32.416 30.8151 34.144 29.8551 34.288C29.4711 34.528 29.3271 34.528 29.0391 34.144C28.7031 33.712 28.8951 32.704 29.1831 32.176C29.1831 31.744 29.9031 31.216 30.1911 30.688C30.2871 29.92 30.6231 29.344 30.6231 28.816C30.9591 28.528 30.9591 28.528 30.9591 28.288C31.3911 27.232 32.3511 26.656 32.4471 25.552C32.5431 25.312 32.4951 25.024 32.7831 25.024C33.2151 24.544 33.3111 23.728 33.5991 23.2L34.7991 20.368C35.2311 19.6 35.2791 18.304 35.2791 17.824C35.2791 17.44 35.4231 16.192 33.9351 14.848C34.0311 14.56 31.7751 13.024 31.8711 12.736C31.8231 12.448 31.5351 12.4 31.6791 12.16C29.4231 12.496 31.8711 15.136 30.2391 18.352C28.5591 21.856 26.5431 25.024 24.5751 28.816C23.9031 30.064 23.2791 31.456 23.0871 32.704C23.0391 33.28 22.9911 33.856 23.1831 34.048C23.3751 35.248 23.7591 36.16 24.5271 36.352C24.7671 36.688 24.8631 36.928 24.8631 36.928C26.1111 37.936 27.9831 37.984 30.6231 37.12C30.9591 37.024 32.4951 36.16 33.5991 35.44C33.2631 36.208 33.0711 36.784 32.6391 38.368C32.3511 39.472 32.5431 38.512 32.1111 39.904C31.7751 40.912 31.6311 42.016 31.2471 43.024C30.7671 45.232 29.5191 48.352 30.5271 50.368C30.7671 50.848 31.6311 51.232 31.1031 49.888C31.1031 49.552 31.2951 49.6 31.3911 49.36L31.6311 49.072L32.0151 49.12C32.0631 48.592 31.7751 48.544 32.6391 48.064C32.5911 47.872 32.5911 47.872 32.6391 47.584C32.9751 47.344 33.0711 47.056 33.2151 46.768C33.5991 46.336 33.5511 45.808 33.8871 45.28C34.2711 44.512 34.4151 43.84 35.0391 43.312C35.3271 43.168 35.3751 42.88 35.6631 42.592C35.7591 41.824 35.8071 42.688 35.9031 41.824C36.1911 41.056 36.8151 40.576 36.9591 39.904C37.2951 39.04 36.7671 40.288 36.9111 39.184C37.1991 38.704 37.4871 38.368 37.4871 37.792C37.6311 36.784 38.2551 36.112 38.3511 35.008C38.3991 34.768 38.3991 34.768 38.4471 34.432C38.2071 33.904 38.3511 32.608 38.6871 32.128C38.6871 31.84 38.4471 31.552 38.4951 31.264C38.2551 30.928 38.8311 30.592 38.8311 30.304L38.8791 30.016C38.4471 29.44 38.5431 29.248 38.4951 29.008C38.5911 28.288 38.4471 28 38.2551 27.52C38.2071 27.232 37.2471 26.512 37.2471 26.512C36.9591 26.272 36.4791 26.176 35.9031 26.128Z" fill="white"/>
</svg>
