<svg width="40" height="40" viewBox="0 0 40 40" fill="none" xmlns="http://www.w3.org/2000/svg">
<rect width="40" height="40" rx="20" fill="#F7931E"/>
<path fill-rule="evenodd" clip-rule="evenodd" d="M14.7252 14.1835C14.7252 11.3211 17.0463 9 19.9088 9C22.7712 9 25.0923 11.3211 25.0923 14.1835C25.0923 17.046 22.7712 19.3671 19.9088 19.3671C17.0463 19.3671 14.7252 17.046 14.7252 14.1835ZM17.7656 14.1835C17.7656 15.37 18.7223 16.3267 19.9088 16.3267C21.0878 16.3267 22.0519 15.37 22.0519 14.1835C22.0519 12.997 21.0953 12.0404 19.9088 12.0404C18.7223 12.0404 17.7656 12.997 17.7656 14.1835ZM25.122 22.0293C25.0552 22.0886 23.8168 23.0675 21.7404 23.4902L24.8698 26.5899C25.4186 27.1387 25.4186 28.036 24.8698 28.5847C24.3211 29.1335 23.4238 29.1335 22.875 28.5847L19.8346 25.6259L17.076 28.5699C16.8016 28.8591 16.4308 29 16.0601 29C15.7041 29 15.3556 28.8739 15.0812 28.607C14.5176 28.0656 14.5028 27.1758 15.0441 26.6122L18.0178 23.505C15.8895 23.0897 14.5918 22.0812 14.525 22.0293C13.9244 21.5399 13.8205 20.6574 14.31 20.0493C14.7994 19.4487 15.6819 19.3448 16.2899 19.8343C16.2974 19.8491 17.6544 20.865 19.8346 20.865C21.9201 20.865 23.2253 19.9287 23.3477 19.8408C23.3533 19.8368 23.3564 19.8346 23.3571 19.8343C23.9651 19.3448 24.8476 19.4412 25.337 20.0493C25.8265 20.6574 25.7301 21.5399 25.122 22.0293Z" fill="white"/>
</svg>
