<svg width="132" height="27" viewBox="0 0 132 27" fill="none" xmlns="http://www.w3.org/2000/svg">
<path d="M104.386 17.7085H99.1748V19.1559H101.03V23.5209H102.542V19.1559H104.386V17.7085Z" fill="#5FAF2D"/>
<path d="M32.3521 20.6148C32.3521 18.8847 33.6692 17.5503 35.4558 17.5503C36.6126 17.5503 37.609 18.1496 38.09 19.0543L36.7844 19.8119C36.5439 19.337 36.0399 19.0317 35.4444 19.0317C34.5396 19.0317 33.8639 19.6988 33.8639 20.6261C33.8639 21.5421 34.5396 22.2093 35.4444 22.2093C36.0514 22.2093 36.5668 21.9152 36.7958 21.4403L38.1129 22.1866C37.609 23.0913 36.6126 23.6906 35.4558 23.6906C33.6692 23.6793 32.3521 22.345 32.3521 20.6148Z" fill="#5FAF2D"/>
<path d="M44.4238 17.7086L42.2821 23.521C41.6751 25.1946 40.587 25.9296 39.1783 25.8392V24.4483C39.98 24.4596 40.4038 24.1769 40.6786 23.4532L38.3079 17.7199H39.9227L41.5033 21.6212L42.8089 17.7199H44.4238V17.7086Z" fill="#5FAF2D"/>
<path d="M50.5153 23.5209H48.992V19.1107H46.6556V23.5209H45.1323V17.7085H50.5153V23.5209Z" fill="#5FAF2D"/>
<path d="M54.6038 22.3225C55.1879 22.3225 55.6575 22.0737 55.9209 21.7458L57.1464 22.4469C56.5966 23.2385 55.7147 23.6908 54.5809 23.6908C52.5995 23.6908 51.3625 22.3564 51.3625 20.6263C51.3625 18.8961 52.6224 17.5618 54.4663 17.5618C56.2072 17.5618 57.4441 18.9187 57.4441 20.6263C57.4441 20.8524 57.4212 21.0447 57.3869 21.2369H52.9545C53.1607 21.9946 53.8021 22.3225 54.6038 22.3225ZM55.9209 20.0722C55.7376 19.2354 55.0963 18.8961 54.4663 18.8961C53.6532 18.8961 53.1034 19.3258 52.9202 20.0722H55.9209Z" fill="#5FAF2D"/>
<path d="M64.5558 20.6148C64.5558 22.3449 63.2616 23.6793 61.6811 23.6793C60.8221 23.6793 60.2036 23.3627 59.7799 22.8312V25.8392H58.2681V17.7086H59.7799V18.3984C60.2036 17.8669 60.8336 17.5503 61.6811 17.5503C63.2616 17.5503 64.5558 18.8847 64.5558 20.6148ZM63.044 20.6148C63.044 19.6423 62.3454 18.9751 61.4062 18.9751C60.4785 18.9751 59.7799 19.6423 59.7799 20.6148C59.7799 21.5873 60.4785 22.2545 61.4062 22.2545C62.3454 22.2545 63.044 21.5873 63.044 20.6148Z" fill="#5FAF2D"/>
<path d="M71.5071 23.5209H70.0411V20.1284L68.5407 22.4466H68.3575L66.8456 20.1058V23.5209H65.3911V17.7085H66.88L68.4491 20.1511L70.0182 17.7085H71.5071V23.5209Z" fill="#5FAF2D"/>
<path d="M78.6534 17.7086V23.521H77.1302V22.8312C76.7064 23.3514 76.0765 23.6793 75.2175 23.6793C73.6484 23.6793 72.3542 22.345 72.3542 20.6148C72.3542 18.8847 73.6484 17.5503 75.2175 17.5503C76.0765 17.5503 76.7064 17.8782 77.1302 18.3984V17.7086H78.6534ZM77.1302 20.6148C77.1302 19.6423 76.4315 18.9751 75.4924 18.9751C74.5647 18.9751 73.8661 19.6423 73.8661 20.6148C73.8661 21.5873 74.5647 22.2545 75.4924 22.2545C76.4315 22.2545 77.1302 21.5873 77.1302 20.6148Z" fill="#5FAF2D"/>
<path d="M86.0858 20.6148C86.0858 22.3449 84.7916 23.6793 83.2111 23.6793C82.3521 23.6793 81.7337 23.3627 81.3099 22.8312V25.8392H79.7981V17.7086H81.3099V18.3984C81.7337 17.8669 82.3636 17.5503 83.2111 17.5503C84.7916 17.5503 86.0858 18.8847 86.0858 20.6148ZM84.5626 20.6148C84.5626 19.6423 83.8639 18.9751 82.9248 18.9751C81.9971 18.9751 81.2984 19.6423 81.2984 20.6148C81.2984 21.5873 81.9971 22.2545 82.9248 22.2545C83.8639 22.2545 84.5626 21.5873 84.5626 20.6148Z" fill="#5FAF2D"/>
<path d="M95.8652 22.3225C96.4494 22.3225 96.9189 22.0737 97.1823 21.7458L98.4078 22.4469C97.8581 23.2385 96.9762 23.6908 95.8423 23.6908C93.861 23.6908 92.624 22.3564 92.624 20.6263C92.624 18.8961 93.8839 17.5618 95.7278 17.5618C97.4687 17.5618 98.7056 18.9187 98.7056 20.6263C98.7056 20.8524 98.6827 21.0447 98.6483 21.2369H94.216C94.4107 21.9946 95.0635 22.3225 95.8652 22.3225ZM97.1823 20.0722C96.9991 19.2354 96.3577 18.8961 95.7278 18.8961C94.9146 18.8961 94.3649 19.3258 94.1816 20.0722H97.1823Z" fill="#5FAF2D"/>
<path d="M90.7694 23.5209H92.5332L90.2769 20.5808L92.4644 17.7085H90.6548L88.9483 20.0719H88.4329V17.7085H86.9211V23.5209H88.4329V21.2253H89.0629L90.7694 23.5209Z" fill="#5FAF2D"/>
<path d="M114.005 3.87903H107.008V5.81272H109.482V11.6817H111.52V5.81272H114.005V3.87903Z" fill="#005A28"/>
<path d="M46.541 10.0756C47.3312 10.0756 47.9611 9.74765 48.3161 9.29532L49.9652 10.2339C49.2208 11.2969 48.0412 11.9075 46.5181 11.9075C43.8612 11.9075 42.1892 10.1095 42.1892 7.79134C42.1892 5.46186 43.8841 3.67517 46.3578 3.67517C48.694 3.67517 50.3546 5.50709 50.3546 7.79134C50.3546 8.08535 50.3202 8.35674 50.2744 8.61683H44.3193C44.5942 9.63457 45.4645 10.0756 46.541 10.0756ZM48.3161 7.045C48.0641 5.92549 47.2052 5.47317 46.3578 5.47317C45.2698 5.47317 44.5254 6.04988 44.2849 7.045H48.3161Z" fill="#005A28"/>
<path d="M60.238 7.78031C60.238 10.1098 58.4973 11.8965 56.3786 11.8965C55.222 11.8965 54.386 11.4781 53.8134 10.7544V14.7914H51.7749V3.879H53.8134V4.79496C54.386 4.07123 55.222 3.65283 56.3786 3.65283C58.4973 3.66414 60.238 5.45083 60.238 7.78031ZM58.1995 7.78031C58.1995 6.46856 57.2604 5.57522 56.0007 5.57522C54.7524 5.57522 53.8248 6.46856 53.8248 7.78031C53.8248 9.09205 54.7524 9.9854 56.0007 9.9854C57.2604 9.9854 58.1995 9.09205 58.1995 7.78031Z" fill="#005A28"/>
<path d="M65.6316 10.0756C66.4218 10.0756 67.0516 9.74765 67.4067 9.29532L69.0558 10.2339C68.3114 11.2969 67.1318 11.9075 65.6087 11.9075C62.9518 11.9075 61.2798 10.1095 61.2798 7.79134C61.2798 5.46186 62.9747 3.67517 65.4484 3.67517C67.7846 3.67517 69.4451 5.50709 69.4451 7.79134C69.4451 8.08535 69.4108 8.35674 69.365 8.61683H63.4099C63.6847 9.63457 64.5551 10.0756 65.6316 10.0756ZM67.3952 7.045C67.1433 5.92549 66.2844 5.47317 65.4369 5.47317C64.3489 5.47317 63.6046 6.04988 63.3641 7.045H67.3952Z" fill="#005A28"/>
<path d="M88.2038 7.78031C88.2038 10.1098 86.4631 11.8965 84.3445 11.8965C83.1878 11.8965 82.3518 11.4781 81.7792 10.7544V14.7914H79.7407V3.879H81.7792V4.79496C82.3518 4.07123 83.1878 3.65283 84.3445 3.65283C86.4631 3.66414 88.2038 5.45083 88.2038 7.78031ZM86.1653 7.78031C86.1653 6.46856 85.2263 5.57522 83.9665 5.57522C82.7183 5.57522 81.7906 6.46856 81.7906 7.78031C81.7906 9.09205 82.7183 9.9854 83.9665 9.9854C85.2263 9.9854 86.1653 9.09205 86.1653 7.78031Z" fill="#005A28"/>
<path d="M93.5979 10.0761C94.3881 10.0761 95.0179 9.74814 95.373 9.29581L97.0221 10.2344C96.2777 11.2974 95.0981 11.908 93.575 11.908C90.9181 11.908 89.2461 10.11 89.2461 7.79183C89.2461 5.46235 90.941 3.67566 93.4147 3.67566C95.7509 3.67566 97.4114 5.50758 97.4114 7.79183C97.4114 8.08584 97.3771 8.35723 97.3313 8.61732H91.3762C91.651 9.63505 92.5214 10.0761 93.5979 10.0761ZM90.7349 2.00205C90.7349 1.42534 91.2273 0.939087 91.8114 0.939087C92.3954 0.939087 92.865 1.42534 92.865 2.00205C92.865 2.57877 92.3954 3.05371 91.8114 3.05371C91.2273 3.05371 90.7349 2.57877 90.7349 2.00205ZM95.3615 7.04549C95.1096 5.92598 94.2507 5.47366 93.4032 5.47366C92.3153 5.47366 91.5709 6.05037 91.3304 7.04549H95.3615ZM93.7353 2.00205C93.7353 1.42534 94.2278 0.939087 94.8118 0.939087C95.3959 0.939087 95.8769 1.42534 95.8769 2.00205C95.8769 2.57877 95.4073 3.05371 94.8118 3.05371C94.2278 3.05371 93.7353 2.57877 93.7353 2.00205Z" fill="#005A28"/>
<path d="M98.3618 7.78035C98.3618 5.45087 100.137 3.66418 102.53 3.66418C104.076 3.66418 105.428 4.47837 106.069 5.67704L104.317 6.69477C103.996 6.0502 103.321 5.65442 102.519 5.65442C101.305 5.65442 100.4 6.54776 100.4 7.79166C100.4 9.02425 101.305 9.91759 102.519 9.91759C103.343 9.91759 104.019 9.52181 104.34 8.88855L106.115 9.88367C105.439 11.1049 104.088 11.9078 102.542 11.9078C100.125 11.8965 98.3618 10.1098 98.3618 7.78035Z" fill="#005A28"/>
<path d="M114.669 7.78035C114.669 5.45087 116.513 3.66418 118.838 3.66418C121.163 3.66418 123.029 5.46218 123.029 7.78035C123.029 10.1098 121.163 11.8965 118.838 11.8965C116.525 11.8965 114.669 10.1098 114.669 7.78035ZM120.991 7.78035C120.991 6.51384 120.063 5.6318 118.838 5.6318C117.636 5.6318 116.708 6.52515 116.708 7.78035C116.708 9.04686 117.636 9.94021 118.838 9.94021C120.063 9.94021 120.991 9.04686 120.991 7.78035Z" fill="#005A28"/>
<path d="M76.0416 11.6817H78.4121L75.3773 7.73511L78.3091 3.87903H75.8812L73.6023 7.04531H72.9037V3.87903H70.8652V11.6817H72.9037V8.60584H73.7512L76.0416 11.6817Z" fill="#005A28"/>
<path d="M129.259 3.87903L126.98 7.04531H126.282V3.87903H124.243V11.6817H126.282V8.60584H127.141L129.42 11.6817H131.79L128.767 7.73511L131.698 3.87903H129.259Z" fill="#005A28"/>
<path d="M40.8382 11.6818H38.6623V2.96325H34.7572V11.6818H32.5698V0.939087H40.8382V11.6818Z" fill="#005A28"/>
<path d="M16.7772 8.28888L13.2957 11.7266L9.8143 8.28888C7.89035 6.38911 7.89035 3.31329 9.8143 1.42483C11.7383 -0.474942 14.8532 -0.474942 16.7772 1.42483C18.7011 3.3246 18.7011 6.40041 16.7772 8.28888Z" fill="#5FAF2D"/>
<path d="M9.81429 17.9462L13.2957 14.5085L16.7772 17.9462C18.7011 19.846 18.7011 22.9218 16.7772 24.8216C14.8532 26.7213 11.7382 26.7213 9.82574 24.8216C7.90179 22.9218 7.90179 19.846 9.81429 17.9462Z" fill="#005A28"/>
<path d="M18.1858 16.5553L14.7043 13.1176L18.1858 9.67995C20.1097 7.78018 23.2247 7.78018 25.1486 9.67995C27.0726 11.5797 27.0726 14.6555 25.1486 16.5553C23.2247 18.4551 20.1097 18.4551 18.1858 16.5553Z" fill="#1E8737"/>
<path d="M8.40583 9.67965L11.8873 13.1173L8.40583 16.555C6.48188 18.4548 3.36691 18.4548 1.44296 16.555C-0.480988 14.6552 -0.480988 11.5794 1.44296 9.67965C3.37837 7.79119 6.49333 7.79119 8.40583 9.67965Z" fill="#AAE641"/>
</svg>
