<svg width="197" height="68" viewBox="0 0 197 68" fill="none" xmlns="http://www.w3.org/2000/svg">
<g filter="url(#filter0_d)">
<rect x="6" y="3" width="185" height="56" rx="28" fill="white"/>
</g>
<path d="M133.197 34.8105H128.545V36.1028H130.201V39.9999H131.551V36.1028H133.197V34.8105Z" fill="#5FAF2D"/>
<path d="M68.8843 37.405C68.8843 35.8603 70.0602 34.6689 71.6554 34.6689C72.6881 34.6689 73.5778 35.204 74.0072 36.0117L72.8415 36.6882C72.6268 36.2641 72.1769 35.9915 71.6451 35.9915C70.8373 35.9915 70.234 36.5872 70.234 37.4151C70.234 38.2329 70.8373 38.8285 71.6451 38.8285C72.1871 38.8285 72.6472 38.566 72.8517 38.142L74.0277 38.8083C73.5778 39.616 72.6881 40.1511 71.6554 40.1511C70.0602 40.141 68.8843 38.9497 68.8843 37.405Z" fill="#5FAF2D"/>
<path d="M79.6622 34.8105L77.75 39.9999C77.2081 41.4941 76.2366 42.1504 74.9789 42.0696V40.8278C75.6947 40.8379 76.073 40.5855 76.3185 39.9393L74.2018 34.8206H75.6436L77.0547 38.3038L78.2204 34.8206H79.6622V34.8105Z" fill="#5FAF2D"/>
<path d="M85.1008 39.9999H83.7408V36.0625H81.6548V39.9999H80.2948V34.8105H85.1008V39.9999Z" fill="#5FAF2D"/>
<path d="M88.7509 38.9296C89.2724 38.9296 89.6916 38.7075 89.9268 38.4147L91.0209 39.0407C90.5301 39.7474 89.7427 40.1513 88.7304 40.1513C86.9614 40.1513 85.8571 38.9599 85.8571 37.4152C85.8571 35.8705 86.9819 34.6792 88.6282 34.6792C90.1824 34.6792 91.2868 35.8907 91.2868 37.4152C91.2868 37.6172 91.2663 37.7888 91.2356 37.9604H87.2784C87.4625 38.6369 88.0351 38.9296 88.7509 38.9296ZM89.9268 36.9205C89.7632 36.1734 89.1906 35.8705 88.6282 35.8705C87.9021 35.8705 87.4113 36.2542 87.2477 36.9205H89.9268Z" fill="#5FAF2D"/>
<path d="M97.6362 37.405C97.6362 38.9497 96.4808 40.141 95.0696 40.141C94.3027 40.141 93.7506 39.8583 93.3722 39.3838V42.0694H92.0225V34.8103H93.3722V35.4262C93.7506 34.9516 94.313 34.6689 95.0696 34.6689C96.4808 34.6689 97.6362 35.8603 97.6362 37.405ZM96.2865 37.405C96.2865 36.5367 95.6627 35.9411 94.8242 35.9411C93.996 35.9411 93.3722 36.5367 93.3722 37.405C93.3722 38.2732 93.996 38.8689 94.8242 38.8689C95.6627 38.8689 96.2865 38.2732 96.2865 37.405Z" fill="#5FAF2D"/>
<path d="M103.842 39.9999H102.534V36.9711L101.194 39.0408H101.03L99.6807 36.9509V39.9999H98.3821V34.8105H99.7114L101.112 36.9913L102.513 34.8105H103.842V39.9999Z" fill="#5FAF2D"/>
<path d="M110.223 34.8103V39.9997H108.863V39.3838C108.484 39.8482 107.922 40.141 107.155 40.141C105.754 40.141 104.599 38.9497 104.599 37.405C104.599 35.8603 105.754 34.6689 107.155 34.6689C107.922 34.6689 108.484 34.9617 108.863 35.4262V34.8103H110.223ZM108.863 37.405C108.863 36.5367 108.239 35.9411 107.401 35.9411C106.572 35.9411 105.949 36.5367 105.949 37.405C105.949 38.2732 106.572 38.8689 107.401 38.8689C108.239 38.8689 108.863 38.2732 108.863 37.405Z" fill="#5FAF2D"/>
<path d="M116.859 37.405C116.859 38.9497 115.703 40.141 114.292 40.141C113.525 40.141 112.973 39.8583 112.595 39.3838V42.0694H111.245V34.8103H112.595V35.4262C112.973 34.9516 113.535 34.6689 114.292 34.6689C115.703 34.6689 116.859 35.8603 116.859 37.405ZM115.499 37.405C115.499 36.5367 114.875 35.9411 114.036 35.9411C113.208 35.9411 112.584 36.5367 112.584 37.405C112.584 38.2732 113.208 38.8689 114.036 38.8689C114.875 38.8689 115.499 38.2732 115.499 37.405Z" fill="#5FAF2D"/>
<path d="M125.59 38.9296C126.111 38.9296 126.531 38.7075 126.766 38.4147L127.86 39.0407C127.369 39.7474 126.582 40.1513 125.569 40.1513C123.8 40.1513 122.696 38.9599 122.696 37.4152C122.696 35.8705 123.821 34.6792 125.467 34.6792C127.021 34.6792 128.126 35.8907 128.126 37.4152C128.126 37.6172 128.105 37.7888 128.075 37.9604H124.117C124.291 38.6369 124.874 38.9296 125.59 38.9296ZM126.766 36.9205C126.602 36.1734 126.03 35.8705 125.467 35.8705C124.741 35.8705 124.25 36.2542 124.087 36.9205H126.766Z" fill="#5FAF2D"/>
<path d="M121.04 39.9999H122.615L120.6 37.3749L122.553 34.8105H120.938L119.414 36.9206H118.954V34.8105H117.604V39.9999H118.954V37.9504H119.516L121.04 39.9999Z" fill="#5FAF2D"/>
<path d="M141.785 22.4631H135.538V24.1896H137.746V29.4294H139.566V24.1896H141.785V22.4631Z" fill="#005A28"/>
<path d="M81.5521 27.9954C82.2576 27.9954 82.8199 27.7026 83.1369 27.2988L84.6092 28.1367C83.9447 29.0858 82.8915 29.6309 81.5316 29.6309C79.1595 29.6309 77.6667 28.0257 77.6667 25.956C77.6667 23.8762 79.18 22.281 81.3885 22.281C83.4743 22.281 84.9569 23.9166 84.9569 25.956C84.9569 26.2185 84.9262 26.4608 84.8853 26.693H79.5685C79.8139 27.6016 80.591 27.9954 81.5521 27.9954ZM83.1369 25.2896C82.912 24.2901 82.1451 23.8863 81.3885 23.8863C80.4172 23.8863 79.7526 24.4012 79.5379 25.2896H83.1369Z" fill="#005A28"/>
<path d="M93.7811 25.9463C93.7811 28.0261 92.2269 29.6213 90.3354 29.6213C89.3027 29.6213 88.5563 29.2477 88.0451 28.6016V32.2059H86.2251V22.4632H88.0451V23.2809C88.5563 22.6348 89.3027 22.2612 90.3354 22.2612C92.2269 22.2713 93.7811 23.8665 93.7811 25.9463ZM91.9611 25.9463C91.9611 24.7752 91.1227 23.9776 89.998 23.9776C88.8835 23.9776 88.0553 24.7752 88.0553 25.9463C88.0553 27.1174 88.8835 27.915 89.998 27.915C91.1227 27.915 91.9611 27.1174 91.9611 25.9463Z" fill="#005A28"/>
<path d="M98.5963 27.9954C99.3018 27.9954 99.8641 27.7026 100.181 27.2988L101.653 28.1367C100.989 29.0858 99.9357 29.6309 98.5758 29.6309C96.2037 29.6309 94.7109 28.0257 94.7109 25.956C94.7109 23.8762 96.2242 22.281 98.4327 22.281C100.519 22.281 102.001 23.9166 102.001 25.956C102.001 26.2185 101.97 26.4608 101.93 26.693H96.6127C96.8581 27.6016 97.6352 27.9954 98.5963 27.9954ZM100.171 25.2896C99.9459 24.2901 99.1791 23.8863 98.4225 23.8863C97.4511 23.8863 96.7865 24.4012 96.5718 25.2896H100.171Z" fill="#005A28"/>
<path d="M118.749 25.9463C118.749 28.0261 117.195 29.6213 115.304 29.6213C114.271 29.6213 113.525 29.2477 113.013 28.6016V32.2059H111.193V22.4632H113.013V23.2809C113.525 22.6348 114.271 22.2612 115.304 22.2612C117.195 22.2713 118.749 23.8665 118.749 25.9463ZM116.929 25.9463C116.929 24.7752 116.091 23.9776 114.966 23.9776C113.852 23.9776 113.024 24.7752 113.024 25.9463C113.024 27.1174 113.852 27.915 114.966 27.915C116.091 27.915 116.929 27.1174 116.929 25.9463Z" fill="#005A28"/>
<path d="M123.565 27.996C124.271 27.996 124.833 27.7032 125.15 27.2994L126.622 28.1373C125.958 29.0864 124.904 29.6316 123.545 29.6316C121.172 29.6316 119.68 28.0263 119.68 25.9566C119.68 23.8768 121.193 22.2816 123.401 22.2816C125.487 22.2816 126.97 23.9172 126.97 25.9566C126.97 26.2191 126.939 26.4614 126.898 26.6936H121.581C121.827 27.6023 122.604 27.996 123.565 27.996ZM121.009 20.7874C121.009 20.2725 121.449 19.8384 121.97 19.8384C122.491 19.8384 122.911 20.2725 122.911 20.7874C122.911 21.3023 122.491 21.7263 121.97 21.7263C121.449 21.7263 121.009 21.3023 121.009 20.7874ZM125.14 25.2903C124.915 24.2907 124.148 23.8869 123.391 23.8869C122.42 23.8869 121.755 24.4018 121.541 25.2903H125.14ZM123.688 20.7874C123.688 20.2725 124.127 19.8384 124.649 19.8384C125.17 19.8384 125.6 20.2725 125.6 20.7874C125.6 21.3023 125.181 21.7263 124.649 21.7263C124.127 21.7263 123.688 21.3023 123.688 20.7874Z" fill="#005A28"/>
<path d="M127.818 25.9462C127.818 23.8664 129.403 22.2712 131.54 22.2712C132.92 22.2712 134.127 22.9982 134.7 24.0683L133.135 24.977C132.849 24.4015 132.246 24.0481 131.53 24.0481C130.446 24.0481 129.638 24.8457 129.638 25.9563C129.638 27.0568 130.446 27.8544 131.53 27.8544C132.266 27.8544 132.869 27.501 133.156 26.9356L134.74 27.8241C134.137 28.9145 132.931 29.6313 131.55 29.6313C129.393 29.6212 127.818 28.026 127.818 25.9462Z" fill="#005A28"/>
<path d="M142.378 25.9462C142.378 23.8664 144.024 22.2712 146.1 22.2712C148.175 22.2712 149.842 23.8765 149.842 25.9462C149.842 28.026 148.175 29.6212 146.1 29.6212C144.035 29.6212 142.378 28.026 142.378 25.9462ZM148.022 25.9462C148.022 24.8154 147.194 24.028 146.1 24.028C145.026 24.028 144.198 24.8255 144.198 25.9462C144.198 27.077 145.026 27.8746 146.1 27.8746C147.194 27.8746 148.022 27.077 148.022 25.9462Z" fill="#005A28"/>
<path d="M107.891 29.4294H110.007L107.298 25.9059L109.915 22.4631H107.748L105.713 25.29H105.089V22.4631H103.269V29.4294H105.089V26.6833H105.846L107.891 29.4294Z" fill="#005A28"/>
<path d="M155.404 22.4631L153.369 25.29H152.746V22.4631H150.926V29.4294H152.746V26.6833H153.512L155.547 29.4294H157.664L154.964 25.9059L157.582 22.4631H155.404Z" fill="#005A28"/>
<path d="M76.4609 29.4296H74.5182V21.6456H71.0316V29.4296H69.0787V19.8384H76.4609V29.4296Z" fill="#005A28"/>
<path d="M54.9787 26.4004L51.8704 29.4696L48.7622 26.4004C47.0444 24.7043 47.0444 21.9581 48.7622 20.2721C50.4799 18.576 53.261 18.576 54.9787 20.2721C56.6964 21.9682 56.6964 24.7144 54.9787 26.4004Z" fill="#5FAF2D"/>
<path d="M48.7625 35.0226L51.8708 31.9534L54.979 35.0226C56.6968 36.7187 56.6968 39.4648 54.979 41.161C53.2613 42.8571 50.4802 42.8571 48.7727 41.161C47.055 39.4648 47.055 36.7187 48.7625 35.0226Z" fill="#005A28"/>
<path d="M56.2367 33.7806L53.1284 30.7114L56.2367 27.6422C57.9544 25.9461 60.7355 25.9461 62.4532 27.6422C64.171 29.3384 64.171 32.0845 62.4532 33.7806C60.7355 35.4768 57.9544 35.4768 56.2367 33.7806Z" fill="#1E8737"/>
<path d="M47.5048 27.642L50.6131 30.7112L47.5048 33.7804C45.7871 35.4765 43.006 35.4765 41.2883 33.7804C39.5706 32.0842 39.5706 29.3381 41.2883 27.642C43.0162 25.9559 45.7973 25.9559 47.5048 27.642Z" fill="#AAE641"/>
<defs>
<filter id="filter0_d" x="0" y="0" width="197" height="68" filterUnits="userSpaceOnUse" color-interpolation-filters="sRGB">
<feFlood flood-opacity="0" result="BackgroundImageFix"/>
<feColorMatrix in="SourceAlpha" type="matrix" values="0 0 0 0 0 0 0 0 0 0 0 0 0 0 0 0 0 0 127 0"/>
<feOffset dy="3"/>
<feGaussianBlur stdDeviation="3"/>
<feColorMatrix type="matrix" values="0 0 0 0 0.340009 0 0 0 0 0.134184 0 0 0 0 0.545833 0 0 0 0.36 0"/>
<feBlend mode="normal" in2="BackgroundImageFix" result="effect1_dropShadow"/>
<feBlend mode="normal" in="SourceGraphic" in2="effect1_dropShadow" result="shape"/>
</filter>
</defs>
</svg>
