<svg width="293" height="93" viewBox="0 0 293 93" fill="none" xmlns="http://www.w3.org/2000/svg">
<g filter="url(#filter0_d)">
<path d="M149.409 76.6771C145.156 76.6771 141.229 75.6955 137.957 74.0594C137.303 73.7322 136.648 73.405 135.667 72.7506C133.703 73.0778 131.74 73.405 129.777 73.405C128.468 73.405 126.832 73.0778 125.523 72.7506C123.56 72.4234 121.597 71.4418 120.288 70.4601C117.67 72.0962 114.071 73.405 109.163 73.405C107.527 73.405 106.218 73.0778 104.582 72.7506C101.31 71.769 98.3648 69.8057 96.4015 67.5153C96.0743 67.5153 95.4199 67.5153 95.0927 67.5153C90.5118 67.5153 86.5852 66.5336 82.6587 64.5704C81.0227 65.552 79.7139 66.2064 78.0778 66.5336C76.769 71.4418 73.1697 75.0411 67.9343 76.3499C66.9527 76.6771 65.9711 76.6771 65.3167 76.6771H56.1548C53.2099 76.6771 50.5923 75.6955 48.3018 74.0594C46.0113 72.0962 44.0481 69.4785 43.3937 66.5336H42.4121C41.1032 66.5336 39.4672 66.2064 38.1583 65.8792C37.8311 65.8792 37.5039 66.2064 37.1767 66.2064C36.1951 66.5336 34.8862 66.5336 33.9046 66.5336H24.4156C17.217 66.5336 11 60.3167 11 53.1181V21.0516C11 15.1618 15.2537 9.5993 21.1435 7.96325C25.3972 6.65442 30.9597 6 38.1583 6C45.3569 6 50.9195 6.65442 55.5004 7.96325C57.1364 8.29046 58.4453 8.94488 59.7541 9.92651C62.0446 11.5626 63.6806 14.1802 64.6623 16.7979C64.9895 16.7979 65.3167 17.1251 65.6439 17.1251C67.6071 16.4707 69.8976 15.8163 72.5153 15.8163C76.1146 16.1435 79.7139 17.1251 82.9859 19.0884C86.5852 17.1251 90.5118 16.1435 95.0927 16.1435C99.3464 16.1435 103.273 17.1251 106.872 18.7611C108.181 18.1067 109.163 17.4523 110.471 17.1251C114.725 16.1435 118.979 15.8163 123.233 15.8163C127.159 15.8163 131.413 16.1435 135.339 17.1251C137.303 16.4707 139.266 16.1435 141.556 16.1435C144.174 16.1435 146.792 16.7979 149.082 17.4523C149.409 17.4523 149.409 17.4523 149.737 17.1251C150.718 16.7979 151.7 16.7979 152.681 16.7979H161.516C161.843 16.7979 162.17 16.7979 162.17 16.7979C164.134 16.1435 166.424 15.8163 168.387 15.8163C171.332 15.8163 173.95 16.4707 176.24 17.4523C178.858 16.4707 181.476 15.8163 184.421 15.8163C186.384 15.8163 188.347 16.1435 190.31 16.7979C192.274 16.1435 193.91 15.8163 195.873 15.8163C198.491 15.8163 201.108 16.4707 203.726 17.4523C204.053 17.4523 204.053 17.4523 204.38 17.1251C205.362 16.7979 206.344 16.7979 207.325 16.7979H216.16C216.487 16.7979 217.142 16.7979 217.469 16.7979C219.432 16.1435 221.395 15.8163 223.686 15.8163C226.303 15.8163 228.921 16.1435 231.212 17.1251C232.52 16.7979 233.502 16.4707 234.811 16.4707H243.973C244.954 16.4707 245.936 16.4707 246.918 16.7979C247.245 16.7979 247.572 17.1251 247.899 17.1251C250.844 16.1435 254.443 15.4891 258.043 15.4891C260.333 15.4891 262.624 15.4891 264.914 15.8163C266.877 16.1435 268.841 16.1435 270.149 16.4707L271.458 16.7979C277.675 17.7795 282.583 23.3421 282.583 29.8862V52.4637C282.583 58.3534 278.33 63.916 272.767 65.2248C271.785 65.552 270.477 65.552 269.495 65.552H260.66C259.679 65.552 258.697 65.552 257.715 65.2248C257.061 65.552 256.079 65.8792 255.425 65.8792C252.48 66.5336 249.862 66.8608 246.918 66.8608C246.263 66.8608 245.936 66.8608 245.282 66.8608C242.009 66.8608 238.737 66.2064 235.792 64.8976C233.502 65.8792 230.884 66.5336 228.267 66.5336L227.939 66.8608C225.322 69.4785 220.741 72.4234 213.542 72.4234C212.233 72.4234 210.597 72.0962 208.961 71.769C205.362 70.7873 202.417 68.8241 200.781 66.2064C197.836 66.2064 194.891 65.552 191.946 65.2248C189.656 65.8792 187.366 66.5336 185.075 66.5336C182.457 66.5336 179.84 66.2064 177.549 65.2248C176.895 65.2248 175.913 65.552 175.259 65.552H170.678C170.023 66.2064 169.696 67.188 169.042 67.5153C165.443 72.0962 159.553 76.6771 149.409 76.6771ZM94.111 47.5555C94.7655 44.2834 96.4015 41.3386 99.0192 39.0481V38.7209C99.0192 38.7209 99.0192 38.0665 99.3464 37.0848C98.0376 36.4304 96.4015 36.1032 95.0927 36.1032C94.7655 36.1032 94.4383 36.1032 93.7838 36.1032C94.111 38.0665 94.4383 39.7025 94.4383 41.6658C94.4383 43.629 94.111 45.5923 94.111 47.5555C93.7838 47.5555 94.111 47.5555 94.111 47.5555Z" fill="white"/>
<path d="M99.3468 59.9894C109.286 59.9894 117.343 52.5181 117.343 43.3018C117.343 34.0854 109.286 26.6141 99.3468 26.6141C89.4076 26.6141 81.3503 34.0854 81.3503 43.3018C81.3503 52.5181 89.4076 59.9894 99.3468 59.9894Z" fill="white"/>
<path d="M51.9006 20.3977C52.2278 20.7249 52.2278 20.7249 51.9006 20.3977V52.7914C51.9006 52.7914 51.9006 53.1186 51.5734 53.1186H42.4116H42.0844V25.9603H33.9042V52.7914C33.9042 52.7914 33.9042 53.1186 33.5769 53.1186H24.4151C24.4151 53.1186 24.0879 53.1186 24.0879 52.7914V20.3977C24.0879 20.3977 24.0879 20.0705 24.4151 20.0705C27.6872 19.7433 32.2681 19.0889 38.1579 19.0889C43.7204 19.0889 48.3013 19.4161 51.9006 20.3977ZM72.1876 29.2323C74.8053 29.2323 77.0957 30.5412 78.7318 33.1588C80.3678 35.7765 81.0222 38.7214 81.0222 41.9935C81.0222 45.2656 80.0406 48.2105 78.7318 50.8281C77.0957 53.4458 74.8053 54.4274 71.8604 54.4274C68.9155 54.4274 66.625 53.1186 64.989 50.1737V63.5893C64.989 63.5893 64.989 63.9165 64.6618 63.9165H55.4999H55.1727C55.1727 50.1737 55.1727 42.3207 55.1727 40.3574C55.1727 38.7214 55.1727 37.4126 54.8455 36.4309C54.5183 35.4493 54.1911 34.7949 53.8639 34.4677C53.5367 34.1405 53.2095 34.1405 52.8823 33.8133C52.5551 33.4861 52.5551 33.4861 52.5551 33.1588C52.8823 32.5044 53.5367 31.5228 54.5183 30.8684C55.4999 30.214 56.8088 29.8868 58.1176 29.8868C59.7537 29.8868 61.0625 30.214 62.0441 31.1956C63.0257 32.1772 64.0074 33.4861 64.3346 35.1221C66.9522 30.8684 69.2427 29.2323 72.1876 29.2323ZM65.9706 46.2472C66.625 47.556 67.2795 47.8832 68.5883 47.8832C69.5699 47.8832 70.5515 47.2288 71.206 46.2472C71.8604 44.9384 72.1876 43.6295 72.1876 41.6663C72.1876 39.703 71.8604 38.3942 71.206 37.0854C70.2243 36.1037 69.5699 35.4493 68.5883 35.4493C67.6067 35.4493 66.625 36.1037 65.9706 37.0854C65.3162 38.3942 64.989 39.703 64.989 41.6663C64.989 43.6295 65.3162 44.9384 65.9706 46.2472ZM107.853 41.9935C107.853 45.5928 106.545 48.5377 104.254 50.8281C101.964 53.1186 98.6915 54.4274 95.0922 54.4274C91.4929 54.4274 88.2208 53.1186 85.9304 50.8281C83.6399 48.5377 82.3311 45.5928 82.3311 41.9935C82.3311 38.3942 83.6399 35.4493 85.9304 33.1588C88.2208 30.8684 91.4929 29.5596 95.0922 29.5596C98.6915 29.5596 101.964 30.8684 104.254 33.1588C106.545 35.4493 107.853 38.3942 107.853 41.9935ZM91.1657 41.9935C91.1657 43.9567 91.4929 45.92 92.1473 47.2288C92.8017 48.5377 93.7834 49.1921 95.0922 49.1921C96.401 49.1921 97.3827 48.5377 98.0371 47.2288C98.6915 45.92 99.0187 44.2839 99.0187 41.9935C99.0187 40.0302 98.6915 38.067 98.0371 36.7581C97.3827 35.4493 96.401 34.7949 95.0922 34.7949C93.7834 34.7949 92.8017 35.4493 92.1473 36.7581C91.4929 38.067 91.1657 39.703 91.1657 41.9935ZM136.975 52.7914C136.975 57.6995 134.684 60.3172 129.776 60.3172C129.449 60.3172 128.795 60.3172 128.468 59.99C127.813 59.99 127.813 59.6628 127.813 59.3356V53.1186H116.361V53.4458C116.361 53.773 116.361 53.773 116.361 53.773C116.361 55.7363 115.706 57.3723 114.398 58.3539C113.089 59.3356 111.453 59.99 109.162 59.99C108.835 59.99 108.181 59.99 107.853 59.6628C107.526 59.3356 107.199 59.3356 107.199 59.0084V49.1921C107.199 49.1921 107.199 48.8649 107.526 48.5377C107.853 48.2105 108.181 48.2105 108.508 47.8832C108.835 47.556 109.489 46.9016 110.144 45.92C110.798 44.9384 111.125 43.6295 111.78 41.6663C112.107 40.6847 112.434 39.0486 112.761 37.0854C113.089 35.1221 113.089 33.4861 113.416 32.1772L113.743 30.214C113.743 30.214 113.743 29.8868 114.07 29.8868C120.287 28.5779 127.159 28.5779 134.03 29.8868C134.03 29.8868 134.03 29.8868 134.03 30.214V47.556H137.302C137.302 47.556 137.302 47.556 137.302 47.8832V52.7914H136.975ZM124.214 34.4677H120.614C120.287 40.0302 119.633 43.9567 119.306 46.2472C119.306 46.9016 118.978 47.2288 118.978 47.556H124.214V34.4677ZM162.17 49.8465C162.17 53.773 161.188 57.0451 159.225 59.6628C157.262 62.2804 153.663 63.2621 149.736 63.2621C147.773 63.2621 145.81 62.9349 144.174 61.9532C142.537 60.9716 141.556 60.3172 140.574 59.3356C139.593 58.3539 139.265 57.6995 139.265 57.0451C138.938 56.3907 138.938 55.7363 138.938 55.409C138.938 55.0818 138.938 54.7546 138.938 54.7546H139.265C139.593 54.7546 139.92 55.0818 140.247 55.409C140.574 55.7363 141.229 56.0635 141.556 56.7179C141.883 57.0451 142.865 57.6995 143.846 58.0267C144.828 58.3539 145.81 58.6811 147.118 58.6811C148.754 58.6811 150.391 58.0267 151.372 57.0451C152.354 55.7363 153.008 54.4274 153.008 53.1186V48.5377C152.027 50.5009 151.045 51.8098 149.736 52.4642C148.427 53.4458 147.118 53.773 145.482 53.773C143.846 53.773 142.21 53.1186 140.901 51.8098C139.593 50.5009 138.938 48.5377 138.938 46.2472V40.0302C138.938 38.7214 138.938 37.4126 138.611 36.7581C138.284 35.7765 137.957 35.1221 137.629 34.7949C137.302 34.4677 136.975 34.1405 136.648 34.1405C136.321 33.8133 135.993 33.8133 135.993 33.8133C135.666 33.8133 135.666 33.4861 135.993 33.4861C136.321 32.8316 136.975 31.85 137.957 31.1956C138.938 30.5412 140.247 30.214 141.556 30.214C143.519 30.214 145.155 30.8684 146.464 32.1772C147.773 32.5044 148.427 34.1405 148.427 36.4309V44.2839C148.427 45.92 148.754 46.9016 149.736 46.9016C150.718 46.9016 151.372 46.5744 152.027 45.2656C152.681 44.2839 152.681 43.3023 153.008 41.6663V30.5412C153.008 30.5412 153.008 30.214 153.335 30.214H162.17C162.17 30.214 162.497 30.214 162.497 30.5412C161.843 39.3758 162.17 45.92 162.17 49.8465ZM190.637 50.1737C190.964 50.5009 191.292 50.5009 191.292 50.8281C191.292 51.1553 191.292 51.4825 190.637 51.8098C189.983 52.4642 189.328 53.1186 188.02 53.4458C187.038 54.1002 185.729 54.1002 184.747 54.1002C183.111 54.1002 181.475 53.773 180.494 53.1186C179.512 52.4642 178.53 51.4825 178.203 50.5009C177.876 49.5193 177.549 48.5377 177.222 47.2288C176.894 46.2472 176.567 45.2656 176.567 44.6112C176.567 43.9567 175.913 43.3023 175.258 43.3023V52.7914L174.931 53.1186H165.769C165.769 53.1186 165.442 53.1186 165.442 52.7914C165.769 45.92 165.769 41.3391 165.769 39.0486C165.769 37.4126 165.769 36.1037 165.442 35.1221C165.115 34.1405 164.788 33.4861 164.46 33.1588C164.133 32.8316 163.806 32.8316 163.479 32.5044C163.152 32.1772 163.152 32.1772 163.152 31.85C163.479 31.1956 164.133 30.214 165.115 29.5596C166.097 28.9051 167.405 28.5779 168.714 28.5779C170.677 28.5779 171.986 29.2323 173.295 30.5412C174.604 31.85 174.931 33.4861 174.931 35.4493V39.3758C174.931 39.3758 174.931 39.3758 175.258 39.3758C175.258 39.3758 175.258 39.3758 175.586 39.3758C175.586 38.7214 175.913 37.7398 176.24 37.0854C176.567 36.4309 176.894 35.1221 177.549 34.1405C178.203 33.1588 178.53 32.1772 179.185 31.5228C179.839 30.8684 180.821 30.214 181.803 29.5596C182.784 28.9051 183.766 28.9051 185.075 28.9051C186.711 28.9051 188.02 29.2323 189.328 30.214C190.637 31.1956 190.964 32.5044 190.964 33.8133C190.964 35.4493 190.637 36.4309 189.656 37.4126C188.674 38.3942 187.365 38.7214 186.056 38.7214C185.402 38.7214 184.747 38.7214 184.42 38.3942C184.093 38.067 183.766 38.067 183.766 37.7398V37.4126C183.766 37.0854 183.766 36.7581 183.766 36.7581C183.766 36.4309 183.766 36.4309 183.766 36.1037C183.766 35.7765 183.439 35.7765 183.439 35.4493C183.111 35.4493 183.111 35.1221 182.784 35.1221C182.13 35.1221 181.475 35.4493 180.821 36.1037C180.494 37.0854 180.167 37.7398 180.167 38.7214C182.13 38.3942 183.439 39.0486 184.42 40.3574C184.747 40.6847 185.402 41.6663 185.729 42.9751C186.383 44.2839 187.038 45.5928 187.692 46.5744C188.347 47.556 189.328 49.5193 190.637 50.1737ZM220.413 48.8649V53.1186C220.413 55.7363 219.759 57.3723 218.777 58.6811C217.796 59.99 215.832 60.3172 213.542 60.3172C213.215 60.3172 212.56 60.3172 212.233 59.99C211.579 59.99 211.579 59.6628 211.579 59.3356V53.4458C206.016 54.4274 200.126 54.1002 193.909 52.7914H193.582C193.582 45.92 193.582 41.3391 193.582 39.3758C193.582 37.7398 193.582 36.4309 193.255 35.4493C192.928 34.4677 192.6 33.8133 192.273 33.4861C191.946 33.1588 191.619 33.1588 191.292 32.8316C190.964 32.8316 190.637 32.8316 190.964 32.5044C191.292 31.85 191.946 30.8684 192.928 30.214C193.909 29.5596 195.218 29.2323 196.527 29.2323C198.49 29.2323 200.126 29.8868 201.108 31.1956C202.417 32.5044 202.744 34.1405 202.744 36.1037V48.5377H207.652V30.5412C207.652 30.5412 207.652 30.214 207.979 30.214H216.814C216.814 30.214 217.141 30.214 217.141 30.5412V48.5377L220.413 48.8649C220.413 48.5377 220.413 48.5377 220.413 48.8649ZM270.149 30.5412V53.1186C270.149 53.1186 270.149 53.4458 269.822 53.4458H260.987C260.987 53.4458 260.66 53.4458 260.66 53.1186V44.6112C260.333 44.6112 260.005 45.2656 260.005 45.92C259.678 46.5744 259.678 47.556 259.024 48.8649C258.697 50.1737 258.042 51.1553 257.061 52.137C256.079 53.1186 254.443 54.1002 252.48 54.4274C250.516 55.0818 248.226 55.0818 245.935 55.0818C243.645 55.0818 241.682 54.4274 239.719 53.4458C237.755 52.4642 236.446 51.1553 235.465 49.5193C234.483 51.4825 233.502 52.7914 232.193 53.4458C230.884 54.1002 229.575 54.7546 228.266 54.7546C226.63 54.7546 224.994 54.1002 223.685 52.7914C222.376 51.4825 221.722 49.5193 221.722 47.2288V40.0302C221.722 38.7214 221.722 37.4126 221.395 36.7581C221.068 35.7765 220.74 35.1221 220.413 34.7949C220.086 34.4677 219.759 34.1405 219.432 34.1405C219.104 33.8133 218.777 33.8133 218.777 33.8133C218.45 33.8133 218.45 33.4861 218.777 33.4861C219.104 32.8316 219.759 31.85 220.74 31.1956C221.722 30.5412 223.031 30.214 224.34 30.214C226.303 30.214 227.939 30.8684 229.248 32.1772C230.557 33.4861 231.211 35.1221 231.211 37.0854V45.2656C231.211 46.9016 231.538 47.8832 232.52 47.8832C233.174 47.8832 234.156 47.556 234.81 46.2472C235.138 45.2656 235.465 44.2839 235.465 42.9751V30.5412L235.792 30.214H244.954C244.954 30.214 245.281 30.214 245.281 30.5412C244.954 35.7765 244.954 41.0119 244.954 46.2472C244.954 48.5377 245.608 49.5193 246.917 49.5193C248.226 49.5193 249.862 48.2105 251.498 46.2472C252.152 45.5928 252.807 44.6112 253.134 43.6295C251.498 43.3023 250.189 42.3207 249.208 41.3391C248.226 40.0302 247.572 38.7214 247.572 37.0854C247.572 34.4677 248.553 32.8316 250.844 31.1956C253.134 29.8868 255.752 29.2323 258.697 29.2323C260.333 29.2323 262.296 29.2323 264.259 29.5596C266.222 29.8868 267.531 29.8868 268.513 30.214L270.149 30.5412C270.149 30.214 270.149 30.214 270.149 30.5412ZM259.351 34.1405C258.369 34.1405 257.715 34.4677 257.061 34.7949C256.733 35.4493 256.406 36.1037 256.406 37.0854C256.406 39.0486 257.388 40.0302 259.351 40.0302H260.66V34.1405C260.005 34.1405 259.678 34.1405 259.351 34.1405Z" fill="#695698"/>
</g>
<defs>
<filter id="filter0_d" x="0.695827" y="0.847914" width="292.192" height="91.2855" filterUnits="userSpaceOnUse" color-interpolation-filters="sRGB">
<feFlood flood-opacity="0" result="BackgroundImageFix"/>
<feColorMatrix in="SourceAlpha" type="matrix" values="0 0 0 0 0 0 0 0 0 0 0 0 0 0 0 0 0 0 127 0"/>
<feOffset dy="5.15209"/>
<feGaussianBlur stdDeviation="5.15209"/>
<feColorMatrix type="matrix" values="0 0 0 0 0.231373 0 0 0 0 0.172549 0 0 0 0 0.447059 0 0 0 0.31 0"/>
<feBlend mode="normal" in2="BackgroundImageFix" result="effect1_dropShadow"/>
<feBlend mode="normal" in="SourceGraphic" in2="effect1_dropShadow" result="shape"/>
</filter>
</defs>
</svg>
