<svg width="306" height="75" viewBox="0 0 306 75" fill="none" xmlns="http://www.w3.org/2000/svg">
<g clip-path="url(#clip0)">
<path fill-rule="evenodd" clip-rule="evenodd" d="M95.2797 61.7831C95.2797 61.7831 87.6307 53.9687 78.7619 57.4871C68.3118 61.6336 76.3809 70.7595 84.1549 68.1668C89.4021 66.4176 95.2797 61.7831 95.2797 61.7831Z" fill="#644F9A"/>
<path fill-rule="evenodd" clip-rule="evenodd" d="M95.8304 62.3192C95.8304 62.3192 85.3783 63.9752 80.0366 55.9565C73.7412 46.5122 85.242 44.062 90.1905 50.7018C92.5873 54.3056 94.4847 58.2138 95.8304 62.3192Z" fill="#644F9A"/>
</g>
<g clip-path="url(#clip1)">
<path fill-rule="evenodd" clip-rule="evenodd" d="M302.649 35.796C302.649 35.796 300.956 29.3295 295.181 28.5102C288.377 27.5454 289.896 34.8354 294.809 35.8144C298.124 36.4756 302.649 35.796 302.649 35.796Z" fill="#644F9A"/>
<path fill-rule="evenodd" clip-rule="evenodd" d="M302.779 36.2475C302.779 36.2475 296.728 33.9597 296.322 28.0838C295.841 21.1621 302.689 23.346 303.305 28.3706C303.485 31.0102 303.309 33.6601 302.779 36.2475Z" fill="#644F9A"/>
</g>
<g clip-path="url(#clip2)">
<path fill-rule="evenodd" clip-rule="evenodd" d="M15.822 12.025C15.822 12.025 12.0939 6.47675 6.37145 7.60471C-0.371385 8.93428 3.46329 15.3176 8.42468 14.6243C11.7734 14.1567 15.822 12.025 15.822 12.025Z" fill="#644F9A"/>
<path fill-rule="evenodd" clip-rule="evenodd" d="M16.0934 12.4085C16.0934 12.4085 9.62645 12.2408 7.30795 6.82645C4.57481 0.449071 11.7604 0.256091 13.996 4.79783C15.0357 7.23071 15.7413 9.79107 16.0934 12.4085Z" fill="#644F9A"/>
</g>
<g clip-path="url(#clip3)">
<path fill-rule="evenodd" clip-rule="evenodd" d="M207.897 37.7573C207.897 37.7573 208.181 31.0788 202.904 28.5966C196.684 25.672 195.991 33.0863 200.398 35.4677C203.372 37.0754 207.897 37.7573 207.897 37.7573Z" fill="#644F9A"/>
<path fill-rule="evenodd" clip-rule="evenodd" d="M207.889 38.227C207.889 38.227 202.779 34.2599 204.12 28.5246C205.697 21.7679 211.6 25.8704 210.709 30.8536C210.105 33.4294 209.156 35.91 207.889 38.227Z" fill="#644F9A"/>
</g>
<g clip-path="url(#clip4)">
<path fill-rule="evenodd" clip-rule="evenodd" d="M258.475 39.6858C258.475 39.6858 256.162 28.9272 246.724 27.1592C235.603 25.0766 237.57 37.177 245.579 39.145C250.984 40.474 258.475 39.6858 258.475 39.6858Z" fill="#644F9A"/>
<path fill-rule="evenodd" clip-rule="evenodd" d="M258.657 40.4374C258.657 40.4374 248.872 36.2341 248.631 26.5406C248.345 15.1217 259.449 19.2123 260.095 27.5209C260.2 31.8753 259.716 36.2206 258.657 40.4374Z" fill="#644F9A"/>
</g>
<g clip-path="url(#clip5)">
<path fill-rule="evenodd" clip-rule="evenodd" d="M53.5851 43.4243C53.5851 43.4243 50.4982 29.0715 37.9075 26.7129C23.0712 23.9346 25.6954 40.0775 36.38 42.7029C43.5912 44.4759 53.5851 43.4243 53.5851 43.4243Z" fill="#644F9A"/>
<path fill-rule="evenodd" clip-rule="evenodd" d="M53.827 44.4252C53.827 44.4252 40.7726 38.8176 40.452 25.8858C40.0698 10.6521 54.8838 16.1093 55.7458 27.1936C55.8855 33.0026 55.24 38.7996 53.827 44.4252Z" fill="#644F9A"/>
</g>
<g clip-path="url(#clip6)">
<path fill-rule="evenodd" clip-rule="evenodd" d="M157.378 70.9266C157.378 70.9266 158.93 55.9158 147.375 49.6026C133.758 42.1645 131.185 58.7777 140.792 64.7448C147.276 68.7732 157.378 70.9266 157.378 70.9266Z" fill="#644F9A"/>
<path fill-rule="evenodd" clip-rule="evenodd" d="M157.297 71.9802C157.297 71.9802 146.322 62.344 150.125 49.6026C154.601 34.5916 167.343 44.641 164.657 55.749C162.945 61.4712 160.468 66.9317 157.297 71.9802Z" fill="#644F9A"/>
</g>
<defs>
<clipPath id="clip0">
<rect width="21.7611" height="21.7611" fill="white" transform="matrix(-0.63798 0.770053 0.770053 0.63798 82.6719 44.1116)"/>
</clipPath>
<clipPath id="clip1">
<rect width="13.3025" height="13.3025" fill="white" transform="matrix(-0.935783 0.352577 0.352577 0.935783 301.31 22.5938)"/>
</clipPath>
<clipPath id="clip2">
<rect width="13.3025" height="13.3025" fill="white" transform="matrix(-0.767498 0.641052 0.641052 0.767498 10.21 0)"/>
</clipPath>
<clipPath id="clip3">
<rect width="13.3025" height="13.3025" fill="white" transform="matrix(-0.998101 0.0615977 0.0615977 0.998101 210.502 24.7455)"/>
</clipPath>
<clipPath id="clip4">
<rect width="21.8998" height="21.8998" fill="white" transform="matrix(-0.950466 0.31083 0.31083 0.950466 257.234 17.8747)"/>
</clipPath>
<clipPath id="clip5">
<rect width="29.2159" height="29.2159" fill="white" transform="matrix(-0.950466 0.31083 0.31083 0.950466 51.9297 14.3268)"/>
</clipPath>
<clipPath id="clip6">
<rect width="30.0315" height="30.0315" fill="white" transform="matrix(-0.999999 0.00121746 0.00121746 0.999999 165.022 41.9599)"/>
</clipPath>
</defs>
</svg>
