<svg width="306" height="75" viewBox="0 0 306 75" fill="none" xmlns="http://www.w3.org/2000/svg">
<g clip-path="url(#clip0)">
<path fill-rule="evenodd" clip-rule="evenodd" d="M210.72 62.0025C210.72 62.0025 218.369 54.1882 227.238 57.7066C237.688 61.8531 229.619 70.979 221.845 68.3863C216.598 66.6371 210.72 62.0025 210.72 62.0025Z" fill="#644F9A"/>
<path fill-rule="evenodd" clip-rule="evenodd" d="M210.17 62.5386C210.17 62.5386 220.622 64.1947 225.963 56.176C232.259 46.7317 220.758 44.2815 215.81 50.9213C213.413 54.525 211.515 58.4333 210.17 62.5386Z" fill="#644F9A"/>
</g>
<g clip-path="url(#clip1)">
<path fill-rule="evenodd" clip-rule="evenodd" d="M3.35079 36.0154C3.35079 36.0154 5.04404 29.549 10.8187 28.7297C17.6233 27.7648 16.1045 35.0549 11.1914 36.0339C7.87556 36.6951 3.35079 36.0154 3.35079 36.0154Z" fill="#644F9A"/>
<path fill-rule="evenodd" clip-rule="evenodd" d="M3.22085 36.4669C3.22085 36.4669 9.27189 34.1792 9.67823 28.3033C10.159 21.3816 3.31055 23.5655 2.69516 28.5901C2.51457 31.2297 2.69142 33.8796 3.22085 36.4669Z" fill="#644F9A"/>
</g>
<g clip-path="url(#clip2)">
<path fill-rule="evenodd" clip-rule="evenodd" d="M290.178 12.2445C290.178 12.2445 293.906 6.69623 299.629 7.8242C306.371 9.15376 302.537 15.5371 297.575 14.8437C294.227 14.3762 290.178 12.2445 290.178 12.2445Z" fill="#644F9A"/>
<path fill-rule="evenodd" clip-rule="evenodd" d="M289.907 12.628C289.907 12.628 296.374 12.4603 298.692 7.04594C301.425 0.668554 294.24 0.475573 292.004 5.01731C290.964 7.4502 290.259 10.0106 289.907 12.628Z" fill="#644F9A"/>
</g>
<g clip-path="url(#clip3)">
<path fill-rule="evenodd" clip-rule="evenodd" d="M98.1031 37.9767C98.1031 37.9767 97.8185 31.2983 103.096 28.816C109.316 25.8915 110.009 33.3058 105.602 35.6871C102.628 37.2948 98.1031 37.9767 98.1031 37.9767Z" fill="#644F9A"/>
<path fill-rule="evenodd" clip-rule="evenodd" d="M98.1112 38.4465C98.1112 38.4465 103.221 34.4794 101.88 28.7441C100.303 21.9874 94.4004 26.0899 95.2909 31.0731C95.895 33.6489 96.8438 36.1295 98.1112 38.4465Z" fill="#644F9A"/>
</g>
<g clip-path="url(#clip4)">
<path fill-rule="evenodd" clip-rule="evenodd" d="M47.5246 39.9052C47.5246 39.9052 49.8385 29.1466 59.2763 27.3787C70.3974 25.2961 68.4303 37.3965 60.4213 39.3645C55.0159 40.6935 47.5246 39.9052 47.5246 39.9052Z" fill="#644F9A"/>
<path fill-rule="evenodd" clip-rule="evenodd" d="M47.343 40.6569C47.343 40.6569 57.1283 36.4536 57.3686 26.7601C57.6552 15.3411 46.5508 19.4317 45.9046 27.7404C45.7999 32.0947 46.2838 36.4401 47.343 40.6569Z" fill="#644F9A"/>
</g>
<g clip-path="url(#clip5)">
<path fill-rule="evenodd" clip-rule="evenodd" d="M252.415 43.6438C252.415 43.6438 255.502 29.291 268.093 26.9324C282.929 24.1541 280.305 40.2969 269.62 42.9224C262.409 44.6954 252.415 43.6438 252.415 43.6438Z" fill="#644F9A"/>
<path fill-rule="evenodd" clip-rule="evenodd" d="M252.173 44.6446C252.173 44.6446 265.227 39.0371 265.548 26.1053C265.93 10.8716 251.116 16.3288 250.254 27.4131C250.114 33.2221 250.76 39.0191 252.173 44.6446Z" fill="#644F9A"/>
</g>
<g clip-path="url(#clip6)">
<path fill-rule="evenodd" clip-rule="evenodd" d="M148.622 71.1461C148.622 71.1461 147.07 56.1353 158.625 49.8221C172.242 42.384 174.815 58.9971 165.208 64.9643C158.724 68.9926 148.622 71.1461 148.622 71.1461Z" fill="#644F9A"/>
<path fill-rule="evenodd" clip-rule="evenodd" d="M148.703 72.1997C148.703 72.1997 159.678 62.5635 155.875 49.822C151.399 34.8111 138.657 44.8605 141.343 55.9685C143.055 61.6907 145.532 67.1511 148.703 72.1997Z" fill="#644F9A"/>
</g>
<defs>
<clipPath id="clip0">
<rect width="21.7611" height="21.7611" fill="white" transform="translate(223.328 44.3311) rotate(50.3587)"/>
</clipPath>
<clipPath id="clip1">
<rect width="13.3025" height="13.3025" fill="white" transform="translate(4.68994 22.8133) rotate(20.645)"/>
</clipPath>
<clipPath id="clip2">
<rect width="13.3025" height="13.3025" fill="white" transform="translate(295.79 0.219482) rotate(39.8703)"/>
</clipPath>
<clipPath id="clip3">
<rect width="13.3025" height="13.3025" fill="white" transform="translate(95.4976 24.9649) rotate(3.53152)"/>
</clipPath>
<clipPath id="clip4">
<rect width="21.8998" height="21.8998" fill="white" transform="translate(48.7656 18.0942) rotate(18.1092)"/>
</clipPath>
<clipPath id="clip5">
<rect width="29.2159" height="29.2159" fill="white" transform="translate(254.07 14.5462) rotate(18.1092)"/>
</clipPath>
<clipPath id="clip6">
<rect width="30.0315" height="30.0315" fill="white" transform="translate(140.978 42.1794) rotate(0.0697554)"/>
</clipPath>
</defs>
</svg>
