<svg width="70" height="69" viewBox="0 0 70 69" fill="none" xmlns="http://www.w3.org/2000/svg">
<path d="M41.1485 58.8608C40.917 57.6358 40.6536 56.4391 40.3936 55.1821C41.0366 55.5831 41.6477 56.0124 42.3191 56.4453C43.3991 57.1444 44.4955 55.4818 43.4156 54.7828C42.2184 54.0163 41.0531 53.2215 39.8275 52.4231C39.5711 51.1057 39.2828 49.8167 39.0264 48.4994C40.4261 49.429 41.8258 50.3587 43.2255 51.2884C44.3054 51.9874 45.4019 50.3248 44.2935 49.5939C42.3396 48.2987 40.3857 47.0035 38.3999 45.7368C38.1435 44.4194 37.8551 43.1305 37.5987 41.8131C39.6699 43.1757 41.741 44.5382 43.8121 45.9008C44.2775 46.2308 44.771 46.0779 45.0621 45.7616C45.41 45.5093 45.6192 45.0369 45.3455 44.5363C44.2328 42.3209 43.12 40.1055 42.0073 37.8901C43.286 38.2978 44.5327 38.734 45.8114 39.1417C46.8708 41.2328 47.9302 43.3239 48.9576 45.4435C49.5265 46.5974 51.3336 45.7334 50.7648 44.5796C50.004 43.0813 49.2432 41.5831 48.4824 40.0849C49.7611 40.4926 51.0078 40.9287 52.2865 41.3364C52.9087 42.6146 53.5628 43.8643 54.2134 45.1743C54.7822 46.3282 56.5893 45.4643 55.9921 44.2785C55.6685 43.5932 55.3131 42.9364 54.9611 42.2193C56.151 42.5915 57.3089 42.9922 58.5272 43.3964C59.7455 43.8006 60.4015 41.9003 59.1547 41.4642C57.9968 41.0635 56.8069 40.6912 55.649 40.2906C56.3342 39.967 56.991 39.6116 57.6763 39.288C58.8301 38.7192 57.9662 36.9121 56.7804 37.5093C55.5023 38.1315 54.2206 38.814 52.9425 39.4362C51.6638 39.0285 50.4171 38.5923 49.1384 38.1846C50.6366 37.4238 52.1349 36.6631 53.6012 35.9307C54.755 35.3619 53.8911 33.5548 52.7372 34.1236C50.6496 35.1226 48.5585 36.182 46.4389 37.2095C45.1603 36.8017 43.9135 36.3656 42.6348 35.9579C44.8502 34.8452 47.0337 33.7609 49.2491 32.6481C49.7497 32.3744 49.8666 31.9269 49.7386 31.5257C49.7028 31.0995 49.3936 30.6877 48.8503 30.6561L41.4563 30.1948L44.4592 27.5226C46.8138 27.6599 49.1684 27.7971 51.4626 27.9308C52.7304 28.0047 52.8785 25.984 51.5787 25.9385C49.8882 25.84 48.2581 25.745 46.5677 25.6464L49.5706 22.9743L53.8571 23.2241C55.125 23.298 55.2731 21.2773 53.9733 21.2318L51.711 21.0697L54.4903 18.5965C55.4487 17.7437 54.1126 16.2422 53.1543 17.095L50.3749 19.5682L50.5087 17.274C50.5826 16.0062 48.5618 15.8581 48.5163 17.1579L48.2665 21.4444L45.2635 24.1166C45.3621 22.4261 45.4571 20.796 45.5556 19.1056C45.6295 17.8377 43.6088 17.6896 43.5633 18.9894C43.4261 21.344 43.2888 23.6986 43.1551 25.9927L40.1522 28.6649L40.553 21.2674C40.5847 20.724 40.2116 20.3691 39.7925 20.2841C39.4089 20.1103 38.8905 20.171 38.5924 20.6079L34.5046 26.8213C34.2482 25.5039 33.9599 24.2149 33.7035 22.8976C34.9987 20.9437 36.2938 18.9898 37.5606 17.0039C38.2596 15.924 36.597 14.8275 35.8661 15.9359C34.9364 17.3356 34.0067 18.7353 33.109 20.1066C32.8526 18.7892 32.5642 17.5002 32.3078 16.1829C33.0742 14.9857 33.9011 13.792 34.6675 12.5948C35.3665 11.5148 33.7039 10.4184 33.0049 11.4984C32.604 12.1413 32.1746 12.7524 31.7736 13.3954C31.5102 12.1988 31.2787 10.9737 31.0153 9.77706C30.7554 8.52004 28.7953 8.89043 29.0232 10.1759C29.2547 11.4009 29.5181 12.5976 29.7781 13.8546C29.1351 13.4536 28.524 13.0242 27.8526 12.5914C26.7726 11.8923 25.6762 13.5549 26.7561 14.2539C27.9533 15.0204 29.147 15.8472 30.3442 16.6136C30.6006 17.931 30.8889 19.2199 31.1453 20.5373C29.7456 19.6076 28.3459 18.678 26.9462 17.7483C25.8663 17.0493 24.7698 18.7118 25.8498 19.4109C27.8037 20.706 29.7576 22.0012 31.7434 23.2679C31.9998 24.5853 32.2881 25.8743 32.5445 27.1917C30.4734 25.8291 28.4023 24.4665 26.3312 23.1039C25.8658 22.7739 25.3722 22.9269 25.0812 23.2431C24.7333 23.4954 24.524 23.9679 24.7978 24.4684C25.9105 26.6838 27.0232 28.8992 28.136 31.1146C26.8573 30.7069 25.6106 30.2708 24.3319 29.8631C23.2725 27.7719 22.2131 25.6808 21.1856 23.5612C20.6168 22.4074 18.8097 23.2713 19.4069 24.4571C20.1677 25.9553 20.9285 27.4536 21.6893 28.9518C20.4106 28.5441 19.1639 28.108 17.8852 27.7002C17.263 26.4221 16.6089 25.1724 15.9583 23.8624C15.3895 22.7085 13.5824 23.5724 14.1796 24.7582C14.5032 25.4434 14.8586 26.1002 15.2106 26.8174C14.0207 26.4452 12.8628 26.0445 11.6445 25.6403C10.4262 25.2361 9.77022 27.1364 11.017 27.5725C12.1749 27.9732 13.3648 28.3454 14.5227 28.7461C13.8375 29.0697 13.1807 29.4251 12.4954 29.7487C11.3416 30.3175 12.2055 32.1246 13.3913 31.5274C14.6694 30.9052 15.9511 30.2227 17.2292 29.6005C18.5079 30.0082 19.7546 30.4444 21.0333 30.8521C19.5351 31.6129 18.0368 32.3736 16.5706 33.106C15.4167 33.6748 16.2806 35.4819 17.4345 34.9131C19.5256 33.8537 21.6167 32.7943 23.7363 31.7669C25.015 32.1746 26.2617 32.6107 27.5404 33.0184C25.325 34.1312 23.1415 35.2155 20.9261 36.3282C20.4256 36.6019 20.3086 37.0494 20.4367 37.4507C20.4724 37.8768 20.7816 38.2886 21.3249 38.3202C23.8003 38.4645 26.2756 38.6088 28.7509 38.7531L25.7479 41.4252C23.3899 41.3484 21.0353 41.2111 18.6807 41.0739C17.4129 41 17.2648 43.0207 18.5646 43.0662C20.2551 43.1648 21.8851 43.2598 23.5756 43.3583L20.5727 46.0305C19.1237 45.946 17.7351 45.8651 16.2861 45.7806C15.0183 45.7067 14.8702 47.7275 16.17 47.7729C16.9549 47.8187 17.6793 47.8609 18.4642 47.9067L15.6849 50.3798C14.7265 51.2326 16.0626 52.7341 17.021 51.8813L19.8003 49.4081L19.6666 51.7023C19.5927 52.9702 21.6134 53.1182 21.6589 51.8184L21.9087 47.5319L24.9117 44.8598C24.8131 46.5502 24.7181 48.1803 24.6196 49.8708C24.5457 51.1386 26.5665 51.2867 26.6119 49.9869C26.7492 47.6323 26.8864 45.2778 27.0201 42.9836L30.0231 40.3114C29.8788 42.7867 29.7345 45.262 29.5902 47.7373C29.5586 48.2807 29.9316 48.6356 30.3507 48.7206C30.7344 48.8944 31.2528 48.8338 31.5544 48.3364C32.917 46.2653 34.2796 44.1942 35.6102 42.1515C35.8666 43.4689 36.1549 44.7579 36.4113 46.0752C35.1162 48.0291 33.821 49.983 32.5543 51.9689C31.8552 53.0488 33.5178 54.1453 34.2168 53.0653C35.1465 51.6656 36.0762 50.2659 36.974 48.8946C37.2303 50.212 37.5187 51.501 37.7751 52.8184C37.0087 54.0156 36.1818 55.2092 35.4154 56.4064C34.7164 57.4864 36.379 58.5828 37.078 57.5029C37.4789 56.8599 37.9083 56.2488 38.3093 55.6058C38.5727 56.8025 38.8042 58.0275 39.0676 59.2242C39.4448 60.5486 41.4084 60.1178 41.1485 58.8608ZM41.967 42.2191C40.3329 41.1546 38.6703 40.0582 37.0361 38.9937C36.8225 37.9817 36.6373 37.0016 36.4237 35.9896C37.404 36.3194 38.3559 36.6172 39.3362 36.9469C40.2037 38.6937 41.0996 40.4724 41.967 42.2191ZM45.2041 32.4123C43.4573 33.2798 41.6786 34.1757 39.9318 35.0431C38.9515 34.7134 37.9996 34.4156 37.0193 34.0858L39.2875 32.0675L45.2041 32.4123ZM38.3247 24.6814L37.9798 30.598L35.7116 32.6163C35.498 31.6043 35.3128 30.6243 35.0992 29.6123L38.3247 24.6814ZM28.2082 26.7572C29.8424 27.8217 31.5049 28.9181 33.1391 29.9826C33.3527 30.9946 33.5379 31.9747 33.7515 32.9867C32.7712 32.6569 31.8193 32.3591 30.839 32.0294C29.9715 30.2826 29.0757 28.5039 28.2082 26.7572ZM24.9392 36.5924C26.686 35.7249 28.4647 34.8291 30.2114 33.9616C31.1918 34.2914 32.1437 34.5892 33.124 34.9189L30.8558 36.9372C28.8635 36.8211 26.9315 36.7085 24.9392 36.5924ZM31.8186 44.3234C31.9347 42.331 32.0473 40.3991 32.1635 38.4068L34.4316 36.3884C34.6453 37.4004 34.8305 38.3805 35.0441 39.3925C33.9796 41.0266 32.9151 42.6608 31.8186 44.3234Z" fill="white"/>
</svg>
