<svg width="54" height="56" viewBox="0 0 54 56" fill="none" xmlns="http://www.w3.org/2000/svg">
<path d="M34.3697 46.3933C34.0471 45.4669 33.7029 44.5664 33.3544 43.6185C33.9014 43.8557 34.4268 44.1188 34.9996 44.3775C35.9213 44.7958 36.5811 43.3745 35.6594 42.9562C34.6387 42.4991 33.6395 42.0161 32.5929 41.5375C32.2401 40.5422 31.8658 39.5727 31.513 38.5774C32.7103 39.138 33.9077 39.6986 35.105 40.2592C36.0267 40.6775 36.6865 39.2562 35.7389 38.8164C34.0678 38.0358 32.3968 37.2553 30.7041 36.5006C30.3513 35.5053 29.977 34.5359 29.6242 33.5406C31.3944 34.3599 33.1645 35.1793 34.9347 35.9986C35.3352 36.2013 35.7015 36.0248 35.8912 35.7449C36.1325 35.5081 36.2404 35.1161 35.9692 34.7584C34.8456 33.164 33.722 31.5695 32.5984 29.9751C33.6408 30.1436 34.6617 30.3379 35.7041 30.5064C36.7718 32.0104 37.8394 33.5143 38.8855 35.0441C39.4624 35.8758 40.7681 34.9933 40.1912 34.1617C39.4249 33.0843 38.6586 32.007 37.8923 30.9296C38.9348 31.0981 39.9557 31.2925 40.9981 31.461C41.6309 32.3832 42.2853 33.2795 42.9439 34.2233C43.5208 35.055 44.8265 34.1725 44.2238 33.3192C43.8923 32.8237 43.5393 32.3539 43.182 31.8368C44.1512 31.9881 45.0989 32.1651 46.0939 32.3379C47.089 32.5107 47.3783 30.9557 46.3574 30.7614C45.4098 30.5843 44.4406 30.433 43.4929 30.256C43.9885 29.9245 44.4582 29.5715 44.9538 29.24C45.7855 28.6631 44.903 27.3574 44.0497 27.9601C43.1276 28.5929 42.2096 29.2731 41.2875 29.906C40.245 29.7375 39.2241 29.5431 38.1817 29.3746C39.2591 28.6083 40.3364 27.842 41.3922 27.1016C42.2239 26.5247 41.3414 25.219 40.5097 25.7959C39.0014 26.8161 37.4975 27.8838 35.9677 28.9298C34.9252 28.7613 33.9044 28.567 32.8619 28.3985C34.4564 27.2749 36.0293 26.1771 37.6238 25.0535C37.9814 24.7823 38.0204 24.4205 37.8741 24.1231C37.7967 23.7957 37.5082 23.5112 37.0817 23.5498L31.2744 24.0511L33.3003 21.6224C35.1484 21.4552 36.9966 21.2881 38.7974 21.1253C39.7925 21.0353 39.6727 19.4456 38.656 19.5614C37.3291 19.6814 36.0496 19.7971 34.7227 19.9171L36.7486 17.4884L40.1132 17.1842C41.1083 17.0942 40.9885 15.5045 39.9718 15.6203L38.1925 15.7573L40.0675 13.5095C40.7141 12.7344 39.4997 11.7215 38.8532 12.4966L36.9782 14.7444L36.8153 12.9436C36.7253 11.9485 35.1357 12.0683 35.2515 13.085L35.5558 16.4497L33.5299 18.8783C33.4099 17.5515 33.2942 16.272 33.1742 14.9451C33.0842 13.9499 31.4945 14.0698 31.6104 15.0865C31.7775 16.9347 31.9446 18.7828 32.1075 20.5836L30.0816 23.0123L29.533 17.2093C29.4944 16.7828 29.1628 16.55 28.8268 16.5326C28.508 16.442 28.1117 16.5495 27.9306 16.9242L25.4725 22.2347C25.1197 21.2394 24.7454 20.2699 24.3926 19.2746C25.1732 17.6035 25.9537 15.9324 26.7084 14.2398C27.1267 13.3181 25.7054 12.6583 25.2655 13.6058C24.7049 14.8032 24.1443 16.0005 23.6053 17.172C23.2525 16.1767 22.8782 15.2072 22.5254 14.2119C22.9826 13.1912 23.4871 12.1662 23.9442 11.1454C24.3625 10.2237 22.9412 9.56392 22.5229 10.4856C22.2857 11.0326 22.0227 11.558 21.7855 12.105C21.4413 11.2045 21.1186 10.2782 20.7744 9.37765C20.4259 8.42974 18.9438 8.94599 19.2707 9.91973C19.5934 10.8461 19.9376 11.7466 20.2861 12.6945C19.7391 12.4573 19.2136 12.1943 18.6408 11.9355C17.7191 11.5172 17.0593 12.9385 17.981 13.3568C19.0018 13.8139 20.0268 14.3185 21.0476 14.7756C21.4003 15.7709 21.7747 16.7403 22.1274 17.7356C20.9301 17.175 19.7328 16.6144 18.5354 16.0538C17.6137 15.6355 16.954 17.0568 17.8757 17.4751C19.5467 18.2556 21.2178 19.0362 22.9105 19.7909C23.2633 20.7862 23.6376 21.7556 23.9903 22.7509C22.2202 21.9316 20.45 21.1122 18.6799 20.2929C18.2793 20.0902 17.9131 20.2667 17.7234 20.5466C17.4821 20.7834 17.3742 21.1754 17.6454 21.533C18.769 23.1275 19.8926 24.722 21.0162 26.3164C19.9738 26.1479 18.9529 25.9536 17.9105 25.7851C16.8428 24.2811 15.7752 22.7771 14.7291 21.2473C14.1522 20.4156 12.8465 21.2981 13.4492 22.1514C14.2155 23.2287 14.9818 24.3061 15.7481 25.3834C14.7057 25.2149 13.6848 25.0206 12.6423 24.852C12.0095 23.9299 11.3551 23.0335 10.6965 22.0898C10.1196 21.2581 8.81391 22.1405 9.41661 22.9938C9.74808 23.4894 10.1011 23.9591 10.4584 24.4762C9.48921 24.325 8.54156 24.1479 7.54651 23.9751C6.55147 23.8023 6.2621 25.3573 7.28298 25.5517C8.23063 25.7287 9.19984 25.88 10.1475 26.0571C9.65192 26.3885 9.1822 26.7416 8.68663 27.073C7.85493 27.6499 8.73742 28.9556 9.59068 28.3529C10.5129 27.7201 11.4308 27.0399 12.353 26.4071C13.3954 26.5756 14.4163 26.7699 15.4587 26.9384C14.3814 27.7047 13.304 28.471 12.2482 29.2115C11.4165 29.7883 12.299 31.094 13.1307 30.5172C14.6347 29.4495 16.1387 28.3819 17.6685 27.3358C18.7109 27.5043 19.7318 27.6986 20.7742 27.8672C19.1798 28.9908 17.6068 30.0885 16.0124 31.2121C15.6547 31.4833 15.6158 31.8452 15.7621 32.1425C15.8395 32.4699 16.128 32.7544 16.5545 32.7158C18.4974 32.5401 20.4404 32.3644 22.3833 32.1887L20.3574 34.6174C18.5135 34.8319 16.6654 34.9991 14.8172 35.1662C13.822 35.2562 13.9419 36.8459 14.9586 36.73C16.2855 36.61 17.565 36.4943 18.8919 36.3744L16.866 38.803C15.7287 38.9059 14.6388 39.0044 13.5014 39.1073C12.5063 39.1973 12.6261 40.787 13.6428 40.6711C14.2589 40.6154 14.8276 40.564 15.4436 40.5083L13.5686 42.7561C12.922 43.5312 14.1364 44.5442 14.7829 43.7691L16.658 41.5212L16.8208 43.322C16.9108 44.3172 18.5005 44.1973 18.3846 43.1806L18.0804 39.816L20.1063 37.3873C20.2262 38.7142 20.3419 39.9937 20.4619 41.3206C20.5519 42.3157 22.1416 42.1959 22.0258 41.1792C21.8586 39.331 21.6915 37.4828 21.5287 35.682L23.5545 33.2534C23.7302 35.1963 23.9059 37.1392 24.0816 39.0822C24.1202 39.5087 24.4518 39.7415 24.7878 39.7589C25.1065 39.8495 25.5029 39.742 25.6798 39.3199C26.4991 37.5497 27.3184 35.7796 28.1162 34.0353C28.469 35.0306 28.8433 36 29.1961 36.9953C28.4156 38.6664 27.6351 40.3375 26.8804 42.0301C26.4621 42.9518 27.8833 43.6116 28.3017 42.6899C28.8622 41.4926 29.4228 40.2953 29.9619 39.1238C30.3147 40.1191 30.689 41.0885 31.0418 42.0838C30.5846 43.1046 30.0801 44.1296 29.623 45.1504C29.2047 46.0721 30.626 46.7318 31.0443 45.8101C31.2815 45.2632 31.5445 44.7377 31.7817 44.1907C32.1259 45.0912 32.4486 46.0176 32.7928 46.9181C33.2403 47.9048 34.7182 47.3412 34.3697 46.3933ZM33.0706 33.3484C31.6752 32.7101 30.2539 32.0503 28.8584 31.4121C28.5745 30.6495 28.3164 29.9084 28.0324 29.1458C28.8336 29.2883 29.609 29.4093 30.4102 29.5518C31.2884 30.8102 32.1924 32.09 33.0706 33.3484ZM34.4487 25.3406C33.1904 26.2188 31.9105 27.1229 30.6522 28.0011C29.851 27.8586 29.0756 27.7376 28.2744 27.595L29.8046 25.7606L34.4487 25.3406ZM28.1961 20.1251L28.6161 24.7692L27.0859 26.6036C26.8019 25.841 26.5438 25.0999 26.2599 24.3373L28.1961 20.1251ZM20.5655 22.9173C21.9609 23.5555 23.3822 24.2153 24.7777 24.8535C25.0616 25.6162 25.3198 26.3572 25.6037 27.1199C24.8025 26.9773 24.0272 26.8563 23.226 26.7138C22.3477 25.4555 21.4437 24.1756 20.5655 22.9173ZM19.1659 30.9508C20.4242 30.0726 21.7041 29.1686 22.9624 28.2904C23.7636 28.4329 24.539 28.5539 25.3402 28.6964L23.81 30.5309C22.2462 30.6723 20.7297 30.8094 19.1659 30.9508ZM25.4185 36.1664C25.2771 34.6025 25.1399 33.0861 24.9985 31.5223L26.5287 29.6878C26.8127 30.4505 27.0708 31.1915 27.3547 31.9542C26.7165 33.3496 26.0783 34.7451 25.4185 36.1664Z" fill="white"/>
</svg>
