<svg width="104" height="107" viewBox="0 0 104 107" fill="none" xmlns="http://www.w3.org/2000/svg">
<path d="M72.1633 85.941L68.2064 78.6507L76.5434 77.6125C77.8216 77.4501 78.7626 76.2957 78.6002 75.0175C78.4378 73.7393 77.2834 72.7983 76.0051 72.9607L65.8144 74.2027L62.4809 68.0792L69.9658 67.1493C70.3792 67.2446 70.8625 67.2255 71.2663 67.0791C71.7973 66.8533 72.2487 66.5002 72.4712 66.0073C72.7509 65.5494 72.9162 65.0215 72.8747 64.446C72.8206 64.02 72.617 63.5812 72.3435 63.2569L69.7539 56.173L76.7239 56.3434L80.271 65.9773C80.4396 66.4733 80.7927 66.9247 81.2506 67.2045C81.823 67.5541 82.5703 67.6176 83.2507 67.4044C84.4621 66.9654 85.0596 65.6012 84.6206 64.3898L81.7383 56.4983L90.031 56.6907C91.3538 56.7127 92.3743 55.6855 92.4536 54.3977C92.4756 53.075 91.4483 52.0544 90.1605 51.9752L81.8678 51.7828L85.1733 44.0555C85.6659 42.863 85.0902 41.4894 83.8977 40.9968C82.7052 40.5042 81.3317 41.0799 80.839 42.2724L76.7835 51.7424L69.8135 51.5719L72.8139 44.6015C73.0809 44.293 73.3257 43.8923 73.3637 43.4439C73.4717 42.8811 73.3381 42.3279 73.0773 41.8541C72.8164 41.3804 72.4284 40.9862 71.8783 40.7287C71.4427 40.5412 70.9943 40.5031 70.5682 40.5573L63.0893 39.2899L66.7608 33.2796L76.8821 34.9821C78.1572 35.2108 79.3717 34.3807 79.6004 33.1055C79.8291 31.8304 78.999 30.6159 77.7239 30.3872L69.4182 28.9293L73.6841 21.9458C74.3485 20.8583 73.9921 19.3829 72.9045 18.7186C71.8169 18.0542 70.3416 18.4106 69.6772 19.4982L65.3764 26.5389L60.2876 19.8147C59.502 18.7846 58.0425 18.6005 57.0124 19.3861C55.9823 20.1716 55.7982 21.6312 56.5838 22.6612L62.7539 30.832L59.1174 36.7851L54.6552 30.8366C54.5088 30.4328 54.2703 30.0513 53.9046 29.7493C53.4244 29.3774 52.8965 29.2121 52.3559 29.1963C51.8154 29.1805 51.2621 29.3142 50.8107 29.6672C50.4864 29.9407 50.2194 30.2492 50.0318 30.6849L45.2347 36.4792L41.9013 30.3557L48.4754 22.4243C49.3115 21.4416 49.1968 19.9567 48.2141 19.1206C47.2314 18.2845 45.7465 18.3992 44.9104 19.3819L39.5443 25.8504L35.5174 18.6746C34.894 17.5077 33.4821 17.1169 32.3153 17.7403C31.1485 18.3638 30.7576 19.7756 31.381 20.9425L35.3379 28.2328L27.0359 29.2137C25.7577 29.3761 24.8167 30.5305 24.9791 31.8087C25.0651 32.5687 25.4976 33.1473 26.0701 33.4969C26.528 33.7767 26.9986 33.907 27.6091 33.8083L37.7998 32.5663L41.1333 38.6898L33.6484 39.6197C33.2351 39.5244 32.7517 39.5435 32.3479 39.6899C31.817 39.9157 31.3655 40.2688 31.143 40.7617C30.8633 41.2196 30.6981 41.7475 30.7967 42.3579C30.8509 42.784 31.0545 43.2228 31.328 43.5471L33.9176 50.631L26.9476 50.4605L23.4004 40.8267C22.9614 39.6153 21.5972 39.0177 20.3858 39.4568C19.1744 39.8958 18.5769 41.26 19.0159 42.4714L21.8982 50.3629L13.5482 50.1355C12.2255 50.1135 11.205 51.1407 11.1257 52.4285C11.0845 53.268 11.5616 54.031 12.2485 54.4506C12.592 54.6604 13.0054 54.7557 13.3965 54.7588L21.6892 54.9513L18.3837 62.6786C17.961 63.7566 18.3078 64.9902 19.2809 65.5847C19.3954 65.6546 19.4526 65.6896 19.5671 65.7595C20.7596 66.2521 22.1331 65.6764 22.6258 64.4839L26.6813 55.0139L33.6513 55.1844L30.7654 62.2248C30.4984 62.5333 30.2536 62.934 30.2155 63.3823C30.1075 63.9451 30.2412 64.4984 30.502 64.9721C30.6833 65.3187 31.0141 65.6779 31.3575 65.8877C31.472 65.9576 31.5292 65.9926 31.6437 66.0625C32.0794 66.2501 32.5277 66.2881 32.9538 66.234L40.4327 67.5013L36.7962 73.4544L26.6749 71.7519C25.3998 71.5232 24.1853 72.3534 23.9566 73.6285C23.7532 74.6047 24.2749 75.5521 25.019 76.0067C25.248 76.1466 25.5692 76.2642 25.8331 76.3468L34.1388 77.8047L29.8379 84.8454C29.1736 85.933 29.53 87.4083 30.6175 88.0727C31.7051 88.737 33.1804 88.3806 33.8448 87.2931L38.1457 80.2524L43.2344 86.9765C43.3935 87.2309 43.6797 87.4057 43.9086 87.5456C44.71 88.0351 45.7339 88.0317 46.5096 87.4052C47.5397 86.6196 47.7238 85.1601 46.9383 84.13L40.8031 75.9021L44.4046 70.0062L48.9464 76.0818C49.0927 76.4856 49.3313 76.8671 49.697 77.1691C49.8115 77.2391 49.8687 77.274 49.9832 77.344C50.3839 77.5887 50.7973 77.684 51.1884 77.6871C51.7289 77.7029 52.2822 77.5693 52.7336 77.2163C53.1151 76.9777 53.3599 76.577 53.5125 76.1986L58.3445 70.3471L61.678 76.4706L55.1038 84.402C54.2677 85.3847 54.3825 86.8696 55.3652 87.7056C55.4796 87.7756 55.5369 87.8105 55.6514 87.8805C56.6245 88.4749 57.9027 88.3125 58.6466 87.3521L64.0127 80.8836L67.9696 88.1739C68.2082 88.5555 68.4244 88.8448 68.7679 89.0546C69.4548 89.4742 70.3515 89.5503 71.0796 89.1304C72.3386 88.4847 72.7644 87.0156 72.1633 85.941ZM67.205 62.7904L60.089 63.6312L58.7849 61.2625C59.5383 60.5438 60.2345 59.7901 60.794 58.8742C61.3535 57.9583 61.7984 56.9726 62.0018 55.9963L64.7045 56.0753L67.205 62.7904ZM48.7301 58.4217C47.3563 57.5825 46.4467 56.2409 46.0903 54.7655C45.7339 53.2902 45.8957 51.7385 46.7699 50.3075C47.6091 48.9337 48.9508 48.024 50.4261 47.6676C51.9014 47.3112 53.4531 47.4731 54.8842 48.3473C56.2579 49.1865 57.1676 50.5281 57.524 52.0034C57.8804 53.4788 57.7185 55.0305 56.8443 56.4615C56.0052 57.8353 54.6635 58.745 53.1882 59.1014C51.7128 59.4578 50.1039 59.2609 48.7301 58.4217ZM67.5896 44.79L64.7991 51.417L62.0963 51.3381C61.6984 49.2872 60.6552 47.3923 59.1254 45.9076L60.5241 43.618L67.5896 44.79ZM52.249 35.419L56.6094 41.1481L55.2108 43.4377C53.1915 42.7545 50.9943 42.7485 49.023 43.2735L47.7189 40.9049L52.249 35.419ZM36.4092 43.9786L43.5253 43.1378L44.8294 45.5065C44.0187 46.1902 43.3797 46.9789 42.8202 47.8948C42.2608 48.8106 41.8158 49.7964 41.6125 50.7726L38.9097 50.6936L36.4092 43.9786ZM35.9896 62.0362L38.7802 55.4092L41.483 55.4882C41.8808 57.539 42.9241 59.4339 44.4538 60.9186L43.0552 63.2082L35.9896 62.0362ZM51.3303 71.4072L47.0271 65.7131L48.4257 63.4235C50.445 64.1067 52.6422 64.1127 54.6135 63.5877L55.9176 65.9563L51.3303 71.4072Z" fill="white"/>
</svg>
