<svg width="126" height="114" viewBox="0 0 126 114" fill="none" xmlns="http://www.w3.org/2000/svg">
<path d="M59.3164 40.9182C59.3164 40.8227 59.3164 40.7273 59.1891 40.6318L59.1255 40.7909C59.03 40.6318 59.0618 40.6955 59.03 40.5682C58.7118 40.5364 58.68 40.3136 58.4255 40.1864C58.4255 40.1864 58.4255 40.1864 58.4255 40.2182C58.2664 40.4091 58.0437 40.3136 57.9164 40.2818L57.8528 40.1864C57.7891 39.9955 57.5028 40.5682 57.5982 40.2182C56.9618 40.3136 56.1982 40.3136 55.4664 40.3136C55.3709 40.4409 54.9255 40.3136 55.0846 40.5364C54.8937 40.25 54.3528 40.1864 54.1618 40.1864C54.1618 40.1546 54.1937 40.1227 54.1937 40.1546C53.8118 39.7727 53.7164 40.5046 53.3664 40.0591C53.3028 40.3773 52.6982 39.9636 52.5073 40.3455C52.4755 40.2818 52.4437 40.2182 52.4755 40.1546C51.8073 40.1546 51.1073 40.0273 50.5346 40.0273C50.0573 40.3136 49.3891 39.9 48.9755 40.2818C48.6255 40.1864 48.0846 40.0273 47.6073 40.1864L47.6391 40.1546C47.0982 40.1864 46.43 40.1864 46.08 40.4409C45.9209 40.0591 45.6982 40.1546 45.4755 40.0273C45.1255 40.1864 44.3937 40.1546 43.8528 40.3136C43.7573 40.1546 43.4073 40.3773 43.3755 40.1546C41.8482 40.6318 39.9709 40.4727 38.3482 40.0909C38.1573 40.2182 37.9028 40.5046 37.7118 40.6955C37.68 40.6636 37.68 40.6318 37.7437 40.6318C37.4573 40.6636 37.1709 40.4409 36.8846 40.4727C36.8846 40.4409 36.8846 40.4409 36.9482 40.4091C36.6618 40.5046 36.3755 40.2182 36.0573 40.4091L36.0255 40.3455L35.8028 40.4409C35.8028 40.3455 35.8028 40.25 35.93 40.25C34.6573 40.2182 33.3528 40.2818 32.0482 40.3773C31.4118 40.4091 30.7437 40.4727 30.0755 40.5046L29.5982 40.5364H29.3437L29.0573 40.5682C28.6755 40.6 28.3255 40.6955 27.9755 40.8546C28.0073 40.8227 28.0073 40.7591 28.0391 40.7273C27.88 40.8546 27.7209 40.9818 27.5937 41.1091C27.5618 41.0773 27.5937 41.0455 27.5937 41.0136C27.2437 41.1409 26.9573 41.4273 26.7346 41.7455C26.5119 42.0636 26.3846 42.4136 26.2573 42.7318C26.2255 42.7318 26.1937 42.5727 26.0982 42.6682C26.0982 42.9546 26.0028 43.1455 25.9391 43.3364C25.8755 43.5273 25.8437 43.6864 26.0982 43.8136C26.0664 43.8455 25.9709 43.8455 25.9391 43.8136C26.0346 44.5773 26.3209 45.3091 26.83 45.8818C27.3073 46.4546 28.0073 46.8682 28.7391 47.0591C29.0573 47.0273 29.3755 46.9636 29.6618 46.9318C29.9482 46.9 30.2346 46.9 30.5209 46.9C31.0937 46.9 31.6982 46.9 32.2391 46.7409V46.8364C33.7028 46.55 35.2619 46.8682 36.7573 46.8046C37.3937 46.8364 37.8073 46.7409 38.4437 46.7409V46.8364C39.4937 46.4546 40.6709 47.1864 41.7846 46.7727L41.7209 46.9C41.88 46.7091 42.3255 46.9318 42.3255 46.6455H42.4209L42.5164 46.7091C42.5482 46.6773 42.58 46.6773 42.6118 46.6455H43.8528C44.1073 46.7091 44.3937 46.7091 44.68 46.6455H44.7755L44.7437 46.7091C44.8073 46.6773 44.9028 46.6773 44.9664 46.6455H45.4118H45.4437C45.4118 46.6455 45.4437 46.6773 45.38 46.7091C46.1437 47.0591 47.0028 46.6773 47.83 46.6773L47.7346 46.8364C48.1164 46.6455 48.8482 46.8364 49.3573 46.7409L49.3255 46.8046L49.58 46.7091V46.8682C50.2482 46.8682 50.8846 46.7409 51.5528 46.7409L51.5209 46.8682C52.1255 46.6136 52.8255 46.8682 53.4618 46.7727L53.43 46.8364C54.6073 46.8682 55.7528 46.7727 56.8982 46.6455H59.1573C60.7164 46.6455 62.0209 45.3727 62.0209 43.8136C62.0846 42.2227 60.8437 40.9818 59.3164 40.9182ZM58.7437 40.9182H58.5209C58.5846 40.9182 58.68 40.8864 58.7437 40.9182ZM57.8528 40.8227L57.8846 40.6955C58.1391 40.6636 57.9164 40.8227 58.1073 40.8546C58.1709 40.8546 58.1391 40.6636 58.2664 40.7273C58.2664 40.8546 58.33 40.9182 58.3937 40.9182H57.5664C57.6937 40.7909 57.7891 40.6636 57.8528 40.8227ZM57.1528 40.9182H56.9618C57.0573 40.8864 57.1209 40.8864 57.1528 40.9182ZM53.2391 40.8546C53.7164 40.6955 54.2255 40.7909 54.7346 40.9182H46.1437C46.4937 40.8546 46.8437 40.7909 47.1937 40.7591C49.23 40.9818 51.2664 40.4091 53.2391 40.8546ZM40.6073 40.8864C40.6391 40.8864 40.6709 40.8864 40.7028 40.9182H38.73C39.3982 40.8227 40.0346 40.6955 40.6073 40.8864ZM36.6618 40.9182H35.1028C35.6118 40.8864 36.1209 40.8864 36.6618 40.9182Z" fill="#654F96"/>
<path d="M58.4266 40.2504C58.4266 40.2182 58.3622 40.2182 58.3301 40.2182C58.3944 40.2182 58.4266 40.2182 58.4266 40.2504Z" fill="#654F96"/>
<path d="M29.7893 50.3364C29.5665 50.4319 29.3438 50.4955 29.0893 50.5273C28.8347 50.591 28.5802 50.6228 28.3574 50.7182C27.8802 50.8773 27.4029 51.1955 27.212 51.641L27.1483 51.5773C26.8302 52.1182 26.5756 52.691 26.4483 53.3273C26.3529 53.9319 26.4165 54.6319 26.7983 55.1728C27.0529 55.6501 27.4029 55.841 27.8165 56.1273L27.7847 56.2228C28.262 56.2864 28.6438 56.5092 29.1211 56.6364C29.5983 56.7319 30.0438 56.7955 30.4893 56.6046L30.4256 56.7319C30.5529 56.541 30.9029 56.7637 30.9029 56.4773H30.9665L31.062 56.541C31.0938 56.5092 31.1256 56.5092 31.1574 56.4773H32.1756C32.3665 56.541 32.5893 56.541 32.8438 56.4773H32.9393L32.9074 56.541C32.9711 56.5092 33.0347 56.5092 33.0983 56.4773H33.4483H33.4802C33.4483 56.4773 33.4802 56.5092 33.4165 56.541C34.0529 56.891 34.7211 56.5092 35.3893 56.5092L35.3256 56.6682C35.6438 56.4773 36.2165 56.6682 36.6302 56.5728L36.5983 56.6364L36.8211 56.541V56.7001C37.362 56.7001 37.8711 56.5728 38.412 56.5728L38.3802 56.7001C38.8574 56.4455 39.4302 56.7001 39.9393 56.6046L39.9074 56.6682C40.862 56.7001 41.7847 56.6046 42.7074 56.4773H51.712C51.712 56.5728 51.712 56.6682 51.8074 56.7637L51.8393 56.6046C51.9029 56.7637 51.9029 56.7001 51.9347 56.8273C52.0938 56.8273 52.1574 56.891 52.2529 56.9546C52.3483 57.0182 52.412 57.1137 52.5392 57.1137C52.5392 57.1137 52.5392 57.1137 52.5392 57.0819C52.6347 56.8592 52.8574 56.9228 52.9847 56.891L53.0802 56.9546C53.2393 57.1137 53.2393 56.4455 53.3029 56.7955C53.8438 56.4455 54.3847 55.9682 54.7347 55.3319C54.6711 55.1728 54.9893 54.8546 54.7029 54.8864C55.0211 54.8546 55.2756 54.3455 55.2756 54.1228C55.3074 54.1228 55.3393 54.1546 55.3074 54.1864C55.5302 54.0273 55.4347 53.8682 55.3711 53.7728C55.3074 53.6455 55.2438 53.5501 55.4347 53.3592C55.2756 53.3273 55.2756 53.1682 55.2756 52.9773C55.2438 52.7864 55.212 52.5637 54.9893 52.5319C55.0529 52.4682 55.0847 52.4364 55.1483 52.4364C54.9574 51.8001 54.5756 51.1319 54.0983 50.7501C53.812 50.7182 53.5893 50.5273 53.3347 50.3682C53.0802 50.2092 52.7938 50.1137 52.5711 50.2728C52.5074 50.241 52.412 50.1773 52.3165 50.1455C52.2211 50.1137 52.0938 50.0501 51.9665 50.0501C51.712 49.9864 51.5211 50.0182 51.3302 50.0819L51.362 50.0501C50.9165 50.0819 50.4074 50.0819 50.0893 50.3364C49.962 49.9546 49.7711 50.0501 49.5802 49.9228C49.2938 50.0819 48.7211 50.0501 48.2756 50.2092C48.212 50.0501 47.9256 50.2728 47.8938 50.0501C46.6529 50.5273 45.1574 50.3682 43.8211 49.9864C43.662 50.1137 43.4711 50.4001 43.312 50.591C43.2802 50.5592 43.312 50.5273 43.3438 50.5273C43.0893 50.5592 42.8665 50.3364 42.6438 50.3682C42.6438 50.3364 42.6438 50.3364 42.6756 50.3046C42.4529 50.4001 42.1983 50.1137 41.9438 50.3046V50.241L41.7847 50.3364C41.7847 50.241 41.7847 50.1455 41.8802 50.1455C39.812 50.0819 37.712 50.4955 35.5802 50.4319L35.6438 50.3682L35.2302 50.4955C35.2302 50.4637 35.262 50.4319 35.262 50.4319C34.7529 50.3046 34.212 50.5273 33.7029 50.4955C33.7029 50.4637 33.7665 50.3682 33.7029 50.3364C33.3211 50.5592 33.0983 50.0501 32.9074 50.4955C32.8756 50.4637 32.8756 50.3682 32.9074 50.3364C31.9211 50.4319 30.8393 50.4319 29.7893 50.3364ZM52.1256 56.4773C52.1893 56.4773 52.2529 56.4773 52.3165 56.4455H52.2847C52.2211 56.4773 52.1574 56.4773 52.1256 56.4773ZM52.8574 56.3819L52.8893 56.5092C52.6983 56.6046 52.8256 56.4137 52.6665 56.4137C52.6029 56.4455 52.6983 56.6046 52.5711 56.6046C52.5393 56.4773 52.4756 56.4455 52.412 56.4455C52.6347 56.3819 52.8256 56.3182 53.0165 56.2228C52.9847 56.3501 52.9847 56.5092 52.8574 56.3819ZM53.3029 56.0319C53.3347 56.0001 53.3983 55.9682 53.4302 55.9364C53.3983 56.0001 53.3665 56.0319 53.3029 56.0319ZM52.2211 50.7182C52.6347 50.7819 53.0802 50.9092 53.462 51.1319C53.8438 51.3546 54.162 51.6728 54.3847 52.0546C54.6074 52.4364 54.7029 52.8819 54.6393 53.2955C54.8302 53.6773 54.7029 54.1228 54.4802 54.4728C54.4802 54.4728 54.4802 54.4728 54.4802 54.5046C54.5756 54.2501 54.6074 53.9637 54.6074 53.6773C54.6074 52.1182 53.3347 50.8455 51.7438 50.8455H50.1211C50.4074 50.7819 50.662 50.7182 50.9483 50.6864C51.362 50.7182 51.7756 50.6864 52.2211 50.7182ZM45.6347 50.7819C45.6665 50.7819 45.6665 50.7819 45.6983 50.8137H44.1074C44.6802 50.7182 45.1893 50.591 45.6347 50.7819ZM42.4529 50.8137H41.212C41.6256 50.7819 42.0393 50.7501 42.4529 50.8137Z" fill="#654F96"/>
<path d="M52.6038 57.1136C52.5717 57.1136 52.5395 57.1136 52.5073 57.1136C52.5395 57.1458 52.5717 57.1136 52.6038 57.1136Z" fill="#654F96"/>
<path d="M59.3166 18.0727C59.3166 17.9772 59.3166 17.8818 59.1894 17.7863L59.1257 17.9454C59.0303 17.7863 59.0621 17.8499 59.0303 17.7227C58.7121 17.6909 58.6803 17.4681 58.4257 17.3409C58.4257 17.3409 58.4257 17.3409 58.4257 17.3727C58.2666 17.5636 58.0439 17.4681 57.9166 17.4363L57.853 17.3409C57.7894 17.1499 57.503 17.7227 57.5985 17.3727C56.9621 17.4681 56.1985 17.4681 55.4666 17.4681C55.3712 17.5954 54.9257 17.4681 55.0848 17.6909C54.8939 17.4045 54.353 17.3409 54.1621 17.3409C54.1621 17.309 54.1939 17.2772 54.1939 17.309C53.8121 16.9272 53.7166 17.659 53.3666 17.2136C53.303 17.5318 52.6985 17.1181 52.5075 17.4999C52.4757 17.4363 52.4439 17.3727 52.4757 17.309C51.8075 17.309 51.1075 17.1818 50.5348 17.1818C50.0575 17.4681 49.3894 17.0545 48.9757 17.4363C48.6257 17.3409 48.0848 17.1818 47.6075 17.3409L47.6394 17.309C47.0985 17.3409 46.4303 17.3409 46.0803 17.5954C45.9212 17.2136 45.6985 17.309 45.4757 17.1818C45.1257 17.3409 44.3939 17.309 43.853 17.4681C43.7575 17.309 43.4075 17.5318 43.3757 17.309C41.8485 17.7863 39.9712 17.6272 38.3485 17.2454C38.1575 17.3727 37.903 17.659 37.7121 17.8499C37.6803 17.8181 37.6803 17.7863 37.7439 17.7863C37.4575 17.8181 37.1712 17.5954 36.8848 17.6272C36.8848 17.5954 36.8848 17.5954 36.9485 17.5636C36.6621 17.659 36.3757 17.3727 36.0575 17.5636L36.0257 17.4999L35.803 17.5954C35.803 17.4999 35.803 17.4045 35.9303 17.4045C34.6575 17.3727 33.353 17.4363 32.0485 17.5318C31.4121 17.5636 30.7439 17.6272 30.0757 17.659L29.5985 17.6909H29.3439L29.0575 17.7227C28.6757 17.7545 28.3257 17.8499 27.9757 18.009C28.0075 17.9772 28.0075 17.9136 28.0394 17.8818C27.8803 18.009 27.7212 18.1363 27.5939 18.2636C27.5621 18.2318 27.5939 18.1999 27.5939 18.1681C27.2439 18.2954 26.9575 18.5818 26.7348 18.8999C26.5121 19.2181 26.3848 19.5681 26.2575 19.8863C26.2257 19.8863 26.1939 19.7272 26.0985 19.8227C26.0985 20.109 26.003 20.2999 25.9394 20.4909C25.8757 20.6818 25.8439 20.8409 26.0985 20.9681C26.0666 20.9999 25.9712 20.9999 25.9394 20.9681C26.0348 21.7318 26.3212 22.4636 26.8303 23.0363C27.3075 23.609 28.0075 24.0227 28.7394 24.2136C29.0575 24.1818 29.3757 24.1181 29.6621 24.0863C29.9485 24.0545 30.2348 24.0545 30.5212 24.0545C31.0939 24.0545 31.6985 24.0545 32.2394 23.8954V23.9909C33.703 23.7045 35.2621 24.0227 36.7575 23.959C37.3939 23.9909 37.8075 23.8954 38.4439 23.8954V23.9909C39.4939 23.609 40.6712 24.3409 41.7848 23.9272L41.7212 24.0545C41.8803 23.8636 42.3257 24.0863 42.3257 23.7999H42.4212L42.5166 23.8636C42.5485 23.8318 42.5803 23.8318 42.6121 23.7999H43.853C44.1075 23.8636 44.3939 23.8636 44.6803 23.7999H44.7757L44.7439 23.8636C44.8075 23.8318 44.903 23.8318 44.9666 23.7999H45.4121H45.4439C45.4121 23.7999 45.4439 23.8318 45.3803 23.8636C46.1439 24.2136 47.003 23.8318 47.8303 23.8318L47.7348 23.9909C48.1166 23.7999 48.8485 23.9909 49.3575 23.8954L49.3257 23.959L49.5803 23.8636V24.0227C50.2485 24.0227 50.8848 23.8954 51.553 23.8954L51.5212 24.0227C52.1257 23.7681 52.8257 24.0227 53.4621 23.9272L53.4303 23.9909C54.6075 24.0227 55.753 23.9272 56.8985 23.7999H59.1575C60.7166 23.7999 62.0212 22.5272 62.0212 20.9681C62.0848 19.3772 60.8439 18.1363 59.3166 18.0727ZM58.7439 18.0727H58.5212C58.5848 18.0727 58.6803 18.0409 58.7439 18.0727ZM57.853 17.9772L57.8848 17.8499C58.1394 17.8181 57.9166 17.9772 58.1075 18.009C58.1712 18.009 58.1394 17.8181 58.2666 17.8818C58.2666 18.009 58.3303 18.0727 58.3939 18.0727H57.5666C57.6939 17.9454 57.7894 17.8181 57.853 17.9772ZM57.153 18.0727H56.9621C57.0575 18.0727 57.1212 18.0409 57.153 18.0727ZM53.2394 18.009C53.7166 17.8499 54.2257 17.9454 54.7348 18.0727H46.1439C46.4939 18.009 46.8439 17.9454 47.1939 17.9136C49.2303 18.1363 51.2666 17.5636 53.2394 18.009ZM40.6075 18.0409C40.6394 18.0409 40.6712 18.0409 40.703 18.0727H38.7303C39.3985 17.9772 40.0348 17.8499 40.6075 18.0409ZM36.6621 18.0727H35.103C35.6121 18.0409 36.1212 18.0409 36.6621 18.0727Z" fill="#654F96"/>
<path d="M58.4266 17.4048C58.4266 17.3727 58.3622 17.3727 58.3301 17.3727C58.3944 17.3727 58.4266 17.3727 58.4266 17.4048Z" fill="#654F96"/>
<path d="M29.7893 27.4909C29.5665 27.5864 29.3438 27.65 29.0893 27.6818C28.8347 27.7455 28.5802 27.7773 28.3574 27.8727C27.8802 28.0318 27.4029 28.35 27.212 28.7955L27.1483 28.7318C26.8302 29.2727 26.5756 29.8455 26.4483 30.4818C26.3529 31.0864 26.4165 31.7864 26.7983 32.3273C27.0529 32.8045 27.4029 32.9955 27.8165 33.2818L27.7847 33.3773C28.262 33.4409 28.6438 33.6636 29.1211 33.7909C29.5983 33.8864 30.0438 33.95 30.4893 33.7591L30.4256 33.8864C30.5529 33.6955 30.9029 33.9182 30.9029 33.6318H30.9665L31.062 33.6955C31.0938 33.6636 31.1256 33.6636 31.1574 33.6318H32.1756C32.3665 33.6955 32.5893 33.6955 32.8438 33.6318H32.9393L32.9074 33.6955C32.9711 33.6636 33.0347 33.6636 33.0983 33.6318H33.4483H33.4802C33.4483 33.6318 33.4802 33.6636 33.4165 33.6955C34.0529 34.0455 34.7211 33.6636 35.3893 33.6636L35.3256 33.8227C35.6438 33.6318 36.2165 33.8227 36.6302 33.7273L36.5983 33.7909L36.8211 33.6955V33.8545C37.362 33.8545 37.8711 33.7273 38.412 33.7273L38.3802 33.8545C38.8574 33.6 39.4302 33.8545 39.9393 33.7591L39.9074 33.8227C40.862 33.8545 41.7847 33.7591 42.7074 33.6318H51.712C51.712 33.7273 51.712 33.8227 51.8074 33.9182L51.8393 33.7591C51.9029 33.9182 51.9029 33.8545 51.9347 33.9818C52.0938 33.9818 52.1574 34.0455 52.2529 34.1091C52.3483 34.1727 52.412 34.2682 52.5392 34.2682C52.5392 34.2682 52.5392 34.2682 52.5392 34.2364C52.6347 34.0136 52.8574 34.0773 52.9847 34.0455L53.0802 34.1091C53.2393 34.2682 53.2393 33.6 53.3029 33.95C53.8438 33.6 54.3847 33.1227 54.7347 32.4864C54.6711 32.3273 54.9893 32.0091 54.7029 32.0409C55.0211 32.0091 55.2756 31.5 55.2756 31.2773C55.3074 31.2773 55.3393 31.3091 55.3074 31.3409C55.5302 31.1818 55.4347 31.0227 55.3711 30.9273C55.3074 30.8 55.2438 30.7045 55.4347 30.5136C55.2756 30.4818 55.2756 30.3227 55.2756 30.1318C55.2438 29.9409 55.212 29.7182 54.9893 29.6864C55.0529 29.6227 55.0847 29.5909 55.1483 29.5909C54.9574 28.9545 54.5756 28.2864 54.0983 27.9045C53.812 27.8727 53.5893 27.6818 53.3347 27.5227C53.0802 27.3636 52.7938 27.2682 52.5711 27.4273C52.5074 27.3955 52.412 27.3318 52.3165 27.3C52.2211 27.2682 52.0938 27.2045 51.9665 27.2045C51.712 27.1409 51.5211 27.1727 51.3302 27.2364L51.362 27.2045C50.9165 27.2364 50.4074 27.2364 50.0893 27.4909C49.962 27.1091 49.7711 27.2045 49.5802 27.0773C49.2938 27.2364 48.7211 27.2045 48.2756 27.3636C48.212 27.2045 47.9256 27.4273 47.8938 27.2045C46.6529 27.6818 45.1574 27.5227 43.8211 27.1409C43.662 27.2682 43.4711 27.5545 43.312 27.7455C43.2802 27.7136 43.312 27.6818 43.3438 27.6818C43.0893 27.7136 42.8665 27.4909 42.6438 27.5227C42.6438 27.4909 42.6438 27.4909 42.6756 27.4591C42.4529 27.5545 42.1983 27.2682 41.9438 27.4591V27.3955L41.7847 27.4909C41.7847 27.3955 41.7847 27.3 41.8802 27.3C39.812 27.2364 37.712 27.65 35.5802 27.5864L35.6438 27.5227L35.2302 27.65C35.2302 27.6182 35.262 27.5864 35.262 27.5864C34.7529 27.4591 34.212 27.6818 33.7029 27.65C33.7029 27.6182 33.7665 27.5227 33.7029 27.4909C33.3211 27.7136 33.0983 27.2045 32.9074 27.65C32.8756 27.6182 32.8756 27.5227 32.9074 27.4909C31.9211 27.5545 30.8393 27.5545 29.7893 27.4909ZM52.1256 33.6C52.1893 33.6 52.2529 33.6 52.3165 33.5682H52.2847C52.2211 33.6 52.1574 33.6318 52.1256 33.6ZM52.8574 33.5364L52.8893 33.6636C52.6983 33.7591 52.8256 33.5682 52.6665 33.5682C52.6029 33.6 52.6983 33.7591 52.5711 33.7591C52.5393 33.6318 52.4756 33.6 52.412 33.6C52.6347 33.5364 52.8256 33.4727 53.0165 33.3773C52.9847 33.4727 52.9847 33.6318 52.8574 33.5364ZM53.3029 33.1545C53.3347 33.1227 53.3983 33.0909 53.4302 33.0591C53.3983 33.1227 53.3665 33.1545 53.3029 33.1545ZM52.2211 27.8727C52.6347 27.9364 53.0802 28.0636 53.462 28.2864C53.8438 28.5091 54.162 28.8273 54.3847 29.2091C54.6074 29.5909 54.7029 30.0364 54.6393 30.45C54.8302 30.8318 54.7029 31.2773 54.4802 31.6273C54.4802 31.6273 54.4802 31.6273 54.4802 31.6591C54.5756 31.4045 54.6074 31.1182 54.6074 30.8318C54.6074 29.2727 53.3347 28 51.7438 28H50.1211C50.4074 27.9364 50.662 27.8727 50.9483 27.8409C51.362 27.8409 51.7756 27.8091 52.2211 27.8727ZM45.6347 27.9364C45.6665 27.9364 45.6665 27.9364 45.6983 27.9682H44.1074C44.6802 27.8409 45.1893 27.7136 45.6347 27.9364ZM42.4529 27.9364H41.212C41.6256 27.9045 42.0393 27.9045 42.4529 27.9364Z" fill="#654F96"/>
<path d="M52.6038 34.2364C52.5717 34.2364 52.5395 34.2364 52.5073 34.2364C52.5395 34.2686 52.5717 34.2364 52.6038 34.2364Z" fill="#654F96"/>
<path d="M71.28 20.9363C71.28 22.4954 72.5209 23.7681 74.1118 23.7681C74.1118 23.8636 74.1118 23.9591 74.1755 24.0545L74.2073 23.8954C74.2391 24.0545 74.2391 23.9909 74.2391 24.1181C74.3664 24.15 74.3982 24.3727 74.4937 24.5C74.4937 24.5 74.4937 24.5 74.4937 24.4681C74.5573 24.2772 74.6528 24.3727 74.7164 24.4045L74.7482 24.5C74.78 24.6909 74.9073 24.1181 74.8755 24.4681C75.1618 24.3727 75.48 24.3727 75.7664 24.3727C75.7982 24.2454 75.9891 24.3727 75.9255 24.15C75.9891 24.4363 76.2437 24.5 76.3073 24.5C76.3073 24.5318 76.3073 24.5636 76.2755 24.5318C76.4346 24.9136 76.4664 24.1818 76.6255 24.6272C76.6573 24.3091 76.9118 24.7227 77.0073 24.3409C77.0391 24.4045 77.0391 24.4681 77.0391 24.5318C77.3255 24.5318 77.6118 24.6591 77.8664 24.6591C78.0573 24.3727 78.3437 24.7863 78.5346 24.4045C78.6618 24.5 78.9164 24.6591 79.1073 24.5L79.0755 24.5318C79.2982 24.5 79.5846 24.5 79.7437 24.2454C79.8073 24.6272 79.9028 24.5318 79.9982 24.6591C80.1573 24.5 80.4437 24.5318 80.6664 24.3727C80.6982 24.5318 80.8573 24.3091 80.8573 24.5318C81.0164 24.4045 81.1755 24.3409 81.3664 24.2772C81.4618 24.2454 81.5573 24.2454 81.6209 24.2454C81.7164 24.2454 81.8437 24.2136 81.9391 24.2136C82.3528 24.2136 82.83 24.2136 83.3073 24.15C83.3391 23.9909 83.3073 23.6727 83.3073 23.4818C83.3391 23.4818 83.3391 23.5136 83.3391 23.5454C83.4346 23.45 83.6891 23.5454 83.7528 23.4181C83.7846 23.45 83.7846 23.45 83.7846 23.4818C83.8164 23.3227 84.1346 23.45 84.1028 23.1636L84.1664 23.1954V23.0681C84.23 23.1318 84.3255 23.1954 84.2618 23.2272C84.5164 23.0045 84.6755 22.6863 84.8028 22.3681C84.93 22.05 84.9937 21.7 84.9937 21.3818C85.0255 20.7136 84.8346 20.0772 84.6119 19.5045H84.7073C84.6437 19.4409 84.5482 19.3772 84.4846 19.3454C84.5164 19.3136 84.5482 19.3136 84.58 19.3454C84.5482 18.9954 84.1664 18.8363 83.9755 18.6136C84.0073 18.5818 84.1028 18.5818 84.1028 18.5181C83.9437 18.5181 83.9118 18.3909 83.88 18.3272C83.8482 18.2318 83.8164 18.2 83.6255 18.3272C83.6255 18.2954 83.6891 18.2318 83.7209 18.2C83.1164 17.9136 82.5437 17.6909 81.9073 17.5636C81.6209 17.7545 81.3982 17.7863 81.1437 17.7545C80.8891 17.7545 80.6346 17.7545 80.4118 17.9136V17.8181C79.8073 18.1045 79.1391 17.7863 78.5028 17.85C78.2482 17.8181 78.0573 17.9136 77.8028 17.9136V17.8181C77.3573 18.2 76.8482 17.4681 76.3709 17.8818L76.4028 17.7545C76.3391 17.9454 76.1482 17.7227 76.1482 18.0091H76.1164L76.0846 17.9454C76.0846 17.9772 76.0528 17.9772 76.0528 18.0091H75.5118C75.4164 17.9454 75.2891 17.9454 75.1618 18.0091H75.13V17.9454C75.0982 17.9772 75.0664 17.9772 75.0346 18.0091H74.8437C74.8437 18.0091 74.8437 18.0091 74.8118 18.0091C74.8118 18.0091 74.8118 17.9772 74.8437 17.9454C74.5255 17.5954 74.1437 17.9772 73.7937 18.0091L73.8255 17.85C73.6664 18.0727 73.3482 17.9454 73.1573 18.1363V18.0727L73.0937 18.2L73.03 18.0727C72.7437 18.2 72.5528 18.4545 72.3618 18.6454L72.2982 18.5181C72.2664 18.7091 72.1709 18.8045 72.0437 18.9C71.9164 18.9954 71.8209 19.0909 71.7573 19.25L71.7255 19.2181C71.5028 19.5045 71.3755 19.8545 71.3755 20.2045C71.3755 20.3636 71.3755 20.4909 71.3755 20.65C71.3118 20.7454 71.28 20.8409 71.28 20.9363ZM74.3346 23.7681H74.43C74.3982 23.7681 74.3664 23.8 74.3346 23.7681ZM74.7164 23.8954V24.0227C74.6209 24.0545 74.7164 23.8954 74.6209 23.8636C74.5891 23.8636 74.6209 24.0545 74.5573 23.9909C74.5573 23.8636 74.5255 23.8 74.4937 23.8H74.8437C74.8118 23.8954 74.7482 24.0227 74.7164 23.8954ZM75.0028 23.7681H75.0982C75.0664 23.8 75.0346 23.8 75.0028 23.7681ZM79.2346 23.9272C78.3755 23.7045 77.5164 24.2772 76.6573 23.8318C76.4664 23.9909 76.2437 23.8954 76.0209 23.7681H79.6482C79.5209 23.8318 79.3937 23.8954 79.2346 23.9272ZM82.0346 23.7681C82.0346 23.7681 82.0028 23.7681 82.0028 23.7363C82.2891 23.7045 82.5437 23.6091 82.7982 23.5136C82.5755 23.7363 82.2891 23.9272 82.0346 23.7681ZM83.4982 23.0363C83.6573 22.8772 83.8164 22.7181 83.9437 22.5591C83.8482 22.75 83.6891 22.9409 83.4982 23.0363Z" fill="#654F96"/>
<path d="M74.5264 24.5009L74.4937 24.4681C74.4937 24.5009 74.4937 24.4681 74.5264 24.5009Z" fill="#654F96"/>
<path d="M84.5801 29.4318H84.6756C84.6119 29.3682 84.5165 29.3045 84.4528 29.2727C84.4847 29.2409 84.5165 29.2409 84.5483 29.2727C84.5165 28.9227 84.1347 28.7636 83.9438 28.5409C83.9756 28.5091 84.071 28.5091 84.071 28.4455C83.9119 28.4455 83.8801 28.3182 83.8483 28.2545C83.8165 28.1591 83.7847 28.1273 83.5938 28.2545C83.5938 28.2227 83.6574 28.1591 83.6892 28.1273C83.0847 27.8409 82.5119 27.6182 81.8756 27.4909C81.5892 27.6818 81.3665 27.7136 81.1119 27.6818C80.8574 27.6818 80.6028 27.6818 80.3801 27.8409V27.7454C79.7756 28.0318 79.1074 27.7136 78.471 27.7773C78.2165 27.7455 78.0256 27.8409 77.771 27.8409V27.7454C77.3256 28.1273 76.8165 27.3955 76.3392 27.8091L76.371 27.6818C76.3074 27.8727 76.1165 27.65 76.1165 27.9364H76.0847L76.0528 27.8727C76.0528 27.9045 76.021 27.9045 76.021 27.9364H75.4801C75.3847 27.8727 75.2574 27.8727 75.1301 27.9364H75.0983V27.8727C75.0665 27.9045 75.0347 27.9045 75.0028 27.9364H74.8119C74.8119 27.9364 74.8119 27.9364 74.7801 27.9364C74.7801 27.9364 74.7801 27.9045 74.8119 27.8727C74.4937 27.5227 74.1119 27.9045 73.7619 27.9364L73.7937 27.7773C73.6347 28 73.3165 27.8727 73.1256 28.0636V28L73.0619 28.1273L72.9983 28C72.7119 28.1273 72.521 28.3818 72.3301 28.5727L72.2665 28.4455C72.2347 28.6364 72.1392 28.7318 72.0119 28.8273C71.8847 28.9227 71.7892 29.0182 71.7256 29.1773L71.6938 29.1455C71.471 29.4318 71.3438 29.7818 71.3438 30.1318C71.3438 30.2909 71.3438 30.4182 71.3438 30.5773C71.3438 30.6727 71.3438 30.7682 71.3438 30.8636C71.3438 32.4227 72.5847 33.6955 74.1756 33.6955C74.1756 33.7909 74.1756 33.8864 74.2392 33.9818L74.271 33.8227C74.3028 33.9818 74.3028 33.9182 74.3028 34.0455C74.4301 34.0773 74.4619 34.3 74.5574 34.4273C74.5574 34.4273 74.5574 34.4273 74.5574 34.3955C74.621 34.2045 74.7165 34.3 74.7801 34.3318L74.8119 34.4273C74.8437 34.6182 74.971 34.0455 74.9392 34.3955C75.2256 34.3 75.5438 34.3 75.8301 34.3C75.8619 34.1727 76.0528 34.3 75.9892 34.0773C76.0528 34.3636 76.3074 34.4273 76.371 34.4273C76.371 34.4591 76.371 34.4909 76.3392 34.4591C76.4983 34.8409 76.5301 34.1091 76.6892 34.5545C76.721 34.2364 76.9756 34.65 77.071 34.2682C77.1028 34.3318 77.1028 34.3955 77.1028 34.4591C77.3892 34.4591 77.6756 34.5864 77.9301 34.5864C78.121 34.3 78.4074 34.7136 78.5983 34.3318C78.7256 34.4273 78.9801 34.5864 79.171 34.4273L79.1392 34.4591C79.3619 34.4273 79.6483 34.4273 79.8074 34.1727C79.871 34.5545 79.9665 34.4591 80.0619 34.5864C80.221 34.4273 80.5074 34.4591 80.7301 34.3C80.7619 34.4591 80.921 34.2364 80.921 34.4591C81.0801 34.3318 81.2392 34.2682 81.4301 34.2045C81.5256 34.1727 81.621 34.1727 81.6847 34.1727C81.7801 34.1727 81.9074 34.1409 82.0028 34.1409C82.4165 34.1409 82.8937 34.1409 83.371 34.0773C83.4028 33.9182 83.371 33.6 83.371 33.4091C83.4028 33.4091 83.4028 33.4409 83.4028 33.4727C83.4983 33.3773 83.7528 33.4727 83.8165 33.3455C83.8483 33.3773 83.8483 33.3773 83.8483 33.4091C83.8801 33.25 84.1983 33.3773 84.1665 33.0909L84.2301 33.1227V32.9954C84.2937 33.0591 84.3892 33.1227 84.3256 33.1545C84.5801 32.9318 84.7392 32.6136 84.8665 32.2955C84.9937 31.9773 85.0574 31.6273 85.0574 31.3091C84.9938 30.6727 84.8347 30.0364 84.5801 29.4318ZM74.3347 33.6318H74.4301C74.3983 33.6636 74.3665 33.6636 74.3347 33.6318ZM74.7165 33.7591V33.8864C74.621 33.9182 74.7165 33.7591 74.621 33.7273C74.5892 33.7273 74.621 33.9182 74.5574 33.8545C74.5574 33.7273 74.5256 33.6636 74.4937 33.6636H74.8438C74.8119 33.7591 74.7483 33.8864 74.7165 33.7591ZM75.0028 33.6318H75.0983C75.0665 33.6636 75.0347 33.6636 75.0028 33.6318ZM79.2347 33.8227C78.3756 33.6 77.5165 34.1727 76.6574 33.7273C76.4665 33.8864 76.2437 33.7909 76.021 33.6636H79.6483C79.521 33.6955 79.3938 33.7591 79.2347 33.8227ZM82.0347 33.6318H82.0028C82.2892 33.6 82.5437 33.5045 82.7983 33.4091C82.5756 33.6 82.2892 33.7909 82.0347 33.6318ZM83.4983 32.9C83.6574 32.7409 83.8165 32.5818 83.9438 32.4227C83.8483 32.6136 83.6892 32.8045 83.4983 32.9Z" fill="#654F96"/>
<path d="M74.5264 34.3646L74.4937 34.3318C74.4937 34.3646 74.4937 34.3646 74.5264 34.3646Z" fill="#654F96"/>
<path d="M59.3164 64.05C59.3164 63.9546 59.3164 63.8591 59.1891 63.7637L59.1255 63.9228C59.03 63.7637 59.0618 63.8273 59.03 63.7C58.7118 63.6682 58.68 63.4455 58.4255 63.3182C58.4255 63.3182 58.4255 63.3182 58.4255 63.35C58.2664 63.5409 58.0437 63.4455 57.9164 63.4137L57.8528 63.3182C57.7891 63.1273 57.5028 63.7 57.5982 63.35C56.9618 63.4455 56.1982 63.4455 55.4664 63.4455C55.3709 63.5728 54.9255 63.4455 55.0846 63.6682C54.8937 63.3818 54.3528 63.3182 54.1618 63.3182C54.1618 63.2864 54.1937 63.2546 54.1937 63.2864C53.8118 62.9046 53.7164 63.6364 53.3664 63.1909C53.3028 63.5091 52.6982 63.0955 52.5073 63.4773C52.4755 63.4137 52.4437 63.35 52.4755 63.2864C51.8073 63.2864 51.1073 63.1591 50.5346 63.1591C50.0573 63.4455 49.3891 63.0318 48.9755 63.4137C48.6255 63.3182 48.0846 63.1591 47.6073 63.3182L47.6391 63.2864C47.0982 63.3182 46.43 63.3182 46.08 63.5728C45.9209 63.1909 45.6982 63.2864 45.4755 63.1591C45.1255 63.3182 44.3937 63.2864 43.8528 63.4455C43.7573 63.2864 43.4073 63.5091 43.3755 63.2864C41.8482 63.7637 39.9709 63.6046 38.3482 63.2228C38.1573 63.35 37.9028 63.6364 37.7118 63.8273C37.68 63.7955 37.68 63.7637 37.7437 63.7637C37.4573 63.7955 37.1709 63.5728 36.8846 63.6046C36.8846 63.5728 36.8846 63.5728 36.9482 63.5409C36.6618 63.6364 36.3755 63.35 36.0573 63.5409L36.0255 63.4773L35.8028 63.5728C35.8028 63.4773 35.8028 63.3818 35.93 63.3818C34.6573 63.35 33.3528 63.4137 32.0482 63.5091C31.4118 63.5409 30.7437 63.6046 30.0755 63.6364L29.5982 63.6682H29.3437L29.0573 63.7C28.6755 63.7318 28.3255 63.8273 27.9755 63.9864C28.0073 63.9546 28.0073 63.8909 28.0391 63.8591C27.88 63.9864 27.7209 64.1137 27.5937 64.2409C27.5618 64.2091 27.5937 64.1773 27.5937 64.1455C27.2437 64.2728 26.9573 64.5591 26.7346 64.8773C26.5119 65.1955 26.3846 65.5455 26.2573 65.8637C26.2255 65.8637 26.1937 65.7046 26.0982 65.8C26.0982 66.0864 26.0028 66.2773 25.9391 66.4682C25.8755 66.6591 25.8437 66.8182 26.0982 66.9455C26.0664 66.9773 25.9709 66.9773 25.9391 66.9455C26.0346 67.7091 26.3209 68.4409 26.83 69.0137C27.3073 69.5864 28.0073 70 28.7391 70.1909C29.0573 70.1591 29.3755 70.0955 29.6618 70.0637C29.9482 70.0318 30.2346 70.0318 30.5209 70.0318C31.0937 70.0318 31.6982 70.0318 32.2391 69.8728V69.9682C33.7028 69.6818 35.2619 70 36.7573 69.9364C37.3937 69.9682 37.8073 69.8728 38.4437 69.8728V69.9682C39.4937 69.5864 40.6709 70.3182 41.7846 69.9046L41.7528 70C41.9118 69.8091 42.3573 70.0318 42.3573 69.7455H42.4528L42.5482 69.8091C42.58 69.7773 42.6118 69.7773 42.6437 69.7455H43.8846C44.1391 69.8091 44.4255 69.8091 44.7118 69.7455H44.8073L44.7755 69.8091C44.8391 69.7773 44.9346 69.7773 44.9982 69.7455H45.4437H45.4755C45.4437 69.7455 45.4755 69.7773 45.4118 69.8091C46.1755 70.1591 47.0346 69.7773 47.8618 69.7773L47.7664 69.9364C48.1482 69.7455 48.88 69.9364 49.3891 69.8409L49.3573 69.9046L49.6118 69.8091V69.9682C50.28 69.9682 50.9164 69.8409 51.5846 69.8409L51.5528 69.9682C52.1573 69.7137 52.8573 69.9682 53.4937 69.8728L53.4618 69.9364C54.6391 69.9682 55.7846 69.8728 56.93 69.7455H59.1891C60.7482 69.7455 62.0528 68.4728 62.0528 66.9137C62.0846 65.3546 60.8437 64.1137 59.3164 64.05ZM58.7437 64.05H58.5209C58.5846 64.05 58.68 64.0182 58.7437 64.05ZM57.8528 63.9546L57.8846 63.8273C58.1391 63.7955 57.9164 63.9546 58.1073 63.9864C58.1709 63.9864 58.1391 63.7955 58.2664 63.8591C58.2664 63.9864 58.33 64.05 58.3937 64.05H57.5664C57.6937 63.9228 57.7891 63.7955 57.8528 63.9546ZM57.1528 64.05H56.9618C57.0573 64.0182 57.1209 64.0182 57.1528 64.05ZM53.2391 63.9864C53.7164 63.8273 54.2255 63.9228 54.7346 64.05H46.1437C46.4937 63.9864 46.8437 63.9228 47.1937 63.8909C49.23 64.1137 51.2664 63.5409 53.2391 63.9864ZM40.6073 64.0182C40.6391 64.0182 40.6709 64.0182 40.7028 64.05H38.73C39.3982 63.9546 40.0346 63.8273 40.6073 64.0182ZM36.6618 64.05H35.1028C35.6118 64.0182 36.1209 64.0182 36.6618 64.05Z" fill="#654F96"/>
<path d="M58.4266 63.3503C58.4266 63.3181 58.3622 63.3181 58.3301 63.3181C58.3944 63.3503 58.4266 63.3503 58.4266 63.3503Z" fill="#654F96"/>
<path d="M51.8072 73.9136C51.8072 73.8182 51.8072 73.7227 51.7118 73.6272L51.68 73.7863C51.6163 73.6272 51.6163 73.6909 51.6163 73.5636C51.3618 73.5318 51.33 73.3091 51.139 73.1818C51.139 73.1818 51.139 73.1818 51.139 73.2136C51.0118 73.4045 50.8527 73.3091 50.7254 73.2773L50.6936 73.1818C50.63 72.9909 50.4072 73.5636 50.4709 73.2136C49.9618 73.3091 49.3572 73.3091 48.7527 73.3091C48.6572 73.4363 48.3072 73.3091 48.4345 73.5318C48.2754 73.2454 47.8618 73.1818 47.7027 73.1818C47.7027 73.15 47.7027 73.1182 47.7345 73.15C47.4163 72.7682 47.3527 73.5 47.0663 73.0545C47.0345 73.3727 46.5254 72.9591 46.3663 73.3409C46.3345 73.2773 46.3027 73.2136 46.3345 73.15C45.7936 73.15 45.2209 73.0227 44.7754 73.0227C44.3936 73.3091 43.8527 72.8954 43.5027 73.2773C43.2163 73.1818 42.8027 73.0227 42.4209 73.1818L42.4527 73.15C42.0072 73.1818 41.4981 73.1818 41.18 73.4363C41.0527 73.0545 40.8618 73.15 40.6709 73.0227C40.3845 73.1818 39.8118 73.15 39.3663 73.3091C39.3027 73.15 39.0163 73.3727 38.9845 73.15C37.7436 73.6272 36.2481 73.4682 34.9118 73.0863C34.7527 73.2136 34.5618 73.5 34.4027 73.6909C34.3709 73.6591 34.4027 73.6272 34.4345 73.6272C34.18 73.6591 33.9572 73.4363 33.7345 73.4682C33.7345 73.4363 33.7345 73.4363 33.7663 73.4045C33.5436 73.5 33.289 73.2136 33.0345 73.4045V73.3409L32.8754 73.4363C32.8754 73.3409 32.8754 73.2454 32.9709 73.2454C31.9527 73.2136 30.9027 73.2773 29.8527 73.3727L29.4709 73.4045C29.3436 73.4045 29.1527 73.4363 29.0254 73.4682C28.7072 73.5318 28.4209 73.6273 28.1345 73.7545C27.5936 74.0091 27.1163 74.4227 26.7345 74.9V74.7727C26.6709 74.9318 26.6391 75.0909 26.5754 75.25C26.5436 75.2182 26.5436 75.1863 26.5436 75.1863C26.3209 75.4091 26.2254 75.7273 26.1936 76.0454C26.1618 76.3636 26.1618 76.65 26.1618 76.9363C26.13 76.9363 26.0345 76.8409 26.0027 76.9363C26.13 77.1591 26.0663 77.3182 26.0663 77.4773C26.0663 77.6363 26.0663 77.7636 26.3209 77.7954C26.3209 77.8273 26.2254 77.8591 26.1618 77.8273C26.6709 78.9727 27.689 79.8318 28.8981 80.0863C29.1527 80.0227 29.4072 79.9591 29.63 79.9272C29.8527 79.8954 30.1072 79.8954 30.33 79.8954C30.8072 79.8954 31.2845 79.8954 31.73 79.7363V79.8318C32.9072 79.5454 34.1481 79.8636 35.389 79.8C35.8981 79.8318 36.2481 79.7363 36.7572 79.7363V79.8318C37.6163 79.45 38.5709 80.1818 39.4618 79.7682L39.3981 79.8954C39.5254 79.7045 39.8754 79.9273 39.8754 79.6409H39.939L40.0345 79.7045C40.0663 79.6727 40.0981 79.6727 40.13 79.6409H41.1481C41.3391 79.7045 41.5618 79.7045 41.8163 79.6409H41.9118L41.88 79.7045C41.9436 79.6727 42.0072 79.6727 42.0709 79.6409H42.4209H42.4527C42.4209 79.6409 42.4527 79.6727 42.389 79.7045C43.0254 80.0545 43.6936 79.6727 44.3618 79.6727L44.2981 79.8318C44.6163 79.6409 45.1891 79.8318 45.6027 79.7363L45.5709 79.8L45.7936 79.7045V79.8636C46.3345 79.8636 46.8436 79.7363 47.3845 79.7363L47.3527 79.8636C47.83 79.6091 48.4027 79.8636 48.9118 79.7682L48.88 79.8318C49.5481 79.8636 50.1845 79.8 50.8209 79.7363C51.1072 79.7045 51.3936 79.6727 51.68 79.6409H51.7754C53.3345 79.6409 54.639 78.3682 54.639 76.8091C54.5754 75.2182 53.3345 73.9454 51.8072 73.9136ZM51.3618 73.9136H51.1709C51.2345 73.9136 51.2981 73.8818 51.3618 73.9136ZM50.63 73.8182L50.6618 73.6909C50.8527 73.6591 50.6936 73.8182 50.8209 73.85C50.8845 73.85 50.8527 73.6591 50.9481 73.7227C50.9481 73.85 51.0118 73.9136 51.0436 73.9136H50.3754C50.5027 73.7863 50.5663 73.6909 50.63 73.8182ZM50.089 73.9136H49.93C49.9936 73.9136 50.0254 73.8818 50.089 73.9136ZM46.9072 73.85C47.289 73.6909 47.7027 73.7863 48.1163 73.9136H41.18C41.4663 73.85 41.7209 73.7863 42.0072 73.7545C43.6618 73.9773 45.3163 73.4045 46.9072 73.85ZM36.6936 73.9136C36.7254 73.9136 36.7254 73.9136 36.7572 73.9454H35.1663C35.739 73.8182 36.2481 73.6909 36.6936 73.9136ZM33.5118 73.9136H32.2709C32.6845 73.8818 33.0981 73.8818 33.5118 73.9136Z" fill="#654F96"/>
<path d="M51.108 73.2458C51.108 73.2136 51.0759 73.2136 51.0437 73.2136C51.0759 73.2136 51.0759 73.2136 51.108 73.2458Z" fill="#654F96"/>
<path d="M99.1211 57.6864L98.9302 57.7819C99.0256 57.8137 99.0893 57.75 99.1211 57.6864Z" fill="#654F96"/>
<path d="M99.6938 55.7454C99.7257 55.5864 99.7257 55.4909 99.6938 55.3954C99.7257 55.4909 99.7257 55.6182 99.6938 55.7454Z" fill="#654F96"/>
<path d="M99.1846 59.0863L99.2164 59.4363C99.1846 59.309 99.1846 59.1818 99.1846 59.0863Z" fill="#654F96"/>
<path d="M108.571 69.0135C108.507 69.0135 108.38 69.0136 108.221 69.0454C108.475 69.109 108.666 69.1726 108.953 69.2363C108.857 69.2045 108.794 69.109 108.73 69.0772C108.698 69.0454 108.635 69.0135 108.571 69.0135Z" fill="#654F96"/>
<path d="M99.3438 61.0591L99.4074 60.7727C99.4074 60.7727 99.4074 60.7727 99.4074 60.7409C99.3438 60.8364 99.312 60.9318 99.3438 61.0591Z" fill="#654F96"/>
<path d="M99.7262 55.4282V55.3954C99.6935 55.3954 99.6935 55.3954 99.7262 55.4282Z" fill="#654F96"/>
<path d="M109.207 69.2363C109.112 69.2363 109.048 69.2363 108.953 69.2045C109.048 69.2682 109.112 69.2682 109.207 69.2363Z" fill="#654F96"/>
<path d="M99.9165 77.7318C99.9801 77.6363 100.012 77.5091 100.076 77.35C100.012 77.4136 99.9165 77.4772 99.9165 77.7318Z" fill="#654F96"/>
<path d="M96.7983 80.2137C96.8305 80.2137 96.8305 80.2458 96.8627 80.2458C96.8305 80.2137 96.8305 80.2137 96.7983 80.2137Z" fill="#654F96"/>
<path d="M95.4619 71.4C95.4301 71.4636 95.3983 71.5272 95.3665 71.6227C95.4301 71.6227 95.4619 71.5272 95.4619 71.4Z" fill="#654F96"/>
<path d="M95.2073 69.1091C95.2073 69.3 95.2073 69.4909 95.2073 69.65C95.2391 69.4909 95.2391 69.3319 95.2073 69.1091Z" fill="#654F96"/>
<path d="M95.3982 55.8728C95.3664 55.7455 95.3346 55.7137 95.3027 55.7137C95.3027 55.7773 95.3346 55.841 95.3982 55.8728Z" fill="#654F96"/>
<path d="M95.7173 54.9183C95.6846 54.951 95.6846 54.951 95.6846 54.951L95.7173 54.9183Z" fill="#654F96"/>
<path d="M99.6937 77.3181C99.8209 77.1272 99.6618 77.0318 99.6618 76.7772C99.6618 76.9999 99.4709 77.6045 99.6937 77.3181Z" fill="#654F96"/>
<path d="M100.012 75.5363C100.012 75.5045 100.044 75.4409 100.076 75.4091C100.044 75.4409 100.044 75.4727 100.012 75.5363Z" fill="#654F96"/>
<path d="M99.9482 75.9819C99.9482 75.7909 99.9801 75.6319 100.044 75.5046C99.9482 75.7273 99.9482 75.8546 99.9482 75.9819Z" fill="#654F96"/>
<path d="M99.9482 75.9818C99.9164 76.2364 99.9482 76.5545 99.9801 76.9364C100.044 76.4591 99.9482 76.2364 99.9482 75.9818Z" fill="#654F96"/>
<path d="M99.9164 70.7001C99.9164 70.5092 99.9164 70.2546 100.012 70.1592C99.7891 70.5092 99.63 70.4455 99.5664 71.4319C99.63 71.3683 99.6937 70.8592 99.7573 70.6046C99.8209 70.3501 99.8846 70.3501 99.9482 71.0501C99.9482 71.0501 99.9164 70.891 99.9164 70.7001Z" fill="#654F96"/>
<path d="M100.935 69.7136C101.03 69.6818 101.157 69.6818 101.285 69.6818C101.189 69.6818 101.062 69.6818 100.935 69.7136Z" fill="#654F96"/>
<path d="M109.876 65.8001C109.939 65.7364 109.844 65.6091 109.812 65.5773C109.717 65.5137 109.43 65.3546 109.557 65.5137C109.653 65.5773 109.748 65.6728 109.876 65.8001Z" fill="#654F96"/>
<path d="M107.998 64.5909L107.457 64.4636L107.426 64.7818C107.712 64.8136 107.394 64.5909 107.998 64.5909Z" fill="#654F96"/>
<path d="M105.58 65.2272L105.166 64.8772C105.103 64.8772 105.103 65.1636 105.58 65.2272Z" fill="#654F96"/>
<path d="M102.971 65.1318H102.239L103.289 65.2272L102.971 65.1318Z" fill="#654F96"/>
<path d="M99.2483 63.9227L99.1528 65.0364H99.2165L99.4392 64.9727H99.2483V63.9227Z" fill="#654F96"/>
<path d="M90.9755 64.6863C91.4527 64.3363 92.1527 64.8136 92.3755 64.4318C92.0573 64.4954 90.88 64.3999 90.9755 64.6863Z" fill="#654F96"/>
<path d="M92.9164 69.0136C92.8528 69.0136 92.7891 69.0136 92.6937 69.0136C92.6619 69.0136 92.5982 69.0136 92.5346 69.0136C92.5028 69.0136 92.4391 69.0136 92.3755 69.0454L93.8073 69.109C93.2346 69.0772 93.1709 69.0454 93.0755 69.0136C93.0437 69.0136 93.0118 68.9818 92.9164 69.0136Z" fill="#654F96"/>
<path d="M57.6301 7.82727L58.0119 8.01818C58.171 7.95454 57.9801 7.89091 57.6301 7.82727Z" fill="#654F96"/>
<path d="M48.8164 7.22272C49.1982 7.22272 49.6755 7.25453 50.3119 7.25453C49.6437 7.22272 49.2619 7.22272 48.8164 7.22272Z" fill="#654F96"/>
<path d="M63.0073 7.79549L64.3119 7.76367C63.8664 7.76367 63.421 7.79549 63.0073 7.79549Z" fill="#654F96"/>
<path d="M75.4165 49.3819C76.021 48.7137 76.8165 47.8546 77.7392 47.0273C77.1983 47.4728 76.8483 47.441 75.4165 49.3819Z" fill="#654F96"/>
<path d="M70.5799 7.63633L69.5299 7.57269C69.4981 7.57269 69.4663 7.57269 69.4663 7.57269C69.6572 7.63633 70.0072 7.63633 70.5799 7.63633Z" fill="#654F96"/>
<path d="M78.5347 46.3591C78.2802 46.5818 77.9938 46.8045 77.7393 47.0273C77.9302 46.9 78.1847 46.7091 78.5347 46.3591Z" fill="#654F96"/>
<path d="M94.38 95.8363C94.3164 96.0272 94.2209 96.2818 94.2209 97.2999C94.2846 96.8863 94.3482 96.3772 94.38 95.8363Z" fill="#654F96"/>
<path d="M82.2891 96.7592C82.4482 96.7273 82.6072 96.6637 82.7663 96.6637C82.5754 96.6955 82.4163 96.7273 82.2891 96.7592Z" fill="#654F96"/>
<path d="M48.4663 100.068C48.5936 100.005 48.7845 99.9409 48.9436 99.8455C48.9118 99.7818 48.7209 99.8455 48.4663 100.068Z" fill="#654F96"/>
<path d="M44.6164 102.9C44.2982 103.091 43.9164 103.345 43.3755 103.727C43.8209 103.441 44.2346 103.186 44.6164 102.9Z" fill="#654F96"/>
<path d="M17.0938 7.73187C17.1256 7.92278 17.1256 8.08187 17.1892 8.11369C17.1574 7.89096 17.1256 7.76369 17.0938 7.73187Z" fill="#654F96"/>
<path d="M21.3256 7.92275C21.262 7.92275 21.1983 7.92275 21.1665 7.89093C21.1029 7.89093 21.0392 7.89093 20.9756 7.89093L21.3256 7.92275Z" fill="#654F96"/>
<path d="M93.9665 94.2137C93.9665 94.0864 93.9347 93.9273 93.9347 93.7682C93.9347 93.8637 93.9347 93.9592 93.9347 94.0546C93.9347 94.1819 93.9347 94.341 93.9029 94.4682C93.9029 94.7864 93.8711 95.1364 93.8711 95.391C93.8392 95.9319 93.8711 96.2182 93.9665 95.6455C94.0302 95.2637 94.0302 94.9773 93.9983 94.691C93.9983 94.5637 93.9983 94.4046 93.9665 94.2137Z" fill="#654F96"/>
<path d="M90.7211 92.0181C90.7529 92.0181 90.7529 92.0181 90.7847 92.0499C90.7529 92.0499 90.6893 92.0181 90.6575 92.0181C90.6575 92.0181 90.6893 92.0181 90.7211 92.0181Z" fill="#654F96"/>
<path d="M90.6263 92.0186C90.5942 92.0186 90.5942 92.0186 90.562 91.9864C90.5942 91.9864 90.6263 92.0186 90.6263 92.0186Z" fill="#654F96"/>
<path d="M90.7527 92.05C91.039 92.1455 91.2936 92.2091 91.5163 92.2728C91.8663 92.3682 92.1845 92.4319 92.4709 92.4955C91.9936 92.4001 91.58 92.3046 91.1981 92.1773C91.0709 92.1455 90.9118 92.0819 90.7527 92.05Z" fill="#654F96"/>
<path d="M90.5938 91.9864C90.4984 91.9546 90.4029 91.9228 90.2756 91.8591C90.3711 91.8909 90.4665 91.9546 90.5938 91.9864Z" fill="#654F96"/>
<path d="M94.2209 92.7818V92.8454V92.9409C94.2209 93.0682 94.2209 93.2273 94.2209 93.3863C94.2209 93.6727 94.2528 93.9909 94.2528 94.3091C94.2528 93.8636 94.2846 93.4818 94.2846 93.1318C94.2846 93.0364 94.2846 92.9727 94.2846 92.8773C94.2846 92.8454 94.2846 92.8136 94.2846 92.75V92.6863V92.6545H94.2528C94.0937 92.6545 93.9664 92.6227 93.8391 92.6227C93.5846 92.5909 93.3619 92.5909 93.1391 92.5591C93.0437 92.5591 92.9164 92.5273 92.8209 92.5273C92.6937 92.4954 92.5982 92.4954 92.4709 92.4636C92.5982 92.4954 92.7255 92.5273 92.8528 92.5273C92.98 92.5591 93.0755 92.5591 93.2028 92.5909C93.4573 92.6227 93.7119 92.6545 93.9664 92.6863C94.03 92.6863 94.0937 92.7182 94.1891 92.7182C94.2209 92.75 94.2209 92.7818 94.2209 92.7818Z" fill="#654F96"/>
<path d="M76.6256 83.2999C76.5302 83.2045 76.4665 83.109 76.3711 83.0135C76.5302 83.2045 76.6256 83.2999 76.6256 83.2999Z" fill="#654F96"/>
<path d="M75.3846 81.8683C75.4482 81.9001 75.5437 82.0274 75.7346 82.2819C75.8937 82.4728 76.0846 82.6955 76.3709 83.0137C76.2437 82.8228 76.0209 82.6001 75.83 82.3455C75.4164 81.7728 74.9391 81.1046 74.6846 80.5637C75.0664 81.3592 75.2573 81.741 75.5437 82.2819C75.8618 82.791 76.2755 83.4592 77.2937 84.6046C77.1664 84.4455 76.18 83.2046 75.7028 82.441C75.4164 82.0592 75.2891 81.8046 75.3846 81.8683Z" fill="#654F96"/>
<path d="M71.9482 74.8046C72.0755 75.2182 72.2346 75.6318 72.4573 76.0455C72.2664 75.7273 72.1073 75.2818 71.9482 74.8046Z" fill="#654F96"/>
<path d="M93.3301 33.091V35.8591C93.4255 35.8273 93.4255 34.9046 93.4255 34.5228C93.4255 33.9819 93.3937 31.9455 93.3301 33.091Z" fill="#654F96"/>
<path d="M93.8709 24.2773L93.9982 22.2091L93.68 22.0818C93.6482 23.1955 93.9027 22.05 93.8709 24.2773Z" fill="#654F96"/>
<path d="M93.2346 15.1136L93.5846 13.5863C93.5846 13.2045 93.3301 13.2363 93.2346 15.1136Z" fill="#654F96"/>
<path d="M92.4393 7.98637C92.5347 7.98637 92.5347 7.98637 92.5983 7.98637H92.6938L93.0756 8.01818C92.9483 7.98637 92.7893 7.95455 92.5983 7.92273H89.8938L91.9302 7.98637H92.4393Z" fill="#654F96"/>
<path d="M82.4483 7.73187H79.2983L82.0983 7.82733L82.4483 7.73187Z" fill="#654F96"/>
<path d="M16.6165 46.5182C16.6801 47.8227 16.5846 52.2773 16.871 51.8636C16.4892 50.0818 16.9983 47.4091 16.6165 46.5182Z" fill="#654F96"/>
<path d="M39.5893 104.014C39.3665 103.823 39.2711 103.759 39.1756 103.695C38.9847 103.536 38.7938 103.409 37.3938 102.55L40.8302 104.904C40.512 104.682 40.2893 104.523 40.0983 104.395C39.8756 104.204 39.7165 104.109 39.5893 104.014Z" fill="#654F96"/>
<path d="M9.52099 67.1364L9.33008 67.5819C9.42553 67.7728 9.48917 67.55 9.52099 67.1364Z" fill="#654F96"/>
<path d="M10.1256 56.4454C10.1256 56.9227 10.0938 57.4636 10.0938 58.2591C10.1256 57.4636 10.1574 56.9863 10.1256 56.4454Z" fill="#654F96"/>
<path d="M9.55273 73.6272L9.58455 75.1863C9.58455 74.6772 9.58455 74.1363 9.55273 73.6272Z" fill="#654F96"/>
<path d="M63.3892 109.518C63.9937 110.059 64.0892 110.377 66.5073 111.873C65.6483 111.236 64.5664 110.409 63.3892 109.518Z" fill="#654F96"/>
<path d="M9.74368 82.8226L9.80732 81.5499C9.80732 81.5181 9.80732 81.4863 9.80732 81.4545C9.74368 81.6772 9.71187 82.1226 9.74368 82.8226Z" fill="#654F96"/>
<path d="M62.4028 108.786C62.721 109.041 63.071 109.295 63.3892 109.55C63.1665 109.327 62.8801 109.104 62.4028 108.786Z" fill="#654F96"/>
<path d="M114.044 86.9273C114.266 86.8319 114.553 86.7364 115.476 85.8773C115.094 86.1637 114.616 86.5455 114.044 86.9273Z" fill="#654F96"/>
<path d="M124.544 62.9045C124.544 63.0318 124.576 63.1908 124.607 63.4136L124.544 62.9045Z" fill="#654F96"/>
<path d="M101.094 29.05C101.062 29.2091 101.03 29.4636 100.998 29.6864C101.062 29.6545 101.126 29.4318 101.094 29.05Z" fill="#654F96"/>
<path d="M100.457 38.7227C100.489 38.7227 100.489 38.7227 100.521 38.7227L100.712 38.7545H100.744H100.553L100.457 38.7227Z" fill="#654F96"/>
<path d="M100.712 38.8189C100.744 38.8189 100.776 38.7867 100.776 38.7546H100.712V38.7867C100.712 38.7867 100.712 38.7867 100.712 38.8189Z" fill="#654F96"/>
<path d="M100.713 38.8504V38.8182C100.681 38.8182 100.649 38.8182 100.616 38.8504H100.713Z" fill="#654F96"/>
<path d="M100.84 38.7227H100.807C100.807 38.7227 100.807 38.7227 100.807 38.7555C100.807 38.7555 100.84 38.7555 100.84 38.7227Z" fill="#654F96"/>
<path d="M125.021 59.4364C124.576 57.2727 123.844 55.1727 122.921 53.1682C122.985 53.4227 123.207 53.9955 123.366 54.4091C123.494 54.8545 123.589 55.1409 123.398 54.8227C122.635 53.2318 122.316 52.5955 122.03 51.9591C121.871 51.6409 121.712 51.3545 121.489 50.9409C121.362 50.75 121.235 50.5273 121.044 50.2727C120.948 50.1455 120.853 50.0182 120.757 49.8591C120.662 49.7318 120.535 49.5727 120.407 49.4136C120.662 49.8273 120.885 50.2727 121.107 50.6864C121.012 50.4318 120.757 50.05 121.171 50.6227C121.871 51.5455 122.03 52.0545 121.935 52.1182C121.744 51.8955 121.521 51.5455 121.266 51.1318C121.012 50.7182 120.694 50.2727 120.376 49.7955C120.057 49.35 119.771 48.9045 119.485 48.5227C119.23 48.1409 119.007 47.8227 118.848 47.6C118.148 46.7727 117.703 46.3909 117.48 46.2C117.257 46.0091 117.226 46.0409 117.257 46.1364C117.321 46.3273 117.671 46.8364 117.353 46.5182C116.716 45.6273 115.412 44.4182 113.916 43.3682C112.453 42.2864 110.798 41.3955 109.653 40.7591C110.13 41.0455 110.576 41.3955 111.053 41.7136C109.621 41.0136 108.221 40.4091 106.98 39.9318C106.821 39.8682 106.662 39.8045 106.535 39.7409C106.376 39.6773 106.216 39.6455 106.089 39.5818C105.803 39.4864 105.516 39.3591 105.23 39.2636C104.689 39.1045 104.18 38.9136 103.703 38.7864C103.926 38.8818 104.148 39.0091 104.371 39.1045C103.066 38.7545 101.603 38.5636 101.285 38.5955C101.157 38.5955 101.03 38.5955 100.903 38.5955C100.871 38.2773 100.871 37.8955 100.903 37.5455C100.935 36.8136 100.998 36.0818 101.157 35.2545L101.062 35.7C100.998 33.9182 100.903 31.2455 101.062 29.5909C100.998 29.5591 100.903 29.2409 100.903 28.5091C101.126 27.5864 100.966 25.7409 100.903 23.1318C100.839 24.85 100.553 24.2773 100.489 26.0909C100.203 22.0818 100.807 22.4318 100.807 19.0909C100.648 17.0545 100.648 20.9045 100.553 21.3818C100.616 18.8045 100.457 16.1318 100.362 13.7136C100.298 12.5045 100.266 11.3591 100.266 10.3091C100.266 9.76818 100.298 9.29091 100.33 8.81364C100.362 8.36818 100.426 7.98636 100.489 7.7L100.585 8.62273C100.585 8.75 100.616 8.97273 100.616 9.13182L100.648 9.67273C100.68 9.03636 100.712 8.52727 100.744 8.11364C100.744 7.79545 100.776 7.57273 100.744 7.44545C100.839 7.44545 100.839 7.41364 100.776 7.41364C100.744 7.41364 100.712 7.41364 100.712 7.41364C100.712 7.82727 100.68 7.92273 100.616 8.08182C100.616 7.79545 100.585 7.54091 100.585 7.28636C100.839 7.28636 101.094 7.25455 101.348 7.25455C101.603 7.25455 101.889 7.25455 102.144 7.25455C102.78 7.25455 103.416 7.25455 104.021 7.28636C104.626 7.31818 105.198 7.31818 105.803 7.35C106.089 7.35 106.376 7.38182 106.662 7.38182C107.012 7.38182 107.362 7.35 107.68 7.25455C108.348 7.06364 108.985 6.68182 109.43 6.10909C109.907 5.53636 110.194 4.80455 110.226 4.00909C110.257 3.21364 110.003 2.38636 109.494 1.71818C108.985 1.05 108.189 0.509091 107.266 0.318182C107.553 0.413636 107.966 0.572727 108.253 0.795455C108.539 0.986364 108.762 1.20909 108.73 1.24091C108.03 0.731818 107.394 0.540909 106.821 0.445455C106.566 0.413636 106.344 0.381818 106.121 0.35C105.898 0.318182 105.676 0.286364 105.453 0.254545C104.53 0.127273 103.385 0.0318182 101.062 0.127273L101.985 0.254545C100.616 0.318182 99.5665 0.190909 99.471 0.127273C99.0892 0.572727 89.5756 0.0954545 86.3619 0.731818C84.071 0.477273 77.5165 0.254545 75.5437 0.413636C72.6801 0.7 78.0892 0.731818 77.0074 1.01818C74.7483 1.01818 73.571 0.763636 70.2301 0.859091C70.1665 0.604545 76.8483 0.318182 70.5483 0.159091L69.6574 0.318182C70.3256 0.286364 71.2165 0.254545 72.1074 0.286364C73.921 0.445455 71.0256 0.477273 70.6119 0.540909L63.8665 0.445455C63.3574 0.159091 67.4301 0.222727 67.8438 0.159091C62.371 0.318182 55.9437 0.731818 50.9801 0.540909L51.4574 0.636364C45.1256 0.381818 47.7665 1.17727 42.7074 0.7C40.0347 0.763636 43.6619 1.01818 39.6528 1.01818C38.5074 1.01818 39.1756 0.922727 39.3983 0.859091C34.4665 0.763636 37.2347 1.14545 32.6528 0.859091L33.4801 1.11364H32.5892C27.4347 0.922727 22.1528 0.477273 17.7619 0.604545C18.0483 0.827273 20.9438 0.827273 22.121 0.986364C18.9392 0.763636 15.121 0.763636 11.3665 0.763636C9.48921 0.763636 7.61194 0.763636 5.86194 0.763636C5.41648 0.763636 5.00285 0.763636 4.55739 0.763636H4.3983H4.20739C4.08012 0.763636 3.98466 0.795455 3.85739 0.795455C3.63466 0.827273 3.38012 0.890909 3.18921 0.986364C2.2983 1.33636 1.63012 2.03636 1.31194 2.83182C1.43921 2.35455 1.47103 2.25909 1.34376 2.35455C1.28012 2.41818 1.18467 2.51364 1.12103 2.64091C1.02557 2.76818 0.93012 2.89545 0.898302 3.02273C0.771029 3.27727 0.675574 3.5 0.675574 3.30909C0.675574 3.21364 0.675574 3.02273 0.771029 2.70455C0.866483 2.38636 1.02557 1.94091 1.43921 1.43182C1.98012 1.01818 2.74376 0.477273 3.82557 0.286364C3.95285 0.254545 4.08012 0.254545 4.23921 0.222727C4.30285 0.222727 4.36648 0.222727 4.46194 0.222727H4.62103C4.84376 0.222727 5.06648 0.222727 5.28921 0.222727C5.76648 0.222727 6.24376 0.222727 6.75285 0.222727C6.33921 0.127273 5.83012 0.0954545 5.22557 0.0318182C5.06648 0.0318182 4.90739 0 4.7483 0C4.52557 0 4.43012 0 4.14376 0C3.66648 0.0318182 3.18921 0.127273 2.71194 0.35C1.78921 0.763636 0.961938 1.59091 0.611938 2.64091C0.23012 3.69091 0.357393 4.9 0.898302 5.85455C1.43921 6.80909 2.33012 7.47727 3.28466 7.73182C3.41194 7.76364 3.50739 7.79545 3.63466 7.82727C3.76194 7.85909 3.85739 7.85909 3.98466 7.89091C4.11194 7.89091 4.20739 7.89091 4.33466 7.89091C4.46194 7.89091 4.52557 7.89091 4.58921 7.89091C4.90739 7.89091 5.22557 7.89091 5.51194 7.89091C6.68921 7.89091 7.51648 7.92273 7.77103 8.08182L8.63012 7.85909C8.91648 7.89091 9.33012 7.95455 9.42557 8.01818C9.39375 8.17727 9.33012 8.20909 9.33012 8.11364C9.2983 8.11364 9.26648 8.11364 9.20285 8.14545H9.2983L9.33012 8.65455V8.71818V8.75V8.81364V9.19545L9.36194 9.95909L9.42557 13.0455C9.48921 12.2818 9.55285 11.2318 9.6483 10.15C9.68012 9.86364 9.68012 9.60909 9.71194 9.32273C9.74375 9.06818 9.74376 8.71818 9.77557 8.59091C9.80739 8.27273 9.83921 7.89091 9.83921 7.57273C9.52103 7.57273 9.23466 7.54091 8.98012 7.57273C8.91648 7.57273 8.85285 7.57273 8.78921 7.57273C8.72557 7.57273 8.66194 7.57273 8.5983 7.57273C8.43921 7.57273 8.28012 7.60455 8.15285 7.63636C7.23012 7.50909 7.8983 7.47727 8.5983 7.41364C8.69376 7.41364 8.72557 7.41364 8.78921 7.38182C8.85285 7.38182 8.91648 7.38182 8.98012 7.35C9.10739 7.35 9.20285 7.31818 9.26648 7.31818C9.39375 7.28636 9.42557 7.22273 9.10739 7.15909C9.55285 7.22273 9.87103 7.25455 10.1574 7.25455C10.0938 8.36818 10.1574 8.52727 10.221 9.25909C10.2847 9.89545 10.3801 10.6591 10.3483 12.6318C9.9983 10.5955 9.90285 17.1182 9.71194 16.8955C9.77557 18.3591 9.61648 21.6364 9.48921 22.9091C9.45739 25.5182 9.74376 31.4682 9.61648 35.6682C9.71194 34.0773 9.87103 31.5955 10.0938 31.7864C9.96648 33.8227 9.96648 36.0818 10.221 36.4636C10.6665 29.2091 9.6483 34.1091 9.93466 27.5545C10.221 25.9318 10.2847 24.1182 10.3801 20.7455C10.4438 21.4773 10.5074 21.7 10.571 21.7955V25.0727C10.4119 29.05 10.6983 34.1409 10.4438 38.4364C10.2528 40.7273 9.87103 39.0091 9.80739 44.1955L9.61648 39.7409C9.77557 44.6409 9.42557 40.8864 9.36194 44.9273L9.55285 43.3045C9.58466 45.7864 9.55285 46.6773 9.42557 48.0455L9.74376 45.9455C9.77557 47.2818 9.80739 49.7318 9.6483 49.7636C9.71194 50.1136 9.77557 50.2409 9.83921 50.2409C9.77557 50.4955 9.74376 51.1318 9.77557 52.6909C9.80739 51.7682 9.77557 51.1318 9.87103 51.1C9.80739 57.05 10.1892 52.5 10.1574 56.1909C10.221 55.6182 10.3165 56.6682 10.3483 57.9727C9.87103 57.8773 9.80739 65.1954 9.55285 67.1045V67.0727L9.36194 72.0364C9.39375 71.0182 9.52103 72.1 9.58466 73.5636V73.3409C9.6483 74.9318 10.0938 71.4636 9.96648 76.2045L9.83921 78.6227C9.87103 78.3364 9.93466 78.7182 9.96648 78.9091L9.83921 81.4864C10.2847 85.4 9.58466 88.9 9.80739 93.5136C9.77557 92.1773 9.80739 90.1409 9.93466 91.0318C9.9983 91.9227 9.93466 93.2909 9.87103 93.9591L9.93466 93.7364L9.61648 102.582C9.77557 101.882 9.77557 96.95 9.96648 99.1455C10.1892 100.45 9.96648 102.964 9.93466 104.555C9.80739 104.364 9.71194 101.436 9.61648 104.395C9.68012 104.745 9.80739 107.545 9.90285 106.241C9.87103 107.005 9.83921 107.832 9.80739 108.723C9.80739 108.945 9.80739 109.168 9.77557 109.391V109.486V109.582C9.77557 109.645 9.77557 109.709 9.77557 109.805C9.77557 109.932 9.80739 110.091 9.83921 110.218C9.93466 110.791 10.1892 111.332 10.5392 111.777C11.2392 112.7 12.4165 113.241 13.5301 113.241C14.071 113.241 14.6119 113.114 15.0892 112.891C15.3119 112.795 15.5665 112.636 15.6938 112.573C15.8528 112.477 16.0119 112.414 16.1392 112.318C16.4892 112.064 16.3619 112.095 16.1074 112.255C15.8528 112.414 15.4392 112.668 15.2165 112.764C15.1528 112.827 15.0574 112.891 14.9619 112.923C14.3892 113.145 14.071 113.177 13.8483 113.177C13.6256 113.177 13.4983 113.145 13.3074 113.114C13.1165 113.082 12.8619 113.05 12.3847 112.923C12.1619 112.859 11.8756 112.764 11.5256 112.573C11.2074 112.382 10.7938 112.095 10.4438 111.682C10.4756 111.523 10.6983 111.809 11.2074 112.191C11.4619 112.382 11.7801 112.573 12.1938 112.7C12.6074 112.827 13.0847 112.923 13.5938 112.891C14.1028 112.859 14.6438 112.7 15.121 112.382C15.5028 112.127 15.9165 111.873 16.3301 111.618C17.1256 111.109 17.8892 110.6 18.5574 110.155L16.3938 111.427L15.3119 112.064C15.1528 112.159 14.9301 112.286 14.7074 112.382C14.4847 112.477 14.2619 112.541 14.0392 112.605C14.3574 112.509 14.6438 112.35 14.9301 112.159C15.1847 111.968 15.4392 111.809 15.6619 111.618C16.171 111.268 16.6801 110.886 17.1892 110.505C18.2392 109.773 19.321 109.009 20.4347 108.277C21.5483 107.514 22.6938 106.782 23.8392 106.018C24.9528 105.286 26.0983 104.555 27.2438 103.855C28.9938 105.064 30.7119 106.273 32.3665 107.418C34.0528 108.595 35.6756 109.709 37.2028 110.727C35.1028 109.486 33.4483 108.245 33.5119 108.691C35.6119 110.186 36.5347 110.823 37.4892 111.459C37.9665 111.777 38.4119 112.095 39.0483 112.509C39.6847 112.986 41.0528 113.623 42.6438 113.018C42.4528 113.082 42.2619 113.145 42.1028 113.177C42.5165 113.05 42.9301 112.859 43.3119 112.605C43.5983 112.414 43.9165 112.191 44.2347 112C44.871 111.586 45.5074 111.173 46.1119 110.791C47.3528 109.995 48.4665 109.264 49.1028 108.659C48.0528 109.136 46.0483 110.886 45.7938 110.632L51.2347 107.036C49.421 107.991 45.7938 110.632 43.6938 111.936C42.2301 112.955 46.7165 109.995 46.1437 110.664C45.5074 111.077 44.9347 111.459 44.4256 111.809C44.171 111.968 43.9165 112.127 43.6619 112.286C43.5347 112.35 43.4392 112.445 43.3119 112.509C43.1847 112.573 43.0256 112.668 42.8983 112.732C42.3256 113.018 41.721 113.114 41.2119 113.05C40.671 113.018 40.2256 112.859 39.8119 112.636C39.7165 112.573 39.621 112.541 39.5256 112.477L39.3983 112.382L39.3028 112.286C39.1756 112.191 39.0483 112.064 38.8892 111.968C38.6347 111.745 38.3801 111.555 38.1256 111.332C37.6165 110.918 37.1392 110.505 36.5665 109.995C36.1528 109.614 36.2165 109.582 36.5347 109.773L39.7165 111.905C40.0347 112.127 40.3847 112.255 40.7347 112.318C40.8938 112.382 41.0847 112.414 41.2756 112.414C41.8165 112.445 42.421 112.35 42.9619 112.032C43.9801 111.427 45.0619 110.791 46.1756 110.091C48.4347 108.691 50.8528 107.068 53.3028 105.318L55.2756 103.759L55.9119 104.109C58.2665 105.955 56.9301 105.668 61.4483 108.595L60.2074 107.545C61.2256 108.15 61.8937 108.532 62.371 108.85C60.8119 107.673 59.1892 106.432 57.7256 105.286L63.8028 109.327C64.1847 109.614 64.5347 109.868 64.9165 110.155C65.3937 110.505 65.9028 110.886 66.3801 111.236C66.6347 111.395 66.8574 111.586 67.1119 111.745C67.3665 111.905 67.5574 112.064 67.8438 112.223C67.7483 112.159 67.3665 111.873 66.9847 111.586C66.6028 111.3 66.1892 110.982 66.0301 110.823C66.3801 111.045 66.7301 111.268 67.0801 111.523L67.621 111.873C67.7801 112 67.971 112.095 68.1619 112.191C68.9574 112.541 69.8801 112.509 70.6437 112.127C72.0756 111.236 73.5074 110.345 74.8756 109.518C77.6437 107.832 80.2847 106.241 82.4483 104.841C82.7665 104.555 82.7665 104.523 82.5756 104.65C82.5119 104.682 82.4483 104.714 82.3847 104.745C82.2892 104.809 82.1937 104.873 82.0983 104.936C81.8756 105.064 81.621 105.223 81.3665 105.382C80.3165 106.018 79.171 106.718 79.5528 106.336C80.8892 105.509 82.2892 104.523 83.2756 103.855C83.6574 104.109 84.0074 104.332 84.2619 104.523C84.5483 104.714 84.7392 104.905 84.8347 105.032C84.1983 104.268 87.7937 106.845 87.3483 106.432L89.7347 108.023C90.2119 108.468 90.8165 108.945 91.9619 109.741C91.4847 109.264 92.6619 110.027 93.8392 110.823C93.4892 110.568 93.1392 110.314 92.821 110.059L95.7165 112C96.1937 112.318 96.7347 112.477 97.2756 112.477C97.721 112.477 98.1983 112.35 98.6437 112.159C99.5665 111.65 100.139 110.695 100.139 109.645V108.023C100.171 106.877 100.203 105.732 100.203 104.618C100.266 102.041 100.298 99.4955 100.362 97.0136C100.266 97.4273 100.203 97.4909 100.107 97.2364V95.1682C100.139 94.8818 100.171 94.6591 100.203 94.4364C100.266 93.9909 100.298 93.5773 100.33 92.9091C100.68 92.8773 101.094 92.8455 101.571 92.75C101.857 92.6864 102.144 92.6545 102.494 92.5909C102.844 92.5273 103.226 92.4318 103.639 92.3364C104.785 91.9227 104.785 91.8591 104.466 91.9227C104.403 91.9227 104.371 91.9227 104.307 91.9545C107.171 91.1909 109.844 89.95 112.23 88.3591C112.93 87.9136 113.535 87.5 114.076 87.0864C113.98 87.1182 113.916 87.15 113.821 87.2136C114.426 86.7364 114.998 86.2591 115.571 85.7182C115.73 85.5909 115.857 85.4636 115.985 85.3364C116.43 84.9545 116.78 84.5727 117.13 84.2227C117.448 83.9045 117.735 83.6182 117.957 83.4273C117.989 83.3 118.021 83.1727 118.053 83.0136C119.357 81.4227 120.471 79.6409 121.394 77.7636C121.362 77.8909 121.553 77.5091 121.839 76.8727C121.776 77.0318 121.68 77.1909 121.616 77.35C121.839 76.9045 122.03 76.4591 122.221 75.9818C122.094 76.3 121.966 76.6182 121.871 76.8727C122.539 75.5045 123.239 73.5955 123.653 71.6545C124.098 69.7136 124.257 67.7091 124.226 66.15C124.194 66.2773 124.13 66.5 124.098 66.7864C124.098 66.8818 124.066 67.0091 124.066 67.1364C124.066 66.8182 124.098 66.4682 124.098 66.15C124.098 64.3364 123.907 62.5864 123.589 60.9C123.398 59.6591 123.335 59.3091 123.398 59.4045C123.43 59.4682 123.526 59.6591 123.621 59.9454C123.716 60.2318 123.812 60.5818 123.907 60.9318C124.098 61.6318 124.257 62.3636 124.353 62.5545C124.385 62.65 124.416 62.5864 124.416 62.3318C124.416 62.0773 124.385 61.6 124.289 60.8682C124.416 61.6 124.544 62.3318 124.607 63.0955C124.576 62.8091 124.607 62.7455 124.639 62.8727C124.671 63.1273 124.703 63.3818 124.735 63.6045L124.798 64.3364C124.862 64.8455 124.862 65.3227 124.862 65.8318C124.894 64.9091 124.798 63.35 124.703 62.2682C124.576 61.1864 124.544 60.5818 124.83 61.6C125.085 63.0318 125.244 64.4955 125.276 65.9909C125.435 64.8136 125.53 66.4364 125.689 66.1818C125.657 63.7955 125.466 61.6 125.021 59.4364ZM20.9438 0.795455L18.2074 0.7L18.4301 0.668182L21.1347 0.763636L20.9438 0.795455ZM99.5347 79.8C99.5347 79.7682 99.471 79.8318 99.3756 79.9591C99.4074 79.9273 99.4392 79.8955 99.471 79.8636C99.4074 79.9591 99.3119 80.0227 99.2483 80.1182C99.3119 80.0545 99.3438 79.9909 99.3756 79.9591C99.121 80.15 98.771 80.4045 98.3892 80.5636C98.0074 80.7227 97.5938 80.7864 97.2756 80.7864C97.3074 80.85 97.4028 80.8818 97.4983 80.9136C97.4347 80.9136 97.3392 80.9136 97.2756 80.9136C96.8937 80.9136 96.5119 80.85 96.1937 80.6909C95.9392 80.5318 95.9074 80.4364 95.9392 80.4045C95.971 80.3727 96.1301 80.4045 96.2892 80.4045C96.4483 80.4045 96.5756 80.4045 96.6392 80.3409C96.7028 80.2773 96.6392 80.2136 96.4483 80.0545C96.5756 80.0864 96.671 80.15 96.7983 80.1818C96.7665 80.15 96.7665 80.1182 96.7983 80.1182C96.9574 80.15 97.1165 80.15 97.2756 80.15C97.1165 80.1182 96.8937 80.0545 96.7665 79.9591C96.6392 79.8636 96.5756 79.7682 96.7665 79.7045C96.9574 79.7364 97.1483 79.7682 97.3074 79.7364C97.1801 79.5455 97.371 79.4818 97.3392 79.3545C96.9256 79.2273 96.6392 78.9409 96.5438 78.5909C96.4801 78.6864 96.5437 78.8455 96.4165 78.8773C96.2574 78.7818 96.2892 78.6864 96.2892 78.6227C96.2892 78.5591 96.2892 78.4955 96.1937 78.4C96.1619 78.4636 96.1301 78.4955 96.0983 78.5591C96.1301 78.5273 96.1301 78.4636 96.1937 78.5273C96.321 78.5909 96.2574 78.6545 96.1619 78.7182C96.0665 78.7182 95.971 78.6227 95.971 78.4955C95.971 78.3682 96.0028 78.2727 96.0665 78.2091C96.0347 78.1136 96.0347 78.05 96.0028 78.0182C95.971 77.9545 95.9392 77.9545 95.8756 77.9864C95.7801 78.05 95.7165 78.1136 95.6847 78.05C95.971 77.6045 95.6847 76.5864 95.8119 76.0455L95.621 76.3955C95.3983 75.7273 95.5892 75.1227 95.6528 74.7409L95.4937 74.9C95.5256 73.9773 94.9847 73.5 95.5574 72.8L95.4619 72.8955C95.3983 72.5136 95.3028 71.9409 95.4619 71.5591C95.3983 71.5591 95.3028 71.4636 95.3028 71.2409C95.3983 71.0818 95.4301 70.8591 95.3983 70.5727C95.3665 70.2864 95.3347 69.9682 95.3028 69.5864C95.2392 70.1591 94.9528 70.1591 94.8892 70.6682C94.7619 70.3182 94.7937 70.1273 94.8574 69.8727C94.921 69.65 95.0483 69.3955 95.1119 69.0773C95.0165 69.0455 94.8892 69.0136 94.6665 69.0136C94.0937 69.1409 94.7619 69.1727 94.9847 69.2364C94.9847 69.3 94.9528 69.3636 94.9528 69.3955V69.2682C94.6347 69.2364 94.2847 69.2682 93.9347 69.3318C93.5847 69.3955 93.2665 69.4591 92.9801 69.4909C92.6937 69.5545 92.471 69.5864 92.2483 69.5864C92.0256 69.5864 91.8347 69.5227 91.6437 69.3955L92.121 69.2045C91.6756 69.0773 91.421 69.0773 91.4847 69.1409C91.6437 69.1091 91.6756 69.1727 91.7392 69.2364C90.4028 69.5227 89.6392 68.8227 88.271 68.9182C88.3665 69.0136 88.5574 69.0455 88.5892 69.1409C87.9528 69.2682 87.9847 68.6 86.9665 68.8227L87.1574 68.95C86.8074 69.0136 86.5847 68.8545 86.6165 68.8227C86.6165 68.95 86.4574 69.0136 86.2665 69.0455C86.0756 69.0773 85.8847 69.0773 85.6301 69.0136C85.4074 68.95 85.1528 68.8545 84.9301 68.7591C84.7074 68.6636 84.4847 68.5682 84.2619 68.5682C84.1983 68.3136 84.1028 67.9318 84.0392 67.55C84.0074 67.1682 84.0392 66.8182 83.9756 66.6591C83.8801 66.4045 83.7847 66.4682 83.6574 66.6273C83.5619 66.7864 83.4983 67.0091 83.3392 66.9136C83.3392 66.6591 83.4347 66.5 83.5301 66.3091C83.6256 66.1182 83.7528 65.9273 83.8483 65.6091C83.9437 65.6727 83.9437 66.0227 84.0074 66.1818C84.071 66.3727 84.1665 66.3727 84.421 65.9909C84.3892 65.9273 84.3892 65.8636 84.3574 65.8C84.3256 65.8955 84.2937 66.0545 84.2301 66.15C83.9756 66.3727 84.1347 65.9273 84.1028 65.8318C84.3256 65.4818 84.6119 65.2273 84.9301 65.0364C85.0256 65.1318 84.9619 65.2591 84.8665 65.3864C84.771 65.5136 84.6437 65.6409 84.6756 65.6727C84.8983 65.3545 85.2165 64.9727 85.6619 64.7818C85.8847 64.6864 86.1074 64.6545 86.4256 64.6227C86.7119 64.6227 87.0301 64.6227 87.2847 64.6545L87.1892 64.5591C88.5574 64.8136 87.9847 64.0182 89.0983 64.4955C89.671 64.4318 88.8756 64.1773 89.7665 64.1773C90.021 64.1773 89.8619 64.2727 89.8301 64.3364C90.9119 64.4318 90.3074 64.05 91.2938 64.3364L91.1028 64.0818H91.2938C91.5165 64.1136 91.7392 64.1773 91.9619 64.2409L92.4074 64.3682L92.6301 64.4318L92.8847 64.4955C93.5847 64.6227 94.4437 64.75 95.0483 64.6864C94.7301 64.4636 93.9983 64.4636 93.6165 64.3045C93.9665 64.4 94.4119 64.4636 94.8256 64.4955C94.8892 63.8273 94.8574 63 94.8574 62.2364C94.8574 61.6 94.8574 60.9955 94.921 60.4864C95.1119 60.8682 95.3983 59.8818 95.5574 60.7091C95.2392 60.9318 95.4619 61.3136 95.4301 61.7273C96.0983 61.0273 95.1119 58.7682 95.6847 58.5455L95.4619 58.3545C95.4937 58.1636 95.6847 57.6545 95.7483 58.0045L95.5892 56.6045C95.3983 57.1136 95.0165 58.1318 95.271 58.4818C95.0165 58.8955 95.1119 57.9091 94.8256 58.2591C95.2074 57.3045 94.6665 57.6864 94.7301 56.7C95.0801 57.1455 95.1756 55.7136 95.3665 55.7773C95.3347 55.65 95.3665 55.4909 95.4619 55.3318C95.5574 55.1727 95.6847 55.0455 95.7483 55.0136C95.8438 54.8545 95.9392 54.6 96.1937 54.3455C96.321 54.2182 96.4483 54.1227 96.6074 54.0273C96.7665 53.9636 96.9256 53.9 97.0847 53.9318C96.8619 53.8364 96.4165 53.8682 96.3528 53.6773C96.7347 53.6136 97.0847 53.5818 97.1483 53.3273C96.7983 53.2318 96.5756 53.2955 96.4483 53.3591C96.321 53.4227 96.321 53.5182 96.321 53.6136C96.321 53.7091 96.321 53.8045 96.2574 53.9C96.1937 53.9955 96.0665 54.0591 95.8119 54.1864C95.4301 54.1864 95.0801 54.4091 94.7938 55.0136C94.7619 54.8545 94.7301 54.7909 94.6983 54.7273C94.7937 54.5045 94.8892 54.2818 95.0483 54.0909C95.3028 53.8682 95.5256 53.6455 95.8119 53.4227C96.2892 53.0727 96.9892 52.85 97.5301 53.0409C97.7528 53.1682 97.7528 53.2955 97.8165 53.4545C97.8801 53.6136 98.0074 53.7091 98.3574 53.9318C98.1347 53.8682 97.8801 53.8364 97.6574 53.8682C98.0392 53.8682 98.071 53.9636 98.0392 54.0273C98.0392 54.1227 98.0074 54.1864 98.2301 54.3455C98.1983 54.25 98.1665 54.1545 98.1347 54.0591C98.4528 54.1864 98.5483 54.3136 98.5801 54.5682C98.5801 54.4409 98.5801 54.2818 98.5483 54.1545C98.7392 54.25 99.0256 54.5364 98.8983 54.6318C98.9938 54.6318 99.0574 54.6 99.0892 54.5682C99.0574 54.6318 99.121 54.7273 99.2165 54.95C99.1847 54.7909 99.121 54.7273 99.1847 54.6636C99.2801 54.8864 99.3438 55.0136 99.3756 55.0773C99.4392 55.1409 99.471 55.1409 99.5028 55.1409C99.5983 55.1409 99.6938 55.0455 99.7256 55.3955C99.7892 55.2682 99.8847 55.4591 99.9483 55.7136C99.471 55.6818 99.4074 57.2727 99.1528 57.6864L98.9619 58.7682C98.9937 58.5455 99.121 58.8 99.1847 59.0864V59.0227C99.2483 59.3727 99.6938 58.6091 99.5665 59.6273L99.4392 60.1682C99.471 60.0727 99.5347 60.1682 99.5665 60.2L99.4392 60.7409C99.6619 61.1545 99.5983 61.5682 99.5028 61.9818C99.5028 62.0455 99.471 62.0773 99.471 62.1409L99.4392 62.3636C99.4074 62.5227 99.4074 62.6818 99.3756 62.8409C99.3438 63.1591 99.3438 63.5091 99.4074 63.8273C99.3756 63.4455 99.4074 62.8091 99.5347 63C99.5983 63.2227 99.5347 63.6364 99.471 63.8909L99.5347 63.7955L99.4392 64.6864C99.9801 64.75 100.553 64.8136 101.189 64.8773C101.094 64.7818 100.68 64.75 100.394 64.7182C100.107 64.6864 99.9483 64.6227 100.33 64.5273C100.585 64.4318 100.839 64.4318 101.094 64.4636C101.348 64.4955 101.635 64.5591 101.857 64.5591C101.826 64.6227 101.571 64.6864 101.444 64.7182C101.316 64.7818 101.285 64.8136 101.762 64.8455C101.985 64.7818 102.526 64.6545 102.239 64.5591C102.907 64.6864 103.83 64.75 104.435 65.0045C104.626 64.9409 104.339 64.9091 104.244 64.8773L104.212 64.9091C103.83 64.8455 104.148 64.5909 103.385 64.7182C103.321 64.3045 104.498 64.5909 105.166 64.5591L104.085 64.2727C105.007 63.9864 106.057 63.9864 107.139 64.0818C107.394 64.1136 107.68 64.1455 107.935 64.1455C108.062 64.1455 108.189 64.1773 108.316 64.1773L108.507 64.2091L108.666 64.2409C109.112 64.3045 109.526 64.5273 109.844 64.7182C109.398 64.5909 109.08 64.4 109.048 64.7182C109.43 64.9091 109.557 65.0364 109.685 65.1318C109.812 65.2273 109.971 65.3545 110.162 65.7045C110.162 65.6727 110.162 65.6727 110.13 65.6409C110.321 65.7682 110.385 66.0227 110.448 66.2455C110.48 66.4682 110.48 66.6591 110.639 66.8182C110.735 66.7227 110.671 66.5636 110.639 66.4364C110.607 66.3091 110.576 66.2136 110.735 66.15C110.83 66.5318 110.83 66.9136 110.766 67.2955C110.894 67.1364 110.957 66.8182 110.894 66.5318C110.83 66.2136 110.703 65.9273 110.607 65.7364C110.512 65.6091 110.576 65.7364 110.639 65.9273C110.671 66.1182 110.671 66.3091 110.512 66.2773C110.385 65.8 110.226 65.5455 110.13 65.2909C110.035 65.0364 109.971 64.7818 109.78 64.4955C109.716 64.3682 109.748 64.3364 109.844 64.3364C110.162 64.4955 110.448 64.7182 110.671 65.0045C110.957 65.8318 111.148 66.7864 110.862 67.8364C110.862 68.0591 110.83 68.3136 110.735 68.5682C110.448 68.7273 110.226 68.6636 110.035 68.6318C109.844 68.6 109.653 68.6318 109.271 68.8545C109.366 68.8864 109.494 68.8864 109.589 68.9182C109.43 69.0773 109.303 69.1409 109.207 69.2045C109.589 69.2045 110.035 69.1091 110.416 68.95C110.035 69.3 109.557 69.5545 109.016 69.6818C108.921 69.6818 108.794 69.65 108.698 69.65C108.444 69.6182 108.189 69.5545 107.935 69.5227C107.998 69.5864 108.316 69.5864 108.444 69.7136C106.98 69.8091 105.453 69.3318 104.339 69.2364C103.862 69.4273 105.262 69.3636 105.039 69.6182C104.435 69.5227 103.766 69.7455 103.607 69.4909C103.798 69.7773 102.876 69.6182 103.003 69.7136H102.366C102.335 69.6818 102.303 69.65 102.239 69.65C102.112 69.5864 101.985 69.5545 101.73 69.5227C101.889 69.6818 101.571 69.65 101.253 69.65C101.348 69.65 101.444 69.6818 101.539 69.7136H100.076V70.6682C99.9801 71.4955 99.9165 72.2909 99.821 73.0864C99.9165 72.9909 99.9801 72.9909 100.076 73.0545V73.5C99.9165 73.7864 99.7892 73.8818 99.8528 74.8045C99.9801 75.1227 100.012 75.0591 100.076 74.9636V76.8409C100.044 77.0318 100.044 77.1909 100.012 77.35C100.044 77.3182 100.076 77.3182 100.076 77.2864V77.7318C100.076 77.7955 100.076 77.8591 100.044 77.8909C100.012 78.1455 99.9483 78.3682 99.8528 78.4636C99.9165 78.4955 99.9483 78.5273 100.012 78.5909C100.012 79.0364 99.821 79.45 99.5347 79.8ZM94.4437 104.109L93.1392 103.25C93.2347 103.282 92.9483 103.091 92.4392 102.773C92.5347 102.836 92.6619 102.932 92.7574 102.995L91.7074 102.295C91.9938 102.455 92.2165 102.614 92.4392 102.741C90.4028 101.245 87.0619 99.0182 84.9301 97.6182C84.9938 97.7454 85.2165 97.9364 85.5347 98.1909L84.8665 97.7455C83.9119 97.1091 82.671 97.1091 81.7165 97.7455L80.921 98.2864C79.0119 99.4318 79.871 98.7318 80.7619 98.0318C81.2392 97.65 81.7483 97.2364 81.8756 97.1409C81.9392 97.0773 81.9074 97.0454 81.6528 97.1409C81.3983 97.2364 81.0801 97.4273 80.571 97.7136L81.3347 97.2045C81.621 97.0136 81.971 96.8227 82.321 96.7273C82.0665 96.7909 81.971 96.7909 82.0983 96.7273C83.0528 96.3773 84.1347 96.4409 85.0256 96.9182C84.6119 96.6636 84.0074 96.4409 83.3392 96.4409C82.671 96.4091 82.0028 96.6 81.4937 96.8545C81.271 96.9818 81.0801 97.0773 80.9528 97.1727C80.8256 97.2364 80.6983 97.3 80.6665 97.3C80.5392 97.3318 80.6028 97.2364 80.8892 96.9818C81.0801 96.8545 81.4619 96.5682 81.8437 96.4409C82.2256 96.2818 82.6074 96.1864 83.021 96.1545C83.8165 96.0909 84.6438 96.2818 85.3756 96.6954C85.121 96.5045 84.9938 96.4091 84.9938 96.3773C84.9938 96.3455 85.0892 96.3455 85.2165 96.3773C85.3438 96.4091 85.5028 96.4727 85.6301 96.5045C85.7574 96.5364 85.7892 96.5364 85.7574 96.4727C84.6756 95.7091 83.2437 95.4545 81.9392 95.8682C81.621 95.9636 81.3028 96.0909 81.0165 96.2818L80.6665 96.5045L80.3801 96.6636L79.2983 97.3318L74.9392 100.036C75.321 99.9091 76.5938 99.1454 76.2119 99.5273C73.9847 101.118 74.2392 100.609 72.171 102.168L73.1892 101.659C72.9983 101.723 72.6801 101.914 73.1256 101.595C73.8256 101.023 74.2074 100.895 74.271 100.959C73.6347 101.595 71.4074 102.964 70.6756 103.282C70.3256 103.505 70.071 103.695 69.8801 103.855C69.6892 103.982 69.4983 104.141 69.5301 104.141C69.4983 104.205 69.5301 104.236 69.5619 104.268C69.5937 104.268 69.5938 104.3 69.6256 104.3C69.6574 104.3 69.6574 104.332 69.721 104.3C69.8165 104.268 69.8483 104.3 69.721 104.395C69.5937 104.427 69.4665 104.459 69.3392 104.523C69.2756 104.459 69.2119 104.427 69.1483 104.364C69.1165 104.332 69.0847 104.332 69.0528 104.3C68.9574 104.236 68.8619 104.173 68.7665 104.109C68.2892 103.791 67.8119 103.505 67.3347 103.186C66.3801 102.582 65.4256 101.977 64.7574 101.468L65.7437 102.359C63.4847 101.15 61.7028 99.75 60.5256 98.8591L60.9074 99.3045C60.1756 98.7955 59.5074 98.4136 58.9028 98.0636C58.2665 97.7136 57.7256 97.3636 57.1847 97.0773C56.4847 96.6955 55.7528 96.5682 54.9892 96.6C54.6074 96.6318 54.2256 96.6954 53.8438 96.8227C53.6528 96.8864 53.4619 96.9818 53.271 97.0773C53.1119 97.1409 52.9528 97.2045 52.7937 97.2682L53.1756 97.1409C51.9983 98 50.2483 99.3045 48.9756 99.9409C48.9756 100.005 48.8165 100.227 48.3392 100.577C47.5756 100.832 46.3983 101.786 44.6483 103.027C45.8574 102.295 45.6347 102.773 46.9392 102.009C45.6347 103.027 44.9665 103.409 44.3301 103.695C44.0119 103.823 43.6937 103.95 43.3119 104.141C43.121 104.236 42.9301 104.332 42.7074 104.491C42.5801 104.555 42.4847 104.618 42.3574 104.714C42.2301 104.777 42.1347 104.873 42.0074 104.936C41.5938 105.286 41.7847 105.223 42.1983 105C42.7392 104.682 43.5028 104.205 43.6938 104.141C43.2801 104.395 42.8665 104.682 42.4528 104.936L41.9438 105.286L41.4665 105.636C40.8301 105.255 40.1938 104.905 39.5892 104.555C38.921 104.173 38.2528 103.759 37.6165 103.409C36.3756 102.645 35.2938 101.914 34.5619 101.15L36.1847 102.009C34.8483 100.959 34.0847 100.45 34.2119 100.609C34.6892 100.895 34.8165 101.055 34.9438 101.182C32.7165 99.8773 31.0938 98.7 29.5028 97.4909L29.3438 97.3636L29.1528 97.2364C29.0256 97.1409 28.8983 97.0773 28.7392 97.0136C28.4528 96.8864 28.1665 96.7909 27.8483 96.7273C27.2119 96.6318 26.5438 96.6955 25.9074 96.95C25.7483 97.0136 25.5892 97.1091 25.4619 97.2045C25.3347 97.2682 25.2392 97.3636 25.1119 97.4273C24.8892 97.5864 24.6347 97.7455 24.3801 97.8727C23.9028 98.1909 23.3938 98.5409 22.8528 98.8909C23.2347 98.7636 23.871 98.3818 23.9347 98.4454C22.9801 99.1455 22.4074 99.3682 21.7074 99.6864C21.3574 99.8455 20.9756 100.036 20.4665 100.323C20.2119 100.482 19.9574 100.641 19.6392 100.864C19.4801 100.959 19.321 101.086 19.1619 101.214C19.0665 101.277 19.0028 101.341 18.9074 101.405C18.8756 101.436 18.8119 101.468 18.7801 101.5L18.7165 101.564L18.8119 101.532L18.971 101.468L19.321 101.309C19.1938 101.405 19.0665 101.5 18.9392 101.595C18.8756 101.627 18.8438 101.659 18.8119 101.691C18.7801 101.723 18.7483 101.723 18.7165 101.755C18.5892 101.85 18.4619 101.914 18.3665 101.945C18.1756 102.009 18.1119 102.009 18.1438 101.945C18.1119 102.136 17.6983 102.486 17.0301 102.964C17.0301 102.009 16.9983 100.736 16.9983 99.5273C16.9665 97.8727 16.871 96.3136 16.6483 95.3909C16.9028 93.5136 17.1256 88.1045 16.9665 86.45C16.6801 84.0955 16.6483 88.55 16.3619 87.6591C16.3619 85.8136 16.6165 84.8273 16.521 82.0591C16.7756 82.0273 17.0619 87.5318 17.221 82.3136L17.0619 81.5818C17.0938 82.1227 17.1256 82.8545 17.0938 83.6182C16.9347 85.1136 16.9028 82.7273 16.8392 82.3773L16.9347 76.8091C17.221 76.3955 17.1574 79.7364 17.221 80.0864C17.1574 75.6636 16.7438 70.35 16.9347 66.2455L16.8392 66.6273C17.0938 61.3773 16.2983 63.5727 16.7756 59.4045C16.7119 57.2091 16.4574 60.2 16.4574 56.8591C16.4574 55.9045 16.5528 56.4773 16.6165 56.6364C16.7119 52.5636 16.3301 54.8545 16.6165 51.0682L16.3619 51.7682V51.0364C16.5847 46.8045 17.0619 42.4455 16.9347 38.8182C16.7119 39.0409 16.7119 41.4591 16.5528 42.4136C16.9665 37.1636 16.6165 29.8136 16.8392 24.9455C17.0301 26.4091 17.3165 22.6545 17.4756 25.7727C17.1574 26.5682 17.3801 28.0318 17.3483 29.7182C18.0165 27.0136 17.0301 18.4545 17.6028 17.6273L17.3801 16.9273C17.4119 16.1955 17.6028 14.2864 17.6665 15.5909L17.5074 10.2455C17.3165 12.1227 16.9347 16.1 17.1892 17.3409C16.9347 18.8682 17.0301 15.1455 16.7438 16.4818C17.1256 12.8864 16.5847 14.2864 16.6483 10.5636C16.8074 11.3909 16.9347 10.4682 17.0301 9.35455C17.0301 9.22727 17.0619 9.06818 17.0619 8.94091C17.0619 8.84545 17.0619 8.81364 17.0938 8.78182L17.1256 8.65455C17.1574 8.49545 17.1574 8.33636 17.1892 8.20909C17.221 7.95455 17.2528 7.82727 17.3165 7.89091V7.85909C17.4756 7.85909 17.6983 7.85909 17.921 7.85909C18.2392 7.85909 18.621 7.89091 18.971 7.92273C19.9256 7.95455 20.8483 8.05 21.3574 8.08182C23.521 8.11364 28.421 7.82727 31.8892 7.95455C30.5847 7.85909 28.5165 7.7 28.6756 7.47727C30.3619 7.60455 32.2074 7.60455 32.5574 7.35C26.5438 6.90455 30.6165 7.92273 25.1756 7.63636C23.8392 7.35 22.3438 7.28636 19.5438 7.19091C20.1483 7.12727 20.3392 7.06364 20.4347 7H23.1392C26.4165 7.15909 30.6165 6.87273 34.1801 7.12727C36.0574 7.31818 34.6574 7.7 38.921 7.76364L35.2619 7.95455C39.3028 7.79545 36.2165 8.14545 39.5574 8.20909L38.221 8.01818C40.2574 7.98636 41.021 8.01818 42.1347 8.14545L40.4165 7.82727C41.5301 7.79545 43.5665 7.76364 43.5665 7.92273C43.8528 7.85909 43.9483 7.79545 43.9483 7.73182C44.171 7.79545 44.6801 7.82727 45.9847 7.79545C45.221 7.76364 44.6801 7.79545 44.6801 7.7C49.5801 7.76364 45.8256 7.38182 48.8801 7.41364C48.4028 7.35 49.2619 7.25455 50.3438 7.22273C50.2801 7.7 56.2937 7.76364 57.8847 8.01818H57.8528L61.9574 8.20909C61.1301 8.17727 62.021 8.05 63.2301 7.98636H63.0392C64.3437 7.92273 61.4801 7.47727 65.3937 7.60455L67.4619 7.73182C67.0801 7.7 67.4619 7.63636 67.6528 7.60455L69.7847 7.73182C73.0301 7.28636 75.8937 7.98636 79.7119 7.76364C78.5983 7.79545 76.9437 7.76364 77.6437 7.63636C78.3756 7.57273 79.4892 7.63636 80.0619 7.7L79.871 7.63636L87.1256 7.92273C86.521 7.76364 82.4801 7.76364 84.2938 7.57273C85.3756 7.35 87.4438 7.57273 88.7483 7.60455C88.5892 7.73182 86.171 7.82727 88.621 7.92273C88.9074 7.85909 91.2301 7.73182 90.1483 7.63636C90.8165 7.66818 91.5483 7.7 92.3119 7.73182C92.5028 7.73182 92.6619 7.73182 92.8528 7.76364C92.9801 7.76364 93.0756 7.76364 93.2028 7.79545C93.4256 7.82727 93.6483 7.82727 93.8392 7.85909C93.8074 8.05 93.8074 8.27273 93.7756 8.46364C93.7756 8.55909 93.7437 8.65454 93.7437 8.75C93.7437 8.84545 93.7119 8.87727 93.7119 9.1C93.6801 9.73636 93.6165 10.3409 93.5847 10.8818C93.6483 11.5818 93.6801 10.4682 93.7119 10.1182L93.6801 9.92727C93.7119 9.22727 93.7756 9.1 93.8392 8.90909C93.9028 8.78182 93.9347 8.52727 93.871 7.82727C93.8074 7.82727 93.7438 7.82727 93.6801 7.82727C93.7119 7.76364 93.8392 7.7 94.0301 7.66818C94.0619 7.79545 94.0938 8.08182 94.0938 8.43182C94.0938 8.62273 94.0938 8.81364 94.0938 9.00455C94.0938 9.29091 94.0938 9.57727 94.0938 9.89545C94.0619 11.1364 94.0301 12.5045 94.0619 13.5545L94.3483 9.45C94.921 16.3864 94.3165 25.7409 94.2847 32.6136C94.1574 30.6091 94.2847 28.9227 93.9665 29.1455C93.8074 33.4091 93.871 32.8682 93.8074 37.1L93.8392 36.7182C93.871 37.0045 93.871 37.2909 93.871 37.5773C93.871 37.7045 93.871 37.8636 93.871 37.9909C93.871 38.0864 93.871 38.1818 93.871 38.2455C93.871 38.4045 93.871 38.5955 93.871 38.7864V38.85V38.8818H93.8392H93.7119C93.6165 38.8818 93.521 38.9136 93.4574 38.9136C93.3619 38.9136 93.2983 38.9455 93.2028 38.9455C93.171 38.9455 93.1074 38.9455 93.0756 38.9773L92.6619 38.8182C92.3756 38.8818 92.0892 38.9136 91.8347 38.9773C91.3256 39.1045 90.8483 39.2318 90.5301 39.3909C91.0392 39.3591 91.8028 39.1364 92.471 39.0091C92.5983 38.9773 92.7574 38.9455 92.8847 38.9455C92.9801 38.9136 93.0756 38.9136 93.1392 38.9136C93.2983 38.9136 93.4256 38.9455 93.4892 39.0409L93.0119 39.1045L92.4392 39.2C91.9937 39.2636 91.5483 39.3591 91.1028 39.4545C90.2119 39.6455 89.321 39.9 88.4619 40.1864C89.321 39.9955 90.6256 39.6136 91.9937 39.3273C92.3119 39.2636 92.6619 39.2 92.9801 39.1364C93.2347 39.1045 93.4892 39.0727 93.7437 39.0091C93.8074 39.0091 93.871 38.9773 93.9347 38.9773C93.9665 38.9773 93.9983 38.9773 94.0301 38.9455V38.85C94.0301 38.7227 94.0301 38.6273 94.0301 38.5C94.0301 38.2773 94.0301 38.0545 94.0301 37.8636C94.0301 37.8 94.0301 37.7364 94.0301 37.7045C94.0301 37.6409 94.0301 37.6409 94.0301 37.6091C94.0301 37.5773 94.0301 37.6409 94.0301 37.7364C94.0301 37.8636 93.9983 38.15 93.9983 38.4682L93.9665 38.6909V38.7864V38.85V38.8818H93.9347C93.7756 38.8818 93.6483 38.8818 93.521 38.8818C93.2983 38.8818 93.2028 38.85 93.2665 38.7864C93.3619 38.7864 93.4574 38.7545 93.5528 38.7545C93.5847 38.7545 93.6483 38.7545 93.6801 38.7227H93.7437H93.7756V38.6909C93.7756 38.5318 93.7756 38.3727 93.7756 38.2136C93.7756 37.8 93.8074 37.45 93.8074 37.1C93.8392 36.2409 93.871 35.5727 93.9347 34.9364C94.0301 33.7273 94.1892 32.8045 94.3483 31.5636C94.4119 31.0864 94.4756 31.1182 94.5074 31.4364V35.5409C94.4437 36.1136 94.4119 36.7182 94.3483 37.3545C94.3165 37.8 94.2847 38.2455 94.2528 38.7227C94.2528 38.8182 94.2528 38.9455 94.221 39.0409V39.1364V39.1682C94.221 39.1682 94.221 39.1682 94.1892 39.1682H94.1574H93.9665C93.7438 39.2 93.4892 39.2 93.2665 39.2318C93.1392 39.2318 93.0437 39.2636 92.9165 39.2636C92.7892 39.2955 92.6619 39.2955 92.5028 39.3273C92.2165 39.3591 91.9301 39.4227 91.6437 39.4864C91.3574 39.55 91.071 39.6136 90.7847 39.6773C90.4983 39.7409 90.2119 39.8364 89.9256 39.9C88.7801 40.2182 87.6028 40.6636 86.4574 41.2045C85.6619 41.65 84.8665 42.1591 84.1347 42.6682C83.5619 42.9227 83.1801 43.0818 82.8619 43.1773C82.5438 43.2727 82.321 43.3364 82.0028 43.4636C81.7165 43.5591 81.3665 43.75 80.8892 44.0364C80.6347 44.1955 80.3483 44.3864 80.0301 44.6409C79.871 44.7682 79.6801 44.8955 79.4892 45.0545C79.2983 45.2136 79.1074 45.4045 78.8847 45.5955C79.2665 45.3409 79.6483 45.0864 80.0301 44.8636C79.6483 45.2136 79.3937 45.5 79.1392 45.7227C78.8847 45.9455 78.6937 46.1682 78.5028 46.3273C79.7437 45.2773 81.2074 44.3545 82.5438 43.6227C80.8574 44.7364 79.2983 46.0091 77.9301 47.4727C76.9119 48.4273 75.9256 49.4455 75.1619 50.4955C75.2256 50.4318 75.4801 50.1455 75.7347 49.8273C75.9892 49.5409 76.2756 49.2227 76.4347 49.0955C74.7165 51.2591 73.221 53.7091 72.1074 56.1909C71.5665 57.4318 71.121 58.6727 70.771 59.8818C70.421 61.0909 70.2301 62.2682 70.1028 63.35C70.1347 64.2727 70.1983 63.3818 70.3892 62.3636C70.4847 61.8545 70.6119 61.3455 70.6756 60.9955C70.771 60.6455 70.8665 60.4864 70.8665 60.7409C70.6119 61.8545 70.4528 63.0318 70.421 64.05C70.421 64.3045 70.3892 64.5273 70.3892 64.75C70.3892 64.9727 70.3892 65.1636 70.3574 65.3545C70.3256 65.7045 70.2937 65.9909 70.2301 66.15C70.3256 65.8955 70.3574 66.1182 70.3892 66.4682C70.421 66.85 70.421 67.3909 70.4847 67.8364C70.5165 68.3455 70.5483 68.6955 70.5801 68.5045C70.6437 69.3 70.771 70.0955 70.8983 70.8591C70.8983 71.4 70.9619 72.0364 71.2165 73.15C71.2165 72.8636 71.2801 72.9909 71.4074 73.3409C71.5347 73.6909 71.6937 74.2636 71.8847 74.8045C71.7892 74.4545 71.6937 74.1364 71.6301 73.8182C72.5847 76.9045 74.0483 79.7364 75.9574 82.2182C77.7074 84.6364 79.871 86.7682 82.2574 88.4545C82.0347 88.1682 82.0347 88.1045 82.2574 88.1682C82.7347 88.4864 83.2119 88.7727 83.6892 89.0591C83.8801 89.2182 84.0074 89.3455 84.1665 89.4409C84.4847 89.6636 84.8028 89.9182 85.3756 90.2045C85.6619 90.3636 86.0119 90.5545 86.4574 90.7136C86.6801 90.8091 86.9347 90.9045 87.1892 91.0318C87.4756 91.1273 87.7619 91.2545 88.0801 91.35C89.0665 91.5727 89.0665 91.5091 88.8438 91.3818C88.8119 91.35 88.7483 91.35 88.7165 91.3182C90.5301 91.9227 92.4392 92.3364 94.3801 92.5591V93.8955C94.3483 94.5955 94.3483 95.2318 94.3165 95.7727C94.3483 95.7091 94.3801 95.6454 94.3801 95.55V97.2682C94.3483 98.4773 94.3165 99.5909 94.221 100.164C94.2847 100.259 94.3483 100.386 94.3801 100.482L94.4437 104.109ZM102.144 64.3682L100.712 64.2727L102.112 64.3364L101.953 64.1455L102.207 64.3364H102.112L102.144 64.3682ZM83.4347 67.0727C83.4983 67.0409 83.6256 67.2636 83.721 67.4864C83.7847 67.6136 83.8165 67.7091 83.8483 67.8364C83.8801 67.9318 83.8801 68.0591 83.8801 68.1227C83.5938 67.7409 83.5301 67.2 83.4347 67.0727ZM84.1347 68.9182C84.2619 68.9182 84.3574 68.8864 84.4847 68.8545C84.421 68.9182 84.5801 69.0773 84.7392 69.2045C84.9301 69.3318 85.1528 69.4273 85.1847 69.4273C85.1847 69.4909 85.1847 69.5227 85.1847 69.5545C84.9301 69.4591 84.6756 69.3318 84.4847 69.2045C84.3574 69.1409 84.2619 69.0136 84.1347 68.9182ZM89.6392 69.4909C89.8301 69.1727 90.4665 69.4909 90.9119 69.4591C91.071 69.6182 90.721 69.5227 90.5619 69.6182L89.6392 69.4909ZM95.2074 72.8636C95.1437 73.15 94.9847 73.4045 95.0801 73.7864C95.1438 73.7227 95.1756 73.7864 95.1756 73.5318L95.2074 74.0727C94.9528 74.6773 94.8892 74.1045 94.7938 73.5318C94.7619 73.5 94.6983 73.4682 94.6665 73.3727C94.6347 73.2773 94.6983 73.2136 94.7301 73.1182C94.6983 72.9909 94.6665 72.8955 94.6347 72.8636L94.6983 72.8C94.7937 72.9273 94.7619 73.0227 94.7301 73.1182C94.7619 73.2455 94.7938 73.4045 94.7938 73.5636C94.9847 73.6273 95.1119 73.0227 95.2074 72.8636ZM92.6937 7L91.9619 6.90455L93.1392 7L94.1574 7.09545L94.0301 8.87727C94.0301 8.75 93.9983 8.59091 93.9983 8.46364V8.08182C93.9983 7.82727 93.9983 7.57273 93.9983 7.31818C92.7256 7.31818 90.7528 7.12727 90.4983 7L93.3619 7.12727L92.6937 7ZM89.5756 7.12727L84.5483 7.03182L89.4165 7.09545L88.8119 6.90455L89.7665 7.09545H89.4483L89.5756 7.12727ZM94.4119 7.15909C94.4119 7.09545 94.4119 7.03182 94.4119 7V7.09545C94.4119 7.09545 94.4119 7.12727 94.4119 7.15909C94.3801 7.66818 94.3483 8.17727 94.3483 8.62273C94.3483 7.76364 94.3801 7.35 94.4119 7.15909ZM94.571 76.9682C94.571 77.1909 94.5074 77.4136 94.4437 77.5091V77C94.4756 76.9682 94.5392 77 94.571 76.9682ZM94.4437 59.0864C94.4756 58.7045 94.4119 58.1954 94.4756 58.0364C94.5392 58.4818 94.6028 59.3409 94.4437 59.5636V59.0864ZM102.78 64.1455L103.957 64.4318C103.289 64.5909 102.494 64.3364 102.398 64.1455L103.194 64.2727L102.78 64.1455ZM103.512 64.05C103.639 64.0818 103.766 64.1136 103.894 64.1136C103.639 64.1136 103.544 64.0818 103.512 64.05H103.48H103.512C103.48 64.05 103.48 64.05 103.512 64.05ZM16.2665 96.25L16.5528 97.1409C16.3619 97.1727 16.3938 100.514 16.3938 100.864C16.3301 100.991 16.2983 101.023 16.2665 101.023V97.9364C16.2665 97.4273 16.2983 96.8227 16.2665 96.25ZM56.8028 96.8864C56.7074 96.8227 56.4847 96.6955 55.9119 96.6C56.3256 96.6636 56.7392 96.7909 57.121 97.0136C57.3119 97.1409 57.4392 97.2045 57.5983 97.3L58.0119 97.5864C58.9028 98.3182 58.871 98.4136 58.3937 98.1591C58.1392 98.0318 57.7892 97.8409 57.4074 97.5864C57.3119 97.5227 57.1847 97.4591 57.0892 97.3955C56.9619 97.3318 56.8347 97.2682 56.7074 97.2045C56.421 97.0773 56.1347 97.0136 55.8165 96.9818C55.721 97.0136 55.5301 97.0136 55.1165 97.0773C54.7347 97.1409 54.4165 97.1727 54.0347 97.3C53.8119 97.3954 53.621 97.5545 53.4937 97.65C53.3665 97.7455 53.2392 97.8409 53.1756 97.9045L52.9847 97.9682C53.1437 97.8091 53.3347 97.6818 53.4937 97.5545C53.6528 97.4273 53.8756 97.3318 54.0347 97.2682C54.5119 97.0136 55.1483 96.8545 55.8165 96.95C56.0392 96.9182 55.4983 96.6636 54.7665 96.7273C54.3847 96.7591 54.0028 96.8545 53.6528 97.0136C53.3028 97.1727 53.1119 97.3 52.9528 97.3636C53.0801 97.3 53.1756 97.2364 53.3028 97.1727C53.4301 97.1091 53.5892 97.0136 53.7483 96.95C54.0665 96.8227 54.3847 96.7273 54.7347 96.6954C55.4028 96.6318 56.1665 96.6955 56.9937 97.0773C56.8983 96.9818 56.8983 96.95 56.8028 96.8864ZM66.8574 104.236C67.3983 104.618 68.0028 105.032 68.321 105.318C68.3847 105.382 68.4483 105.414 68.4801 105.445L66.8892 104.395C66.8256 104.3 66.921 104.332 66.8574 104.236ZM75.8301 101.564C76.5619 100.991 75.9574 101.15 78.0256 99.8773C78.6301 99.5909 79.7119 99.05 80.6983 98.4454L77.3256 100.705L75.8301 101.564ZM31.2847 99.1773L29.8528 98.1591L29.121 97.65C28.8665 97.4591 28.5801 97.3 28.2938 97.2045C28.4847 97.1727 28.8028 97.2682 29.1528 97.4591C29.471 97.65 29.7892 97.8727 30.171 98.1591C30.9028 98.7 31.7301 99.3364 32.4301 99.75C32.8438 100.195 31.7938 99.3682 31.2847 99.1773ZM16.2347 19.7909C16.2665 18.3273 16.2028 16.4182 16.2665 15.8136C16.3301 17.5 16.3938 20.8409 16.2347 21.6364V19.7909ZM16.4256 88.2636C16.5528 88.0409 16.8392 92.0818 16.5528 93.0682C16.521 91.0318 16.521 88.8045 16.4256 88.2636ZM16.5847 41.3636L16.6801 39.1045L16.7119 39.2955L16.6165 41.5227L16.5847 41.3636ZM16.5847 18.7409L16.7756 19.6318L16.6165 20.7773L16.5847 18.7409ZM95.271 80.0545C95.1756 79.9273 95.1119 79.8 95.0483 79.6409C95.271 79.7682 95.271 79.5773 95.6528 80.0227C95.6847 80.2136 95.8756 80.5 96.1301 80.6591C95.8119 80.5318 95.4938 80.3091 95.271 80.0545ZM93.9347 64.4318L93.9665 64.4L94.7619 64.4955L94.7301 64.5273L93.9347 64.4318ZM94.7619 58.8L94.9528 59.0227L94.8256 59.3091L94.7619 58.8ZM11.5892 111.65C11.5892 111.682 11.621 111.682 11.6528 111.714C11.9392 111.968 12.2892 112.159 12.671 112.255C12.4483 112.191 12.2574 112.095 12.1301 112.032C11.8756 111.905 11.7483 111.777 11.6528 111.714C11.5892 111.682 11.5574 111.618 11.5256 111.586C11.5256 111.586 11.5574 111.618 11.5892 111.65ZM12.9574 112.318C12.9256 112.318 12.9256 112.318 12.8938 112.318C12.9256 112.318 12.9574 112.318 12.9574 112.318ZM114.33 45.3409C114.394 45.4045 114.457 45.4682 114.489 45.5318C113.885 45.0227 113.28 44.5773 112.644 44.1318C112.612 44.0364 112.739 44.1 112.612 43.9727C112.93 44.1955 113.28 44.4818 113.566 44.7045C113.885 44.9273 114.139 45.15 114.33 45.3409ZM100.648 37.6091C100.712 36.8773 100.776 35.7955 100.839 35.3818C100.807 36.1455 100.744 36.8455 100.712 37.6091C100.712 37.8 100.68 38.0227 100.68 38.2455C100.68 38.3727 100.68 38.4682 100.68 38.5955C100.68 38.6273 100.68 38.6273 100.68 38.6591H100.648H100.521L100.648 38.6909H100.712V38.7227H100.807V38.6909H100.839H100.903C100.998 38.7227 101.094 38.7545 101.126 38.7864C101.412 38.8818 101.539 38.9455 101.507 38.9773C101.476 39.0091 101.285 39.0091 100.935 39.0091C100.807 39.0091 100.648 39.0091 100.457 38.9773H100.426V38.8818C100.426 38.8182 100.426 38.7227 100.426 38.6591H100.394H100.426C100.426 38.5 100.426 38.3727 100.394 38.2136C100.362 38.15 100.298 38.0227 100.266 37.5773V37.5136C100.235 37.1318 100.298 36.75 100.33 36.3682C100.298 35.8273 100.266 35.35 100.235 35.1273L100.298 34.8727C100.394 35.4455 100.362 35.9227 100.33 36.3682C100.33 36.7182 100.362 37.0682 100.362 37.5136C100.362 37.7045 100.394 37.9591 100.394 38.2136C100.521 38.4045 100.585 38.0227 100.648 37.6091ZM100.839 38.6591C100.807 38.6591 100.807 38.6591 100.839 38.6591C100.807 38.5636 100.807 38.4045 100.839 38.1818V38.5636V38.6591ZM107.33 7.22273C107.107 7.28636 106.821 7.31818 106.535 7.31818C106.28 7.31818 106.026 7.31818 105.739 7.28636C104.626 7.25455 103.385 7.19091 102.366 7.22273C101.666 7.06364 103.257 7.15909 103.926 7.06364L106.057 7.12727C106.248 7.12727 106.407 7.12727 106.598 7.12727C106.694 7.12727 106.789 7.12727 106.885 7.12727L107.171 7.09545C107.553 7.03182 107.903 6.87273 108.253 6.68182C108.126 6.87273 107.776 7.09545 107.33 7.22273ZM83.5619 0.859091C81.0801 0.890909 78.4074 0.890909 77.771 0.986364C77.5165 0.859091 82.4165 0.572727 83.5619 0.859091ZM87.4437 1.14545L88.4938 0.859091C88.5574 1.05 92.5665 1.01818 93.0119 1.01818C93.171 1.08182 93.2028 1.11364 93.171 1.14545H89.4165C88.8437 1.14545 88.1438 1.11364 87.4437 1.14545ZM5.19376 7.38182L4.49376 7.31818C4.3983 7.31818 4.23921 7.28636 4.11194 7.25455C3.98466 7.22273 3.85739 7.19091 3.73012 7.15909C3.85739 7.19091 3.95285 7.19091 4.08012 7.19091C4.20739 7.19091 4.30285 7.19091 4.43012 7.19091H5.03466L6.27557 7.15909L5.19376 7.38182ZM4.65285 6.93636C4.23921 6.93636 3.85739 6.90455 3.53921 6.77727C3.22103 6.65 2.9983 6.52273 2.87103 6.39545L2.83921 6.36364C3.28466 6.65 3.82557 6.84091 4.3983 6.84091H5.00285C5.03466 6.84091 5.03466 6.84091 5.06648 6.84091C5.41648 6.84091 5.7983 6.84091 6.18012 6.84091C7.67557 6.84091 9.26648 6.80909 9.80739 6.87273C8.47103 6.93636 6.27557 6.96818 4.65285 6.93636ZM10.3483 99.75L10.2847 105.636L10.4756 104.905L10.2847 106.05V105.668L10.2528 105.827L10.3483 99.75ZM11.1119 111.841C10.4438 111.205 10.1256 110.314 10.1256 109.55C10.1892 108.182 10.2847 107.164 10.3801 106.909L10.3165 108.723C10.3165 109.041 10.2847 109.295 10.2847 109.645C10.2847 109.964 10.3483 110.282 10.4756 110.6C10.3801 110.282 10.3165 109.964 10.3483 109.645C10.3483 109.327 10.4119 109.041 10.4119 108.723L10.3801 109.391C10.3801 109.614 10.3801 109.868 10.4119 110.091C10.4756 110.568 10.6983 111.014 10.9847 111.427C11.5574 112.223 12.5756 112.732 13.6256 112.668C12.7665 112.795 11.7801 112.477 11.1119 111.841ZM123.494 60.5182C123.144 58.8955 122.666 57.3045 122.03 55.8091C121.807 55.1409 121.553 54.5045 121.266 53.8682C121.553 54.3455 121.648 54.4091 121.839 54.6954C121.935 54.8227 122.03 55.0455 122.189 55.3636C122.253 55.5227 122.348 55.7455 122.444 55.9682C122.539 56.2227 122.635 56.5091 122.762 56.8591C122.826 57.0818 122.889 57.3682 122.953 57.6864C123.016 58.0045 123.112 58.3545 123.176 58.7364C123.271 59.3409 123.398 59.9455 123.494 60.5182Z" fill="#654F96"/>
<path d="M99.3755 0.289271C99.3755 0.289271 99.4139 0.2509 99.3755 0.289271C99.3755 0.2509 99.3755 0.289271 99.3755 0.289271Z" fill="#654F96"/>
<path d="M100.839 21.3818C100.839 22.0181 100.839 22.6227 100.839 23.1954C100.871 22.7818 100.871 22.209 100.839 21.3818Z" fill="#654F96"/>
<path d="M9.68017 16.9273C9.64835 16.5455 9.64835 16.2592 9.58472 16.1637C9.61653 16.7046 9.64835 16.8637 9.68017 16.9273Z" fill="#654F96"/>
<path d="M9.45728 23.1318C9.45728 23.0682 9.45728 22.9727 9.48909 22.9409C9.48909 22.8772 9.48909 22.7818 9.48909 22.6863L9.45728 23.1318Z" fill="#654F96"/>
<path d="M114.139 87.3409C113.344 87.8182 113.089 88.2 112.135 88.8364C112.357 88.6773 112.707 88.4864 113.057 88.2636C113.376 88.0409 113.726 87.8182 114.012 87.6273C114.489 87.2136 114.744 86.9909 114.139 87.3409Z" fill="#654F96"/>
<path d="M107.33 90.9682C107.012 91.0636 106.725 91.1591 106.471 91.2227C107.521 90.9364 108.189 90.65 108.794 90.3636C108.253 90.6182 107.775 90.7773 107.33 90.9682Z" fill="#654F96"/>
<path d="M106.471 91.2227C106.375 91.2545 106.28 91.2863 106.185 91.3182C106.28 91.2863 106.375 91.2545 106.471 91.2227Z" fill="#654F96"/>
<path d="M110.353 89.5046C110.066 89.6637 109.812 89.8228 109.557 89.9819C109.303 90.1092 109.048 90.2364 108.794 90.3637C109.907 89.8546 111.244 89.1228 112.644 88.1046C111.657 88.741 110.926 89.1864 110.353 89.5046Z" fill="#654F96"/>
<path d="M100.33 106.336C100.33 106.591 100.33 107.068 100.33 107.641C100.33 108.054 100.33 108.532 100.33 108.977C100.33 109.2 100.33 109.423 100.298 109.614C100.298 109.709 100.266 109.836 100.266 109.932C100.298 109.773 100.33 109.645 100.362 109.486C100.394 109.295 100.425 109.104 100.425 108.914C100.457 108.564 100.521 108.245 100.553 107.895C100.616 107.164 100.68 106.273 100.712 104.459C100.585 104.936 100.457 111.745 100.33 106.336Z" fill="#654F96"/>
<path d="M100.235 109.9C100.203 109.995 100.203 110.091 100.171 110.186C100.203 110.091 100.235 110.027 100.235 109.9Z" fill="#654F96"/>
<path d="M93.8074 110.695C94.221 110.982 94.6665 111.268 95.1756 111.555C94.7937 111.332 94.3165 111.014 93.8074 110.695Z" fill="#654F96"/>
<path d="M39.5573 112.859C39.3664 112.764 39.1755 112.636 39.1118 112.573C38.5391 112.223 36.4709 110.886 37.5845 111.682L38.9845 112.605L39.1755 112.732L39.43 112.891C39.5891 112.986 39.78 113.082 39.9709 113.146C40.3209 113.273 40.7027 113.368 41.1164 113.4C41.0845 113.336 40.7027 113.305 40.2573 113.146C40.0027 113.05 39.7482 112.986 39.5573 112.859Z" fill="#654F96"/>
<path d="M27.3393 104.077L27.2438 104.141C27.212 104.268 27.212 104.427 27.1802 104.555C27.2438 104.523 27.3074 104.491 27.3393 104.459C27.562 104.618 27.562 104.555 27.6574 104.555C27.7211 104.555 27.7847 104.586 27.9756 104.682C28.0074 104.714 28.0711 104.745 28.1347 104.777C28.1984 104.809 28.2938 104.873 28.3893 104.936C28.5802 105.064 28.7711 105.191 29.0256 105.35L28.1029 104.65L27.3393 104.077Z" fill="#654F96"/>
<path d="M20.7211 109.391L18.9711 110.123C18.5892 110.377 18.7801 110.568 20.7211 109.391Z" fill="#654F96"/>
<path d="M9.45744 106.209L9.3938 108.691V109.295V109.455V109.677C9.3938 109.836 9.42562 109.964 9.42562 110.123C9.52107 110.695 9.71198 111.236 10.0302 111.745C9.64834 111.109 9.42562 110.377 9.42562 109.645L9.45744 106.209Z" fill="#654F96"/>
<path d="M9.64819 93.3546L9.55273 96.7592L9.61637 97.2046L9.64819 93.3546Z" fill="#654F96"/>
<path d="M33.671 0.540833C31.5074 0.890832 28.2937 0.41356 27.2119 0.795378C28.771 0.699923 34.1801 0.827196 33.671 0.540833Z" fill="#654F96"/>
<path d="M100.776 11.5181L100.712 16.7045C100.776 12.6318 100.871 15.5272 100.776 11.5181Z" fill="#654F96"/>
</svg>
