<svg width="162" height="131" viewBox="0 0 162 131" fill="none" xmlns="http://www.w3.org/2000/svg">
<path d="M40.1837 64.423C40.6392 65.1917 40.402 63.8156 40.5918 64.8785C40.3545 64.8785 40.1457 64.7552 40.1837 64.423Z" fill="#654F96"/>
<path d="M40.7721 61.8984C40.326 58.6525 43.2872 55.7199 44.5684 52.7872C44.7582 52.4645 45.0714 53.3092 45.4606 52.5594C46.5615 49.4465 51.0411 46.5328 54.7331 45.84L54.6192 46.1152C55.293 45.9633 55.8245 45.0048 56.5648 44.8434C56.6217 44.9668 56.4129 45.0997 56.6312 45.2231C56.6312 44.7675 57.8365 44.6156 58.0643 44.274C58.3965 44.3594 58.444 44.6631 58.8521 44.758L59.1558 44.2075C60.1048 42.8409 62.003 43.752 63.588 43.1636C63.512 43.2774 63.3602 43.3629 63.4836 43.4673C66.1125 42.6985 69.5482 43.4673 72.3195 44.7011C72.1297 44.796 71.8924 45.0238 71.9588 45.261C72.31 44.8909 73.1926 45.261 73.9234 45.6312C73.9234 46.2481 75.347 46.0772 75.907 46.9599H75.7646C76.7137 47.0358 76.2961 47.9089 77.1693 47.9089C77.1836 48.1112 77.1836 48.3141 77.1693 48.5164C77.9096 48.2981 77.5679 49.5224 78.1848 49.7691L78.2892 49.6647C78.7542 50.0159 78.6498 50.443 79.02 50.8036V50.8891C79.8267 51.8381 79.7982 52.6164 80.2728 52.3317C80.0735 52.9106 79.542 51.3826 79.3237 52.3317C81.7533 55.4067 82.7499 59.5636 82.7783 63.4928C82.5411 63.9389 82.4651 64.2141 82.2563 64.309C82.3797 64.6982 82.2563 65.7611 82.5411 66.1408C82.5411 66.0174 82.2469 66.3685 82.1899 66.5678C81.8862 67.2417 82.7119 67.422 82.3418 68.1623C82.2468 67.8301 82.076 67.6972 81.8577 67.7732C82.0625 68.5487 82.082 69.3614 81.9147 70.1459C81.8482 70.013 81.8387 69.8137 81.6584 69.8042C81.9621 70.7533 81.1839 71.2943 81.2883 72.101L80.9941 71.6834C80.2823 72.7179 81.535 72.2149 80.9941 73.1544C80.9941 72.8792 80.8232 72.9172 80.7188 72.8413C80.9941 73.9137 80.2348 75.3848 80.045 76.3528C80.045 76.2864 79.9406 76.2674 79.9406 76.2674C79.5799 77.2829 78.9915 78.1656 78.6214 79.3614C78.2892 79.6651 77.9855 78.8679 77.5584 79.9119C78.1658 80.1966 76.8371 81.6867 77.8052 81.4874C77.1126 82.2829 76.514 83.1555 76.0209 84.0878C76.0209 83.5848 75.0718 84.0878 75.4989 83.3381L74.844 83.6228C74.6732 83.4045 75.2616 83.1577 74.844 83.1388C74.5933 83.7244 74.2747 84.2787 73.895 84.7902C73.9514 85.7733 73.752 86.7543 73.316 87.6374C73.4489 87.03 72.5568 87.4571 72.6991 87.0774L72.6706 89.099C72.4429 89.4406 72.2151 88.8522 71.9873 89.4027C72.1392 89.4881 72.0537 89.7633 72.0537 89.9816C71.8924 90.0575 71.1047 91.3578 70.4783 91.0731C70.1746 91.0731 70.8104 90.4846 70.3454 90.6745C69.8614 91.2249 70.0132 91.4147 69.5197 91.9557H69.4438C69.0452 92.2499 68.6655 93.199 69.2824 93.0471C69.5387 92.8099 68.9218 92.8858 69.3963 92.639C69.289 93.3153 68.9542 93.9346 68.4472 94.3948C68.5611 94.1386 68.4472 94.0437 68.3523 93.8444C67.9613 94.8754 67.4069 95.8367 66.7104 96.6916C66.9192 96.9194 66.6345 96.0083 66.8623 96.0083C65.5431 96.6916 65.1255 98.4949 63.8157 98.8555C63.9296 98.6847 64.1764 99.1023 64.11 99.0453C63.569 99.4819 63.3032 99.1307 63.0849 99.5578C62.8761 99.3965 62.7053 99.9849 62.4016 100.346C62.3447 100.64 62.2308 100.346 62.5155 100.042C61.6162 101.353 60.4319 102.443 59.0514 103.231C59.1747 103.354 58.7097 104.284 58.425 104.484L58.2921 104.085C57.8935 104.085 57.4095 104.816 57.1532 104.578C56.8685 105.414 59.1178 102.528 58.5673 103.43C58.1592 103.326 57.8745 104.778 57.7037 104.218C57.1722 104.654 56.9159 105.414 56.1567 105.509C56.356 105.442 56.2706 104.73 55.853 105.081C55.1127 105.717 55.7391 105.395 55.1886 105.974L54.8849 106.401C55.0937 106.742 54.1541 106.875 54.6951 107.008C54.4104 106.818 53.6606 107.957 53.3664 107.416L53.1861 106.923C52.8634 107.198 52.9393 107.767 52.7969 108.138C52.721 108.138 52.5786 108.138 52.5407 108.033C52.9393 108.707 51.677 108.555 51.5916 109.333C50.709 109.618 49.6934 110.577 49.105 110.406C48.7533 111.031 48.2161 111.532 47.5675 111.839C47.6624 111.697 47.8238 111.564 47.7668 111.393C47.2448 111.478 47.2543 111.716 46.9506 112.057C46.9506 111.981 46.7038 112.057 46.3527 112.057C45.9265 112.197 45.4923 112.311 45.0524 112.399C44.3881 113.101 44.7013 113.348 44.6918 113.709C44.2173 113.557 43.7427 114.031 43.0689 114.601C42.898 114.838 42.7557 114.686 42.6133 114.601L42.1862 114.288C41.8991 114.043 41.6691 113.738 41.5124 113.395C41.8256 113.528 42.6513 113.898 42.1293 113.177C42.0994 112.936 41.9898 112.711 41.8179 112.539C41.6459 112.368 41.4215 112.258 41.1802 112.228C40.6343 112.112 40.1508 111.797 39.823 111.345C39.7253 111.557 39.6551 111.78 39.6142 112.01C39.4719 111.355 38.2665 111.288 38.7506 110.861C38.352 110.804 38.0293 109.912 37.6971 110.453C36.8524 108.973 34.5651 108.014 34.6031 106.515C34.3658 106.429 34.0052 105.955 33.8818 106.268C33.8818 106.79 34.4417 106.458 34.3848 106.733C34.3302 106.687 34.2613 106.662 34.1902 106.662C34.1191 106.662 34.0503 106.687 33.9957 106.733C33.7204 106.287 33.4642 105.974 34.1665 105.936C33.616 104.882 32.6005 105.936 31.7274 104.749C31.9552 104.607 31.9457 104.455 31.6135 104.199L30.7403 103.962C30.1424 103.25 30.7403 103.183 31.044 102.851C30.6359 102.557 30.2183 102.13 29.8387 102.206L29.7438 101.437C29.7438 102.025 29.2693 101.333 29.0225 101.247L29.2693 101.333C29.3262 101.143 28.8422 100.82 28.5954 100.659C28.4531 100.906 28.7947 101.38 28.9751 101.665C28.6619 101.665 28.4056 101.314 28.026 101.247C28.4056 101.019 27.6653 100.469 27.4186 100.156C27.1718 99.8426 26.7922 100.07 26.7068 99.9659C26.8586 99.8046 26.2132 99.425 26.7068 99.4534C26.8681 99.5104 26.8017 99.852 27.1243 99.89C27.0294 99.5673 27.3237 99.3111 26.6878 99.0833C26.2132 98.903 26.1753 99.7666 25.7387 98.9504C25.976 99.0453 26.1278 98.9504 26.3651 98.9504L25.938 98.2196L25.6343 98.4664C25.6343 98.3145 25.7007 98.343 25.7007 98.2766C25.2452 98.3905 24.7516 97.4699 24.2676 97.6597C23.9449 97.3939 23.8405 96.853 23.6033 96.5303H23.6792C23.5644 96.2903 23.396 96.08 23.187 95.9154C22.978 95.7509 22.734 95.6365 22.4739 95.5812H22.5403C22.267 95.2559 21.9089 95.0128 21.5058 94.8789C21.2495 94.1955 22.4074 93.702 21.5058 93.5027C21.0218 93.0282 20.253 93.2275 20.2625 93.5976C19.6076 92.5346 18.184 91.9652 17.8518 90.7504C17.6241 90.7504 17.6241 90.8738 17.3109 90.6745C16.191 89.2603 14.3877 88.2068 13.9986 86.6314C14.4636 86.9066 14.3023 86.3941 14.4636 86.2422C13.9132 86.1568 14.3782 85.6159 13.8372 85.9006C13.6095 86.1663 13.4481 86.2517 13.6854 86.7168C12.7836 86.0586 12.0623 85.1839 11.5879 84.1733C11.6638 84.5054 11.4361 84.4105 11.1988 84.3061C11.6639 83.9834 11.1988 83.357 10.6578 83.0154L10.3446 83.1862V82.6547C10.1169 82.5503 9.64231 82.9395 9.49046 82.2561C9.58362 82.1539 9.64035 82.0238 9.6518 81.886C9.0349 81.5918 8.09531 81.1932 7.87703 80.4719V79.7221C7.65874 79.5228 7.10827 79.314 7.31707 79.8075C6.82355 78.6971 6.36799 78.0422 6.53882 77.4917C4.48881 76.4478 2.74251 73.7524 1.9263 71.2848H2.19204C2.19204 70.5635 1.64158 71.1139 1.63209 70.6014C1.93579 70.7248 1.97375 69.9276 2.41982 70.3357C2.41982 69.3297 1.59412 69.2917 1.33787 68.6653C0.986712 68.6653 1.67005 69.1209 1.23347 69.1114C1.09111 69.0165 1.14806 67.6878 0.635552 67.6213C0.787405 67.3271 1.18602 67.46 1.4138 67.5549L1.07213 66.9854C1.5182 66.1977 2.41033 68.4375 2.97029 67.5359C2.90385 67.3746 2.84691 67.2132 2.78996 67.0424C3.22654 66.4824 3.63464 68.2382 3.56821 66.9665C3.24552 66.4919 2.4388 66.0933 2.29644 66.6343C2.06866 65.372 1.11009 66.1692 1.04366 64.7741C1.3094 64.385 1.18602 65.8845 1.58463 65.5808C1.93579 64.9259 1.27144 64.309 1.44227 63.6826C1.24296 64.3185 0.739951 63.7776 0.654534 63.3315C0.920276 62.6197 1.11009 63.8155 1.21449 62.8095C0.939258 62.6766 0.84435 61.6801 0.540645 62.5248C-0.066766 62.0597 0.834859 61.4428 0.455227 60.788C0.96773 60.5602 1.3094 62.0312 1.75547 60.9778C1.26194 61.0727 1.49921 59.4877 0.701988 59.9053C0.948748 59.4877 1.29991 59.5447 1.48023 59.9053C1.85986 59.3738 1.19551 58.159 2.09713 58.2824L1.75547 57.9028C1.99901 57.7006 2.25937 57.5196 2.53371 57.3618C2.78996 56.8872 2.80894 55.4636 3.39737 55.8812C3.39737 55.7009 4.14714 54.6854 3.48279 54.8088C2.79945 55.3307 3.2645 55.7578 2.53371 55.8148C3.25501 55.568 3.09367 54.8088 3.20756 54.2963L3.4733 54.3817C3.53024 54.0875 3.95733 53.6129 3.84344 53.3092C3.84344 53.575 4.05224 53.5939 4.24205 53.4706L4.06173 53.034C4.64067 52.0374 4.76405 53.2712 5.39993 52.4171C5.27752 52.6808 5.17597 52.9537 5.09622 53.2333C5.15317 53.0435 5.66567 53.0245 5.93141 52.5974C5.79854 52.2083 5.7416 51.6483 5.66567 51.2877C6.00734 50.7467 6.14021 51.3826 6.33952 50.7182C6.23217 51.0009 6.14029 51.2892 6.06428 51.5819C6.06428 51.7527 6.84253 51.6483 7.44045 51.1643C7.73466 50.7657 8.02888 49.8261 7.26961 50.2152C7.57332 49.94 8.17124 49.7976 8.07633 50.2152C8.74069 49.5983 7.73466 49.959 8.24717 49.3231C8.66476 49.3231 9.67078 49.0573 10.3731 49.1143L10.0219 50.0634L10.4585 49.8071C10.1453 50.5664 10.9426 49.9874 10.8951 50.6138C11.2273 50.5284 11.4835 50.1678 11.7018 49.883C10.4111 49.6268 12.1764 48.3265 11.6164 47.7856C12.9071 46.9883 13.1349 49.1143 14.1125 47.4914C13.8183 47.387 14.3118 46.5423 13.5051 47.1117C14.3972 46.9029 13.8467 46.1626 15.0141 46.1626C14.3213 46.6657 16.0391 46.7036 15.0141 47.4344C15.0141 47.1497 14.3592 47.4344 14.2169 47.5673C14.6534 47.7286 14.3877 48.3076 15.2324 48.0513C15.7259 47.852 16.4472 47.6622 16.2479 47.2921C16.0486 46.9219 15.4412 47.5388 15.6785 47.0168C16.7414 46.5802 17.0451 47.2541 17.3678 46.3999C16.675 46.5707 16.4187 46.1532 16.3618 45.8589L17.178 45.5457L17.0641 45.8589C18.4593 45.8589 17.3773 45.2325 18.7535 45.1756L19.4273 45.7166C19.1426 46.2006 17.4722 45.6596 17.8139 46.4664C18.6396 46.3525 18.9053 45.9728 19.712 46.1247C19.5412 46.2101 19.2944 46.2386 19.1236 46.324C19.4463 46.324 19.7595 47.3395 20.9174 46.7511C21.5438 46.5328 21.0977 46.4758 21.1167 46.1721C22.5023 46.1057 22.9199 45.9254 23.8026 45.9823C23.5368 46.5138 25.3021 46.343 24.2486 46.7321C23.8975 46.305 21.9424 46.0488 21.4014 46.6467C21.857 47.3775 20.3574 46.4853 20.0822 47.2256C21.1262 47.2256 21.0313 47.9659 21.1831 48.412C21.4312 48.4124 21.6745 48.3434 21.8854 48.2127C22.0468 47.7951 21.6861 47.7856 21.6861 47.349C22.6616 47.5494 23.6712 47.5104 24.6283 47.2351C24.9604 47.5293 24.7422 47.9184 24.2961 47.8615C25.6304 48.0249 26.92 48.4472 28.0924 49.1048C27.5989 48.1557 29.4686 49.5129 29.1933 48.7631C28.6239 48.336 28.2443 47.6622 28.7188 47.5198C29.1174 47.7286 28.5859 47.7951 28.7188 48.0039C29.4116 47.8615 29.2693 48.9529 30.0285 48.6113C28.7947 48.2506 29.4401 49.2756 28.994 49.6553C29.9431 49.7691 28.7947 49.9969 29.554 50.3671C30.5345 50.5218 31.4813 50.8428 32.3538 51.3161C33.0751 52.3886 34.7739 53.2143 35.5901 53.8976C35.8179 54.4766 35.1156 54.6569 35.4573 55.1599C35.9508 55.6534 35.5617 54.3247 36.0837 55.2643H35.9318C36.2735 55.3877 36.8809 56.9347 37.7635 56.612L37.0422 56.7923C37.1181 56.9727 37.3554 57.0106 37.5073 57.0865C37.3459 57.2384 37.3364 57.5231 37.0232 57.3808C37.0232 58.1495 37.8869 58.3298 38.314 58.9088V58.3203C39.2631 59.1176 39.3864 59.9907 40.0603 60.9113L39.7091 61.0727L40.2501 61.5472C39.8515 61.5472 39.9084 62.24 40.345 62.4109C39.8133 62.0311 39.2621 61.6795 38.6936 61.3574C38.6936 60.8354 39.358 61.5662 39.5383 61.1201C39.7186 60.6741 39.2346 59.6775 38.7695 59.7819C38.9499 60.1331 39.0448 60.1046 39.3105 60.2944C38.9214 60.6836 38.6272 60.1616 38.1621 60.1236C38.295 60.2755 38.314 60.6076 38.4848 60.5507C38.0289 60.3251 37.6542 59.9637 37.4124 59.5162C37.83 59.7724 37.5452 59.1176 37.7635 59.1745C37.3554 59.3928 36.8144 58.9942 36.4728 58.2729C36.5297 57.4757 35.2485 57.3238 34.717 56.5646C35.3261 56.4862 35.9439 56.6131 36.4728 56.9252C36.2545 56.3083 36.0362 56.4127 35.7799 55.8148C35.2202 55.9768 34.6209 55.933 34.0906 55.6914L34.2994 55.4067C33.654 55.0745 33.3503 55.4067 32.7239 54.8088C31.7348 53.8194 30.6252 52.9585 29.4211 52.2462L29.554 51.9236C28.6049 52.2652 27.5325 51.2023 26.6024 51.2212C25.3496 50.3766 23.5653 50.6423 22.9484 49.9685C20.5258 49.9242 18.1104 50.2441 15.7829 50.9175C15.8683 50.6992 15.9632 50.4999 16.0581 50.3006C15.7069 50.7752 15.6785 50.1108 15.2514 50.3006C15.8873 50.5094 14.8053 51.0219 14.625 51.4111C14.0249 51.532 13.4564 51.7758 12.955 52.1269C12.4536 52.478 12.0301 52.929 11.7113 53.4516L11.4835 53.1858C11.0185 54.2678 9.76569 54.543 8.79763 55.3972C8.58883 55.3972 8.17124 55.3307 7.96244 55.6629C7.8637 56.3878 7.6789 57.0983 7.41198 57.7794C7.02285 58.3583 6.37748 59.2884 5.9409 59.8958C5.71313 62.5437 5.27655 65.1537 6.4629 67.7542L6.13072 68.0579C7.66823 70.3452 8.77865 73.648 10.6673 75.4133L9.94602 75.641C10.2307 76.4098 11.1798 76.9603 11.4551 76.4952C11.7588 77.245 12.9546 77.8049 12.8407 78.5642C13.2678 79.276 13.7328 79.1147 14.2548 79.5133C14.9285 80.618 15.7744 81.6081 16.7604 82.4459L16.5326 82.1232C16.3048 82.1232 16.0676 82.2941 16.2954 82.6073C16.8363 82.9205 17.6051 84.3441 17.8424 83.3381C18.6111 84.923 20.7845 85.9575 21.4204 87.5994C21.4963 87.3432 21.8095 87.5994 22.0373 87.5994C23.0623 88.6624 23.7836 90.1145 24.8845 90.6934C24.9699 90.9402 24.3435 90.6934 24.7422 91.1395C25.0554 91.3388 24.9699 90.9402 25.3591 91.1395C27.3331 92.5536 28.4246 94.9358 30.0475 96.3689C33.1035 98.7701 35.8559 101.722 38.5892 104.18L38.4374 104.275C39.7851 104.645 40.1267 106.742 41.5219 106.676C41.6263 106.999 42.3001 107.492 41.9205 107.625C42.1985 107.727 42.4488 107.893 42.6513 108.109C42.8601 108.308 42.7841 108.308 42.8791 108.451C42.974 108.593 43.2017 109.068 43.3726 108.631C43.3726 108.631 43.3726 108.688 43.2872 108.773C43.439 108.925 43.6573 108.773 43.8092 108.593C43.9153 108.478 44.0405 108.381 44.1793 108.308C44.4791 108.111 44.7969 107.943 45.1284 107.805C45.0335 107.948 44.8342 108.147 44.8911 108.318C45.5555 108.261 45.6504 106.961 46.3717 107.464C46.6469 107.264 46.3717 106.98 46.1819 107.122C49.124 105.537 51.715 103.079 54.3155 100.858C56.5458 99.7476 55.2645 101.864 56.4319 100.184C56.6597 100.184 56.3275 99.871 56.4319 99.9849C56.878 99.3395 57.922 99.9849 58.0548 99.3016C57.5708 99.0453 58.1402 98.865 57.9599 98.6182C59.3266 97.9254 59.8581 98.0583 60.494 96.9953L60.6079 97.2611C61.1488 95.7805 62.6199 95.0022 62.8572 93.5691C68.0437 88.5153 72.3145 82.6003 75.4799 76.0871C78.6103 70.243 79.4074 63.4289 77.7103 57.0201C77.8336 55.3497 77.7103 55.1789 76.7042 53.8312C76.8276 53.8312 76.9035 53.9166 76.951 53.7648C76.429 53.9546 76.2771 52.8157 75.7362 52.9296C74.5434 50.993 72.8735 49.395 70.8864 48.2886C71.228 48.4215 71.6456 48.1177 71.2375 47.9184L70.6681 48.0039V47.8235C70.3549 47.7666 69.9468 47.8805 70.1366 48.1747C65.1634 46.0677 58.2731 46.0108 53.0532 49.5888C51.4771 50.4268 50.1061 51.6033 49.0386 53.034C45.1853 55.8812 42.2527 60.0382 41.8825 65.1063C41.6202 64.9088 41.4007 64.6602 41.2371 64.3755C40.7903 63.6462 40.6249 62.7789 40.7721 61.9363" fill="#654F96"/>
<path d="M39.7092 63.4739C39.8801 63.1891 39.7092 62.5248 40.3071 62.838C40.0984 63.0088 39.9655 63.4264 39.7092 63.4739Z" fill="#654F96"/>
<path d="M30.0381 49.1618C29.9812 49.2282 29.8578 48.9435 29.8198 48.8676C30.0381 48.953 30.3418 48.8676 30.4367 49.0479C30.2184 48.9625 30.19 49.0953 30.0381 49.1618Z" fill="#654F96"/>
<path d="M25.6628 47.2826C25.7957 47.0358 26.8492 47.1687 27.4566 47.2826H25.6628Z" fill="#654F96"/>
<path d="M21.2495 45.5553C20.8414 45.3275 20.9553 45.2136 21.5248 45.2421C21.5248 45.375 21.3729 45.4414 21.2495 45.5553Z" fill="#654F96"/>
<path d="M20.8983 46.1247C20.61 46.1104 20.3339 46.004 20.1106 45.821C20.1106 46.0203 21.0597 45.6976 20.8983 46.1247Z" fill="#654F96"/>
<path d="M10.857 47.7571C10.6482 47.89 10.2876 48.3361 9.90796 48.2127C10.2212 48.2127 10.857 47.3301 10.857 47.7571Z" fill="#654F96"/>
<path d="M7.10837 50.7183C6.9755 50.8037 6.89958 50.8037 6.80467 50.9745C6.51045 51.0694 6.61485 50.7372 6.80467 50.5664L7.10837 50.7183Z" fill="#654F96"/>
<path d="M40.5348 112.646L39.9653 112.304L40.1836 112.162L40.5348 112.646Z" fill="#654F96"/>
<path d="M68.4663 95.0403C68.6656 94.6037 68.8554 94.9833 68.9408 94.9453C68.6656 95.2585 68.8175 94.6321 68.4663 95.0403Z" fill="#654F96"/>
<path d="M78.2797 80.0922L78.2227 80.2156L77.7861 79.9214L78.2797 80.0922Z" fill="#654F96"/>
<path d="M87.8559 44.8149C88.1975 46.343 88.5677 43.8659 88.2925 45.764C87.9128 45.5837 87.6091 45.299 87.8559 44.8149Z" fill="#654F96"/>
<path d="M90.2381 40.9807C91.3011 35.2862 97.8972 32.0594 101.693 27.8929C102.206 27.4563 102.253 29.0508 103.335 28.0068C106.913 23.4227 116.015 21.05 122.573 21.9612L122.222 22.3693C123.446 22.4831 124.861 21.1829 126.199 21.3158C126.199 21.5625 125.791 21.6669 126.104 21.9896C126.417 21.2588 128.448 21.6574 129.027 21.1639C129.539 21.4866 129.454 22.0276 130.08 22.4167L130.897 21.6574C133.26 19.9111 135.927 22.5021 138.888 22.3977C138.698 22.5401 138.385 22.597 138.546 22.8438C143.358 23.0336 148.682 26.194 152.602 29.8575C152.232 29.9049 151.71 30.1422 151.653 30.5693C152.46 30.1517 153.731 31.2431 154.738 32.2966C154.386 33.3311 156.873 33.8436 157.291 35.6279H157.044C158.524 36.2733 157.404 37.526 158.885 37.9436C158.8 38.2758 158.686 38.608 158.562 38.9592C159.919 38.9592 158.667 40.8573 159.511 41.6166L159.749 41.4932C160.328 42.3474 159.9 43.0117 160.328 43.8184L160.214 43.9323C161.058 45.9159 160.546 47.2636 161.495 47.0358C160.85 47.8995 160.793 45.1377 159.872 46.4474C162.197 52.9486 161.552 60.4558 159.388 67.0234C158.762 67.6403 158.439 68.0674 158.069 68.0959C158.069 68.8077 157.31 70.5445 157.518 71.3227C157.585 71.1045 156.901 71.541 156.693 71.8447C155.81 72.7938 157.091 73.5436 156.057 74.5781C156.057 73.9707 155.867 73.629 155.468 73.629C155.601 75.0052 154.766 76.3434 154.234 77.6341C154.234 77.3684 154.291 77.0362 153.997 76.9223C153.997 78.6876 152.374 79.1432 152.099 80.5383L151.909 79.8075C150.144 81.1362 152.517 81.0034 151.103 82.2656C151.226 81.8006 150.951 81.7911 150.818 81.5918C150.647 83.6133 148.559 85.5589 147.676 87.0775C147.674 87.0354 147.661 86.9945 147.64 86.9582C147.618 86.9219 147.589 86.8912 147.553 86.8687C146.386 88.3587 144.801 89.5451 143.614 91.3009C142.893 91.6236 142.836 90.124 141.545 91.6236C142.39 92.4398 139.343 94.1955 141.08 94.4044C139.666 95.4009 137.284 96.7581 136.639 97.7451C136.971 96.9289 135.139 97.1567 136.183 96.2076L134.93 96.3215C134.769 95.847 135.879 95.771 135.253 95.5148C134.518 96.3585 133.69 97.1162 132.785 97.7736C132.14 99.0738 131.903 100.83 130.232 102.158C130.802 101.209 129.074 101.437 129.511 100.887L128.22 104.322C127.66 104.749 127.613 103.648 126.911 104.446C127.119 104.673 126.835 105.072 126.702 105.452C126.408 105.452 124.301 107.198 123.465 106.401C122.981 106.182 124.339 105.613 123.465 105.66C122.355 106.325 122.516 106.714 121.368 107.35L121.263 107.226C120.447 107.492 119.27 108.859 120.39 108.963C120.941 108.697 119.868 108.479 120.808 108.337C120.58 109.191 119.337 110.112 118.169 110.71C118.492 110.339 118.302 110.102 118.312 109.76C117.079 111.269 115.615 112.573 113.975 113.623C114.183 114.117 114.221 112.437 114.61 112.57C112.019 112.968 110.321 115.74 107.967 115.559C108.252 115.332 108.441 116.176 108.356 116.053C107.208 116.48 106.961 115.749 106.344 116.319C106.097 115.939 105.48 116.831 104.778 117.268C104.512 117.723 104.503 117.144 105.129 116.831C104.247 117.638 100.251 119.944 97.5365 120.21C97.6884 120.485 96.3786 121.785 95.7997 121.956V121.216C95.1448 120.998 93.9015 121.947 93.6263 121.406C92.6772 122.639 98.049 119.08 96.6254 120.276C96.0085 119.868 94.7272 122.174 94.7272 121.111C93.5884 121.539 92.7342 122.658 91.4245 122.393C91.7756 122.393 92.0414 121.159 91.1397 121.51C89.5548 122.165 90.7791 121.985 89.5358 122.639L88.786 123.18C88.9474 123.864 87.296 123.56 88.1406 124.13C87.7705 123.655 85.8534 125.211 85.692 124.063V123.114C85.0087 123.399 84.8094 124.376 84.3633 124.927C84.2494 124.87 84.0121 124.756 84.0027 124.595C84.2779 125.952 82.2658 124.993 81.7249 126.255C80.1019 126.255 77.9285 127.29 76.9795 126.664C76.0404 127.509 74.8643 128.046 73.6102 128.201C73.8475 128.011 74.1987 127.878 74.1892 127.575C73.2401 127.404 73.1547 127.812 72.4619 128.22C72.4619 128.106 72.0632 128.011 71.4368 127.935C70.6465 127.932 69.8571 127.879 69.0736 127.774C67.5741 128.571 67.9442 129.236 67.7449 129.758C67.0426 129.245 65.9037 129.758 64.5276 130.336C64.11 130.65 63.9676 130.337 63.7778 130.09C63.588 129.843 63.4076 129.596 63.2368 129.33C62.8785 128.757 62.6636 128.106 62.6104 127.432C63.0565 127.831 64.2238 128.913 63.7588 127.432C63.8287 127.022 63.7616 126.599 63.5678 126.231C63.374 125.862 63.0642 125.567 62.6863 125.392C61.8352 124.898 61.2015 124.102 60.9116 123.161C60.6316 123.464 60.3923 123.803 60.1998 124.167C60.3231 122.991 58.3016 122.203 59.4025 121.766C58.7666 121.453 58.7192 119.792 57.865 120.495C57.2766 117.552 54.0023 114.658 54.8944 112.181C54.5432 111.905 54.2111 110.918 53.8219 111.364C53.6037 112.257 54.6571 112 54.4104 112.418C54.3397 112.316 54.2366 112.24 54.1177 112.204C53.9988 112.168 53.8711 112.173 53.7555 112.219C53.5467 111.269 53.2999 110.662 54.4863 110.975C54.1541 108.916 51.8953 110.026 51.0791 107.635C51.5347 107.521 51.5916 107.274 51.193 106.685L49.8548 105.812C49.2569 104.284 50.3388 104.512 51.0032 104.123C50.4812 103.411 50.0541 102.453 49.3328 102.367L49.7124 100.991C49.4372 101.987 48.9722 100.554 48.621 100.279L48.9722 100.554C49.1904 100.27 48.5546 99.4724 48.2319 99.0548C47.8617 99.387 48.1559 100.374 48.2983 100.953C47.7953 100.706 47.5485 100.061 46.9221 99.7192C47.6814 99.5484 46.7513 98.2102 46.514 97.5458C46.2768 96.8815 45.508 97.0523 45.4321 96.834C45.7643 96.6442 44.9006 95.6477 45.6694 95.9608C45.9066 96.1507 45.6124 96.6821 46.1154 96.9099C46.1154 96.312 46.7798 96.0558 45.8497 95.3155C45.1474 94.7555 44.6064 96.1696 44.3406 94.5657C44.6918 94.8599 44.9955 94.784 45.3751 94.9453L45.0809 93.4743L44.4356 93.721C44.5115 93.4648 44.6254 93.5597 44.6633 93.4363C43.8281 93.3699 43.4865 91.5381 42.6133 91.6141C42.2147 90.9877 42.3476 90.0196 42.1198 89.3552L42.2242 89.4502C42.1805 88.9788 42.0252 88.5245 41.771 88.1251C41.5168 87.7257 41.1712 87.3926 40.7626 87.1534H40.905C40.6605 86.4258 40.2126 85.7835 39.6142 85.3027C39.6142 84.0119 41.7686 83.8316 40.4399 83.0344C39.9084 81.9524 38.4943 81.867 38.3045 82.4934C37.811 80.339 35.761 78.6022 35.8938 76.3434C35.5237 76.1725 35.4383 76.4193 35.0302 75.9068C33.9482 72.9647 31.5281 70.1174 31.7464 67.2702C32.3823 67.982 32.4012 67.0519 32.7524 66.8716C31.8792 66.4255 32.9707 65.7801 31.8982 65.9225C31.3667 66.2357 31.0535 66.2926 31.1864 67.2038C30.114 65.6188 28.9751 62.9803 29.0984 61.7845C29.0415 62.3729 28.7093 62.0787 28.3771 61.7845C29.3262 61.5188 28.9276 60.1901 28.1968 59.3359L27.5799 59.4403L27.8836 58.5481C27.5514 58.2444 26.5359 58.6336 26.6783 57.4093C26.8873 57.2894 27.0533 57.1067 27.1528 56.8873C26.2797 56.0521 24.932 54.8657 24.9699 53.537L25.454 52.2937C25.1977 51.8382 24.4005 51.1833 24.5049 52.1324C24.3056 49.9875 23.9639 48.6682 24.5049 47.8141C21.6577 44.9668 20.291 39.4717 20.2625 34.8686L20.7276 34.9825C21.0882 33.7487 19.9019 34.3846 20.1771 33.5114C20.6042 33.9006 21.1262 32.5624 21.6387 33.5114C22.1607 31.8126 20.8509 31.2906 20.775 30.1137C20.1961 29.8955 21.0692 31.0628 20.3384 30.7971C20.1486 30.5598 21.0028 28.3674 20.1676 27.9498C20.5947 27.5417 21.1926 27.9498 21.5058 28.2725L21.2021 27.238C22.3979 26.1656 22.6257 30.408 24.0968 29.2216C24.0968 28.9179 24.0968 28.6047 24.0968 28.2725C25.1218 27.5797 24.8371 30.7401 25.4445 28.5857C25.1598 27.6366 24.0304 26.4883 23.4894 27.314C23.6128 25.169 21.5912 25.9093 22.2461 23.5176C22.9199 23.0146 21.8759 25.4158 22.7111 25.1595C23.6602 24.2105 22.8915 22.8723 23.5084 21.9896C22.8155 22.9387 22.2651 21.7618 22.379 20.9646C23.2141 19.9301 22.863 22.0276 23.6128 20.4047C23.2521 19.9586 23.6128 18.2313 22.6637 19.4556C21.9139 18.3357 23.7646 17.8137 23.4894 16.5039C24.4385 16.409 24.2297 19.057 25.5584 17.5574C24.6852 17.4435 25.9665 14.919 24.4005 15.1752C25.0459 14.6058 25.6058 14.9 25.6912 15.6593C26.6403 14.9854 26.1848 12.5843 27.5894 13.2866L27.2193 12.4609C27.7434 12.2619 28.2831 12.1064 28.8327 11.9958C29.516 11.3504 30.3512 8.99673 31.101 10.0028C31.2528 9.71803 32.9992 8.41779 31.8318 8.26594C30.4082 8.74048 30.9586 9.68956 29.6394 9.38585C31.0346 9.37636 31.1864 8.04765 31.642 7.25992L32.0311 7.55413C32.2968 7.07959 33.2744 6.52913 33.2649 5.96917C33.0941 6.39626 33.4452 6.5576 33.8343 6.44371V5.57056C35.3529 4.22286 34.8688 6.35829 36.4063 5.27634C36.0642 5.6538 35.7472 6.05327 35.4573 6.47218C35.6566 6.19695 36.5202 6.47218 37.1941 5.88375C37.2505 5.10082 37.3487 4.32147 37.4883 3.54902C38.352 2.82772 38.2191 3.9761 38.9214 2.97008C38.5814 3.38242 38.2645 3.81333 37.9723 4.26083C37.8869 4.54555 39.2346 4.81129 40.5064 4.33675C41.2182 3.82425 42.2242 2.4386 40.7626 2.59045C41.4365 2.30572 42.4994 2.39114 42.1198 3.01753C43.5719 2.35318 41.6927 2.40063 42.9075 1.62239C43.5909 1.88813 45.4321 1.98304 46.571 2.46707L45.5365 3.81476L46.4191 3.68189C45.47 4.76384 47.1214 4.23236 46.6944 5.26685C47.3436 5.1889 47.9565 4.92527 48.4597 4.50759C46.4381 3.33073 50.1205 2.16336 49.4752 0.939051C52.0851 0.32215 51.2879 4.00458 53.8219 1.88813C53.3854 1.54646 54.6571 0.492984 53.0152 0.939051C54.6287 1.0909 54.1256 -0.51304 56.0713 0.170297C54.6287 0.616364 57.4854 1.65086 55.4449 2.31522C55.5967 1.84068 54.3534 1.94507 54.0497 2.08744C54.6856 2.61892 53.9169 3.43513 55.4638 3.4636C56.4129 3.40666 57.7132 3.4636 57.5993 2.76128C57.4854 2.05896 56.0997 2.76128 56.7926 1.99253C58.8046 1.78373 58.9375 3.02702 59.9625 1.78373C58.7097 1.68882 58.4914 0.834652 58.5673 0.32215L60.1143 0.246223L59.7442 0.711272C62.0599 1.51799 60.6174 -0.15239 62.9426 0.521456L63.7778 1.78373C63.0375 2.41961 60.5509 0.597383 60.6743 2.1254C62.1074 2.41012 62.7528 1.9166 64.0245 2.62841C63.6924 2.62841 63.2653 2.58096 62.9426 2.62841C63.4551 2.85619 63.4361 4.66893 65.6949 4.34624C66.8528 4.34624 66.1505 3.9761 66.3498 3.48258C68.694 4.15643 69.5007 4.07101 70.9433 4.67842C70.203 5.40921 73.2401 6.11153 71.266 6.17797C70.9243 5.22889 67.7924 3.74833 66.5965 4.45064C66.9382 5.93121 64.9357 3.58698 64.0625 4.68791C65.7898 5.28583 65.2583 6.44371 65.2299 7.2789C65.6463 7.41671 66.0922 7.43966 66.5206 7.34534C67.0236 6.72843 66.4257 6.51015 66.682 5.77935C68.2002 6.65441 69.9049 7.15541 71.6551 7.24094C72.0443 7.90529 71.4558 8.43678 70.7061 8.09511C72.8638 9.11416 74.799 10.5494 76.4005 12.3185C76.1158 10.4204 78.479 13.7611 78.4221 12.3185C77.7198 11.284 77.473 9.93632 78.3367 9.96479C78.8871 10.5532 77.957 10.3539 78.0329 10.7715C79.2762 10.9234 78.4505 12.5937 79.8742 12.5178C77.976 11.2271 78.5265 13.2961 77.5679 13.6852C79.0295 14.3875 77.0459 14.1407 78.0994 15.1942C79.6561 15.9743 81.0684 17.0142 82.2753 18.2692C82.8827 20.4616 85.2839 22.7204 86.2425 24.4003C86.2425 25.4917 85.0182 25.4063 85.2934 26.4313C85.8439 27.5228 85.9483 25.0836 86.2899 26.9533L86.0242 26.8869C86.5367 27.276 86.698 30.2086 88.3399 30.1517L87.0302 30.0568C87.0302 30.408 87.4288 30.5978 87.6471 30.8161C87.2865 30.9679 87.1156 31.4519 86.698 31.0343C86.3184 32.3441 87.5712 33.1698 87.9793 34.3087L88.4064 33.3596C89.5358 35.2008 89.2511 36.7383 89.868 38.6554L89.1941 38.7314L89.83 39.8228C89.1372 39.6615 88.8809 40.7719 89.5168 41.3224C88.8386 40.391 88.1099 39.4976 87.3339 38.646C87.5617 37.7443 88.283 39.3578 88.8809 38.7219C89.4788 38.086 88.7955 36.3777 88.0552 36.2638C88.1596 36.9566 88.3305 36.9566 88.6816 37.4311C87.8085 37.8677 87.6092 36.8237 86.8499 36.4821C86.9828 36.8142 86.8499 37.3742 87.1441 37.3742C86.5104 36.742 86.0863 35.9302 85.9293 35.049C86.4987 35.7038 86.3848 34.4605 86.7265 34.6788C85.9103 34.8117 85.3029 33.8626 85.0751 32.439C85.6066 31.1387 83.5661 30.1422 83.082 28.6427C84.16 28.8491 85.1347 29.4185 85.8439 30.2561C85.8439 29.0982 85.3978 29.1552 85.3029 28.0068C84.2749 27.9652 83.2955 27.558 82.5411 26.8584L83.0536 26.5072C82.1614 25.5582 81.3927 26.0232 80.7568 24.6091C79.6619 22.4043 78.287 20.3499 76.6663 18.497L77.0744 18.013C75.3565 18.0889 74.0943 15.6782 72.5378 15.1657C70.9149 13.0683 67.7924 12.4988 67.128 11.0373C63.1047 9.61929 58.8913 8.81309 54.6287 8.64557C54.8944 8.33238 55.1601 8.04765 55.4354 7.77242C54.5812 8.37034 54.9039 7.23145 54.0687 7.36432C55.0178 8.07613 52.9298 8.3134 52.4078 8.87335C50.3388 8.32289 47.7858 9.47127 46.3242 10.5912L46.0964 10.0122C44.7108 11.5782 42.4615 11.3315 40.402 12.2141C40.0603 12.1002 39.3959 11.7491 38.8645 12.2141C38.352 13.7137 37.7635 13.9509 36.8239 15.5264C35.8749 16.2762 34.2519 17.4246 33.1795 18.2313C31.2813 22.5306 29.1269 26.6591 29.6679 31.6607L28.9276 31.9929C30.2278 36.6719 30.2184 42.8124 32.3917 46.808H31.063C31.12 48.2601 32.3822 49.7122 33.113 49.0858C33.2079 50.5189 34.8878 52.1134 34.2614 53.3187C34.5841 54.7423 35.4478 54.7423 36.0742 55.7768C36.5819 58.0007 37.4439 60.1285 38.6272 62.0787L38.4279 61.4144C38.0483 61.253 37.5452 61.4144 37.754 62.0977C38.4943 62.9139 38.9783 65.7232 39.9274 64.1762C40.326 67.2417 43.3821 70.1933 43.5244 73.2968C43.7902 72.8982 44.1603 73.5341 44.54 73.6954C45.6504 76.0397 46.049 78.8679 47.577 80.4434C47.577 80.9084 46.6279 80.1492 47.0835 81.1172C47.4916 81.6203 47.5675 80.9084 48.099 81.4969C50.6141 84.961 51.1171 89.5166 53.0247 92.8858C56.821 98.5803 59.6683 105.072 62.9616 110.729L62.6579 110.804C64.7079 112.171 64.1005 115.873 66.4542 116.499C66.4542 117.087 67.3084 118.283 66.6155 118.236C67.0205 118.563 67.3452 118.978 67.5646 119.451C67.7924 119.897 67.669 119.868 67.7449 120.153C67.8209 120.438 67.9347 121.368 68.4757 120.722C68.4283 120.722 68.3523 120.798 68.2384 120.922C68.4093 121.263 68.8838 121.045 69.1875 120.922C69.433 120.797 69.6951 120.707 69.9658 120.656C70.5867 120.493 71.2228 120.394 71.8639 120.362C71.6362 120.561 71.1806 120.779 71.1806 121.092C72.329 121.377 73.2211 119.251 74.1512 120.485C74.1955 120.476 74.2376 120.459 74.2751 120.434C74.3126 120.409 74.3449 120.377 74.37 120.339C74.3951 120.302 74.4126 120.26 74.4215 120.216C74.4304 120.171 74.4304 120.126 74.4217 120.082C74.413 120.037 74.3956 119.995 74.3706 119.958C74.3456 119.92 74.3135 119.888 74.276 119.863C74.2386 119.838 74.1966 119.82 74.1523 119.811C74.1081 119.803 74.0626 119.802 74.0183 119.811C79.8172 118.862 85.5212 116.157 91.1018 113.898C95.458 113.282 92.1552 116.11 95.0215 113.965C95.3726 114.126 95.0215 113.376 95.1638 113.642C96.2648 112.807 97.6599 114.43 98.2578 113.395C97.584 112.703 98.6469 112.722 98.4761 112.209C101.153 111.81 101.94 112.313 103.62 110.918V111.412C105.357 109.238 108.242 108.764 109.438 106.505C120.916 100.896 131.331 93.3328 140.217 84.1543C148.91 75.6126 154.073 64.8975 154.605 53.537C155.744 50.8132 155.677 50.481 154.709 47.6432C154.918 47.7192 154.994 47.8995 155.146 47.6432C154.197 47.6432 154.576 45.6122 153.599 45.5742C152.681 41.679 150.779 38.0844 148.075 35.1344C148.568 35.5425 149.432 35.2767 148.872 34.7168L147.866 34.527L147.98 34.2327C147.487 33.967 146.737 33.9385 146.889 34.527C139.771 28.2346 128.287 24.2864 117.467 27.3045C114.8 27.5038 111.355 29.2026 108.925 30.7306C100.868 33.407 93.6738 38.646 90.2286 46.865C89.8986 46.3904 89.6663 45.8548 89.5453 45.2895C89.2143 43.82 89.4232 42.2805 90.1337 40.9522" fill="#654F96"/>
<path d="M87.6377 42.9738C88.0933 42.5847 88.2071 41.4553 89.0044 42.2335C88.5488 42.4138 88.0553 43.0307 87.6377 42.9738Z" fill="#654F96"/>
<path d="M79.4281 13.6947C79.2857 13.7706 79.2477 13.2296 79.2288 13.0873C79.5325 13.3435 80.1114 13.3246 80.1778 13.7327C79.8646 13.4669 79.7413 13.6757 79.4565 13.7327" fill="#654F96"/>
<path d="M73.1641 8.10458C73.5247 7.7819 75.2141 8.57912 76.1347 9.18653L73.1641 8.10458Z" fill="#654F96"/>
<path d="M66.7579 2.73283C66.1979 2.11592 66.4542 1.99254 67.4033 2.36268C67.4033 2.60944 67.0236 2.59995 66.7579 2.73283Z" fill="#654F96"/>
<path d="M65.8088 3.51109C65.3382 3.32335 64.9394 2.99102 64.6699 2.56201C64.5845 2.89419 66.2833 2.86572 65.8088 3.51109Z" fill="#654F96"/>
<path d="M48.1749 0.625871C47.7383 0.73976 46.8841 1.28074 46.3906 0.872631C46.8936 1.12888 48.3932 -0.0764479 48.1749 0.625871Z" fill="#654F96"/>
<path d="M40.2406 3.48254C39.9844 3.54897 39.842 3.48254 39.5953 3.74828C39.0543 3.74828 39.4149 3.24527 39.8041 3.04596L40.2406 3.48254Z" fill="#654F96"/>
<path d="M61.4714 125.639L60.7122 124.746L61.1582 124.642L61.4714 125.639Z" fill="#654F96"/>
<path d="M118.008 111.877C118.596 111.27 118.701 112 118.853 112C118.226 112.361 118.853 111.393 118.008 111.877Z" fill="#654F96"/>
<path d="M142.732 92.3448L142.561 92.5156L142.001 91.7849L142.732 92.3448Z" fill="#654F96"/>
</svg>
