<svg width="40" height="40" viewBox="0 0 40 40" fill="none" xmlns="http://www.w3.org/2000/svg">
<rect width="40" height="40" rx="20" fill="#5181B8"/>
<path d="M28.7368 14.8053C28.8789 14.3316 28.7368 14 28.0737 14H25.8632C25.2947 14 25.0421 14.3 24.9 14.6316C24.9 14.6316 23.7789 17.3789 22.1842 19.1474C21.6632 19.6684 21.4421 19.8263 21.1579 19.8263C21.0158 19.8263 20.8105 19.6684 20.8105 19.1947V14.8053C20.8105 14.2368 20.6526 14 20.1789 14H16.7053C16.3579 14 16.1368 14.2684 16.1368 14.5053C16.1368 15.0421 16.9263 15.1684 17.0211 16.6526V19.9053C17.0211 20.6158 16.8947 20.7421 16.6105 20.7421C15.8684 20.7421 14.0368 17.9947 12.9632 14.8368C12.7421 14.2526 12.5368 14 11.9684 14H9.75789C9.12632 14 9 14.3 9 14.6316C9 15.2158 9.74211 18.1211 12.4895 21.9579C14.3211 24.5789 16.8947 26 19.2316 26C20.6368 26 20.8105 25.6842 20.8105 25.1474V23.1579C20.8105 22.5263 20.9368 22.4 21.3947 22.4C21.7263 22.4 22.2789 22.5579 23.5895 23.8211C25.0895 25.3211 25.3421 26 26.1789 26H28.3895C29.021 26 29.3368 25.6842 29.1474 25.0684C28.9421 24.4526 28.2316 23.5526 27.2842 22.4789C26.7632 21.8632 25.9895 21.2158 25.7684 20.8842C25.4368 20.4579 25.5316 20.2684 25.7684 19.9053C25.7684 19.8895 28.4684 16.1 28.7368 14.8053Z" fill="white"/>
</svg>
