<svg width="741" height="155" viewBox="0 0 741 155" fill="none" xmlns="http://www.w3.org/2000/svg">
<path d="M33.1273 101.726C33.1298 101.821 33.1323 101.915 32.946 102.015L26.3178 105.026L28.323 112.909L28.3305 113.192L23.6373 114.357L23.5429 114.359C23.5429 114.359 23.4485 114.362 23.4459 114.267C23.349 114.175 23.349 114.175 23.3465 114.081L21.5578 107.231L17.8213 108.842L19.8265 116.726L19.6477 117.109L14.9545 118.273L14.6637 117.997L12.875 111.147L8.76835 113.052L8.38816 112.968L6.38158 108.58C6.37655 108.391 6.37403 108.297 6.56035 108.198L11.5067 105.893C11.4022 105.518 11.1957 104.862 10.9818 103.922C10.7678 102.983 10.5613 102.327 10.4543 101.858L4.76021 104.466L4.47444 104.379L2.46786 99.9919C2.46283 99.8031 2.46031 99.7087 2.64663 99.6092L9.18045 96.6006C8.12308 92.3769 7.39173 89.7508 7.17271 88.6228C7.17019 88.5284 7.17019 88.5284 7.35651 88.429L12.1417 87.1677C12.2361 87.1652 12.3305 87.1626 12.4299 87.349L14.2237 94.3876L17.8633 92.6844L15.7611 84.7091C15.8505 84.5178 15.848 84.4234 15.9424 84.4208L20.7275 83.1595L20.9239 83.4378L22.7177 90.4764L26.9187 88.5692C27.0106 88.4723 27.202 88.5617 27.2045 88.6561L29.2136 93.1379C29.2161 93.2323 29.2186 93.3267 29.0323 93.4262L23.989 95.6392L25.0439 99.7684L30.8324 97.1576C30.9243 97.0607 31.1157 97.1501 31.1182 97.2445L33.1273 101.726ZM19.6646 100.006C19.4506 99.0671 19.2441 98.4112 19.1371 97.9416L15.4976 99.6448L16.5524 103.774L20.192 102.071C20.085 101.601 19.8785 100.945 19.6646 100.006Z" fill="#CAB6FF"/>
<path d="M68.6 81.9787C70.4267 83.1584 71.6994 84.8252 72.5076 86.7879C74.027 90.6213 73.653 94.3162 71.2912 97.875C69.0238 101.431 65.2256 104.273 59.8965 106.399C55.0346 108.324 50.7908 108.626 47.1627 107.21C43.6289 105.793 40.8053 102.656 38.878 97.6992L34.1159 85.6374C33.6086 84.3282 33.0119 83.2102 32.4228 82.3756C31.8336 81.5409 31.2545 81.0839 30.8693 80.8107C30.3922 80.6344 30.007 80.3613 29.6243 80.1825C29.2416 80.0037 29.0452 79.7255 28.9457 79.5392C28.8412 79.164 28.8287 78.6919 29.0024 78.1204C29.1762 77.5488 29.5362 76.8778 30.1745 76.0105C30.8128 75.1431 31.5455 74.2732 32.6559 73.3933C33.6719 72.5158 35.063 71.5339 36.9262 70.5394C38.6925 69.453 40.747 68.5479 43.0848 67.6353C48.322 65.6061 52.7395 64.7325 56.4369 65.2009C60.1343 65.6693 62.5451 67.4948 63.8605 70.7668C64.2659 71.7953 64.4824 72.8289 64.5101 73.8675C64.5377 74.9061 64.4659 75.7583 64.2028 76.5212C63.9397 77.2841 63.674 77.9526 63.4059 78.5267C63.0433 79.1032 62.7726 79.5829 62.5913 79.8712L62.2262 80.3533L62.3282 80.634C64.5892 80.3848 66.7734 80.7991 68.6 81.9787ZM60.6434 95.4186C61.1721 93.9873 61.035 92.3847 60.4257 90.7946C60.0178 89.6717 59.4262 88.7426 58.837 87.9079C58.2479 87.0733 57.6663 86.5218 57.1866 86.2512L56.5157 85.8911C55.224 87.0593 54.1061 87.656 53.1619 87.6812C52.2177 87.7063 51.5543 87.6295 51.169 87.3563C50.7838 87.0831 50.3936 86.6211 50.1896 86.0596C49.8837 85.2174 49.9555 84.3651 50.5963 83.5922C51.2371 82.8192 52.1662 82.2276 53.5775 82.001C53.8255 80.6716 53.5964 79.1659 52.8902 77.484C52.3804 76.0803 51.5055 75.1588 50.268 74.8138C49.1224 74.3719 47.7086 74.504 46.1186 75.1133C45.2764 75.4192 44.4392 75.9139 43.6964 76.4061C48.0583 87.6282 50.4903 93.7994 50.9926 94.9198C52.6908 98.3706 54.992 99.632 57.7025 98.5205C59.1956 97.8193 60.1146 96.85 60.6434 95.4186Z" fill="#CAB6FF"/>
<path d="M97.7151 64.7626C101.448 66.5529 104.077 69.5064 105.515 73.8144C106.953 78.1224 106.775 82.0955 104.796 85.8332C102.909 89.4739 99.6719 92.1112 95.2695 93.5513C90.867 94.9914 86.802 94.9107 83.0694 93.1204C79.3368 91.3302 76.7045 88.2823 75.2669 83.9742C73.8294 79.6662 74.1014 75.6906 75.9886 72.0499C77.8758 68.4092 81.115 65.8663 85.4231 64.4287C89.823 62.8942 93.8905 63.0693 97.7151 64.7626ZM94.7449 77.4083C93.9192 74.7847 92.8277 72.8296 91.5651 71.5404C90.3024 70.2513 88.968 69.8144 87.4699 70.3267C84.5681 71.3489 84.0896 74.6686 85.9426 80.3829C86.7658 82.912 87.8573 84.8672 89.1199 86.1563C90.3851 87.5399 91.717 87.8823 93.2176 87.4644C96.1194 86.4423 96.6923 83.12 94.7449 77.4083Z" fill="#CAB6FF"/>
<path d="M143.198 73.1885C143.409 74.0332 143.064 75.2707 142.163 76.901C141.264 78.6257 139.781 79.7045 137.719 80.3264C135.657 80.9482 133.858 80.8072 132.136 80.0027C130.508 79.1957 129.335 77.7152 128.71 75.5586L125.897 65.7126C125.685 64.8679 125.481 64.3064 125.28 63.8394C125.079 63.3723 124.783 62.9078 124.296 62.3538C123.903 61.7974 123.329 61.5292 122.571 61.4549C121.813 61.3806 120.966 61.4977 119.935 61.8086C120.75 64.0545 121.37 66.0222 121.887 67.7092C122.405 69.3961 122.835 71.3688 123.271 73.5304C123.706 75.692 123.851 77.5778 123.702 79.0935C123.554 80.6093 123.025 82.0406 122.208 83.2907C121.391 84.5408 120.092 85.4257 118.496 85.8462C116.621 86.3686 115.011 86.2225 113.572 85.4105C112.133 84.5984 111.151 83.2073 110.628 81.3315C110.216 80.0197 110.18 78.6979 110.428 77.3685C110.676 76.0391 111.036 75.3681 111.506 75.2611C111.6 75.2586 111.884 75.251 112.264 75.3354C112.644 75.4197 113.022 75.4097 113.305 75.4021C114.617 74.9892 115.434 73.7392 115.657 71.4656C115.88 69.192 115.526 66.5558 114.588 63.2738C114.399 63.2789 114.027 63.4778 113.557 63.5848C113.09 63.7862 112.62 63.8932 112.34 63.9951C111.309 64.3061 110.737 64.1323 110.625 63.4739C110.309 62.254 111.206 60.4349 113.506 58.106C115.806 55.7771 118.784 54.0915 122.441 53.0492C125.818 52.1089 128.747 52.1253 131.23 53.0985C133.712 54.0717 135.475 56.3869 136.512 59.8552C136.614 60.136 136.719 60.5111 136.831 61.1695C136.943 61.8279 137.251 62.7646 137.567 63.9845C137.883 65.2044 138.296 66.5162 138.617 67.9249C139.346 70.4566 140.616 72.029 142.427 72.6421C142.805 72.6321 143.096 72.9078 143.198 73.1885Z" fill="#CAB6FF"/>
<path d="M163.176 60.5622L157.541 61.8461L160.208 73.3023C160.214 73.4911 160.216 73.5855 160.03 73.685C158.631 74.3836 156.758 75.0004 154.599 75.5304C152.815 75.9558 150.931 76.195 148.949 76.2478C148.76 76.2528 148.663 76.1609 148.66 76.0665C148.643 75.4056 147.453 69.7681 144.898 58.9704C144.575 57.4673 144.167 56.3443 143.677 55.696C143.185 54.9532 142.509 54.4043 141.557 54.1462C141.174 53.9674 140.98 53.7836 140.876 53.4085C140.664 52.5637 141.106 51.4181 142.102 49.7853C143.098 48.1526 144.678 47.1656 146.648 46.6407C148.618 46.1158 150.514 46.3487 152.053 47.3471C153.591 48.3455 154.667 49.7341 155.195 51.7987L156.16 56.1193L161.795 54.8354L159.551 45.0687C159.546 44.8798 159.543 44.7854 159.732 44.7804C161.412 43.9798 163.096 43.368 164.977 43.0344C167.044 42.6014 168.833 42.3648 170.532 42.3195C170.627 42.317 170.724 42.4089 170.729 42.5977L174.677 59.5944C175.314 62.223 176.49 63.7979 178.304 64.5055C178.687 64.6843 178.881 64.8681 178.985 65.2432C179.197 66.088 178.757 67.328 177.762 68.9607C176.766 70.5935 175.283 71.6724 173.216 72.1054C171.148 72.5384 169.349 72.3973 167.719 71.4959C166.089 70.5945 165.102 69.0145 164.572 66.8555L163.176 60.5622Z" fill="#CAB6FF"/>
<path d="M215.157 57.5711C215.54 57.7499 215.737 58.0281 215.839 58.3089C216.058 59.4368 215.524 60.6794 214.334 62.1283C213.144 63.5773 211.562 64.4698 209.775 64.8009C207.895 65.1344 206.188 64.8965 204.749 64.0844C203.31 63.2724 202.236 61.9782 201.719 60.2913L201.53 60.2963C201.108 62.1972 200.112 63.83 198.729 65.0952C197.345 66.3603 195.76 67.1585 193.785 67.4945C190.398 68.0572 187.541 67.1884 185.018 64.7045C182.495 62.2207 180.899 59.0507 180.227 55.1002C179.455 50.9634 179.826 47.1741 181.344 43.8267C182.858 40.3849 185.26 38.3367 188.741 37.7716C190.622 37.438 192.326 37.5816 193.947 38.1053C195.569 38.7235 196.822 39.635 197.898 41.0236L198.087 41.0185L197.989 37.3362C197.984 37.1474 198.076 37.0504 198.168 36.9535C199.758 36.3442 201.447 35.9213 203.234 35.5903C205.209 35.2542 207 35.112 208.605 35.0692C208.794 35.0642 208.894 35.2505 208.991 35.3424C210.457 44.2794 211.46 50.0163 211.906 52.5555C212.351 55.0948 213.435 56.7666 215.157 57.5711ZM200.008 56.3685C200.534 54.8427 200.581 53.0462 200.145 50.8847C199.804 48.7206 199.098 47.0387 198.118 45.742C197.139 44.4453 195.899 44.0059 194.582 44.2299C193.265 44.454 192.344 45.3289 191.818 46.8547C191.291 48.3804 191.245 50.1769 191.68 52.3385C192.021 54.5025 192.728 56.1845 193.704 57.3867C194.684 58.6834 195.829 59.1254 197.241 58.8988C198.56 58.7692 199.482 57.8942 200.008 56.3685Z" fill="#CAB6FF"/>
<path d="M269.632 55.931C269.634 56.0254 269.637 56.1198 269.545 56.2167C269.453 56.3137 269.359 56.3162 269.264 56.3187L269.172 56.4156C268.054 57.0123 266.174 57.3459 263.537 57.6996C262.124 57.8317 260.899 57.9588 259.766 57.989C258.633 58.0192 257.969 57.9424 257.592 57.9525L256.928 57.8756C256.739 57.8807 256.642 57.7888 256.637 57.5999C255.337 47.8081 253.613 39.8228 251.655 33.7334L251.466 33.7384L246.555 58.6244C246.56 58.8133 246.47 59.0046 246.284 59.1041C244.786 59.6164 243.658 59.8354 242.716 59.955C241.302 60.0871 240.169 60.1173 239.218 59.8592L238.835 59.6804C233.66 46.3069 230.246 38.7446 228.407 37.0928L228.029 37.1029C227.708 42.7805 228.011 50.6147 228.847 60.7024C228.852 60.8912 228.76 60.9882 228.574 61.0876C227.267 61.6893 225.764 62.0128 224.258 62.2419C223.505 62.3565 222.844 62.3741 222.086 62.2998C221.331 62.3199 220.856 62.2381 220.476 62.1537L219.907 62.0744C219.718 62.0794 219.621 61.9875 219.616 61.7987C219.21 57.1797 219.229 47.2583 219.86 31.9348C219.83 30.8018 219.619 29.9571 219.221 29.2118C218.825 28.5609 218.338 28.007 217.856 27.6419C217.374 27.2768 217.178 26.9986 217.168 26.6209C217.137 25.4879 217.86 24.2403 219.333 22.7838C220.806 21.3273 222.766 20.4247 225.31 20.168C226.63 20.0383 227.86 20.1 229.095 20.3506C230.235 20.6037 231.284 20.9537 232.052 21.4057C232.82 21.8576 233.685 22.4015 234.46 23.1367C235.235 23.8719 235.82 24.5178 236.212 25.0742C236.605 25.6307 237.095 26.279 237.587 27.0218C238.276 28.0428 239.071 29.5334 239.976 31.5879C240.881 33.6425 241.687 35.5107 242.388 37.0038L243.301 39.3416L243.773 39.3291C245.353 31.2557 246.496 24.5168 247.392 19.1073L247.762 18.814C249.635 18.1972 251.608 17.7667 253.68 17.5225C254.81 17.3979 255.943 17.3677 256.982 17.34C258.021 17.3124 258.87 17.2897 259.439 17.3691L260.197 17.4434C260.386 17.4383 260.578 17.5277 260.583 17.7166C264.857 29.2244 267.843 41.9948 269.632 55.931Z" fill="#CAB6FF"/>
<path d="M273.281 22.6694C271.837 21.6685 271.047 20.3668 271.004 18.7617C270.869 17.2535 271.493 15.8196 272.879 14.6489C274.265 13.4782 275.852 12.7745 277.832 12.6272C279.813 12.48 281.527 13.0012 282.971 14.0021C284.415 15.003 285.206 16.3047 285.343 17.9073C285.48 19.5099 284.854 20.8493 283.471 22.1145C282.179 23.2827 280.497 23.9889 278.515 24.0418C276.437 24.0971 274.725 23.6703 273.281 22.6694ZM276.326 55.3747C274.877 54.185 274.171 52.5031 274.018 50.334L272.672 28.1658C272.667 27.977 272.759 27.88 272.853 27.8775C274.634 27.3576 276.423 27.121 278.309 26.9763C280.384 26.8265 282.277 26.9651 283.89 27.2056C283.984 27.203 284.081 27.2949 284.086 27.4838L285.116 44.8416C285.281 47.4828 286.181 49.3486 287.811 50.25C288.194 50.4288 288.39 50.707 288.4 51.0847C288.423 51.9344 287.886 53.0825 286.602 54.534C285.318 55.9855 283.639 56.7861 281.564 56.9359C279.489 57.0856 277.68 56.5669 276.326 55.3747Z" fill="#CAB6FF"/>
<path d="M294.252 54.4247C292.898 53.2325 292.192 51.5506 292.037 49.2871L290.88 12.9411C290.875 12.7522 290.966 12.6553 291.061 12.6528C292.845 12.2273 294.634 11.9907 296.522 11.9404C298.599 11.8851 300.398 12.0261 302.108 12.3585C302.297 12.3535 302.299 12.4479 302.304 12.6367L303.336 44.2618C303.406 46.9055 304.306 48.7712 305.939 49.7671C306.322 49.9459 306.424 50.2266 306.434 50.6043C306.456 51.454 305.826 52.6047 304.539 53.9617C303.255 55.4132 301.573 56.1194 299.496 56.1748C297.416 56.1357 295.607 55.617 294.252 54.4247Z" fill="#CAB6FF"/>
<path d="M342.017 49.1839C341.97 50.9804 341.255 52.5112 339.872 53.7764C338.488 55.0415 336.617 55.7527 334.349 55.7187C332.647 55.6696 331.029 55.2402 329.677 54.1424C328.325 53.0446 327.254 51.8448 326.458 50.3543C325.663 48.8637 325.15 47.3656 324.732 45.865C324.314 44.3643 324.187 43.1394 324.157 42.0064C324.142 41.4399 324.415 41.0547 324.979 40.9452C326.39 40.7186 327.513 40.3107 328.343 39.5327C329.267 38.7522 329.811 37.8874 329.97 36.7493C330.133 35.8001 329.922 34.9554 329.246 34.4065C328.664 33.8551 327.807 33.5945 326.863 33.6196C323.752 33.8914 322.125 36.6749 322.077 41.9673L322.027 54.2517L321.754 54.637C319.401 54.9831 317.612 55.2197 316.382 55.158C314.774 55.1063 312.881 54.9678 310.791 54.5511C310.602 54.5561 310.6 54.4617 310.595 54.2728L310.983 12.1221L311.167 11.9282C313.143 11.5921 315.026 11.353 316.539 11.4071C318.241 11.4563 320.134 11.5948 322.13 12.0141C322.224 12.0116 322.321 12.1035 322.326 12.2923L322.273 31.5687L322.367 31.5662C323.452 29.7421 324.831 28.2881 326.597 27.2017C328.364 26.1153 330.237 25.4985 332.312 25.3487C334.953 25.1839 337.142 25.787 338.782 27.066C340.423 28.3451 341.228 30.2134 341.197 32.5764C341.155 34.5617 340.542 36.3732 339.166 37.9216C337.792 39.5645 336.118 40.5539 334.148 41.0788C335.346 43.5035 337.101 45.5355 339.318 47.1771C339.703 47.4503 340.377 47.9048 341.334 48.3518C341.811 48.528 342.007 48.8062 342.017 49.1839Z" fill="#CAB6FF"/>
<path d="M378.647 51.6096C378.938 51.8853 379.134 52.1635 379.142 52.4468C379.078 53.5823 378.258 54.7379 376.775 55.8168C375.292 56.8956 373.511 57.4155 371.714 57.3689C369.821 57.2304 368.198 56.6122 366.94 55.5119C365.683 54.4115 364.982 52.9185 364.839 51.127L364.651 51.1321C363.754 52.9512 362.468 54.3082 360.885 55.2008C359.208 56.0958 357.424 56.5213 355.533 56.4771C352.127 56.2844 349.532 54.6528 347.658 51.6792C345.783 48.7056 345.029 45.2298 345.204 41.1622C345.471 36.9978 346.698 33.3747 348.886 30.3873C351.074 27.4 353.966 26.0002 357.467 26.1904C359.36 26.3289 360.98 26.8526 362.422 27.7591C363.863 28.6656 364.843 29.9623 365.546 31.5498L365.735 31.5447L366.489 27.9342C366.484 27.7454 366.576 27.6484 366.765 27.6434C368.459 27.4093 370.159 27.364 372.052 27.5025C374.04 27.6386 375.842 27.874 377.459 28.3034C377.651 28.3927 377.748 28.4846 377.753 28.6735C377.142 37.6659 376.731 43.5349 376.61 46.0892C376.487 48.5491 377.104 50.4224 378.647 51.6096ZM364.16 46.8933C364.974 45.5488 365.493 43.7398 365.626 41.6575C365.757 39.4809 365.426 37.6945 364.82 36.1989C364.118 34.7058 363.06 33.9781 361.735 33.9189C360.411 33.8597 359.293 34.4564 358.387 35.8978C357.572 37.2423 357.053 39.0514 356.922 41.228C356.791 43.4047 357.122 45.1911 357.729 46.6867C358.428 48.0853 359.395 48.9099 360.813 48.9666C362.23 48.9289 363.345 48.2378 364.16 46.8933Z" fill="#CAB6FF"/>
<path d="M425.431 48.568C426.696 49.9516 427.119 51.641 426.889 53.6314C426.579 56.1907 425.029 58.3107 422.24 59.9912C419.45 61.6718 415.969 62.237 411.608 61.6917C406.678 61.0672 402.946 59.2769 400.507 56.4128C398.069 53.5488 397.205 49.5089 397.82 44.2014C398.449 39.4603 400.339 35.914 403.397 33.6594C406.549 31.4023 410.589 30.5388 415.522 31.2577C419.788 31.8055 422.845 33.0468 424.694 35.0762C426.543 37.1057 427.162 39.0733 426.649 41.0712C426.306 42.4031 425.673 43.4593 424.56 44.2449C423.542 45.0279 422.23 45.4408 420.911 45.5704L420.916 45.7592C422.725 46.278 424.26 47.1819 425.431 48.568ZM414.826 54.8031C415.472 54.219 415.924 53.451 415.996 52.5988C416.154 51.4607 415.749 50.4322 414.777 49.4187C413.805 48.4053 412.371 47.7821 410.381 47.5517C409.906 47.4698 409.529 47.4799 409.054 47.398C408.338 52.4248 409.447 55.0409 412.292 55.4375C413.244 55.6956 414.086 55.3897 414.826 54.8031ZM410.997 38.7481C410.177 39.9038 409.745 41.427 409.515 43.4174L409.99 43.4992C411.883 43.6377 413.386 43.3142 414.504 42.7175C415.622 42.1209 416.166 41.256 416.23 40.1205C416.307 39.457 416.197 38.893 415.805 38.3366C415.412 37.7801 414.93 37.415 414.172 37.3407C412.845 37.1871 411.819 37.6869 410.997 38.7481Z" fill="white"/>
<path d="M449.141 27.0552C450.314 28.5357 450.65 30.5109 450.149 32.9809L444.025 65.5525C444.03 65.7413 443.935 65.7438 443.747 65.7488C441.858 65.7992 439.87 65.6631 437.781 65.2464C435.502 64.8347 433.502 64.2266 431.971 63.5114C431.874 63.4195 431.777 63.3276 431.774 63.2332L436.907 35.9792C437.241 34.3641 437.206 33.0422 436.992 32.1031C436.778 31.1639 436.187 30.2348 435.506 29.4971C435.215 29.2214 435.016 28.8487 435.1 28.4685C435.266 27.6138 436.183 26.55 437.852 25.3717C439.522 24.1934 441.494 23.7629 443.87 24.2665C446.24 24.5813 447.965 25.4802 449.141 27.0552ZM469.291 63.4621C468.961 65.2661 467.777 66.9039 465.923 68.2761C463.976 69.6507 461.814 70.0863 459.536 69.6746C457.446 69.2578 455.719 68.2645 454.165 66.6996C452.609 65.0403 451.523 63.274 450.712 61.217C449.996 59.1574 449.374 57.0953 449.031 54.8368C448.595 52.6752 448.45 50.7894 448.41 49.2787C448.37 47.768 448.434 46.6324 448.513 46.0634C448.593 45.4944 449.05 44.9153 449.879 44.1373C452.276 41.9003 454.487 39.7627 456.318 37.5408C458.243 35.3164 460.249 32.6173 462.522 29.2498C462.706 29.0559 462.892 28.9565 463.078 28.857C465.153 28.7073 466.952 28.8483 468.47 29.0913C470.56 29.5081 472.369 30.0268 473.808 30.8389C473.905 30.9308 474.002 31.0227 474.004 31.1171C472.174 33.339 470.06 35.5685 467.571 37.9024C465.082 40.2364 463.145 41.9887 461.572 43.2589L459.354 45.1132L459.356 45.2077L459.359 45.3021C460.839 51.2152 463.33 56.0621 466.649 60.0365C467.72 61.2363 468.498 62.0659 469.172 62.5204C469.271 62.7067 469.376 63.0819 469.291 63.4621Z" fill="white"/>
<path d="M502.068 52.479C504.335 56.0091 504.911 59.8676 503.799 64.2436C502.69 68.7139 500.412 71.8926 496.783 73.9735C493.248 76.0518 489.103 76.5402 484.633 75.431C480.163 74.3218 476.795 72.0493 474.53 68.6137C472.266 65.1781 471.78 61.1282 472.795 56.6603C473.904 52.19 476.181 49.0113 479.811 46.9304C483.44 44.8495 487.398 44.4606 491.866 45.4754C496.528 46.674 499.898 49.0409 502.068 52.479ZM492.863 61.6059C493.548 58.942 493.679 56.7654 493.348 54.979C493.017 53.1926 492.042 52.0847 490.521 51.7473C487.572 50.9755 485.279 53.5877 483.925 59.4818C483.332 62.0487 483.106 64.2279 483.534 66.1062C483.865 67.8926 484.84 69.0005 486.266 69.3404C489.213 70.0178 491.505 67.4056 492.863 61.6059Z" fill="white"/>
<path d="M525.476 72.8311L519.952 71.1831L516.663 82.5144C516.574 82.7058 516.482 82.8027 516.291 82.7133C514.683 82.6617 512.782 82.2399 510.687 81.6343C508.973 81.1131 507.159 80.4055 505.431 79.4122C505.335 79.3203 505.238 79.2284 505.327 79.037C505.69 78.4604 507.432 72.9339 510.552 62.3629C510.986 60.9341 511.142 59.7016 511.12 58.8518C511.003 58.0046 510.697 57.1624 510.11 56.4221C509.819 56.1464 509.809 55.7687 509.896 55.483C510.159 54.7201 511.081 53.8451 512.758 52.9501C514.435 52.0551 516.321 51.9103 518.321 52.5184C520.321 53.1266 521.768 54.2218 522.755 55.8018C523.647 57.3843 523.884 59.1732 523.276 61.1736L522.065 65.3632L527.589 67.0113L530.45 57.392C530.445 57.2032 530.634 57.1981 530.729 57.1956C532.528 57.3367 534.332 57.6666 536.141 58.1853C538.141 58.7934 539.861 59.5035 541.3 60.3155C541.397 60.4074 541.399 60.5018 541.402 60.5962L536.365 77.2653C535.584 79.8372 535.825 81.815 537.093 83.293C537.384 83.5687 537.394 83.9464 537.307 84.2321C537.044 84.995 536.122 85.8699 534.448 86.8594C532.771 87.7544 530.888 87.9936 528.887 87.3855C526.887 86.7774 525.346 85.6846 524.453 84.1021C523.561 82.5196 523.419 80.7282 524.022 78.539L525.476 72.8311Z" fill="white"/>
<path d="M586.229 101.165C585.966 101.927 584.95 102.805 583.273 103.7C581.596 104.595 579.707 104.645 577.707 104.037C575.704 103.335 574.258 102.239 573.365 100.657C572.473 99.0744 572.422 97.186 573.122 95.0887L576.972 83.5534C577.672 81.4561 577.448 80.1392 576.4 79.7892C575.542 79.5286 574.7 79.8345 573.684 80.7119C572.763 81.5869 571.948 82.9314 571.337 84.8373L566.611 98.9471C566.522 99.1384 566.43 99.2353 566.239 99.1459C564.628 98.9999 562.822 98.5756 560.916 97.9649C559.296 97.4412 557.574 96.6367 555.846 95.6434C555.749 95.5515 555.652 95.4596 555.742 95.2682L561.429 78.2039C562.129 76.1065 561.905 74.7897 560.856 74.4397C559.999 74.1791 559.157 74.485 558.141 75.3624C557.219 76.2373 556.405 77.5818 555.794 79.4878L551.068 93.5975C550.978 93.7889 550.886 93.8858 550.695 93.7964C549.085 93.6503 547.278 93.226 545.372 92.6154C543.655 91.9998 541.935 91.2897 540.114 90.2989C540.017 90.207 539.92 90.1151 540.009 89.9237C540.375 89.4416 542.306 83.91 545.711 73.4259C546.146 71.997 546.399 70.8565 546.374 69.9123C546.351 69.0625 546.045 68.2203 545.459 67.4801C545.165 67.1099 545.158 66.8267 545.245 66.5409C545.508 65.778 546.524 64.9006 548.203 64.1C549.88 63.2049 551.768 63.1546 553.769 63.7627C555.389 64.2865 556.642 65.1979 557.43 66.4053C558.218 67.6126 558.539 69.0213 558.393 70.6314C558.395 70.7259 558.311 71.1061 558.142 71.8664L558.333 71.9558C561.55 68.5631 564.921 67.434 568.45 68.6628C570.262 69.2759 571.611 70.2793 572.596 71.7648C573.58 73.2504 573.911 75.0368 573.681 77.0271L573.872 77.1165C576.994 73.7263 580.46 72.5947 583.989 73.8235C586.086 74.5235 587.632 75.8051 588.629 77.7627C589.623 79.6259 589.589 81.8945 588.713 84.4689C588.539 85.0405 588.01 86.4718 587.31 88.5692C586.61 90.6665 585.997 92.478 585.471 94.0038C584.592 96.4838 584.836 98.556 586.01 100.037C586.305 100.501 586.41 100.876 586.229 101.165Z" fill="white"/>
<path d="M621.803 110.043C622.093 110.319 622.198 110.694 622.111 110.98C621.764 112.123 620.748 113 619.068 113.801C617.294 114.604 615.595 114.65 613.788 114.225C611.885 113.709 610.538 112.8 609.556 111.409C608.574 110.018 608.248 108.42 608.483 106.619L608.292 106.529C607.011 108.075 605.527 109.154 603.746 109.674C601.965 110.194 600.076 110.244 598.267 109.725C594.935 108.775 592.706 106.661 591.579 103.384C590.452 100.107 590.357 96.5193 591.481 92.6154C592.603 88.6172 594.594 85.3516 597.364 82.9157C600.134 80.4798 603.326 79.7333 606.659 80.6839C608.468 81.2026 610.001 82.0121 611.169 83.3038C612.335 84.5011 613.131 85.9916 613.457 87.5892L613.648 87.6786L615.165 84.3312C615.16 84.1423 615.349 84.1373 615.535 84.0379C617.24 84.1814 618.949 84.5138 620.664 85.0351C622.567 85.5513 624.285 86.1669 625.721 86.8845C625.912 86.9739 625.917 87.1628 625.92 87.2572C623.411 95.9222 621.765 101.541 621.075 104.016C620.293 106.588 620.535 108.565 621.803 110.043ZM608.654 102.362C609.756 101.199 610.563 99.5714 611.169 97.4766C611.775 95.3818 611.821 93.5853 611.495 91.9878C611.169 90.3902 610.294 89.4687 608.96 89.0318C607.628 88.6893 606.411 89.0997 605.308 90.2629C604.205 91.4261 603.303 93.0564 602.792 95.1487C602.281 97.241 602.14 99.0399 602.466 100.637C602.792 102.235 603.667 103.157 604.999 103.499C606.333 103.936 607.551 103.526 608.654 102.362Z" fill="white"/>
<path d="M655.963 119.054C655.707 120.1 654.883 121.067 653.3 121.96C651.812 122.85 649.926 122.994 647.74 122.486C646.219 122.148 645.071 121.612 644.104 120.787C643.137 119.963 642.451 119.036 642.041 117.819C641.63 116.601 641.317 115.476 641.192 114.345C641.068 113.215 641.032 111.893 641.084 110.286L641.069 109.719C641.059 109.341 641.051 109.058 641.051 109.058C641.049 108.964 641.044 108.775 640.942 108.494C640.934 108.211 640.832 107.93 640.735 107.838C640.638 107.746 640.445 107.562 640.253 107.473C640.059 107.289 639.774 107.202 639.488 107.116L636.771 118.621L636.495 118.911C634.13 118.785 632.328 118.55 631.091 118.205C629.379 117.778 627.567 117.165 625.656 116.366C625.559 116.274 625.462 116.182 625.457 115.993L629.616 98.3079C630.124 96.1212 629.796 94.4293 628.628 93.1376C628.337 92.8619 628.232 92.4867 628.319 92.2009C628.485 91.3461 629.407 90.4712 630.987 89.4843C632.567 88.4973 634.448 88.1638 636.446 88.6775C638.443 89.1912 639.982 90.1895 641.061 91.6725C642.045 93.1581 642.376 94.9445 641.865 97.0368L640.674 101.982L642.48 102.406C643.426 98.8849 645.058 96.2903 647.278 94.5304C649.502 92.865 651.847 92.2356 654.414 92.8286C656.315 93.2504 657.662 94.1593 658.355 95.3692C659.049 96.579 659.37 97.9877 659.03 99.4141C658.777 100.555 658.144 101.611 657.22 102.391C656.296 103.172 655.548 103.475 655.073 103.393C655.073 103.393 654.688 103.12 654.012 102.571C653.336 102.022 652.665 101.662 651.905 101.494C651.05 101.327 650.203 101.444 649.363 101.845C648.523 102.245 647.877 102.829 647.425 103.597C648.477 104.042 649.346 104.774 650.03 105.606C650.714 106.439 651.213 107.465 651.527 108.59C651.84 109.716 652.151 110.747 652.37 111.875C652.589 113.003 652.994 114.031 653.497 115.152C653.999 116.272 654.591 117.201 655.366 117.936C655.846 118.207 656.139 118.577 655.963 119.054Z" fill="white"/>
<path d="M706.378 128.199C706.212 129.054 705.388 130.021 703.81 131.102C702.233 132.183 700.449 132.609 698.359 132.192C696.269 131.775 694.639 130.874 693.563 129.485C692.484 128.002 692.153 126.216 692.473 124.034L694.611 112.072C695.025 109.888 694.614 108.671 693.474 108.417C692.619 108.251 691.779 108.652 690.957 109.713C690.133 110.68 689.512 112.208 689.185 114.106L686.551 128.727C686.556 128.916 686.369 129.016 686.18 129.021C684.578 129.158 682.779 129.017 680.689 128.6C678.979 128.268 677.265 127.746 675.356 127.041C675.259 126.949 675.163 126.857 675.16 126.763L678.28 109.106C678.694 106.921 678.284 105.704 677.143 105.451C676.289 105.285 675.449 105.685 674.627 106.746C673.802 107.713 673.181 109.241 672.854 111.14L670.22 125.761C670.225 125.95 670.039 126.049 669.85 126.054C668.247 126.191 666.448 126.05 664.359 125.634C662.555 125.304 660.746 124.785 658.837 124.08C658.74 123.988 658.643 123.896 658.641 123.802C658.909 123.228 659.985 117.53 661.962 106.611C662.205 105.093 662.269 103.958 662.058 103.113C661.846 102.268 661.449 101.523 660.768 100.785C660.477 100.509 660.375 100.229 660.459 99.8484C660.625 98.9936 661.45 98.0268 663.027 96.9455C664.605 95.8641 666.391 95.5331 668.479 95.8554C670.188 96.1878 671.53 96.9079 672.502 97.9214C673.476 99.0292 673.984 100.339 674.026 101.944C674.029 102.038 674.039 102.416 673.965 103.174L674.153 103.169C676.791 99.3189 679.963 97.8171 683.76 98.4718C685.659 98.7992 687.192 99.6087 688.363 100.995C689.531 102.286 690.143 103.971 690.198 106.048L690.387 106.043C693.025 102.193 696.197 100.692 699.994 101.346C702.178 101.761 703.908 102.848 705.086 104.518C706.267 106.281 706.702 108.443 706.209 111.196C706.132 111.86 705.792 113.286 705.378 115.47C704.964 117.654 704.636 119.553 704.301 121.168C703.805 123.827 704.33 125.797 705.687 127.084C706.266 127.541 706.368 127.821 706.378 128.199Z" fill="white"/>
<path d="M738.116 127.826C738.041 128.584 737.684 129.349 736.953 130.314C736.318 131.275 735.396 132.15 734.286 133.03C733.175 133.91 731.682 134.611 729.901 135.131C728.12 135.651 726.139 135.798 724.146 135.473C719.405 134.844 715.673 133.054 713.135 130.003C710.597 126.953 709.55 123.107 710.09 118.557C710.633 114.102 712.525 110.65 715.767 108.202C719.008 105.753 723.048 104.89 727.978 105.514C732.245 106.062 735.304 107.398 737.441 109.608C739.484 111.822 740.395 114.065 740.082 116.53C739.842 118.142 739.31 119.479 738.396 120.638C737.482 121.796 736.37 122.581 735.06 123.089C733.751 123.596 732.342 123.917 731.023 124.047C729.609 124.179 728.285 124.119 726.958 123.966C724.399 123.656 722.495 123.14 721.347 122.604C721.39 124.209 722.086 125.513 723.435 126.516C724.785 127.52 726.316 128.235 728.117 128.47C729.824 128.708 731.429 128.665 732.841 128.439C734.252 128.212 735.472 127.896 736.22 127.593C737.062 127.287 737.529 127.086 737.718 127.081C737.998 126.979 738.195 127.257 738.116 127.826ZM723.262 112.915C722.351 114.168 721.73 115.696 721.594 117.684C721.974 117.768 722.449 117.85 722.923 117.932C724.819 118.165 726.325 117.936 727.532 117.148C728.742 116.454 729.378 115.492 729.539 114.449C729.613 113.691 729.499 112.938 729.011 112.384C728.524 111.83 727.853 111.47 726.81 111.309C725.294 111.16 724.174 111.662 723.262 112.915Z" fill="white"/>
</svg>
