<svg width="194" height="99" viewBox="0 0 194 99" fill="none" xmlns="http://www.w3.org/2000/svg">
<path d="M188.775 12.0278C185.714 9.25217 181.729 7.47291 176.889 6.97471C174.469 6.69003 173.259 6.61886 170.84 6.33418C170.484 6.33418 170.199 6.33418 169.843 6.33418C169.203 6.33418 168.633 6.47652 167.993 6.47652C165.715 4.55491 162.299 2.77565 157.459 2.41979C156.819 2.41979 156.392 2.27746 155.751 2.27746C152.691 2.27746 149.56 2.98916 146.784 4.55491C144.364 2.84682 141.09 1.28107 136.464 0.996383C136.108 0.996383 135.752 0.996383 135.397 0.996383C132.123 0.996383 128.849 1.70809 125.931 3.55853C123.511 1.85043 120.095 0.35585 115.611 0.213508H115.113C108.565 0.213508 104.082 2.84682 101.021 6.61886C97.9609 2.70448 93.406 0 86.7159 0H86.3601C81.734 0.142341 78.3178 1.42341 75.898 3.1315C73.3359 1.56575 70.062 0.569361 66.2188 0.569361C66.0053 0.569361 65.5783 0.569361 65.3648 0.569361C60.7387 0.711702 57.4648 2.27746 55.045 3.98555C52.127 2.4198 48.9955 1.63692 45.7929 1.63692C45.2947 1.63692 44.7965 1.63692 44.3695 1.63692C37.8218 2.13511 33.765 5.12428 31.5588 7.68642C31.0606 8.32695 30.5624 8.89632 30.2065 9.53685C29.6372 8.32695 28.6408 7.18822 27.5732 6.26301C25.7228 4.69725 23.4453 3.91438 21.0255 3.91438C20.6697 3.91438 20.385 3.91438 20.0291 3.91438C18.1075 4.12789 17.1111 4.12789 15.0472 4.41257C12.4851 4.62608 10.0652 5.83599 8.35715 7.82876C6.00853 10.3909 4.94098 11.7431 2.59235 14.2341C0.741913 16.2981 -0.183308 19.0737 0.0302033 21.9205C0.243715 24.4827 1.38245 26.7601 3.01937 28.5394C2.16532 30.2475 1.80947 32.1691 2.02298 34.233L2.52117 39.0015C2.73468 41.7059 4.22927 44.2681 6.29321 45.9762C8.14365 47.4708 10.4211 48.3248 12.6986 48.3248C13.0544 48.3248 13.4103 48.3248 13.7661 48.1825C19.7444 47.6131 22.6624 47.2572 28.5696 46.7591C31.2741 46.5455 33.765 45.1933 35.6155 43.1294L35.7578 42.987C38.8182 44.9086 42.3055 45.8338 45.5794 45.8338C46.0775 45.8338 46.5757 45.8338 47.0028 45.8338C50.9883 45.6203 54.3333 44.4104 56.8243 42.4176C59.7423 43.9834 62.8738 44.7663 66.0765 44.7663C66.29 44.7663 66.717 44.7663 66.9305 44.7663C70.9161 44.6239 74.2611 43.414 76.7521 41.6348C79.5277 43.3429 82.8016 44.1969 86.3601 44.1969H86.5736C93.0501 44.1257 97.5339 41.5636 100.452 37.7916C103.37 41.5636 107.854 44.2681 114.259 44.4104H114.757C118.031 44.4104 121.305 43.6987 124.223 41.8483C126.785 43.6987 130.059 44.9086 134.044 45.051C134.4 45.051 134.756 45.051 135.112 45.051C138.172 45.051 141.304 44.3392 144.079 42.7735C146.642 44.6951 149.773 45.9762 153.759 46.332C154.399 46.332 154.826 46.4744 155.324 46.4744C157.531 46.4744 159.666 46.1185 161.801 45.4068C163.224 46.4032 164.932 46.9726 166.64 47.2572C168.491 47.3996 169.416 47.5419 171.267 47.7554C171.622 47.7554 171.978 47.7554 172.263 47.7554C175.039 47.7554 177.601 46.6879 179.451 44.8375C183.437 43.9834 186.639 40.9942 187.493 36.9375C190.91 34.3754 192.974 30.5322 193.472 25.9061C194.326 20.4971 192.618 15.5863 188.775 12.0278Z" fill="#644F9A"/>
<path d="M12.2715 33.0943C14.1931 32.8808 15.1895 32.7385 17.1111 32.5961C16.7552 28.8241 16.5417 26.9737 16.1858 23.2016C16.0435 22.3476 16.0435 21.4935 16.0435 21.4935C16.0435 21.4935 16.0435 21.4935 15.9012 21.4935C15.9012 21.4935 15.6876 22.1341 15.1895 22.8458C14.6913 23.4863 14.4778 23.6998 13.9796 24.198C12.5561 22.9881 11.7733 22.3476 10.3499 21.1377C12.5561 18.5755 13.766 17.3656 15.9723 14.8035C17.8939 14.59 18.8903 14.59 20.8119 14.3053C21.5236 21.3512 21.7371 25.052 22.4488 32.0979C24.3705 31.8844 25.3668 31.8844 27.2884 31.5997C27.4308 33.5213 27.502 34.3754 27.6443 36.3682C21.666 36.8664 18.6768 37.2222 12.6985 37.7916C12.485 35.9411 12.3426 34.9448 12.2715 33.0943Z" fill="white"/>
<path d="M36.9678 24.198C36.4696 17.7215 38.2488 12.3837 44.8677 12.0278C51.4154 11.5296 53.8352 16.6539 54.191 23.1304C54.5469 29.6069 52.6964 34.9447 46.2911 35.3006C39.9569 35.7276 37.3948 30.6033 36.9678 24.198ZM48.4974 23.4863C48.2839 19.8566 47.4298 16.9386 45.2235 17.1521C43.0172 17.2944 42.5191 20.2124 42.8037 23.9845C43.0173 27.6142 43.8713 30.5322 46.0776 30.461C48.2127 30.1763 48.7109 27.116 48.4974 23.4863Z" fill="white"/>
<path d="M57.3938 22.9881C57.0379 16.5116 59.0307 11.1738 65.5784 10.9602C72.1261 10.7467 74.4035 15.871 74.6882 22.2764C74.9017 28.7529 72.9801 34.0907 66.5036 34.3042C60.0271 34.5177 57.7496 29.4646 57.3938 22.9881ZM68.9234 22.5611C68.7811 18.9314 68.0694 16.0134 65.7919 16.0845C63.5856 16.2269 63.0162 19.1449 63.2298 22.7746C63.3721 26.4043 64.155 29.4646 66.3613 29.3934C68.4252 29.2511 68.9946 26.1908 68.9234 22.5611Z" fill="white"/>
<path d="M77.8196 22.2052C77.7485 15.7287 79.6701 10.5332 86.3601 10.3909C92.9078 10.3197 95.1141 15.5152 95.0429 21.9917C95.0429 28.4682 92.979 33.6637 86.5024 33.806C80.1683 33.8772 78.0332 28.8241 77.8196 22.2052ZM89.3493 22.134C89.3493 18.5043 88.6376 15.5864 86.4313 15.5152C84.225 15.5152 83.6556 18.4332 83.5845 22.0629C83.7268 25.6926 84.2962 28.7529 86.5024 28.6817C88.7087 28.8241 89.3493 25.7637 89.3493 22.134Z" fill="white"/>
<path d="M106.217 22.2052C106.359 15.7287 108.565 10.5332 115.113 10.8179C121.661 10.9603 123.725 16.2269 123.44 22.7746C123.155 29.2511 120.949 34.4466 114.544 34.1619C108.138 33.8772 106.217 28.6106 106.217 22.2052ZM117.746 22.4187C117.889 18.789 117.248 15.871 115.113 15.7287C112.907 15.7287 112.195 18.5044 112.053 22.2764C111.91 25.9061 112.551 28.9664 114.686 28.9664C116.892 29.0376 117.604 26.1196 117.746 22.4187Z" fill="white"/>
<path d="M126.643 22.7034C126.927 16.2269 129.205 11.1738 135.895 11.5296C142.443 11.8855 144.364 17.1521 143.866 23.6286C143.51 30.1052 141.019 35.1583 134.614 34.8024C128.28 34.5177 126.358 29.1799 126.643 22.7034ZM138.172 23.2016C138.457 19.5719 137.959 16.6539 135.61 16.5116C133.404 16.3692 132.55 19.2872 132.408 22.9881C132.265 26.6178 132.763 29.6781 134.97 29.8205C137.176 29.9628 137.959 26.9736 138.172 23.2016Z" fill="white"/>
<path d="M147.069 23.8421C147.424 17.3656 149.987 12.3125 156.605 12.8819C163.153 13.3801 164.861 18.7179 164.363 25.1944C163.723 31.6709 161.303 36.6528 154.826 36.1546C148.35 35.6565 146.642 30.3187 147.069 23.8421ZM158.598 24.625C158.883 20.9953 158.527 18.0773 156.321 17.7926C154.114 17.6503 153.26 20.4971 152.905 24.1268C152.62 27.7565 152.976 30.8169 155.182 30.9592C157.388 31.3151 158.242 28.3971 158.598 24.625Z" fill="white"/>
<path d="M173.188 31.742C175.11 31.9556 176.106 32.0267 178.028 32.2402C177.885 33.2366 177.885 33.7348 177.743 34.66C175.822 34.4465 174.825 34.3754 172.904 34.1618C172.761 35.5141 172.69 36.0834 172.548 37.2933C170.697 37.151 169.772 37.0087 167.922 36.7952C168.064 35.4429 168.064 34.8736 168.206 33.6637C167.352 33.5213 166.996 33.5213 166.142 33.379C166.285 32.3826 166.285 31.8844 166.427 30.9592C167.281 31.1015 167.637 31.1015 168.491 31.2439C168.633 30.5321 168.633 30.1763 168.633 29.5358C167.779 29.3934 167.423 29.3934 166.569 29.2511C166.712 28.1835 166.712 27.543 166.854 26.4754C167.708 26.6178 168.064 26.6178 168.918 26.7601C169.274 22.8457 169.416 20.7818 169.772 16.8674C172.192 17.1521 173.402 17.2232 175.822 17.5079C178.384 17.7926 180.448 18.5043 181.8 19.8566C183.152 21.0665 183.721 22.7746 183.508 24.8385C183.223 27.0448 182.369 28.4682 180.803 29.3222C179.238 30.1763 177.174 30.5322 174.612 30.2475C174.113 30.2475 173.758 30.1051 173.259 30.1051C173.259 30.6033 173.188 31.0303 173.188 31.742ZM174.256 20.5683C173.971 23.2727 173.9 24.5538 173.615 27.116C174.113 27.116 174.327 27.2583 174.825 27.2583C175.893 27.4006 176.747 27.116 177.53 26.6889C178.17 26.1907 178.597 25.3367 178.74 24.2691C178.882 23.2016 178.597 22.4187 178.17 21.8493C177.53 21.2088 176.747 20.8529 175.608 20.7106C175.039 20.5683 174.754 20.5683 174.256 20.5683Z" fill="white"/>
<path d="M191.822 49.4957C190.122 47.3603 187.63 45.9762 184.427 45.3435C183.438 45.1458 182.45 45.0271 181.501 45.0271C180.394 45.0271 179.286 45.1458 178.258 45.4226L177.428 44.6317L176.281 44.2363C175.174 43.8408 174.066 43.5244 172.92 43.3663C171.931 43.2081 170.942 43.129 169.993 43.129C169.756 43.129 169.479 43.129 169.242 43.129L168.372 43.1685C167.344 42.5358 166.157 42.0613 164.852 41.8636C164.338 41.7845 163.824 41.7449 163.31 41.7449C162.638 41.7449 161.966 41.824 161.333 41.9822L161.214 41.9031L160.938 41.7845C159.83 41.389 158.604 41.0727 157.26 40.9145C156.509 40.8354 155.757 40.7563 155.045 40.7563C154.571 40.7563 154.136 40.7563 153.661 40.7959H153.543H153.424C153.266 40.8354 153.068 40.8354 152.91 40.875C151.842 40.2422 150.616 39.8072 149.311 39.6491C148.876 39.6095 148.481 39.57 148.046 39.57C146.939 39.57 145.871 39.7677 144.882 40.1236C143.38 39.2932 141.64 38.7791 139.662 38.5814C139.109 38.5418 138.595 38.5023 138.081 38.5023C136.459 38.5023 134.878 38.7791 133.454 39.2932C133.059 38.9768 132.584 38.7 132.07 38.5023L131.793 38.3836L131.516 38.3045C130.409 37.9486 129.144 37.7509 127.799 37.6323C127.404 37.5927 127.008 37.5927 126.613 37.5927C125.822 37.5927 124.991 37.6323 124.2 37.7509H124.082H123.963C123.805 37.7905 123.607 37.83 123.449 37.8696C122.342 37.3159 121.116 36.96 119.771 36.8809C119.534 36.8809 119.336 36.8414 119.099 36.8414C117.676 36.8414 116.331 37.1578 115.105 37.7509C113.523 36.8809 111.665 36.4064 109.608 36.3273C109.411 36.3273 109.213 36.3273 109.015 36.3273C106.564 36.3273 104.31 36.8414 102.293 37.9091C101.937 38.1068 101.62 38.265 101.304 38.4627C100.948 35.6946 96.4796 36.011 93.5929 36.011H93.5533C91.0225 36.011 88.6893 36.6437 86.7121 37.83C85.1303 36.6832 83.3113 36.09 81.2945 36.09C81.1758 36.09 81.0968 36.09 80.9781 36.09C79.7522 36.1296 78.5659 36.3669 77.4191 36.8414C76.4305 36.4855 75.3628 36.2878 74.2555 36.2878C74.1369 36.2878 74.0578 36.2878 73.9392 36.2878C72.3574 36.3273 70.8942 36.7228 69.6288 37.4741C68.3634 37.0391 67.0188 36.8018 65.5557 36.8018C65.2393 36.8018 64.9625 36.8018 64.6462 36.8414C62.4712 36.96 60.4544 37.5532 58.7145 38.5023L57.6467 37.9091L56.4209 37.7905C55.8672 37.7509 55.2741 37.7114 54.7204 37.7114C54.1273 37.7114 53.5341 37.7509 52.9805 37.7905C51.715 37.9091 50.5287 38.1464 49.3819 38.5023L48.5515 38.7395C47.6815 38.4627 46.7324 38.3045 45.7833 38.3045C45.467 38.3045 45.1506 38.3045 44.8343 38.3441C42.422 38.5814 40.2471 39.6886 38.7444 41.5077C37.993 40.8354 37.0835 40.3609 36.0553 40.0841L35.5017 39.9654L34.9481 39.9259C34.7504 39.9259 34.5131 39.9259 34.2758 39.9259C33.4058 39.9259 32.4568 40.005 31.4681 40.1236C30.3609 40.2818 29.2932 40.519 28.3046 40.875C27.7905 40.7959 27.2764 40.7563 26.7623 40.7563C26.2482 40.7563 25.6946 40.7959 25.1805 40.875C23.5197 41.1122 22.0565 41.7054 20.7515 42.6149C20.3956 42.4963 20.0397 42.4172 19.6443 42.3381L19.3675 42.2986H19.0907C18.8929 42.2986 18.6952 42.2986 18.4975 42.2986C17.5089 42.2986 16.4412 42.4172 15.3339 42.6149C14.1476 42.8522 12.9612 43.1685 11.8935 43.6431L11.8144 43.6826L11.7353 43.7222C11.5772 43.8013 11.419 43.8803 11.2608 43.9594C10.6281 43.8013 9.95583 43.7222 9.28357 43.7222C8.6904 43.7222 8.05768 43.7617 7.46451 43.8804C5.01274 44.3549 2.99596 45.6203 1.65144 47.5976C0.267376 49.6143 -0.246705 51.6311 0.109197 53.5688C0.346466 54.8738 0.979181 56.0206 1.88871 56.9301C2.56097 60.5287 2.79824 61.9918 2.87733 62.5455V62.7432L2.99596 63.455C3.51004 66.1836 5.80364 68.2399 8.57176 68.3981H8.72994H8.96721C10.1931 68.3981 11.3794 68.2794 12.4867 68.0817C13.9103 67.8049 15.0966 67.449 16.1643 66.9745C16.3225 66.8954 16.5203 66.8163 16.6784 66.7372C17.3111 66.8954 17.9834 66.9745 18.6557 66.9745C19.2488 66.9745 19.8815 66.9349 20.5143 66.8163C21.8983 66.5395 23.1638 65.9858 24.271 65.1949C25.141 65.4322 26.0901 65.5904 27.0391 65.5904C27.5532 65.5904 28.0673 65.5508 28.5814 65.4718C29.7677 65.3136 30.9145 64.9181 31.9427 64.3645C32.6149 64.5227 33.2872 64.6018 34.0386 64.6018C34.5131 64.6018 35.0272 64.5622 35.5017 64.4831C37.6371 64.1668 39.5748 63.1782 41.038 61.5568C41.2752 61.3196 41.473 61.0427 41.6707 60.8055C41.7498 60.8846 41.8289 60.9241 41.8684 61.0032C43.5293 62.3477 45.5065 63.0595 47.6815 63.0595C47.9978 63.0595 48.3537 63.0595 48.6701 63.02C49.896 62.9014 51.0823 62.585 52.1896 62.0709C53.02 62.3082 53.8505 62.4664 54.76 62.4664C55.0763 62.4664 55.3927 62.4664 55.7091 62.4268C57.3304 62.2686 58.7935 61.715 60.059 60.845C61.3639 61.3591 62.9457 61.715 64.8043 61.715C65.1207 61.715 65.4766 61.715 65.8325 61.6755C67.4934 61.5964 69.0356 61.2009 70.4197 60.5287C70.6965 60.6078 70.9338 60.7264 71.2106 60.7659L71.3688 60.8055L71.5269 60.845C72.5551 61.0032 73.5833 61.1218 74.5719 61.1218C74.7301 61.1218 74.9278 61.1218 75.086 61.1218C76.47 61.0823 77.6564 60.9241 78.8032 60.6078C78.9613 60.5682 79.1195 60.5287 79.2777 60.4496C80.385 60.8846 81.5713 61.1218 82.8367 61.1218C82.9554 61.1218 83.0344 61.1218 83.1531 61.1218C84.7744 61.0823 86.3167 60.6078 87.6612 59.8169C89.4011 60.6473 91.3388 61.1218 93.4347 61.1218H93.4743C95.491 61.1218 97.3496 60.7264 99.05 59.975C100.276 60.6868 101.66 61.0823 103.123 61.1218C103.242 61.1218 103.36 61.1218 103.479 61.1218C104.863 61.1218 106.208 60.8055 107.394 60.2123C108.699 60.9637 110.162 61.3591 111.744 61.4382C111.863 61.4382 111.981 61.4382 112.1 61.4382C113.049 61.4382 113.998 61.28 114.868 61.0428L114.947 61.0823C116.133 61.3987 117.32 61.5964 118.506 61.6755C118.981 61.715 119.455 61.715 119.89 61.715C120.76 61.715 121.591 61.6755 122.342 61.5173C122.54 61.4777 122.698 61.4382 122.896 61.3987C124.003 61.9918 125.268 62.3082 126.613 62.4268C126.85 62.4268 127.048 62.4664 127.285 62.4664C128.709 62.4664 130.053 62.15 131.279 61.5568C132.94 62.5455 134.838 63.1386 136.973 63.3363C137.408 63.3759 137.843 63.4154 138.239 63.4154C139.425 63.4154 140.612 63.2573 141.758 62.9014C142.035 63.0595 142.312 63.2177 142.628 63.3363L142.786 63.3759L142.945 63.4154C144.131 63.8109 145.278 64.0877 146.425 64.2459C147.255 64.3645 148.085 64.4041 148.797 64.4041C149.311 64.4041 149.786 64.3645 150.26 64.325C150.458 64.325 150.656 64.2854 150.814 64.2459C151.882 64.8786 153.108 65.3136 154.452 65.5113C154.887 65.5508 155.283 65.5904 155.678 65.5904C156.627 65.5904 157.497 65.4322 158.367 65.1949C159.474 65.9463 160.74 66.4604 162.163 66.6581C162.717 66.7372 163.271 66.8163 163.824 66.8163C164.497 66.8163 165.129 66.7767 165.762 66.6186C166.751 67.2117 167.858 67.6467 169.084 67.8444C169.598 67.9235 170.112 67.9631 170.626 67.9631C171.733 67.9631 172.801 67.7654 173.79 67.4095C175.332 68.5167 177.19 69.3076 179.286 69.7426C180.117 69.9008 180.908 69.9799 181.698 69.9799C182.489 69.9799 183.32 69.9008 184.071 69.7426C185.653 69.4262 187.037 68.8331 188.223 68.0422C189.172 67.4094 189.963 66.6581 190.596 65.9068C191.545 64.76 192.178 63.5341 192.415 62.2291C192.534 61.5964 192.573 60.9637 192.534 60.3705C193.048 59.461 193.443 58.4723 193.641 57.4046C194.511 54.6761 193.76 51.8684 191.822 49.4957Z" fill="#644F9A"/>
<path d="M15.5712 56.0601L13.1194 56.4951L14.029 61.4777C14.029 61.5568 14.029 61.5964 13.9499 61.6359C13.3172 61.9127 12.5263 62.15 11.5772 62.3082C10.7863 62.4664 9.99542 62.5059 9.12543 62.5059C9.04635 62.5059 9.0068 62.4664 9.0068 62.3873C9.0068 62.1105 8.61135 59.6587 7.74137 54.9529C7.62274 54.3202 7.46456 53.8456 7.26683 53.4897C7.06911 53.1734 6.7923 52.9361 6.39685 52.7779C6.23867 52.6988 6.12004 52.6197 6.12004 52.4616C6.04095 52.1057 6.23867 51.5916 6.71321 50.9193C7.18774 50.247 7.86 49.8121 8.72999 49.6539C9.59997 49.4957 10.3909 49.6143 11.0631 50.0493C11.7354 50.4843 12.1308 51.117 12.3286 52.0266L12.6845 53.8852L15.1362 53.4502L14.3453 49.2189C14.3453 49.1398 14.3453 49.1003 14.4244 49.0607C15.1362 48.7444 15.8876 48.5466 16.6785 48.3884C17.5485 48.2303 18.3789 48.1512 19.0907 48.1907C19.1302 48.1907 19.1698 48.2303 19.1698 48.3094L20.5539 55.7042C20.7516 56.8115 21.2657 57.5628 22.017 57.8792C22.1752 57.9583 22.2938 58.0374 22.2938 58.1955C22.3729 58.5514 22.1752 59.0655 21.7007 59.7378C21.2261 60.41 20.5539 60.845 19.6839 61.0032C18.7743 61.1614 18.023 61.0428 17.3507 60.6473C16.6785 60.2123 16.283 59.5401 16.0853 58.591L15.5712 56.0601Z" fill="white"/>
<path d="M37.3208 55.7042C37.479 55.7833 37.558 55.9019 37.5976 56.0206C37.6767 56.4951 37.4394 57.0487 36.8858 57.6419C36.3322 58.2351 35.6599 58.591 34.869 58.7096C34.0386 58.8282 33.3268 58.7096 32.694 58.3537C32.0613 57.9978 31.6659 57.4442 31.4286 56.6533H31.3495C31.1123 57.4837 30.7168 58.156 30.0841 58.7096C29.4909 59.2237 28.7396 59.5796 27.9487 59.6982C26.4855 59.896 25.2596 59.461 24.2315 58.3537C23.2033 57.2465 22.5706 55.8624 22.2938 54.1224C22.0565 52.3429 22.2542 50.7216 22.9265 49.2584C23.5988 47.7953 24.706 46.9648 26.2087 46.7671C26.9996 46.6485 27.751 46.7276 28.4232 47.0044C29.0955 47.2812 29.6491 47.7162 30.0446 48.3094H30.1236V46.7276C30.1236 46.6485 30.1632 46.6089 30.2423 46.5694C30.9541 46.3321 31.6659 46.1739 32.4568 46.0553C33.3268 45.9367 34.0781 45.8971 34.7899 45.9367C34.869 45.9762 34.9085 46.0158 34.9481 46.0553C35.4622 49.9307 35.7785 52.3825 35.9367 53.4897C36.1344 54.597 36.5694 55.3483 37.3208 55.7042ZM30.7959 54.9529C31.0332 54.3202 31.0727 53.5293 30.9541 52.6197C30.8354 51.7102 30.5586 50.9589 30.1236 50.4052C29.7282 49.8516 29.2141 49.6143 28.6209 49.6934C28.0278 49.7725 27.6323 50.1284 27.3951 50.8007C27.1578 51.4729 27.1182 52.2243 27.2369 53.1734C27.3555 54.1224 27.6323 54.8342 28.0673 55.3879C28.4628 55.9415 28.9768 56.1788 29.57 56.0997C30.1632 55.981 30.5586 55.5856 30.7959 54.9529Z" fill="white"/>
<path d="M56.8163 51.3939C56.9349 52.5407 57.2908 53.292 57.9631 53.6479C58.1212 53.727 58.2003 53.8456 58.2003 54.0038C58.2399 54.3597 58.0026 54.8738 57.4885 55.5065C56.9745 56.1392 56.2626 56.4951 55.3531 56.5742C54.6018 56.6533 53.9691 56.4951 53.455 56.1392C52.9409 55.7833 52.585 55.3088 52.3477 54.6365C52.3082 54.5179 52.2686 54.3597 52.1895 54.1224H52.1105C51.7546 55.1111 51.2405 55.8624 50.5287 56.3369C49.8169 56.8115 49.1051 57.0883 48.2746 57.1674C47.286 57.2465 46.4556 57.0092 45.7438 56.4556C45.0715 55.9019 44.6365 55.032 44.5574 53.8456L44.162 49.4166C44.0829 48.3489 43.6479 47.6371 42.8965 47.2417C42.7384 47.1626 42.6593 47.0439 42.6593 46.8858C42.6197 46.5299 42.857 46.0158 43.3711 45.3831C43.8852 44.7503 44.597 44.3944 45.5065 44.3153C46.416 44.2363 47.2069 44.434 47.8396 44.9085C48.4723 45.3831 48.8678 46.0949 48.9469 47.0835L49.4214 52.2638C49.461 52.7384 49.5796 53.0943 49.7773 53.3315C49.975 53.5688 50.1728 53.6479 50.4496 53.6479C50.845 53.6084 51.1614 53.3315 51.4777 52.8175C51.7546 52.3034 51.8732 51.5916 51.7941 50.7611L51.2009 44.3944L51.28 44.2363C52.0314 43.999 52.8618 43.8408 53.6922 43.7617C54.4831 43.6826 55.274 43.6826 56.0649 43.7617C56.1045 43.8013 56.144 43.8408 56.144 43.9199C56.144 43.9594 56.3813 46.4508 56.8163 51.3939Z" fill="white"/>
<path d="M70.0242 48.0721C69.6288 48.6257 68.9961 48.9421 68.1261 48.9816C67.6516 49.0212 67.177 48.9025 66.7816 48.7048C66.3861 48.5071 66.1489 48.2698 66.1489 48.0325C66.1489 47.9535 66.1488 47.7162 66.1884 47.3998C66.2279 47.0835 66.2279 46.8462 66.1884 46.6485C66.1488 45.6599 65.7929 45.1853 65.1207 45.2249C64.6066 45.2644 64.1716 45.6203 63.8553 46.3321C63.5389 47.0439 63.4203 47.8348 63.4598 48.7048C63.5389 49.7725 63.8553 50.6425 64.5275 51.3543C65.1602 52.0661 66.1093 52.3825 67.4143 52.3034C68.0865 52.2638 68.7983 52.0661 69.5497 51.7102C70.301 51.3543 70.6965 51.1961 70.7756 51.1961C70.9733 51.1961 71.0919 51.2752 71.0919 51.5125C71.1315 52.2243 70.6569 53.0943 69.6288 54.1224C68.6006 55.1506 67.2956 55.7042 65.7139 55.7833C63.5784 55.9019 61.878 55.3879 60.6521 54.2411C59.4262 53.0943 58.754 51.552 58.6354 49.6539C58.5167 47.8348 59.0703 46.253 60.2567 44.9085C61.443 43.564 63.1039 42.8522 65.1998 42.7335C66.7025 42.6545 67.9679 42.9313 68.9961 43.564C70.0242 44.1967 70.5779 45.1062 70.6174 46.1739C70.6174 46.8857 70.4197 47.5185 70.0242 48.0721Z" fill="white"/>
<path d="M72.476 47.3207C72.476 46.6485 72.3574 46.174 72.2387 45.818C72.0806 45.4621 71.8433 45.1853 71.4874 44.9876C71.3292 44.9085 71.2501 44.7899 71.2501 44.6317C71.2501 44.2758 71.5269 43.8013 72.0806 43.2081C72.6342 42.6149 73.3855 42.2986 74.2555 42.259C75.0069 42.2195 75.6396 42.4172 76.1537 42.8126C76.6677 43.2081 76.9841 43.7617 77.1423 44.434C77.1818 44.6317 77.2214 44.7899 77.2214 44.9085H77.3005C77.6959 43.9594 78.2891 43.2476 79.0404 42.7731C79.7918 42.3381 80.5431 42.1008 81.2945 42.0613C82.2435 42.0218 83.074 42.3381 83.7463 42.9708C84.4185 43.6035 84.7744 44.5131 84.7744 45.6599C84.7744 45.9367 84.814 46.5694 84.814 47.5976C84.814 48.5862 84.8535 49.4562 84.8535 50.1284C84.893 51.2752 85.2489 52.0661 85.9608 52.5011C86.1189 52.5802 86.198 52.6988 86.198 52.857C86.198 53.2129 85.9212 53.6874 85.3676 54.3202C84.814 54.9133 84.0626 55.2297 83.1926 55.2692C82.2831 55.3088 81.5317 55.032 80.9386 54.5179C80.3454 54.0038 80.029 53.2525 80.029 52.3034L79.8709 46.9253C79.8709 46.4508 79.7522 46.0949 79.5941 45.8576C79.4359 45.6203 79.1986 45.5017 78.9613 45.5017C78.5659 45.5017 78.21 45.7785 77.8936 46.2926C77.5773 46.8067 77.4191 47.4789 77.4191 48.3094L77.5773 54.7947C77.5773 54.8738 77.5377 54.9133 77.4586 54.9529C76.7864 55.1506 75.9955 55.2297 75.1255 55.2692C74.3346 55.3088 73.5042 55.2297 72.6737 55.1111C72.5946 55.1111 72.5551 55.0715 72.5551 54.9924C72.6342 54.6365 72.6342 52.1057 72.476 47.3207Z" fill="white"/>
<path d="M98.6942 43.8804C99.9596 45.1062 100.632 46.688 100.592 48.6257C100.592 50.603 99.9201 52.1847 98.6546 53.4106C97.3496 54.6365 95.7283 55.2297 93.7115 55.2297C91.7343 55.2297 90.0734 54.597 88.808 53.3711C87.5426 52.1452 86.9099 50.5239 86.9099 48.5466C86.9099 46.5694 87.5821 44.9876 88.8871 43.8013C90.1921 42.5754 91.8134 41.9822 93.7906 42.0218C95.7679 41.9822 97.4287 42.6149 98.6942 43.8804ZM95.7679 48.5862C95.7679 47.3998 95.6097 46.4508 95.2933 45.739C94.977 45.0272 94.4629 44.6713 93.7906 44.6713C92.4857 44.6713 91.8134 45.9762 91.7738 48.5466C91.7738 49.6934 91.932 50.6425 92.2484 51.3543C92.5647 52.0661 93.0788 52.422 93.7511 52.422C95.0561 52.4616 95.7283 51.1566 95.7679 48.5862Z" fill="white"/>
<path d="M115.422 53.3711C115.422 53.727 115.105 54.2015 114.512 54.7552C113.919 55.3088 113.168 55.5856 112.258 55.546C111.348 55.5065 110.597 55.2297 110.004 54.6761C109.411 54.1224 109.174 53.3711 109.213 52.3825L109.371 47.993C109.371 47.6371 109.371 47.3603 109.371 47.123C109.332 46.8858 109.292 46.6485 109.173 46.3717C109.055 46.0949 108.857 45.8971 108.58 45.7785C108.304 45.6599 107.908 45.5808 107.434 45.5808C107.473 46.6089 107.473 47.4789 107.473 48.2303C107.473 48.9816 107.394 49.8516 107.275 50.8007C107.157 51.7498 106.959 52.5406 106.682 53.1338C106.405 53.727 106.049 54.2411 105.535 54.6365C105.021 55.032 104.389 55.2297 103.677 55.1901C102.846 55.1506 102.174 54.8738 101.739 54.3597C101.265 53.8456 101.067 53.1338 101.067 52.3034C101.106 51.7102 101.265 51.1566 101.541 50.6425C101.818 50.1284 102.055 49.8912 102.253 49.8912C102.293 49.8912 102.411 49.9307 102.53 50.0493C102.688 50.1284 102.807 50.2075 102.965 50.2075C103.558 50.2471 104.072 49.8121 104.428 48.9025C104.824 48.0326 105.021 46.8462 105.061 45.4226C104.982 45.4226 104.824 45.4226 104.586 45.4226C104.349 45.4226 104.151 45.4226 104.033 45.4226C103.598 45.4226 103.36 45.2644 103.4 44.9481C103.44 44.3944 104.072 43.8013 105.298 43.129C106.564 42.4567 107.987 42.1799 109.648 42.2195C111.151 42.259 112.337 42.694 113.247 43.4058C114.117 44.1572 114.552 45.304 114.472 46.8858C114.472 47.0044 114.472 47.2021 114.433 47.4789C114.433 47.7557 114.393 48.1512 114.354 48.7048C114.314 49.2584 114.314 49.8516 114.275 50.4448C114.235 51.5916 114.552 52.3825 115.224 52.8965C115.342 53.0943 115.422 53.2129 115.422 53.3711Z" fill="white"/>
<path d="M124.596 50.682L122.144 50.5239L121.788 55.5856C121.788 55.6647 121.749 55.7042 121.67 55.7042C120.997 55.8228 120.167 55.8624 119.218 55.7833C118.427 55.7438 117.636 55.5856 116.806 55.3483C116.727 55.3088 116.727 55.2692 116.727 55.2297C116.806 54.9924 117.003 52.4615 117.359 47.7162C117.399 47.0835 117.359 46.5694 117.241 46.2135C117.122 45.8576 116.924 45.5412 116.568 45.304C116.41 45.1853 116.371 45.0667 116.371 44.9085C116.41 44.5526 116.727 44.1176 117.32 43.564C117.952 43.0104 118.704 42.7731 119.613 42.8522C120.523 42.9313 121.235 43.2476 121.788 43.8013C122.342 44.3944 122.579 45.1062 122.5 46.0158L122.381 47.9139L124.833 48.0721L125.15 43.7617C125.15 43.6826 125.189 43.6431 125.268 43.6431C126.059 43.5244 126.85 43.5244 127.641 43.564C128.55 43.6431 129.341 43.7617 130.014 43.9594C130.053 43.999 130.093 44.0385 130.093 44.0781L129.579 51.552C129.499 52.6988 129.776 53.5293 130.449 54.0038C130.607 54.1224 130.646 54.2411 130.646 54.3992C130.607 54.7551 130.29 55.2297 129.697 55.7438C129.064 56.2974 128.313 56.5347 127.404 56.4556C126.494 56.3765 125.782 56.0601 125.229 55.5065C124.715 54.9529 124.477 54.162 124.517 53.2129L124.596 50.682Z" fill="white"/>
<path d="M143.736 54.0433C143.696 54.3597 143.538 54.7156 143.261 55.1111C142.984 55.5065 142.589 55.9019 142.154 56.2974C141.679 56.6928 141.086 57.0092 140.295 57.2465C139.504 57.4837 138.713 57.5628 137.804 57.4442C135.748 57.2465 134.126 56.4951 132.979 55.1901C131.833 53.8852 131.358 52.2638 131.556 50.2866C131.754 48.3489 132.544 46.8462 133.929 45.7785C135.313 44.7108 137.053 44.2758 139.148 44.4735C140.967 44.6713 142.352 45.2249 143.261 46.1344C144.171 47.0835 144.566 48.0325 144.447 49.0607C144.368 49.7725 144.131 50.3657 143.775 50.8402C143.38 51.3543 142.905 51.7102 142.352 51.9079C141.798 52.1452 141.205 52.3034 140.612 52.3429C140.018 52.422 139.425 52.422 138.832 52.3429C137.725 52.2243 136.894 52.0661 136.38 51.7893C136.42 52.4616 136.736 53.0152 137.29 53.4897C137.883 53.9247 138.555 54.2015 139.346 54.2806C140.097 54.3597 140.77 54.3202 141.363 54.2015C141.996 54.0829 142.47 53.9247 142.826 53.7665C143.182 53.6084 143.38 53.5293 143.459 53.5293C143.696 53.727 143.736 53.8456 143.736 54.0433ZM137.171 47.7953C136.776 48.3489 136.538 49.0212 136.499 49.8516C136.697 49.8516 136.855 49.8911 137.053 49.9307C137.883 50.0098 138.516 49.8911 139.03 49.5748C139.544 49.2584 139.821 48.863 139.86 48.3885C139.9 48.0325 139.821 47.7557 139.623 47.5185C139.425 47.2812 139.109 47.123 138.674 47.0835C138.041 47.0044 137.567 47.2417 137.171 47.7953Z" fill="white"/>
<path d="M153.147 53.6874L150.695 53.3711L150.023 58.3933C150.023 58.4724 149.984 58.5119 149.865 58.5119C149.193 58.591 148.362 58.5514 147.413 58.4328C146.622 58.3142 145.831 58.156 145.001 57.8792C144.922 57.8396 144.922 57.8001 144.922 57.7605C145.041 57.5233 145.396 55.032 145.99 50.3261C146.069 49.6934 146.069 49.1793 145.99 48.8234C145.91 48.4675 145.713 48.1512 145.396 47.8744C145.278 47.7557 145.199 47.6371 145.238 47.4789C145.278 47.123 145.634 46.688 146.266 46.2135C146.899 45.6994 147.69 45.5412 148.6 45.6599C149.509 45.7785 150.181 46.1344 150.695 46.7671C151.209 47.3998 151.407 48.1116 151.289 49.0212L151.051 50.8798L153.503 51.1961L154.057 46.9253C154.057 46.8462 154.096 46.8067 154.175 46.8067C154.966 46.7276 155.757 46.7671 156.548 46.8858C157.458 47.0044 158.209 47.2021 158.881 47.4394C158.921 47.4789 158.96 47.5185 158.921 47.558L157.932 54.9924C157.774 56.1392 158.011 56.9697 158.644 57.5233C158.763 57.6419 158.842 57.7606 158.802 57.9187C158.763 58.2746 158.407 58.7096 157.734 59.2237C157.062 59.7378 156.311 59.9355 155.401 59.8169C154.492 59.6982 153.78 59.3423 153.305 58.7492C152.831 58.156 152.633 57.3651 152.752 56.416L153.147 53.6874Z" fill="white"/>
<path d="M173.078 57.4046C172.88 58.5514 173.078 59.3819 173.592 59.896C173.711 60.0146 173.79 60.1332 173.75 60.2914C173.711 60.6473 173.315 61.0823 172.682 61.5568C172.05 62.0314 171.259 62.2291 170.349 62.0709C169.598 61.9523 169.044 61.6359 168.649 61.2009C168.253 60.7264 168.016 60.1728 167.977 59.461C167.977 59.3423 167.977 59.1842 167.977 58.9469L167.897 58.9073C167.304 59.7773 166.592 60.3705 165.802 60.6473C165.011 60.9241 164.22 61.0032 163.429 60.8846C162.44 60.7264 161.689 60.2914 161.175 59.5796C160.661 58.8678 160.463 57.9187 160.661 56.7719L161.373 52.3825C161.531 51.3148 161.333 50.5239 160.7 49.9702C160.582 49.8516 160.503 49.733 160.542 49.5352C160.621 49.1793 160.977 48.7444 161.61 48.2303C162.282 47.7557 163.033 47.558 163.943 47.7162C164.853 47.8744 165.564 48.2698 166.039 48.9025C166.553 49.5353 166.711 50.3261 166.553 51.2752L165.683 56.416C165.604 56.8906 165.643 57.2465 165.762 57.5233C165.881 57.8001 166.078 57.9583 166.316 57.9978C166.711 58.0769 167.107 57.8792 167.502 57.4442C167.897 57.0092 168.174 56.3765 168.332 55.546L169.361 49.2189L169.479 49.1003C170.27 49.0607 171.101 49.1398 171.931 49.2584C172.722 49.3771 173.473 49.5748 174.225 49.8516C174.264 49.8912 174.264 49.9307 174.264 50.0098C174.304 50.0493 173.869 52.5011 173.078 57.4046Z" fill="white"/>
<path d="M186.918 61.0823C186.839 61.3987 186.681 61.715 186.365 62.1105C186.048 62.5059 185.653 62.8618 185.139 63.2177C184.625 63.5736 183.992 63.8109 183.201 63.9691C182.41 64.1272 181.58 64.1272 180.71 63.9691C178.693 63.5736 177.151 62.6641 176.123 61.28C175.095 59.896 174.778 58.1955 175.174 56.2578C175.569 54.3597 176.479 52.9361 177.942 51.987C179.405 51.0379 181.184 50.7611 183.28 51.1961C185.06 51.552 186.365 52.2243 187.195 53.2524C188.026 54.2806 188.302 55.2692 188.105 56.2974C187.986 56.9696 187.67 57.5628 187.235 57.9978C186.8 58.4723 186.286 58.7887 185.693 58.9469C185.099 59.1051 184.506 59.2237 183.913 59.2237C183.32 59.2237 182.727 59.1841 182.173 59.0655C181.066 58.8282 180.275 58.591 179.8 58.3142C179.761 58.9864 180.038 59.5796 180.552 60.0937C181.105 60.6078 181.738 60.9241 182.529 61.0823C183.241 61.2405 183.913 61.28 184.546 61.2009C185.178 61.1218 185.693 61.0427 186.048 60.9241C186.404 60.8055 186.642 60.7659 186.721 60.7659C186.918 60.7659 186.958 60.8846 186.918 61.0823ZM180.987 54.2411C180.552 54.7551 180.235 55.3879 180.117 56.2183C180.275 56.2578 180.473 56.2974 180.67 56.3369C181.461 56.4951 182.133 56.416 182.687 56.1392C183.201 55.8624 183.518 55.5065 183.597 55.032C183.676 54.6761 183.597 54.3992 183.438 54.1224C183.28 53.8456 182.964 53.6874 182.529 53.6083C181.936 53.5688 181.461 53.7665 180.987 54.2411Z" fill="white"/>
<path d="M178.574 85.4023C178.574 85.3628 178.574 85.2837 178.614 85.2046L179.919 77.2165C180.394 74.3693 179.761 71.4826 178.1 68.9517C176.755 66.8954 174.106 64.4041 168.807 64.1668C168.609 64.1668 168.411 64.1668 168.214 64.1668C165.604 64.1668 163.113 64.8786 160.858 66.3022C160.028 66.8163 159.712 62.3477 159 62.9804C158.565 61.715 157.497 65.7881 156.904 65.0368C155.204 62.9409 152.791 61.5568 149.944 61.0823C149.311 60.9637 148.718 60.9241 148.125 60.9241C145.871 60.9241 143.696 61.6359 141.917 62.9409L141.877 62.9804C139.939 60.7264 137.25 59.4214 134.205 59.1842C133.889 59.1446 133.612 59.1446 133.296 59.1446C131.951 59.1446 129.974 59.3819 127.918 60.4496C126.217 59.1842 124.201 58.4328 121.986 58.2746C121.67 58.2351 121.393 58.2351 121.076 58.2351C119.771 58.2351 117.913 58.4328 115.975 59.4214C114.433 58.2746 112.535 57.6024 110.439 57.4442C110.162 57.4046 109.846 57.4046 109.569 57.4046C107.434 57.4046 105.456 57.9583 103.756 59.0655C103.281 58.6701 102.688 58.3537 102.095 58.156L101.858 58.0769L101.62 58.0374C100.078 57.6815 98.3383 57.4837 96.4797 57.4837H96.2424C94.5024 57.4837 92.7229 57.6815 91.062 58.0374H90.983L90.9039 58.0769C90.113 58.2746 89.4012 58.6305 88.7685 59.1446C86.9889 57.8792 84.814 57.2069 82.4018 57.2069H82.2831C79.4359 57.2069 76.8655 58.2351 74.9278 60.1332C72.6342 58.7492 69.8661 58.0769 66.663 58.0769C66.1093 58.0769 65.5557 58.0769 65.0021 58.1165C60.2567 58.4328 55.3927 59.2237 52.4664 62.1105C51.8337 60.8846 51.6755 60.7264 50.331 60.2914C49.5796 60.0541 48.9469 60.0146 48.1956 59.9751C47.9979 59.9751 47.7606 59.9751 47.4838 59.9751C47.1279 59.9751 46.6533 59.9751 46.1393 60.0146C45.1902 60.0541 44.2807 60.1332 43.3711 60.2519C41.2357 60.5682 39.4562 61.0032 37.9535 61.6755C37.0044 62.0314 36.174 62.7036 35.5413 63.5341L35.4226 63.6923C33.564 62.6245 31.4286 62.0709 29.135 62.0709C28.3837 62.0709 27.5928 62.1105 26.8019 62.2291C23.5592 62.7036 20.8306 63.9691 18.6952 66.0649C17.7066 67.014 14.7803 69.8612 15.3339 73.7366C15.6107 75.5557 16.5994 77.0584 18.0625 77.9679C17.3507 78.3633 16.6389 78.9961 16.0062 79.9056C15.5712 80.5383 15.2153 81.2896 14.8989 82.1596C14.2662 83.9391 14.0685 85.7977 14.3453 87.6959C14.7408 90.464 16.0457 92.7972 18.1021 94.4185C19.8025 95.763 21.8588 96.4353 24.0733 96.4748C24.6269 96.4748 25.1806 96.4353 25.7342 96.3562C27.6719 96.0794 29.4118 95.3676 30.8355 94.2208C31.4286 93.7462 31.9427 93.2321 32.4172 92.639C32.9313 93.0344 33.4849 93.2717 33.9199 93.4694C34.6713 93.7462 35.5017 93.9044 36.3717 93.9044C36.8067 93.9044 37.2417 93.8649 37.7162 93.7858C39.5353 93.509 41.0775 92.7181 42.1848 91.4922C43.8457 92.4808 45.7438 92.9949 47.7606 93.0344C48.3538 93.0344 48.9865 92.9949 49.6192 92.9158C52.4269 92.5203 54.7995 91.1758 56.5 89.0404C59.1495 90.6222 62.1944 91.4526 65.6348 91.4526C66.1489 91.4526 66.7025 91.4526 67.2166 91.4131C69.4311 91.2549 71.527 90.7013 73.4251 89.7918C75.3233 88.8427 76.8655 87.6563 78.0123 86.3118C79.0009 85.1255 79.7918 83.9391 80.3454 82.7528C82.0459 83.5832 84.0231 84.0182 86.1981 84.0182H86.3167C86.7121 84.0182 87.1076 84.0182 87.503 83.9787C88.1357 85.8373 89.2034 87.1027 90.113 87.9727C92.0902 89.7918 94.6211 90.7408 97.5078 90.7408H97.6265C99.5642 90.7408 101.344 90.2663 102.925 89.3963C103.123 89.4754 103.321 89.5545 103.519 89.6336L103.677 89.6731L103.835 89.7127C105.614 90.1872 107.354 90.5036 109.055 90.6222C109.727 90.6617 110.399 90.7013 111.032 90.7013C112.218 90.7013 113.365 90.6222 114.393 90.464C114.67 90.4245 114.947 90.3454 115.224 90.2663C115.461 90.3849 115.698 90.464 115.936 90.5431L116.094 90.5827L116.252 90.6222C118.032 91.0967 119.732 91.4131 121.314 91.5317C121.986 91.5713 122.658 91.6108 123.251 91.6108C124.438 91.6108 125.585 91.5317 126.613 91.3736C127.325 91.2549 127.997 91.0176 128.59 90.7013C130.251 91.9667 132.268 92.7181 134.561 92.8762C134.838 92.9158 135.115 92.9158 135.431 92.9158C137.962 92.9158 140.295 92.0854 142.193 90.5036C143.024 91.4131 144.012 92.204 145.199 92.9158C147.057 94.0626 149.311 94.8535 151.803 95.2489C152.752 95.4071 153.701 95.4862 154.61 95.4862C156.983 95.4862 159.198 95.0117 161.254 94.023C162.915 96.1189 165.327 97.4634 168.174 97.938C168.807 98.0566 169.4 98.0962 169.993 98.0962C172.247 98.0962 174.383 97.4239 176.202 96.0794C177.704 94.9721 179.761 93.1926 180.196 90.4245C180.235 88.5659 179.721 86.7864 178.574 85.4023Z" fill="#644F9A"/>
<path d="M33.2476 84.216C32.2986 82.1992 31.389 80.4592 30.6377 78.9961C29.8468 77.5329 29.0954 76.2675 28.3441 75.2393L28.1859 75.2789C28.4627 76.5047 28.7 77.5725 28.8977 78.5215C29.0955 79.4706 29.2536 80.5779 29.4118 81.8433C29.57 83.1087 29.57 84.216 29.4909 85.1255C29.3723 86.0746 29.1745 86.9841 28.8977 87.8936C28.6209 88.7636 28.1068 89.5149 27.4346 90.029C26.7623 90.5827 25.8923 90.899 24.9037 91.0572C23.4801 91.2549 22.2542 90.9781 21.3051 90.2268C20.3165 89.4754 19.7629 88.3682 19.5256 86.9445C19.3675 85.9164 19.4861 84.9278 19.8024 83.9787C20.1583 83.0296 20.4747 82.5551 20.8306 82.5155C20.9097 82.5155 21.1074 82.5551 21.3842 82.6737C21.661 82.7924 21.9379 82.8319 22.1751 82.7924C23.9546 82.5551 24.4292 79.352 23.5987 73.2621C23.401 73.2621 23.0847 73.3016 22.6892 73.3807C22.2542 73.4598 21.9774 73.5389 21.8588 73.5389C21.0679 73.6575 20.6329 73.4598 20.5538 72.9457C20.4352 72.1548 21.0283 71.1267 22.3728 69.8612C23.6778 68.5958 25.4178 67.8049 27.5532 67.4886C30.4004 67.0931 32.6545 67.7654 34.2758 69.5053C35.1458 70.4544 36.3717 72.313 37.8744 75.0416H37.993C38.2303 74.1716 38.4675 73.0644 38.7444 71.7198C39.0212 70.3753 39.2584 69.189 39.4562 68.2399C39.6539 67.2908 39.7725 66.7767 39.7725 66.6977C39.8121 66.6186 39.8516 66.6186 39.8912 66.579C40.9984 66.1045 42.422 65.7486 44.1224 65.5113C44.8342 65.3927 45.546 65.3531 46.2974 65.3136C47.0487 65.274 47.6024 65.274 47.9978 65.3136C48.3933 65.3136 48.6305 65.3531 48.6701 65.3531C48.7492 65.3927 48.7492 65.4322 48.7887 65.5509L50.6473 78.4424C50.9241 80.4197 51.715 81.6851 53.02 82.3178C53.2968 82.4364 53.455 82.6342 53.4945 82.911C53.5736 83.5437 53.2177 84.4137 52.3477 85.5605C51.4778 86.7073 50.2914 87.4191 48.7492 87.6168C47.1674 87.8541 45.8229 87.5773 44.6761 86.8259C43.5293 86.0746 42.8175 84.8487 42.5802 83.1878L41.4334 74.6857H41.3148C41.038 75.8325 40.682 77.4143 40.2471 79.4311C39.8121 81.4478 39.4166 83.1878 39.0607 84.6905C38.7444 86.1932 38.5466 87.0236 38.5071 87.1818C38.3489 87.9332 37.8348 88.3682 36.8858 88.4868C36.3717 88.5659 35.9762 88.5263 35.6994 88.4472C35.4226 88.3286 35.1853 88.0913 34.9876 87.6959C34.7503 87.4191 34.1967 86.2723 33.2476 84.216Z" fill="white"/>
<path d="M75.7978 78.4424C75.8374 78.9961 75.6792 79.6288 75.3233 80.4197C74.9674 81.2106 74.4533 82.0015 73.7415 82.7924C73.0692 83.6228 72.0806 84.3346 70.8547 84.9278C69.6288 85.5209 68.2052 85.9164 66.7025 85.9955C63.104 86.2328 60.1381 85.4023 57.805 83.5042C55.4718 81.606 54.2064 78.9565 53.9691 75.5161C53.7319 72.1548 54.6414 69.3472 56.6977 67.0931C58.754 64.8391 61.6013 63.6132 65.2789 63.3759C68.4425 63.1782 70.9338 63.7318 72.7529 65.0368C74.5719 66.3813 75.5605 67.9235 75.6792 69.7031C75.7583 70.9289 75.521 71.9967 75.0069 72.9853C74.4928 73.9343 73.781 74.6857 72.8715 75.2393C71.962 75.7929 71.0129 76.2279 70.0243 76.5048C69.0357 76.7816 68.047 76.9793 67.0189 77.0584C65.0812 77.177 63.618 77.0979 62.7085 76.8211C62.9458 77.9679 63.6576 78.8379 64.7648 79.4311C65.9116 80.0242 67.1375 80.2615 68.5216 80.1824C69.787 80.1033 70.9338 79.8661 71.962 79.4706C72.9901 79.0752 73.781 78.6797 74.3347 78.3238C74.8883 77.9679 75.2442 77.7702 75.4024 77.7702C75.6396 77.8888 75.7978 78.047 75.7978 78.4424ZM62.7876 69.624C62.2735 70.6521 62.0758 71.878 62.1944 73.3412C62.5108 73.3016 62.8271 73.3016 63.183 73.3016C64.6067 73.2225 65.6744 72.8271 66.4653 72.1153C67.2166 71.4035 67.5725 70.6521 67.533 69.8612C67.4934 69.2681 67.2561 68.7935 66.8607 68.4376C66.4653 68.0817 65.8721 67.9236 65.1207 67.9631C64.0926 68.0817 63.3017 68.5958 62.7876 69.624Z" fill="white"/>
<path d="M102.767 81.2896C102.767 81.9224 102.253 82.7528 101.265 83.781C100.276 84.8091 98.971 85.3232 97.4287 85.3232C95.847 85.3232 94.542 84.8882 93.5534 83.9391C92.5647 83.0296 92.0507 81.7246 92.0507 80.0638V76.7815L91.8925 76.7025C90.1525 77.9679 88.2148 78.6006 86.1585 78.6006C82.639 78.6006 80.4245 77.1374 79.5545 74.1321C79.2777 73.2621 79.1591 72.2734 79.1591 71.1662C79.1591 69.3076 78.5659 68.0026 77.34 67.2513C77.1028 67.0931 76.9446 66.8558 76.9446 66.6186C76.9446 65.9858 77.4587 65.1554 78.4473 64.1272C79.4359 63.0991 80.7409 62.585 82.2831 62.585C83.8649 62.585 85.1699 63.02 86.1585 63.9691C87.1471 64.8786 87.6612 66.1836 87.6612 67.8444V70.9685C87.6612 72.6294 88.5312 73.4202 90.2316 73.4202C90.7457 73.4202 91.3389 73.3412 92.0111 73.1434L91.9716 63.5341C91.9716 63.4154 92.0111 63.3363 92.1298 63.3363C93.4743 63.0595 94.8188 62.9014 96.2029 62.9014C97.7451 62.9014 99.1687 63.02 100.355 63.2968C100.434 63.3363 100.474 63.3759 100.474 63.4945L100.553 76.5047C100.553 78.482 101.146 79.866 102.372 80.6569C102.649 80.8151 102.767 81.0524 102.767 81.2896Z" fill="white"/>
<path d="M140.374 83.8205C140.335 84.4532 139.781 85.2441 138.674 86.1537C137.606 87.1027 136.262 87.4982 134.719 87.3795C133.138 87.2609 131.872 86.7073 130.963 85.7187C130.053 84.73 129.658 83.3855 129.776 81.7246L130.449 72.6294C130.567 70.9685 130.211 70.0985 129.341 70.0194C128.709 69.9799 128.115 70.3358 127.562 71.1662C127.008 71.9967 126.731 73.1039 126.613 74.6066L125.782 85.6791C125.782 85.8373 125.703 85.9164 125.545 85.9164C124.359 86.1141 123.014 86.1537 121.432 86.035C120.167 85.9559 118.783 85.7187 117.359 85.3232C117.241 85.2837 117.201 85.2046 117.201 85.0859L118.19 71.7198C118.308 70.059 117.952 69.189 117.082 69.1099C116.45 69.0703 115.857 69.4262 115.303 70.2567C114.789 71.0871 114.472 72.1944 114.354 73.6971L113.523 84.7696C113.523 84.9278 113.444 85.0069 113.286 85.0069C112.1 85.2046 110.755 85.2441 109.173 85.1255C107.829 85.0069 106.405 84.7696 104.942 84.3741C104.824 84.3346 104.784 84.2555 104.784 84.1369C104.942 83.7019 105.298 79.352 105.931 71.1267C106.01 69.9799 105.97 69.1099 105.773 68.4772C105.575 67.8445 105.179 67.3304 104.626 66.8954C104.389 66.6977 104.27 66.4999 104.309 66.2231C104.349 65.5904 104.903 64.8391 106.01 63.89C107.117 62.9409 108.422 62.5455 109.964 62.6641C111.269 62.7432 112.298 63.1782 113.088 63.9295C113.879 64.6809 114.354 65.63 114.552 66.8163C114.552 66.8558 114.552 67.1722 114.591 67.7654H114.71C116.371 64.7204 118.625 63.3364 121.472 63.5341C122.896 63.6527 124.082 64.1273 125.07 65.0368C126.059 65.9463 126.613 67.1327 126.81 68.6749H126.929C128.59 65.63 130.844 64.2459 133.691 64.4436C135.352 64.5622 136.697 65.2345 137.764 66.4209C138.792 67.6072 139.227 69.2285 139.109 71.2848C139.069 71.7594 138.99 72.8271 138.832 74.5275C138.713 76.1884 138.595 77.612 138.476 78.7983C138.318 80.7756 138.832 82.1992 139.939 83.0692C140.256 83.346 140.374 83.5833 140.374 83.8205Z" fill="white"/>
<path d="M153.424 73.7762C155.797 73.2225 157.972 73.4598 159.988 74.488C160.938 72.9853 162.203 71.7594 163.706 70.8103C165.208 69.8612 166.83 69.4262 168.57 69.5053C170.982 69.624 172.682 70.3753 173.631 71.8385C174.58 73.3016 174.936 74.8043 174.66 76.3861L173.355 84.3741C173.038 86.3514 173.394 87.8145 174.462 88.7636C174.699 88.9613 174.778 89.1986 174.739 89.4359C174.62 90.0686 174.027 90.7804 172.84 91.6504C171.694 92.4808 170.349 92.7972 168.807 92.5599C167.225 92.3226 166.039 91.6504 165.169 90.5827C164.338 89.515 164.022 88.1309 164.299 86.5096L165.762 77.3352C165.881 76.6629 165.802 76.1093 165.564 75.7139C165.327 75.3184 165.011 75.0811 164.576 75.002C163.745 74.8834 162.994 75.2789 162.322 76.1884C163.706 77.7702 164.18 79.787 163.785 82.2783C163.35 84.9673 162.045 87.0236 159.87 88.4472C157.695 89.8709 155.204 90.3454 152.356 89.8709C150.498 89.5545 148.955 89.0404 147.65 88.2495C146.385 87.4586 145.436 86.5491 144.882 85.4814C144.289 84.4137 143.933 83.3855 143.736 82.3178C143.577 81.2501 143.538 80.2219 143.736 79.1938L144.566 74.4089C144.843 72.5898 144.487 71.2058 143.38 70.2171C143.142 70.0194 143.063 69.7821 143.103 69.4658C143.221 68.8331 143.815 68.0817 144.961 67.2117C146.108 66.3813 147.453 66.0649 148.995 66.3022C150.577 66.5395 151.803 67.2117 152.673 68.319C153.543 69.4262 153.859 70.7708 153.582 72.4316L153.424 73.7762ZM155.164 84.0578C155.678 83.2669 155.994 82.3574 156.153 81.3292C156.35 80.1429 156.271 79.1147 155.876 78.2843C155.48 77.4538 154.769 76.9397 153.74 76.7816C153.464 76.742 153.187 76.7025 152.87 76.742L152.159 81.171C151.763 83.6228 152.159 84.9673 153.424 85.165C154.096 85.2046 154.65 84.8487 155.164 84.0578Z" fill="white"/>
</svg>
