<svg width="294" height="86" viewBox="0 0 294 86" fill="none" xmlns="http://www.w3.org/2000/svg">
<path d="M18.8212 63.5315C44.3927 80.2086 68.1376 77.4291 128.969 67.264C193.612 56.3048 201.871 45.1868 257.462 48.8399C291.372 51.0635 293.039 70.4406 293.039 70.4406C293.039 70.4406 292.245 22.9508 244.358 16.8359C187.18 9.52973 93.6296 52.3341 34.7835 45.9809C1.82653 42.4867 0 23.5861 0 23.5861C0 23.5861 1.74711 52.3341 18.8212 63.5315Z" fill="#644F9A"/>
<path d="M266.991 54.4783C249.997 51.2223 232.764 54.1606 232.764 54.1606C232.764 54.1606 259.447 52.5723 275.965 64.961C288.116 74.0937 282.715 84.0999 282.715 84.0999C282.715 84.0999 284.224 88.0706 287.957 79.5732C291.689 71.2347 284.065 57.6549 266.991 54.4783Z" fill="#644F9A"/>
<path d="M7.54438 18.9006C4.44722 6.98847 12.7857 3.41482 12.7857 3.41482C12.7857 3.41482 13.8181 0.158827 7.30613 3.65306C0.79415 7.1473 -1.11179 19.4565 7.94145 29.9392C16.9947 40.4219 31.4481 41.6926 31.4481 41.6926C31.4481 41.6926 11.7533 34.8629 7.54438 18.9006Z" fill="#644F9A"/>
<path d="M59.8785 51.1429L70.1229 51.7782L69.8847 55.2724L63.611 54.8754L63.4521 57.8137L68.4552 58.1314L68.217 61.6256L63.2139 61.3079L63.055 64.4051L69.567 64.8022L69.3288 68.2964L58.6873 67.5817L59.8785 51.1429Z" fill="white"/>
<path d="M75.4437 59.7196L70.9965 52.0164L75.2848 51.8576L78.6202 58.0519L80.2085 57.9725L79.8909 51.6194L83.8616 51.4605L84.1793 57.8137L85.7675 57.7343L88.4676 51.2223L92.756 51.0635L89.0235 59.1637V59.2432L93.7884 67.5817L89.3412 67.8199L85.847 61.3079L84.2587 61.3874L84.5763 68.0582L80.6056 68.217L80.288 61.5462L78.6997 61.6256L75.8407 68.4552L71.3935 68.6935L75.4437 59.7196Z" fill="white"/>
<path d="M94.5826 50.587L104.827 49.3958L105.224 52.8106L98.9504 53.5253L99.3474 56.4636L104.351 55.8283L104.748 59.2432L99.7445 59.8785L100.142 62.9756L106.654 62.1815L107.051 65.5963L96.4885 66.8669L94.5826 50.587Z" fill="white"/>
<path d="M108.162 48.9193L112.451 48.2046L115.945 54.6371C116.501 55.5901 117.216 57.1784 117.216 57.1784H117.295C117.295 57.1784 117.454 55.5107 117.692 54.3989L118.883 47.1722L123.172 46.4574L127.222 62.4197L123.251 63.0551L121.584 55.8283C121.266 54.6371 121.107 53.1282 121.107 53.1282H121.028C121.028 53.1282 120.789 54.9548 120.631 55.9872L119.757 60.9903L116.263 61.6256L113.801 57.1784C113.245 56.2254 112.451 54.6371 112.451 54.6371H112.371C112.371 54.6371 112.769 56.0666 112.848 57.3372L113.563 64.7228L109.592 65.3581L108.162 48.9193Z" fill="white"/>
<path d="M126.348 45.7427L136.434 43.6779L137.149 47.0928L131.034 48.3634L131.669 51.3017L136.593 50.2693L137.308 53.6841L132.384 54.7165L133.019 57.7343L139.452 56.3842L140.166 59.7991L129.843 62.0227L126.348 45.7427Z" fill="white"/>
<path d="M145.964 41.1367C148.108 40.6602 150.57 40.7396 152.476 42.0102L151.364 45.425C150.173 44.7897 148.426 44.3927 146.996 44.7897C143.82 45.5839 143.025 48.1251 143.581 50.4281C144.137 52.8106 146.123 54.9548 149.22 54.1606C150.808 53.7636 152.158 52.4929 152.952 51.2223L155.652 53.6047C154.54 55.3518 152.793 57.099 149.855 57.8137C144.693 59.0049 140.643 56.2254 139.531 51.4605C138.419 46.6957 141.04 42.3279 145.964 41.1367Z" fill="white"/>
<path d="M158.194 49.7928C158.432 48.9193 158.591 48.681 158.591 48.681V48.6016C156.526 48.0457 155.335 46.4574 154.779 44.5515C154.143 42.0896 154.938 40.1837 156.446 39.0719C157.082 38.6748 157.876 38.2777 159.385 37.8807L164.864 36.4512L169.073 52.3341L165.182 53.3665L163.753 48.0457L162.323 48.4428L160.735 54.5577L156.446 55.7489L158.194 49.7928ZM162.958 44.9486L161.926 40.9778L160.576 41.3749C159.702 41.6132 159.146 41.9308 158.829 42.2485C158.511 42.6455 158.511 43.2809 158.67 43.9162C159.067 45.3456 160.02 45.7427 161.211 45.425L162.958 44.9486Z" fill="white"/>
<path d="M169.073 41.0573L167.882 35.7365L171.853 34.8629L172.885 39.3101C173.282 40.819 174.076 41.5337 175.585 41.2161C176.777 40.8984 177.729 40.3425 178.285 39.7866L176.856 33.7511L180.827 32.8776L184.559 48.9193L180.588 49.7928L179.238 43.9956C179.159 43.6779 179.08 43.2809 179.08 43.2809H179C178.285 43.8368 176.935 44.7103 175.268 45.028C171.853 45.7427 169.788 44.1544 169.073 41.0573Z" fill="white"/>
<path d="M184.639 31.9246L188.609 31.2099L189.8 37.6424L195.677 36.5306L194.486 30.0981L198.457 29.3833L201.474 45.5045L197.504 46.2192L196.312 39.866L190.436 40.9778L191.627 47.331L187.656 48.0457L184.639 31.9246Z" fill="white"/>
<path d="M202.507 28.5892L206.477 28.1127L207.113 33.1158L209.654 32.7982C212.831 32.4011 215.213 34.4659 215.69 37.8013C216.166 41.1367 214.26 43.6779 211.084 44.075L204.572 44.9486L202.507 28.5892ZM209.972 40.7396C211.322 40.5808 211.878 39.5484 211.719 38.2777C211.56 37.0071 210.766 36.1336 209.336 36.2924L207.589 36.5306L208.145 40.9778L209.972 40.7396ZM216.166 26.8421L220.137 26.3656L222.202 42.725L218.231 43.2014L216.166 26.8421Z" fill="white"/>
<path d="M224.663 26.0479L228.634 25.8891L228.952 33.5129C229.031 34.5453 228.872 36.2924 228.872 36.2924H228.952C228.952 36.2924 229.587 34.5453 230.222 33.4335L234.431 25.5714L238.481 25.4126L239.117 41.8514L235.146 42.0102L234.828 34.3864C234.749 33.3541 234.908 31.6069 234.908 31.6069H234.828C234.828 31.6069 234.193 33.3541 233.558 34.4659L229.349 42.3279L225.299 42.4867L224.663 26.0479ZM227.284 21.6801V21.4419L230.222 21.2831V21.6007C230.302 22.5537 231.016 22.9508 231.652 22.8714C232.287 22.8714 233.081 22.3949 233.081 21.4419V21.1242L236.02 20.9654V21.2037C236.178 23.4273 234.114 24.7773 231.811 24.9361C229.428 25.095 227.363 23.9037 227.284 21.6801Z" fill="white"/>
<path d="M38.9131 14.5328L48.6016 18.2653L47.331 21.6007L41.5337 19.3771L36.6895 31.9246L32.7982 30.4157L38.9131 14.5328Z" fill="#644F9A"/>
<path d="M49.0781 23.7449L49.7134 18.1859L60.9903 19.6154L58.9255 36.4512L54.7959 35.9747L56.4636 22.7125L53.2076 22.3154L52.9694 24.3802C51.937 32.7187 48.9987 35.5777 44.3132 34.9423L44.7897 31.2099C46.7751 31.051 48.284 29.7804 49.0781 23.7449Z" fill="#644F9A"/>
<path d="M67.3434 19.3771L71.7112 19.2183L78.0644 35.9747L73.8554 36.1336L72.7436 32.6393L67.5023 32.7982L66.6287 36.3718L62.4197 36.5306L67.3434 19.3771ZM71.5524 29.3833L70.4406 26.1273C70.0435 25.095 69.6464 23.189 69.6464 23.189H69.567C69.567 23.189 69.2494 25.095 68.9317 26.1273L68.0582 29.4627L71.5524 29.3833Z" fill="#644F9A"/>
<path d="M78.5408 18.8212L84.7352 18.0271C88.0706 17.63 90.6118 18.8212 91.0089 21.6801C91.1677 23.1096 90.6912 24.6185 89.5 25.492V25.5714C91.4854 25.9685 92.4384 27.4774 92.5972 29.0657C93.0737 32.7187 90.1353 34.4659 86.8793 34.8629L80.685 35.6571L78.5408 18.8212ZM85.6087 24.5391C86.6411 24.3802 87.0382 23.5861 86.8793 22.7919C86.7205 21.9978 86.244 21.3625 85.1322 21.6007L83.0675 21.839L83.4645 24.7773L85.6087 24.5391ZM86.7999 31.2893C87.9912 31.1305 88.4676 30.2569 88.3882 29.3039C88.2294 28.3509 87.5941 27.6362 86.4029 27.795L83.941 28.1127L84.3381 31.6069L86.7999 31.2893Z" fill="#644F9A"/>
<path d="M93.2325 16.8359L97.2826 16.0417L98.6327 22.7125L104.668 21.5213L103.318 14.8505L107.368 14.0564L110.704 30.654L106.654 31.4481L105.383 24.9361L99.3474 26.1273L100.618 32.6393L96.5679 33.4335L93.2325 16.8359Z" fill="#644F9A"/>
<path d="M110.386 13.3416L114.357 12.3092L115.707 17.3918L118.248 16.7564C121.425 15.8829 124.204 17.7094 125.078 21.0448C125.951 24.3008 124.442 27.2391 121.186 28.1127L114.674 29.7804L110.386 13.3416ZM119.598 24.7773C120.948 24.3802 121.345 23.3478 121.028 22.0772C120.631 20.7272 119.757 20.0124 118.327 20.4095L116.58 20.886L117.692 25.3332L119.598 24.7773ZM124.125 9.68856L128.095 8.65617L132.384 25.0155L128.413 26.0479L124.125 9.68856Z" fill="#644F9A"/>
<path d="M130.716 7.86203L134.687 6.67081L136.99 14.2946C137.308 15.327 137.625 17.0741 137.625 17.0741H137.705C137.705 17.0741 137.863 15.1682 138.181 13.8975L140.325 5.00311L144.296 3.81189L149.299 20.0124L145.328 21.2036L143.025 13.6593C142.708 12.6269 142.39 10.8798 142.39 10.8798H142.311C142.311 10.8798 142.152 12.7857 141.834 14.0564L139.69 22.9508L135.719 24.142L130.716 7.86203ZM132.225 2.85892L132.146 2.62068L135.084 1.74712L135.163 1.98536C135.481 2.85892 136.355 3.09716 136.99 2.85892C137.625 2.70009 138.261 1.98536 137.943 1.1118L137.863 0.873559L140.722 0L140.802 0.238243C141.437 2.46185 139.928 4.28838 137.625 5.00311C135.243 5.71784 132.86 5.00311 132.225 2.85892Z" fill="#644F9A"/>
<path d="M195.677 61.3079L208.463 59.8785L210.131 74.9672L206.477 75.3643L205.127 63.4521L199.727 64.0874L201.077 76.079L197.345 76.4761L195.677 61.3079Z" fill="#644F9A"/>
<path d="M212.513 59.6402L218.787 59.402C221.725 59.2432 223.79 61.3873 223.949 64.4051C224.108 67.4228 222.122 69.7259 219.184 69.8847L216.563 70.0435L216.722 74.729L212.989 74.8878L212.513 59.6402ZM218.31 66.7081C219.581 66.6287 220.216 65.7551 220.216 64.4845C220.137 63.2933 219.501 62.4991 218.31 62.5786L216.404 62.658L216.563 66.7875L218.31 66.7081Z" fill="#644F9A"/>
<path d="M226.887 59.1637L230.62 59.402L230.222 66.4699C230.143 67.4228 229.905 69.0905 229.905 69.0905H229.984C229.984 69.0905 230.778 67.5023 231.414 66.5493L236.02 59.7196L239.752 59.9579L238.879 75.126L235.146 74.8878L235.543 67.8199C235.623 66.8669 235.861 65.1992 235.861 65.1992H235.781C235.781 65.1992 234.987 66.7875 234.352 67.7405L229.746 74.5701L226.013 74.3319L226.887 59.1637Z" fill="#644F9A"/>
<path d="M243.008 71.2347C243.643 72.1083 244.676 73.0613 245.946 73.2995C247.217 73.5378 248.011 73.0613 248.25 71.9495C248.408 71.0759 248.011 70.3612 246.82 70.1229L244.994 69.7259L245.549 66.7875L246.979 67.1052C248.091 67.264 248.885 66.7081 248.964 65.914C249.123 65.0404 248.567 64.2463 247.535 64.008C246.582 63.8492 245.391 64.0874 244.199 64.6433L243.326 61.7844C245.232 60.6726 247.138 60.6726 248.805 60.9903C250.95 61.3873 253.332 63.2139 252.776 66.0728C252.458 67.7405 251.267 68.5346 250.235 69.0111V69.0905C251.585 69.8847 252.22 71.2347 251.903 72.823C251.347 75.7614 248.567 76.9526 245.708 76.3967C243.643 75.9996 241.817 74.8084 240.705 73.1407L243.008 71.2347Z" fill="#644F9A"/>
</svg>
